<svg height="512pt" viewBox="-94 0 512 512" width="512pt" xmlns="http://www.w3.org/2000/svg"><path d="m281.535156 512h-239.964844c-22.957031 0-41.570312-18.613281-41.570312-41.570312v-428.859376c0-22.957031 18.613281-41.570312 41.570312-41.570312h239.964844c22.957032 0 41.570313 18.613281 41.570313 41.570312v428.855469c.003906 22.960938-18.609375 41.574219-41.570313 41.574219zm0 0" fill="#6770e6"/><path d="m281.535156 0h-239.964844c-22.957031 0-41.570312 18.613281-41.570312 41.570312v14c0-22.957031 18.613281-41.570312 41.570312-41.570312h239.964844c22.957032 0 41.570313 18.613281 41.570313 41.570312v-14c.003906-22.957031-18.609375-41.570312-41.570313-41.570312zm0 0" fill="#8f95e6"/><path d="m41.570312 512h239.964844c22.957032 0 41.570313-18.613281 41.570313-41.570312v-14c0 22.957031-18.613281 41.570312-41.570313 41.570312h-239.964844c-22.957031 0-41.570312-18.613281-41.570312-41.570312v14c0 22.957031 18.613281 41.570312 41.570312 41.570312zm0 0" fill="#5861c7"/><path d="m41.570312 492c-11.890624 0-21.570312-9.679688-21.570312-21.570312v-402.859376c0-11.890624 9.679688-21.570312 21.570312-21.570312h239.964844c11.894532 0 21.570313 9.679688 21.570313 21.570312v402.859376c0 11.890624-9.675781 21.570312-21.570313 21.570312zm0 0" fill="#a1f1fc"/><path d="m202.828125 31.828125h-112.546875c-4.972656 0-9-4.03125-9-9s4.027344-9 9-9h112.546875c4.96875 0 9 4.03125 9 9s-4.03125 9-9 9zm0 0" fill="#5861c7"/><path d="m241.828125 22.828125c0 4.96875-4.03125 9-9 9s-9-4.03125-9-9 4.03125-9 9-9 9 4.03125 9 9zm0 0" fill="#5861c7"/><path d="m34.394531 46h45.597657l-12.027344 58.632812h-60.40625l15.476562-50.246093c1.535156-4.984375 6.144532-8.386719 11.359375-8.386719zm0 0" fill="#ff8354"/><path d="m79.996094 46h54.378906l-6.015625 58.632812h-60.394531zm0 0" fill="#fff7f2"/><path d="m134.375 46h54.375l6.015625 58.632812h-66.40625zm0 0" fill="#ff8354"/><path d="m188.75 46h54.378906l12.027344 58.632812h-60.390625zm0 0" fill="#fff7f2"/><path d="m243.128906 46h45.59375c5.21875 0 9.828125 3.40625 11.363282 8.394531l15.449218 50.238281h-60.378906zm0 0" fill="#ff8354"/><path d="m37.777344 142.949219h-.035156c-16.671876 0-30.1875-13.515625-30.1875-30.1875v-8.128907h60.410156v8.128907c0 16.671875-13.515625 30.1875-30.1875 30.1875zm0 0" fill="#e0734a"/><path d="m98.1875 142.949219h-.035156c-16.671875 0-30.1875-13.515625-30.1875-30.1875v-8.128907h60.410156v8.128907c0 16.671875-13.515625 30.1875-30.1875 30.1875zm0 0" fill="#ffefe4"/><path d="m224.984375 142.949219h-.03125c-16.671875 0-30.1875-13.515625-30.1875-30.1875v-8.128907h60.410156v8.128907c0 16.671875-13.519531 30.1875-30.191406 30.1875zm0 0" fill="#ffefe4"/><path d="m285.363281 142.949219c-16.671875 0-30.1875-13.515625-30.1875-30.1875v-8.128907h60.375v8.128907c0 16.671875-13.515625 30.1875-30.1875 30.1875zm0 0" fill="#e0734a"/><path d="m164.578125 142.949219h-6.015625c-16.671875 0-30.1875-13.515625-30.1875-30.1875v-8.128907h66.390625v8.128907c0 16.671875-13.515625 30.1875-30.1875 30.1875zm0 0" fill="#e0734a"/><path d="m207.960938 413.378906c-3.242188 0-6.441407-.875-9.25-2.539062-5.519532-3.269532-8.953126-9.269532-8.953126-15.664063 0-.511719.03125-1.011719.078126-1.511719.25-3.175781 1.328124-6.148437 3.042968-8.679687h-54.667968l-1.117188 1.667969c.964844 1.828125 1.621094 3.820312 1.921875 5.875.058594.386718.105469.785156.140625 1.1875.03125.34375.054688.71875.066406 1.101562l.003906.359375c0 2.75-.613281 5.410157-1.828124 7.914063-.546876 1.132812-1.210938 2.210937-1.972657 3.195312-.539062.691406-1.023437 1.253906-1.53125 1.761719-1.242187 1.242187-2.652343 2.296875-4.191406 3.132813-1.046875.566406-2.148437 1.03125-3.269531 1.378906-1.746094.542968-3.566406.816406-5.410156.816406-3.242188 0-6.4375-.878906-9.25-2.539062-5.519532-3.269532-8.953126-9.269532-8.953126-15.664063 0-.511719.027344-1.011719.074219-1.511719.382813-4.835937 2.730469-9.238281 6.304688-12.304687-1.886719-1.09375-3.425781-2.445313-4.601563-4.039063-2.738281-3.703125-3.394531-8.515625-1.84375-13.546875 1.628906-5.304687 4.996094-10.027343 10.035156-14.09375-2.800781-1.957031-5.023437-4.730469-6.257812-8.003906l-31.675781-83.863281c-.59375-1.570313-1.746094-2.851563-3.25-3.601563l-2.320313-1.160156c-.820312.195313-1.65625.296875-2.503906.296875h-17.238281c-4.65625 0-8.75-2.976562-10.183594-7.40625-.160156-.480469-.28125-.984375-.367187-1.5l-.035157-.222656c-.078125-.542969-.121093-1.058594-.121093-1.582032 0-1.78125.445312-3.546874 1.292968-5.109374.164063-.300782.339844-.59375.53125-.875 2-2.960938 5.320313-4.726563 8.882813-4.726563h17.238281c3.5625 0 6.878906 1.761719 8.878906 4.71875.191406.28125.371094.578125.539063.882813.152343.28125.289062.570312.414062.859374l2.324219 1.164063c5.125 2.5625 9.089844 6.917969 11.167969 12.265625l.085937.199219 5.316406 14.078125h154.160157c1.769531 0 3.355469.433594 4.746093 1.257812.421876.25.773438.5 1.097657.765625l.125.082031.460937.4375c.144532.140626.285156.289063.421875.4375l.421875.492188c.097656.125.207032.289062.324219.453125.054687.085937.121094.179687.183594.273437.214843.34375.398437.667969.550781 1.003907l.0625.128906.078125.199219c.074219.164062.179687.441406.269531.726562l.101563.332032c.074219.277343.128906.503906.175781.730468l.0625.398438c.039062.246094.0625.496094.074219.75.011719.109375.023437.289062.023437.46875.003906.195312-.007812.445312-.027344.699218l-.015624.277344c-.050782.460938-.109376.824219-.195313 1.1875l-14.851563 62.378906c-1.855468 7.792969-8.746093 13.238282-16.761718 13.238282h-80.441406c-9.339844 1.699218-24.488282 7.113281-27.820313 14.917968 1.410156.386719 4.210937.863282 9.476563.863282h101.816406c4.519531 0 8.195312 3.675781 8.195312 8.195312 0 4.515625-3.675781 8.195313-8.195312 8.195313h-4.492188l-1.339844 1.992187c.875 1.738282 1.476563 3.621094 1.757813 5.546875.058594.398438.105469.792969.136719 1.191407.023437.234374.042968.484374.050781.746093l.019531.050781v.660157c0 2.75-.613281 5.410156-1.824218 7.917969-.550782 1.136718-1.214844 2.210937-1.976563 3.195312-.523437.675781-1.023437 1.253906-1.53125 1.757812-1.242187 1.246094-2.652344 2.296876-4.191406 3.132813-1.042969.566406-2.144531 1.03125-3.269531 1.378906-1.742188.554688-3.5625.828125-5.40625.828125zm19.039062-76.949218c.394531 0 .722656-.257813.8125-.644532l4.558594-19.140625h-24.804688l-2.378906 19.785157zm-38.320312 0 2.378906-19.789063h-29.789063l2.785157 19.789063zm-66.8125-.546876c.117187.316407.449218.546876.785156.546876h24.851562l-2.785156-19.789063h-30.121094zm114.40625-35.628906 4.230468-17.773437h-28.824218l-2.140626 17.773437zm-43.238282 0 2.140625-17.773437h-38.710937l2.5 17.773437zm-50.621094 0-2.5-17.773437h-38.21875l6.710938 17.773437zm0 0" fill="#6770e6"/><path d="m298.007812 256c0 22.394531-18.15625 40.546875-40.550781 40.546875s-40.546875-18.152344-40.546875-40.546875 18.152344-40.546875 40.546875-40.546875 40.550781 18.152344 40.550781 40.546875zm0 0" fill="#d476e2"/><path d="m274.609375 248.722656h-9.875v-9.875c0-4.019531-3.257813-7.277344-7.277344-7.277344s-7.277343 3.257813-7.277343 7.277344v9.875h-9.875c-4.019532 0-7.277344 3.257813-7.277344 7.277344s3.257812 7.277344 7.277344 7.277344h9.875v9.875c0 4.019531 3.257812 7.277344 7.277343 7.277344s7.277344-3.257813 7.277344-7.277344v-9.875h9.875c4.019531 0 7.277344-3.257813 7.277344-7.277344s-3.257813-7.277344-7.277344-7.277344zm0 0" fill="#fff7f2"/></svg>