<svg height="512pt" viewBox="0 0 512 512" width="512pt" xmlns="http://www.w3.org/2000/svg"><path d="m33.671875 0c-18.601563 0-33.671875 15.070312-33.671875 33.671875v59.003906h67.339844v-59.003906c0-18.601563-15.078125-33.671875-33.667969-33.671875zm0 0" fill="#edd4c2"/><path d="m409.851562 0h-376.1875c18.601563 0 33.671876 15.074219 33.671876 33.671875v478.328125h376.1875v-478.328125c0-18.597656-15.085938-33.671875-33.671876-33.671875zm0 0" fill="#ffefe4"/><path d="m67.335938 492h376.1875v20h-376.1875zm0 0" fill="#edd4c2"/><path d="m409.851562 0h-376.1875c13.730469 0 25.53125 8.21875 30.773438 20h345.414062c18.585938 0 33.671876 15.074219 33.671876 33.671875v-20c0-18.597656-15.085938-33.671875-33.671876-33.671875zm0 0" fill="#fff7f2"/><path d="m272.828125 171.714844c0 40.316406-32.679687 73-73 73-40.316406 0-73-32.683594-73-73s32.683594-73 73-73c40.320313 0 73 32.683594 73 73zm0 0" fill="#8f95e6"/><path d="m182.574219 196.933594h34.511719v14.597656h-34.511719zm0 0" fill="#5fd4e3"/><path d="m243.242188 209.597656c-.058594-.011718-.121094-.027344-.179688-.042968l-26.890625-6.0625h-32.683594l-26.890625 6.0625c-.058594.015624-.121094.03125-.179687.042968-5.285157 1.230469-9.773438 4.386719-12.824219 8.65625 13.386719 16.160156 33.609375 26.457032 56.234375 26.457032 22.628906 0 42.851563-10.296876 56.238281-26.457032-3.050781-4.269531-7.539062-7.425781-12.824218-8.65625zm0 0" fill="#5fd4e3"/><path d="m205.800781 226.132812h-11.941406l-2.65625-14.601562h17.253906zm0 0" fill="#6770e6"/><path d="m191.84375 244.269531c2.621094.285157 5.285156.445313 7.984375.445313 2.703125 0 5.367187-.160156 7.988281-.445313l-2.015625-18.136719h-11.945312zm0 0" fill="#5861c7"/><path d="m219.421875 126.335938c-.832031-3.21875-4.382813-7.78125-17.84375-7.78125-20.792969 0-23.753906 3.078124-29.289063-2.238282-4.667968-4.488281-7.410156 17.109375-1.183593 23.964844-2.628907 9.714844-.527344 19.441406-.527344 19.441406h58.503906s4.910157-22.726562-9.660156-33.386718zm0 0" fill="#339"/><path d="m176.484375 160.742188s-2.519531-4.617188-7.5625-4.617188c-5.046875 0-8.621094 22.175781 7.5625 18.480469zm0 0" fill="#ffe4d1"/><path d="m223.175781 160.742188s2.519531-4.617188 7.5625-4.617188c5.046875 0 8.621094 22.175781-7.5625 18.480469zm0 0" fill="#ffe4d1"/><path d="m213.09375 182.335938h-26.523438v17.976562l13.257813 11.21875 13.273437-11.230469zm0 0" fill="#ffe4d1"/><path d="m199.828125 131.023438c-38.644531 0-31.257813 63.382812 0 63.382812 31.261719 0 38.648437-63.382812 0-63.382812zm0 0" fill="#ffefe4"/><path d="m199.828125 127.574219s-26.285156-3.707031-26.285156 30.019531c0 0 3.3125-13.941406 10.90625-17.742188 3.535156-1.769531 4.832031 2.714844 15.382812 2.714844s11.847657-4.484375 15.382813-2.714844c7.59375 3.800782 10.90625 17.742188 10.90625 17.742188-.003906-33.726562-26.292969-30.019531-26.292969-30.019531zm0 0" fill="#339"/><path d="m229.03125 206.222656-17.253906 18.582032-11.949219-13.273438 17.257813-14.597656zm0 0" fill="#69ebfc"/><path d="m170.628906 206.222656 17.253906 18.582032 11.945313-13.273438-17.253906-14.597656zm0 0" fill="#69ebfc"/><path d="m330.308594 78.714844h-190.957032c-6.914062 0-12.523437-5.605469-12.523437-12.523438 0-6.914062 5.609375-12.519531 12.523437-12.519531h190.957032c6.914062 0 12.519531 5.605469 12.519531 12.519531 0 6.917969-5.605469 12.523438-12.519531 12.523438zm0 0" fill="#ffac8c"/><g fill="#edd4c2"><path d="m376.832031 304.242188h-198.804687c-5.078125 0-9.199219-4.117188-9.199219-9.195313 0-5.082031 4.121094-9.199219 9.199219-9.199219h198.800781c5.082031 0 9.199219 4.117188 9.199219 9.199219.003906 5.078125-4.117188 9.195313-9.195313 9.195313zm0 0"/><path d="m376.832031 352.449219h-198.804687c-5.078125 0-9.199219-4.121094-9.199219-9.199219s4.121094-9.199219 9.199219-9.199219h198.800781c5.082031 0 9.199219 4.121094 9.199219 9.199219.003906 5.078125-4.117188 9.199219-9.195313 9.199219zm0 0"/><path d="m376.832031 400.648438h-198.804687c-5.078125 0-9.199219-4.117188-9.199219-9.195313 0-5.082031 4.121094-9.199219 9.199219-9.199219h198.800781c5.082031 0 9.199219 4.117188 9.199219 9.199219.003906 5.078125-4.117188 9.195313-9.195313 9.195313zm0 0"/><path d="m376.832031 448.851562h-198.804687c-5.078125 0-9.199219-4.117187-9.199219-9.199218 0-5.078125 4.121094-9.195313 9.199219-9.195313h198.800781c5.082031 0 9.199219 4.117188 9.199219 9.195313.003906 5.082031-4.117188 9.199218-9.195313 9.199218zm0 0"/><path d="m147.230469 295.046875c0 5.082031-4.121094 9.199219-9.199219 9.199219-5.082031 0-9.203125-4.117188-9.203125-9.199219s4.121094-9.199219 9.203125-9.199219c5.078125 0 9.199219 4.117188 9.199219 9.199219zm0 0"/><path d="m147.230469 343.246094c0 5.082031-4.121094 9.203125-9.199219 9.203125-5.082031 0-9.203125-4.121094-9.203125-9.203125 0-5.078125 4.121094-9.199219 9.203125-9.199219 5.078125 0 9.199219 4.121094 9.199219 9.199219zm0 0"/><path d="m147.230469 391.453125c0 5.078125-4.121094 9.199219-9.199219 9.199219-5.082031 0-9.203125-4.121094-9.203125-9.199219 0-5.082031 4.121094-9.199219 9.203125-9.199219 5.078125 0 9.199219 4.117188 9.199219 9.199219zm0 0"/><path d="m147.230469 439.652344c0 5.082031-4.121094 9.203125-9.199219 9.203125-5.082031 0-9.203125-4.121094-9.203125-9.203125 0-5.078125 4.121094-9.199219 9.203125-9.199219 5.078125 0 9.199219 4.121094 9.199219 9.199219zm0 0"/><path d="m352.03125 134.96875h-51.203125c-4.417969 0-8-3.582031-8-8s3.582031-8 8-8h51.203125c4.417969 0 8 3.582031 8 8s-3.582031 8-8 8zm0 0"/><path d="m376.03125 182.867188h-75.203125c-4.417969 0-8-3.582032-8-8 0-4.417969 3.582031-8 8-8h75.203125c4.417969 0 8 3.582031 8 8 0 4.417968-3.582031 8-8 8zm0 0"/><path d="m352.03125 231.070312h-51.203125c-4.417969 0-8-3.582031-8-8 0-4.417968 3.582031-8 8-8h51.203125c4.417969 0 8 3.582032 8 8 0 4.417969-3.582031 8-8 8zm0 0"/></g><path d="m463.128906 349.03125s21.429688-28.625 16.625-40.957031c-4.261718-10.933594-21.300781-8.230469-29.816406 0-8.523438 8.234375-5-16.769531-30.722656-16.769531-25.71875 0-22.199219 25.003906-30.71875 16.769531-8.519532-8.230469-25.558594-10.933594-29.816406 0-4.804688 12.335937 16.621093 40.957031 16.621093 40.957031s-48.867187 51.300781-48.867187 99.683594c0 29.5625 13.773437 63.285156 92.785156 63.285156 79.007812 0 92.78125-33.722656 92.78125-63.285156 0-48.382813-48.871094-99.683594-48.871094-99.683594zm0 0" fill="#6770e6"/><path d="m388.496094 322.074219c8.519531 8.234375 5-16.769531 30.71875-16.769531 25.722656 0 22.199218 25.003906 30.722656 16.769531 8.054688-7.789063 23.722656-10.609375 29-1.636719 1.511719-4.707031 2.085938-9.105469.816406-12.363281-4.261718-10.933594-21.300781-8.234375-29.820312 0-8.519532 8.234375-5-16.769531-30.71875-16.769531-25.722656 0-22.199219 25.003906-30.722656 16.769531-8.519532-8.234375-25.554688-10.933594-29.8125 0-1.273438 3.257812-.699219 7.65625.8125 12.363281 5.28125-8.972656 20.945312-6.152344 29.003906 1.636719zm0 0" fill="#8f95e6"/><path d="m419.214844 498c-72.46875 0-90.042969-28.371094-92.460938-55.878906-.191406 2.199218-.324218 4.398437-.324218 6.59375 0 29.5625 13.777343 63.285156 92.785156 63.285156 79.007812 0 92.785156-33.722656 92.785156-63.285156 0-2.195313-.132812-4.394532-.324219-6.59375-2.414062 27.507812-19.992187 55.878906-92.460937 55.878906zm0 0" fill="#5861c7"/><path d="m470.226562 356.625h-102.023437c-4.191406 0-7.589844-3.398438-7.589844-7.59375 0-4.191406 3.398438-7.589844 7.589844-7.589844h102.023437c4.195313 0 7.589844 3.398438 7.589844 7.589844 0 4.195312-3.394531 7.59375-7.589844 7.59375zm0 0" fill="#69ebfc"/><path d="m415.359375 466.113281c-4.839844-.710937-9.140625-2.578125-12.914063-5.609375-2.203124-1.769531-4.035156-3.988281-5.5-6.65625-1.773437-3.234375-.390624-7.304687 3.027344-8.703125 2.71875-1.109375 5.902344-.164062 7.417969 2.347657.488281.808593 1.050781 1.578124 1.683594 2.316406 1.738281 2.035156 3.832031 3.4375 6.285156 4.207031v-18.378906l-.867187-.390625c-2.382813-.902344-4.628907-1.960938-6.722657-3.195313-2.09375-1.222656-3.933593-2.644531-5.511719-4.253906-1.589843-1.609375-2.847656-3.429687-3.777343-5.464844-.941407-2.035156-1.410157-4.304687-1.410157-6.824219 0-2.320312.421876-4.515624 1.257813-6.578124.847656-2.0625 2.050781-3.902344 3.636719-5.515626 1.578125-1.609374 3.492187-2.953124 5.757812-4.015624 2.253906-1.066407 4.800782-1.757813 7.636719-2.082032v-4.015625c0-2.375 1.925781-4.304687 4.304687-4.304687 2.378907 0 4.304688 1.929687 4.304688 4.304687v4.210938c2.582031.382812 4.828125 1.0625 6.726562 2.03125 1.90625.96875 3.535157 2.097656 4.9375 3.339843.542969.476563 1.0625 1.046876 1.554688 1.664063 2.445312 3.058594 1.203125 7.632813-2.371094 9.226563-2.449218 1.09375-5.273437.410156-7.078125-1.578126-.945312-1.042968-2.1875-2.066406-3.769531-2.785156v17.320313c2.78125 1.164062 5.289062 2.359375 7.554688 3.582031 2.253906 1.226562 4.1875 2.613281 5.800781 4.160156 1.617187 1.546875 2.835937 3.308594 3.671875 5.269532.847656 1.972656 1.261718 4.246093 1.261718 6.824218 0 2.902344-.5 5.488282-1.496093 7.742188-1.003907 2.257812-2.335938 4.195312-4.019531 5.804687-1.683594 1.613281-3.625 2.90625-5.851563 3.871094-2.226563.96875-4.535156 1.644531-6.921875 2.03125v4.207031c0 2.378906-1.929688 4.304688-4.308594 4.304688-2.375 0-4.304687-1.925782-4.304687-4.304688v-4.109375zm-6.378906-50.605469c0 1.550782.5 2.886719 1.496093 4.015626 1.003907 1.132812 2.628907 2.277343 4.882813 3.4375v-14.125c-1.933594.515624-3.476563 1.351562-4.640625 2.511718-1.164062 1.164063-1.738281 2.550782-1.738281 4.160156zm20.898437 31.160157c0-1.675781-.449218-3.066407-1.359375-4.160157-.902343-1.097656-2.414062-2.195312-4.546875-3.292968v14.804687c1.746094-.578125 3.164063-1.5 4.261719-2.757812 1.089844-1.257813 1.644531-2.789063 1.644531-4.59375zm0 0" fill="#ffefe4"/></svg>