<svg id="Layer_1" height="512" viewBox="0 0 150 150" width="512" xmlns="http://www.w3.org/2000/svg" data-name="Layer 1"><circle cx="75" cy="75" fill="#21b3a9" r="64"/><path d="m96 54.32c-5.36-5.32-12.9-6.44-16.87-2.47s-2.86 11.51 2.47 16.84 12.87 6.44 16.84 2.47 2.86-11.51-2.44-16.84z" fill="#ebf0f3"/><path d="m105.6 68.69-24.29-24.29a1.21 1.21 0 0 0 -1.71 0l-3.88 3.88-.63 3.42 7 18.87 19.58 3.71 3.88-3.88a1.21 1.21 0 0 0 .05-1.71z" fill="#3a556a"/><path d="m68.9 68.65-29.26 29.25a2.5 2.5 0 0 0 0 3.53l8.93 8.93a2.5 2.5 0 0 0 3.53 0l29.25-29.26z" fill="#3a556a"/><path d="m80.04 82.42-12.46-12.46 8.14-21.68 26 26z" fill="#2f4859"/><path d="m62.52 87.48a1.21 1.21 0 0 0 -1.72 0l-4.8 4.82a1.22 1.22 0 0 0 1.7 1.7l4.82-4.82a1.21 1.21 0 0 0 0-1.7z" fill="#e56353"/><g fill="#ebf0f3"><path d="m97.71 47.95h7.12v1.55h-7.12z" transform="matrix(.707 -.707 .707 .707 -4.79 85.89)"/><path d="m102.77 54.44h7.12v1.55h-7.12z" transform="matrix(.918 -.397 .397 .918 -13.18 46.7)"/><path d="m106.68 59.59h1.55v7.12h-1.55z" transform="matrix(.14 -.99 .99 .14 29.87 160.69)"/><path d="m91.22 42.9h7.12v1.55h-7.12z" transform="matrix(.397 -.918 .918 .397 17.1 113.36)"/><path d="m86.08 38.98h1.55v7.12h-1.55z" transform="matrix(.99 -.14 .14 .99 -5.11 12.59)"/></g></svg>