<svg height="512pt" viewBox="0 0 512 512" width="512pt" xmlns="http://www.w3.org/2000/svg"><path d="m476.316406 512h-440.632812c-19.707032 0-35.683594-15.976562-35.683594-35.683594v-440.632812c0-19.707032 15.976562-35.683594 35.683594-35.683594h440.628906c19.710938 0 35.6875 15.976562 35.6875 35.683594v440.628906c0 19.710938-15.976562 35.6875-35.683594 35.6875zm0 0" fill="#d476e2"/><path d="m476.316406 0h-440.632812c-19.707032 0-35.683594 15.976562-35.683594 35.683594v14c0-19.707032 15.976562-35.683594 35.683594-35.683594h440.628906c19.710938 0 35.6875 15.976562 35.6875 35.683594v-14c0-19.707032-15.976562-35.683594-35.683594-35.683594zm0 0" fill="#ea82fa"/><path d="m35.683594 512h440.628906c19.710938 0 35.683594-15.976562 35.683594-35.683594v-14c0 19.707032-15.972656 35.683594-35.683594 35.683594h-440.628906c-19.707032 0-35.683594-15.976562-35.683594-35.683594v14c0 19.707032 15.976562 35.683594 35.683594 35.683594zm0 0" fill="#b665c2"/><path d="m445.535156 475.386719h-379.070312c-16.488282 0-29.851563-13.363281-29.851563-29.851563v-379.070312c0-16.488282 13.367188-29.851563 29.851563-29.851563h379.070312c16.488282 0 29.851563 13.367188 29.851563 29.851563v379.070312c0 16.488282-13.363281 29.851563-29.851563 29.851563zm0 0" fill="#b665c2"/><path d="m424.910156 293.796875h-340.15625c-10.285156 0-18.621094-8.335937-18.621094-18.621094v-179.941406c0-10.285156 8.335938-18.621094 18.621094-18.621094h340.15625c10.285156 0 18.621094 8.335938 18.621094 18.621094v179.941406c.003906 10.28125-8.335938 18.621094-18.621094 18.621094zm0 0" fill="#d476e2"/><g fill="#69ebfc"><path d="m354.894531 270.121094h-200.125c-10.679687 0-19.335937-8.660156-19.335937-19.339844v-131.15625c0-10.679688 8.65625-19.335938 19.335937-19.335938h200.125c10.679688 0 19.339844 8.65625 19.339844 19.335938v131.160156c0 10.679688-8.660156 19.335938-19.339844 19.335938zm0 0"/><path d="m116.570312 130.242188h-18.472656c-4.4375 0-8.035156-3.597657-8.035156-8.03125 0-4.4375 3.597656-8.03125 8.035156-8.03125h18.472656c4.4375 0 8.03125 3.59375 8.03125 8.03125 0 4.433593-3.59375 8.03125-8.03125 8.03125zm0 0"/><path d="m116.570312 172.238281h-18.472656c-4.4375 0-8.035156-3.597656-8.035156-8.03125 0-4.4375 3.597656-8.03125 8.035156-8.03125h18.472656c4.4375 0 8.03125 3.59375 8.03125 8.03125 0 4.433594-3.59375 8.03125-8.03125 8.03125zm0 0"/><path d="m116.570312 214.234375h-18.472656c-4.4375 0-8.035156-3.597656-8.035156-8.03125 0-4.4375 3.597656-8.03125 8.035156-8.03125h18.472656c4.4375 0 8.03125 3.59375 8.03125 8.03125 0 4.433594-3.59375 8.03125-8.03125 8.03125zm0 0"/><path d="m116.570312 256.230469h-18.472656c-4.4375 0-8.035156-3.597657-8.035156-8.03125 0-4.4375 3.597656-8.035157 8.035156-8.035157h18.472656c4.4375 0 8.03125 3.597657 8.03125 8.035157 0 4.433593-3.59375 8.03125-8.03125 8.03125zm0 0"/><path d="m412.554688 130.242188h-18.476563c-4.433594 0-8.03125-3.597657-8.03125-8.03125 0-4.4375 3.597656-8.03125 8.03125-8.03125h18.476563c4.433593 0 8.03125 3.59375 8.03125 8.03125 0 4.433593-3.597657 8.03125-8.03125 8.03125zm0 0"/><path d="m412.554688 172.238281h-18.476563c-4.433594 0-8.03125-3.597656-8.03125-8.03125 0-4.4375 3.597656-8.03125 8.03125-8.03125h18.476563c4.433593 0 8.03125 3.59375 8.03125 8.03125 0 4.433594-3.597657 8.03125-8.03125 8.03125zm0 0"/><path d="m412.554688 214.234375h-18.476563c-4.433594 0-8.03125-3.597656-8.03125-8.03125 0-4.4375 3.597656-8.03125 8.03125-8.03125h18.476563c4.433593 0 8.03125 3.59375 8.03125 8.03125 0 4.433594-3.597657 8.03125-8.03125 8.03125zm0 0"/><path d="m412.554688 256.230469h-18.476563c-4.433594 0-8.03125-3.597657-8.03125-8.03125 0-4.4375 3.597656-8.035157 8.03125-8.035157h18.476563c4.433593 0 8.03125 3.597657 8.03125 8.035157 0 4.433593-3.597657 8.03125-8.03125 8.03125zm0 0"/></g><path d="m234.050781 359.578125h-152.140625c-8.714844 0-15.777344-7.0625-15.777344-15.777344 0-8.714843 7.066407-15.78125 15.777344-15.78125h152.140625c8.71875 0 15.78125 7.066407 15.78125 15.78125 0 8.714844-7.066406 15.777344-15.78125 15.777344zm0 0" fill="#d476e2"/><path d="m422.980469 453.132812h-125.4375c-11.351563 0-20.550781-9.203124-20.550781-20.554687v-84.007813c0-11.351562 9.203124-20.550781 20.550781-20.550781h125.4375c11.351562 0 20.550781 9.203125 20.550781 20.550781v84.007813c.003906 11.351563-9.199219 20.554687-20.550781 20.554687zm0 0" fill="#d476e2"/><path d="m213.03125 343.800781v74.996094c0 8.9375-7.25 16.1875-16.191406 16.1875h-77.714844c-8.941406 0-16.191406-7.246094-16.191406-16.1875v-74.996094zm0 0" fill="#6770e6"/><path d="m121.796875 405.683594c0 .453125.386719.839844.84375.839844h16.367187c.457032 0 .84375-.386719.84375-.839844v-7.914063c0-.457031-.386718-.84375-.84375-.84375h-16.367187c-.457031 0-.84375.386719-.84375.84375zm0 0" fill="#69ebfc"/><path d="m126.285156 409.71875h9.074219v6.609375h-9.074219zm0 0" fill="#69ebfc"/><path d="m126.285156 387.121094h9.074219v6.609375h-9.074219zm0 0" fill="#69ebfc"/><path d="m138.554688 393.730469h.449218c2.226563 0 4.039063 1.8125 4.039063 4.039062v7.914063c0 2.222656-1.8125 4.035156-4.039063 4.035156h-.449218v6.609375h2.453124c3.535157 0 6.398438-2.863281 6.398438-6.398437v-16.410157c0-3.535156-2.863281-6.402343-6.398438-6.402343h-2.453124zm0 0" fill="#69ebfc"/><path d="m114.234375 393.519531v16.414063c0 3.53125 2.867187 6.398437 6.402344 6.398437h2.453125v-6.613281h-.449219c-2.226563 0-4.039063-1.808594-4.039063-4.035156v-7.910156c0-2.226563 1.8125-4.039063 4.039063-4.039063h.449219v-6.613281h-2.453125c-3.535157 0-6.402344 2.863281-6.402344 6.398437zm0 0" fill="#69ebfc"/><path d="m166.464844 392.238281v18.972657c0 2.816406-2.304688 5.117187-5.117188 5.117187-2.816406 0-5.121094-2.300781-5.121094-5.117187v-18.972657c0-2.816406 2.304688-5.117187 5.121094-5.117187 2.8125 0 5.117188 2.304687 5.117188 5.117187zm0 0" fill="#8f95e6"/><path d="m193.625 374.957031v36.253907c0 2.816406-2.304688 5.117187-5.117188 5.117187-2.816406 0-5.121093-2.300781-5.121093-5.117187v-36.253907c0-2.816406 2.304687-5.117187 5.121093-5.117187 2.8125 0 5.117188 2.300781 5.117188 5.117187zm0 0" fill="#8f95e6"/><path d="m166.464844 358.617188v18.976562c0 2.8125-2.304688 5.117188-5.117188 5.117188-2.816406 0-5.121094-2.304688-5.121094-5.117188v-18.976562c0-2.816407 2.304688-5.117188 5.121094-5.117188 2.8125 0 5.117188 2.300781 5.117188 5.117188zm0 0" fill="#8f95e6"/><path d="m325.683594 365.597656h-16.574219c-3.996094 0-7.261719-3.269531-7.261719-7.261718v-5.171876c0-3.992187 3.269532-7.261718 7.261719-7.261718h16.574219c3.992187 0 7.257812 3.269531 7.257812 7.261718v5.171876c0 3.992187-3.265625 7.261718-7.257812 7.261718zm0 0" fill="#69ebfc"/><path d="m368.363281 365.597656h-16.574219c-3.996093 0-7.261718-3.269531-7.261718-7.261718v-5.171876c0-3.992187 3.269531-7.261718 7.261718-7.261718h16.574219c3.992188 0 7.257813 3.269531 7.257813 7.261718v5.171876c0 3.992187-3.265625 7.261718-7.257813 7.261718zm0 0" fill="#69ebfc"/><path d="m411.414062 365.597656h-16.570312c-3.996094 0-7.261719-3.269531-7.261719-7.261718v-5.171876c0-3.992187 3.269531-7.261718 7.261719-7.261718h16.570312c3.996094 0 7.261719 3.269531 7.261719 7.261718v5.171876c0 3.992187-3.265625 7.261718-7.261719 7.261718zm0 0" fill="#69ebfc"/><path d="m325.683594 400.421875h-16.574219c-3.996094 0-7.261719-3.269531-7.261719-7.261719v-5.171875c0-3.992187 3.269532-7.257812 7.261719-7.257812h16.574219c3.992187 0 7.257812 3.265625 7.257812 7.257812v5.171875c0 3.992188-3.265625 7.261719-7.257812 7.261719zm0 0" fill="#69ebfc"/><path d="m368.363281 400.421875h-16.574219c-3.996093 0-7.261718-3.269531-7.261718-7.261719v-5.171875c0-3.992187 3.269531-7.257812 7.261718-7.257812h16.574219c3.992188 0 7.257813 3.265625 7.257813 7.257812v5.171875c0 3.992188-3.265625 7.261719-7.257813 7.261719zm0 0" fill="#69ebfc"/><path d="m411.414062 400.421875h-16.570312c-3.996094 0-7.261719-3.269531-7.261719-7.261719v-5.171875c0-3.992187 3.269531-7.257812 7.261719-7.257812h16.570312c3.996094 0 7.261719 3.265625 7.261719 7.257812v5.171875c0 3.992188-3.265625 7.261719-7.261719 7.261719zm0 0" fill="#69ebfc"/><path d="m325.683594 435.246094h-16.574219c-3.996094 0-7.261719-3.265625-7.261719-7.257813v-5.171875c0-3.996094 3.269532-7.261718 7.261719-7.261718h16.574219c3.992187 0 7.257812 3.269531 7.257812 7.261718v5.171875c0 3.992188-3.265625 7.257813-7.257812 7.257813zm0 0" fill="#69ebfc"/><path d="m368.363281 435.246094h-16.574219c-3.996093 0-7.261718-3.265625-7.261718-7.257813v-5.171875c0-3.996094 3.269531-7.261718 7.261718-7.261718h16.574219c3.992188 0 7.257813 3.269531 7.257813 7.261718v5.171875c0 3.992188-3.265625 7.257813-7.257813 7.257813zm0 0" fill="#69ebfc"/><path d="m411.414062 435.246094h-16.570312c-3.996094 0-7.261719-3.265625-7.261719-7.257813v-5.171875c0-3.996094 3.269531-7.261718 7.261719-7.261718h16.570312c3.996094 0 7.261719 3.269531 7.261719 7.261718v5.171875c0 3.992188-3.265625 7.257813-7.261719 7.257813zm0 0" fill="#69ebfc"/><path d="m250.320312 235.800781c-7.125-1.042969-13.460937-3.796875-19.023437-8.265625-3.242187-2.605468-5.9375-5.871094-8.097656-9.800781-2.617188-4.765625-.574219-10.761719 4.460937-12.816406 4-1.632813 8.695313-.246094 10.929688 3.457031.714844 1.1875 1.542968 2.328125 2.472656 3.410156 2.5625 2.996094 5.644531 5.066406 9.257812 6.199219v-27.078125l-1.273437-.570312c-3.511719-1.328126-6.820313-2.894532-9.90625-4.707032-3.085937-1.796875-5.792969-3.894531-8.121094-6.265625-2.335937-2.375-4.191406-5.058593-5.5625-8.054687-1.382812-2.996094-2.074219-6.34375-2.074219-10.050782 0-3.417968.621094-6.648437 1.851563-9.691406 1.246094-3.035156 3.019531-5.75 5.355469-8.121094 2.324218-2.375 5.144531-4.351562 8.480468-5.914062 3.320313-1.570312 7.070313-2.589844 11.246094-3.066406v-5.914063c0-3.503906 2.839844-6.34375 6.34375-6.34375s6.347656 2.839844 6.347656 6.34375v6.199219c3.800782.566406 7.109376 1.570312 9.902344 2.996094 2.808594 1.425781 5.210938 3.089844 7.28125 4.917968.792969.703126 1.5625 1.542969 2.289063 2.453126 3.597656 4.503906 1.773437 11.242187-3.496094 13.59375-3.609375 1.609374-7.765625.601562-10.421875-2.324219-1.394531-1.535157-3.226562-3.042969-5.554688-4.105469v25.511719c4.097657 1.714843 7.789063 3.472656 11.125 5.277343 3.320313 1.804688 6.167969 3.84375 8.550782 6.128907 2.378906 2.273437 4.175781 4.867187 5.410156 7.761719 1.246094 2.90625 1.851562 6.253906 1.851562 10.050781 0 4.273437-.734374 8.082031-2.199218 11.398437-1.480469 3.328125-3.445313 6.179688-5.921875 8.550782-2.476563 2.382812-5.339844 4.28125-8.621094 5.707031-3.277344 1.425781-6.679687 2.421875-10.195313 2.988281v6.199219c0 3.503906-2.839843 6.34375-6.34375 6.34375-3.503906 0-6.34375-2.839844-6.34375-6.34375zm-9.394531-74.539062c0 2.28125.734375 4.253906 2.199219 5.914062 1.480469 1.667969 3.875 3.351563 7.195312 5.0625v-20.808593c-2.851562.761718-5.117187 1.992187-6.835937 3.699218-1.714844 1.71875-2.558594 3.757813-2.558594 6.132813zm30.78125 45.894531c0-2.46875-.664062-4.519531-2.003906-6.128906-1.328125-1.617188-3.558594-3.230469-6.695313-4.847656v21.800781c2.570313-.847657 4.660157-2.203125 6.28125-4.058594 1.601563-1.855469 2.417969-4.109375 2.417969-6.765625zm0 0" fill="#ffefe4"/></svg>