<svg height="512pt" viewBox="0 0 512.42381 512" width="512pt" xmlns="http://www.w3.org/2000/svg"><path d="m43.46875 244.351562c-.769531 41.601563-6.980469 88.128907-8.421875 98.457032 10.070313 3.070312 15.472656 29.3125 42.507813 29.3125 33.15625 0 88-51.90625 111.667968-60.84375-2.125-9.226563-5.398437-23.953125-7.171875-34.46875-2.773437-16.402344 13.238281-276.597656 13.238281-276.597656h-168.398437s17.453125 197.023437 16.578125 244.140624zm0 0" fill="#ffefe4"/><path d="m194.4375 14.210938c.535156-8.863282.851562-14 .851562-14h-168.398437s.460937 5.171874 1.21875 14zm0 0" fill="#fff7f2"/><path d="m36.214844 114.523438c3.996094 52.226562 7.667968 107.578124 7.257812 129.832031-.769531 41.601562-6.980468 88.128906-8.421875 98.453125 10.070313 3.070312 15.472657 29.316406 42.503907 29.316406 33.15625 0 88.003906-51.910156 111.667968-60.84375-2.121094-9.226562-5.394531-23.957031-7.171875-34.46875-1.511719-8.964844 2.585938-90.347656 6.609375-162.289062zm0 0" fill="#69ebfc"/><path d="m210.957031 311.382812s-17.609375-46.507812-37.480469-40.855468c-24.5625 6.988281-32.785156 47.570312-29.789062 69.890625zm0 0" fill="#5861c7"/><path d="m173.476562 284.527344c13.289063-3.78125 25.554688 15.757812 32.230469 29.121094l5.25-2.265626s-17.609375-46.507812-37.484375-40.855468c-23.578125 6.703125-32.09375 44.367187-30.085937 67.117187 1.695312-21.730469 10.914062-47.664062 30.089843-53.117187zm0 0" fill="#6770e6"/><path d="m.511719 449.261719s-5.980469-70.882813 22.957031-101.078125c20.390625-21.28125 18.617188 23.9375 54.085938 23.9375 35.464843 0 95.757812-59.40625 116.148437-62.066406 20.394531-2.660157 53.199219 14.1875 101.078125 34.582031s74.480469 36.351562 109.058594 39.898437c34.578125 3.542969 79.796875-6.207031 98.417968 33.691406l-43.445312 39.011719-189.742188 17.730469-253.582031-9.753906zm0 0" fill="#6770e6"/><path d="m23.46875 362.183594c20.390625-21.28125 18.617188 23.941406 54.085938 23.941406 35.464843 0 95.757812-59.40625 116.148437-62.066406 20.394531-2.65625 53.199219 14.1875 101.078125 34.578125 47.878906 20.394531 74.480469 36.351562 109.058594 39.898437 31.613281 3.242188 72.109375-4.605468 93.050781 24.511719l5.367187-4.820313c-18.621093-39.898437-63.839843-30.144531-98.417968-33.691406s-61.179688-19.503906-109.058594-39.898437c-47.878906-20.390625-80.683594-37.238281-101.078125-34.578125s-80.683594 62.066406-116.148437 62.066406c-35.46875 0-33.691407-45.21875-54.085938-23.941406-22.859375 23.855468-23.925781 73.074218-23.367188 92.703125.632813-23.410157 4.84375-59.378907 23.367188-78.703125zm0 0" fill="#8f95e6"/><path d="m502.253906 418.226562c-18.621094-39.898437-63.839844-30.144531-98.417968-33.691406-34.578126-3.546875-61.179688-19.503906-109.058594-39.898437-47.878906-20.390625-80.683594-37.238281-101.078125-34.578125-6.894531.898437-18.359375 8.292968-31.875 17.675781 37.949219 14.414063 157.628906 60.253906 179.945312 73.648437 26.601563 15.960938 31.652344 63.835938 31.652344 63.835938l93.769531-15.507812zm0 0" fill="#d476e2"/><path d="m193.703125 324.058594c20.390625-2.660156 53.195313 14.183594 101.078125 34.578125 47.878906 20.394531 74.476562 36.351562 109.054688 39.898437 31.617187 3.242188 72.113281-4.605468 93.054687 24.511719l5.363281-4.820313c-18.617187-39.898437-63.835937-30.144531-98.417968-33.691406-34.574219-3.546875-61.175782-19.503906-109.054688-39.898437-47.882812-20.390625-80.683594-37.238281-101.078125-34.578125-6.898437.898437-18.359375 8.292968-31.878906 17.675781 3.714843 1.410156 8.21875 3.125 13.328125 5.078125 7.652344-4.832031 14.070312-8.171875 18.550781-8.753906zm0 0" fill="#ea82fa"/><path d="m.511719 449.261719h324.414062c109.058594 0 167.160157-31.035157 177.328125-31.035157 10.167969 0 10.167969 28.375 10.167969 39.011719 0 10.640625-84.644531 54.972657-185.722656 54.972657-101.074219 0-284.613281 0-301.457031 0-16.847657 0-24.730469-16.84375-24.730469-62.949219zm0 0" fill="#ffefe4"/><path d="m325.09375 498.210938c-101.953125 0-287.074219 0-304.066406 0-7.804688 0-13.695313-3.566407-17.789063-11.871094 3.601563 18.445312 10.828125 25.871094 22 25.871094h301.460938c101.074219 0 185.722656-44.332032 185.722656-54.972657 0-3.136719-.003906-7.828125-.265625-12.871093-5.222656 12.308593-88.378906 53.84375-187.0625 53.84375zm0 0" fill="#edd4c2"/><path d="m219.027344 327.964844c0 4.453125-3.613282 8.066406-8.070313 8.066406-4.453125 0-8.066406-3.613281-8.066406-8.066406 0-4.457032 3.613281-8.070313 8.066406-8.070313 4.457031 0 8.070313 3.613281 8.070313 8.070313zm0 0" fill="#b665c2"/><g fill="#69ebfc"><path d="m247.773438 345.152344c-1.40625 0-2.820313-.421875-4.050782-1.296875-3.152344-2.242188-3.890625-6.613281-1.648437-9.761719l12.980469-18.253906c2.242187-3.152344 6.613281-3.890625 9.761718-1.648438 3.152344 2.242188 3.890625 6.609375 1.648438 9.761719l-12.980469 18.253906c-1.367187 1.921875-3.523437 2.945313-5.710937 2.945313zm0 0"/><path d="m275.269531 358.445312c-1.402343 0-2.820312-.417968-4.050781-1.296874-3.148438-2.242188-3.886719-6.609376-1.648438-9.761719l13.535157-19.027344c2.242187-3.152344 6.613281-3.890625 9.761719-1.648437 3.152343 2.242187 3.886718 6.609374 1.648437 9.761718l-13.535156 19.027344c-1.363281 1.921875-3.523438 2.945312-5.710938 2.945312zm0 0"/><path d="m304.359375 371.761719c-1.402344 0-2.820313-.417969-4.050781-1.296875-3.148438-2.242188-3.886719-6.609375-1.648438-9.761719l14.101563-19.824219c2.238281-3.152344 6.609375-3.890625 9.761719-1.648437 3.148437 2.242187 3.886718 6.613281 1.644531 9.761719l-14.097657 19.824218c-1.363281 1.921875-3.519531 2.945313-5.710937 2.945313zm0 0"/><path d="m336.132812 383.738281c-1.40625 0-2.820312-.421875-4.050781-1.296875-3.148437-2.238281-3.886719-6.613281-1.648437-9.761718l10.402344-14.628907c2.238281-3.148437 6.613281-3.886719 9.761718-1.648437 3.148438 2.242187 3.886719 6.613281 1.648438 9.761718l-10.402344 14.628907c-1.367188 1.917969-3.523438 2.945312-5.710938 2.945312zm0 0"/></g><path d="m60.328125 170.4375c-3.503906 0-6.339844-2.835938-6.339844-6.339844v-49.574218h12.679688v49.574218c0 3.5-2.839844 6.339844-6.339844 6.339844zm0 0" fill="#5fd4e3"/><path d="m94.941406 170.4375c-3.503906 0-6.339844-2.835938-6.339844-6.339844v-49.574218h12.679688v49.574218c0 3.5-2.839844 6.339844-6.339844 6.339844zm0 0" fill="#5fd4e3"/><path d="m129.554688 170.4375c-3.503907 0-6.339844-2.835938-6.339844-6.339844v-49.574218h12.679687v49.574218c-.003906 3.5-2.839843 6.339844-6.339843 6.339844zm0 0" fill="#5fd4e3"/><path d="m164.164062 170.4375c-3.5 0-6.339843-2.835938-6.339843-6.339844v-49.574218h12.679687v49.574218c0 3.5-2.835937 6.339844-6.339844 6.339844zm0 0" fill="#5fd4e3"/></svg>