<svg height="512pt" viewBox="0 0 512 512" width="512pt" xmlns="http://www.w3.org/2000/svg"><path d="m347.457031 461.300781h-305.984375c-12.1875 0-22.066406-9.878906-22.066406-22.066406v-239.90625h328.050781zm0 0" fill="#5861c7"/><path d="m347.457031 461.300781h142.480469c12.183594 0 22.0625-9.878906 22.0625-22.066406v-63.601563c0-3.09375-.648438-6.152343-1.90625-8.976562l-49.988281-112.226562c-3.546875-7.957032-11.445313-13.085938-20.15625-13.085938h-92.488281v219.957031zm0 0" fill="#d476e2"/><g fill="#69ebfc"><path d="m463.386719 261.804688h-82.421875c-6.210938 0-11.25 5.035156-11.25 11.246093v80.089844c0 6.214844 5.039062 11.25 11.25 11.25h128.113281zm0 0"/><path d="m499.1875 426.851562h12.8125v-39.03125h-12.8125c-10.78125 0-19.515625 8.738282-19.515625 19.515626 0 10.777343 8.734375 19.515624 19.515625 19.515624zm0 0"/><path d="m32.222656 426.851562h-12.8125v-39.03125h12.8125c10.78125 0 19.515625 8.738282 19.515625 19.515626 0 10.777343-8.738281 19.515624-19.515625 19.515624zm0 0"/></g><path d="m167.109375 461.300781c0 28-22.699219 50.699219-50.703125 50.699219-28 0-50.699219-22.699219-50.699219-50.699219s22.699219-50.699219 50.699219-50.699219c28.003906 0 50.703125 22.699219 50.703125 50.699219zm0 0" fill="#339"/><path d="m142.542969 461.300781c0 14.433594-11.703125 26.132813-26.136719 26.132813s-26.132812-11.699219-26.132812-26.132813c0-14.433593 11.699218-26.136719 26.132812-26.136719s26.136719 11.703126 26.136719 26.136719zm0 0" fill="#6770e6"/><path d="m471.117188 461.300781c0 28-22.699219 50.699219-50.703126 50.699219-28 0-50.699218-22.699219-50.699218-50.699219s22.699218-50.699219 50.699218-50.699219c28.003907 0 50.703126 22.699219 50.703126 50.699219zm0 0" fill="#339"/><path d="m116.40625 500c-25.96875 0-47.363281-19.53125-50.332031-44.699219-.230469 1.96875-.367188 3.96875-.367188 6 0 28 22.699219 50.699219 50.699219 50.699219s50.703125-22.699219 50.703125-50.699219c0-2.03125-.136719-4.03125-.367187-6-2.96875 25.167969-24.363282 44.699219-50.335938 44.699219zm0 0" fill="#29297a"/><path d="m420.414062 500c-25.96875 0-47.363281-19.53125-50.332031-44.699219-.230469 1.96875-.367187 3.96875-.367187 6 0 28 22.699218 50.699219 50.699218 50.699219s50.703126-22.699219 50.703126-50.699219c0-2.03125-.136719-4.03125-.367188-6-2.96875 25.167969-24.363281 44.699219-50.335938 44.699219zm0 0" fill="#29297a"/><path d="m446.550781 461.300781c0 14.433594-11.703125 26.132813-26.136719 26.132813-14.429687 0-26.132812-11.699219-26.132812-26.132813 0-14.433593 11.703125-26.136719 26.132812-26.136719 14.433594 0 26.136719 11.703126 26.136719 26.136719zm0 0" fill="#6770e6"/><path d="m351.226562 134.960938h-335.585937c-8.636719 0-15.640625 7.003906-15.640625 15.644531v33.082031c0 8.636719 7.003906 15.640625 15.640625 15.640625h335.585937c8.636719 0 15.640626-7.003906 15.640626-15.640625v-33.082031c0-8.640625-7.003907-15.644531-15.640626-15.644531zm0 0" fill="#6770e6"/><path d="m351.226562 134.960938h-335.585937c-8.636719 0-15.640625 7.003906-15.640625 15.644531v15.832031c0-8.640625 7.003906-15.644531 15.640625-15.644531h335.585937c8.636719 0 15.640626 7.003906 15.640626 15.644531v-15.832031c0-8.640625-7.003907-15.644531-15.640626-15.644531zm0 0" fill="#8f95e6"/><path d="m242.59375 266.421875h-118.316406c-8.5 0-15.394532-6.894531-15.394532-15.394531s6.894532-15.390625 15.394532-15.390625h118.316406c8.5 0 15.390625 6.890625 15.390625 15.390625 0 8.503906-6.890625 15.394531-15.390625 15.394531zm0 0" fill="#339"/><path d="m102.964844 21.3125h21.300781v26.644531h-21.300781zm0 0" fill="#5fd4e3"/><path d="m196.917969 86.222656-15.0625-15.070312 16.578125-16.585938c1.242187-1.246094 3.257812-1.246094 4.5 0l10.5625 10.566406c1.242187 1.246094 1.242187 3.257813 0 4.5zm0 0" fill="#5fd4e3"/><path d="m30.3125 86.222656 15.066406-15.070312-16.578125-16.585938c-1.246093-1.246094-3.261719-1.246094-4.503906 0l-10.5625 10.566406c-1.242187 1.246094-1.242187 3.257813 0 4.5zm0 0" fill="#5fd4e3"/><path d="m227.230469 152.746094c0-62.777344-50.867188-113.671875-113.613281-113.671875-62.75 0-113.617188 50.894531-113.617188 113.671875 0 62.78125 50.867188 113.675781 113.617188 113.675781 62.746093 0 113.613281-50.894531 113.613281-113.675781zm0 0" fill="#69ebfc"/><path d="m206.816406 152.746094c0-51.496094-41.726562-93.246094-93.199218-93.246094-51.472657 0-93.203126 41.75-93.203126 93.246094 0 51.5 41.730469 93.25 93.203126 93.25 51.472656 0 93.199218-41.75 93.199218-93.25zm0 0" fill="#ffefe4"/><path d="m133.511719 21.3125h-39.792969c-1.757812 0-3.183594-1.425781-3.183594-3.183594v-14.945312c.003906-1.757813 1.425782-3.183594 3.183594-3.183594h39.792969c1.757812 0 3.183593 1.425781 3.183593 3.183594v14.949218c0 1.753907-1.425781 3.179688-3.183593 3.179688zm0 0" fill="#69ebfc"/><path d="m133.511719 0h-39.792969c-1.757812 0-3.179688 1.425781-3.179688 3.183594v10.410156c0-1.757812 1.421876-3.1875 3.179688-3.1875h39.792969c1.757812 0 3.183593 1.429688 3.183593 3.1875v-10.410156c0-1.757813-1.425781-3.183594-3.183593-3.183594zm0 0" fill="#a1f1fc"/><path d="m113.617188 152.746094v-79.855469c-44.082032 0-79.816407 35.753906-79.816407 79.855469 0 44.105468 35.734375 79.859375 79.816407 79.859375 22.046874 0 42.007812-8.945313 56.449218-23.40625zm0 0" fill="#ff8354"/></svg>