<svg id="Layer_1" height="512" viewBox="0 0 150 150" width="512" xmlns="http://www.w3.org/2000/svg" data-name="Layer 1"><circle cx="75" cy="75" fill="#fcd462" r="64"/><path d="m99 61.86h1.18v48.85h-1.18z" fill="#2f4859"/><path d="m102.6 52.85-58.51 12.21-.8-4.24 58.5-12.21z" fill="#2f4859"/><g fill="#3a556a"><path d="m71.64 111.46h-8.84a.78.78 0 0 1 -.78-.78v-48a.78.78 0 0 1 .78-.79h8.84a.79.79 0 0 1 .79.79v48a.78.78 0 0 1 -.79.78zm-8-1.57h7.27v-46.46h-7.32z"/><path d="m71.92 86.42a.5.5 0 0 0 -.17-.38l-3.75-3.58 3.77-3.59v-.07l.06-.09v-.1-.21-.1l-.06-.09v-.08l-3.77-3.6 3.75-3.53a.51.51 0 0 0 0-.76l-3.75-3.63 3.75-3.61a.51.51 0 0 0 0-.73.52.52 0 0 0 -.74 0l-3.81 3.62-3.81-3.62a.52.52 0 1 0 -.71.75l3.77 3.59-3.75 3.58a.51.51 0 0 0 0 .76l3.77 3.58-3.77 3.59v.08l-.06.09v.1.19.1l.06.09v.07l3.77 3.59-3.77 3.57a.5.5 0 0 0 -.17.38.48.48 0 0 0 .17.37l3.77 3.59-3.77 3.66v.08l-.06.09v.09.2.1l.06.09v.07l3.77 3.58-3.77 3.59a.5.5 0 0 0 -.17.37.5.5 0 0 0 .17.38l3.77 3.59-3.77 3.58a.52.52 0 0 0 0 .74.5.5 0 0 0 .37.16.54.54 0 0 0 .36-.14l3.79-3.57 3.78 3.57a.56.56 0 0 0 .36.14.51.51 0 0 0 .38-.16.52.52 0 0 0 0-.74l-3.74-3.58 3.77-3.59a.5.5 0 0 0 .17-.38.5.5 0 0 0 -.17-.37l-3.77-3.59 3.77-3.58v-.07l.06-.09v-.1-.2-.09l-.06-.09v-.08l-3.77-3.62 3.77-3.59a.48.48 0 0 0 .15-.37zm-8.11-15.85 3.41-3.24 3.42 3.24-3.42 3.24zm0 7.92 3.41-3.24 3.42 3.24-3.42 3.25zm6.83 23.77-3.42 3.25-3.41-3.25 3.41-3.26zm0-7.92-3.42 3.24-3.41-3.24 3.41-3.24zm-3.42-4.68-3.41-3.24 3.41-3.25 3.42 3.25z"/><path d="m67.22 53.13a2.43 2.43 0 0 0 -2.43 2.43v7.38h4.87v-7.38a2.43 2.43 0 0 0 -2.44-2.43z"/></g><path d="m67.22 54.23a1.38 1.38 0 1 0 1.38 1.38 1.38 1.38 0 0 0 -1.38-1.38z" fill="#2f4859"/><path d="m103.1 48.29-7.32-11a1.5 1.5 0 0 0 -1.68-.6l-3.35 1a1.49 1.49 0 0 0 -1 1.58l1.34 12.27a1.39 1.39 0 0 0 .15.5l7.08 14.26a1.49 1.49 0 0 0 1.56.81l1.12-.11a1.49 1.49 0 0 0 1.25-1.37l1.12-16.4a1.51 1.51 0 0 0 -.27-.94z" fill="#27a2db"/><path d="m97.1 49.09a1.9 1.9 0 1 0 1.9 1.91 1.9 1.9 0 0 0 -1.9-1.91z" fill="#3a556a"/><path d="m44.67 59.49a3 3 0 0 0 -3 3v49h6v-49a3 3 0 0 0 -3-3z" fill="#3a556a"/><circle cx="44.59" cy="62.37" fill="#e1e6e9" r="1.55"/><path d="m94.29 99.99h10.59v9.57h-10.59z" fill="#3a556a"/><path d="m37.68 109.56h74.63v3.79h-74.63z" fill="#ebf0f3"/></svg>