<svg height="512pt" viewBox="0 0 512 512" width="512pt" xmlns="http://www.w3.org/2000/svg"><path d="m462.480469 512h-412.957031c-27.351563 0-49.523438-22.171875-49.523438-49.519531v-237.734375c0-27.347656 22.171875-49.519532 49.519531-49.519532h412.960938c27.347656 0 49.519531 22.171876 49.519531 49.519532v237.734375c0 27.347656-22.171875 49.519531-49.519531 49.519531zm0 0" fill="#6770e6"/><path d="m462.480469 175.226562h-412.957031c-27.351563 0-49.523438 22.171876-49.523438 49.519532v18.886718c0-27.351562 22.171875-49.519531 49.523438-49.519531h412.957031c27.347656 0 49.519531 22.167969 49.519531 49.519531v-18.886718c0-27.347656-22.171875-49.519532-49.519531-49.519532zm0 0" fill="#8f95e6"/><path d="m49.519531 512h412.957031c27.351563 0 49.523438-22.171875 49.523438-49.519531v-18.882813c0 27.347656-22.171875 49.519532-49.523438 49.519532h-412.957031c-27.347656 0-49.519531-22.171876-49.519531-49.519532v18.882813c0 27.347656 22.171875 49.519531 49.519531 49.519531zm0 0" fill="#5861c7"/><path d="m89.632812 232.925781c-1.398437 0-2.578124 1.179688-2.578124 2.578125v50.058594c0 1.398438 1.179687 2.582031 2.578124 2.582031h24.207032c1.398437 0 2.578125-1.183593 2.578125-2.582031v-50.058594c0-1.398437-1.179688-2.578125-2.578125-2.578125zm0 0" fill="#69ebfc"/><path d="m57.058594 246.652344h20.226562v27.765625h-20.226562zm0 0" fill="#69ebfc"/><path d="m126.1875 246.652344h20.226562v27.765625h-20.226562zm0 0" fill="#69ebfc"/><path d="m126.1875 284.1875v1.378906c0 6.808594-5.539062 12.347656-12.347656 12.347656h-24.207032c-6.808593 0-12.347656-5.539062-12.347656-12.347656v-1.378906h-20.226562v7.507812c0 10.8125 8.761718 19.574219 19.574218 19.574219h50.207032c10.808594 0 19.574218-8.761719 19.574218-19.574219v-7.507812zm0 0" fill="#69ebfc"/><path d="m126.839844 209.800781h-50.207032c-10.8125 0-19.574218 8.761719-19.574218 19.574219v7.507812h20.226562v-1.378906c0-6.808594 5.535156-12.351562 12.347656-12.351562h24.203126c6.808593 0 12.351562 5.542968 12.351562 12.351562v1.378906h20.222656v-7.507812c0-10.808594-8.761718-19.574219-19.570312-19.574219zm0 0" fill="#69ebfc"/><g fill="#8f95e6"><path d="m130.757812 369.5625h-58.042968c-8.609375 0-15.65625-7.046875-15.65625-15.660156 0-8.609375 7.046875-15.65625 15.65625-15.65625h58.042968c8.609376 0 15.65625 7.046875 15.65625 15.65625-.003906 8.613281-7.046874 15.660156-15.65625 15.660156zm0 0"/><path d="m183.621094 452.640625h-110.90625c-8.609375 0-15.65625-7.046875-15.65625-15.660156 0-8.609375 7.046875-15.65625 15.65625-15.65625h110.90625c8.609375 0 15.65625 7.046875 15.65625 15.65625 0 8.613281-7.046875 15.660156-15.65625 15.660156zm0 0"/><path d="m233.597656 369.5625h-58.039062c-8.609375 0-15.65625-7.046875-15.65625-15.660156 0-8.609375 7.046875-15.65625 15.65625-15.65625h58.042968c8.609376 0 15.65625 7.046875 15.65625 15.65625 0 8.613281-7.046874 15.660156-15.660156 15.660156zm0 0"/><path d="m336.441406 369.5625h-58.039062c-8.613282 0-15.660156-7.046875-15.660156-15.660156 0-8.609375 7.046874-15.65625 15.660156-15.65625h58.039062c8.613282 0 15.660156 7.046875 15.660156 15.65625-.003906 8.613281-7.050781 15.660156-15.660156 15.660156zm0 0"/><path d="m439.285156 369.5625h-58.042968c-8.609376 0-15.65625-7.046875-15.65625-15.660156 0-8.609375 7.046874-15.65625 15.65625-15.65625h58.042968c8.609375 0 15.65625 7.046875 15.65625 15.65625 0 8.613281-7.046875 15.660156-15.65625 15.660156zm0 0"/></g><path d="m405.976562 436.984375c0 22.335937-18.109374 40.445313-40.445312 40.445313s-40.441406-18.109376-40.441406-40.445313 18.105468-40.445313 40.441406-40.445313 40.445312 18.109376 40.445312 40.445313zm0 0" fill="#ff8354"/><path d="m454.941406 436.984375c0 22.335937-18.105468 40.445313-40.445312 40.445313-22.335938 0-40.441406-18.109376-40.441406-40.445313s18.105468-40.445313 40.441406-40.445313c22.339844 0 40.445312 18.109376 40.445312 40.445313zm0 0" fill="#69ebfc"/><path d="m374.054688 436.984375c0 13.121094 6.273437 24.746094 15.960937 32.136719 9.683594-7.390625 15.957031-19.015625 15.957031-32.136719s-6.273437-24.75-15.957031-32.136719c-9.683594 7.386719-15.960937 19.015625-15.960937 32.136719zm0 0" fill="#d476e2"/><path d="m464.554688 210.984375-44.976563 31.144531-44.976563-31.144531c-29.714843-20.578125-47.445312-54.421875-47.445312-90.570313v-80.414062l92.421875-40 92.421875 40v80.414062c0 36.144532-17.730469 69.992188-47.445312 90.570313zm0 0" fill="#69ebfc"/><path d="m419.578125 0-92.421875 40v14l92.421875-40 92.421875 40v-14zm0 0" fill="#a1f1fc"/><path d="m385.984375 194.542969c-24.308594-16.839844-38.828125-44.550781-38.828125-74.128907v-67.277343l72.421875-31.34375 72.421875 31.34375v67.277343c0 29.578126-14.519531 57.289063-38.835938 74.125l-33.585937 23.261719zm0 0" fill="#5fd4e3"/><path d="m407.445312 164.925781c-3.484374 0-6.992187-1.132812-9.9375-3.457031l-23.164062-18.316406c-6.949219-5.496094-8.128906-15.582032-2.636719-22.527344 5.496094-6.949219 15.582031-8.128906 22.527344-2.636719l10.769531 8.515625 37.425782-45.929687c5.59375-6.867188 15.695312-7.898438 22.5625-2.300781 6.867187 5.59375 7.898437 15.695312 2.304687 22.5625l-47.410156 58.183593c-3.164063 3.886719-7.78125 5.90625-12.441407 5.90625zm0 0" fill="#ffefe4"/></svg>