<svg height="512pt" viewBox="0 0 512.00274 512" width="512pt" xmlns="http://www.w3.org/2000/svg"><path d="m502.140625 334.394531h-492.28125c-6.929687 0-11.691406-6.96875-9.179687-13.425781l23.914062-61.390625c.894531-2.300781.894531-4.851563 0-7.152344l-23.910156-61.390625c-2.515625-6.460937 2.246094-13.429687 9.179687-13.429687h492.277344c6.933594 0 11.695313 6.96875 9.183594 13.429687l-23.914063 61.390625c-.894531 2.300781-.894531 4.847657 0 7.148438l23.914063 61.394531c2.511719 6.457031-2.253907 13.425781-9.183594 13.425781zm0 0" fill="#e0734a"/><path d="m275.054688 56.695312c8.523437-21 39.777343-14.785156 39.613281 7.878907-.132813 18.464843 22.246093 27.734375 35.207031 14.582031 15.910156-16.140625 42.40625 1.5625 33.582031 22.441406-7.1875 17.003906 9.941407 34.132813 26.949219 26.945313 20.875-8.824219 38.582031 17.671875 22.4375 33.585937-13.148438 12.957032-3.878906 35.339844 14.582031 35.203125 22.667969-.164062 28.882813 31.09375 7.878907 39.617188-17.105469 6.941406-17.105469 31.164062 0 38.105469 21.003906 8.519531 14.789062 39.777343-7.878907 39.613281-18.460937-.132813-27.730469 22.246093-14.582031 35.207031 16.144531 15.910156-1.5625 42.40625-22.4375 33.582031-17.007812-7.1875-34.136719 9.941407-26.949219 26.945313 8.824219 20.878906-17.671875 38.582031-33.582031 22.441406-12.960938-13.148438-35.339844-3.878906-35.207031 14.582031.164062 22.664063-31.089844 28.882813-39.613281 7.878907-6.941407-17.105469-31.164063-17.105469-38.105469 0-8.523438 21.003906-39.777344 14.785156-39.613281-7.878907.132812-18.460937-22.246094-27.730469-35.207032-14.582031-15.914062 16.140625-42.410156-1.5625-33.585937-22.441406 7.1875-17.003906-9.9375-34.132813-26.945313-26.945313-20.878906 8.824219-38.582031-17.671875-22.4375-33.582031 13.144532-12.960938 3.878906-35.339844-14.582031-35.207031-22.667969.164062-28.882813-31.09375-7.882813-39.613281 17.109376-6.941407 17.109376-31.164063 0-38.105469-21-8.523438-14.785156-39.78125 7.882813-39.617188 18.460937.136719 27.730469-22.246093 14.582031-35.203125-16.144531-15.914062 1.558594-42.410156 22.4375-33.585937 17.007813 7.1875 34.132813-9.941407 26.945313-26.945313-8.824219-20.878906 17.671875-38.582031 33.585937-22.441406 12.960938 13.148438 35.339844 3.882812 35.207032-14.582031-.164063-22.664063 31.089843-28.878907 39.613281-7.878907 6.9375 17.109376 31.164062 17.109376 38.105469 0zm0 0" fill="#ff8354"/><g fill="#c96742"><path d="m101.597656 369.460938c-12.410156 5.246093-23.703125-1.996094-27.425781-12.070313-5.894531 15.390625 9.601563 33.605469 27.425781 26.070313 11.75-4.96875 23.546875 1.671874 27.355469 11.859374 6.035156-16.640624-10.710937-32.898437-27.355469-25.859374zm0 0"/><path d="m349.875 418.84375c-12.960938-13.148438-35.339844-3.878906-35.207031 14.582031.164062 22.667969-31.089844 28.882813-39.613281 7.882813-6.941407-17.109375-31.164063-17.109375-38.105469 0-8.523438 21-39.777344 14.785156-39.613281-7.882813.132812-18.460937-22.246094-27.730469-35.207032-14.582031-11.734375 11.902344-29.203125 5.394531-34.042968-7.207031-7.300782 20.328125 18.445312 37.03125 34.042968 21.207031 12.960938-13.148438 35.339844-3.878906 35.207032 14.582031-.164063 22.667969 31.089843 28.882813 39.613281 7.882813 6.941406-17.109375 31.164062-17.109375 38.105469 0 8.523437 21 39.777343 14.785156 39.613281-7.882813-.132813-18.460937 22.246093-27.730469 35.207031-14.582031 15.59375 15.824219 41.339844-.878906 34.042969-21.207031-4.839844 12.601562-22.3125 19.109375-34.042969 7.207031zm0 0"/><path d="m410.40625 369.460938c-16.644531-7.039063-33.390625 9.21875-27.359375 25.859374 3.808594-10.1875 15.613281-16.824218 27.359375-11.859374 17.824219 7.535156 33.320312-10.679688 27.425781-26.070313-3.726562 10.074219-15.015625 17.316406-27.425781 12.070313zm0 0"/></g><path d="m162.125 93.160156c12.960938 13.148438 35.339844 3.878906 35.207031-14.585937-.164062-22.664063 31.09375-28.878907 39.613281-7.878907 6.941407 17.109376 31.164063 17.109376 38.105469 0 8.523438-21 39.78125-14.785156 39.617188 7.878907-.136719 18.464843 22.246093 27.734375 35.203125 14.585937 11.734375-11.902344 29.203125-5.398437 34.042968 7.207032 7.300782-20.328126-18.445312-37.035157-34.042968-21.207032-12.957032 13.148438-35.339844 3.878906-35.203125-14.585937.164062-22.664063-31.09375-28.878907-39.617188-7.878907-6.941406 17.109376-31.164062 17.109376-38.105469 0-8.519531-21-39.777343-14.785156-39.613281 7.878907.132813 18.464843-22.246093 27.734375-35.207031 14.585937-15.59375-15.824218-41.339844.878906-34.039062 21.207032 4.839843-12.605469 22.308593-19.113282 34.039062-7.207032zm0 0" fill="#ffac8c"/><path d="m410.402344 142.542969c12.410156-5.246094 23.703125 1.996093 27.425781 12.070312 5.894531-15.390625-9.601563-33.605469-27.425781-26.070312-11.746094 4.964843-23.546875-1.671875-27.355469-11.859375-6.03125 16.636718 10.714844 32.894531 27.355469 25.859375zm0 0" fill="#ffac8c"/><path d="m101.597656 142.542969c16.644532 7.035156 33.390625-9.222657 27.355469-25.859375-3.808594 10.1875-15.609375 16.824218-27.355469 11.859375-17.828125-7.535157-33.324218 10.679687-27.425781 26.070312 3.722656-10.074219 15.011719-17.316406 27.425781-12.070312zm0 0" fill="#ffac8c"/><path d="m414.695312 256c0 87.648438-71.050781 158.699219-158.695312 158.699219s-158.695312-71.050781-158.695312-158.699219c0-87.644531 71.050781-158.695312 158.695312-158.695312s158.695312 71.050781 158.695312 158.695312zm0 0" fill="#e0734a"/><path d="m141.394531 213.277344h2.582031c3.625 0 6.980469 1.898437 8.847657 5.007812l31.363281 52.277344h.953125l-.953125-16.472656v-33.175782c0-4.214843 3.421875-7.636718 7.640625-7.636718h.714844c4.21875 0 7.636719 3.421875 7.636719 7.636718v67.496094c0 5.695313-4.617188 10.316406-10.3125 10.316406h-.792969c-3.625 0-6.980469-1.902343-8.847657-5.011718l-33.273437-55.496094h-.953125l.953125 16.46875v36.402344c0 4.21875-3.421875 7.636718-7.640625 7.636718h-.59375c-4.21875 0-7.636719-3.417968-7.636719-7.636718v-67.496094c0-5.699219 4.617188-10.316406 10.3125-10.316406zm0 0" fill="#ffefe4"/><path d="m229.550781 228.554688v19.808593h26.613281c4.21875 0 7.636719 3.421875 7.636719 7.636719 0 4.21875-3.417969 7.640625-7.636719 7.640625h-26.613281v19.808594h30.429688c4.21875 0 7.640625 3.421875 7.640625 7.636719 0 4.21875-3.421875 7.640624-7.640625 7.640624h-36.226563c-5.699218 0-10.316406-4.621093-10.316406-10.316406v-64.820312c0-5.695313 4.617188-10.3125 10.316406-10.3125h36.226563c4.21875 0 7.640625 3.421875 7.640625 7.636718 0 4.21875-3.421875 7.640626-7.640625 7.640626zm0 0" fill="#ffefe4"/><path d="m284.105469 213.277344c3.714843 0 6.964843 2.5 7.917969 6.089844l11.628906 43.792968 1.910156 9.191406h.957031l2.503907-9.191406 10-31.253906c1.363281-4.273438 5.335937-7.171875 9.824218-7.171875 4.472656 0 8.4375 2.886719 9.8125 7.144531l10.105469 31.28125 2.386719 9.070313h.953125l1.789062-9.070313 10.867188-43.667968c.910156-3.652344 4.1875-6.214844 7.949219-6.214844h.011718c5.378906 0 9.300782 5.097656 7.917969 10.292968l-17.90625 67.488282c-1.199219 4.519531-5.292969 7.667968-9.96875 7.667968h-.085937c-4.46875 0-8.429688-2.878906-9.808594-7.132812l-11.050782-34.042969-2.507812-9.425781h-.953125l-2.507813 9.425781-11.050781 34.042969c-1.378906 4.25-5.339843 7.132812-9.808593 7.132812h-.171876c-4.636718 0-8.703124-3.097656-9.941406-7.566406l-18.667968-67.507812c-1.445313-5.21875 2.480468-10.375 7.894531-10.375zm0 0" fill="#ffefe4"/><path d="m74.585938 70.328125 29.980468-9.519531c6.089844-1.929688 6.089844-10.546875 0-12.480469l-29.980468-9.519531c-2.03125-.644532-3.617188-2.230469-4.261719-4.257813l-9.515625-29.984375c-1.933594-6.085937-10.546875-6.085937-12.480469 0l-9.519531 29.984375c-.644532 2.027344-2.230469 3.613281-4.261719 4.257813l-29.980469 9.519531c-6.089844 1.929687-6.089844 10.546875 0 12.480469l29.980469 9.519531c2.03125.644531 3.617187 2.230469 4.261719 4.257813l9.519531 29.984374c1.929687 6.085938 10.546875 6.085938 12.480469 0l9.519531-29.984374c.640625-2.027344 2.230469-3.617188 4.257813-4.257813zm0 0" fill="#69ebfc"/><path d="m445.121094 482.878906 22.5-7.144531c4.570312-1.449219 4.570312-7.917969 0-9.367187l-22.5-7.144532c-1.523438-.484375-2.714844-1.675781-3.195313-3.199218l-7.144531-22.5c-1.449219-4.566407-7.917969-4.566407-9.367188 0l-7.144531 22.5c-.484375 1.523437-1.675781 2.714843-3.195312 3.199218l-22.5 7.144532c-4.570313 1.449218-4.570313 7.914062 0 9.367187l22.5 7.144531c1.519531.484375 2.710937 1.675782 3.195312 3.195313l7.144531 22.5c1.449219 4.570312 7.914063 4.570312 9.367188 0l7.144531-22.5c.480469-1.523438 1.671875-2.714844 3.195313-3.195313zm0 0" fill="#69ebfc"/><path d="m144.105469 138.71875 22.5-7.144531c4.570312-1.449219 4.570312-7.917969 0-9.367188l-22.5-7.144531c-1.523438-.484375-2.714844-1.675781-3.195313-3.195312l-7.144531-22.5c-1.453125-4.570313-7.917969-4.570313-9.371094 0l-7.140625 22.5c-.484375 1.519531-1.675781 2.710937-3.199218 3.195312l-22.5 7.144531c-4.566407 1.449219-4.566407 7.914063 0 9.367188l22.5 7.144531c1.523437.484375 2.714843 1.675781 3.199218 3.195312l7.140625 22.5c1.453125 4.570313 7.917969 4.570313 9.371094 0l7.144531-22.5c.480469-1.523437 1.671875-2.714843 3.195313-3.195312zm0 0" fill="#69ebfc"/></svg>