<svg height="510pt" viewBox="0 0 510 510.7795" width="510pt" xmlns="http://www.w3.org/2000/svg"><path d="m42.015625 212.976562c1 .253907 2 .375 2.980469.375 5.355468 0 10.230468-3.605468 11.621094-9.03125 21.828124-85.402343 95.363281-146.613281 182.082031-153.773437l-4.636719 4.636719c-4.6875 4.6875-4.6875 12.285156 0 16.972656 2.34375 2.339844 5.414062 3.511719 8.484375 3.511719s6.144531-1.171875 8.488281-3.515625l25.832032-25.832032c4.683593-4.6875 4.683593-12.285156 0-16.96875l-25.832032-25.835937c-4.6875-4.6875-12.289062-4.6875-16.972656-.003906-4.6875 4.691406-4.6875 12.289062 0 16.972656l5.933594 5.933594c-98.265625 6.707031-181.976563 75.496093-206.632813 171.957031-1.640625 6.421875 2.234375 12.957031 8.652344 14.601562zm0 0" fill="#ff8354"/><path d="m203.085938 454.128906c-42.140626-11.140625-80.445313-36.128906-107.855469-70.367187-25.855469-32.285157-41.027344-70.675781-44.300781-111.613281l4.644531 4.644531c2.339843 2.339843 5.414062 3.511719 8.484375 3.511719 3.070312 0 6.140625-1.171876 8.484375-3.515626 4.6875-4.6875 4.6875-12.285156 0-16.96875l-25.835938-25.832031c-4.683593-4.683593-12.285156-4.683593-16.96875 0l-25.832031 25.832031c-4.6875 4.6875-4.6875 12.285157-.003906 16.96875 4.6875 4.683594 12.289062 4.6875 16.972656.003907l5.863281-5.867188c3.109375 46.917969 20.210938 90.941407 49.753907 127.839844 30.605468 38.21875 73.382812 66.121094 120.457031 78.566406 1.027343.269531 2.058593.402344 3.074219.402344 5.316406 0 10.171874-3.558594 11.59375-8.9375 1.695312-6.40625-2.125-12.972656-8.53125-14.667969zm0 0" fill="#ff8354"/><path d="m468.871094 301.058594c-6.386719-1.726563-12.988282 2.035156-14.730469 8.429687-22.8125 83.859375-96.316406 143.925781-181.953125 150.785157l4.679688-4.679688c4.683593-4.683594 4.683593-12.28125-.003907-16.96875-4.683593-4.683594-12.285156-4.683594-16.96875.003906l-25.832031 25.832032c-4.6875 4.6875-4.6875 12.285156 0 16.96875l25.832031 25.832031c2.34375 2.347656 5.414063 3.519531 8.484375 3.519531 3.070313 0 6.144532-1.171875 8.484375-3.515625 4.6875-4.6875 4.6875-12.285156.003907-16.96875l-5.902344-5.902344c96.96875-6.433593 180.578125-73.921875 206.335937-168.605469 1.738281-6.394531-2.035156-12.992187-8.429687-14.730468zm0 0" fill="#ff8354"/><path d="m507.023438 233.988281c-4.683594-4.683593-12.285157-4.6875-16.96875 0l-5.3125 5.3125c-6.796876-98.148437-74.886719-180.699219-170.1875-205.871093-6.417969-1.695313-12.976563 2.132812-14.667969 8.539062-1.691407 6.410156 2.128906 12.976562 8.539062 14.667969 84.789063 22.394531 145.511719 95.519531 152.246094 182.664062l-5.316406-5.316406c-4.683594-4.683594-12.285157-4.683594-16.96875.003906-4.6875 4.683594-4.6875 12.285157 0 16.96875l25.835937 25.832031c2.339844 2.34375 5.414063 3.515626 8.484375 3.515626 3.070313 0 6.140625-1.171876 8.484375-3.515626l25.832032-25.832031c4.6875-4.683593 4.6875-12.28125 0-16.96875zm0 0" fill="#ff8354"/><path d="m365.023438 378.808594h-219.117188c-7.65625 0-13.863281-6.207032-13.863281-13.859375v-219.117188c0-7.65625 6.207031-13.863281 13.863281-13.863281h219.117188c7.65625 0 13.859374 6.207031 13.859374 13.863281v219.117188c0 7.652343-6.203124 13.859375-13.859374 13.859375zm0 0" fill="#f7ddca"/><path d="m378.882812 150.164062h-246.839843v-4.332031c0-7.65625 6.207031-13.863281 13.863281-13.863281h219.117188c7.65625 0 13.859374 6.207031 13.859374 13.863281zm0 0" fill="#ffefe4"/><path d="m365.023438 378.808594h-219.117188c-7.65625 0-13.863281-6.207032-13.863281-13.859375v-4.332031h246.839843v4.332031c0 7.652343-6.203124 13.859375-13.859374 13.859375zm0 0" fill="#edd4c2"/><path d="m275 190.105469h-9.503906l-8.777344-5.726563-7.273438 5.726563-7.273437-5.726563-6.242187 5.726563v-58.136719h39.070312zm0 0" fill="#ff8354"/><path d="m235.929688 131.96875h39.074218v18.195312h-39.074218zm0 0" fill="#ffac8c"/><path d="m150.382812 312.636719h92.164063v33.601562h-92.164063zm0 0" fill="#fff7f2"/><path d="m232.546875 322.636719v13.601562h-72.164063v-13.601562zm0 0" fill="#edd4c2"/><path d="m200.023438 477.734375c-1.015626 0-2.046876-.128906-3.074219-.402344-47.074219-12.445312-89.851563-40.347656-120.457031-78.566406-31.519532-39.367187-48.875-86.835937-50.191407-137.285156-.171875-6.621094 5.058594-12.132813 11.683594-12.308594.105469 0 .210937-.003906.316406-.003906 6.484375 0 11.820313 5.167969 11.992188 11.691406 1.175781 45.164063 16.714843 87.664063 44.933593 122.90625 27.414063 34.234375 65.71875 59.222656 107.859376 70.363281 6.40625 1.695313 10.226562 8.261719 8.535156 14.667969-1.425782 5.382813-6.28125 8.9375-11.597656 8.9375zm0 0" fill="#ff8354"/><path d="m255.777344 484.945312c-6.625 0-12-5.375-12-12 0-6.628906 5.375-12 12-12 92.535156 0 174.105468-62.285156 198.363281-151.460937 1.742187-6.394531 8.34375-10.15625 14.730469-8.429687 6.394531 1.742187 10.167968 8.335937 8.429687 14.730468-27.09375 99.597656-118.1875 169.160156-221.523437 169.160156zm0 0" fill="#ff8354"/><path d="m64.058594 280.304688c-3.070313 0-6.144532-1.171876-8.484375-3.511719l-17.351563-17.347657-17.347656 17.347657c-4.6875 4.683593-12.285156 4.683593-16.972656-.003907-4.683594-4.6875-4.683594-12.285156.003906-16.96875l25.832031-25.832031c4.6875-4.683593 12.289063-4.683593 16.96875 0l25.835938 25.832031c4.6875 4.6875 4.6875 12.285157 0 16.96875-2.34375 2.34375-5.414063 3.515626-8.484375 3.515626zm0 0" fill="#ff8354"/><path d="m238.980469 26.484375c-97.824219 7.105469-181.046875 75.761719-205.617188 171.890625-.6875 2.683594-.398437 5.382812.625 7.742188 26.082031-97.898438 113.152344-166.785157 214.113281-170.125zm0 0" fill="#ffac8c"/><path d="m484.738281 239.300781c-6.792969-98.148437-74.886719-180.699219-170.1875-205.871093-6.417969-1.695313-12.972656 2.132812-14.664062 8.539062-.742188 2.804688-.425781 5.636719.699219 8.078125 2.375-5.21875 8.222656-8.132813 13.964843-6.617187 92.324219 24.386718 159.925781 101.773437 170.1875 195.871093zm0 0" fill="#ffac8c"/><path d="m234.0625 13.511719c4.683594-4.683594 12.285156-4.683594 16.972656.003906l25.832032 25.832031c1.035156 1.039063 1.800781 2.230469 2.378906 3.484375 2.039062-4.429687 1.269531-9.832031-2.378906-13.484375l-25.832032-25.832031c-4.6875-4.6875-12.289062-4.6875-16.972656-.003906-3.652344 3.652343-4.417969 9.058593-2.378906 13.488281.578125-1.257812 1.34375-2.449219 2.378906-3.488281zm0 0" fill="#ffac8c"/><path d="m238.699219 50.546875-4.636719 4.636719c-3.652344 3.652344-4.417969 9.054687-2.378906 13.484375.578125-1.253907 1.34375-2.445313 2.378906-3.484375l15.210938-15.210938c-3.542969.109375-7.070313.28125-10.574219.574219zm0 0" fill="#ffac8c"/><path d="m268.378906 510.777344c-3.070312 0-6.140625-1.171875-8.484375-3.515625l-25.832031-25.835938c-4.6875-4.683593-4.6875-12.28125 0-16.964843l25.832031-25.835938c4.6875-4.6875 12.289063-4.683594 16.96875 0 4.6875 4.6875 4.6875 12.285156.003907 16.96875l-17.347657 17.351562 17.347657 17.347657c4.683593 4.6875 4.683593 12.285156-.003907 16.96875-2.339843 2.34375-5.414062 3.515625-8.484375 3.515625zm0 0" fill="#ff8354"/><g fill="#e0734a"><path d="m210.925781 460.734375c-1.957031 4.28125-6.253906 7-10.902343 7-1.015626 0-2.046876-.128906-3.074219-.402344-47.074219-12.445312-89.851563-40.347656-120.457031-78.566406-27.613282-34.488281-44.289063-75.210937-48.894532-118.695313l-.859375.859376c3.109375 46.917968 20.210938 90.9375 49.753907 127.835937 30.605468 38.21875 73.382812 66.125 120.457031 78.566406 1.027343.273438 2.058593.402344 3.074219.402344 5.316406 0 10.171874-3.554687 11.59375-8.9375.742187-2.796875.429687-5.625-.691407-8.0625zm0 0"/><path d="m476.703125 307.8125c-27.265625 96.699219-115.007813 164.558594-215.304687 167.011719l9.566406 9.566406c96.96875-6.433594 180.574218-73.921875 206.335937-168.601563.75-2.757812.472657-5.546874-.597656-7.976562zm0 0"/><path d="m26.300781 261.480469c0-.039063.003907-.078125.003907-.117188l-5.429688 5.429688c-4.6875 4.683593-12.285156 4.683593-16.972656-.003907-1.035156-1.035156-1.800782-2.226562-2.378906-3.484374-2.039063 4.433593-1.269532 9.835937 2.378906 13.484374 4.6875 4.6875 12.289062 4.6875 16.972656.003907l5.863281-5.867188c-.207031-3.132812-.355469-6.285156-.4375-9.445312zm0 0"/><path d="m50.929688 272.148438 4.644531 4.644531c2.339843 2.339843 5.414062 3.511719 8.484375 3.511719 3.070312 0 6.140625-1.171876 8.484375-3.515626 3.652343-3.648437 4.417969-9.050781 2.382812-13.484374-.578125 1.257812-1.347656 2.449218-2.382812 3.484374-2.34375 2.34375-5.414063 3.515626-8.484375 3.515626-3.070313 0-6.144532-1.171876-8.484375-3.511719l-5.25-5.25c.105469 3.554687.324219 7.085937.605469 10.605469zm0 0"/><path d="m276.863281 497.265625c-2.339843 2.34375-5.414062 3.515625-8.484375 3.515625-3.070312 0-6.140625-1.171875-8.484375-3.519531l-25.832031-25.832031c-1.035156-1.035157-1.800781-2.226563-2.378906-3.484376-2.039063 4.433594-1.273438 9.835938 2.378906 13.484376l25.832031 25.832031c2.34375 2.347656 5.414063 3.519531 8.484375 3.519531 3.070313 0 6.144532-1.171875 8.484375-3.515625 3.652344-3.652344 4.421875-9.054687 2.382813-13.484375-.578125 1.253906-1.347656 2.445312-2.382813 3.484375zm0 0"/></g><path d="m507.023438 233.988281c-4.683594-4.683593-12.285157-4.6875-16.96875 0l-5.3125 5.3125c.058593.832031.144531 1.660157.195312 2.496094.027344.445313.023438.886719 0 1.324219l.292969 5.6875 4.824219-4.824219c4.683593-4.683594 12.285156-4.683594 16.96875.003906 1.035156 1.035157 1.800781 2.226563 2.378906 3.484375 2.039062-4.429687 1.273437-9.832031-2.378906-13.484375zm0 0" fill="#ffac8c"/><path d="m460.671875 239.304688-5.316406-5.316407c-4.683594-4.683593-12.285157-4.6875-16.972657 0-3.648437 3.652344-4.417968 9.054688-2.378906 13.484375.578125-1.253906 1.347656-2.445312 2.378906-3.484375 4.6875-4.6875 12.289063-4.683593 16.972657 0l5.921875 5.917969zm0 0" fill="#ffac8c"/></svg>