<svg height="512pt" viewBox="-1 0 512 512" width="512pt" xmlns="http://www.w3.org/2000/svg"><path d="m152.703125 211.105469h283.875v208.097656h-283.875zm0 0" fill="#edd4c2"/><path d="m319.058594 283.769531h-11.878906l-10.972657-7.15625-9.09375 7.15625-9.089843-7.15625-7.800782 7.15625v-72.664062h48.835938zm0 0" fill="#ff8354"/><path d="m333.972656 211.226562h-181.269531v-119.246093c0-4.894531 3.96875-8.867188 8.867187-8.867188h172.402344c4.894532 0 8.863282 3.972657 8.863282 8.867188v110.378906c0 4.898437-3.96875 8.867187-8.863282 8.867187zm0 0" fill="#f7ddca"/><path d="m152.703125 91.980469v5.132812h190.132813v-5.132812c0-4.894531-3.96875-8.867188-8.863282-8.867188h-172.402344c-4.898437 0-8.867187 3.972657-8.867187 8.867188zm0 0" fill="#ffefe4"/><path d="m262.804688 127.847656h-7.316407l-6.753906-4.40625-5.597656 4.40625-5.597657-4.40625-4.800781 4.40625v-44.734375h30.066407zm0 0" fill="#ff8354"/><path d="m232.738281 83.113281h30.066407v14h-30.066407zm0 0" fill="#ffac8c"/><path d="m321.8125 360.449219h92.164062v33.597656h-92.164062zm0 0" fill="#fff7f2"/><path d="m403.976562 370.449219v13.597656h-72.164062v-13.597656zm0 0" fill="#edd4c2"/><path d="m117.941406 164.28125-.191406-33.847656-47.730469-22.789063 11.203125-23.460937 62.433594 29.804687.285156 50.140625zm0 0" fill="#d476e2"/><path d="m488.894531 461.832031h-307.96875v-44h307.96875c12.148438 0 22 9.851563 22 22 0 12.148438-9.851562 22-22 22zm0 0" fill="#d476e2"/><path d="m488.894531 447.832031h-307.96875v14h307.96875c12.148438 0 22-9.851562 22-22 0-2.449219-.417969-4.796875-1.15625-7-2.929687 8.714844-11.144531 15-20.84375 15zm0 0" fill="#b665c2"/><path d="m152.703125 22v440.316406h-44v-440.316406c0-12.148438 9.851563-22 22-22s22 9.851562 22 22zm0 0" fill="#d476e2"/><path d="m130.703125 0c-12.148437 0-22 9.851562-22 22v14c0-12.148438 9.851563-22 22-22s22 9.851562 22 22v-14c0-12.148438-9.851563-22-22-22zm0 0" fill="#ea82fa"/><path d="m202.996094 439.949219c0 39.792969-32.257813 72.050781-72.050782 72.050781-39.792968 0-72.050781-32.257812-72.050781-72.050781s32.257813-72.054688 72.050781-72.054688c39.792969 0 72.050782 32.261719 72.050782 72.054688zm0 0" fill="#6770e6"/><g fill="#5861c7"><path d="m130.945312 498c-37.429687 0-68.1875-28.542969-71.707031-65.050781-.222656 2.304687-.34375 4.636719-.34375 7 0 39.792969 32.257813 72.050781 72.050781 72.050781 39.792969 0 72.050782-32.257812 72.050782-72.050781 0-2.363281-.121094-4.695313-.34375-7-3.519532 36.507812-34.277344 65.050781-71.707032 65.050781zm0 0"/><path d="m169.558594 439.949219c0 21.324219-17.289063 38.609375-38.613282 38.609375-21.324218 0-38.613281-17.285156-38.613281-38.609375s17.289063-38.613281 38.613281-38.613281c21.324219 0 38.613282 17.289062 38.613282 38.613281zm0 0"/><path d="m75.605469 117.917969c-3.179688 0-6.40625-.691407-9.460938-2.152344l-53.617187-25.597656c-10.964844-5.234375-15.609375-18.367188-10.375-29.332031 5.234375-10.964844 18.367187-15.609376 29.332031-10.375l53.617187 25.597656c10.964844 5.238281 15.609376 18.371094 10.375 29.332031-3.777343 7.90625-11.65625 12.527344-19.871093 12.527344zm0 0"/></g><path d="m2.152344 74.835938c5.238281-10.964844 18.371094-15.609376 29.332031-10.375l53.617187 25.597656c5.59375 2.671875 9.53125 7.40625 11.363282 12.851562 3.503906-10.394531-1.214844-22.003906-11.363282-26.851562l-53.617187-25.597656c-10.960937-5.230469-24.09375-.585938-29.332031 10.378906-2.5625 5.367187-2.742188 11.253906-.988282 16.476562.28125-.835937.597657-1.664062.988282-2.480468zm0 0" fill="#6770e6"/></svg>