<svg height="512pt" viewBox="0 0 512.00277 512" width="512pt" xmlns="http://www.w3.org/2000/svg"><path d="m489.203125 219.585938c-4.671875 0-9.382813-1.429688-13.4375-4.402344l-214.15625-156.882813c-3.339844-2.445312-7.878906-2.445312-11.21875 0l-214.152344 156.882813c-10.148437 7.433594-24.402343 5.234375-31.832031-4.914063-7.4375-10.148437-5.234375-24.398437 4.914062-31.832031l241.070313-176.601562c3.339844-2.445313 7.878906-2.445313 11.21875 0l241.074219 176.601562c10.148437 7.433594 12.347656 21.683594 4.914062 31.832031-4.464844 6.089844-11.382812 9.316407-18.394531 9.316407zm0 0" fill="#ff8354"/><path d="m9.320312 192.4375 241.070313-176.601562c3.339844-2.445313 7.878906-2.445313 11.21875 0l241.070313 176.601562c4.027343 2.949219 6.78125 6.976562 8.199218 11.390625 2.949219-9.09375-.0625-19.433594-8.199218-25.390625l-241.070313-176.601562c-3.339844-2.445313-7.878906-2.445313-11.21875 0l-241.070313 176.601562c-8.136718 5.957031-11.148437 16.296875-8.199218 25.390625 1.417968-4.414063 4.171875-8.441406 8.199218-11.390625zm0 0" fill="#ffac8c"/><path d="m183.886719 107.019531v404.980469h48.074219v-440.199219zm0 0" fill="#fff7f2"/><path d="m261.609375 58.300781c-3.339844-2.445312-7.878906-2.445312-11.21875 0l-18.429687 13.5v440.199219h48.078124v-440.199219zm0 0" fill="#ffefe4"/><path d="m280.039062 71.800781v440.199219h48.074219v-404.980469zm0 0" fill="#fff7f2"/><path d="m328.113281 107.019531v404.980469h48.074219v-369.761719zm0 0" fill="#ffefe4"/><path d="m376.1875 142.238281v369.761719h48.074219v-334.542969zm0 0" fill="#fff7f2"/><path d="m424.261719 512h48.078125v-299.324219l-48.078125-35.21875zm0 0" fill="#ffefe4"/><path d="m87.738281 177.457031v334.542969h48.074219v-369.761719zm0 0" fill="#fff7f2"/><path d="m39.664062 212.675781v299.324219h48.074219v-334.542969zm0 0" fill="#ffefe4"/><path d="m135.8125 142.238281v369.761719h48.074219v-404.980469zm0 0" fill="#ffefe4"/><path d="m100.125 270.335938h311.75v241.664062h-311.75zm0 0" fill="#69ebfc"/><path d="m411.875 270.335938h-311.75v-26.9375c0-5.882813 4.769531-10.652344 10.652344-10.652344h290.445312c5.882813 0 10.652344 4.769531 10.652344 10.652344zm0 0" fill="#ff8354"/><path d="m39.664062 498h60.460938v14h-60.460938zm0 0" fill="#edd4c2"/><path d="m411.875 498h60.464844v14h-60.464844zm0 0" fill="#edd4c2"/><path d="m100.125 498h64.78125v14h-64.78125zm0 0" fill="#5fd4e3"/><path d="m347.097656 498h64.777344v14h-64.777344zm0 0" fill="#5fd4e3"/><path d="m164.902344 420.878906h91.097656v91.097656h-91.097656zm0 0" fill="#6770e6"/><path d="m256 420.878906h91.097656v91.097656h-91.097656zm0 0" fill="#5861c7"/><path d="m210.453125 329.785156h91.097656v91.097656h-91.097656zm0 0" fill="#8f95e6"/><path d="m165.273438 498h90.726562v14h-90.726562zm0 0" fill="#5861c7"/><path d="m256.183594 498h90.730468v14h-90.730468zm0 0" fill="#5058b5"/></svg>