<svg id="Layer_1" height="512" viewBox="0 0 150 150" width="512" xmlns="http://www.w3.org/2000/svg" data-name="Layer 1"><path d="m139 75a64 64 0 1 1 -64-64 64 64 0 0 1 64 64" fill="#fe7058"/><path d="m43.26 82.55h30.22v2.81h-30.22z" fill="#3a556a"/><path d="m81.23 48.02-4.23-4.9-32.7 36.41 1.64 2.47z" fill="#3a556a"/><path d="m54 85 1-1-1.07-1.07.83-1.27-1.21-.81.56-1.34-1.41-.58.3-1.53-1.42-.28v-1.46h-1.58l-.31-1.48-1.42.29-.56-1.35-1.4.58-.85-1.26-1.21.82-1-1-1.06 1.04-1.27-.84-.8 1.22-1.35-.56-.58 1.4-1.49-.29-.28 1.43h-1.42v1.52l-1.49.31.29 1.42-1.35.56.58 1.4-1.25.85.81 1.21-1 1 1.01 1.07-.83 1.27 1.21.8-.56 1.35 1.4.58-.28 1.49 1.46.31v1.45h1.51l.31 1.49 1.42-.29.56 1.34 1.4-.58.8 1.26 1.21-.81 1 1 1.07-1.07 1.27.83.8-1.21 1.35.55.58-1.4 1.49.29.28-1.43h1.46v-1.49l1.48-.3-.24-1.43 1.35-.56-.58-1.44 1.25-.84zm-10.7 1.65a2.68 2.68 0 1 1 2.64-2.65 2.68 2.68 0 0 1 -2.68 2.64z" fill="#2f4859"/><path d="m43.26 77.11a6.85 6.85 0 1 0 6.84 6.89 6.85 6.85 0 0 0 -6.84-6.89zm0 9.53a2.68 2.68 0 1 1 2.68-2.64 2.68 2.68 0 0 1 -2.68 2.64z" fill="#64798a"/><path d="m91.1 37.85h4.95v36.01h-4.95z" fill="#3a556a" transform="matrix(.523 -.853 .853 .523 -2.95 106.44)"/><path d="m78.36 42.11a4.42 4.42 0 1 1 -4.42 4.41 4.42 4.42 0 0 1 4.42-4.41z" fill="#2f4859"/><circle cx="78.36" cy="46.52" fill="#ebf0f3" r="2.21"/><path d="m107 60.41a3.28 3.28 0 0 0 -3.28 3.29v20.19h6.56v-20.19a3.28 3.28 0 0 0 -3.28-3.29z" fill="#2f4859"/><path d="m110.69 92.33h-39.3a7.78 7.78 0 0 0 0 15.56h39.3a7.78 7.78 0 0 0 0-15.56z" fill="#3a556a"/><path d="m71.39 105.75a5.64 5.64 0 0 1 0-11.28h39.3a5.64 5.64 0 0 1 0 11.28z" fill="#2f4859"/><path d="m71.93 95.91a4.2 4.2 0 1 0 4.2 4.2 4.2 4.2 0 0 0 -4.2-4.2z" fill="#e1e6e9"/><path d="m71.93 97.67a2.44 2.44 0 1 0 2.44 2.44 2.44 2.44 0 0 0 -2.44-2.44z" fill="#3a556a"/><path d="m84.67 95.91a4.2 4.2 0 1 0 4.2 4.2 4.2 4.2 0 0 0 -4.2-4.2z" fill="#e1e6e9"/><path d="m84.67 97.67a2.44 2.44 0 1 0 2.44 2.44 2.44 2.44 0 0 0 -2.44-2.44z" fill="#3a556a"/><path d="m97.41 95.91a4.2 4.2 0 1 0 4.2 4.2 4.2 4.2 0 0 0 -4.2-4.2z" fill="#e1e6e9"/><path d="m97.41 97.67a2.44 2.44 0 1 0 2.44 2.44 2.44 2.44 0 0 0 -2.44-2.44z" fill="#3a556a"/><path d="m110.15 95.91a4.2 4.2 0 1 0 4.2 4.2 4.19 4.19 0 0 0 -4.2-4.2z" fill="#e1e6e9"/><path d="m110.15 97.67a2.44 2.44 0 1 0 2.44 2.44 2.44 2.44 0 0 0 -2.44-2.44z" fill="#3a556a"/><path d="m113.23 79.92h-13.88v-12.66a2 2 0 0 0 -2-2h-19.87a2 2 0 0 0 -1.83 1.16l-8.14 17.2a1.54 1.54 0 0 0 -.24.82v6.31a1.58 1.58 0 0 0 1.58 1.58h44.38a1.58 1.58 0 0 0 1.58-1.58v-9.25a1.58 1.58 0 0 0 -1.58-1.58" fill="#fcd462"/><path d="m97.25 68.61v7.66l-.08 6.41a1.25 1.25 0 0 1 -1.24 1.21h-24.18a1.24 1.24 0 0 1 -1.12-1.76l6.64-14a1.26 1.26 0 0 1 1.12-.7h17.61a1.23 1.23 0 0 1 1.23 1.23" fill="#3a556a"/><path d="m86.62 67.38h-1.16l-8.46 16.51h1.15z" fill="#667c8c"/><path d="m91.15 67.38h-2.76l-8.46 16.51h2.76z" fill="#667c8c"/><path d="m107 62.21a1.51 1.51 0 1 0 1.51 1.51 1.52 1.52 0 0 0 -1.51-1.51z" fill="#e1e6e9"/><path d="m43.26 80.71a3.25 3.25 0 1 0 3.24 3.29 3.25 3.25 0 0 0 -3.24-3.29z" fill="#ebf0f3"/><path d="m43.26 82.55a1.41 1.41 0 1 0 1.41 1.45 1.41 1.41 0 0 0 -1.41-1.45z" fill="#3a556a"/></svg>