<svg id="Layer_1" height="512" viewBox="0 0 150 150" width="512" xmlns="http://www.w3.org/2000/svg" data-name="Layer 1"><circle cx="75" cy="75" fill="#029bc5" r="64"/><path d="m40.91 89.37h20.75v6.61h-20.75z" fill="#2f4859"/><path d="m56.44 89.37h52.64v6.61h-52.64z" fill="#2f4859"/><g fill="#3a556a"><path d="m32.89 86.45h84.23v4.65h-84.23z"/><path d="m105.86 92.16a5.14 5.14 0 1 0 5.14 5.13 5.13 5.13 0 0 0 -5.14-5.13zm3.53 5.9-.06.26v.07a2.85 2.85 0 0 1 -.12.31l-.13.27v.08l-.11.2-.06.08-.17.23-1.74-1.63a.85.85 0 0 0 .11-.26h2.32v.33zm-1.47 2.2-.11.08-.15.09-.13.07-.17.08-.16.07-.21.08h-.14-.17-.14-.22-.08v-2.16a1.53 1.53 0 0 0 .27-.11l1.63 1.64zm-2.73.58h-.14-.18-.12l-.25-.09h-.12l-.19-.1-.11-.06-.16-.1-.11-.06-.22-.17 1.63-1.64a1.53 1.53 0 0 0 .27.11v2.32h-.07zm-2.3-1.5-.06-.09-.11-.18v-.1l-.11-.22v-.06a2.47 2.47 0 0 1 -.1-.29v-.1l-.06-.21v-.11c0-.1 0-.2 0-.3h2.31a1.23 1.23 0 0 0 .12.26l-1.64 1.64zm-.55-2.84.06-.22v-.09l.11-.3.12-.24v-.09l.11-.19.06-.08.17-.23 1.64 1.63a1.59 1.59 0 0 0 -.12.27h-2.31c0-.11 0-.21 0-.32zm1.55-2.23.21-.13h.07l.29-.14.31-.11h.06l.27-.07h.06.33v2.18l-.27.11-1.63-1.63.23-.18zm2.75-.51.25.07h.07l.31.11.26.13h.09l.19.12h.08l.23.18-1.63 1.63-.27-.11v-2.19h.33zm2.25 1.56.13.21v.07c0 .09.09.19.13.28a2.85 2.85 0 0 1 .12.31v.06c0 .08 0 .18.07.27v.06.33h-2.32a1 1 0 0 0 -.11-.27l1.76-1.64.17.23zm-2.4 2a.63.63 0 1 1 -.63-.62.63.63 0 0 1 .63.59z"/><path d="m91.55 92.16a5.14 5.14 0 1 0 5.14 5.13 5.13 5.13 0 0 0 -5.14-5.13zm3.53 5.9-.06.26v.07a2.85 2.85 0 0 1 -.12.31l-.13.27v.08l-.12.2v.08l-.17.23-1.64-1.64a.85.85 0 0 0 .11-.26h2.32c0 .11 0 .22-.05.33zm-1.47 2.2-.11.08-.15.09-.13.07-.17.08-.16.07-.21.08h-.14-.17-.14-.22-.08v-2.16a1.53 1.53 0 0 0 .27-.11l1.63 1.64zm-2.73.58h-.14-.18-.12l-.25-.09h-.12l-.19-.1-.11-.06-.17-.1-.1-.06-.22-.17 1.63-1.64a1.53 1.53 0 0 0 .27.11v2.32h-.07zm-2.3-1.5-.06-.09-.11-.18-.06-.1-.1-.22v-.06a2.47 2.47 0 0 1 -.1-.29v-.1l-.15-.21v-.09c0-.1 0-.2-.05-.3h2.31a2 2 0 0 0 .11.26l-1.63 1.64zm-.58-2.84.06-.22v-.09l.11-.3.12-.24v-.09l.11-.19v-.08l.18-.23 1.63 1.63c0 .09-.08.18-.11.27h-2.1c0-.11 0-.21.05-.32zm1.55-2.23.21-.13h.07l.29-.14.31-.11h.06l.27-.07h.06.33v2.18l-.27.11-1.63-1.63.23-.18zm2.75-.51.25.07h.07l.38.17.26.13h.08l.2.12h.08l.23.18-1.65 1.69-.27-.12v-2.3h.33zm2.25 1.56.13.21v.07c0 .09.09.19.13.28a2.85 2.85 0 0 1 .12.31v.06a2.13 2.13 0 0 1 .07.27v.06c0 .11 0 .22.05.33h-2.22a1 1 0 0 0 -.11-.27l1.64-1.64.17.23zm-2.4 2a.63.63 0 1 1 -.63-.62.63.63 0 0 1 .66.59z"/><path d="m58.44 92.16a5.14 5.14 0 1 0 5.14 5.13 5.13 5.13 0 0 0 -5.14-5.13zm3.56 5.9-.06.26v.07a2.85 2.85 0 0 1 -.12.31l-.13.27v.08l-.11.2-.06.08-.17.23-1.64-1.64a.85.85 0 0 0 .11-.26h2.18v.33zm-1.47 2.2-.11.08-.15.09-.13.07-.17.08-.16.07-.21.08h-.14-.17-.14-.22-.08v-2.16a1.19 1.19 0 0 0 .26-.11l1.64 1.64zm-2.73.58h-.14-.18-.12l-.25-.09h-.12l-.19-.1-.11-.06-.16-.1-.11-.06-.22-.17 1.63-1.64a1.53 1.53 0 0 0 .27.11v2.32h-.1zm-2.3-1.5-.06-.09-.11-.18v-.1l-.11-.22v-.06a2.47 2.47 0 0 1 -.1-.29v-.1l-.06-.21v-.11c0-.1 0-.2 0-.3h2.31a2 2 0 0 0 .11.26l-1.63 1.64zm-.55-2.84.06-.22v-.09l.11-.3.12-.24v-.09l.11-.19.05-.08.18-.23 1.63 1.63c0 .09-.08.18-.11.27h-2.25c0-.11 0-.21 0-.32zm1.55-2.23.21-.13h.07l.22-.14.31-.11h.06l.27-.07h.06.33v2.18l-.27.11-1.63-1.63.23-.18zm2.75-.51.25.07h.07l.31.11.26.13h.08l.2.12h.08l.23.18-1.64 1.63h-.27v-2.3h.33zm2.25 1.56.13.21v.07c0 .09.09.19.13.28a2.85 2.85 0 0 1 .12.31v.06a2.13 2.13 0 0 1 .08.27v.06.33h-2.24a1 1 0 0 0 -.11-.27l1.64-1.64.17.23zm-2.4 2a.63.63 0 1 1 -.63-.62.63.63 0 0 1 .6.59z"/><path d="m44.13 92.16a5.14 5.14 0 1 0 5.14 5.13 5.13 5.13 0 0 0 -5.14-5.13zm3.53 5.9-.06.26v.07a2.85 2.85 0 0 1 -.12.31l-.13.27v.08l-.12.2v.08l-.17.23-1.76-1.63a.85.85 0 0 0 .11-.26h2.32v.33zm-1.47 2.2-.11.08-.15.09-.13.07-.17.08-.16.07-.21.08h-.14-.17-.14-.23-.07v-2.16a1.19 1.19 0 0 0 .26-.11l1.64 1.64zm-2.73.58h-.14-.18-.13l-.24-.09h-.12l-.19-.1-.11-.06-.17-.1-.1-.06-.22-.17 1.63-1.64a1.53 1.53 0 0 0 .27.11v2.32h-.07zm-2.3-1.5-.06-.09-.1-.18-.05-.1-.11-.22v-.06c0-.09-.07-.19-.11-.29v-.1l-.06-.21v-.11c0-.1 0-.2-.05-.3h2.31a2 2 0 0 0 .11.26l-1.63 1.64zm-.55-2.84.06-.22v-.09l.11-.3.12-.24.05-.09.11-.19v-.08l.18-.23 1.76 1.59c0 .09-.08.18-.11.27h-2.35c0-.11 0-.21.05-.32zm1.55-2.23.21-.13h.07l.29-.14.31-.11h.06l.27-.07h.06.33v2.18l-.27.11-1.63-1.63.23-.18zm2.75-.51.25.07h.07l.31.11.26.13h.08l.2.12h.08l.23.18-1.64 1.63h-.24v-2.3h.32zm2.25 1.56.12.21v.07c.05.09.09.19.13.28a2.85 2.85 0 0 1 .12.31v.06a2.13 2.13 0 0 1 .07.27v.06.33h-2.19a1 1 0 0 0 -.11-.27l1.64-1.64.17.23zm-2.4 2a.63.63 0 1 1 -.63-.62.63.63 0 0 1 .63.59z"/></g><path d="m107.92 47.57h-65.84a7.3 7.3 0 0 0 -7.3 7.3v31.6h80.44v-31.6a7.3 7.3 0 0 0 -7.3-7.3z" fill="#d5d6db"/><path d="m115.19 54.37a7.29 7.29 0 0 0 -7.27-6.8h-65.84a7.29 7.29 0 0 0 -7.27 6.8z" fill="#e1e6e9"/><path d="m64.77 59.89h20.05v26.58h-20.05z" fill="#ebf0f3"/><path d="m65.73 60.69h18.15v25.78h-18.15z" fill="#d5d6db"/></svg>