<svg id="Layer_1" height="512" viewBox="0 0 150 150" width="512" xmlns="http://www.w3.org/2000/svg" data-name="Layer 1"><circle cx="75" cy="75" fill="#fe7058" r="64"/><path d="m79.07 112.25h-43.68v-55.11l11.67 9.02 2.3 11.42 10.2 5.15 3.97 12.78 10.21 4.6 14.34 12.14z" fill="#3a556a"/><path d="m59.56 82.73-17.08 15.79 21.05-3.01 2.2 5.52 8.01-.92-9.85-6.44z" fill="#2f4859"/><g fill="#3a556a"><path d="m62.83 81.02.8-11.08-3.09.8z"/><path d="m69.56 93.36 14.14.72v1.84z"/><path d="m70.18 91.15 6.45-2.12-1.41-2.3z"/><path d="m95.06 66.71-10.63-10.62a2.91 2.91 0 0 1 0-4.09l7.57-7.54a2.9 2.9 0 0 1 4.1 0l10.62 10.62a2.89 2.89 0 0 1 0 4.09l-7.54 7.54a2.89 2.89 0 0 1 -4.12 0zm0-21.19a1.41 1.41 0 0 0 -2 0l-7.56 7.54a1.38 1.38 0 0 0 0 2l10.62 10.59a1.38 1.38 0 0 0 2 0l7.54-7.54a1.4 1.4 0 0 0 0-2z"/></g><path d="m63.14 74h25.21v2.8h-25.21z" fill="#e1e6e9" transform="matrix(.707 -.707 .707 .707 -31.13 75.67)"/><path d="m82.5 61.93h4.32v9.1h-4.32z" fill="#f7be56" transform="matrix(.707 -.707 .707 .707 -22.21 79.34)"/><path d="m112.61 43.53-4-3.65-4.62 3.57-5.75 3.14.79.78-1.93 1.88a.91.91 0 0 0 0 1.28.89.89 0 0 0 1.14.09.9.9 0 0 0 1.3 1.24.88.88 0 0 0 1.26 1.19.9.9 0 0 0 1.31 1.24l5.63-5.63z" fill="#fcd462"/><rect fill="#fcd462" height="15.02" rx="1.1" transform="matrix(.707 -.707 .707 .707 -16.17 81.85)" width="15.9" x="82.76" y="52.93"/><path d="m66.14 87.53-2.59.07.07-2.6 3.9-3.9 2.52 2.53z" fill="#d5d6db"/><path d="m88.98 53.84h8.61v8.05h-8.61z" fill="#3a556a" transform="matrix(.707 -.707 .707 .707 -13.6 82.91)"/><path d="m106.18 39.09h6.83v7.35h-6.83z" fill="#3a556a" transform="matrix(.707 -.707 .707 .707 1.86 90.02)"/></svg>