<svg height="512pt" viewBox="0 0 512 512.042" width="512pt" xmlns="http://www.w3.org/2000/svg"><path d="m477.746094 0h-443.699219c-18.792969 0-34.0273438 15.234375-34.0273438 34.023438v99.800781c0 18.789062 15.2343748 34.023437 34.0273438 34.023437h310.21875v35.871094c0 5.660156 6.84375 8.492188 10.84375 4.492188l40.363281-40.363282h82.273438c18.789062 0 34.023437-15.234375 34.023437-34.023437v-99.800781c0-18.789063-15.234375-34.023438-34.023437-34.023438zm0 0" fill="#69ebfc"/><path d="m34.046875 0h443.699219c18.789062 0 34.023437 15.230469 34.023437 34.023438v14.222656c0-18.789063-15.234375-34.023438-34.023437-34.023438h-443.699219c-18.792969 0-34.0273438 15.234375-34.0273438 34.023438v-14.222656c0-18.792969 15.2343748-34.023438 34.0273438-34.023438zm0 0" fill="#a1f1fc"/><path d="m300.324219 219.890625c-1.921875-7.425781-10.113281-17.949219-41.167969-17.949219-47.972656 0-54.800781 7.101563-67.570312-5.164062-10.769532-10.351563-17.097657 39.464844-2.734376 55.285156-6.0625 22.410156-1.214843 44.851562-1.214843 44.851562h134.972656s11.328125-52.425781-22.285156-77.023437zm0 0" fill="#339"/><path d="m201.269531 299.273438s-5.820312-10.660157-17.457031-10.660157-19.878906 51.164063 17.457031 42.632813zm0 0" fill="#ffe4d1"/><path d="m308.980469 299.273438s5.820312-10.660157 17.457031-10.660157 19.878906 51.164063-17.457031 42.632813zm0 0" fill="#ffe4d1"/><path d="m255.125 230.710938c-89.15625 0-72.109375 146.226562 0 146.226562 72.113281 0 89.15625-146.226562 0-146.226562zm0 0" fill="#ffefe4"/><path d="m255.125 222.753906s-60.644531-8.558594-60.644531 69.253906c0 0 7.636719-32.160156 25.15625-40.933593 8.160156-4.085938 11.144531 6.265625 35.488281 6.265625s27.332031-10.351563 35.488281-6.265625c17.519531 8.773437 25.15625 40.933593 25.15625 40.933593 0-77.808593-60.644531-69.253906-60.644531-69.253906zm0 0" fill="#339"/><path d="m289.777344 385.214844-.195313-22.125c-9.160156 8.246094-20.558593 13.355468-33.886719 13.472656-13.332031.117188-24.816406-4.792969-34.121093-12.871094l.1875 21.347656c.050781 5.523438-3.484375 10.445313-8.734375 12.167969l-54.765625 17.964844c-16.40625 5.378906-27.496094 20.6875-27.496094 37.949219v58.921875h250v-58.9375c0-17.253907-11.078125-32.558594-27.46875-37.945313l-54.792969-18.003906c-5.164062-1.695312-8.675781-6.5-8.726562-11.941406zm0 0" fill="#ff8354"/><path d="m253.816406 445.101562c28.09375 0 52.054688-17.636718 61.457032-42.433593l-16.765626-5.511719c-5.167968-1.695312-8.679687-6.5-8.726562-11.941406l-.195312-22.125c-9.160157 8.242187-20.558594 13.355468-33.890626 13.46875-13.328124.121094-24.816406-4.789063-34.117187-12.871094l.1875 21.347656c.046875 5.527344-3.484375 10.449219-8.734375 12.171875l-20.210938 6.628907c9.703126 24.183593 33.34375 41.265624 60.996094 41.265624zm0 0" fill="#ffe4d1"/><path d="m130.769531 498h250v14h-250zm0 0" fill="#e0734a"/><g fill="#ff8354"><path d="m54.058594 104.457031 20.476562 10.765625c2.390625 1.253906 5.183594-.773437 4.726563-3.433594l-3.914063-22.804687 16.570313-16.148437c1.929687-1.882813.863281-5.164063-1.804688-5.554688l-22.894531-3.328125-10.242188-20.746094c-1.195312-2.421875-4.644531-2.421875-5.839843 0l-10.238281 20.746094-22.898438 3.328125c-2.671875.390625-3.738281 3.671875-1.804688 5.554688l16.570313 16.148437-3.914063 22.804687c-.453124 2.660157 2.335938 4.6875 4.726563 3.433594zm0 0"/><path d="m154.914062 104.457031 20.480469 10.765625c2.386719 1.253906 5.179688-.773437 4.722657-3.433594l-3.914063-22.804687 16.570313-16.148437c1.929687-1.882813.867187-5.164063-1.804688-5.554688l-22.894531-3.328125-10.242188-20.746094c-1.191406-2.421875-4.644531-2.421875-5.839843 0l-10.238282 20.746094-22.898437 3.328125c-2.671875.390625-3.738281 3.671875-1.800781 5.554688l16.566406 16.148437-3.910156 22.804687c-.457032 2.660157 2.335937 4.6875 4.722656 3.433594zm0 0"/><path d="m255.769531 104.457031 20.480469 10.765625c2.390625 1.253906 5.179688-.773437 4.722656-3.433594l-3.910156-22.804687 16.566406-16.148437c1.933594-1.882813.867188-5.164063-1.804687-5.554688l-22.894531-3.328125-10.242188-20.746094c-1.191406-2.421875-4.644531-2.421875-5.839844 0l-10.238281 20.746094-22.894531 3.328125c-2.675782.390625-3.738282 3.671875-1.804688 5.554688l16.566406 16.148437-3.910156 22.804687c-.457031 2.660157 2.335938 4.6875 4.722656 3.433594zm0 0"/><path d="m356.625 104.457031 20.480469 10.765625c2.390625 1.253906 5.179687-.773437 4.722656-3.433594l-3.910156-22.804687 16.566406-16.148437c1.933594-1.882813.867187-5.164063-1.804687-5.554688l-22.894532-3.328125-10.238281-20.746094c-1.195313-2.421875-4.648437-2.421875-5.84375 0l-10.238281 20.746094-22.894532 3.328125c-2.671874.390625-3.738281 3.671875-1.804687 5.554688l16.566406 16.148437-3.910156 22.804687c-.457031 2.660157 2.335937 4.6875 4.722656 3.433594zm0 0"/><path d="m457.480469 104.457031 20.480469 10.765625c2.390624 1.253906 5.183593-.773437 4.722656-3.433594l-3.910156-22.804687 16.566406-16.148437c1.933594-1.882813.867187-5.164063-1.804688-5.554688l-22.894531-3.328125-10.238281-20.746094c-1.195313-2.421875-4.648438-2.421875-5.839844 0l-10.242188 20.746094-22.894531 3.328125c-2.671875.390625-3.738281 3.671875-1.804687 5.554688l16.566406 16.148437-3.910156 22.804687c-.457032 2.660157 2.335937 4.6875 4.722656 3.433594zm0 0"/></g></svg>