<svg id="Layer_1" height="512" viewBox="0 0 150 150" width="512" xmlns="http://www.w3.org/2000/svg" data-name="Layer 1"><circle cx="75" cy="75" fill="#89c5cd" r="64"/><path d="m91.46 60.05h-10.39a10.53 10.53 0 0 1 1.08 8.95h8s-1.24-6.93 1.31-8.95z" fill="#d5d6db"/><path d="m102.59 48.43a4.63 4.63 0 0 0 -4.59-5.31 5 5 0 0 0 -1 .1 4.64 4.64 0 0 0 -6.9-2.82 5.21 5.21 0 0 0 -3.74-1.57h-.23a5.21 5.21 0 0 0 -3.74 1.57 4.64 4.64 0 0 0 -6.9 2.82 5 5 0 0 0 -1-.1 4.63 4.63 0 0 0 -4.61 5.31 5.37 5.37 0 1 0 4.13 9.67 4.1 4.1 0 0 0 6.41 2.22 5.19 5.19 0 0 0 5.78-.14 5.21 5.21 0 0 0 5.79.14 4.1 4.1 0 0 0 6.41-2.22 5.36 5.36 0 1 0 4.13-9.67z" fill="#e1e6e9"/><g fill="#d5d6db"><path d="m106.86 53.68a5.36 5.36 0 0 1 -5.36 5.37 5.3 5.3 0 0 1 -3-.95 4.11 4.11 0 0 1 -6.5 2.22 5.19 5.19 0 0 1 -5.78-.14 5.19 5.19 0 0 1 -5.78.14 4.1 4.1 0 0 1 -6.41-2.22 5.36 5.36 0 0 1 -8.41-4.42 5.06 5.06 0 0 1 .06-.79 5.37 5.37 0 0 0 8.35 3.63 4.12 4.12 0 0 0 4 3 4.06 4.06 0 0 0 2.44-.81 5.22 5.22 0 0 0 5.78-.13 5.26 5.26 0 0 0 3 .94 5.17 5.17 0 0 0 2.75-.79 4.12 4.12 0 0 0 6.42-2.21 5.37 5.37 0 0 0 8.35-3.63 6.7 6.7 0 0 1 .09.79z"/><path d="m96.44 52.48h-.39a4.15 4.15 0 1 1 0-8.29 2.55 2.55 0 0 1 .39 0 4.14 4.14 0 0 0 0 8.25z"/><path d="m78.82 47c0-.14 0-.29 0-.43a4.59 4.59 0 1 1 9.18.43 3 3 0 0 1 0 .43 4.59 4.59 0 0 0 -9.13-.5z"/><path d="m85.32 52.76v-.26a2.79 2.79 0 1 1 5.57.3v.27a2.79 2.79 0 0 0 -5.54-.31z"/><path d="m75.7 55.72a2.54 2.54 0 0 1 0-.39 4.09 4.09 0 0 1 8.16.45v.38a4.08 4.08 0 0 0 -8.12-.44z"/><path d="m72.27 53.31-.22-.2a3.19 3.19 0 0 1 4.58-4.45l.2.23a3.19 3.19 0 0 0 -4.56 4.42z"/></g><path d="m90.44 67.7h-8.29l-14.05 17.1-7.91-10.93-29.25 36.63 88.12.67z" fill="#3a556a"/><path d="m68.1 84.8 16.3 26.11-14.33-28.51z" fill="#2f4859"/><path d="m82.15 67.7-7.15 11.02 3.84 5.66v11.02l3.31-12.41-2.51-4.67 7.85-8.04 3.36 5.95-1.88 9.83 10.12 14-3.57-12.21-.1-8.74 5.67 4.77-10.65-16.18z" fill="#2f4859"/><path d="m60.19 73.87-4.4 17.54-5.77 7.61.75 11.63-19.83-.15z" fill="#2f4859"/></svg>