<svg height="512pt" viewBox="0 0 512 512.00245" width="512pt" xmlns="http://www.w3.org/2000/svg"><path d="m510.222656 113.039062-109.167968-108.785156c-2.734376-2.722656-6.4375-4.253906-10.296876-4.253906h-53.027343c0 45.3125-36.726563 82.039062-82.042969 82.039062-45.3125 0-82.039062-36.726562-82.039062-82.039062h-53.003907c-3.875 0-7.585937 1.539062-10.320312 4.28125l-108.570313 108.757812c-2.335937 2.335938-2.335937 6.125 0 8.460938l56.941406 56.945312c2.339844 2.335938 6.128907 2.335938 8.464844 0l47.433594-47.433593v273.179687c0 3.300782 2.679688 5.984375 5.984375 5.984375h270.222656c3.304688 0 5.984375-2.683593 5.984375-5.984375v-273.777344l48.03125 48.03125c2.335938 2.339844 6.125 2.339844 8.460938 0l56.945312-56.941406c2.335938-2.339844 2.335938-6.128906 0-8.464844zm0 0" fill="#ff8354"/><path d="m4.503906 124.28125 105.820313-106c2.734375-2.742188 6.445312-4.28125 10.320312-4.28125h270.113281c3.859376 0 7.5625 1.53125 10.292969 4.253906l100.941407 100.585938.015624-.015625 5.472657 5.472656 2.765625-2.769531c2.335937-2.335938 2.335937-6.125 0-8.460938l-.023438-.027344-.035156-.03125-8.179688-8.179687-.011718.015625-100.945313-100.589844c-2.730469-2.722656-6.433593-4.253906-10.292969-4.253906h-270.113281c-3.875 0-7.585937 1.539062-10.320312 4.28125l-108.570313 108.757812c-1.171875 1.171876-1.753906 2.707032-1.753906 4.246094-.00390625 1.535156.582031 3.074219 1.753906 4.246094zm0 0" fill="#ffac8c"/><path d="m337.730469 0c0 45.3125-36.726563 82.039062-82.042969 82.039062-45.3125 0-82.035156-36.726562-82.035156-82.039062h17.636718c0 35.566406 28.835938 64.402344 64.402344 64.402344s64.398438-28.835938 64.398438-64.402344zm0 0" fill="#6770e6"/><path d="m336.515625 14c.78125-4.550781 1.214844-9.222656 1.214844-14h-17.640625c0 4.808594-.542969 9.488281-1.542969 14zm0 0" fill="#8f95e6"/><path d="m192.832031 14c-1-4.511719-1.542969-9.191406-1.542969-14h-17.640624c0 4.777344.433593 9.449219 1.214843 14zm0 0" fill="#8f95e6"/><path d="m320.089844 0c0 35.566406-28.832032 64.402344-64.402344 64.402344-35.566406 0-64.398438-28.835938-64.398438-64.402344zm0 0" fill="#e0734a"/><path d="m318.546875 14c1-4.511719 1.542969-9.191406 1.542969-14h-128.800782c0 4.808594.542969 9.488281 1.542969 14zm0 0" fill="#ff8354"/><g fill="#6770e6"><path d="m396.785156 404.191406v-11.65625h-282.191406v11.65625c0 3.300782 2.679688 5.984375 5.984375 5.984375h270.222656c3.304688 0 5.984375-2.679687 5.984375-5.984375zm0 0"/><path d="m510.25 113.066406-8.242188-8.242187-65.378906 65.382812 8.242188 8.238281c2.335937 2.335938 6.125 2.335938 8.460937 0l56.917969-56.917968c2.335938-2.335938 2.335938-6.125 0-8.460938zm0 0"/><path d="m1.753906 113.066406 8.238282-8.242187 65.382812 65.382812-8.242188 8.238281c-2.335937 2.335938-6.125 2.335938-8.460937 0l-56.917969-56.917968c-2.335937-2.335938-2.335937-6.125 0-8.460938zm0 0"/></g><path d="m379.121094 200.890625-45.84375-36.007813c-3.5-2.753906-8.632813-.257812-8.632813 4.195313v21.621094h-137.285156v-21.621094c0-4.453125-5.132813-6.945313-8.636719-4.195313l-45.839844 36.007813c-2.722656 2.136719-2.722656 6.257813 0 8.394531l45.839844 36.007813c3.503906 2.75 8.636719.253906 8.636719-4.199219v-21.617188h137.285156v21.617188c0 4.453125 5.128907 6.949219 8.632813 4.199219l45.84375-36.007813c2.722656-2.136718 2.722656-6.257812 0-8.394531zm0 0" fill="#69ebfc"/><path d="m509.960938 466.445312-45.839844-36.007812c-3.503906-2.75-8.636719-.253906-8.636719 4.199219v21.617187h-398.964844v-21.617187c0-4.453125-5.132812-6.949219-8.636719-4.199219l-45.839843 36.007812c-2.722657 2.140626-2.722657 6.257813 0 8.398438l45.839843 36.003906c3.503907 2.753906 8.636719.257813 8.636719-4.199218v-21.617188h398.960938v21.617188c0 4.457031 5.132812 6.953124 8.636719 4.199218l45.84375-36.003906c2.71875-2.136719 2.71875-6.257812 0-8.398438zm0 0" fill="#69ebfc"/><path d="m47.882812 496.851562-42.273437-33.207031-3.566406 2.800781c-2.722657 2.136719-2.722657 6.257813 0 8.398438l45.839843 36.003906c3.503907 2.753906 8.636719.257813 8.636719-4.199218v-14c0 4.457031-5.132812 6.953124-8.636719 4.203124zm0 0" fill="#5fd4e3"/><path d="m455.484375 471.035156h-398.964844v14h398.964844zm0 0" fill="#5fd4e3"/><path d="m509.960938 466.449219-3.566407-2.804688-42.273437 33.207031c-3.503906 2.753907-8.636719.257813-8.636719-4.199218v14c0 4.457031 5.132813 6.953125 8.636719 4.199218l45.839844-36.003906c2.71875-2.140625 2.71875-6.261718 0-8.398437zm0 0" fill="#5fd4e3"/></svg>