<svg height="512pt" viewBox="0 -22 512.00191 512" width="512pt" xmlns="http://www.w3.org/2000/svg"><path d="m310.542969 366.796875-40.199219 27.835937c-7.679688 5.316407-17.851562 5.316407-25.53125 0l-40.199219-27.835937c-47.425781-32.84375-75.722656-86.859375-75.722656-144.542969v-85.492187c0-8.941407 5.3125-17.03125 13.515625-20.582031l106.261719-45.992188c5.6875-2.457031 12.132812-2.457031 17.816406 0l106.261719 45.992188c8.207031 3.550781 13.519531 11.640624 13.519531 20.582031v85.492187c.003906 57.683594-28.296875 111.699219-75.722656 144.542969zm0 0" fill="#69ebfc"/><path d="m210.804688 337.214844c-33.851563-23.445313-54.066407-62.03125-54.066407-103.214844v-93.675781l100.839844-43.644531 100.839844 43.644531v93.675781c0 41.183594-20.214844 79.765625-54.074219 103.214844l-46.765625 32.386718zm0 0" fill="#5fd4e3"/><path d="m249.152344 308.195312c-10.570313-1.546874-19.96875-5.632812-28.21875-12.261718-4.808594-3.863282-8.8125-8.707032-12.011719-14.535156-3.882813-7.070313-.851563-15.964844 6.617187-19.015626 5.933594-2.425781 12.898438-.363281 16.207032 5.125 1.066406 1.765626 2.292968 3.457032 3.675781 5.0625 3.796875 4.441407 8.375 7.511719 13.730469 9.191407v-40.164063l-1.890625-.851562c-5.210938-1.96875-10.117188-4.289063-14.691407-6.976563-4.578124-2.667969-8.601562-5.777343-12.046874-9.296875-3.46875-3.519531-6.21875-7.5-8.25-11.945312-2.054688-4.441406-3.078126-9.410156-3.078126-14.910156 0-5.066407.921876-9.859376 2.75-14.375 1.847657-4.503907 4.472657-8.527344 7.941407-12.046876 3.445312-3.519531 7.632812-6.453124 12.578125-8.773437 4.925781-2.332031 10.488281-3.839844 16.6875-4.546875v-8.773438c0-5.195312 4.210937-9.410156 9.410156-9.410156 5.195312 0 9.410156 4.214844 9.410156 9.410156v9.195313c5.644532.84375 10.546875 2.332031 14.691406 4.445313 4.167969 2.113281 7.726563 4.578124 10.796876 7.292968 1.179687 1.046875 2.320312 2.292969 3.398437 3.636719 5.339844 6.683594 2.625 16.679687-5.1875 20.167969-5.351563 2.390625-11.515625.890625-15.460937-3.449219-2.066407-2.277344-4.789063-4.511719-8.238282-6.089844v37.84375c6.074219 2.542969 11.554688 5.152344 16.5 7.832031 4.925782 2.675782 9.152344 5.703126 12.683594 9.089844 3.53125 3.375 6.199219 7.222656 8.023438 11.515625 1.847656 4.308594 2.75 9.273438 2.75 14.910157 0 6.339843-1.089844 11.984374-3.265626 16.910156-2.195312 4.9375-5.109374 9.164062-8.78125 12.683594-3.675781 3.53125-7.921874 6.351562-12.789062 8.46875-4.863281 2.113281-9.910156 3.589843-15.125 4.433593v9.191407c0 5.199218-4.210938 9.410156-9.410156 9.410156-5.195313 0-9.410156-4.210938-9.410156-9.410156v-8.984376zm-13.933594-110.578124c0 3.386718 1.085938 6.3125 3.261719 8.777343 2.195312 2.472657 5.746093 4.972657 10.671875 7.511719v-30.867188c-4.226563 1.128907-7.59375 2.957032-10.136719 5.488282-2.546875 2.546875-3.796875 5.570312-3.796875 9.089844zm45.664062 68.085937c0-3.664063-.988281-6.699219-2.976562-9.089844-1.96875-2.402343-5.273438-4.792969-9.933594-7.195312v32.34375c3.816406-1.261719 6.914063-3.273438 9.316406-6.023438 2.382813-2.746093 3.59375-6.09375 3.59375-10.035156zm0 0" fill="#a1f1fc"/><path d="m472.621094 270.214844c-8.5-2.0625-17.097656 3.164062-19.160156 11.683594-22.054688 90.960937-102.894532 154.488281-196.585938 154.488281-58.863281 0-114.699219-25.589844-153.191406-70.207031-22.246094-25.785157-36.441406-58.402344-41.175782-93.785157l1.648438 1.648438c3.097656 3.097656 7.160156 4.648437 11.21875 4.648437 4.0625 0 8.121094-1.550781 11.21875-4.648437 6.199219-6.195313 6.199219-16.242188 0-22.441407l-29.753906-29.753906c-6.195313-6.195312-16.242188-6.195312-22.441406 0l-29.75 29.757813c-6.195313 6.195312-6.195313 16.242187 0 22.441406 6.195312 6.195313 16.246093 6.195313 22.441406 0l3.285156-3.285156c4.703125 43.679687 21.757812 84.242187 49.28125 116.148437 44.527344 51.613282 109.121094 81.214844 177.21875 81.214844 53.546875 0 103.9375-17.609375 145.730469-50.921875 40.53125-32.308594 69.546875-77.707031 81.699219-127.832031 2.0625-8.511719-3.167969-17.09375-11.683594-19.15625zm0 0" fill="#6770e6"/><path d="m507.355469 194.082031c-6.199219-6.195312-16.246094-6.195312-22.445313 0l-3.28125 3.28125c-4.703125-43.679687-21.757812-84.242187-49.28125-116.148437-44.527344-51.613282-109.121094-81.214844-177.21875-81.214844-53.550781 0-103.941406 17.609375-145.730468 50.921875-40.53125 32.3125-69.546876 77.710937-81.699219 127.832031-2.066407 8.515625 3.164062 17.09375 11.683593 19.160156 8.511719 2.058594 17.09375-3.167968 19.160157-11.683593 22.050781-90.964844 102.890625-154.492188 196.582031-154.492188 58.863281 0 114.695312 25.589844 153.1875 70.207031 22.246094 25.789063 36.445312 58.402344 41.179688 93.785157l-1.648438-1.648438c-6.199219-6.195312-16.242188-6.195312-22.445312 0-6.195313 6.195313-6.195313 16.242188 0 22.441407l29.753906 29.753906c3.101562 3.097656 7.160156 4.648437 11.222656 4.648437s8.121094-1.550781 11.222656-4.648437l29.753906-29.753906c6.199219-6.199219 6.199219-16.246094.003907-22.441407zm0 0" fill="#6770e6"/><path d="m109.402344 60.921875c41.789062-33.3125 92.179687-50.921875 145.726562-50.921875 68.097656 0 132.691406 29.601562 177.222656 81.214844 27.523438 31.90625 44.574219 72.46875 49.277344 116.148437l3.28125-3.28125c6.199219-6.195312 16.246094-6.195312 22.445313 0 1.808593 1.808594 3.070312 3.945313 3.828125 6.21875 1.824218-5.515625.5625-11.832031-3.828125-16.21875-6.199219-6.195312-16.242188-6.195312-22.445313 0l-3.28125 3.28125c-4.703125-43.679687-21.753906-84.242187-49.277344-116.148437-44.53125-51.613282-109.125-81.214844-177.222656-81.214844-53.546875 0-103.9375 17.605469-145.726562 50.921875-40.535156 32.3125-69.550782 77.710937-81.703125 127.832031-.722657 2.976563-.535157 5.953125.355469 8.664063 12.339843-49.589844 41.171874-94.476563 81.347656-126.496094zm0 0" fill="#8f95e6"/><path d="m446.023438 192.535156c-6.210938-4.582031-14.996094-4.078125-20.621094 1.542969-4.101563 4.65625-5.652344 10.703125-3.824219 16.222656.753906-2.273437 2.019531-4.414062 3.828125-6.222656 6.199219-6.195313 16.242188-6.195313 22.445312 0l3.644532 3.648437c-.539063-4.027343-1.214844-8.011718-2-11.964843-1.117188-1.054688-2.273438-2.167969-3.472656-3.226563zm0 0" fill="#8f95e6"/><g fill="#5861c7"><path d="m402.589844 407.203125c-41.789063 33.3125-92.179688 50.921875-145.726563 50.921875-68.101562 0-132.695312-29.601562-177.222656-81.214844-27.523437-31.90625-44.578125-72.46875-49.277344-116.148437l-3.285156 3.285156c-6.195313 6.195313-16.242187 6.195313-22.441406 0-1.808594-1.808594-3.074219-3.949219-3.828125-6.222656-1.828125 5.515625-.5625 11.832031 3.828125 16.222656 6.195312 6.195313 16.242187 6.195313 22.441406 0l3.285156-3.285156c4.699219 43.679687 21.753907 84.242187 49.277344 116.148437 44.527344 51.613282 109.121094 81.214844 177.222656 81.214844 53.546875 0 103.9375-17.605469 145.726563-50.921875 40.535156-32.308594 69.550781-77.707031 81.703125-127.832031.71875-2.972656.535156-5.953125-.355469-8.664063-12.34375 49.59375-41.175781 94.476563-81.347656 126.496094zm0 0"/><path d="m65.964844 275.589844c6.210937 4.582031 14.996094 4.078125 20.621094-1.542969 4.105468-4.652344 5.652343-10.703125 3.824218-16.21875-.753906 2.269531-2.019531 4.410156-3.828125 6.21875-6.195312 6.195313-16.242187 6.195313-22.441406 0l-3.648437-3.648437c.539062 4.027343 1.21875 8.015624 2 11.964843 1.121093 1.054688 2.277343 2.167969 3.472656 3.226563zm0 0"/></g></svg>