<svg height="512pt" viewBox="0 0 512 512" width="512pt" xmlns="http://www.w3.org/2000/svg"><g fill="#ffefe4"><path d="m0 137.066406 170.664062-40v374.660156l-170.664062 40zm0 0"/><path d="m170.664062 97.066406 170.671876 40v374.660156l-170.671876-40zm0 0"/><path d="m341.335938 137.066406 170.664062-40v374.660156l-170.664062 40zm0 0"/></g><path d="m0 511.726562 170.664062-40v-14l-170.664062 40zm0 0" fill="#edd4c2"/><path d="m170.664062 471.726562 170.671876 40v-14l-170.671876-40zm0 0" fill="#edd4c2"/><path d="m341.335938 511.726562 170.664062-40v-14l-170.664062 40zm0 0" fill="#edd4c2"/><path d="m30 473.726562v-314.660156l140.664062-32 170.671876 40 140.664062-34v314.660156l-140.664062 34-170.671876-40zm0 0" fill="#5861c7"/><path d="m170.664062 127.066406v314.660156l170.671876 40v-314.660156zm0 0" fill="#6770e6"/><path d="m341.335938 221.925781-31.035157-62.128906-68.761719-14.59375 99.796876 159.195313zm0 0" fill="#a1f1fc"/><path d="m315.980469 296.542969c0-13.753907-26.851563-24.90625-59.980469-24.90625s-59.980469 11.152343-59.980469 24.90625c0 13.757812 26.851563 24.910156 59.980469 24.910156s59.980469-11.152344 59.980469-24.910156zm0 0" fill="#8f95e6"/><path d="m370.585938 108.386719c4.453124 88.167969-85.371094 167.027343-108.976563 186.171875-3.265625 2.648437-7.929687 2.648437-11.183594-.015625-22.984375-18.820313-109.171875-95.054688-109.171875-179.796875 0-63.367188 51.363282-114.7343752 114.726563-114.746094 61.203125-.0117188 111.515625 47.261719 114.605469 108.386719zm0 0" fill="#d476e2"/><path d="m255.980469 19.757812c60.058593-.011718 109.632812 45.515626 114.378906 104.980469.414063-5.40625.503906-10.859375.226563-16.351562-3.089844-61.125-53.402344-108.3984378-114.605469-108.386719-63.363281.0117188-114.726563 51.378906-114.726563 114.746094 0 3.363281.148438 6.714844.410156 10.046875 4.933594-58.820313 54.222657-105.023438 114.316407-105.035157zm0 0" fill="#ea82fa"/><path d="m326.492188 114.847656c0 38.929688-31.558594 70.492188-70.492188 70.492188s-70.492188-31.5625-70.492188-70.492188c0-38.933594 31.558594-70.496094 70.492188-70.496094s70.492188 31.5625 70.492188 70.496094zm0 0" fill="#b665c2"/><path d="m30 382.515625 140.664062-36.191406v59.941406l-140.664062 44.1875zm0 0" fill="#5fd4e3"/><path d="m170.664062 346.324219 169.90625 27.144531.765626 70.542969-170.671876-37.746094zm0 0" fill="#a1f1fc"/><path d="m340.570312 373.46875 141.429688-57.675781v68.210937l-140.664062 60.007813zm0 0" fill="#5fd4e3"/><path d="m341.335938 221.925781 126.789062 99.523438-61 24.875-65.789062-41.925781zm0 0" fill="#5fd4e3"/></svg>