<svg height="512pt" viewBox="0 0 512.00049 512" width="512pt" xmlns="http://www.w3.org/2000/svg"><path d="m306.976562 16.917969c6.332032 0 12.285157 2.925781 16.332032 8.03125 2.335937 2.941406 5.953125 9.167969 3.941406 17.765625-1.832031 7.828125-7.828125 13.824218-15.652344 15.65625l-32.917968 7.703125 7.699218-32.917969c1.832032-7.824219 7.832032-13.824219 15.65625-15.652344 1.648438-.386718 3.3125-.582031 4.941406-.582031zm-.003906-16.917969c-2.871094 0-5.816406.332031-8.792968 1.027344-14.03125 3.28125-24.988282 14.238281-28.273438 28.269531l-13.90625 59.453125 59.449219-13.910156c14.03125-3.285156 24.988281-14.238282 28.273437-28.273438 5.707032-24.394531-13.191406-46.566406-36.75-46.566406zm0 0" fill="#69ebfc"/><path d="m205.027344 16.917969c1.625 0 3.289062.195312 4.9375.582031 7.828125 1.828125 13.824218 7.828125 15.65625 15.652344l7.699218 32.917968-32.917968-7.703124c-7.824219-1.828126-13.824219-7.828126-15.652344-15.652344-2.011719-8.597656 1.605469-14.824219 3.941406-17.765625 4.046875-5.105469 10-8.03125 16.335938-8.03125zm0-16.917969c-23.558594 0-42.457032 22.171875-36.75 46.566406 3.285156 14.035156 14.242187 24.988282 28.273437 28.273438l59.449219 13.910156-13.910156-59.453125c-3.28125-14.03125-14.238282-24.988281-28.273438-28.269531-2.972656-.695313-5.917968-1.027344-8.789062-1.027344zm0 0" fill="#69ebfc"/><path d="m269.910156 37.757812c3.28125-14.035156 14.238282-24.988281 28.273438-28.273437 2.972656-.695313 5.917968-1.027344 8.792968-1.027344 19.269532 0 35.414063 14.839844 37.53125 33.59375 2.554688-22.546875-15.441406-42.050781-37.535156-42.050781-2.871094 0-5.816406.332031-8.792968 1.027344-14.03125 3.28125-24.988282 14.238281-28.273438 28.269531l-13.90625 59.453125zm0 0" fill="#a1f1fc"/><path d="m242.089844 37.757812c-3.28125-14.035156-14.238282-24.988281-28.273438-28.273437-2.972656-.695313-5.917968-1.027344-8.792968-1.027344-19.269532 0-35.414063 14.839844-37.53125 33.59375-2.554688-22.546875 15.441406-42.050781 37.535156-42.050781 2.871094 0 5.816406.332031 8.792968 1.027344 14.03125 3.28125 24.988282 14.238281 28.273438 28.269531l13.90625 59.453125zm0 0" fill="#a1f1fc"/><path d="m378.84375 408.097656h-245.6875c-13.484375 0-24.417969-10.933594-24.417969-24.417968v-270.105469h294.523438v270.105469c0 13.488281-10.933594 24.417968-24.417969 24.417968zm0 0" fill="#d476e2"/><path d="m108.738281 103.578125h294.523438v43.226563h-294.523438zm0 0" fill="#b665c2"/><path d="m405.902344 128.519531h-299.804688c-8.191406 0-14.828125-6.640625-14.828125-14.828125v-20.226562c0-8.191406 6.636719-14.832032 14.828125-14.832032h299.804688c8.191406 0 14.828125 6.640626 14.828125 14.832032v20.226562c0 8.1875-6.636719 14.828125-14.828125 14.828125zm0 0" fill="#d476e2"/><path d="m405.902344 78.632812h-299.804688c-8.191406 0-14.828125 6.640626-14.828125 14.832032v16.914062c0-8.1875 6.636719-14.828125 14.828125-14.828125h299.804688c8.191406 0 14.828125 6.640625 14.828125 14.828125v-16.914062c0-8.191406-6.636719-14.832032-14.828125-14.832032zm0 0" fill="#ea82fa"/><path d="m236.382812 78.632812h39.234376v329.464844h-39.234376zm0 0" fill="#69ebfc"/><path d="m236.382812 128.519531h39.234376v18.285157h-39.234376zm0 0" fill="#60d6e6"/><path d="m278.683594 70.484375c0 12.527344-10.15625 22.683594-22.683594 22.683594s-22.683594-10.15625-22.683594-22.683594c0-12.523437 10.15625-22.679687 22.683594-22.679687s22.683594 10.15625 22.683594 22.679687zm0 0" fill="#8cf2ff"/><path d="m256 57.804688c10.804688 0 19.832031 7.5625 22.109375 17.679687.363281-1.609375.574219-3.277344.574219-5 0-12.523437-10.15625-22.679687-22.683594-22.679687s-22.683594 10.15625-22.683594 22.679687c0 1.722656.210938 3.390625.574219 5 2.277344-10.117187 11.304687-17.679687 22.109375-17.679687zm0 0" fill="#c9f9ff"/><path d="m458.785156 329.675781c-23.332031 26.445313-59.109375 78.015625-73.109375 78.015625-6.390625 0-26.121093-3.613281-45.683593-7.546875 32.628906-9.101562 65.621093-23.890625 71.320312-29.59375 8.492188-8.492187-7.425781-19.101562-37.140625-19.101562s-47.753906 8.125-83.832031 8.125c-36.082032 0-35.199219-15.414063-69.070313-15.414063-33.871093 0-68.621093 30.832032-68.621093 30.832032h-61.378907v86.171874h76.820313s67.789062 23.75 93.066406 23.75h121.722656c34.320313 0 116.351563-141.238281 127.238282-155.238281 10.890624-14-28-26.445312-51.332032 0zm0 0" fill="#ffefe4"/><path d="m508.132812 318.449219c-16.476562 24.128906-92.539062 152.46875-125.257812 152.46875-12.441406 0-96.441406 0-121.71875 0s-93.066406-23.753907-93.066406-23.753907h-76.820313v14h76.820313s67.789062 23.753907 93.066406 23.753907h121.71875c34.320312 0 116.351562-141.242188 127.242188-155.242188 3.289062-4.230469 2.015624-8.308593-1.984376-11.226562zm0 0" fill="#edd4c2"/><path d="m52.757812 358.910156h38.511719v126.007813h-38.511719zm0 0" fill="#69ebfc"/><path d="m52.757812 470.917969h38.511719v14h-38.511719zm0 0" fill="#5fd4e3"/><path d="m52.757812 512h-52.757812v-180.175781h52.757812zm0 0" fill="#6770e6"/><path d="m0 498h52.757812v14h-52.757812zm0 0" fill="#5861c7"/></svg>