<svg height="512pt" viewBox="0 0 512 512" width="512pt" xmlns="http://www.w3.org/2000/svg"><path d="m457.109375 220.191406h-402.21875c-13.332031 0-24.136719-10.808594-24.136719-24.136718 0-13.332032 10.804688-24.136719 24.136719-24.136719h402.222656c13.328125 0 24.132813 10.804687 24.132813 24.136719 0 13.328124-10.804688 24.136718-24.136719 24.136718zm0 0" fill="#d476e2"/><path d="m163.457031 220.191406h185.085938v48.269532h-185.085938zm0 0" fill="#b665c2"/><path d="m468.457031 512h-424.914062c-31.535157 0-52.589844-32.515625-39.683594-61.292969l70.214844-156.550781c7.011719-15.632812 22.550781-25.695312 39.6875-25.695312h284.476562c17.136719 0 32.675781 10.0625 39.6875 25.695312l70.214844 156.550781c12.90625 28.777344-8.148437 61.292969-39.683594 61.292969zm0 0" fill="#d476e2"/><path d="m468.457031 498h-424.914062c-22.503907 0-39.660157-16.5625-42.957031-36.503906-4.257813 25.539062 15.324218 50.503906 42.957031 50.503906h424.914062c27.632813 0 47.214844-24.964844 42.957031-50.503906-3.296874 19.941406-20.453124 36.503906-42.957031 36.503906zm0 0" fill="#b665c2"/><path d="m256 306.886719c-63.507812 0-120.894531 26.152343-162.015625 68.261719l100.804687 98.425781c15.535157-15.914063 37.214844-25.800781 61.210938-25.800781s45.675781 9.886718 61.210938 25.800781l100.804687-98.425781c-41.121094-42.109376-98.507813-68.261719-162.015625-68.261719zm0 0" fill="#ffefe4"/><path d="m284.824219 447.707031c0 15.917969-12.902344 28.824219-28.824219 28.824219s-28.824219-12.90625-28.824219-28.824219c0-15.921875 12.902344-28.828125 28.824219-28.828125s28.824219 12.90625 28.824219 28.828125zm0 0" fill="#ff8354"/><path d="m256 459.707031c-6.625 0-12-5.371093-12-12v-88.289062c0-6.625 5.375-12 12-12s12 5.375 12 12v88.289062c0 6.628907-5.375 12-12 12zm0 0" fill="#ff8354"/><g fill="#edd4c2"><path d="m256 306.886719c-2.824219 0-5.636719.070312-8.4375.171875v16.835937c0 4.417969 3.582031 8 8 8s8-3.582031 8-8v-16.867187c-2.511719-.082032-5.03125-.140625-7.5625-.140625zm0 0"/><path d="m191.628906 333.644531c.960938 3.574219 4.191406 5.929688 7.722656 5.929688.683594 0 1.378907-.085938 2.074219-.273438 4.269531-1.144531 6.800781-5.53125 5.65625-9.796875l-4.367187-16.296875c-5.207032 1.257813-10.351563 2.6875-15.414063 4.296875zm0 0"/><path d="m140.125 357.539062c1.480469 2.566407 4.167969 4 6.933594 4 1.359375 0 2.734375-.34375 3.992187-1.074218 3.828125-2.207032 5.136719-7.101563 2.929688-10.925782l-8.128907-14.082031c-4.667968 2.601563-9.234374 5.363281-13.695312 8.28125zm0 0"/><path d="m360.355469 359.40625c1.257812.730469 2.632812 1.074219 3.992187 1.074219 2.765625 0 5.453125-1.433594 6.933594-4l7.683594-13.304688c-4.472656-2.898437-9.042969-5.648437-13.726563-8.230469l-7.8125 13.535157c-2.207031 3.824219-.898437 8.71875 2.929688 10.925781zm0 0"/><path d="m319.566406 333.097656 4.25-15.871094c-5.066406-1.589843-10.210937-3.003906-15.425781-4.242187l-4.277344 15.972656c-1.144531 4.265625 1.386719 8.652344 5.65625 9.796875.691407.1875 1.386719.273438 2.074219.273438 3.53125.003906 6.765625-2.355469 7.722656-5.929688zm0 0"/></g><path d="m387.503906 171.917969h-263.882812c-7.992188 0-14.46875-6.476563-14.46875-14.46875v-123.542969h292.820312v123.542969c0 7.992187-6.480468 14.46875-14.46875 14.46875zm0 0" fill="#5861c7"/><path d="m403.957031 0h-296.789062c-4.550781 0-8.238281 3.691406-8.238281 8.238281v17.429688c0 4.550781 3.6875 8.238281 8.238281 8.238281h296.789062c4.550781 0 8.238281-3.6875 8.238281-8.238281v-17.429688c0-4.546875-3.6875-8.238281-8.238281-8.238281zm0 0" fill="#6770e6"/><path d="m403.957031 0h-296.789062c-4.550781 0-8.238281 3.691406-8.238281 8.238281v8.339844c0-4.550781 3.6875-8.238281 8.238281-8.238281h296.789062c4.550781 0 8.238281 3.691406 8.238281 8.238281v-8.339844c0-4.546875-3.6875-8.238281-8.238281-8.238281zm0 0" fill="#8f95e6"/><path d="m286.726562 69.253906h-62.328124c-4.476563 0-8.109376-3.628906-8.109376-8.109375 0-4.476562 3.632813-8.105469 8.109376-8.105469h62.328124c4.480469 0 8.109376 3.628907 8.109376 8.105469 0 4.480469-3.628907 8.109375-8.109376 8.109375zm0 0" fill="#339"/></svg>