<svg height="512pt" viewBox="-47 0 511 512" width="512pt" xmlns="http://www.w3.org/2000/svg"><path d="m282.035156 512h-239.964844c-22.957031 0-41.570312-18.613281-41.570312-41.570312v-428.859376c0-22.957031 18.613281-41.570312 41.570312-41.570312h239.964844c22.957032 0 41.570313 18.613281 41.570313 41.570312v428.855469c.003906 22.960938-18.609375 41.574219-41.570313 41.574219zm0 0" fill="#6770e6"/><path d="m282.035156 0h-239.964844c-22.957031 0-41.570312 18.613281-41.570312 41.570312v14c0-22.957031 18.613281-41.570312 41.570312-41.570312h239.964844c22.957032 0 41.570313 18.613281 41.570313 41.570312v-14c.003906-22.957031-18.609375-41.570312-41.570313-41.570312zm0 0" fill="#8f95e6"/><path d="m42.070312 512h239.964844c22.957032 0 41.570313-18.613281 41.570313-41.570312v-14c0 22.957031-18.613281 41.570312-41.570313 41.570312h-239.964844c-22.957031 0-41.570312-18.613281-41.570312-41.570312v14c0 22.957031 18.613281 41.570312 41.570312 41.570312zm0 0" fill="#5861c7"/><path d="m42.070312 492c-11.890624 0-21.570312-9.679688-21.570312-21.570312v-402.859376c0-11.890624 9.679688-21.570312 21.570312-21.570312h239.964844c11.894532 0 21.570313 9.679688 21.570313 21.570312v402.859376c0 11.890624-9.675781 21.570312-21.570313 21.570312zm0 0" fill="#a1f1fc"/><path d="m203.328125 31.828125h-112.546875c-4.972656 0-9-4.03125-9-9s4.027344-9 9-9h112.546875c4.96875 0 9 4.03125 9 9s-4.03125 9-9 9zm0 0" fill="#5861c7"/><path d="m242.328125 22.828125c0 4.96875-4.03125 9-9 9s-9-4.03125-9-9 4.03125-9 9-9 9 4.03125 9 9zm0 0" fill="#5861c7"/><g fill="#5fd4e3"><path d="m106.042969 468.28125c-23.6875 0-45.019531-13.183594-55.675781-34.40625-1.984376-3.945312-.390626-8.753906 3.558593-10.738281s8.757813-.390625 10.738281 3.558593c7.925782 15.78125 23.78125 25.585938 41.378907 25.585938 18.613281 0 35.34375-11.101562 42.625-28.285156 1.722656-4.066406 6.421875-5.964844 10.488281-4.242188s5.96875 6.417969 4.246094 10.484375c-9.792969 23.109375-32.304688 38.042969-57.359375 38.042969zm0 0"/><path d="m56.046875 120.882812c-1.039063 0-2.097656-.203124-3.117187-.636718-4.066407-1.722656-5.96875-6.417969-4.246094-10.484375 9.792968-23.109375 32.304687-38.042969 57.359375-38.042969 20.6875 0 39.980469 10.265625 51.609375 27.464844 2.472656 3.660156 1.511718 8.632812-2.144532 11.109375-3.660156 2.476562-8.632812 1.511719-11.109374-2.148438-8.648438-12.789062-22.988282-20.425781-38.355469-20.425781-18.613281 0-35.347657 11.101562-42.625 28.285156-1.292969 3.046875-4.253907 4.878906-7.371094 4.878906zm0 0"/><path d="m106.042969 430.277344c-13.402344 0-24.261719-10.863282-24.261719-24.261719v-272.03125c0-13.398437 10.859375-24.261719 24.261719-24.261719 13.398437 0 24.261719 10.863282 24.261719 24.261719v272.035156c0 13.394531-10.863282 24.257813-24.261719 24.257813zm0 0"/></g><path d="m106.042969 144.230469h312.011719v241.992187h-312.011719zm0 0" fill="#d476e2"/><path d="m336.53125 174.230469h-230.488281v181.992187h230.488281c0-28.453125 23.066406-51.523437 51.523438-51.523437v-78.945313c-28.457032 0-51.523438-23.066406-51.523438-51.523437zm0 0" fill="#b665c2"/><path d="m249.21875 272.398438c-2.996094-3.796876-6.949219-6.589844-11.863281-8.378907v-1.070312c3.664062-1.789063 6.722656-4.402344 9.183593-7.84375 2.457032-3.441407 3.6875-7.710938 3.6875-12.804688 0-3.488281-.761718-6.75-2.28125-9.785156-1.519531-3.039063-3.597656-5.699219-6.234374-7.980469-2.636719-2.277344-5.742188-4.066406-9.316407-5.363281-1.15625-.417969-2.347656-.742187-3.554687-1.027344v-10.703125c0-4.589844-3.722656-8.3125-8.3125-8.3125h-1.472656c-4.589844 0-8.3125 3.722656-8.3125 8.3125v9.789063h-9.316407v-9.789063c0-4.589844-3.722656-8.3125-8.3125-8.3125h-1.472656c-4.589844 0-8.3125 3.722656-8.3125 8.3125v9.789063h-11.734375c-4.589844 0-8.3125 3.722656-8.3125 8.3125 0 4.589843 3.722656 8.3125 8.3125 8.3125h11.734375v62.746093h-11.734375c-4.589844 0-8.3125 3.71875-8.3125 8.308594 0 4.59375 3.722656 8.3125 8.3125 8.3125h11.734375v9.789063c0 4.589843 3.722656 8.3125 8.3125 8.3125h1.472656c4.589844 0 8.3125-3.722657 8.3125-8.3125v-9.789063h9.316407v9.789063c0 4.589843 3.722656 8.3125 8.3125 8.3125h1.472656c4.589844 0 8.3125-3.722657 8.3125-8.3125v-10.3125c1.941406-.3125 3.820312-.753907 5.632812-1.351563 3.800782-1.25 7.128906-3.039062 9.988282-5.363281 2.859374-2.324219 5.117187-5.117187 6.769531-8.378906 1.652343-3.261719 2.480469-6.953125 2.480469-11.0625 0-5.628907-1.5-10.34375-4.492188-14.144531zm-47.796875-38.945313h18.636719c3.929687 0 7.015625 1.117187 9.25 3.351563 2.234375 2.234374 3.351562 4.914062 3.351562 8.042968s-1.136718 5.832032-3.417968 8.113282c-2.277344 2.277343-5.519532 3.417968-9.71875 3.417968h-18.097657v-22.925781zm30.566406 59.730469c-2.414062 2.277344-5.898437 3.417968-10.457031 3.417968h-20.109375v-24.671874h19.574219c4.824218 0 8.46875 1.1875 10.929687 3.554687 2.457031 2.371094 3.6875 5.339844 3.6875 8.914063-.003906 3.578124-1.210937 6.503906-3.625 8.785156zm0 0" fill="#ea82fa"/></svg>