<svg id="Layer_1" height="512" viewBox="0 0 150 150" width="512" xmlns="http://www.w3.org/2000/svg" xmlns:xlink="http://www.w3.org/1999/xlink" data-name="Layer 1"><clipPath id="clip-path"><path d="m85.24 51.62h-1.41l-10.31 20.12h1.4z"/></clipPath><path d="m139 75a64 64 0 1 1 -64-64 64 64 0 0 1 64 64" fill="#21b3a9"/><path d="m44.81 79c-7.12 0-5.81-8.18-5.81-8.18a1.85 1.85 0 0 0 -1.84-1.82c-3.44 0-7.29-.86-7.3 8.06 0 6.38 3.16 9.07 9 9.35 4.13.2 9-2.52 9.05-6.32.09-.96-1.29-1.09-3.1-1.09z" fill="#3a556a"/><path d="m33.6 59.37h19.55v5.27h-19.55z" fill="#fcd462" transform="matrix(.707 -.707 .707 .707 -31.14 48.83)"/><path d="m50.66 53.23-5.32 4.09 19.51 26.11 8.08-6.21z" fill="#fcd462"/><path d="m110.65 82h-47.9a9.49 9.49 0 0 0 0 19h47.9a9.49 9.49 0 1 0 0-19z" fill="#3a556a"/><path d="m62.75 98.38a6.87 6.87 0 1 1 0-13.73h47.9a6.87 6.87 0 1 1 0 13.73z" fill="#2f4859"/><circle cx="63.41" cy="91.52" fill="#e1e6e9" r="5.11"/><path d="m63.41 88.54a3 3 0 1 0 3 3 3 3 0 0 0 -3-3z" fill="#3a556a"/><path d="m78.94 86.4a5.12 5.12 0 1 0 5.11 5.12 5.12 5.12 0 0 0 -5.11-5.12z" fill="#e1e6e9"/><path d="m78.94 88.54a3 3 0 1 0 3 3 3 3 0 0 0 -3-3z" fill="#3a556a"/><circle cx="94.47" cy="91.52" fill="#e1e6e9" r="5.11"/><path d="m94.47 88.54a3 3 0 1 0 3 3 3 3 0 0 0 -3-3z" fill="#3a556a"/><circle cx="110" cy="91.52" fill="#e1e6e9" r="5.11"/><path d="m110 88.54a3 3 0 1 0 3 3 3 3 0 0 0 -3-3z" fill="#3a556a"/><path d="m117.68 59.84h-16.91v-8.37a2.48 2.48 0 0 0 -2.48-2.47h-24.18a2.47 2.47 0 0 0 -2.24 1.42l-9.87 20.99a1.89 1.89 0 0 0 -.29 1v7.7a1.92 1.92 0 0 0 1.88 1.89h54.09a1.92 1.92 0 0 0 1.92-1.92v-18.31a1.93 1.93 0 0 0 -1.92-1.93" fill="#fcd462"/><path d="m98.21 53.11v9.35l-.11 7.81a1.5 1.5 0 0 1 -1.51 1.47h-29.47a1.5 1.5 0 0 1 -1.36-2.14l8.09-17.12a1.51 1.51 0 0 1 1.36-.87h21.5a1.5 1.5 0 0 1 1.5 1.5" fill="#3a556a"/><g clip-path="url(#clip-path)"><path d="m73.52 51.61h11.73v20.13h-11.73z" fill="#667c8c"/></g><path d="m90.77 51.62h-3.37l-10.32 20.12h3.37z" fill="#667c8c"/><circle cx="48.78" cy="57.38" fill="#f7be56" r="5.21"/><circle cx="48.78" cy="57.38" fill="#fcd462" r="4.17"/><path d="m36.71 64.06a4.27 4.27 0 1 0 4.29 4.27 4.27 4.27 0 0 0 -4.29-4.27z" fill="#f7be56"/><path d="m36.71 64.69a3.64 3.64 0 1 0 3.64 3.64 3.64 3.64 0 0 0 -3.64-3.64z" fill="#fcd462"/><path d="m63.78 67.36s-2.1 4.07-2.1 4.85 0 6.91 0 6.91-.48-6.16-.48-7.21 2.58-4.55 2.58-4.55z" fill="#f7be56"/></svg>