<svg height="512pt" viewBox="0 0 512 512" width="512pt" xmlns="http://www.w3.org/2000/svg"><path d="m147.375 0h218.527344v91.933594h-218.527344zm0 0" fill="#5fd4e3"/><path d="m147.375 0h218.527344v14h-218.527344zm0 0" fill="#69ebfc"/><path d="m512 512h-512v-433.113281l71.78125-20 184.78125 33.664062 184.78125-33.664062 70.65625 20zm0 0" fill="#5fd4e3"/><path d="m71.78125 58.953125.070312-.054687-.070312-.011719-71.78125 20v14l80.050781-22.304688zm0 0" fill="#69ebfc"/><path d="m441.34375 58.886719-.070312.011719.070312.054687-9.90625 13.933594 80.5625 20v-14zm0 0" fill="#69ebfc"/><path d="m0 498h512v14h-512zm0 0" fill="#58c3d1"/><path d="m234.230469 92.550781h44.8125v329.046875h-44.8125zm0 0" fill="#58c3d1"/><path d="m71.78125 58.953125 109.1875 153.589844 75.59375-119.992188-109.1875-92.550781zm0 0" fill="#69ebfc"/><path d="m441.34375 58.953125-109.1875 153.589844-75.59375-119.992188 109.191406-92.550781zm0 0" fill="#69ebfc"/><path d="m365.753906 14 69.1875 53.960938 6.402344-9.007813-75.589844-58.953125-109.191406 92.550781 5.75 9.125zm0 0" fill="#a1f1fc"/><path d="m147.375 14-69.1875 53.960938-6.40625-9.007813 75.59375-58.953125 109.1875 92.550781-5.75 9.125zm0 0" fill="#a1f1fc"/><path d="m479.542969 394.828125-71.679688 40-71.683593-40v-138.828125h143.363281zm0 0" fill="#58c3d1"/><path d="m179.660156 394.828125-71.679687 40-71.683594-40v-138.828125h143.363281zm0 0" fill="#58c3d1"/><path d="m336.179688 256h143.363281v29.441406h-143.363281zm0 0" fill="#69ebfc"/><path d="m36.296875 256h143.363281v29.441406h-143.363281zm0 0" fill="#69ebfc"/><g fill="#5fd4e3"><path d="m270.445312 147.566406c0 7.628906-6.179687 13.808594-13.808593 13.808594-7.625 0-13.808594-6.179688-13.808594-13.808594 0-7.625 6.183594-13.804687 13.808594-13.804687 7.628906 0 13.808593 6.179687 13.808593 13.804687zm0 0"/><path d="m270.445312 226.351562c0 7.625-6.179687 13.804688-13.808593 13.804688-7.625 0-13.808594-6.179688-13.808594-13.804688 0-7.628906 6.183594-13.808593 13.808594-13.808593 7.628906 0 13.808593 6.179687 13.808593 13.808593zm0 0"/><path d="m270.445312 305.128906c0 7.628906-6.179687 13.808594-13.808593 13.808594-7.625 0-13.808594-6.179688-13.808594-13.808594 0-7.625 6.183594-13.808594 13.808594-13.808594 7.628906 0 13.808593 6.183594 13.808593 13.808594zm0 0"/><path d="m270.445312 383.910156c0 7.628906-6.179687 13.808594-13.808593 13.808594-7.625 0-13.808594-6.179688-13.808594-13.808594 0-7.625 6.183594-13.804687 13.808594-13.804687 7.628906 0 13.808593 6.179687 13.808593 13.804687zm0 0"/></g></svg>