<svg id="Layer_1" height="512" viewBox="0 0 150 150" width="512" xmlns="http://www.w3.org/2000/svg" data-name="Layer 1"><path d="m139 75a64 64 0 1 1 -64-64 64 64 0 0 1 64 64" fill="#89c5cd"/><path d="m85.17 108.24h-52.69v-66.48l14.08 10.88 2.77 13.79 12.3 6.21 4.8 15.42 12.31 5.54 17.3 14.64z" fill="#3a556a"/><path d="m61.63 72.64-20.6 19.05 25.4-3.63 2.65 6.66 9.66-1.12-11.88-7.77z" fill="#2f4859"/><path d="m74.93 54.72-1.88 1.88a1 1 0 0 0 0 1.41l36.55 36.54a1 1 0 0 0 1.41 0l1.88-1.88a1 1 0 0 0 0-1.41l-36.55-36.54a1 1 0 0 0 -1.41 0" fill="#985b3f"/><path d="m104.66 50.39c-8.14-2.38-17.82-.22-25.43 6.17l-.69-.69a.39.39 0 0 0 -.53 0l-3.8 3.81a.37.37 0 0 0 0 .53l.72.72c-6.14 7.55-8.18 17-5.84 25a.49.49 0 0 0 1-.06 40.39 40.39 0 0 1 9.78-20.07l.76.76a.39.39 0 0 0 .53 0l3.81-3.81a.37.37 0 0 0 0-.53l-.78-.78c6.34-5.64 13.62-9.1 20.45-10.12a.5.5 0 0 0 .06-1" fill="#3a556a"/><path d="m74.66 61.28 5.17 4.56-4.91-4.92z" fill="#2f4859"/><path d="m117.52 73.68-5.45-4.91-6.23 4.81-8.29 2.35 2.25 2.29-3.18 3.18a1.21 1.21 0 0 0 1.54 1.85 1.21 1.21 0 0 0 0 1.65 1.22 1.22 0 0 0 1.7 0 1.2 1.2 0 0 0 .15 1.49 1.21 1.21 0 0 0 1.55.12 1.21 1.21 0 0 0 1.77 1.66l7.67-7.57 6.55-6.92" fill="#fcd462"/><g fill="#3a556a"><path d="m65.58 70.58.96-13.37-3.72.96z"/><path d="m73.7 85.46 17.06.86v2.23z"/><path d="m74.44 82.79 7.79-2.56-1.71-2.77z"/></g><path d="m90 72.13a14.94 14.94 0 0 1 -2.84-2.13 8.52 8.52 0 0 0 2.84 2.13" fill="#7f4b36"/><path d="m83.82 64.48a.4.4 0 0 0 -.24.07.6.6 0 0 0 -.1.82 1.81 1.81 0 0 0 .75.52l-.18.34c.69.53 1.4 1 2.12 1.54l-.17-.06 4 4.39a15 15 0 0 0 2 1q1.65 1.68 3.4 3.23a15 15 0 0 1 -4.94-2.83 22.51 22.51 0 0 0 4.17 3.81 2 2 0 0 0 1 .45.73.73 0 0 0 .35-.09c.49-.25.52-.94.38-1.47a5.32 5.32 0 0 0 -1.82-2.61 13.59 13.59 0 0 0 -2.78-1.59h.2a22 22 0 0 1 -3.14-3.6 11.61 11.61 0 0 0 -2.71-2.28l.48.64-2-1.89a1.25 1.25 0 0 0 -.74-.39" fill="#92573d"/><path d="m106.26 86.07c0 .26 0 .59-.19.71l-.23.09c-.14.12-.06.35 0 .5s.24.33.16.5l-.63-.22a.58.58 0 0 1 -.12.69.54.54 0 0 1 -.35.11.57.57 0 0 1 -.35-.12l-.12.12 2.59 2.4c0-.16-.1-.32-.16-.49a10.13 10.13 0 0 0 2.85 2.32 4 4 0 0 0 -.66-1.52 4.27 4.27 0 0 0 1.78 1.19 1.09 1.09 0 0 0 -.46-.84l1.3.83a3.94 3.94 0 0 0 -1.7-1.68 11 11 0 0 1 -2-1.32l1.17 1.41-1.72-1 .21.36-1.8-1.85 1.12.71a3.17 3.17 0 0 0 -.54-1.91 19.61 19.61 0 0 1 3.31 2.37 47.69 47.69 0 0 0 -3.49-3.33" fill="#92573d"/></svg>