<svg id="Layer_1" height="512" viewBox="0 0 150 150" width="512" xmlns="http://www.w3.org/2000/svg" data-name="Layer 1"><circle cx="75" cy="75" fill="#3a556a" r="64"/><path d="m44.09 46.6v60.73h60.11v-59.41z" fill="#709584"/><path d="m93.88 43.79h3.6v24.27h-3.6z" fill="#f7be56" transform="matrix(.707 -.707 .707 .707 -11.52 84.02)"/><path d="m42.19 54.12h24.27v3.6h-24.27z" fill="#f7be56" transform="matrix(.707 -.707 .707 .707 -23.63 54.8)"/><path d="m105.35 42.41h-60.7a2.24 2.24 0 0 0 -2.24 2.24v62.94h6.31v-57.67h52.56v57.67h6.31v-62.94a2.24 2.24 0 0 0 -2.24-2.24z" fill="#fcd462"/><path d="m103.7 86.39a13.42 13.42 0 0 0 -.16-2.62c.05.87.09 1.75.16 2.62z" fill="#f7be56"/><path d="m105.39 66.9a8 8 0 0 0 .35 1.87c-.12-.62-.24-1.25-.35-1.87z" fill="#cc773e"/><path d="m102.88 49v-.33c-.09-.13-.21-.24-.31-.36q.18.34.31.69z" fill="#cc773e"/><g fill="#f7be56"><path d="m105.66 48.13a6.36 6.36 0 0 1 .34 2.87 5.64 5.64 0 0 0 -.34-2.87z"/><path d="m105.8 106.15c-1.3-12.05-.9-24.21-.5-36.32-1.39 4.91-.93 10.12-.63 15.21a76.08 76.08 0 0 1 -.62 17.78 5.43 5.43 0 0 0 0 2.91 1.73 1.73 0 0 0 2.36 1l-.39-.41z"/><path d="m103.65 66.56-.08-2.81c.15-2.53.36-5.06.63-7.57a14.44 14.44 0 0 0 -.82 4.4 104.06 104.06 0 0 0 -.65 14.17 42.71 42.71 0 0 0 .26 5.78c.15 1.09.39 2.16.55 3.24a168.44 168.44 0 0 1 0-18.8c.01.53.06 1.03.11 1.59z"/><path d="m100.19 45.32c-1.93-1-4.28.09-6.42-.27 3 .26 6.31.64 8.43 2.8a5.32 5.32 0 0 1 .38.45 5.79 5.79 0 0 0 -2.39-2.98z"/><path d="m102.89 48.66a17 17 0 0 1 1.57 2.87c1 2 1.92 4.24 1.37 6.41-.25 1-.84 1.94-1.07 3a9.13 9.13 0 0 0 .18 3.6l.45 2.39a24.29 24.29 0 0 1 .79-6.47 15.54 15.54 0 0 0 .38-4c-.2-3.11-2-5.87-3.66-8.49z"/><path d="m97.44 44.33a11.81 11.81 0 0 1 5.13.56 5.91 5.91 0 0 1 3.09 3.24l.16.07c.21-1.21.35-2.65-.55-3.49a3.71 3.71 0 0 0 -2.27-.71c-4.6-.4-9.23-.39-13.85-.37l-18.15.03a224.48 224.48 0 0 0 26.44.67z"/><path d="m98.72 47.92.69-.05c-1.24-.12-2.49-.18-3.74-.21a6.34 6.34 0 0 0 3.05.26z"/><path d="m87.79 48.05a50.68 50.68 0 0 1 7.88-.39c-1.56-.47-3.11-1.28-4.67-1.66a17.57 17.57 0 0 0 -3.84-.29c-7.05 0-14.1.44-21.14.85 6.35 1 12.83.42 19.23-.17-3.8.72-7.64 1.3-11.47 1.88l27.12.89a53 53 0 0 0 -13.11-1.11z"/><path d="m44.27 106.15c1.29-12.05.89-24.21.5-36.32 1.38 4.91.92 10.12.63 15.21a76.07 76.07 0 0 0 .6 17.78 5.33 5.33 0 0 1 0 2.91 1.73 1.73 0 0 1 -2.36 1c.13-.14.26-.27.38-.41z"/><path d="m46.42 66.56.08-2.81c-.16-2.53-.37-5.06-.64-7.57a14.15 14.15 0 0 1 .82 4.4 102.47 102.47 0 0 1 .66 14.17 42.71 42.71 0 0 1 -.26 5.78c-.16 1.09-.39 2.16-.55 3.24a173.38 173.38 0 0 0 0-18.8c-.02.53-.07 1.03-.11 1.59z"/><path d="m49.88 45.32c1.93-1 4.28.09 6.41-.27-3 .26-6.3.64-8.43 2.8-.14.14-.25.3-.38.45a5.76 5.76 0 0 1 2.4-2.98z"/><path d="m47.18 48.66a17 17 0 0 0 -1.58 2.87c-.94 2-1.91 4.24-1.37 6.41.26 1 .84 1.94 1.07 3a9 9 0 0 1 -.18 3.6c-.15.8-.29 1.59-.44 2.39a24.7 24.7 0 0 0 -.79-6.47 15.54 15.54 0 0 1 -.38-4c.2-3.11 2-5.87 3.66-8.49z"/><path d="m52.63 44.33a11.86 11.86 0 0 0 -5.14.56 5.9 5.9 0 0 0 -3.08 3.24l-.16.07c-.21-1.21-.35-2.65.55-3.49a3.7 3.7 0 0 1 2.26-.71c4.61-.4 9.24-.39 13.86-.37h18.16a224.48 224.48 0 0 1 -26.45.7z"/><path d="m51.35 47.92-.69-.05c1.24-.12 2.48-.18 3.73-.21a6.29 6.29 0 0 1 -3.04.26z"/><path d="m62.27 48.05a50.62 50.62 0 0 0 -7.88-.39c1.61-.47 3.11-1.28 4.71-1.66a17.66 17.66 0 0 1 3.84-.29c7 0 14.1.44 21.14.85-6.35 1-12.83.42-19.23-.17 3.81.72 7.64 1.3 11.47 1.88l-27.12.89a53.13 53.13 0 0 1 13.07-1.11z"/><path d="m87.62 64.92h2.41v16.23h-2.41z" transform="matrix(.707 -.707 .707 .707 -25.63 84.2)"/><path d="m53.06 71.83h16.23v2.41h-16.23z" transform="matrix(.707 -.707 .707 .707 -33.73 64.65)"/></g><path d="m95.3 64h-40.6a1.5 1.5 0 0 0 -1.49 1.5v42.09h4.21v-38.59h35.16v38.56h4.21v-42.06a1.5 1.5 0 0 0 -1.49-1.5z" fill="#fcd462"/><path d="m94.19 93.41a8.54 8.54 0 0 0 -.11-1.75c.04.58.07 1.17.11 1.75z" fill="#f7be56"/><path d="m95.32 80.38a5.39 5.39 0 0 0 .23 1.25c-.07-.42-.15-.84-.23-1.25z" fill="#f7be56"/><path d="m93.65 68.4v-.22l-.2-.24c.07.15.13.31.2.46z" fill="#cc773e"/><path d="m95.5 67.83a4.42 4.42 0 0 1 .28 1.91 3.85 3.85 0 0 0 -.28-1.91z" fill="#f7be56"/><path d="m95.6 106.63c-.87-8.06-.6-16.19-.34-24.29-.92 3.28-.62 6.76-.42 10.17a50.86 50.86 0 0 1 -.41 11.89 3.55 3.55 0 0 0 0 1.94c.24.61 1 1.06 1.58.69l-.26-.28z" fill="#f7be56"/><path d="m94.16 80.15v-1.88c.1-1.69.24-3.38.42-5.06a9.59 9.59 0 0 0 -.58 2.94 69.3 69.3 0 0 0 -.44 9.48 27.5 27.5 0 0 0 .18 3.86c.1.73.26 1.45.36 2.17a117.13 117.13 0 0 1 0-12.57c-.01.35.03.71.06 1.06z" fill="#f7be56"/><path d="m91.84 65.94c-1.29-.65-2.86.07-4.28-.17 2 .17 4.21.42 5.63 1.87.09.09.17.2.26.3a3.92 3.92 0 0 0 -1.61-2z" fill="#f7be56"/><path d="m93.65 68.18a11.52 11.52 0 0 1 1 1.92c.64 1.35 1.28 2.84.92 4.28-.17.69-.56 1.3-.72 2a6.33 6.33 0 0 0 .15 2.4l.3 1.6a16.46 16.46 0 0 1 .53-4.33 10.5 10.5 0 0 0 .25-2.68c-.13-2.09-1.31-3.94-2.44-5.68z" fill="#f7be56"/><path d="m90 65.28a8.08 8.08 0 0 1 3.43.38 3.92 3.92 0 0 1 2.06 2.17h.11a2.55 2.55 0 0 0 -.37-2.33 2.4 2.4 0 0 0 -1.51-.49c-3.08-.27-6.18-.26-9.27-.25h-12.14a151.34 151.34 0 0 0 17.69.52z" fill="#f7be56"/><path d="m90.86 67.68h.46c-.83-.08-1.66-.12-2.49-.14a4.13 4.13 0 0 0 2.03.14z" fill="#f7be56"/><path d="m83.56 67.77a35.65 35.65 0 0 1 5.27-.26c-1-.31-2.09-.85-3.16-1.1a10.93 10.93 0 0 0 -2.56-.19c-4.72 0-9.43.29-14.14.56 4.25.67 8.58.28 12.86-.11-2.55.48-5.11.87-7.67 1.26l18.14.59a35.64 35.64 0 0 0 -8.74-.75z" fill="#f7be56"/><path d="m54.45 106.63c.86-8.06.6-16.19.33-24.29.93 3.28.62 6.76.42 10.17a50.86 50.86 0 0 0 .42 11.89 3.65 3.65 0 0 1 0 1.94c-.25.61-1 1.06-1.58.69l.26-.28z" fill="#f7be56"/><path d="m55.88 80.15.06-1.88c-.11-1.69-.25-3.38-.42-5.06a9.59 9.59 0 0 1 .54 2.94 69.3 69.3 0 0 1 .44 9.48 29.11 29.11 0 0 1 -.17 3.86c-.1.73-.26 1.45-.37 2.17a114.58 114.58 0 0 0 0-12.57c.04.35-.04.71-.08 1.06z" fill="#f7be56"/><path d="m58.2 65.94c1.29-.65 2.86.07 4.29-.17-2 .17-4.22.42-5.64 1.87a3.61 3.61 0 0 0 -.25.3 3.9 3.9 0 0 1 1.6-2z" fill="#f7be56"/><path d="m56.39 68.18a12.29 12.29 0 0 0 -1 1.92c-.63 1.35-1.28 2.84-.92 4.28.18.69.57 1.3.72 2a6 6 0 0 1 -.19 2.4l-.3 1.6a16.46 16.46 0 0 0 -.53-4.33 10.5 10.5 0 0 1 -.25-2.68c.13-2.09 1.31-3.94 2.45-5.68z" fill="#f7be56"/><path d="m60 65.28a8.06 8.06 0 0 0 -3.43.38 3.9 3.9 0 0 0 -2.07 2.17h-.1a2.52 2.52 0 0 1 .36-2.33 2.45 2.45 0 0 1 1.52-.49c3.08-.27 6.17-.26 9.26-.25h12.15a151.34 151.34 0 0 1 -17.69.52z" fill="#f7be56"/><path d="m59.18 67.68h-.46c.83-.08 1.66-.12 2.5-.14a4.17 4.17 0 0 1 -2.04.14z" fill="#f7be56"/><path d="m66.49 67.77a35.72 35.72 0 0 0 -5.27-.26c1-.31 2.08-.85 3.15-1.1a11.05 11.05 0 0 1 2.57-.19c4.71 0 9.42.29 14.13.56-4.24.67-8.58.28-12.86-.11 2.55.48 5.11.87 7.68 1.26l-18.14.59a35.6 35.6 0 0 1 8.74-.75z" fill="#f7be56"/><path d="m82.7 81.56h1.47v9.9h-1.47z" fill="#f7be56" transform="matrix(.707 -.707 .707 .707 -36.74 84.34)"/><path d="m61.62 85.78h9.9v1.47h-9.9z" fill="#f7be56" transform="matrix(.707 -.707 .707 .707 -41.68 72.41)"/><path d="m87.38 81h-24.76a.92.92 0 0 0 -.91.92v25.67h2.57v-23.52h21.44v23.52h2.57v-25.67a.92.92 0 0 0 -.91-.92z" fill="#fcd462"/><path d="m86.7 98.94a4.81 4.81 0 0 0 -.06-1.07z" fill="#dc8744"/><path d="m87.39 91a3.49 3.49 0 0 0 .15.77z" fill="#f7be56"/><path d="m86.37 83.68v-.13l-.13-.15z" fill="#cc773e"/><path d="m87.5 83.34a2.73 2.73 0 0 1 .17 1.17 2.28 2.28 0 0 0 -.17-1.17z" fill="#f7be56"/><path d="m87.56 107a106.06 106.06 0 0 1 -.2-14.81 18.66 18.66 0 0 0 -.26 6.2 30.84 30.84 0 0 1 -.25 7.25 2.29 2.29 0 0 0 0 1.19.72.72 0 0 0 1 .42l-.16-.17z" fill="#f7be56"/><path d="m86.69 90.86v-1.15c.07-1 .15-2.07.26-3.09a5.75 5.75 0 0 0 -.33 1.79 41.15 41.15 0 0 0 -.27 5.78 16.81 16.81 0 0 0 .11 2.36c.06.44.15.88.22 1.32a67.67 67.67 0 0 1 0-7.67z" fill="#f7be56"/><path d="m85.27 82.19c-.78-.4-1.74 0-2.61-.11a5.34 5.34 0 0 1 3.44 1.14l.15.18a2.32 2.32 0 0 0 -.98-1.21z" fill="#f7be56"/><path d="m86.38 83.55a7.37 7.37 0 0 1 .62 1.17 4.1 4.1 0 0 1 .56 2.62c-.11.41-.35.79-.44 1.21a3.66 3.66 0 0 0 .09 1.45l.18 1a10.38 10.38 0 0 1 .33-2.64 6.47 6.47 0 0 0 .15-1.64 7.56 7.56 0 0 0 -1.49-3.46z" fill="#f7be56"/><path d="m84.23 81.79a4.78 4.78 0 0 1 2.1.22 2.43 2.43 0 0 1 1.25 1.33h.07a1.57 1.57 0 0 0 -.22-1.43 1.5 1.5 0 0 0 -.93-.3c-1.88-.16-3.76-.15-5.65-.15h-7.41a90.37 90.37 0 0 0 10.79.33z" fill="#f7be56"/><path d="m84.67 83.25h.29c-.51 0-1-.07-1.53-.09a2.62 2.62 0 0 0 1.24.09z" fill="#f7be56"/><path d="m80.3 83.3a22.94 22.94 0 0 1 3.21-.16c-.64-.19-1.27-.52-1.92-.67a7.41 7.41 0 0 0 -1.59-.12c-2.88 0-5.76.18-8.63.35a31.74 31.74 0 0 0 7.85-.07c-1.56.3-3.12.53-4.68.77l11.06.36a21.68 21.68 0 0 0 -5.3-.46z" fill="#f7be56"/><path d="m62.47 107a107.61 107.61 0 0 0 .2-14.81 18.93 18.93 0 0 1 .26 6.2 30.84 30.84 0 0 0 .25 7.25 2.19 2.19 0 0 1 0 1.19.71.71 0 0 1 -1 .42l.16-.17z" fill="#f7be56"/><path d="m63.34 90.86v-1.15c-.06-1-.14-2.07-.25-3.09a6 6 0 0 1 .33 1.79 42.71 42.71 0 0 1 .27 5.78 16.81 16.81 0 0 1 -.11 2.36c-.06.44-.16.88-.22 1.32a70.09 70.09 0 0 0 0-7.67z" fill="#f7be56"/><path d="m64.75 82.19c.79-.4 1.75 0 2.62-.11a5.34 5.34 0 0 0 -3.44 1.14l-.15.18a2.35 2.35 0 0 1 .97-1.21z" fill="#f7be56"/><path d="m63.65 83.55a7.37 7.37 0 0 0 -.65 1.17 4 4 0 0 0 -.56 2.62c.11.41.34.79.44 1.21a3.85 3.85 0 0 1 -.07 1.45l-.18 1a9.94 9.94 0 0 0 -.32-2.64 6.48 6.48 0 0 1 -.16-1.64 7.58 7.58 0 0 1 1.5-3.46z" fill="#f7be56"/><path d="m65.87 81.79a4.75 4.75 0 0 0 -2.09.22 2.45 2.45 0 0 0 -1.26 1.33h-.06a1.54 1.54 0 0 1 .22-1.43 1.5 1.5 0 0 1 .93-.3c1.87-.16 3.76-.15 5.65-.15h7.4a90.31 90.31 0 0 1 -10.79.33z" fill="#f7be56"/><path d="m65.35 83.25h-.28c.51 0 1-.07 1.52-.09a2.61 2.61 0 0 1 -1.24.09z" fill="#f7be56"/><path d="m69.81 83.3a23.08 23.08 0 0 0 -3.22-.16c.64-.19 1.27-.52 1.93-.67a7.41 7.41 0 0 1 1.56-.12c2.88 0 5.75.18 8.62.35a31.66 31.66 0 0 1 -7.84-.07c1.55.3 3.12.53 4.68.77l-11.06.36a21.68 21.68 0 0 1 5.33-.46z" fill="#f7be56"/></svg>