<svg id="Layer_1" height="512" viewBox="0 0 150 150" width="512" xmlns="http://www.w3.org/2000/svg" data-name="Layer 1"><circle cx="75" cy="75" fill="#709584" r="64"/><g fill="#fcd462"><path d="m45.83 76.16c2.27-.37 4.71 3.12 5.47 7.79s-.46 8.75-2.73 9.12-4.71-3.07-5.46-7.79.46-8.75 2.72-9.12z"/><path d="m105.18 75c-2.26-.37-4.71 3.12-5.46 7.79s.46 8.75 2.72 9.12 4.72-3.12 5.47-7.79-.46-8.75-2.73-9.12z"/><path d="m104 79.56c0 1.62-.07 3.21-.22 4.78a50.21 50.21 0 0 1 -1.16 7.6c-2.11 9.14-6.48 16.87-12.18 21.88a2.65 2.65 0 0 1 -.5.46 26.53 26.53 0 0 1 -4.47 3.07 24.45 24.45 0 0 1 -5.12 2.05c-.46.1-.89.21-1.34.3l-1 .19a24 24 0 0 1 -3.06.22 23.32 23.32 0 0 1 -15.17-5.94 3 3 0 0 1 -.37-.35c-5.49-4.82-9.75-12.18-11.92-20.89a49.1 49.1 0 0 1 -1.46-9.06c-.11-1.42-.18-2.84-.18-4.28 0-1.14 0-2.28.11-3.4s.15-2 .28-3a33.56 33.56 0 0 1 .5-3.36 7.45 7.45 0 0 1 .19-1 48.56 48.56 0 0 1 2.82-9.36l.06-.15h50.34a46 46 0 0 1 2 5.94c.35 1.16.63 2.34.88 3.57.07.34.13.69.18 1 .21 1.1.38 2.22.49 3.36.11.69.17 1.36.22 2.07 0 1.4.08 2.84.08 4.3z"/></g><path d="m43.6 67.89c.7 5.73 1.68 11.1 1.89 14.87a1.86 1.86 0 0 0 1.85 1.76 1.85 1.85 0 0 0 1.84-1.67c.5-5.42.58-17.1 2-23.59a7.7 7.7 0 0 0 -7.58 8.63z" fill="#1e3b47"/><path d="m99.47 64.41-42.88-5.15c10.23 12.41 26.2 11.74 40.41 6.47 2.6 3 3.67 10.87 4.11 17.08a1.85 1.85 0 0 0 3.69 0 79.2 79.2 0 0 1 1.33-9.41 7.7 7.7 0 0 0 -6.66-8.99z" fill="#1e3b47"/><path d="m107.88 69.82h-66c.56-16.73 10.8-34.42 26.24-37.56.44-.09.9-.17 1.35-.24a34.19 34.19 0 0 1 5.42-.43 38 38 0 0 1 5.41.41l1.35.22c16.1 3.01 25.68 20.78 26.23 37.6z" fill="#e56353"/><rect fill="#e56353" height="35.03" rx="1.4" width="10.85" x="69.45" y="29.89"/><path d="m74.88 46.31a9.91 9.91 0 1 0 9.9 9.9 9.9 9.9 0 0 0 -9.9-9.9z" fill="#d15241"/><path d="m74.88 48.85a7.36 7.36 0 1 0 7.36 7.36 7.37 7.37 0 0 0 -7.36-7.36z" fill="#ebf0f3"/><path d="m80.3 32v14.6l1.35-14.4z" fill="#d15241"/><path d="m68.1 32.26 1.35 14.32v-14.58c-.45.09-.91.17-1.35.26z" fill="#d15241"/><path d="m100.59 78.73a164.78 164.78 0 0 0 -25.72-1.61 164.65 164.65 0 0 0 -25.71 1.61 3.05 3.05 0 0 0 -2.59 3v4s.09 6.76 2.59 8.7a23.7 23.7 0 0 0 16.06 4.36 5.5 5.5 0 0 0 4.2-2.46 5.25 5.25 0 0 0 .48-.88c1.11-2.59 2.45-3.33 5-3.33s3.87.74 5 3.33a6.07 6.07 0 0 0 .47.88 5.52 5.52 0 0 0 4.21 2.46 23.7 23.7 0 0 0 16.06-4.36c2.5-1.94 2.59-8.7 2.59-8.7v-4a3.05 3.05 0 0 0 -2.64-3z" fill="#3a556a"/><path d="m71.81 82.73v3.15a5.32 5.32 0 0 1 -.62 2.56c-1.37 2.6-4.74 8.31-7.94 8.11-4.13-.27-13.14-2.16-13.75-7.26a15.81 15.81 0 0 1 .23-5.82 2.6 2.6 0 0 1 2.06-1.92 115.42 115.42 0 0 1 17.37-1.37 2.57 2.57 0 0 1 2.65 2.55z" fill="#27a2db"/><path d="m77.94 82.73v3.15a5.43 5.43 0 0 0 .61 2.56c1.37 2.6 4.75 8.31 7.94 8.11 4.14-.27 13.14-2.16 13.76-7.26a16 16 0 0 0 -.24-5.82 2.59 2.59 0 0 0 -2-1.92 115.42 115.42 0 0 0 -17.37-1.37 2.57 2.57 0 0 0 -2.7 2.55z" fill="#27a2db"/><path d="m41.86 69.82s25.14 15.58 66 0c-22.71-2.82-44.77-3.05-66 0z" fill="#d15241"/><path d="m97.19 99.77a10.6 10.6 0 0 1 -16.12 1.64 21.48 21.48 0 0 1 -4.46-6.35h-3.71a21.48 21.48 0 0 1 -4.46 6.35 10.6 10.6 0 0 1 -16.12-1.64l-5.42-7.83c2.11 9.14 6.48 16.87 12.18 21.88a2.65 2.65 0 0 0 .5.46 26.53 26.53 0 0 0 4.47 3.07 24.37 24.37 0 0 0 5.1 2.07c.46.1.89.21 1.34.3l1 .19a23.82 23.82 0 0 0 3.06.22h.23a24 24 0 0 0 3.06-.22l1-.19c.45-.09.88-.2 1.34-.3a24.37 24.37 0 0 0 5.1-2.07 26.53 26.53 0 0 0 4.47-3.07 2.65 2.65 0 0 0 .5-.46c5.7-5 10.07-12.74 12.18-21.88z" fill="#e1e6e9"/></svg>