<svg height="512pt" viewBox="0 0 512.0015 512" width="512pt" xmlns="http://www.w3.org/2000/svg"><path d="m375.984375 512h-239.964844c-22.960937 0-41.574219-18.609375-41.574219-41.570312v-428.855469c0-22.960938 18.613282-41.574219 41.574219-41.574219h239.960938c22.960937 0 41.570312 18.613281 41.570312 41.574219v428.851562c.003907 22.964844-18.609375 41.574219-41.566406 41.574219zm0 0" fill="#6770e6"/><path d="m375.984375 0h-239.964844c-22.960937 0-41.574219 18.613281-41.574219 41.574219v14c0-22.960938 18.613282-41.574219 41.574219-41.574219h239.960938c22.960937 0 41.570312 18.613281 41.570312 41.574219v-14c.003907-22.960938-18.609375-41.574219-41.566406-41.574219zm0 0" fill="#8f95e6"/><path d="m136.019531 512h239.960938c22.960937 0 41.570312-18.609375 41.570312-41.570312v-14c0 22.960937-18.609375 41.570312-41.570312 41.570312h-239.960938c-22.960937 0-41.574219-18.609375-41.574219-41.570312v14c0 22.960937 18.613282 41.570312 41.574219 41.570312zm0 0" fill="#5861c7"/><path d="m136.019531 492c-11.894531 0-21.574219-9.675781-21.574219-21.570312v-402.855469c0-11.894531 9.679688-21.574219 21.574219-21.574219h239.960938c11.894531 0 21.570312 9.679688 21.570312 21.574219v402.855469c0 11.894531-9.675781 21.570312-21.570312 21.570312zm0 0" fill="#a1f1fc"/><path d="m297.273438 31.828125h-112.546876c-4.96875 0-9-4.03125-9-9s4.03125-9 9-9h112.546876c4.972656 0 9 4.03125 9 9s-4.027344 9-9 9zm0 0" fill="#5861c7"/><path d="m336.273438 22.828125c0 4.972656-4.027344 9-9 9-4.96875 0-9-4.027344-9-9 0-4.96875 4.03125-9 9-9 4.972656 0 9 4.03125 9 9zm0 0" fill="#5861c7"/><path d="m365.515625 257.824219-48.472656-48.304688c-1.214844-1.210937-2.859375-1.890625-4.570313-1.890625h-23.546875c0 20.121094-16.308593 36.429688-36.425781 36.429688-20.121094 0-36.429688-16.308594-36.429688-36.429688h-23.539062c-1.722656 0-3.367188.6875-4.582031 1.902344l-48.207031 48.292969c-1.039063 1.035156-1.039063 2.71875 0 3.757812l25.285156 25.285157c1.039062 1.039062 2.71875 1.039062 3.757812 0l21.0625-21.0625v100.875c0 1.46875 1.1875 2.65625 2.65625 2.65625h119.988282c1.464843 0 2.65625-1.1875 2.65625-2.65625v-101.140626l21.324218 21.328126c1.039063 1.039062 2.722656 1.039062 3.761719 0l25.28125-25.285157c1.035156-1.039062 1.035156-2.722656 0-3.757812zm0 0" fill="#ff8354"/><path d="m288.925781 207.628906c0 20.121094-16.308593 36.429688-36.429687 36.429688s-36.425782-16.308594-36.425782-36.429688h7.832032c0 15.796875 12.800781 28.597656 28.59375 28.597656 15.792968 0 28.597656-12.804687 28.597656-28.597656zm0 0" fill="#6770e6"/><path d="m281.09375 207.628906c0 15.796875-12.804688 28.597656-28.597656 28.597656-15.792969 0-28.59375-12.804687-28.59375-28.597656zm0 0" fill="#e0734a"/><g fill="#6770e6"><path d="m315.148438 366.675781v-5.171875h-125.300782v5.171875c0 1.46875 1.1875 2.660157 2.65625 2.660157h119.988282c1.464843 0 2.65625-1.191407 2.65625-2.660157zm0 0"/><path d="m365.527344 257.835938-3.660156-3.660157-29.027344 29.027344 3.65625 3.660156c1.039062 1.039063 2.71875 1.039063 3.757812 0l25.273438-25.273437c1.039062-1.035156 1.039062-2.71875 0-3.753906zm0 0"/><path d="m139.742188 257.835938 3.660156-3.660157 29.027344 29.027344-3.660157 3.660156c-1.035156 1.039063-2.71875 1.039063-3.757812 0l-25.269531-25.269531c-1.039063-1.039062-1.039063-2.722656 0-3.757812zm0 0"/></g><path d="m128.84375 46h45.597656l-12.03125 58.632812h-60.40625l15.476563-50.242187c1.535156-4.988281 6.144531-8.390625 11.363281-8.390625zm0 0" fill="#ff8354"/><path d="m174.441406 46h54.378906l-6.015624 58.632812h-60.390626zm0 0" fill="#fff7f2"/><path d="m228.820312 46h54.375l6.015626 58.632812h-66.40625zm0 0" fill="#ff8354"/><path d="m283.195312 46h54.378907l12.03125 58.632812h-60.394531zm0 0" fill="#fff7f2"/><path d="m337.574219 46h45.59375c5.21875 0 9.832031 3.40625 11.363281 8.398438l15.449219 50.234374h-60.378907zm0 0" fill="#ff8354"/><path d="m132.222656 142.949219h-.03125c-16.671875 0-30.1875-13.515625-30.1875-30.1875v-8.128907h60.40625v8.128907c.003906 16.671875-13.511718 30.1875-30.1875 30.1875zm0 0" fill="#e0734a"/><path d="m192.632812 142.949219h-.03125c-16.671874 0-30.1875-13.515625-30.1875-30.1875v-8.128907h60.40625v8.128907c0 16.671875-13.515624 30.1875-30.1875 30.1875zm0 0" fill="#ffefe4"/><path d="m319.433594 142.949219h-.03125c-16.675782 0-30.191406-13.515625-30.191406-30.1875v-8.128907h60.410156v8.128907c0 16.671875-13.515625 30.1875-30.1875 30.1875zm0 0" fill="#ffefe4"/><path d="m379.808594 142.949219c-16.671875 0-30.1875-13.515625-30.1875-30.1875v-8.128907h60.378906v8.128907c-.003906 16.671875-13.515625 30.1875-30.191406 30.1875zm0 0" fill="#e0734a"/><path d="m259.023438 142.949219h-6.015626c-16.671874 0-30.1875-13.515625-30.1875-30.1875v-8.128907h66.390626v8.128907c0 16.671875-13.515626 30.1875-30.1875 30.1875zm0 0" fill="#e0734a"/><path d="m455.679688 346.417969c-7.5 0-13.582032 6.082031-13.582032 13.582031v-12.636719c0-7.5-6.082031-13.582031-13.582031-13.582031s-13.582031 6.082031-13.582031 13.582031v-9.152343c0-7.503907-6.082032-13.582032-13.582032-13.582032s-13.582031 6.082032-13.582031 13.582032v-83.871094c0-7.5-6.082031-13.582032-13.582031-13.582032s-13.582031 6.082032-13.582031 13.582032v105.074218c-1.011719-8.175781-7.992188-14.640624-16.59375-14.640624-1.308594 0-2.484375.804687-2.957031 2.023437l-12.335938 31.878906c-1.835938 4.746094-2.777344 9.796875-2.777344 14.886719v35.171875c0 10.421875 3.941406 20.453125 11.035156 28.085937l29.613282 31.851563v23.328125h84.65625v-36.148438h.609375l12.933593-25.804687c2.945313-5.867187 4.476563-12.347656 4.476563-18.914063v-71.132812c-.003906-7.5-6.085937-13.582031-13.585937-13.582031zm0 0" fill="#ffefe4"/><path d="m451.242188 511.441406v-15.570312h-84.9375l.28125.300781v15.269531zm0 0" fill="#ffe4d1"/><path d="m1.695312 291.96875 38.082032 29.910156c2.910156 2.289063 7.175781.214844 7.175781-3.484375v-17.960937h17.832031c6.601563 0 11.953125-5.351563 11.953125-11.953125 0-3.300781-1.335937-6.289063-3.5-8.453125-2.164062-2.164063-5.152343-3.5-8.453125-3.503906h-17.832031v-17.957032c0-3.699218-4.265625-5.773437-7.175781-3.488281l-38.082032 29.917969c-2.261718 1.773437-2.261718 5.199218 0 6.972656zm0 0" fill="#6770e6"/><path d="m510.304688 291.96875-38.082032 29.910156c-2.910156 2.289063-7.175781.214844-7.175781-3.484375v-17.960937h-17.832031c-6.601563 0-11.953125-5.351563-11.953125-11.953125 0-3.300781 1.339843-6.289063 3.503906-8.453125 2.164063-2.164063 5.152344-3.5 8.449219-3.503906h17.832031v-17.957032c0-3.699218 4.265625-5.773437 7.175781-3.488281l38.082032 29.914063c2.261718 1.777343 2.261718 5.203124 0 6.976562zm0 0" fill="#6770e6"/><path d="m1.695312 291.96875 1.925782 1.511719 36.15625-28.398438c2.910156-2.289062 7.175781-.214843 7.175781 3.488281v17.957032h17.832031c3.300782 0 6.289063 1.335937 8.453125 3.5.988281.992187 1.796875 2.164062 2.390625 3.453125.707032-1.523438 1.109375-3.210938 1.109375-5 0-3.300781-1.335937-6.289063-3.5-8.453125-2.164062-2.164063-5.152343-3.5-8.453125-3.5h-17.832031v-17.957032c0-3.703124-4.265625-5.773437-7.175781-3.488281l-38.082032 29.914063c-2.257812 1.773437-2.257812 5.199218 0 6.972656zm0 0" fill="#8f95e6"/><path d="m438.765625 290.03125c2.164063-2.164062 5.152344-3.5 8.453125-3.503906h17.832031v-17.957032c0-3.699218 4.265625-5.773437 7.171875-3.488281l36.15625 28.402344 1.925782-1.511719c2.261718-1.777344 2.261718-5.203125 0-6.976562l-38.082032-29.910156c-2.90625-2.289063-7.171875-.214844-7.171875 3.488281v17.957031h-17.832031c-3.300781 0-6.289062 1.335938-8.453125 3.5s-3.5 5.152344-3.5 8.453125c0 1.789063.402344 3.476563 1.105469 5 .59375-1.292969 1.402344-2.460937 2.394531-3.453125zm0 0" fill="#8f95e6"/></svg>