<?xml version="1.0" encoding="iso-8859-1"?>
<!-- Generator: Adobe Illustrator 19.0.0, SVG Export Plug-In . SVG Version: 6.00 Build 0)  -->
<svg version="1.1" id="Capa_1" xmlns="http://www.w3.org/2000/svg" xmlns:xlink="http://www.w3.org/1999/xlink" x="0px" y="0px"
	 viewBox="0 0 384 384" style="enable-background:new 0 0 384 384;" xml:space="preserve">
<circle style="fill:#334D5C;" cx="192" cy="192" r="192"/>
<path style="opacity:0.1;enable-background:new    ;" d="M371.486,260.206l-77.806-77.777l-0.48-0.52
	c-2.48-2.68-5.04-5.24-7.68-7.64c-27.6-25.84-60.56-38.76-93.52-38.76c-39.8,0-79.6,18.84-110,56.48c2.28,2.8,4.6,5.52,6.96,8.12
	l0.32,0.32c3.48,3.84,7.08,7.4,10.76,10.76l160.284,160.25C311.425,351.969,352.049,311.323,371.486,260.206z"/>
<path style="fill:#FFFFFF;" d="M302,192c-60.752-75.277-159.248-75.277-220,0v0l0,0C142.752,267.277,241.248,267.277,302,192
	L302,192L302,192z"/>
<circle style="fill:#27A2DB;" cx="192" cy="192" r="45.28"/>
<circle style="fill:#64798A;" cx="192" cy="192" r="17.052"/>
<g>
	<circle style="fill:#FFFFFF;" cx="203.284" cy="180.72" r="5.768"/>
	<circle style="fill:#FFFFFF;" cx="174.948" cy="192" r="3.504"/>
</g>
<g>
</g>
<g>
</g>
<g>
</g>
<g>
</g>
<g>
</g>
<g>
</g>
<g>
</g>
<g>
</g>
<g>
</g>
<g>
</g>
<g>
</g>
<g>
</g>
<g>
</g>
<g>
</g>
<g>
</g>
</svg>
