<svg height="512pt" viewBox="0 0 512.002 512" width="512pt" xmlns="http://www.w3.org/2000/svg"><path d="m447.890625 512h-402.859375c-24.871094 0-45.03125-20.160156-45.03125-45.03125v-264.296875c0-24.867187 20.160156-45.03125 45.03125-45.03125h402.859375c24.871094 0 45.03125 20.164063 45.03125 45.03125v264.296875c0 24.871094-20.160156 45.03125-45.03125 45.03125zm0 0" fill="#b665c2"/><path d="m425.890625 492h-380.859375c-24.871094 0-45.03125-20.160156-45.03125-45.03125v-224.296875c0-24.867187 20.160156-45.03125 45.03125-45.03125h380.859375c24.871094 0 45.03125 20.164063 45.03125 45.03125v224.296875c0 24.871094-20.160156 45.03125-45.03125 45.03125zm0 0" fill="#69ebfc"/><path d="m373.601562 157.640625c0 38.148437-30.921874 69.070313-69.070312 69.070313-38.144531 0-69.070312-30.921876-69.070312-69.070313 0-38.144531 30.925781-69.070313 69.070312-69.070313 38.148438 0 69.070312 30.925782 69.070312 69.070313zm0 0" fill="#69ebfc"/><path d="m352.351562 157.640625c0 26.410156-21.410156 47.820313-47.820312 47.820313s-47.816406-21.410157-47.816406-47.820313 21.40625-47.816406 47.816406-47.816406 47.820312 21.40625 47.820312 47.816406zm0 0" fill="#5fd4e3"/><path d="m301.03125 189.308594c-4.519531-.664063-8.542969-2.410156-12.074219-5.246094-2.058593-1.65625-3.769531-3.726562-5.140625-6.222656-1.660156-3.023438-.363281-6.828125 2.832032-8.132813 2.539062-1.039062 5.515624-.15625 6.9375 2.195313.453124.753906.976562 1.476562 1.570312 2.164062 1.625 1.902344 3.582031 3.214844 5.875 3.933594v-17.183594l-.808594-.363281c-2.230468-.84375-4.328125-1.835937-6.285156-2.984375-1.960938-1.144531-3.679688-2.472656-5.15625-3.980469-1.484375-1.503906-2.660156-3.210937-3.527344-5.109375-.878906-1.902344-1.320312-4.027344-1.320312-6.378906 0-2.167969.394531-4.222656 1.175781-6.152344.789063-1.925781 1.914063-3.648437 3.398437-5.152344 1.476563-1.507812 3.265626-2.761718 5.382813-3.753906 2.105469-.996094 4.484375-1.640625 7.136719-1.945312v-3.753906c0-2.226563 1.800781-4.027344 4.027344-4.027344 2.222656 0 4.023437 1.800781 4.023437 4.027344v3.933593c2.414063.359375 4.515625.996094 6.289063 1.902344 1.78125.902344 3.304687 1.957031 4.617187 3.121094.503906.445312.992187.980469 1.453125 1.554687 2.285156 2.859375 1.121094 7.136719-2.21875 8.628906-2.292969 1.023438-4.929688.382813-6.613281-1.476562-.886719-.972656-2.050781-1.929688-3.527344-2.605469v16.191407c2.601563 1.089843 4.945313 2.203124 7.058594 3.351562 2.109375 1.144531 3.917969 2.441406 5.425781 3.890625 1.511719 1.441406 2.652344 3.089844 3.433594 4.925781.792968 1.84375 1.179687 3.96875 1.179687 6.378906 0 2.714844-.46875 5.128907-1.398437 7.234376-.9375 2.113281-2.183594 3.921874-3.757813 5.425781-1.570312 1.511719-3.390625 2.71875-5.46875 3.625-2.082031.902343-4.242187 1.535156-6.472656 1.894531v3.933594c0 2.226562-1.800781 4.027344-4.027344 4.027344-2.222656 0-4.023437-1.800782-4.023437-4.027344v-3.84375zm-5.960938-47.3125c0 1.449218.464844 2.699218 1.394532 3.753906.941406 1.058594 2.460937 2.132812 4.566406 3.214844v-13.207032c-1.808594.484376-3.246094 1.265626-4.335938 2.347657-1.089843 1.089843-1.625 2.386719-1.625 3.890625zm19.539063 29.132812c0-1.570312-.421875-2.867187-1.273437-3.890625-.84375-1.027343-2.257813-2.050781-4.25-3.078125v13.835938c1.632812-.539063 2.957031-1.398438 3.984374-2.578125 1.019532-1.171875 1.539063-2.605469 1.539063-4.289063zm0 0" fill="#a1f1fc"/><path d="m304.53125 98.570312c36.464844 0 66.308594 28.261719 68.871094 64.070313.117187-1.652344.199218-3.316406.199218-5 0-38.144531-30.921874-69.070313-69.070312-69.070313-38.144531 0-69.070312 30.925782-69.070312 69.070313 0 1.683594.082031 3.347656.199218 5 2.566406-35.808594 32.40625-64.070313 68.871094-64.070313zm0 0" fill="#a1f1fc"/><path d="m403.890625 512h-358.859375c-24.871094 0-45.03125-20.160156-45.03125-45.03125v-264.296875c0-24.867187 20.160156-45.03125 45.03125-45.03125h358.859375c24.871094 0 45.03125 20.164063 45.03125 45.03125v264.296875c0 24.871094-20.160156 45.03125-45.03125 45.03125zm0 0" fill="#d476e2"/><path d="m403.890625 157.640625h-358.859375c-24.871094 0-45.03125 20.164063-45.03125 45.03125v14c0-24.867187 20.160156-45.03125 45.03125-45.03125h358.859375c24.871094 0 45.03125 20.164063 45.03125 45.03125v-14c0-24.867187-20.160156-45.03125-45.03125-45.03125zm0 0" fill="#ea82fa"/><path d="m45.03125 512h358.859375c24.871094 0 45.03125-20.160156 45.03125-45.03125v-14c0 24.871094-20.160156 45.03125-45.03125 45.03125h-358.859375c-24.871094 0-45.03125-20.160156-45.03125-45.03125v14c0 24.871094 20.160156 45.03125 45.03125 45.03125zm0 0" fill="#b665c2"/><path d="m409.132812 389.335938h78.296876c13.570312 0 24.574218-11 24.574218-24.574219v-59.882813c0-13.570312-11.003906-24.574218-24.574218-24.574218h-78.296876c-30.109374 0-54.515624 24.410156-54.515624 54.515624 0 30.109376 24.40625 54.515626 54.515624 54.515626zm0 0" fill="#ea82fa"/><path d="m438.761719 334.820312c0 17.796876-14.425781 32.21875-32.222657 32.21875-17.792968 0-32.21875-14.421874-32.21875-32.21875 0-17.792968 14.425782-32.21875 32.21875-32.21875 17.796876 0 32.222657 14.425782 32.222657 32.21875zm0 0" fill="#69ebfc"/><path d="m222.640625 69.070312c0 38.148438-30.925781 69.070313-69.070313 69.070313-38.148437 0-69.070312-30.921875-69.070312-69.070313 0-38.144531 30.921875-69.070312 69.070312-69.070312 38.144532 0 69.070313 30.925781 69.070313 69.070312zm0 0" fill="#69ebfc"/><path d="m153.570312 10c36.464844 0 66.304688 28.261719 68.871094 64.070312.117188-1.652343.199219-3.316406.199219-5 0-38.144531-30.925781-69.070312-69.070313-69.070312-38.144531 0-69.070312 30.925781-69.070312 69.070312 0 1.683594.082031 3.347657.199219 5 2.566406-35.808593 32.40625-64.070312 68.871093-64.070312zm0 0" fill="#a1f1fc"/><path d="m201.386719 69.070312c0 26.410157-21.40625 47.820313-47.816407 47.820313-26.410156 0-47.816406-21.410156-47.816406-47.820313 0-26.410156 21.40625-47.816406 47.816406-47.816406 26.410157 0 47.816407 21.40625 47.816407 47.816406zm0 0" fill="#5fd4e3"/><path d="m150.070312 100.738281c-4.519531-.664062-8.542968-2.410156-12.074218-5.246093-2.054688-1.65625-3.769532-3.726563-5.136719-6.222657-1.660156-3.023437-.367187-6.828125 2.828125-8.132812 2.539062-1.039063 5.519531-.15625 6.9375 2.195312.453125.753907.980469 1.476563 1.570312 2.164063 1.625 1.902344 3.582032 3.214844 5.875 3.933594v-17.183594l-.808593-.363282c-2.230469-.84375-4.328125-1.835937-6.285157-2.984374-1.957031-1.144532-3.679687-2.472657-5.15625-3.980469-1.480468-1.503907-2.660156-3.207031-3.527343-5.109375-.878907-1.902344-1.320313-4.027344-1.320313-6.378906 0-2.167969.398438-4.21875 1.175782-6.152344.792968-1.925782 1.914062-3.644532 3.398437-5.152344 1.476563-1.507812 3.265625-2.761719 5.382813-3.753906 2.109374-.996094 4.484374-1.640625 7.136718-1.945313v-3.753906c0-2.222656 1.804688-4.023437 4.027344-4.023437s4.027344 1.800781 4.027344 4.023437v3.933594c2.414062.363281 4.511718.996093 6.285156 1.902343 1.78125.90625 3.304688 1.960938 4.617188 3.125.503906.445313.992187.976563 1.453124 1.554688 2.285157 2.859375 1.125 7.136719-2.21875 8.628906-2.292968 1.019532-4.929687.378906-6.613281-1.476562-.882812-.976563-2.046875-1.933594-3.527343-2.605469v16.191406c2.601562 1.085938 4.945312 2.203125 7.0625 3.347657 2.105468 1.148437 3.914062 2.445312 5.425781 3.890624 1.507812 1.445313 2.652343 3.089844 3.433593 4.925782.789063 1.84375 1.175782 3.96875 1.175782 6.382812 0 2.710938-.46875 5.125-1.398438 7.234375-.9375 2.113281-2.183594 3.921875-3.757812 5.425781-1.570313 1.511719-3.386719 2.71875-5.46875 3.621094-2.078125.90625-4.242188 1.535156-6.472656 1.898438v3.933594c0 2.222656-1.800782 4.023437-4.023438 4.023437-2.226562 0-4.027344-1.800781-4.027344-4.023437v-3.847657zm-5.960937-47.3125c0 1.449219.464844 2.703125 1.398437 3.753907.9375 1.058593 2.457032 2.132812 4.5625 3.214843v-13.207031c-1.804687.484375-3.246093 1.265625-4.335937 2.347656-1.089844 1.09375-1.625 2.386719-1.625 3.890625zm19.535156 29.132813c0-1.570313-.421875-2.867188-1.273437-3.890625-.839844-1.027344-2.253906-2.050781-4.25-3.078125v13.835937c1.636718-.539062 2.960937-1.398437 3.988281-2.578125 1.019531-1.171875 1.535156-2.605468 1.535156-4.289062zm0 0" fill="#a1f1fc"/></svg>