<svg height="511pt" viewBox="0 0 511 511.99786" width="511pt" xmlns="http://www.w3.org/2000/svg"><path d="m279.484375 15.511719c10.285156-25.339844 48-17.839844 47.800781 9.507812-.160156 22.277344 26.84375 33.464844 42.480469 17.597657 19.199219-19.476563 51.171875 1.886718 40.523437 27.074218-8.675781 20.523438 11.992188 41.1875 32.511719 32.511719 25.191407-10.644531 46.554688 21.324219 27.074219 40.523437-15.863281 15.636719-4.679688 42.640626 17.597656 42.480469 27.347656-.199219 34.847656 37.515625 9.507813 47.800781-20.644531 8.375-20.644531 37.601563 0 45.980469 25.339843 10.28125 17.839843 47.996094-9.507813 47.796875-22.277344-.160156-33.460937 26.84375-17.597656 42.480469 19.480469 19.199219-1.886719 51.171875-27.074219 40.523437-20.519531-8.675781-41.1875 11.992188-32.511719 32.511719 10.648438 25.191407-21.324218 46.554688-40.523437 27.074219-15.636719-15.863281-42.640625-4.679688-42.480469 17.597656.199219 27.347656-37.515625 34.851563-47.800781 9.507813-8.375-20.640625-37.601563-20.640625-45.980469 0-10.28125 25.34375-47.996094 17.839843-47.796875-9.507813.160157-22.277344-26.84375-33.460937-42.480469-17.597656-19.199218 19.480469-51.171874-1.882812-40.523437-27.074219 8.675781-20.519531-11.992187-41.1875-32.511719-32.511719-25.191406 10.648438-46.554687-21.324218-27.074218-40.523437 15.863281-15.636719 4.679687-42.640625-17.597657-42.480469-27.347656.199219-34.851562-37.515625-9.507812-47.796875 20.640625-8.378906 20.640625-37.605469 0-45.980469-25.34375-10.285156-17.839844-48 9.507812-47.800781 22.277344.160157 33.460938-26.84375 17.597657-42.480469-19.480469-19.199218 1.882812-51.171874 27.074218-40.523437 20.519532 8.675781 41.1875-11.992187 32.511719-32.511719-10.648437-25.191406 21.324219-46.550781 40.523437-27.074218 15.636719 15.867187 42.640626 4.679687 42.480469-17.597657-.199219-27.347656 37.515625-34.847656 47.796875-9.507812 8.378906 20.644531 37.605469 20.644531 45.980469 0zm0 0" fill="#ff8354"/><g fill="#e0734a"><path d="m70.191406 395.792969c-15.582031 6.585937-29.6875-3.136719-33.582031-16.050781-5.683594 18.25 12.609375 38.914062 33.582031 30.050781 14.710938-6.21875 29.5 2.648437 33.492188 15.726562 5.800781-19.542969-13.902344-38.007812-33.492188-29.726562zm0 0"/><path d="m442.800781 395.792969c-19.589843-8.28125-39.296875 10.183593-33.492187 29.726562 3.992187-13.078125 18.777344-21.945312 33.492187-15.726562 20.972657 8.863281 39.265625-11.800781 33.582031-30.050781-3.898437 12.914062-18 22.636718-33.582031 16.050781zm0 0"/><path d="m369.765625 455.382812c-15.636719-15.867187-42.640625-4.683593-42.480469 17.59375.199219 27.347657-37.515625 34.851563-47.800781 9.507813-8.375-20.640625-37.601563-20.640625-45.980469 0-10.28125 25.34375-47.996094 17.839844-47.796875-9.507813.160157-22.277343-26.84375-33.460937-42.480469-17.59375-14.589843 14.796876-36.53125 6.011719-41.570312-10.109374-7.066406 23.847656 23.132812 42.816406 41.570312 24.109374 15.636719-15.867187 42.640626-4.683593 42.480469 17.59375-.199219 27.347657 37.515625 34.851563 47.796875 9.507813 8.378906-20.640625 37.605469-20.640625 45.980469 0 10.285156 25.34375 48 17.839844 47.800781-9.507813-.160156-22.277343 26.84375-33.460937 42.480469-17.59375 18.4375 18.703126 48.636719-.261718 41.566406-24.109374-5.035156 16.121093-26.976562 24.90625-41.566406 10.109374zm0 0"/></g><path d="m143.226562 56.617188c15.636719 15.867187 42.640626 4.679687 42.480469-17.597657-.199219-27.347656 37.515625-34.847656 47.796875-9.507812 8.378906 20.644531 37.605469 20.644531 45.980469 0 10.285156-25.339844 48-17.839844 47.800781 9.507812-.160156 22.277344 26.84375 33.464844 42.480469 17.597657 14.589844-14.800782 36.53125-6.015626 41.566406 10.105468 7.070313-23.847656-23.128906-42.8125-41.566406-24.105468-15.636719 15.867187-42.640625 4.679687-42.480469-17.597657.199219-27.347656-37.515625-34.847656-47.800781-9.507812-8.375 20.644531-37.601563 20.644531-45.980469 0-10.28125-25.339844-47.996094-17.839844-47.796875 9.507812.160157 22.277344-26.84375 33.464844-42.480469 17.597657-18.4375-18.707032-48.636718.257812-41.570312 24.105468 5.039062-16.121094 26.980469-24.90625 41.570312-10.105468zm0 0" fill="#ffac8c"/><path d="m70.191406 116.203125c19.589844 8.285156 39.292969-10.179687 33.492188-29.726563-3.992188 13.082032-18.78125 21.949219-33.492188 15.726563-20.972656-8.863281-39.265625 11.804687-33.582031 30.054687 3.894531-12.914062 18-22.640624 33.582031-16.054687zm0 0" fill="#ffac8c"/><path d="m442.800781 116.203125c15.582031-6.585937 29.683594 3.136719 33.582031 16.054687 5.683594-18.25-12.609374-38.917968-33.582031-30.054687-14.714843 6.222656-29.5-2.644531-33.492187-15.726563-5.804688 19.546876 13.902344 38.011719 33.492187 29.726563zm0 0" fill="#ffac8c"/><path d="m447.980469 256c0 105.753906-85.730469 191.484375-191.484375 191.484375s-191.484375-85.730469-191.484375-191.484375c0-105.757812 85.730469-191.488281 191.484375-191.488281s191.484375 85.730469 191.484375 191.488281zm0 0" fill="#e0734a"/><path d="m170.285156 218.605469h38.425782v125.730469h-38.425782zm0 0" fill="#69ebfc"/><path d="m170.285156 361.257812h-52.640625v-159.570312h52.640625zm0 0" fill="#6770e6"/><path d="m412.386719 253.230469c0-10.066407-8.160157-18.222657-18.222657-18.222657h-4.578124v-.261718c8.652343-1.417969 15.265624-8.90625 15.265624-17.960938 0-9.054687-6.613281-16.542968-15.265624-17.960937v-.261719h-83.378907l9.765625-26.648438c2.847656-7.777343 3.816406-16.125 2.820313-24.347656l-.722657-5.941406c-1.539062-12.707031-12.324218-22.265625-25.125-22.265625-4.164062 0-7.539062 3.378906-7.539062 7.542969v4.679687c0 10.4375-2.554688 20.71875-7.441406 29.941407l-8.972656 16.949218c-3.886719 7.335938-9.160157 13.84375-15.53125 19.164063l-37.46875 31.285156-7.28125 3.648437v91.453126l19.9375 10.5c12.234374 6.441406 25.847656 9.804687 39.671874 9.804687h107.621094c10.0625 0 18.222656-8.15625 18.222656-18.222656 0-9.851563-7.832031-17.859375-17.605468-18.1875l.007812-.03125h10.066406c10.0625 0 18.222657-8.160157 18.222657-18.222657s-8.160157-18.222656-18.222657-18.222656h7.53125c10.0625.007813 18.222657-8.148437 18.222657-18.210937zm0 0" fill="#ffefe4"/></svg>