<svg id="Layer_1" height="512" viewBox="0 0 150 150" width="512" xmlns="http://www.w3.org/2000/svg" data-name="Layer 1"><circle cx="75" cy="75" fill="#21b3a9" r="64"/><path d="m96.32 88.3a8 8 0 0 0 -1.32 2.13l1 1.15a1.37 1.37 0 0 1 -.16 1.93l-1.15 1 1.2 1.42a1.37 1.37 0 0 1 -.42 2.07l-1 .59c.56 4 .88 7.14-1.87 9.67-2.16 2-12.63-.14-12.63-.14l-.07.26 2.72 7.35h-30.62l2.66-8.7a18.63 18.63 0 0 0 -1.26-14l-5.49-10.66 20.61-23.23h23.68a49.14 49.14 0 0 1 1.91 14.86c-.23 7.57 9.7 8.43 7.06 12.8-.63 1.03-4.01.57-4.85 1.5z" fill="#fcd462"/><path d="m39.8 70.61c.48-3.19 1.88-10.6 3.59-13.34a48 48 0 0 1 5.44-7.58 15.77 15.77 0 0 1 14.45-4.79c6.29 1.22 15.33-1 22.72 2a12.86 12.86 0 0 1 7.47 7.21 7.37 7.37 0 0 1 .38 2.35s4.16 4.54-6 8.94c-2.85 1.25-10.25.54-13.09 1.7-5.14 2.12-6.1 7-7.2 12.45-.67 3.35 0 7.59.25 11.23l-4 1.7c-.9-2.88-1.5-7.33-1-9.28-1.63-.55-4.19 1.69-4.77 3.31-.28.76-.8 11.23-.88 12-.25 2.54-2.08 2.25-4.32 2.23a5.4 5.4 0 0 1 -4.93-3.3l-4.75-11.17a50.1 50.1 0 0 1 -2.89-8.83 19 19 0 0 1 -.47-6.83z" fill="#3a556a"/><path d="m59.12 81c2.14-.31 4.3 2.25 4.81 5.73s-.81 6.55-3 6.87-4.3-2.25-4.81-5.73.88-6.57 3-6.87z" fill="#fcd462"/><path d="m93.22 49.48c-1.22.12-1.92 3.21-1.55 6.9s1.66 6.57 2.89 6.45 1.92-3.21 1.55-6.9-1.66-6.57-2.89-6.45z" fill="#ebf0f3"/><path d="m110.69 65.06-17.13-1.84s.75-28.78-26.8-28.91c-26.4-.11-31.34 18.69-28.27 41.36a3.18 3.18 0 0 0 3.37 2.75s44.66-7.42 45.63-7.55l23.18-2.2a1.81 1.81 0 0 0 0-3.61z" fill="#e56353"/><path d="m93.45 49a.53.53 0 0 0 -.59-.45l-2.61.34 2 15 2.6-.35a.51.51 0 0 0 .45-.58z" fill="#3a556a"/></svg>