<svg height="512pt" viewBox="0 0 512.00039 512" width="512pt" xmlns="http://www.w3.org/2000/svg"><path d="m25.371094 512h399.253906c14.011719 0 25.371094-11.359375 25.371094-25.371094v-433.835937c0-14.011719-11.359375-25.371094-25.371094-25.371094h-399.253906c-14.011719 0-25.371094 11.359375-25.371094 25.371094v433.835937c0 14.011719 11.359375 25.371094 25.371094 25.371094zm0 0" fill="#ffefe4"/><path d="m424.628906 27.421875h-399.257812c-14.011719 0-25.371094 11.359375-25.371094 25.371094v10.625c0-14.015625 11.359375-25.375 25.371094-25.375h399.257812c14.011719 0 25.371094 11.359375 25.371094 25.375v-10.625c0-14.011719-11.359375-25.371094-25.371094-25.371094zm0 0" fill="#fff7f2"/><path d="m424.628906 490.757812h-399.257812c-14.011719 0-25.371094-11.363281-25.371094-25.375v21.242188c0 14.015625 11.359375 25.375 25.371094 25.375h399.257812c14.011719 0 25.371094-11.359375 25.371094-25.371094v-21.246094c0 14.011719-11.359375 25.375-25.371094 25.375zm0 0" fill="#edd4c2"/><path d="m359.8125 340.449219h-200.703125c-5.800781 0-10.496094-4.699219-10.496094-10.496094s4.699219-10.496094 10.496094-10.496094h200.703125c5.796875 0 10.496094 4.699219 10.496094 10.496094s-4.699219 10.496094-10.496094 10.496094zm0 0" fill="#6770e6"/><path d="m359.8125 425.050781h-200.703125c-5.800781 0-10.496094-4.699219-10.496094-10.496093 0-5.796876 4.699219-10.496094 10.496094-10.496094h200.703125c5.796875 0 10.496094 4.699218 10.496094 10.496094 0 5.796874-4.699219 10.496093-10.496094 10.496093zm0 0" fill="#6770e6"/><path d="m66.855469 52.898438c0 6.335937-5.136719 11.476562-11.476563 11.476562-6.335937 0-11.476562-5.140625-11.476562-11.476562 0-6.339844 5.140625-11.476563 11.476562-11.476563 6.339844 0 11.476563 5.136719 11.476563 11.476563zm0 0" fill="#edd4c2"/><path d="m55.378906 56.085938c-3.800781 0-6.882812-3.082032-6.882812-6.882813v-42.320313c0-3.800781 3.082031-6.882812 6.882812-6.882812 3.800782 0 6.882813 3.082031 6.882813 6.882812v42.320313c0 3.800781-3.078125 6.882813-6.882813 6.882813zm0 0" fill="#6770e6"/><path d="m55.378906 0c-3.800781 0-6.882812 3.082031-6.882812 6.882812v10.621094c0-3.800781 3.082031-6.882812 6.882812-6.882812 3.800782 0 6.882813 3.082031 6.882813 6.882812v-10.621094c0-3.800781-3.078125-6.882812-6.882813-6.882812zm0 0" fill="#8f95e6"/><path d="m151.664062 52.898438c0 6.335937-5.136718 11.476562-11.472656 11.476562-6.339844 0-11.476562-5.140625-11.476562-11.476562 0-6.339844 5.136718-11.476563 11.476562-11.476563 6.335938 0 11.472656 5.136719 11.472656 11.476563zm0 0" fill="#edd4c2"/><path d="m140.191406 56.085938c-3.800781 0-6.882812-3.082032-6.882812-6.882813v-42.320313c0-3.800781 3.082031-6.882812 6.882812-6.882812 3.796875 0 6.878906 3.082031 6.878906 6.882812v42.320313c0 3.800781-3.078124 6.882813-6.878906 6.882813zm0 0" fill="#6770e6"/><path d="m140.191406 0c-3.800781 0-6.882812 3.082031-6.882812 6.882812v10.621094c0-3.800781 3.078125-6.882812 6.882812-6.882812 3.796875 0 6.878906 3.082031 6.878906 6.882812v-10.621094c0-3.800781-3.082031-6.882812-6.878906-6.882812zm0 0" fill="#8f95e6"/><path d="m321.285156 52.898438c0 6.335937-5.136718 11.476562-11.476562 11.476562-6.335938 0-11.472656-5.140625-11.472656-11.476562 0-6.339844 5.136718-11.476563 11.472656-11.476563 6.339844 0 11.476562 5.136719 11.476562 11.476563zm0 0" fill="#edd4c2"/><path d="m309.808594 56.085938c-3.796875 0-6.878906-3.082032-6.878906-6.882813v-42.320313c0-3.800781 3.082031-6.882812 6.878906-6.882812 3.800781 0 6.882812 3.082031 6.882812 6.882812v42.320313c0 3.800781-3.082031 6.882813-6.882812 6.882813zm0 0" fill="#6770e6"/><path d="m309.808594 0c-3.796875 0-6.878906 3.082031-6.878906 6.882812v10.621094c0-3.800781 3.078124-6.882812 6.878906-6.882812 3.800781 0 6.882812 3.082031 6.882812 6.882812v-10.621094c0-3.800781-3.082031-6.882812-6.882812-6.882812zm0 0" fill="#8f95e6"/><path d="m236.476562 52.898438c0 6.335937-5.136718 11.476562-11.476562 11.476562s-11.476562-5.140625-11.476562-11.476562c0-6.339844 5.136718-11.476563 11.476562-11.476563s11.476562 5.136719 11.476562 11.476563zm0 0" fill="#edd4c2"/><path d="m225 56.085938c-3.800781 0-6.882812-3.082032-6.882812-6.882813v-42.320313c0-3.800781 3.082031-6.882812 6.882812-6.882812s6.882812 3.082031 6.882812 6.882812v42.320313c0 3.800781-3.082031 6.882813-6.882812 6.882813zm0 0" fill="#6770e6"/><path d="m225 0c-3.800781 0-6.882812 3.082031-6.882812 6.882812v10.621094c0-3.800781 3.082031-6.882812 6.882812-6.882812s6.882812 3.082031 6.882812 6.882812v-10.621094c0-3.800781-3.082031-6.882812-6.882812-6.882812zm0 0" fill="#8f95e6"/><path d="m406.097656 52.898438c0 6.335937-5.140625 11.476562-11.476562 11.476562-6.339844 0-11.476563-5.140625-11.476563-11.476562 0-6.339844 5.136719-11.476563 11.476563-11.476563 6.335937 0 11.476562 5.136719 11.476562 11.476563zm0 0" fill="#edd4c2"/><path d="m394.621094 56.085938c-3.800782 0-6.882813-3.082032-6.882813-6.882813v-42.320313c0-3.800781 3.082031-6.882812 6.882813-6.882812 3.800781 0 6.882812 3.082031 6.882812 6.882812v42.320313c0 3.800781-3.082031 6.882813-6.882812 6.882813zm0 0" fill="#6770e6"/><path d="m394.617188 0c-3.800782 0-6.882813 3.082031-6.882813 6.882812v10.621094c0-3.800781 3.082031-6.882812 6.882813-6.882812 3.800781 0 6.882812 3.082031 6.882812 6.882812v-10.621094c.003906-3.800781-3.078125-6.882812-6.882812-6.882812zm0 0" fill="#8f95e6"/><path d="m512 454.984375h-45.273438v-314.058594h45.273438zm0 0" fill="#ff8354"/><path d="m512 466.652344h-45.273438v-11.664063h45.273438zm0 0" fill="#ffefe4"/><path d="m466.726562 466.648438h45.273438v22.714843c0 12.503907-10.132812 22.636719-22.636719 22.636719-12.5 0-22.636719-10.132812-22.636719-22.636719zm0 0" fill="#6770e6"/><path d="m489.363281 492c-12.5 0-22.636719-10.132812-22.636719-22.636719v20c0 12.503907 10.136719 22.636719 22.636719 22.636719 12.503907 0 22.636719-10.132812 22.636719-22.636719v-20c0 12.503907-10.132812 22.636719-22.636719 22.636719zm0 0" fill="#5861c7"/><path d="m466.726562 140.90625 20.964844-58.492188c.5625-1.570312 2.78125-1.570312 3.34375 0l20.964844 58.492188zm0 0" fill="#edd4c2"/><path d="m478.042969 109.328125h22.636719l-9.644532-26.914063c-.5625-1.570312-2.785156-1.570312-3.347656 0zm0 0" fill="#5861c7"/><path d="m478.042969 109.328125h22.636719l-9.644532-26.914063c-.5625-1.570312-2.785156-1.570312-3.347656 0zm0 0" fill="#5861c7"/><path d="m486.882812 92.414062c.835938-1.570312 4.125-1.570312 4.957032 0l8.558594 16.121094-9.363282-26.121094c-.5625-1.570312-2.78125-1.570312-3.34375 0l-9.359375 26.113282zm0 0" fill="#8f95e6"/><path d="m100.394531 329.949219c0 5.796875-4.699219 10.496093-10.496093 10.496093-5.796876 0-10.496094-4.699218-10.496094-10.496093s4.699218-10.496094 10.496094-10.496094c5.796874 0 10.496093 4.699219 10.496093 10.496094zm0 0" fill="#6770e6"/><path d="m100.394531 414.554688c0 5.796874-4.699219 10.496093-10.496093 10.496093-5.796876 0-10.496094-4.699219-10.496094-10.496093 0-5.796876 4.699218-10.496094 10.496094-10.496094 5.796874 0 10.496093 4.699218 10.496093 10.496094zm0 0" fill="#6770e6"/><path d="m186.933594 115.082031c27.046875-.28125 38.050781 17.96875 38.050781 17.96875s10.636719-17.691406 37.6875-17.96875c27.046875-.28125 47.476563 22.363281 47.699219 43.460938.21875 21.09375-2.90625 36.207031-41.84375 69.355469-13.671875 11.640624-25.164063 19.910156-32.691406 24.96875-5.800782 3.898437-13.335938 3.976562-19.214844.199218-7.632813-4.902344-19.292969-12.933594-33.203125-24.285156-39.617188-32.335938-43.054688-47.378906-43.273438-68.476562-.214843-21.09375 19.742188-44.945313 46.789063-45.222657zm0 0" fill="#ff8354"/><path d="m330.929688 215.296875c0 22.394531-18.15625 40.550781-40.550782 40.550781-22.394531 0-40.546875-18.15625-40.546875-40.550781s18.152344-40.546875 40.546875-40.546875c22.394532 0 40.550782 18.152344 40.550782 40.546875zm0 0" fill="#d476e2"/><path d="m307.53125 208.019531h-9.875v-9.875c0-4.019531-3.257812-7.277343-7.277344-7.277343-4.019531 0-7.277344 3.257812-7.277344 7.277343v9.875h-9.875c-4.019531 0-7.277343 3.257813-7.277343 7.277344s3.257812 7.28125 7.277343 7.28125h9.875v9.871094c0 4.019531 3.257813 7.277343 7.277344 7.277343 4.019532 0 7.277344-3.257812 7.277344-7.277343v-9.871094h9.875c4.019531 0 7.277344-3.261719 7.277344-7.28125s-3.257813-7.277344-7.277344-7.277344zm0 0" fill="#fff7f2"/></svg>