<?xml version="1.0" encoding="iso-8859-1"?>
<!-- Generator: Adobe Illustrator 19.0.0, SVG Export Plug-In . SVG Version: 6.00 Build 0)  -->
<svg version="1.1" id="Layer_1" xmlns="http://www.w3.org/2000/svg" xmlns:xlink="http://www.w3.org/1999/xlink" x="0px" y="0px"
	 viewBox="0 0 511.999 511.999" style="enable-background:new 0 0 511.999 511.999;" xml:space="preserve">
<g>
	<g>
		<path style="fill:#253744;" d="M459.296,338.029c0,7.674-6.22,13.894-13.894,13.894H66.594c-7.673,0-13.893-6.22-13.893-13.894
			V77.768c0-7.672,6.22-13.893,13.893-13.893h378.808c7.674,0,13.894,6.221,13.894,13.893L459.296,338.029L459.296,338.029z"/>
		<rect x="83.267" y="94.903" style="fill:#2D404E;" width="345.465" height="225.99"/>
		<circle style="fill:none;stroke:#2D404E;stroke-miterlimit:10;" cx="444.823" cy="207.898" r="10.072"/>
		<path style="opacity:0.1;fill:#E2E5E7;enable-background:new    ;" d="M66.595,63.875c-7.673,0-13.893,6.221-13.893,13.893
			v260.261c0,7.674,6.22,13.894,13.893,13.894h54.116L339.703,63.876L66.595,63.875L66.595,63.875z"/>
	</g>
	<g>
		<g>
			<path style="fill:#F2B643;" d="M58.819,266.824c0,0-4.282-24.841-4.282-38.833s9.213-17.337,15.21-17.906
				c5.995-0.571,10.553,1.585,8.599,18.391c0.015,10.66,7.986,45.102,12.377,56.801c4.258,11.345,13.78,30.373,14.637,46.361
				c0.856,15.99-9.707,53.108-9.707,53.108H41.116c0,0-41.115-75.072-41.115-85.921c0-10.85,15.109-29.825,21.938-37.646
				c7.722-8.844,14.145-14.499,30.766-32.183v24.493c0,0-29.636,26.312-27.64,32.308c1.999,5.996,24.29,5.498,28.979,5.213
				C58.729,290.726,61.388,280.529,58.819,266.824z"/>
			<path style="fill:#F2B643;" d="M52.703,261.179c0,8.854,0,23.055,0,23.055s-22.557,3.298-20.475-1.172
				C34.778,277.587,43.814,267.181,52.703,261.179z"/>
			<path style="fill:#D89932;" d="M47.404,384.746h-6.289c0,0-41.115-75.072-41.115-85.921c0-10.85,15.109-29.825,21.938-37.646
				c7.722-8.844,14.145-14.499,30.766-32.183v6.122c0,0-23.993,23.193-34.546,38.174c-10.553,14.979-13.038,19.401-5.222,36.207
				C20.752,326.305,47.404,384.746,47.404,384.746z"/>
			<path style="fill:#D89932;" d="M52.703,284.234c0,0-22.557,3.298-20.475-1.172c2.55-5.475,11.586-15.881,20.475-21.883
				c0,0.608,0,3.363,0,6.77c0,0-11.096,9.967-14.027,13.093C35.745,284.168,52.703,284.234,52.703,284.234z"/>
			<path style="fill:#D89932;" d="M25.063,285.797c1.999,5.996,24.29,5.498,28.979,5.213c4.688-0.284,7.347-10.481,4.777-24.187
				c0,0-4.282-24.841-4.282-38.833s9.213-17.337,15.21-17.906c0,0-10.873,4.421-10.322,14.923
				c0.552,10.502,9.15,47.632,6.805,58.185c-2.345,10.552-8.989,15.633-25.404,11.334S25.063,285.797,25.063,285.797z"/>
		</g>
		<g>
			<path style="fill:#E2E5E7;" d="M104.546,384.907c-1.049-1.273-3.686-2.182-6.797-2.182c-2.979,0-5.533,0.832-6.666,2.021h-1.258
				c-1.133-1.188-3.687-2.021-6.669-2.021c-2.979,0-5.532,0.832-6.665,2.021h-1.258c-1.132-1.188-3.685-2.021-6.666-2.021
				c-2.979,0-5.532,0.832-6.665,2.021h-1.258c-1.133-1.188-3.688-2.021-6.669-2.021c-2.979,0-5.533,0.832-6.666,2.021h-1.258
				c-1.131-1.188-3.684-2.021-6.665-2.021c-3.108,0-5.747,0.908-6.797,2.182c-3.561,0.729-6.238,3.879-6.238,7.656v47.744
				c0,4.317,3.499,7.816,7.816,7.816h68.799c4.318,0,7.817-3.499,7.817-7.816v-47.744
				C110.785,388.786,108.107,385.636,104.546,384.907z"/>
			<path style="fill:#D1D5D5;" d="M32.59,384.907c-3.561,0.729-6.238,3.879-6.238,7.656v47.744c0,3.786,2.691,6.94,6.266,7.661
				v-63.089C32.61,384.888,32.597,384.897,32.59,384.907z"/>
			<path style="fill:#D1D5D5;" d="M60.645,384.746c-1.133-1.188-3.688-2.021-6.669-2.021c-2.979,0-5.533,0.832-6.666,2.021h-0.818
				v63.378h14.853v-63.378H60.645z"/>
			<path style="fill:#D1D5D5;" d="M89.826,384.746c-1.133-1.188-3.687-2.021-6.669-2.021c-2.979,0-5.532,0.832-6.665,2.021h-0.883
				v63.378h15.048v-63.378H89.826z"/>
			<path style="fill:#D1D5D5;" d="M104.546,384.907c-0.005-0.005-0.011-0.01-0.016-0.016v63.075
				c3.568-0.725,6.254-3.877,6.254-7.659v-47.744C110.785,388.786,108.107,385.636,104.546,384.907z"/>
		</g>
	</g>
	<g>
		<g>
			<path style="fill:#F2B643;" d="M453.18,266.824c0,0,4.282-24.841,4.282-38.833s-9.213-17.337-15.21-17.906
				c-5.996-0.571-10.553,1.585-8.599,18.391c-0.016,10.66-7.986,45.102-12.377,56.801c-4.258,11.345-13.78,30.373-14.637,46.361
				c-0.856,15.99,9.707,53.108,9.707,53.108h54.537c0,0,41.115-75.072,41.115-85.921c0-10.85-15.109-29.825-21.938-37.646
				c-7.722-8.844-14.145-14.499-30.766-32.183v24.493c0,0,29.636,26.312,27.64,32.308c-1.999,5.996-24.29,5.498-28.979,5.213
				C453.27,290.726,450.611,280.529,453.18,266.824z"/>
			<path style="fill:#F2B643;" d="M459.296,261.179c0,8.854,0,23.055,0,23.055s22.557,3.298,20.475-1.172
				C477.221,277.587,468.185,267.181,459.296,261.179z"/>
			<path style="fill:#D89932;" d="M464.595,384.746h6.289c0,0,41.115-75.072,41.115-85.921c0-10.85-15.109-29.825-21.938-37.646
				c-7.722-8.844-14.145-14.499-30.766-32.183v6.122c0,0,23.993,23.193,34.546,38.174c10.553,14.979,13.038,19.401,5.222,36.207
				C491.247,326.305,464.595,384.746,464.595,384.746z"/>
			<path style="fill:#D89932;" d="M459.296,284.234c0,0,22.557,3.298,20.475-1.172c-2.55-5.475-11.586-15.881-20.475-21.883
				c0,0.608,0,3.363,0,6.77c0,0,11.096,9.967,14.027,13.093C476.254,284.168,459.296,284.234,459.296,284.234z"/>
			<path style="fill:#D89932;" d="M486.936,285.797c-1.999,5.996-24.29,5.498-28.979,5.213c-4.688-0.284-7.347-10.481-4.777-24.187
				c0,0,4.282-24.841,4.282-38.833s-9.213-17.337-15.21-17.906c0,0,10.873,4.421,10.322,14.923
				c-0.552,10.502-9.15,47.632-6.805,58.185c2.345,10.552,8.989,15.633,25.404,11.334S486.936,285.797,486.936,285.797z"/>
		</g>
		<g>
			<path style="fill:#E2E5E7;" d="M407.453,384.907c1.049-1.273,3.686-2.182,6.797-2.182c2.979,0,5.532,0.832,6.665,2.021h1.259
				c1.133-1.188,3.687-2.021,6.668-2.021c2.979,0,5.533,0.832,6.666,2.021h1.258c1.132-1.188,3.685-2.021,6.666-2.021
				c2.979,0,5.532,0.832,6.665,2.021h1.258c1.133-1.188,3.688-2.021,6.669-2.021c2.979,0,5.533,0.832,6.666,2.021h1.258
				c1.131-1.188,3.684-2.021,6.665-2.021c3.108,0,5.747,0.908,6.797,2.182c3.561,0.729,6.238,3.879,6.238,7.656v47.744
				c0,4.317-3.499,7.816-7.816,7.816h-68.799c-4.318,0-7.817-3.499-7.817-7.816v-47.744
				C401.214,388.786,403.892,385.636,407.453,384.907z"/>
			<path style="fill:#D1D5D5;" d="M479.409,384.907c3.561,0.729,6.238,3.879,6.238,7.656v47.744c0,3.786-2.691,6.94-6.266,7.661
				v-63.089C479.389,384.888,479.401,384.897,479.409,384.907z"/>
			<path style="fill:#D1D5D5;" d="M451.354,384.746c1.133-1.188,3.688-2.021,6.669-2.021c2.979,0,5.533,0.832,6.666,2.021h0.818
				v63.378h-14.853v-63.378H451.354z"/>
			<path style="fill:#D1D5D5;" d="M422.173,384.746c1.133-1.188,3.687-2.021,6.668-2.021c2.979,0,5.533,0.832,6.666,2.021h0.882
				v63.378h-15.047v-63.378H422.173z"/>
			<path style="fill:#D1D5D5;" d="M407.453,384.907c0.005-0.005,0.011-0.01,0.016-0.016v63.075
				c-3.568-0.725-6.254-3.877-6.254-7.659v-47.744C401.214,388.786,403.892,385.636,407.453,384.907z"/>
		</g>
	</g>
</g>
<g>
</g>
<g>
</g>
<g>
</g>
<g>
</g>
<g>
</g>
<g>
</g>
<g>
</g>
<g>
</g>
<g>
</g>
<g>
</g>
<g>
</g>
<g>
</g>
<g>
</g>
<g>
</g>
<g>
</g>
</svg>
