<svg height="512pt" viewBox="-94 0 512 512" width="512pt" xmlns="http://www.w3.org/2000/svg"><path d="m281.535156 512h-239.964844c-22.957031 0-41.570312-18.613281-41.570312-41.570312v-428.859376c0-22.957031 18.613281-41.570312 41.570312-41.570312h239.964844c22.957032 0 41.570313 18.613281 41.570313 41.570312v428.855469c.003906 22.960938-18.609375 41.574219-41.570313 41.574219zm0 0" fill="#6770e6"/><path d="m281.535156 0h-239.964844c-22.957031 0-41.570312 18.613281-41.570312 41.570312v14c0-22.957031 18.613281-41.570312 41.570312-41.570312h239.964844c22.957032 0 41.570313 18.613281 41.570313 41.570312v-14c.003906-22.957031-18.609375-41.570312-41.570313-41.570312zm0 0" fill="#8f95e6"/><path d="m41.570312 512h239.964844c22.957032 0 41.570313-18.613281 41.570313-41.570312v-14c0 22.957031-18.613281 41.570312-41.570313 41.570312h-239.964844c-22.957031 0-41.570312-18.613281-41.570312-41.570312v14c0 22.957031 18.613281 41.570312 41.570312 41.570312zm0 0" fill="#5861c7"/><path d="m41.570312 492c-11.890624 0-21.570312-9.679688-21.570312-21.570312v-402.859376c0-11.890624 9.679688-21.570312 21.570312-21.570312h239.964844c11.894532 0 21.570313 9.679688 21.570313 21.570312v402.859376c0 11.890624-9.675781 21.570312-21.570313 21.570312zm0 0" fill="#a1f1fc"/><path d="m202.828125 31.828125h-112.546875c-4.972656 0-9-4.03125-9-9s4.027344-9 9-9h112.546875c4.96875 0 9 4.03125 9 9s-4.03125 9-9 9zm0 0" fill="#5861c7"/><path d="m241.828125 22.828125c0 4.96875-4.03125 9-9 9s-9-4.03125-9-9 4.03125-9 9-9 9 4.03125 9 9zm0 0" fill="#5861c7"/><path d="m166.613281 300.535156h-108.953125c-8.402344 0-14.921875-7.34375-13.921875-15.6875l12.109375-101.105468c.273438-2.292969 2.222656-4.023438 4.53125-4.023438h103.515625c2.3125 0 4.257813 1.730469 4.53125 4.023438l12.109375 101.105468c1 8.34375-5.519531 15.6875-13.921875 15.6875zm0 0" fill="#6770e6"/><path d="m144.015625 206.910156c-3.316406 0-6-2.6875-6-6v-31.878906c0-14.269531-11.609375-25.878906-25.878906-25.878906s-25.878907 11.609375-25.878907 25.878906v31.878906c0 3.3125-2.6875 6-6 6s-6-2.6875-6-6v-31.878906c0-20.886719 16.992188-37.878906 37.878907-37.878906s37.878906 16.992187 37.878906 37.878906v31.878906c0 3.3125-2.6875 6-6 6zm0 0" fill="#fff7f2"/><path d="m261.761719 300.535156h-99.457031c-10.820313 0-19.109376-9.621094-17.511719-20.324218l10.820312-72.398438c.351563-2.351562 2.371094-4.09375 4.75-4.09375h103.335938c2.378906 0 4.402343 1.742188 4.75 4.09375l10.820312 72.398438c1.601563 10.703124-6.6875 20.324218-17.507812 20.324218zm0 0" fill="#d476e2"/><path d="m212.03125 273.167969c-15.4375 0-28-12.558594-28-28v-22c0-3.3125 2.6875-6 6-6 3.316406 0 6 2.6875 6 6v22c0 8.820312 7.179688 16 16 16 8.824219 0 16-7.179688 16-16v-22c0-3.3125 2.6875-6 6-6 3.316406 0 6 2.6875 6 6v22c0 15.441406-12.558594 28-28 28zm0 0" fill="#fff7f2"/><path d="m237.707031 380.769531h-152.253906c-13.230469 0-23.957031-10.726562-23.957031-23.957031s10.726562-23.957031 23.957031-23.957031h152.257813c13.230468 0 23.953124 10.726562 23.953124 23.957031s-10.722656 23.957031-23.957031 23.957031zm0 0" fill="#d476e2"/><path d="m260.113281 397.816406 19.648438-3.660156c2.445312-.453125 2.832031-3.796875.554687-4.796875l-58.207031-25.625c-2.113281-.929687-4.261719 1.222656-3.332031 3.332031l25.621094 58.207032c1.003906 2.277343 4.34375 1.890624 4.800781-.554688l3.390625-18.199219 19.519531 18.671875c1.113281 1.066406 2.542969 1.59375 3.96875 1.59375 1.515625 0 3.027344-.59375 4.15625-1.773437 2.191406-2.292969 2.113281-5.929688-.179687-8.125zm0 0" fill="#fff7f2"/></svg>