<svg height="512pt" viewBox="0 0 512 512" width="512pt" xmlns="http://www.w3.org/2000/svg"><path d="m497.769531 395.148438h-483.539062c-7.859375 0-14.230469-6.371094-14.230469-14.234376v-366.683593c0-7.859375 6.371094-14.230469 14.230469-14.230469h483.535156c7.859375 0 14.230469 6.371094 14.230469 14.230469v366.683593c.003906 7.863282-6.367188 14.234376-14.226563 14.234376zm0 0" fill="#6770e6"/><path d="m497.769531 0h-483.539062c-7.859375 0-14.230469 6.371094-14.230469 14.230469v14c0-7.859375 6.371094-14.230469 14.230469-14.230469h483.539062c7.859375 0 14.230469 6.371094 14.230469 14.230469v-14c0-7.859375-6.371094-14.230469-14.230469-14.230469zm0 0" fill="#8f95e6"/><path d="m30 350.914062v-301.722656c0-10.597656 8.59375-19.191406 19.191406-19.191406h413.617188c10.597656 0 19.191406 8.59375 19.191406 19.191406v301.722656c0 7.863282-6.371094 14.234376-14.230469 14.234376h-423.539062c-7.859375 0-14.230469-6.371094-14.230469-14.234376zm0 0" fill="#ffefe4"/><path d="m386.601562 351.351562h-269c-9.046874 0-16.382812-7.335937-16.382812-16.382812s7.335938-16.382812 16.382812-16.382812h269c9.046876 0 16.382813 7.335937 16.382813 16.382812s-7.335937 16.382812-16.382813 16.382812zm0 0" fill="#edd4c2"/><path d="m128.972656 159.238281v175.972657h84.683594v-175.972657c0-4.496093-3.640625-8.136719-8.132812-8.136719h-68.414063c-4.496094 0-8.136719 3.640626-8.136719 8.136719zm0 0" fill="#6770e6"/><path d="m213.65625 205.710938v129.5h84.6875v-129.5c0-4.496094-3.640625-8.136719-8.136719-8.136719h-68.414062c-4.492188 0-8.136719 3.640625-8.136719 8.136719zm0 0" fill="#d476e2"/><path d="m298.34375 335.210938h84.683594v-214.304688c0-4.492188-3.640625-8.132812-8.136719-8.132812h-68.414063c-4.492187 0-8.132812 3.640624-8.132812 8.132812zm0 0" fill="#69ebfc"/><path d="m196.277344 395.148438h121.894531v76.871093h-121.894531zm0 0" fill="#5861c7"/><path d="m375.808594 512h-236.601563c-11.039062 0-19.988281-8.949219-19.988281-19.988281 0-11.042969 8.949219-19.992188 19.988281-19.992188h236.601563c11.042968 0 19.992187 8.949219 19.992187 19.992188 0 11.039062-8.949219 19.988281-19.992187 19.988281zm0 0" fill="#6770e6"/><path d="m375.808594 498h-236.601563c-8.574219 0-15.863281-5.40625-18.703125-12.988281-.820312 2.179687-1.289062 4.53125-1.289062 7 0 11.039062 8.949218 19.988281 19.992187 19.988281h236.601563c11.039062 0 19.988281-8.949219 19.988281-19.988281 0-2.46875-.46875-4.820313-1.285156-7-2.835938 7.582031-10.128907 12.988281-18.703125 12.988281zm0 0" fill="#5861c7"/><path d="m462.808594 30h-413.617188c-10.597656 0-19.191406 8.59375-19.191406 19.191406v25.101563h452v-25.101563c0-10.597656-8.59375-19.191406-19.191406-19.191406zm0 0" fill="#d476e2"/><g fill="#b665c2"><path d="m71.710938 52.144531c0 5.996094-4.859376 10.859375-10.855469 10.859375-5.996094 0-10.855469-4.863281-10.855469-10.859375 0-5.992187 4.859375-10.855469 10.855469-10.855469 5.996093 0 10.855469 4.863282 10.855469 10.855469zm0 0"/><path d="m113.425781 52.144531c0 5.996094-4.859375 10.859375-10.855469 10.859375-5.996093 0-10.855468-4.863281-10.855468-10.859375 0-5.992187 4.859375-10.855469 10.855468-10.855469 5.996094 0 10.855469 4.863282 10.855469 10.855469zm0 0"/><path d="m154.074219 52.144531c0 5.996094-4.859375 10.859375-10.855469 10.859375s-10.855469-4.863281-10.855469-10.859375c0-5.992187 4.859375-10.855469 10.855469-10.855469s10.855469 4.863282 10.855469 10.855469zm0 0"/></g><path d="m504.929688 504.953125c-9.394532 9.394531-24.628907 9.394531-34.023438 0l-99.53125-99.53125 34.019531-34.023437 99.535157 99.539062c9.390624 9.390625 9.390624 24.621094 0 34.015625zm0 0" fill="#ff8354"/><path d="m437.761719 331.894531c0 58.484375-47.410157 105.894531-105.894531 105.894531-58.484376 0-105.894532-47.410156-105.894532-105.894531s47.410156-105.894531 105.894532-105.894531c58.484374 0 105.894531 47.410156 105.894531 105.894531zm0 0" fill="#ff8354"/><path d="m406.746094 331.894531c0 41.351563-33.523438 74.878907-74.878906 74.878907-41.351563 0-74.878907-33.527344-74.878907-74.878907 0-41.355469 33.527344-74.878906 74.878907-74.878906 41.355468 0 74.878906 33.523437 74.878906 74.878906zm0 0" fill="#a1f1fc"/><path d="m409.355469 443.398438 61.550781 61.554687c9.394531 9.394531 24.628906 9.394531 34.023438 0 9.390624-9.394531 9.390624-24.625 0-34.019531l-61.554688-61.554688zm0 0" fill="#6770e6"/><path d="m509.773438 477.945312c-1.160157 2.535157-2.757813 4.921876-4.84375 7.007813-4.683594 4.683594-10.816407 7.027344-16.957032 7.042969v.003906h-30.019531l12.953125 12.953125c9.394531 9.394531 24.628906 9.394531 34.023438 0 7.304687-7.304687 8.902343-18.132813 4.84375-27.007813zm0 0" fill="#5861c7"/></svg>