<?xml version="1.0" encoding="iso-8859-1"?>
<!-- Generator: Adobe Illustrator 19.0.0, SVG Export Plug-In . SVG Version: 6.00 Build 0)  -->
<svg version="1.1" id="Layer_1" xmlns="http://www.w3.org/2000/svg" xmlns:xlink="http://www.w3.org/1999/xlink" x="0px" y="0px"
	 viewBox="0 0 504 504" style="enable-background:new 0 0 504 504;" xml:space="preserve">
<g>
	<path style="fill:#E2E5E7;" d="M439.668,105.474c0-3.979-3.135-7.204-7-7.204H71.334c-3.867,0-7,3.225-7,7.204v240.781h375.334
		L439.668,105.474L439.668,105.474z"/>
	<path style="fill:#2D404E;" d="M436.579,108.428c0-3.931-3.082-7.115-6.885-7.115H74.307c-3.803,0-6.885,3.185-6.885,7.115v237.825
		h369.156L436.579,108.428L436.579,108.428z"/>
	<rect x="80.25" y="115.761" style="fill:#E2E5E7;" width="343.5" height="213"/>
	<rect y="346.253" style="fill:#E2E5E7;" width="504" height="14.335"/>
	<path style="fill:#D1D5D5;" d="M252,360.587H0c0,0,3.5,7.5,43.5,7.5s208.5,0,208.5,0s168.5,0,208.5,0s43.5-7.5,43.5-7.5H252z"/>
	<path style="fill:#D1D5D5;" d="M285.5,351.004c0,1.334-1.455,2.416-3.25,2.416h-60.5c-1.795,0-3.25-1.082-3.25-2.416l0,0
		c0-1.334,1.455-2.416,3.25-2.416h60.5C284.045,348.587,285.5,349.669,285.5,351.004L285.5,351.004z"/>
	<rect x="448.75" y="352.087" style="fill:#D1D5D5;" width="16.25" height="3"/>
	<path style="fill:#D1D5D5;" d="M278.167,338.421c0,1.013-1.566,1.834-3.5,1.834h-45.332c-1.934,0-3.5-0.821-3.5-1.834l0,0
		c0-1.013,1.566-1.834,3.5-1.834h45.332C276.6,336.587,278.167,337.409,278.167,338.421L278.167,338.421z"/>
	<g>
		<g>
			<g>
				<path style="fill:#48B19B;" d="M328.985,148.551c-56.348-9.445-102.328,34.598-158.672,25.152
					c-1.656-0.411-2.824,0.46-2.6,2.023c3.664,25.637,7.328,51.273,10.994,76.911c0.223,1.564,1.754,3.229,3.408,3.64
					c56.346,9.442,102.324-34.596,158.668-25.152c1.656,0.411,2.824-0.46,2.602-2.023c-3.662-25.638-7.328-51.275-10.992-76.912
					C332.168,150.625,330.639,148.961,328.985,148.551z"/>
				<path style="fill:#E2E5E7;" d="M280.51,193.504c-1.84-13.923-15.547-22.018-28.637-16.808
					c-13.488,5.369-23.221,20.004-21.287,34.632c1.84,13.904,15.553,22.011,28.637,16.799
					C272.698,222.759,282.442,208.137,280.51,193.504z"/>
				<g>
					<path style="fill:#49A893;" d="M256.758,222.656c-0.273-1.915-0.412-2.874-0.686-4.789c-2.695,0.975-5.551,1.143-7.346,0.552
						c0.262-1.45,0.391-2.174,0.654-3.623c1.779,0.494,4.326,0.541,6.922-0.447c3.289-1.253,5.232-4.062,4.844-6.791
						c-0.377-2.632-2.438-3.601-6.051-3.708c-4.967-0.146-8.244-1.273-8.84-5.442c-0.568-3.974,1.734-8.011,5.852-10.335
						c-0.275-1.916-0.412-2.872-0.684-4.788c1.166-0.443,1.75-0.669,2.918-1.113c0.266,1.858,0.398,2.787,0.664,4.646
						c2.748-0.945,4.756-0.895,6.264-0.603c-0.283,1.437-0.424,2.158-0.707,3.598c-1.057-0.209-3.113-0.595-6.078,0.535
						c-3.568,1.357-4.598,4.069-4.318,6.034c0.35,2.443,2.277,3.074,6.527,3.273c5.014,0.237,7.822,1.743,8.434,6.005
						c0.547,3.831-1.502,8.322-6.164,10.903c0.285,1.993,0.428,2.988,0.713,4.98C258.51,221.987,257.926,222.211,256.758,222.656z"
						/>
				</g>
			</g>
		</g>
		<path style="fill:#49A893;" d="M219.85,179.499c-25.422,9.636-50.891,6.288-50.891,6.288l1.678,8.534l147.033,35.467l5.104-1.002
			l-6.129-60.297C283.266,153.505,245.272,169.866,219.85,179.499z"/>
		<g>
			<g>
				<path style="fill:#48B19B;" d="M308.893,172.309c-55.964-11.397-103.575,30.228-159.541,18.839
					c-1.639-0.477-2.838,0.346-2.677,1.917c2.641,25.764,5.285,51.526,7.929,77.289c0.161,1.57,1.625,3.296,3.264,3.772
					c55.967,11.401,103.574-30.229,159.543-18.84c1.638,0.476,2.838-0.349,2.677-1.919c-2.642-25.763-5.287-51.524-7.931-77.286
					C311.996,174.509,310.531,172.784,308.893,172.309z"/>
				<path style="fill:#49A893;" d="M301.325,190.18c-5.685-0.911-10.685-5.463-11.252-10.995c-0.006-0.06-0.004-0.117-0.008-0.178
					c-21.152,0.594-39.952,5.935-59.931,12.558c-19.978,6.627-38.78,11.963-59.933,12.561c0.007,0.061,0.021,0.12,0.027,0.18
					c0.568,5.531-3.512,9.946-9.196,9.036c-0.731-0.117-1.452-0.318-2.157-0.588c0.89,8.669,1.334,13.006,2.224,21.675
					c0.89,8.67,1.335,13.003,2.226,21.673c0.677-0.011,1.38,0.035,2.111,0.152c5.685,0.91,10.686,5.467,11.253,10.997
					c0.006,0.061,0.004,0.118,0.009,0.178c21.155-0.598,39.951-5.933,59.932-12.561c19.978-6.627,38.778-11.965,59.931-12.559
					c-0.008-0.06-0.023-0.12-0.029-0.181c-0.569-5.528,3.512-9.945,9.197-9.035c0.73,0.117,1.456,0.321,2.16,0.592
					c-0.89-8.67-1.339-13.006-2.229-21.676c-0.89-8.669-1.335-13.003-2.225-21.673C302.759,190.346,302.055,190.297,301.325,190.18z
					"/>
				<path style="fill:#E2E5E7;" d="M258.675,215.305c-1.242-13.938-14.657-22.656-27.948-17.93
					c-13.762,4.894-23.953,19.039-22.644,33.756c1.24,13.938,14.668,22.65,27.95,17.928
					C249.782,244.171,259.988,230.03,258.675,215.305z"/>
				<g>
					<path style="fill:#49A893;" d="M233.786,243.491c-0.197-1.925-0.297-2.887-0.494-4.812c-2.731,0.867-5.596,0.922-7.365,0.26
						c0.319-1.438,0.48-2.156,0.8-3.595c1.759,0.564,4.302,0.711,6.935-0.174c3.338-1.121,5.39-3.849,5.108-6.591
						c-0.271-2.646-2.296-3.695-5.901-3.945c-4.957-0.344-8.186-1.601-8.615-5.788c-0.41-3.993,2.055-7.937,6.26-10.096
						c-0.197-1.925-0.299-2.888-0.496-4.812c1.184-0.397,1.775-0.596,2.959-0.993c0.191,1.867,0.289,2.801,0.48,4.668
						c2.782-0.834,4.789-0.707,6.283-0.355c-0.34,1.426-0.508,2.14-0.848,3.566c-1.047-0.25-3.088-0.718-6.096,0.293
						c-3.619,1.216-4.756,3.887-4.554,5.86c0.252,2.455,2.154,3.159,6.394,3.528c5.001,0.436,7.744,2.054,8.184,6.336
						c0.396,3.85-1.826,8.256-6.588,10.65c0.205,2.002,0.307,3.004,0.513,5.006C235.559,242.895,234.969,243.092,233.786,243.491z"
						/>
				</g>
			</g>
		</g>
	</g>
	<g>
		<g>
			<path style="fill:#D89932;" d="M389.575,368.935l-78.578-1.404c0,0-6.52,20.354,10.531,29.819
				c17.051,9.464,47.252,4.538,56.541-0.924C387.358,390.964,391.047,377.341,389.575,368.935z"/>
			<path style="fill:#D89932;" d="M328.243,367.839v32.339c1.076,0.337,2.18,0.637,3.303,0.9v-33.18L328.243,367.839z"/>
			<path style="fill:#F2B643;" d="M331.545,367.898v33.18c1.084,0.254,2.186,0.475,3.303,0.664v-33.785L331.545,367.898z"/>
			<path style="fill:#F2B643;" d="M338.151,368.016v34.197c1.094,0.127,2.195,0.227,3.303,0.301v-34.438L338.151,368.016z"/>
			<path style="fill:#D89932;" d="M348.059,368.193v34.485c1.105-0.018,2.207-0.056,3.303-0.113v-34.312L348.059,368.193z"/>
			<path style="fill:#D89932;" d="M341.454,368.076v34.438c1.098,0.074,2.199,0.122,3.303,0.149v-34.529L341.454,368.076z"/>
			<path style="fill:#F2B643;" d="M344.756,368.134v34.529c1.102,0.027,2.205,0.03,3.303,0.015v-34.485L344.756,368.134z"/>
			<path style="fill:#D89932;" d="M334.848,367.958v33.785c1.088,0.186,2.191,0.342,3.303,0.471v-34.197L334.848,367.958z"/>
			<path style="fill:#D89932;" d="M315.034,367.604v24.494c0.938,1.107,2.031,2.165,3.303,3.151v-27.587L315.034,367.604z"/>
			<path style="fill:#D89932;" d="M321.639,367.721v29.687c1.053,0.58,2.156,1.104,3.303,1.579V367.78L321.639,367.721z"/>
			<path style="fill:#F2B643;" d="M324.942,367.781v31.207c1.066,0.44,2.17,0.837,3.301,1.19V367.84L324.942,367.781z"/>
			<path style="fill:#F2B643;" d="M318.336,367.663v27.587c0.959,0.743,2.018,1.447,3.191,2.101c0.037,0.02,0.074,0.038,0.111,0.059
				v-29.687L318.336,367.663z"/>
			<path style="fill:#F2B643;" d="M377.782,368.724v27.864c0.096-0.054,0.193-0.107,0.287-0.162
				c1.082-0.636,2.084-1.387,3.016-2.224v-25.419L377.782,368.724z"/>
			<path style="fill:#D89932;" d="M381.084,368.784v25.419c1.232-1.107,2.334-2.371,3.303-3.744v-21.616L381.084,368.784z"/>
			<path style="fill:#D89932;" d="M374.479,368.665v29.451c1.268-0.496,2.379-1.009,3.303-1.528v-27.864L374.479,368.665z"/>
			<path style="fill:#D89932;" d="M389.575,368.935l-1.885-0.033v15.315C389.721,378.957,390.333,373.255,389.575,368.935z"/>
			<path style="fill:#F2B643;" d="M371.176,368.605v30.648c1.189-0.363,2.297-0.746,3.303-1.138v-29.451L371.176,368.605z"/>
			<path style="fill:#F2B643;" d="M357.965,368.371v33.608c1.123-0.14,2.225-0.298,3.303-0.473V368.43L357.965,368.371z"/>
			<path style="fill:#F2B643;" d="M351.362,368.251v34.312c1.109-0.059,2.211-0.137,3.301-0.232v-34.021L351.362,368.251z"/>
			<path style="fill:#D89932;" d="M354.663,368.311v34.021c1.117-0.1,2.219-0.218,3.303-0.354V368.37L354.663,368.311z"/>
			<path style="fill:#D89932;" d="M367.874,368.547v31.617c1.16-0.287,2.262-0.593,3.303-0.91v-30.648L367.874,368.547z"/>
			<path style="fill:#D89932;" d="M361.268,368.428v33.077c1.131-0.183,2.232-0.384,3.305-0.601v-32.417L361.268,368.428z"/>
			<path style="fill:#F2B643;" d="M364.573,368.488v32.417c1.139-0.23,2.242-0.478,3.301-0.741v-31.617L364.573,368.488z"/>
			<path style="fill:#FFFFFF;" d="M346.946,352.889c13.865-0.748,25.949,1.988,34.67,9.156c2.758,2.268,5.666,5.854,5.742,9.641
				c0.158,7.838-8.531,12.464-14.25,14.939c-17.053,7.381-42.492,5.88-55.299-5.302c-2.357-2.057-5.318-5.372-5.318-9.398
				c0-7.53,8.152-11.904,12.975-14.218C331.299,354.91,338.692,353.333,346.946,352.889z M346.307,359.155
				c-4.812,0.614-9.021,1.12-11.695,3.614c-6.574,6.131,4.174,9.678,9.145,10.603c2.215,0.412,13.525,1.314,13.4,4.338
				c-0.152,3.657-11.117,2.943-13.826,1.446c-1.248-0.691-1.602-1.85-2.766-2.651c-3.203,0.228-6.02,0.892-9.357,0.964
				c0.461,2.865,3.133,4.284,5.742,5.303c2.732,1.064,6.148,1.778,9.57,1.686c0,1.206,0,2.41,0,3.616c2.197,0,4.396,0,6.594,0
				c0.139-1.131-0.277-2.887,0.213-3.616c5.879-0.4,13.789-1.27,15.314-6.023c1.979-6.167-6.865-7.559-11.059-8.435
				c-1.844-0.385-4.42-0.922-7.232-1.445c-2.01-0.374-6.285-0.629-6.168-2.892c0.184-3.621,9.781-2.323,11.697-1.206
				c1.277,0.745,1.424,1.927,2.766,2.169c2.678,0.484,5.717-1.783,8.295-1.686c-1.959-3.969-8.01-5.387-13.826-5.784
				c0-0.884,0-1.768,0-2.651c-2.197,0-4.396,0-6.594,0C346.387,357.315,346.795,358.742,346.307,359.155z"/>
			<g>
				<path style="fill:#D89932;" d="M350.088,392.236c-10.326,0-20.07-2.087-27.432-5.872c-7.898-4.062-12.248-9.69-12.248-15.85
					c0-4.37,4.35-10.342,12.248-14.404c7.361-3.785,17.105-5.87,27.432-5.87c10.328,0,20.072,2.085,27.436,5.87
					c7.896,4.062,12.246,10.355,12.246,14.404c0,6.159-4.35,11.787-12.246,15.85C370.161,390.148,360.417,392.236,350.088,392.236z
					 M350.088,353.613c-9.732,0-18.852,1.932-25.676,5.44c-6.197,3.186-9.75,7.365-9.75,11.461c0,4.097,3.553,8.272,9.75,11.461
					c6.824,3.508,15.943,5.44,25.676,5.44c9.734,0,18.854-1.933,25.676-5.44c6.199-3.188,9.752-7.364,9.752-11.461
					c0-4.096-3.553-8.275-9.752-11.461C368.942,355.544,359.823,353.613,350.088,353.613z"/>
			</g>
			<ellipse style="fill:#F2B643;" cx="350.088" cy="373.372" rx="36.748" ry="20.485"/>
			<path style="fill:#2D404E;" d="M346.811,357.797c2.018,0,4.035,0,6.055,0c0,0.812,0,1.622,0,2.434
				c5.34,0.366,10.893,1.667,12.689,5.309c-2.365-0.088-5.154,1.994-7.613,1.548c-1.23-0.222-1.365-1.305-2.539-1.989
				c-1.758-1.026-10.57-2.217-10.74,1.106c-0.104,2.078,3.82,2.312,5.664,2.653c2.58,0.482,4.947,0.976,6.637,1.328
				c3.852,0.805,11.971,2.083,10.154,7.743c-1.4,4.364-8.66,5.162-14.059,5.529c-0.449,0.67-0.068,2.282-0.193,3.318
				c-2.02,0-4.037,0-6.055,0c0-1.104,0-2.212,0-3.318c-3.143,0.085-6.277-0.569-8.785-1.548c-2.396-0.935-4.848-2.237-5.271-4.867
				c3.064-0.066,5.65-0.677,8.59-0.885c1.066,0.735,1.393,1.8,2.539,2.435c2.486,1.374,12.553,2.029,12.691-1.329
				c0.115-2.774-10.268-3.603-12.301-3.98c-4.564-0.85-14.43-4.106-8.396-9.734c2.455-2.289,6.32-2.754,10.74-3.318
				C347.063,359.852,346.688,358.54,346.811,357.797z"/>
		</g>
		<path style="opacity:0.12;fill:#2D404E;enable-background:new    ;" d="M310.409,368.428c0,0,3.281,14.806,19.148,19.845
			c15.867,5.038,35.189,1.415,43.551-1.648c8.361-3.062,13.742-11.521,15.174-18.255L310.409,368.428z"/>
		<g>
			<path style="fill:#D89932;" d="M389.575,355.047l-78.578-1.374c0,0-6.52,19.914,10.531,29.174
				c17.051,9.261,47.252,4.44,56.541-0.903C387.358,376.6,391.047,363.272,389.575,355.047z"/>
			<path style="fill:#D89932;" d="M328.243,353.975v31.639c1.076,0.331,2.18,0.623,3.303,0.881v-32.461L328.243,353.975z"/>
			<path style="fill:#F2B643;" d="M331.545,354.034v32.461c1.084,0.25,2.186,0.465,3.303,0.651v-33.054L331.545,354.034z"/>
			<path style="fill:#F2B643;" d="M338.151,354.148v33.456c1.094,0.124,2.195,0.221,3.303,0.295v-33.694L338.151,354.148z"/>
			<path style="fill:#D89932;" d="M348.059,354.322v33.738c1.105-0.018,2.207-0.055,3.303-0.11v-33.57L348.059,354.322z"/>
			<path style="fill:#D89932;" d="M341.454,354.206V387.9c1.098,0.071,2.199,0.12,3.303,0.146v-33.781L341.454,354.206z"/>
			<path style="fill:#F2B643;" d="M344.756,354.264v33.781c1.102,0.027,2.205,0.03,3.303,0.015v-33.738L344.756,354.264z"/>
			<path style="fill:#D89932;" d="M334.848,354.092v33.054c1.088,0.182,2.191,0.334,3.303,0.459V354.15L334.848,354.092z"/>
			<path style="fill:#D89932;" d="M315.034,353.745v23.965c0.938,1.083,2.031,2.118,3.303,3.083v-26.99L315.034,353.745z"/>
			<path style="fill:#D89932;" d="M321.639,353.859v29.046c1.053,0.566,2.156,1.08,3.303,1.544v-30.531L321.639,353.859z"/>
			<path style="fill:#F2B643;" d="M324.942,353.918v30.531c1.066,0.432,2.17,0.818,3.301,1.164v-31.639L324.942,353.918z"/>
			<path style="fill:#F2B643;" d="M318.336,353.802v26.99c0.959,0.729,2.018,1.418,3.191,2.055c0.037,0.021,0.074,0.039,0.111,0.059
				V353.86L318.336,353.802z"/>
			<path style="fill:#F2B643;" d="M377.782,354.841v27.262c0.096-0.053,0.193-0.105,0.287-0.159
				c1.082-0.623,2.084-1.356,3.016-2.175V354.9L377.782,354.841z"/>
			<path style="fill:#D89932;" d="M381.084,354.898v24.87c1.232-1.085,2.334-2.32,3.303-3.665v-21.146L381.084,354.898z"/>
			<path style="fill:#D89932;" d="M374.479,354.784v28.813c1.268-0.484,2.379-0.984,3.303-1.494v-27.262L374.479,354.784z"/>
			<path style="fill:#D89932;" d="M389.575,355.047l-1.885-0.033v14.985C389.721,364.852,390.333,359.276,389.575,355.047z"/>
			<path style="fill:#F2B643;" d="M371.176,354.725v29.984c1.189-0.356,2.297-0.729,3.303-1.113v-28.813L371.176,354.725z"/>
			<path style="fill:#F2B643;" d="M357.965,354.496v32.882c1.123-0.137,2.225-0.293,3.303-0.464v-32.361L357.965,354.496z"/>
			<path style="fill:#F2B643;" d="M351.362,354.379v33.57c1.109-0.058,2.211-0.132,3.301-0.228v-33.285L351.362,354.379z"/>
			<path style="fill:#D89932;" d="M354.663,354.436v33.285c1.117-0.097,2.219-0.213,3.303-0.345v-32.882L354.663,354.436z"/>
			<path style="fill:#D89932;" d="M367.874,354.667v30.934c1.16-0.28,2.262-0.578,3.303-0.891v-29.984L367.874,354.667z"/>
			<path style="fill:#D89932;" d="M361.268,354.552v32.361c1.131-0.18,2.232-0.376,3.305-0.587V354.61L361.268,354.552z"/>
			<path style="fill:#F2B643;" d="M364.573,354.611v31.716c1.139-0.226,2.242-0.468,3.301-0.726v-30.934L364.573,354.611z"/>
			<path style="fill:#FFFFFF;" d="M346.946,339.348c13.865-0.732,25.949,1.946,34.67,8.96c2.758,2.217,5.666,5.726,5.742,9.43
				c0.158,7.67-8.531,12.196-14.25,14.618c-17.053,7.221-42.492,5.752-55.299-5.188c-2.357-2.011-5.318-5.255-5.318-9.194
				c0-7.367,8.152-11.646,12.975-13.909C331.299,341.326,338.692,339.784,346.946,339.348z M346.307,345.479
				c-4.812,0.602-9.021,1.096-11.695,3.536c-6.574,5.998,4.174,9.468,9.145,10.373c2.215,0.403,13.525,1.286,13.4,4.245
				c-0.152,3.576-11.117,2.879-13.826,1.413c-1.248-0.675-1.602-1.81-2.766-2.594c-3.203,0.223-6.02,0.872-9.357,0.943
				c0.461,2.803,3.133,4.192,5.742,5.188c2.732,1.043,6.148,1.74,9.57,1.65c0,1.179,0,2.357,0,3.536c2.197,0,4.396,0,6.594,0
				c0.139-1.104-0.277-2.822,0.213-3.536c5.879-0.393,13.789-1.243,15.314-5.894c1.979-6.034-6.865-7.395-11.059-8.253
				c-1.844-0.376-4.42-0.902-7.232-1.414c-2.01-0.366-6.285-0.614-6.168-2.829c0.184-3.542,9.781-2.273,11.697-1.179
				c1.277,0.729,1.424,1.884,2.766,2.121c2.678,0.475,5.717-1.745,8.295-1.649c-1.959-3.881-8.01-5.27-13.826-5.658
				c0-0.865,0-1.729,0-2.594c-2.197,0-4.396,0-6.594,0C346.387,343.678,346.795,345.074,346.307,345.479z"/>
			<g>
				<path style="fill:#D89932;" d="M350.088,377.842c-10.326,0-20.07-2.04-27.432-5.745c-7.898-3.973-12.248-9.48-12.248-15.506
					c0-4.276,4.35-10.118,12.248-14.093c7.361-3.704,17.105-5.743,27.432-5.743c10.328,0,20.072,2.039,27.436,5.743
					c7.896,3.975,12.246,10.132,12.246,14.093c0,6.025-4.35,11.533-12.246,15.506C370.161,375.803,360.417,377.842,350.088,377.842z
					 M350.088,340.057c-9.732,0-18.852,1.89-25.676,5.322c-6.197,3.118-9.75,7.204-9.75,11.213c0,4.008,3.553,8.094,9.75,11.213
					c6.824,3.432,15.943,5.323,25.676,5.323c9.734,0,18.854-1.892,25.676-5.323c6.199-3.119,9.752-7.205,9.752-11.213
					c0-4.009-3.553-8.095-9.752-11.213C368.942,341.947,359.823,340.057,350.088,340.057z"/>
			</g>
			<ellipse style="fill:#F2B643;" cx="350.088" cy="359.389" rx="36.748" ry="20.039"/>
			<path style="fill:#2D404E;" d="M346.811,344.151c2.018,0,4.035,0,6.055,0c0,0.794,0,1.587,0,2.381
				c5.34,0.358,10.893,1.631,12.689,5.194c-2.365-0.087-5.154,1.951-7.613,1.515c-1.23-0.218-1.365-1.278-2.539-1.948
				c-1.758-1.003-10.57-2.168-10.74,1.083c-0.104,2.033,3.82,2.263,5.664,2.598c2.58,0.47,4.947,0.953,6.637,1.298
				c3.852,0.788,11.971,2.037,10.154,7.576c-1.4,4.27-8.66,5.05-14.059,5.41c-0.449,0.655-0.068,2.231-0.193,3.247
				c-2.02,0-4.037,0-6.055,0c0-1.082,0-2.165,0-3.247c-3.143,0.083-6.277-0.558-8.785-1.514c-2.396-0.915-4.848-2.189-5.271-4.762
				c3.064-0.067,5.65-0.663,8.59-0.867c1.066,0.72,1.393,1.762,2.539,2.382c2.486,1.344,12.553,1.985,12.691-1.3
				c0.115-2.715-10.268-3.526-12.301-3.896c-4.564-0.831-14.43-4.017-8.396-9.522c2.455-2.24,6.32-2.695,10.74-3.247
				C347.063,346.161,346.688,344.88,346.811,344.151z"/>
		</g>
		<path style="opacity:0.12;fill:#2D404E;enable-background:new    ;" d="M310.409,352.992c0,0,3.281,14.806,19.148,19.845
			c15.867,5.038,35.189,1.415,43.551-1.648c8.361-3.062,13.742-11.521,15.174-18.255L310.409,352.992z"/>
		<g>
			<path style="fill:#D89932;" d="M389.575,339.609l-78.578-1.374c0,0-6.52,19.914,10.531,29.174
				c17.051,9.261,47.252,4.44,56.541-0.903C387.358,361.164,391.047,347.833,389.575,339.609z"/>
			<path style="fill:#D89932;" d="M328.243,338.538v31.639c1.076,0.331,2.18,0.623,3.303,0.881v-32.461L328.243,338.538z"/>
			<path style="fill:#F2B643;" d="M331.545,338.596v32.461c1.084,0.25,2.186,0.465,3.303,0.651v-33.054L331.545,338.596z"/>
			<path style="fill:#F2B643;" d="M338.151,338.711v33.456c1.094,0.124,2.195,0.221,3.303,0.295v-33.694L338.151,338.711z"/>
			<path style="fill:#D89932;" d="M348.059,338.884v33.738c1.105-0.018,2.207-0.055,3.303-0.11v-33.57L348.059,338.884z"/>
			<path style="fill:#D89932;" d="M341.454,338.768v33.694c1.098,0.071,2.199,0.12,3.303,0.146v-33.781L341.454,338.768z"/>
			<path style="fill:#F2B643;" d="M344.756,338.827v33.781c1.102,0.027,2.205,0.03,3.303,0.015v-33.738L344.756,338.827z"/>
			<path style="fill:#D89932;" d="M334.848,338.655v33.054c1.088,0.182,2.191,0.334,3.303,0.459v-33.456L334.848,338.655z"/>
			<path style="fill:#D89932;" d="M315.034,338.307v23.965c0.938,1.083,2.031,2.118,3.303,3.083v-26.99L315.034,338.307z"/>
			<path style="fill:#D89932;" d="M321.639,338.422v29.046c1.053,0.566,2.156,1.08,3.303,1.544V338.48L321.639,338.422z"/>
			<path style="fill:#F2B643;" d="M324.942,338.48v30.531c1.066,0.432,2.17,0.818,3.301,1.164v-31.639L324.942,338.48z"/>
			<path style="fill:#F2B643;" d="M318.336,338.365v26.99c0.959,0.729,2.018,1.418,3.191,2.055c0.037,0.021,0.074,0.039,0.111,0.059
				v-29.046L318.336,338.365z"/>
			<path style="fill:#F2B643;" d="M377.782,339.404v27.262c0.096-0.053,0.193-0.105,0.287-0.159
				c1.082-0.623,2.084-1.356,3.016-2.175v-24.87L377.782,339.404z"/>
			<path style="fill:#D89932;" d="M381.084,339.461v24.87c1.232-1.085,2.334-2.32,3.303-3.665V339.52L381.084,339.461z"/>
			<path style="fill:#D89932;" d="M374.479,339.346v28.813c1.268-0.484,2.379-0.984,3.303-1.494v-27.262L374.479,339.346z"/>
			<path style="fill:#D89932;" d="M389.575,339.609l-1.885-0.033v14.985C389.721,349.415,390.333,343.837,389.575,339.609z"/>
			<path style="fill:#F2B643;" d="M371.176,339.289v29.984c1.189-0.356,2.297-0.729,3.303-1.113v-28.813L371.176,339.289z"/>
			<path style="fill:#F2B643;" d="M357.965,339.057v32.882c1.123-0.137,2.225-0.293,3.303-0.464v-32.361L357.965,339.057z"/>
			<path style="fill:#F2B643;" d="M351.362,338.941v33.57c1.109-0.058,2.211-0.132,3.301-0.228v-33.285L351.362,338.941z"/>
			<path style="fill:#D89932;" d="M354.663,339v33.285c1.117-0.097,2.219-0.213,3.303-0.345v-32.882L354.663,339z"/>
			<path style="fill:#D89932;" d="M367.874,339.23v30.934c1.16-0.28,2.262-0.578,3.303-0.891v-29.984L367.874,339.23z"/>
			<path style="fill:#D89932;" d="M361.268,339.115v32.361c1.131-0.18,2.232-0.376,3.305-0.587v-31.716L361.268,339.115z"/>
			<path style="fill:#F2B643;" d="M364.573,339.173v31.716c1.139-0.226,2.242-0.468,3.301-0.726v-30.934L364.573,339.173z"/>
			<path style="fill:#FFFFFF;" d="M346.946,323.911c13.865-0.732,25.949,1.946,34.67,8.96c2.758,2.217,5.666,5.726,5.742,9.43
				c0.158,7.67-8.531,12.196-14.25,14.618c-17.053,7.221-42.492,5.752-55.299-5.188c-2.357-2.011-5.318-5.255-5.318-9.194
				c0-7.367,8.152-11.646,12.975-13.909C331.299,325.888,338.692,324.346,346.946,323.911z M346.307,330.041
				c-4.812,0.602-9.021,1.096-11.695,3.536c-6.574,5.998,4.174,9.468,9.145,10.373c2.215,0.403,13.525,1.286,13.4,4.245
				c-0.152,3.576-11.117,2.879-13.826,1.413c-1.248-0.675-1.602-1.81-2.766-2.594c-3.203,0.223-6.02,0.872-9.357,0.943
				c0.461,2.803,3.133,4.192,5.742,5.188c2.732,1.043,6.148,1.74,9.57,1.65c0,1.179,0,2.357,0,3.536c2.197,0,4.396,0,6.594,0
				c0.139-1.104-0.277-2.822,0.213-3.536c5.879-0.393,13.789-1.243,15.314-5.894c1.979-6.034-6.865-7.395-11.059-8.253
				c-1.844-0.376-4.42-0.902-7.232-1.414c-2.01-0.366-6.285-0.614-6.168-2.829c0.184-3.542,9.781-2.273,11.697-1.179
				c1.277,0.729,1.424,1.884,2.766,2.121c2.678,0.475,5.717-1.745,8.295-1.649c-1.959-3.881-8.01-5.27-13.826-5.658
				c0-0.865,0-1.729,0-2.594c-2.197,0-4.396,0-6.594,0C346.387,328.241,346.795,329.636,346.307,330.041z"/>
			<g>
				<path style="fill:#D89932;" d="M350.088,362.406c-10.326,0-20.07-2.04-27.432-5.745c-7.898-3.973-12.248-9.48-12.248-15.506
					c0-4.276,4.35-10.118,12.248-14.093c7.361-3.704,17.105-5.743,27.432-5.743c10.328,0,20.072,2.039,27.436,5.743
					c7.896,3.975,12.246,10.132,12.246,14.093c0,6.025-4.35,11.533-12.246,15.506C370.161,360.366,360.417,362.406,350.088,362.406z
					 M350.088,324.62c-9.732,0-18.852,1.89-25.676,5.322c-6.197,3.118-9.75,7.204-9.75,11.213c0,4.008,3.553,8.094,9.75,11.213
					c6.824,3.432,15.943,5.323,25.676,5.323c9.734,0,18.854-1.892,25.676-5.323c6.199-3.119,9.752-7.205,9.752-11.213
					c0-4.009-3.553-8.095-9.752-11.213C368.942,326.509,359.823,324.62,350.088,324.62z"/>
			</g>
			<ellipse style="fill:#F2B643;" cx="350.088" cy="343.953" rx="36.748" ry="20.039"/>
			<path style="fill:#2D404E;" d="M346.811,328.714c2.018,0,4.035,0,6.055,0c0,0.794,0,1.587,0,2.381
				c5.34,0.358,10.893,1.631,12.689,5.194c-2.365-0.087-5.154,1.951-7.613,1.515c-1.23-0.218-1.365-1.278-2.539-1.948
				c-1.758-1.003-10.57-2.168-10.74,1.083c-0.104,2.033,3.82,2.263,5.664,2.598c2.58,0.47,4.947,0.953,6.637,1.298
				c3.852,0.788,11.971,2.037,10.154,7.576c-1.4,4.27-8.66,5.05-14.059,5.41c-0.449,0.655-0.068,2.231-0.193,3.247
				c-2.02,0-4.037,0-6.055,0c0-1.082,0-2.165,0-3.247c-3.143,0.083-6.277-0.558-8.785-1.514c-2.396-0.915-4.848-2.189-5.271-4.762
				c3.064-0.067,5.65-0.663,8.59-0.867c1.066,0.72,1.393,1.762,2.539,2.382c2.486,1.344,12.553,1.985,12.691-1.3
				c0.115-2.715-10.268-3.526-12.301-3.896c-4.564-0.831-14.43-4.017-8.396-9.522c2.455-2.24,6.32-2.695,10.74-3.247
				C347.063,330.724,346.688,329.443,346.811,328.714z"/>
		</g>
		<path style="opacity:0.12;fill:#2D404E;enable-background:new    ;" d="M310.409,337.553c0,0,3.281,14.806,19.148,19.845
			c15.867,5.038,35.189,1.415,43.551-1.648c8.361-3.062,13.742-11.521,15.174-18.255L310.409,337.553z"/>
		<g>
			<path style="fill:#D89932;" d="M389.575,324.172l-78.578-1.374c0,0-6.52,19.914,10.531,29.174
				c17.051,9.261,47.252,4.44,56.541-0.903C387.358,345.725,391.047,332.397,389.575,324.172z"/>
			<path style="fill:#D89932;" d="M328.243,323.1v31.639c1.076,0.331,2.18,0.623,3.303,0.881V323.16L328.243,323.1z"/>
			<path style="fill:#F2B643;" d="M331.545,323.159v32.461c1.084,0.25,2.186,0.465,3.303,0.651v-33.054L331.545,323.159z"/>
			<path style="fill:#F2B643;" d="M338.151,323.274v33.456c1.094,0.124,2.195,0.221,3.303,0.295v-33.694L338.151,323.274z"/>
			<path style="fill:#D89932;" d="M348.059,323.447v33.738c1.105-0.018,2.207-0.055,3.303-0.11v-33.57L348.059,323.447z"/>
			<path style="fill:#D89932;" d="M341.454,323.331v33.694c1.098,0.071,2.199,0.12,3.303,0.146V323.39L341.454,323.331z"/>
			<path style="fill:#F2B643;" d="M344.756,323.389v33.781c1.102,0.027,2.205,0.03,3.303,0.015v-33.738L344.756,323.389z"/>
			<path style="fill:#D89932;" d="M334.848,323.217v33.054c1.088,0.182,2.191,0.334,3.303,0.459v-33.456L334.848,323.217z"/>
			<path style="fill:#D89932;" d="M315.034,322.87v23.965c0.938,1.083,2.031,2.118,3.303,3.083v-26.99L315.034,322.87z"/>
			<path style="fill:#D89932;" d="M321.639,322.985v29.046c1.053,0.566,2.156,1.08,3.303,1.544v-30.531L321.639,322.985z"/>
			<path style="fill:#F2B643;" d="M324.942,323.043v30.531c1.066,0.432,2.17,0.818,3.301,1.164v-31.639L324.942,323.043z"/>
			<path style="fill:#F2B643;" d="M318.336,322.927v26.99c0.959,0.729,2.018,1.418,3.191,2.055c0.037,0.021,0.074,0.039,0.111,0.059
				v-29.046L318.336,322.927z"/>
			<path style="fill:#F2B643;" d="M377.782,323.966v27.262c0.096-0.053,0.193-0.105,0.287-0.159
				c1.082-0.623,2.084-1.356,3.016-2.175v-24.87L377.782,323.966z"/>
			<path style="fill:#D89932;" d="M381.084,324.024v24.87c1.232-1.085,2.334-2.32,3.303-3.665v-21.146L381.084,324.024z"/>
			<path style="fill:#D89932;" d="M374.479,323.909v28.813c1.268-0.484,2.379-0.984,3.303-1.494v-27.262L374.479,323.909z"/>
			<path style="fill:#D89932;" d="M389.575,324.172l-1.885-0.033v14.985C389.721,333.977,390.333,328.401,389.575,324.172z"/>
			<path style="fill:#F2B643;" d="M371.176,323.852v29.984c1.189-0.356,2.297-0.729,3.303-1.113V323.91L371.176,323.852z"/>
			<path style="fill:#F2B643;" d="M357.965,323.621v32.882c1.123-0.137,2.225-0.293,3.303-0.464v-32.361L357.965,323.621z"/>
			<path style="fill:#F2B643;" d="M351.362,323.504v33.57c1.109-0.058,2.211-0.132,3.301-0.228v-33.285L351.362,323.504z"/>
			<path style="fill:#D89932;" d="M354.663,323.563v33.285c1.117-0.097,2.219-0.213,3.303-0.345V323.62L354.663,323.563z"/>
			<path style="fill:#D89932;" d="M367.874,323.792v30.934c1.16-0.28,2.262-0.578,3.303-0.891V323.85L367.874,323.792z"/>
			<path style="fill:#D89932;" d="M361.268,323.677v32.361c1.131-0.18,2.232-0.376,3.305-0.587v-31.716L361.268,323.677z"/>
			<path style="fill:#F2B643;" d="M364.573,323.736v31.716c1.139-0.226,2.242-0.468,3.301-0.726v-30.934L364.573,323.736z"/>
			<path style="fill:#FFFFFF;" d="M346.946,308.473c13.865-0.732,25.949,1.946,34.67,8.96c2.758,2.217,5.666,5.726,5.742,9.43
				c0.158,7.67-8.531,12.196-14.25,14.618c-17.053,7.221-42.492,5.752-55.299-5.188c-2.357-2.011-5.318-5.255-5.318-9.194
				c0-7.367,8.152-11.646,12.975-13.909C331.299,310.451,338.692,308.909,346.946,308.473z M346.307,314.604
				c-4.812,0.602-9.021,1.096-11.695,3.536c-6.574,5.998,4.174,9.468,9.145,10.373c2.215,0.403,13.525,1.286,13.4,4.245
				c-0.152,3.576-11.117,2.879-13.826,1.413c-1.248-0.675-1.602-1.81-2.766-2.594c-3.203,0.223-6.02,0.872-9.357,0.943
				c0.461,2.803,3.133,4.192,5.742,5.188c2.732,1.043,6.148,1.74,9.57,1.65c0,1.179,0,2.357,0,3.536c2.197,0,4.396,0,6.594,0
				c0.139-1.104-0.277-2.822,0.213-3.536c5.879-0.393,13.789-1.243,15.314-5.894c1.979-6.034-6.865-7.395-11.059-8.253
				c-1.844-0.376-4.42-0.902-7.232-1.414c-2.01-0.366-6.285-0.614-6.168-2.829c0.184-3.542,9.781-2.273,11.697-1.179
				c1.277,0.729,1.424,1.884,2.766,2.121c2.678,0.475,5.717-1.745,8.295-1.649c-1.959-3.881-8.01-5.27-13.826-5.658
				c0-0.865,0-1.729,0-2.594c-2.197,0-4.396,0-6.594,0C346.387,312.803,346.795,314.199,346.307,314.604z"/>
			<g>
				<path style="fill:#D89932;" d="M350.088,346.967c-10.326,0-20.07-2.04-27.432-5.745c-7.898-3.973-12.248-9.48-12.248-15.506
					c0-4.276,4.35-10.118,12.248-14.093c7.361-3.704,17.105-5.743,27.432-5.743c10.328,0,20.072,2.039,27.436,5.743
					c7.896,3.975,12.246,10.132,12.246,14.093c0,6.025-4.35,11.533-12.246,15.506C370.161,344.928,360.417,346.967,350.088,346.967z
					 M350.088,309.182c-9.732,0-18.852,1.89-25.676,5.322c-6.197,3.118-9.75,7.204-9.75,11.213c0,4.008,3.553,8.094,9.75,11.213
					c6.824,3.432,15.943,5.323,25.676,5.323c9.734,0,18.854-1.892,25.676-5.323c6.199-3.119,9.752-7.205,9.752-11.213
					c0-4.009-3.553-8.095-9.752-11.213C368.942,311.072,359.823,309.182,350.088,309.182z"/>
			</g>
			<ellipse style="fill:#F2B643;" cx="350.088" cy="328.516" rx="36.748" ry="20.039"/>
			<path style="fill:#2D404E;" d="M346.811,313.276c2.018,0,4.035,0,6.055,0c0,0.794,0,1.587,0,2.381
				c5.34,0.358,10.893,1.631,12.689,5.194c-2.365-0.087-5.154,1.951-7.613,1.515c-1.23-0.218-1.365-1.278-2.539-1.948
				c-1.758-1.003-10.57-2.168-10.74,1.083c-0.104,2.033,3.82,2.263,5.664,2.598c2.58,0.47,4.947,0.953,6.637,1.298
				c3.852,0.788,11.971,2.037,10.154,7.576c-1.4,4.27-8.66,5.05-14.059,5.41c-0.449,0.655-0.068,2.231-0.193,3.247
				c-2.02,0-4.037,0-6.055,0c0-1.082,0-2.165,0-3.247c-3.143,0.083-6.277-0.558-8.785-1.514c-2.396-0.915-4.848-2.189-5.271-4.762
				c3.064-0.067,5.65-0.663,8.59-0.867c1.066,0.72,1.393,1.762,2.539,2.382c2.486,1.344,12.553,1.985,12.691-1.3
				c0.115-2.715-10.268-3.526-12.301-3.896c-4.564-0.831-14.43-4.017-8.396-9.522c2.455-2.24,6.32-2.695,10.74-3.247
				C347.063,315.287,346.688,314.005,346.811,313.276z"/>
		</g>
		<path style="opacity:0.12;fill:#2D404E;enable-background:new    ;" d="M310.409,322.117c0,0,3.281,14.806,19.148,19.845
			c15.867,5.038,35.189,1.415,43.551-1.648c8.361-3.062,13.742-11.521,15.174-18.255L310.409,322.117z"/>
		<g>
			<path style="fill:#D89932;" d="M389.575,308.735l-78.578-1.374c0,0-6.52,19.914,10.531,29.174
				c17.051,9.261,47.252,4.44,56.541-0.903C387.358,330.289,391.047,316.96,389.575,308.735z"/>
			<path style="fill:#D89932;" d="M328.243,307.663v31.639c1.076,0.331,2.18,0.623,3.303,0.881v-32.461L328.243,307.663z"/>
			<path style="fill:#F2B643;" d="M331.545,307.721v32.461c1.084,0.25,2.186,0.465,3.303,0.651v-33.054L331.545,307.721z"/>
			<path style="fill:#F2B643;" d="M338.151,307.836v33.456c1.094,0.124,2.195,0.221,3.303,0.295v-33.694L338.151,307.836z"/>
			<path style="fill:#D89932;" d="M348.059,308.009v33.738c1.105-0.018,2.207-0.055,3.303-0.11v-33.57L348.059,308.009z"/>
			<path style="fill:#D89932;" d="M341.454,307.893v33.694c1.098,0.071,2.199,0.12,3.303,0.146v-33.781L341.454,307.893z"/>
			<path style="fill:#F2B643;" d="M344.756,307.952v33.781c1.102,0.027,2.205,0.03,3.303,0.015V308.01L344.756,307.952z"/>
			<path style="fill:#D89932;" d="M334.848,307.78v33.054c1.088,0.182,2.191,0.334,3.303,0.459v-33.456L334.848,307.78z"/>
			<path style="fill:#D89932;" d="M315.034,307.432v23.965c0.938,1.083,2.031,2.118,3.303,3.083v-26.99L315.034,307.432z"/>
			<path style="fill:#D89932;" d="M321.639,307.547v29.046c1.053,0.566,2.156,1.08,3.303,1.544v-30.531L321.639,307.547z"/>
			<path style="fill:#F2B643;" d="M324.942,307.606v30.531c1.066,0.432,2.17,0.818,3.301,1.164v-31.639L324.942,307.606z"/>
			<path style="fill:#F2B643;" d="M318.336,307.49v26.99c0.959,0.729,2.018,1.418,3.191,2.055c0.037,0.021,0.074,0.039,0.111,0.059
				v-29.046L318.336,307.49z"/>
			<path style="fill:#F2B643;" d="M377.782,308.529v27.262c0.096-0.053,0.193-0.105,0.287-0.159
				c1.082-0.623,2.084-1.356,3.016-2.175v-24.87L377.782,308.529z"/>
			<path style="fill:#D89932;" d="M381.084,308.586v24.87c1.232-1.085,2.334-2.32,3.303-3.665v-21.146L381.084,308.586z"/>
			<path style="fill:#D89932;" d="M374.479,308.471v28.813c1.268-0.484,2.379-0.984,3.303-1.494V308.53L374.479,308.471z"/>
			<path style="fill:#D89932;" d="M389.575,308.735l-1.885-0.033v14.985C389.721,318.54,390.333,312.964,389.575,308.735z"/>
			<path style="fill:#F2B643;" d="M371.176,308.414v29.984c1.189-0.356,2.297-0.729,3.303-1.113v-28.813L371.176,308.414z"/>
			<path style="fill:#F2B643;" d="M357.965,308.184v32.882c1.123-0.137,2.225-0.293,3.303-0.464V308.24L357.965,308.184z"/>
			<path style="fill:#F2B643;" d="M351.362,308.067v33.57c1.109-0.058,2.211-0.132,3.301-0.228v-33.285L351.362,308.067z"/>
			<path style="fill:#D89932;" d="M354.663,308.125v33.285c1.117-0.097,2.219-0.213,3.303-0.345v-32.882L354.663,308.125z"/>
			<path style="fill:#D89932;" d="M367.874,308.355v30.934c1.16-0.28,2.262-0.578,3.303-0.891v-29.984L367.874,308.355z"/>
			<path style="fill:#D89932;" d="M361.268,308.24v32.36c1.131-0.18,2.232-0.376,3.305-0.587v-31.716L361.268,308.24z"/>
			<path style="fill:#F2B643;" d="M364.573,308.298v31.716c1.139-0.226,2.242-0.468,3.301-0.726v-30.934L364.573,308.298z"/>
			<path style="fill:#FFFFFF;" d="M346.946,293.036c13.865-0.732,25.949,1.946,34.67,8.96c2.758,2.217,5.666,5.726,5.742,9.43
				c0.158,7.67-8.531,12.196-14.25,14.618c-17.053,7.221-42.492,5.752-55.299-5.188c-2.357-2.011-5.318-5.255-5.318-9.194
				c0-7.367,8.152-11.646,12.975-13.909C331.299,295.013,338.692,293.471,346.946,293.036z M346.307,299.167
				c-4.812,0.602-9.021,1.096-11.695,3.536c-6.574,5.998,4.174,9.468,9.145,10.373c2.215,0.403,13.525,1.286,13.4,4.245
				c-0.152,3.576-11.117,2.879-13.826,1.413c-1.248-0.675-1.602-1.81-2.766-2.594c-3.203,0.223-6.02,0.872-9.357,0.943
				c0.461,2.803,3.133,4.192,5.742,5.188c2.732,1.043,6.148,1.74,9.57,1.65c0,1.179,0,2.357,0,3.536c2.197,0,4.396,0,6.594,0
				c0.139-1.104-0.277-2.822,0.213-3.536c5.879-0.393,13.789-1.243,15.314-5.894c1.979-6.034-6.865-7.395-11.059-8.253
				c-1.844-0.376-4.42-0.902-7.232-1.414c-2.01-0.366-6.285-0.614-6.168-2.829c0.184-3.542,9.781-2.273,11.697-1.179
				c1.277,0.729,1.424,1.884,2.766,2.121c2.678,0.475,5.717-1.745,8.295-1.649c-1.959-3.881-8.01-5.27-13.826-5.658
				c0-0.865,0-1.729,0-2.594c-2.197,0-4.396,0-6.594,0C346.387,297.366,346.795,298.761,346.307,299.167z"/>
			<g>
				<path style="fill:#D89932;" d="M350.088,331.531c-10.326,0-20.07-2.04-27.432-5.745c-7.898-3.973-12.248-9.48-12.248-15.506
					c0-4.276,4.35-10.118,12.248-14.093c7.361-3.704,17.105-5.743,27.432-5.743c10.328,0,20.072,2.039,27.436,5.743
					c7.896,3.975,12.246,10.132,12.246,14.093c0,6.025-4.35,11.533-12.246,15.506C370.161,329.491,360.417,331.531,350.088,331.531z
					 M350.088,293.745c-9.732,0-18.852,1.89-25.676,5.322c-6.197,3.118-9.75,7.204-9.75,11.213c0,4.008,3.553,8.094,9.75,11.213
					c6.824,3.432,15.943,5.323,25.676,5.323c9.734,0,18.854-1.892,25.676-5.323c6.199-3.119,9.752-7.205,9.752-11.213
					c0-4.009-3.553-8.095-9.752-11.213C368.942,295.634,359.823,293.745,350.088,293.745z"/>
			</g>
			<ellipse style="fill:#F2B643;" cx="350.088" cy="313.078" rx="36.748" ry="20.039"/>
			<path style="fill:#2D404E;" d="M346.811,297.839c2.018,0,4.035,0,6.055,0c0,0.794,0,1.587,0,2.381
				c5.34,0.358,10.893,1.631,12.689,5.194c-2.365-0.087-5.154,1.951-7.613,1.515c-1.23-0.218-1.365-1.278-2.539-1.948
				c-1.758-1.003-10.57-2.168-10.74,1.083c-0.104,2.033,3.82,2.263,5.664,2.598c2.58,0.47,4.947,0.953,6.637,1.298
				c3.852,0.788,11.971,2.037,10.154,7.576c-1.4,4.27-8.66,5.05-14.059,5.41c-0.449,0.655-0.068,2.231-0.193,3.247
				c-2.02,0-4.037,0-6.055,0c0-1.082,0-2.165,0-3.247c-3.143,0.083-6.277-0.558-8.785-1.514c-2.396-0.915-4.848-2.189-5.271-4.762
				c3.064-0.067,5.65-0.663,8.59-0.867c1.066,0.72,1.393,1.762,2.539,2.382c2.486,1.344,12.553,1.985,12.691-1.3
				c0.115-2.715-10.268-3.526-12.301-3.896c-4.564-0.831-14.43-4.017-8.396-9.522c2.455-2.24,6.32-2.695,10.74-3.247
				C347.063,299.849,346.688,298.568,346.811,297.839z"/>
		</g>
		<path style="opacity:0.12;fill:#2D404E;enable-background:new    ;" d="M310.409,306.679c0,0,3.281,14.806,19.148,19.845
			c15.867,5.038,35.189,1.415,43.551-1.648c8.361-3.062,13.742-11.521,15.174-18.255L310.409,306.679z"/>
		<g>
			<path style="fill:#D89932;" d="M389.575,293.297l-78.578-1.374c0,0-6.52,19.914,10.531,29.174
				c17.051,9.261,47.252,4.44,56.541-0.903S391.047,301.522,389.575,293.297z"/>
			<path style="fill:#D89932;" d="M328.243,292.225v31.639c1.076,0.331,2.18,0.623,3.303,0.881v-32.461L328.243,292.225z"/>
			<path style="fill:#F2B643;" d="M331.545,292.284v32.461c1.084,0.25,2.186,0.465,3.303,0.651v-33.054L331.545,292.284z"/>
			<path style="fill:#F2B643;" d="M338.151,292.399v33.456c1.094,0.124,2.195,0.221,3.303,0.295v-33.694L338.151,292.399z"/>
			<path style="fill:#D89932;" d="M348.059,292.572v33.738c1.105-0.018,2.207-0.055,3.303-0.11v-33.57L348.059,292.572z"/>
			<path style="fill:#D89932;" d="M341.454,292.456v33.694c1.098,0.071,2.199,0.12,3.303,0.146v-33.781L341.454,292.456z"/>
			<path style="fill:#F2B643;" d="M344.756,292.514v33.781c1.102,0.027,2.205,0.03,3.303,0.015v-33.738L344.756,292.514z"/>
			<path style="fill:#D89932;" d="M334.848,292.342v33.054c1.088,0.182,2.191,0.334,3.303,0.459V292.4L334.848,292.342z"/>
			<path style="fill:#D89932;" d="M315.034,291.995v23.965c0.938,1.083,2.031,2.118,3.303,3.083v-26.99L315.034,291.995z"/>
			<path style="fill:#D89932;" d="M321.639,292.11v29.046c1.053,0.566,2.156,1.08,3.303,1.544v-30.531L321.639,292.11z"/>
			<path style="fill:#F2B643;" d="M324.942,292.168v30.531c1.066,0.432,2.17,0.818,3.301,1.164v-31.639L324.942,292.168z"/>
			<path style="fill:#F2B643;" d="M318.336,292.052v26.99c0.959,0.729,2.018,1.418,3.191,2.055c0.037,0.021,0.074,0.039,0.111,0.059
				V292.11L318.336,292.052z"/>
			<path style="fill:#F2B643;" d="M377.782,293.091v27.262c0.096-0.053,0.193-0.105,0.287-0.159
				c1.082-0.623,2.084-1.356,3.016-2.175v-24.87L377.782,293.091z"/>
			<path style="fill:#D89932;" d="M381.084,293.149v24.87c1.232-1.085,2.334-2.32,3.303-3.665v-21.146L381.084,293.149z"/>
			<path style="fill:#D89932;" d="M374.479,293.034v28.813c1.268-0.484,2.379-0.984,3.303-1.494v-27.262L374.479,293.034z"/>
			<path style="fill:#D89932;" d="M389.575,293.297l-1.885-0.033v14.985C389.721,303.102,390.333,297.526,389.575,293.297z"/>
			<path style="fill:#F2B643;" d="M371.176,292.977v29.984c1.189-0.356,2.297-0.729,3.303-1.113v-28.813L371.176,292.977z"/>
			<path style="fill:#F2B643;" d="M357.965,292.746v32.882c1.123-0.137,2.225-0.293,3.303-0.464v-32.361L357.965,292.746z"/>
			<path style="fill:#F2B643;" d="M351.362,292.629v33.57c1.109-0.058,2.211-0.132,3.301-0.228v-33.285L351.362,292.629z"/>
			<path style="fill:#D89932;" d="M354.663,292.688v33.285c1.117-0.097,2.219-0.213,3.303-0.345v-32.882L354.663,292.688z"/>
			<path style="fill:#D89932;" d="M367.874,292.917v30.934c1.16-0.28,2.262-0.578,3.303-0.891v-29.984L367.874,292.917z"/>
			<path style="fill:#D89932;" d="M361.268,292.802v32.361c1.131-0.18,2.232-0.376,3.305-0.587V292.86L361.268,292.802z"/>
			<path style="fill:#F2B643;" d="M364.573,292.861v31.716c1.139-0.226,2.242-0.468,3.301-0.726v-30.934L364.573,292.861z"/>
			<path style="fill:#FFFFFF;" d="M346.946,277.598c13.865-0.732,25.949,1.946,34.67,8.96c2.758,2.217,5.666,5.726,5.742,9.43
				c0.158,7.67-8.531,12.196-14.25,14.618c-17.053,7.221-42.492,5.752-55.299-5.188c-2.357-2.011-5.318-5.255-5.318-9.194
				c0-7.367,8.152-11.646,12.975-13.909C331.299,279.576,338.692,278.034,346.946,277.598z M346.307,283.729
				c-4.812,0.602-9.021,1.096-11.695,3.536c-6.574,5.998,4.174,9.468,9.145,10.373c2.215,0.403,13.525,1.286,13.4,4.245
				c-0.152,3.576-11.117,2.879-13.826,1.413c-1.248-0.675-1.602-1.81-2.766-2.594c-3.203,0.223-6.02,0.872-9.357,0.943
				c0.461,2.803,3.133,4.192,5.742,5.188c2.732,1.043,6.148,1.74,9.57,1.65c0,1.179,0,2.357,0,3.536c2.197,0,4.396,0,6.594,0
				c0.139-1.104-0.277-2.822,0.213-3.536c5.879-0.393,13.789-1.243,15.314-5.894c1.979-6.034-6.865-7.395-11.059-8.253
				c-1.844-0.376-4.42-0.902-7.232-1.414c-2.01-0.366-6.285-0.614-6.168-2.829c0.184-3.542,9.781-2.273,11.697-1.179
				c1.277,0.729,1.424,1.884,2.766,2.121c2.678,0.475,5.717-1.745,8.295-1.649c-1.959-3.881-8.01-5.27-13.826-5.658
				c0-0.865,0-1.729,0-2.594c-2.197,0-4.396,0-6.594,0C346.387,281.928,346.795,283.324,346.307,283.729z"/>
			<g>
				<path style="fill:#D89932;" d="M350.088,316.093c-10.326,0-20.07-2.04-27.432-5.745c-7.898-3.973-12.248-9.48-12.248-15.506
					c0-4.276,4.35-10.118,12.248-14.093c7.361-3.704,17.105-5.743,27.432-5.743c10.328,0,20.072,2.039,27.436,5.743
					c7.896,3.975,12.246,10.132,12.246,14.093c0,6.025-4.35,11.533-12.246,15.506C370.161,314.053,360.417,316.093,350.088,316.093z
					 M350.088,278.307c-9.732,0-18.852,1.89-25.676,5.322c-6.197,3.118-9.75,7.204-9.75,11.213c0,4.008,3.553,8.094,9.75,11.213
					c6.824,3.432,15.943,5.323,25.676,5.323c9.734,0,18.854-1.892,25.676-5.323c6.199-3.119,9.752-7.205,9.752-11.213
					c0-4.009-3.553-8.095-9.752-11.213C368.942,280.197,359.823,278.307,350.088,278.307z"/>
			</g>
			<ellipse style="fill:#F2B643;" cx="350.088" cy="297.641" rx="36.748" ry="20.039"/>
			<path style="fill:#9D6227;" d="M346.811,282.401c2.018,0,4.035,0,6.055,0c0,0.794,0,1.587,0,2.381
				c5.34,0.358,10.893,1.631,12.689,5.194c-2.365-0.087-5.154,1.951-7.613,1.515c-1.23-0.218-1.365-1.278-2.539-1.948
				c-1.758-1.003-10.57-2.168-10.74,1.083c-0.104,2.033,3.82,2.263,5.664,2.598c2.58,0.47,4.947,0.953,6.637,1.298
				c3.852,0.788,11.971,2.037,10.154,7.576c-1.4,4.27-8.66,5.05-14.059,5.41c-0.449,0.655-0.068,2.231-0.193,3.247
				c-2.02,0-4.037,0-6.055,0c0-1.082,0-2.165,0-3.247c-3.143,0.083-6.277-0.558-8.785-1.514c-2.396-0.915-4.848-2.189-5.271-4.762
				c3.064-0.067,5.65-0.663,8.59-0.867c1.066,0.72,1.393,1.762,2.539,2.382c2.486,1.344,12.553,1.985,12.691-1.3
				c0.115-2.715-10.268-3.526-12.301-3.896c-4.564-0.831-14.43-4.017-8.396-9.522c2.455-2.24,6.32-2.695,10.74-3.247
				C347.063,284.412,346.688,283.13,346.811,282.401z"/>
		</g>
	</g>
	<path style="opacity:0.2;fill:#2D404E;enable-background:new    ;" d="M370.01,337.285c0,0-24.656,14.34-25.254,35.323
		c-0.596,20.983,8.256,30.081,8.256,30.081s9.283-0.802,19.012-3.701L370.01,337.285z"/>
	<g>
		<path style="fill:#F2B643;" d="M354.92,380.734h48.781v-4.102h-50.033C354.006,378.031,354.424,379.401,354.92,380.734z"/>
		<path style="fill:#D89932;" d="M429.602,380.734c0.496-1.334,0.914-2.703,1.252-4.102h-27.152v4.102H429.602z"/>
		<path style="fill:#F2B643;" d="M352.67,368.427c0.006,1.388,0.096,2.756,0.258,4.103h50.773v-4.103H352.67z"/>
		<path style="fill:#D89932;" d="M431.854,368.427h-28.152v4.103h27.893C431.756,371.182,431.846,369.815,431.854,368.427z"/>
		<path style="fill:#F2B643;" d="M372.848,335.607c-2.211,1.181-4.291,2.556-6.215,4.103h37.068v-4.103H372.848z"/>
		<path style="fill:#D89932;" d="M411.67,335.607h-7.969v4.103h14.186C415.965,338.163,413.885,336.788,411.67,335.607z"/>
		<path style="fill:#F2B643;" d="M362.27,343.811c-1.18,1.294-2.266,2.664-3.25,4.103h44.682v-4.103H362.27z"/>
		<path style="fill:#D89932;" d="M422.252,343.811h-18.551v4.103h21.801C424.516,346.475,423.43,345.105,422.252,343.811z"/>
		<path style="fill:#F2B643;" d="M353.588,360.221c-0.311,1.343-0.551,2.71-0.705,4.103h50.818v-4.103H353.588z"/>
		<path style="fill:#D89932;" d="M430.934,360.221h-27.232v4.103h27.938C431.485,362.932,431.245,361.565,430.934,360.221z"/>
		<path style="fill:#F2B643;" d="M356.571,352.017c-0.676,1.324-1.26,2.698-1.77,4.103h48.9v-4.103H356.571z"/>
		<path style="fill:#D89932;" d="M427.952,352.017h-24.25v4.103h26.018C429.211,354.715,428.627,353.341,427.952,352.017z"/>
		<path style="fill:#D89932;" d="M353.668,376.633h77.186c0.322-1.342,0.572-2.71,0.74-4.104h-78.666
			C353.096,373.923,353.346,375.29,353.668,376.633z"/>
		<path style="fill:#F2B643;" d="M359.245,388.941h66.033c0.92-1.312,1.752-2.683,2.494-4.103h-71.023
			C357.493,386.258,358.325,387.628,359.245,388.941z"/>
		<path style="fill:#D89932;" d="M356.749,384.837h71.023c0.693-1.326,1.305-2.694,1.83-4.104H354.92
			C355.446,382.143,356.057,383.512,356.749,384.837z"/>
		<path style="fill:#D89932;" d="M373.469,401.249h37.582c2.289-1.169,4.443-2.546,6.432-4.103H367.04
			C369.028,398.703,371.18,400.079,373.469,401.249z"/>
		<path style="fill:#D89932;" d="M362.575,393.043h59.373c1.205-1.293,2.32-2.662,3.33-4.103h-66.033
			C360.254,390.38,361.368,391.75,362.575,393.043z"/>
		<path style="fill:#D89932;" d="M392.26,405.73c6.801,0,13.199-1.625,18.791-4.482h-37.582
			C379.061,404.105,385.459,405.73,392.26,405.73z"/>
		<path style="fill:#F2B643;" d="M367.04,397.146h50.443c1.602-1.254,3.09-2.629,4.465-4.103h-59.373
			C363.95,394.517,365.438,395.892,367.04,397.146z"/>
		<path style="fill:#D89932;" d="M362.27,343.811h59.982c-1.342-1.472-2.801-2.844-4.365-4.103h-51.254
			C365.069,340.967,363.612,342.34,362.27,343.811z"/>
		<path style="fill:#D89932;" d="M352.665,368.26c0,0.056,0.006,0.11,0.006,0.166h79.184c0-0.056,0.004-0.11,0.004-0.166
			c0-1.329-0.076-2.643-0.219-3.937h-78.756C352.741,365.618,352.665,366.932,352.665,368.26z"/>
		<path style="fill:#D89932;" d="M392.26,330.791c-7.055,0-13.674,1.755-19.412,4.815h38.822
			C405.934,332.546,399.315,330.791,392.26,330.791z"/>
		<path style="fill:#D89932;" d="M356.571,352.017h71.381c-0.723-1.421-1.549-2.787-2.449-4.103h-66.482
			C358.12,349.23,357.293,350.596,356.571,352.017z"/>
		<path style="fill:#D89932;" d="M353.588,360.221h77.346c-0.324-1.398-0.73-2.767-1.215-4.103h-74.918
			C354.319,357.456,353.913,358.824,353.588,360.221z"/>
		<circle style="fill:#F2B643;stroke:#D89932;stroke-width:2;" cx="394.565" cy="369.366" r="35.201"/>
		<g>
			<path style="fill:#9D6227;" d="M390.874,393.733v-5.675c-4.664-0.179-9.191-1.313-11.84-2.569l2.088-6.985
				c2.926,1.373,7.037,2.626,11.564,2.626c4.037,0,6.754-1.372,6.754-3.701c0-2.269-2.227-3.704-7.453-5.196
				c-7.451-2.15-12.535-5.135-12.535-10.928c0-5.316,4.318-9.437,11.771-10.632V345h6.824v5.257
				c4.598,0.119,7.729,1.015,10.168,1.971l-2.09,6.748c-1.742-0.718-5.014-2.092-10.027-2.092c-4.527,0-5.99,1.733-5.99,3.404
				c0,1.912,2.438,3.226,8.428,5.076c8.287,2.509,11.561,5.793,11.561,11.229c0,5.315-4.32,9.853-12.328,10.988v6.152
				L390.874,393.733L390.874,393.733z"/>
		</g>
	</g>
	<path style="opacity:0.27;fill:#E2E5E7;enable-background:new    ;" d="M71.334,98.269c-3.867,0-7,3.225-7,7.204v240.781h191.6
		L341.327,98.27L71.334,98.269L71.334,98.269z"/>
</g>
<g>
</g>
<g>
</g>
<g>
</g>
<g>
</g>
<g>
</g>
<g>
</g>
<g>
</g>
<g>
</g>
<g>
</g>
<g>
</g>
<g>
</g>
<g>
</g>
<g>
</g>
<g>
</g>
<g>
</g>
</svg>
