<svg height="512pt" viewBox="0 0 512 512.00014" width="512pt" xmlns="http://www.w3.org/2000/svg"><path d="m512 256c0 141.386719-114.613281 256-256 256s-256-114.613281-256-256c0-141.382812 114.613281-256 256-256s256 114.617188 256 256zm0 0" fill="#69ebfc"/><path d="m256 14c139.042969 0 252.191406 110.851562 255.902344 249 .0625-2.324219.097656-4.65625.097656-7 0-141.382812-114.617188-256-256-256s-256 114.617188-256 256c0 2.34375.0351562 4.675781.0976562 7 3.7109378-138.148438 116.8593748-249 255.9023438-249zm0 0" fill="#a1f1fc"/><path d="m256 498c-139.042969 0-252.191406-110.851562-255.9023438-249-.0625 2.324219-.0976562 4.65625-.0976562 7 0 141.382812 114.617188 256 256 256s256-114.617188 256-256c0-2.34375-.035156-4.675781-.097656-7-3.710938 138.148438-116.859375 249-255.902344 249zm0 0" fill="#5fd4e3"/><path d="m476.644531 256c0 121.859375-98.785156 220.644531-220.644531 220.644531s-220.644531-98.785156-220.644531-220.644531 98.785156-220.644531 220.644531-220.644531 220.644531 98.785156 220.644531 220.644531zm0 0" fill="#ffefe4"/><path d="m256 82.816406c-95.492188 0-173.183594 77.691406-173.183594 173.183594 0 8.285156 6.714844 15 15 15s15-6.714844 15-15c0-78.953125 64.230469-143.183594 143.183594-143.183594s143.183594 64.230469 143.183594 143.183594-64.230469 143.183594-143.183594 143.183594c-44.367188 0-85.292969-20.214844-112.148438-54.121094l13.976563 3.746094c8 2.140625 16.226563-2.605469 18.371094-10.605469 2.144531-8.003906-2.601563-16.230469-10.605469-18.371094l-46.375-12.429687c-8-2.132813-16.226562 2.605468-18.371094 10.609375l-12.425781 46.371093c-2.144531 8.003907 2.605469 16.230469 10.605469 18.375 1.300781.347657 2.605468.511719 3.894531.511719 6.621094 0 12.683594-4.417969 14.476563-11.121093l2.4375-9.089844c32.46875 41.410156 82.210937 66.125 136.164062 66.125 95.492188 0 173.183594-77.691406 173.183594-173.183594 0-95.496094-77.691406-173.183594-173.183594-173.183594zm0 0" fill="#edd4c2"/><path d="m370.445312 347.816406-98.445312-98.441406v-164.117188c0-8.835937-7.164062-16-16-16s-16 7.164063-16 16v170.738282c0 .527344.027344 1.054687.078125 1.585937.023437.226563.066406.449219.101563.675781.039062.289063.074218.582032.128906.867188.054687.265625.128906.523438.191406.78125.0625.246094.117188.492188.191406.738281.078125.257813.175782.507813.265625.757813.085938.242187.164063.480468.261719.71875.097656.238281.214844.464844.324219.695312.113281.242188.21875.484375.34375.71875.125.230469.261719.445313.394531.664063.136719.226562.261719.457031.410156.675781.164063.25.347656.484375.527344.722656.136719.179688.257812.363282.402344.535156.339844.414063.695312.808594 1.070312 1.183594l103.125 103.125c3.125 3.121094 7.21875 4.683594 11.3125 4.683594 4.097656 0 8.191406-1.5625 11.316406-4.683594 6.25-6.242187 6.25-16.375 0-22.625zm0 0" fill="#69ebfc"/><path d="m284.75 256c0 15.878906-12.871094 28.75-28.75 28.75s-28.75-12.871094-28.75-28.75 12.871094-28.75 28.75-28.75 28.75 12.871094 28.75 28.75zm0 0" fill="#5fd4e3"/><path d="m512 90.441406c0 49.949219-40.492188 90.4375-90.441406 90.4375-49.945313 0-90.4375-40.488281-90.4375-90.4375 0-49.949218 40.492187-90.441406 90.4375-90.441406 49.949218 0 90.441406 40.492188 90.441406 90.441406zm0 0" fill="#d476e2"/><path d="m421.398438 9.226562c48.464843-.085937 88.085937 37.964844 90.480468 85.847657.082032-1.585938.125-3.1875.121094-4.792969-.089844-49.949219-40.652344-90.3671875-90.601562-90.28125-49.945313.0898438-90.367188 40.652344-90.277344 90.601562 0 1.484376.046875 2.960938.117187 4.429688 2.410157-47.722656 41.820313-85.71875 90.160157-85.804688zm0 0" fill="#ea82fa"/><g fill="#ffefe4"><path d="m365.132812 120.867188c0-2.566407 1.035157-5.027344 2.859376-6.832032 3.410156-3.363281 6.613281-6.539062 9.601562-9.53125 1.601562-1.601562 3.238281-3.238281 4.917969-4.914062 1.675781-1.675782 3.238281-3.242188 4.6875-4.691406 1.445312-1.445313 2.742187-2.761719 3.886719-3.941407 1.144531-1.183593 2.019531-2.117187 2.628906-2.804687 1.21875-1.445313 2.304687-2.742188 3.257812-3.886719s1.714844-2.265625 2.289063-3.375c.570312-1.101563 1.007812-2.207031 1.3125-3.316406.304687-1.101563.460937-2.300781.460937-3.601563 0-2.515625-.992187-4.703125-2.976562-6.574218-1.980469-1.863282-4.6875-2.800782-8.117188-2.800782-2.519531 0-6.503906 1.441406-9.363281 4.917969-2.0625 2.507813-5.546875 3.332031-8.550781 2.09375-4.648438-1.914063-6.101563-7.769531-2.925782-11.664063 1.34375-1.652343 2.664063-2.90625 3.574219-3.636718 2.132813-1.714844 4.667969-3.125 7.601563-4.230469s6.234375-1.65625 9.890625-1.65625c3.960937 0 7.546875.589844 10.75 1.769531 3.199219 1.183594 5.902343 2.804688 8.117187 4.859375 2.207032 2.058594 3.925782 4.480469 5.144532 7.261719 1.21875 2.785156 1.832031 5.777344 1.832031 8.976562 0 4.878907-1.203125 9.359376-3.605469 13.4375-2.398438 4.078126-5.3125 7.871094-8.746094 11.375l-9.835937 9.832032c-2.589844 2.59375-5.527344 5.488281-8.800781 8.691406l.457031.683594h25.097656c3.632813 0 6.574219 2.945312 6.574219 6.574218 0 3.632813-2.945313 6.574219-6.574219 6.574219h-35.859375c-5.292969.003907-9.585938-4.289062-9.585938-9.589843zm0 0"/><path d="m453.289062 123.484375v-7.433594h-26.84375c-5.128906 0-9.289062-4.15625-9.289062-9.285156 0-1.847656.550781-3.652344 1.582031-5.183594l30.03125-44.652343c1.964844-2.925782 5.261719-4.679688 8.789063-4.679688 5.851562 0 10.59375 4.742188 10.59375 10.59375v39.257812h2.859375c3.851562 0 6.972656 3.121094 6.972656 6.972657 0 3.855469-3.121094 6.976562-6.972656 6.976562h-2.859375v7.433594c0 3.851563-3.121094 6.972656-6.972656 6.972656h-.917969c-3.851563.003907-6.972657-3.121093-6.972657-6.972656zm0-48.9375h-.914062l-18.636719 27.558594h19.550781zm0 0"/></g></svg>