<svg height="512pt" viewBox="0 0 512 512.108" width="512pt" xmlns="http://www.w3.org/2000/svg"><path d="m462.535156 512.109375h-412.960937c-27.347657 0-49.5195315-22.171875-49.5195315-49.519531v-237.734375c0-27.347657 22.1718745-49.519531 49.5195315-49.519531h412.960937c27.347656 0 49.519532 22.171874 49.519532 49.519531v237.734375c0 27.347656-22.171876 49.519531-49.519532 49.519531zm0 0" fill="#6770e6"/><path d="m462.535156 175.335938h-412.960937c-27.347657 0-49.5195315 22.171874-49.5195315 49.519531v18.882812c0-27.347656 22.1718745-49.519531 49.5195315-49.519531h412.960937c27.347656 0 49.519532 22.171875 49.519532 49.519531v-18.882812c0-27.347657-22.171876-49.519531-49.519532-49.519531zm0 0" fill="#8f95e6"/><path d="m49.574219 512.109375h412.957031c27.351562 0 49.523438-22.171875 49.523438-49.519531v-18.886719c0 27.351563-22.171876 49.519531-49.523438 49.519531h-412.957031c-27.351563 0-49.5195315-22.167968-49.5195315-49.519531v18.886719c0 27.347656 22.1679685 49.519531 49.5195315 49.519531zm0 0" fill="#5861c7"/><path d="m89.6875 233.03125c-1.398438 0-2.578125 1.183594-2.578125 2.582031v50.058594c0 1.398437 1.179687 2.582031 2.578125 2.582031h24.203125c1.402344 0 2.582031-1.183594 2.582031-2.582031v-50.058594c0-1.398437-1.179687-2.582031-2.582031-2.582031zm0 0" fill="#69ebfc"/><path d="m57.113281 246.761719h20.226563v27.765625h-20.226563zm0 0" fill="#69ebfc"/><path d="m126.242188 246.761719h20.226562v27.765625h-20.226562zm0 0" fill="#69ebfc"/><path d="m126.242188 284.296875v1.378906c0 6.808594-5.539063 12.347657-12.351563 12.347657h-24.203125c-6.808594 0-12.347656-5.539063-12.347656-12.347657v-1.378906h-20.226563v7.503906c0 10.8125 8.761719 19.578125 19.574219 19.578125h50.203125c10.8125 0 19.578125-8.765625 19.578125-19.578125v-7.503906zm0 0" fill="#69ebfc"/><path d="m126.890625 209.90625h-50.203125c-10.8125 0-19.574219 8.765625-19.574219 19.578125v7.503906h20.226563v-1.375c0-6.8125 5.535156-12.351562 12.347656-12.351562h24.203125c6.808594 0 12.347656 5.539062 12.347656 12.351562v1.375h20.226563v-7.503906c0-10.808594-8.761719-19.578125-19.574219-19.578125zm0 0" fill="#69ebfc"/><g fill="#8f95e6"><path d="m130.808594 369.671875h-58.039063c-8.613281 0-15.65625-7.046875-15.65625-15.660156s7.042969-15.65625 15.65625-15.65625h58.039063c8.613281 0 15.660156 7.042969 15.660156 15.65625-.003906 8.613281-7.046875 15.660156-15.660156 15.660156zm0 0"/><path d="m183.675781 452.746094h-110.90625c-8.613281 0-15.65625-7.042969-15.65625-15.65625 0-8.613282 7.042969-15.65625 15.65625-15.65625h110.90625c8.609375 0 15.65625 7.042968 15.65625 15.65625 0 8.613281-7.046875 15.65625-15.65625 15.65625zm0 0"/><path d="m233.652344 369.671875h-58.039063c-8.609375 0-15.65625-7.046875-15.65625-15.660156s7.046875-15.65625 15.65625-15.65625h58.039063c8.613281 0 15.660156 7.042969 15.660156 15.65625-.003906 8.613281-7.046875 15.660156-15.660156 15.660156zm0 0"/><path d="m336.496094 369.671875h-58.039063c-8.613281 0-15.660156-7.046875-15.660156-15.660156s7.046875-15.65625 15.660156-15.65625h58.039063c8.613281 0 15.65625 7.042969 15.65625 15.65625s-7.046875 15.660156-15.65625 15.660156zm0 0"/><path d="m439.339844 369.671875h-58.042969c-8.609375 0-15.65625-7.046875-15.65625-15.660156s7.046875-15.65625 15.65625-15.65625h58.042969c8.609375 0 15.65625 7.042969 15.65625 15.65625s-7.046875 15.660156-15.65625 15.660156zm0 0"/></g><path d="m406.03125 437.09375c0 22.335938-18.109375 40.441406-40.445312 40.441406-22.335938 0-40.445313-18.105468-40.445313-40.441406 0-22.339844 18.109375-40.445312 40.445313-40.445312 22.335937 0 40.445312 18.105468 40.445312 40.445312zm0 0" fill="#ff8354"/><path d="m454.996094 437.09375c0 22.335938-18.109375 40.441406-40.445313 40.441406-22.335937 0-40.441406-18.105468-40.441406-40.441406 0-22.339844 18.105469-40.445312 40.441406-40.445312 22.335938 0 40.445313 18.105468 40.445313 40.445312zm0 0" fill="#69ebfc"/><path d="m374.109375 437.09375c0 13.121094 6.273437 24.746094 15.957031 32.136719 9.6875-7.390625 15.960938-19.015625 15.960938-32.136719 0-13.125-6.273438-24.75-15.960938-32.140625-9.679687 7.390625-15.957031 19.015625-15.957031 32.140625zm0 0" fill="#d476e2"/><path d="m493.515625 243.738281h-147.769531c-10.234375 0-18.535156-8.296875-18.535156-18.535156v-113.710937c0-10.238282 8.300781-18.539063 18.535156-18.539063h147.769531c10.238281 0 18.539063 8.300781 18.539063 18.539063v113.710937c0 10.238281-8.300782 18.535156-18.539063 18.535156zm0 0" fill="#69ebfc"/><path d="m419.632812 0c-35.894531 0-65.09375 29.203125-65.09375 65.097656v10c0-35.894531 29.199219-65.097656 65.09375-65.097656 35.890626 0 65.09375 29.203125 65.09375 65.097656v-10c0-35.894531-29.203124-65.097656-65.09375-65.097656zm0 0" fill="#69ebfc"/><path d="m449.144531 149.511719c0-16.300781-13.210937-29.511719-29.511719-29.511719-16.300781 0-29.515624 13.210938-29.515624 29.511719 0 11.261719 6.3125 21.042969 15.582031 26.019531l-13.59375 41.164062h55.050781l-13.59375-41.164062c9.273438-4.976562 15.582031-14.757812 15.582031-26.019531zm0 0" fill="#5fd4e3"/><path d="m378.539062 92.953125v-17.855469c0-22.660156 18.433594-41.097656 41.09375-41.097656 22.65625 0 41.09375 18.4375 41.09375 41.097656v17.855469h24v-17.855469c0-35.894531-29.203124-65.097656-65.09375-65.097656-35.894531 0-65.09375 29.203125-65.09375 65.097656v17.855469zm0 0" fill="#5fd4e3"/></svg>