<svg height="512pt" viewBox="0 0 512 512" width="512pt" xmlns="http://www.w3.org/2000/svg"><path d="m62.863281 0s-6.863281 141.695312-30.84375 231.625c-12.769531 47.886719 0 82.847656 15.421875 81.085938 15.421875-1.761719 140.804688 41.085937 172.03125 84.550781 31.222656 43.460937 59.957032 91.347656 117.417969 91.347656s152.890625-30.269531 152.890625-30.269531 11.699219-39.472656-16.640625-39.472656-60.878906-4.375-95.515625-21.605469c-34.640625-17.230469-108.152344-135.433594-114.429688-152.957031-6.28125-17.523438-15.191406-38.652344-13.359374-115.207032 1.828124-76.554687 13.355468-129.097656 13.355468-129.097656zm0 0" fill="#ffefe4"/><path d="m260.550781 14c1.554688-9.046875 2.640625-14 2.640625-14h-200.328125s-.25 5.113281-.8125 14zm0 0" fill="#fff7f2"/><path d="m12.761719 316.675781s11.449219 23.859375 13.359375 73.484375c1.90625 49.625 3.816406 121.839844 3.816406 121.839844h23.859375s-3.820313-119.929688 0-145.699219c3.816406-25.765625 59.167969-18.128906 59.167969-18.128906l-50.101563-37.222656zm0 0" fill="#e0734a"/><path d="m8.84375 316.1875c1.914062 5.136719 6.425781 8.839844 11.800781 9.898438 15.367188 3.023437 51.414063 11.425781 92.320313 30.085937 54.398437 24.8125 119.292968 87.796875 150.785156 117.382813 31.492188 29.585937 48.671875 38.175781 81.117188 38.175781 32.445312 0 167.132812-17.183594 167.132812-17.183594v-38.535156s-143.382812 15-170.949219 18.128906c-41.988281 4.773437-97.339843-83.300781-146.964843-114.792969-49.628907-31.492187-112.613282-54.398437-130.746094-66.804687-18.132813-12.40625-17.179688-89.433594-5.726563-117.109375 11.453125-27.675782-57.613281 35.3125-57.613281 74.441406 0 31.246094 3.878906 52.988281 8.84375 66.3125zm0 0" fill="#ff8354"/><path d="m263.75 459.550781c-31.492188-29.582031-96.386719-92.570312-150.785156-117.382812-40.90625-18.65625-76.953125-27.0625-92.320313-30.085938-5.378906-1.058593-9.890625-4.761719-11.804687-9.898437-4.375-11.742188-7.902344-30.035156-8.679688-55.605469-.097656 1.117187-.160156 2.21875-.160156 3.296875 0 31.246094 3.878906 52.988281 8.84375 66.3125 1.914062 5.136719 6.425781 8.839844 11.800781 9.898438 15.367188 3.023437 51.414063 11.429687 92.320313 30.085937 54.398437 24.8125 119.292968 87.796875 150.789062 117.382813 31.492188 29.585937 48.667969 38.175781 81.117188 38.175781 32.445312 0 167.128906-17.183594 167.128906-17.183594v-14s-134.683594 17.179687-167.132812 17.179687c-32.445313 0-49.625-8.589843-81.117188-38.175781zm0 0" fill="#e0734a"/><path d="m372.542969 477.007812 17.34375-71.027343c1.492187-6.109375 7.640625-9.863281 13.757812-8.402344l21.71875 5.195313c6.140625 1.464843 9.925781 7.636718 8.453125 13.777343l-14.507812 60.457031zm0 0" fill="#ff8354"/><path d="m425.363281 402.769531-21.71875-5.195312c-6.113281-1.460938-12.265625 2.292969-13.757812 8.402343l-2.257813 9.25c2.878906-3.125 7.464844-4.675781 12.035156-3.652343l23.128907 5.195312c4.566406 1.023438 7.898437 4.34375 8.96875 8.339844l2.054687-8.5625c1.472656-6.136719-2.3125-12.308594-8.453125-13.777344zm0 0" fill="#ffac8c"/><path d="m260.648438 208.710938-209.289063-31.96875c-6.371094-.972657-10.746094-6.925782-9.773437-13.296876l2.515624-16.46875c.972657-6.371093 6.925782-10.746093 13.296876-9.773437l209.289062 31.96875c6.371094.972656 10.746094 6.925781 9.773438 13.296875l-2.515626 16.46875c-.972656 6.371094-6.925781 10.75-13.296874 9.773438zm0 0" fill="#ff8354"/><path d="m44.234375 160.976562c.972656-6.371093 6.921875-10.746093 13.289063-9.773437l209.167968 31.96875c3.910156.597656 7.058594 3.074219 8.6875 6.367187l1.082032-7.070312c.972656-6.367188-3.402344-12.324219-9.773438-13.296875l-209.289062-31.96875c-6.371094-.972656-12.324219 3.402344-13.296876 9.773437l-2.515624 16.472657c-.390626 2.539062.085937 5.003906 1.183593 7.121093zm0 0" fill="#ffac8c"/><path d="m167.90625 214.542969c-1.023438 0-2.050781-.078125-3.082031-.234375l-38.585938-5.894532c-5.316406-.8125-10-3.644531-13.183593-7.976562-3.183594-4.335938-4.492188-9.648438-3.675782-14.964844l6-39.28125c.8125-5.316406 3.644532-9.996094 7.980469-13.179687 4.332031-3.1875 9.644531-4.496094 14.960937-3.679688l38.585938 5.890625c5.316406.816406 10 3.648438 13.183594 7.980469 3.1875 4.335937 4.492187 9.648437 3.679687 14.964844l-6 39.28125c-.816406 5.316406-3.648437 9.996093-7.980469 13.179687-3.496093 2.566406-7.625 3.914063-11.882812 3.914063zm-32.609375-65.441407-6.148437 39.390626 38.699218 6.042968c.058594.007813.136719-.039062.148438-.109375l6-39.28125zm0 0" fill="#d476e2"/><path d="m120.425781 147.011719c4.511719-3.1875 10.042969-4.496094 15.585938-3.679688l40.183593 5.890625c5.539063.816406 10.414063 3.648438 13.730469 7.980469 1.382813 1.808594 2.402344 3.792969 3.089844 5.871094l.75-4.90625c.8125-5.316407-.492187-10.628907-3.675781-14.964844-3.1875-4.332031-7.867188-7.164063-13.183594-7.980469l-38.585938-5.890625c-5.320312-.816406-10.628906.492188-14.964843 3.679688-4.332031 3.183593-7.164063 7.863281-7.980469 13.179687l-1.207031 7.90625c1.464843-2.769531 3.578125-5.195312 6.257812-7.085937zm0 0" fill="#ea82fa"/><path d="m196.851562 188.449219c-.484374 0-.972656-.035157-1.460937-.105469l-35.597656-5.214844c-5.464844-.800781-9.246094-5.875-8.445313-11.339844.800782-5.46875 5.875-9.25 11.34375-8.445312l35.59375 5.210938c5.464844.800781 9.246094 5.878906 8.445313 11.339843-.726563 4.976563-5 8.554688-9.878907 8.554688zm0 0" fill="#ea82fa"/><path d="m233.855469 183.03125c0 3.972656-3.222657 7.191406-7.195313 7.191406-3.96875 0-7.191406-3.21875-7.191406-7.191406s3.222656-7.191406 7.191406-7.191406c3.972656 0 7.195313 3.21875 7.195313 7.191406zm0 0" fill="#e0734a"/><path d="m263.191406 187.347656c0 3.972656-3.21875 7.191406-7.191406 7.191406s-7.191406-3.21875-7.191406-7.191406 3.21875-7.191406 7.191406-7.191406 7.191406 3.21875 7.191406 7.191406zm0 0" fill="#e0734a"/><path d="m29.554688 498c.242187 8.6875.382812 14 .382812 14h23.859375s-.171875-5.34375-.402344-14zm0 0" fill="#c26440"/></svg>