<svg height="512pt" viewBox="-12 0 512 512.00081" width="512pt" xmlns="http://www.w3.org/2000/svg"><path d="m446.128906 428.371094h-380.257812c-13.285156 0-24.054688-10.773438-24.054688-24.058594v-380.253906c0-13.285156 10.769532-24.058594 24.054688-24.058594h380.253906c13.289062 0 24.058594 10.773438 24.058594 24.058594v380.253906c0 13.285156-10.769532 24.058594-24.054688 24.058594zm0 0" fill="#f7ddca"/><path d="m470.183594 31.574219h-428.367188v-7.515625c0-13.285156 10.769532-24.058594 24.054688-24.058594h380.253906c13.289062 0 24.058594 10.773438 24.058594 24.058594zm0 0" fill="#ffefe4"/><path d="m289.90625 100.890625h-16.496094l-15.234375-9.933594-12.621093 9.933594-12.625-9.933594-10.832032 9.933594v-100.890625h67.808594zm0 0" fill="#ff8354"/><path d="m222.097656 0h67.808594v31.574219h-67.808594zm0 0" fill="#ffac8c"/><path d="m44.242188 383.617188h32.296874v105.671874h-32.296874zm0 0" fill="#69ebfc"/><path d="m443.546875 405.40625c-26.117187.621094-82.148437 15.433594-111.539063 18.382812-13.417968 1.34375-26.554687-10.335937-37.839843-11.671874 17.925781-5.050782 59.296875-3.300782 72.78125-10.269532 20.074219-10.378906-19.183594-22.066406-34.03125-24.816406-14.84375-2.753906-57.441407-2.820312-79.515625-3-22.078125-.183594-41.386719-13.4375-64.578125-11.828125-23.195313 1.613281-45.648438 15.542969-62.722657 31.734375-16.324218 2.414062-33.125 2.953125-49.566406 3.253906v72.929688c18.441406-.351563 44.367188 3.386718 67.375 3.027344 21.644532 1.359374 54.574219 4.085937 75.21875 2.738281 20.648438-1.351563 83.40625 9.910156 90.40625 10.253906 19.300782.949219 147.3125-40.734375 171.039063-51.289063 23.71875-10.558593-10.90625-30.0625-37.027344-29.445312zm0 0" fill="#ffefe4"/><path d="m480.574219 424.851562c-23.722657 10.554688-151.738281 52.234376-171.039063 51.289063-7-.339844-69.757812-11.601563-90.40625-10.253906-20.644531 1.347656-53.574218-1.378907-75.21875-2.738281-23.007812.359374-48.933594-3.378907-67.375-3.027344v10c18.441406-.351563 44.367188 3.386718 67.375 3.027344 21.644532 1.359374 54.574219 4.085937 75.21875 2.738281 20.648438-1.351563 83.40625 9.910156 90.40625 10.253906 19.300782.949219 147.3125-40.734375 171.039063-51.289063 8.71875-3.882812 9.535156-8.96875 5.808593-13.824218-1.285156 1.355468-3.167968 2.648437-5.808593 3.824218zm0 0" fill="#edd4c2"/><path d="m44.242188 477.546875h32.296874v11.742187h-32.296874zm0 0" fill="#5fd4e3"/><path d="m44.242188 512h-44.242188v-151.09375h44.242188zm0 0" fill="#6770e6"/><path d="m0 500.261719h44.242188v11.738281h-44.242188zm0 0" fill="#5861c7"/><path d="m328.617188 148.582031h-185.242188c-9.941406 0-18 8.058594-18 18 0 9.941407 8.058594 18 18 18h185.246094c22.890625 0 41.515625 18.625 41.515625 41.515625s-18.625 41.511719-41.515625 41.511719h-51.722656l5.5-5.5c7.03125-7.03125 7.03125-18.425781 0-25.457031-7.03125-7.027344-18.421876-7.027344-25.457032 0l-36.230468 36.226562c-3.375 3.378906-5.269532 7.957032-5.269532 12.730469 0 4.769531 1.894532 9.351563 5.269532 12.726563l36.230468 36.230468c3.515625 3.511719 8.125 5.273438 12.730469 5.273438s9.210937-1.761719 12.726563-5.273438c7.03125-7.03125 7.03125-18.429687 0-25.457031l-5.5-5.503906h51.722656c42.742187 0 77.515625-34.773438 77.515625-77.511719 0-42.742188-34.777344-77.511719-77.519531-77.511719zm0 0" fill="#d476e2"/></svg>