<svg height="512pt" viewBox="0 0 512 512" width="512pt" xmlns="http://www.w3.org/2000/svg"><path d="m497.769531 395.148438h-483.539062c-7.859375 0-14.230469-6.371094-14.230469-14.234376v-366.683593c0-7.859375 6.371094-14.230469 14.230469-14.230469h483.535156c7.859375 0 14.230469 6.371094 14.230469 14.230469v366.683593c.003906 7.863282-6.367188 14.234376-14.226563 14.234376zm0 0" fill="#6770e6"/><path d="m497.769531 0h-483.539062c-7.859375 0-14.230469 6.371094-14.230469 14.230469v14c0-7.859375 6.371094-14.230469 14.230469-14.230469h483.539062c7.859375 0 14.230469 6.371094 14.230469 14.230469v-14c0-7.859375-6.371094-14.230469-14.230469-14.230469zm0 0" fill="#8f95e6"/><path d="m30 349.824219v-304.5c0-8.460938 6.859375-15.324219 15.324219-15.324219h421.355469c8.460937 0 15.324218 6.859375 15.324218 15.324219v304.5c0 8.464843-6.863281 15.324219-15.324218 15.324219h-421.355469c-8.464844 0-15.324219-6.859376-15.324219-15.324219zm0 0" fill="#69ebfc"/><path d="m196.277344 395.148438h121.894531v76.871093h-121.894531zm0 0" fill="#5861c7"/><path d="m375.808594 512h-236.601563c-11.039062 0-19.988281-8.949219-19.988281-19.988281 0-11.042969 8.949219-19.992188 19.988281-19.992188h236.601563c11.042968 0 19.992187 8.949219 19.992187 19.992188 0 11.039062-8.949219 19.988281-19.992187 19.988281zm0 0" fill="#6770e6"/><path d="m375.808594 498h-236.601563c-8.574219 0-15.863281-5.40625-18.703125-12.988281-.820312 2.179687-1.289062 4.53125-1.289062 7 0 11.039062 8.949218 19.988281 19.992187 19.988281h236.601563c11.039062 0 19.988281-8.949219 19.988281-19.988281 0-2.46875-.46875-4.820313-1.285156-7-2.835938 7.582031-10.128907 12.988281-18.703125 12.988281zm0 0" fill="#5861c7"/><path d="m261.03125 238.535156h-108.949219c-8.402343 0-14.921875-7.34375-13.921875-15.6875l12.109375-101.105468c.273438-2.292969 2.21875-4.023438 4.53125-4.023438h103.511719c2.3125 0 4.257812 1.730469 4.535156 4.023438l12.105469 101.105468c1 8.34375-5.515625 15.6875-13.921875 15.6875zm0 0" fill="#6770e6"/><path d="m238.433594 144.910156c-3.3125 0-6-2.6875-6-6v-31.878906c0-14.269531-11.609375-25.878906-25.878906-25.878906-14.265626 0-25.875 11.609375-25.875 25.878906v31.878906c0 3.3125-2.6875 6-6 6s-6-2.6875-6-6v-31.878906c0-20.886719 16.992187-37.878906 37.875-37.878906 20.886718 0 37.878906 16.992187 37.878906 37.878906v31.878906c0 3.3125-2.683594 6-6 6zm0 0" fill="#fff7f2"/><path d="m356.179688 238.535156h-99.457032c-10.820312 0-19.109375-9.621094-17.511718-20.324218l10.820312-72.398438c.351562-2.351562 2.371094-4.09375 4.75-4.09375h103.339844c2.375 0 4.398437 1.742188 4.75 4.09375l10.820312 72.398438c1.601563 10.703124-6.6875 20.324218-17.511718 20.324218zm0 0" fill="#d476e2"/><path d="m306.453125 211.167969c-15.441406 0-28-12.558594-28-28v-22c0-3.3125 2.683594-6 6-6 3.3125 0 6 2.6875 6 6v22c0 8.820312 7.175781 16 16 16 8.820313 0 16-7.179688 16-16v-22c0-3.3125 2.683594-6 6-6 3.3125 0 6 2.6875 6 6v22c0 15.441406-12.5625 28-28 28zm0 0" fill="#fff7f2"/><path d="m332.128906 318.769531h-152.257812c-13.230469 0-23.957032-10.726562-23.957032-23.957031s10.726563-23.957031 23.957032-23.957031h152.257812c13.230469 0 23.957032 10.726562 23.957032 23.957031s-10.726563 23.957031-23.957032 23.957031zm0 0" fill="#d476e2"/><path d="m354.535156 327.300781 19.644532-3.65625c2.445312-.457031 2.835937-3.796875.554687-4.800781l-58.203125-25.625c-2.113281-.929688-4.261719 1.222656-3.335938 3.335938l25.625 58.207031c1 2.273437 4.34375 1.886719 4.800782-.558594l3.386718-18.199219 19.523438 18.675782c1.113281 1.0625 2.539062 1.59375 3.96875 1.59375 1.515625 0 3.023438-.59375 4.152344-1.777344 2.195312-2.292969 2.113281-5.929688-.179688-8.121094zm0 0" fill="#fff7f2"/></svg>