<svg id="Layer_1" height="512" viewBox="0 0 150 150" width="512" xmlns="http://www.w3.org/2000/svg" data-name="Layer 1"><circle cx="75" cy="75" fill="#45b39c" r="64"/><rect fill="#e1e6e9" height="56.71" rx="5.42" width="67.03" x="41.49" y="46.65"/><path d="m108.51 57.39v-5.33a5.41 5.41 0 0 0 -5.41-5.41h-56.2a5.41 5.41 0 0 0 -5.41 5.41v5.33z" fill="#3a556a"/><g fill="#ebf0f3"><circle cx="98.74" cy="52.24" r="1.84"/><path d="m90.69 50.4a1.84 1.84 0 1 0 1.84 1.84 1.84 1.84 0 0 0 -1.84-1.84z"/><path d="m82.63 50.4a1.84 1.84 0 1 0 1.85 1.84 1.84 1.84 0 0 0 -1.85-1.84z"/></g><path d="m81.86 87a.85.85 0 0 1 -.62-.26l-13.17-13.14-12.94 12.94a.87.87 0 0 1 -1.23 0 .88.88 0 0 1 0-1.24l13.55-13.55a.88.88 0 0 1 1.24 0l13.17 13.17 13-13a.87.87 0 0 1 1.23 0 .88.88 0 0 1 0 1.24l-13.61 13.61a.87.87 0 0 1 -.62.23z" fill="#3a556a"/><circle cx="95.08" cy="73.17" fill="#e56353" r="4.55"/><path d="m99.63 73.17a4.55 4.55 0 0 1 -8.72 1.83 4.5 4.5 0 0 0 3.16 1.28 4.55 4.55 0 0 0 4.55-4.55 4.64 4.64 0 0 0 -.37-1.83 4.56 4.56 0 0 1 1.38 3.27z" fill="#d15241"/><circle cx="81.61" cy="85.81" fill="#f7be56" r="4.55"/><path d="m86.16 85.81a4.55 4.55 0 0 1 -8.72 1.83 4.5 4.5 0 0 0 3.16 1.28 4.55 4.55 0 0 0 4.55-4.55 4.64 4.64 0 0 0 -.37-1.83 4.56 4.56 0 0 1 1.38 3.27z" fill="#e2aa50"/><path d="m68 68.23a4.55 4.55 0 1 0 4.55 4.55 4.55 4.55 0 0 0 -4.55-4.55z" fill="#27a2db"/><path d="m72.53 72.78a4.55 4.55 0 0 1 -8.72 1.83 4.5 4.5 0 0 0 3.19 1.28 4.55 4.55 0 0 0 4.55-4.55 4.59 4.59 0 0 0 -.38-1.82 4.49 4.49 0 0 1 1.36 3.26z" fill="#2d93ba"/><path d="m54.31 81.9a4.55 4.55 0 1 0 4.55 4.55 4.56 4.56 0 0 0 -4.55-4.55z" fill="#44c4a1"/><path d="m58.86 86.45a4.56 4.56 0 0 1 -8.73 1.83 4.55 4.55 0 0 0 7.71-3.28 4.64 4.64 0 0 0 -.37-1.83 4.57 4.57 0 0 1 1.39 3.28z" fill="#3ea69b"/></svg>