<svg height="512pt" viewBox="0 0 512 512.2407" width="512pt" xmlns="http://www.w3.org/2000/svg"><path d="m301.484375 512h-271.5625c-17.410156 0-31.109375-14.855469-29.699219-32.207031l27.046875-332.996094c.359375-4.394531 4.027344-7.78125 8.4375-7.78125h259.992188c4.410156 0 8.082031 3.386719 8.4375 7.78125l27.046875 332.996094c1.410156 17.351562-12.289063 32.207031-29.699219 32.207031zm0 0" fill="#6770e6"/><path d="m33.394531 153.015625h264.617188c2.8125 0 5.332031 1.332031 6.910156 3.410156l-.785156-9.628906c-.355469-4.394531-4.027344-7.78125-8.4375-7.78125h-259.992188c-4.410156 0-8.082031 3.386719-8.4375 7.78125l-.78125 9.628906c1.574219-2.078125 4.09375-3.410156 6.90625-3.410156zm0 0" fill="#8f95e6"/><path d="m96.511719 199.46875c0 9.199219-7.457031 16.652344-16.652344 16.652344-9.199219 0-16.65625-7.453125-16.65625-16.652344s7.457031-16.652344 16.65625-16.652344c9.195313 0 16.652344 7.453125 16.652344 16.652344zm0 0" fill="#69ebfc"/><path d="m268.203125 199.46875c0 9.199219-7.457031 16.652344-16.65625 16.652344-9.195313 0-16.652344-7.453125-16.652344-16.652344s7.457031-16.652344 16.652344-16.652344c9.199219 0 16.65625 7.453125 16.65625 16.652344zm0 0" fill="#69ebfc"/><path d="m251.132812 208.554688c-5.578124 0-10.097656-4.519532-10.097656-10.097657v-101.757812c0-41.585938-33.207031-76.09375-74.792968-76.496094-41.992188-.410156-76.285157 33.632813-76.285157 75.535156v102.71875c0 5.578125-4.519531 10.097657-10.097656 10.097657s-10.097656-4.523438-10.097656-10.097657v-101.5c0-52.707031 42.089843-96.441406 94.792969-96.95312475 53.21875-.51562525 96.679687 42.62890575 96.679687 95.73437475v102.71875c-.003906 5.578125-4.523437 10.097657-10.101563 10.097657zm0 0" fill="#69ebfc"/><path d="m164.550781.00390625c-52.703125.51171875-94.789062 44.24609375-94.789062 96.95312475v10c0-52.707031 42.085937-96.441406 94.789062-96.949219 53.222657-.515624 96.679688 42.625 96.679688 95.730469v-10c0-53.105469-43.457031-96.25-96.679688-95.73437475zm0 0" fill="#a1f1fc"/><path d="m330.707031 473.886719c-2.640625 13.628906-14.605469 24.113281-29.222656 24.113281h-271.5625c-14.617187 0-26.578125-10.484375-29.222656-24.113281l-.480469 5.90625c-1.40625 17.351562 12.296875 32.207031 29.703125 32.207031h271.5625c17.410156 0 31.109375-14.855469 29.699219-32.207031zm0 0" fill="#5861c7"/><path d="m501.601562 409.960938-10.980468-8.539063-14.839844-11.542969-45.160156-35.097656c-.699219-.539062-1.417969-1.0625-2.160156-1.5625 2.082031 11.460938 4.859374 22.621094 8.242187 32.742188 4.039063 12.140624 8.179687 20.417968 11.699219 25.78125 2.578125-1.179688 5.441406-1.839844 8.460937-1.820313 3 0 5.859375.660156 8.417969 1.859375 5.878906 2.738281 10.21875 8.238281 11.359375 14.839844.101563.597656.179687 1.21875.222656 1.839844.058594.558593.078125 1.121093.078125 1.679687-.019531 5.898437-2.558594 11.199219-6.597656 14.859375-3.621094 3.28125-8.363281 5.242188-13.601562 5.21875-.898438 0-1.800782-.058594-2.679688-.199219-6.320312-.839843-11.699219-4.617187-14.742188-9.898437-1.71875-2.960938-2.699218-6.421875-2.679687-10.082032 0-1.199218.101563-2.398437.320313-3.539062-7.558594-9.257812-13.300782-22.71875-17.339844-34.839844-4.5-13.460937-8.019532-28.621094-10.320313-43.980468l-246.359375-.679688c-16.078125-.039062-29.140625 12.941406-29.179687 29.039062l-.300781 106.339844c-.039063 16.0625 12.941406 29.140625 29.039062 29.183594l247.023438.679688c7.476562.019531 14.777343-2.441407 20.699218-7.023438l15.699219-12.078125 14.199219-10.898437 34.640625-26.640626 6.738281-5.160156c2.761719-2.121094 4.921875-4.621094 6.5625-7.402344 6.179688-10.660156 4.019531-24.917968-6.460938-33.078124zm0 0" fill="#ff8354"/><path d="m508.054688 429.035156c-1.632813 2.777344-3.800782 5.285156-6.558594 7.40625l-6.726563 5.160156-34.644531 26.640626-14.195312 10.902343-15.710938 12.085938c-5.925781 4.566406-13.207031 7.03125-20.691406 7.011719l-247.035156-.675782c-15.832032-.042968-28.625-12.71875-28.984376-28.425781l-.039062 13.242187c-.042969 16.058594 12.933594 29.136719 29.023438 29.183594l247.035156.675782c7.484375.019531 14.765625-2.449219 20.691406-7.011719l15.710938-12.085938 14.195312-10.902343 34.644531-26.640626 6.726563-5.160156c2.757812-2.121094 4.925781-4.628906 6.558594-7.40625 3.507812-6.050781 4.324218-13.269531 2.460937-19.871094-.570313 2.03125-1.382813 4.007813-2.460937 5.871094zm0 0" fill="#e0734a"/><g fill="#ffefe4"><path d="m194.511719 464.675781c-2.824219-.007812-5.523438-.414062-8.101563-1.21875-2.570312-.804687-4.933594-2.007812-7.078125-3.609375-2.144531-1.597656-4.007812-3.554687-5.597656-5.859375-.277344-.402343-.542969-.8125-.796875-1.234375-2.03125-3.359375-.621094-7.746094 3.039062-9.175781 2.9375-1.148437 6.164063.132813 7.765626 2.851563.6875 1.164062 1.496093 2.222656 2.429687 3.171874 2.140625 2.183594 4.960937 3.28125 8.460937 3.292969 1.289063.003907 2.53125-.164062 3.730469-.496093 1.195313-.335938 2.269531-.824219 3.226563-1.46875.953125-.640626 1.707031-1.449219 2.261718-2.429688.554688-.980469.835938-2.121094.839844-3.40625.003906-1.226562-.210937-2.332031-.636718-3.316406-.429688-.984375-1.144532-1.90625-2.15625-2.769532-1.011719-.859374-2.328126-1.691406-3.953126-2.492187-1.625-.804687-3.628906-1.636719-6.019531-2.503906l-4.046875-1.484375c-1.777344-.617188-3.574218-1.453125-5.382812-2.5-1.804688-1.046875-3.445313-2.3125-4.914063-3.789063-1.464843-1.476562-2.675781-3.214843-3.621093-5.210937-.945313-1.996094-1.414063-4.253906-1.40625-6.773438.007812-2.574218.519531-4.984375 1.539062-7.222656 1.015625-2.238281 2.464844-4.195312 4.34375-5.878906 1.871094-1.683594 4.117188-2.996094 6.726562-3.941406 2.613282-.945313 5.515626-1.410157 8.707032-1.402344 3.3125.011718 6.179687.460937 8.601562 1.355468 2.421875.898438 4.472656 2.039063 6.160156 3.425782.628907.515625 1.519532 1.339844 2.453126 2.390625 2.695312 3.039062 1.648437 7.824219-2.097657 9.386719-2.382812.992187-5.242187.535156-6.925781-1.417969-2.425781-2.8125-5.925781-3.71875-8.042969-3.726563-2.699219-.007812-4.941406.617188-6.722656 1.867188-1.785156 1.253906-2.675781 2.894531-2.683594 4.921875-.003906 1.964843.847657 3.640625 2.5625 5.023437 1.714844 1.386719 4.441407 2.726563 8.183594 4.027344l4.140625 1.394531c2.636719.925781 5.042969 1.992188 7.21875 3.195313 2.171875 1.203125 4.042969 2.632812 5.601562 4.296875 1.5625 1.660156 2.753907 3.550781 3.578126 5.671875.824218 2.117187 1.230468 4.558594 1.222656 7.320312-.007813 3.4375-.707032 6.398438-2.097656 8.878906-1.386719 2.480469-3.15625 4.519532-5.308594 6.109376-2.152344 1.589843-4.582032 2.777343-7.28125 3.570312-2.703125.789062-5.34375 1.183594-7.921875 1.175781zm0 0"/><path d="m258.492188 464.851562c-4.910157-.015624-9.464844-.914062-13.664063-2.707031s-7.832031-4.238281-10.886719-7.347656c-3.0625-3.105469-5.464844-6.765625-7.199218-10.976563-1.734376-4.207031-2.597657-8.707031-2.585938-13.492187.015625-4.789063.902344-9.285156 2.660156-13.484375 1.757813-4.195312 4.179688-7.84375 7.257813-10.933594 3.074219-3.089844 6.71875-5.523437 10.929687-7.289062 4.207032-1.769532 8.765625-2.644532 13.679688-2.632813 4.90625.015625 9.460937.914063 13.664062 2.707031 4.195313 1.792969 7.828125 4.242188 10.886719 7.347657 3.058594 3.109375 5.460937 6.769531 7.199219 10.976562 1.738281 4.210938 2.601562 8.707031 2.585937 13.496094-.011719 4.785156-.902343 9.28125-2.660156 13.476563-1.761719 4.199218-4.179687 7.847656-7.257813 10.9375-3.078124 3.089843-6.722656 5.519531-10.929687 7.285156-4.210937 1.773437-8.769531 2.648437-13.679687 2.636718zm.035156-11.785156c3.066406.007813 5.9375-.535156 8.609375-1.632812s5.007812-2.625 7.011719-4.585938c1.996093-1.953125 3.570312-4.332031 4.710937-7.125 1.144531-2.789062 1.71875-5.867187 1.730469-9.242187.007812-3.378907-.550782-6.464844-1.679688-9.261719-1.128906-2.792969-2.6875-5.175781-4.675781-7.148438-1.988281-1.96875-4.320313-3.507812-6.984375-4.621093s-5.535156-1.671875-8.601562-1.679688c-3.070313-.007812-5.941407.535157-8.613282 1.632813s-5.011718 2.628906-7.007812 4.585937c-2.003906 1.957031-3.574219 4.332031-4.71875 7.121094-1.144532 2.792969-1.71875 5.875-1.726563 9.25-.011719 3.375.550781 6.460937 1.679688 9.253906 1.125 2.796875 2.683593 5.179688 4.675781 7.148438 1.988281 1.972656 4.320312 3.511719 6.984375 4.621093 2.667969 1.117188 5.535156 1.675782 8.605469 1.683594zm0 0"/><path d="m309.035156 397.597656.648438.003906c3.253906.007813 5.882812 2.652344 5.875 5.90625l-.132813 48.246094 22.003907.058594c3.253906.007812 5.882812 2.652344 5.875 5.90625-.007813 3.253906-2.65625 5.886719-5.910157 5.878906l-28.539062-.078125c-3.253907-.007812-5.886719-2.65625-5.878907-5.910156l.148438-54.132813c.011719-3.257812 2.65625-5.886718 5.910156-5.878906zm0 0"/><path d="m352.289062 403.609375c.007813-3.253906 2.652344-5.886719 5.90625-5.875l16.390626.042969c5.214843.011718 9.90625.824218 14.078124 2.429687 4.164063 1.609375 7.722657 3.875 10.660157 6.796875 2.9375 2.925782 5.183593 6.414063 6.738281 10.46875 1.554688 4.054688 2.324219 8.507813 2.3125 13.355469-.015625 4.910156-.808594 9.386719-2.386719 13.433594-1.574219 4.046875-3.839843 7.507812-6.792969 10.386719-2.953124 2.878906-6.519531 5.105468-10.695312 6.691406-4.179688 1.585937-8.875 2.367187-14.089844 2.355468l-16.390625-.042968c-3.253906-.007813-5.882812-2.65625-5.875-5.910156zm21.59375 48.300781c3.625.011719 6.816407-.488281 9.582032-1.492187 2.761718-1.003907 5.070312-2.425781 6.914062-4.261719s3.234375-4.058594 4.160156-6.664062c.929688-2.605469 1.398438-5.503907 1.40625-8.695313.007813-3.195313-.445312-6.09375-1.359374-8.703125-.910157-2.613281-2.289063-4.839844-4.121094-6.6875-1.835938-1.84375-4.136719-3.28125-6.894532-4.300781-2.761718-1.019531-5.949218-1.53125-9.574218-1.542969l-9.292969-.027344-.117187 42.347656zm0 0"/></g><path d="m448.402344 411.742188c-5.902344 2.699218-10.28125 8.160156-11.441406 14.757812-7.558594-9.257812-13.300782-22.71875-17.339844-34.839844-4.5-13.460937-8.019532-28.621094-10.320313-43.980468h.679688c6.582031.019531 13 1.960937 18.480469 5.539062 2.082031 11.460938 4.859374 22.621094 8.242187 32.742188 4.039063 12.140624 8.179687 20.417968 11.699219 25.78125zm0 0" fill="#ff8354"/><path d="m508.054688 430.203125c-1.632813-2.773437-3.800782-5.28125-6.558594-7.40625l-6.726563-5.15625-34.644531-26.640625-14.195312-10.902344-15.710938-12.085937c-5.925781-4.566407-13.207031-7.03125-20.691406-7.011719l-247.035156.675781c-15.832032.042969-28.625 12.71875-28.984376 28.425781l-.039062-13.242187c-.042969-16.058594 12.933594-29.140625 29.023438-29.183594l247.035156-.675781c7.484375-.019531 14.765625 2.445312 20.691406 7.011719l15.710938 12.085937 14.195312 10.902344 34.644531 26.640625 6.726563 5.15625c2.757812 2.125 4.925781 4.632813 6.558594 7.40625 3.507812 6.054687 4.324218 13.269531 2.460937 19.875-.570313-2.035156-1.382813-4.011719-2.460937-5.875zm0 0" fill="#ffac8c"/><path d="m497.921875 250.5625c-8.660156-18.023438-22.699219-27.582031-40.558594-27.621094-17.882812-.0625-31.960937 9.417969-40.722656 27.398438-6.898437 14.179687-10.4375 33.222656-10.5 56.601562-.039063 13.019532 1.0625 26.960938 3.160156 40.738282h.679688c6.582031.019531 13 1.960937 18.480469 5.539062-2.820313-15.457031-4.359376-31.476562-4.320313-46.21875.0625-20.359375 3.0625-37.21875 8.679687-48.78125 5.679688-11.65625 13.703126-17.316406 24.480469-17.296875 10.800781.039063 18.78125 5.738281 24.402344 17.4375 5.558594 11.582031 8.457031 28.460937 8.417969 48.820313-.078125 25.660156-4.9375 55.160156-13 78.902343-.4375 1.320313-.898438 2.578125-1.339844 3.796875-3.660156 10.0625-7.320312 17.140625-10.5 21.902344-3.878906 5.839844-7 8.179688-8.460938 8.179688-1.4375 0-4.558593-2.339844-8.417968-8.21875-5.902344 2.699218-10.28125 8.160156-11.441406 14.757812 5.582031 6.878906 12.179687 11.441406 19.800781 11.460938 7.640625.019531 14.261719-4.5 19.878906-11.339844 5.640625-6.839844 10.28125-15.980469 13.980469-25.199219 1.300781-3.203125 2.480468-6.421875 3.539062-9.5625 8.660156-25.480469 13.882813-57.117187 13.960938-84.640625.0625-23.378906-3.378906-42.4375-10.199219-56.65625zm0 0" fill="#6770e6"/><path d="m416.640625 260.339844c8.761719-17.980469 22.839844-27.460938 40.722656-27.398438 17.859375.042969 31.898438 9.597656 40.558594 27.621094 6.351563 13.238281 9.730469 30.730469 10.121094 51.945312.046875-1.777343.074219-3.542968.078125-5.289062.0625-23.378906-3.378906-42.4375-10.199219-56.65625-8.660156-18.023438-22.699219-27.582031-40.558594-27.621094-17.882812-.0625-31.960937 9.417969-40.722656 27.398438-6.898437 14.179687-10.4375 33.222656-10.5 56.601562-.003906 1.519532.058594 3.085938.085937 4.628906.554688-20.9375 4.054688-38.152343 10.414063-51.230468zm0 0" fill="#8f95e6"/></svg>