<?xml version="1.0" encoding="iso-8859-1"?>
<!-- Generator: Adobe Illustrator 19.0.0, SVG Export Plug-In . SVG Version: 6.00 Build 0)  -->
<svg version="1.1" id="Layer_1" xmlns="http://www.w3.org/2000/svg" xmlns:xlink="http://www.w3.org/1999/xlink" x="0px" y="0px"
	 viewBox="0 0 512 512" style="enable-background:new 0 0 512 512;" xml:space="preserve">
<g>
	<path style="fill:#9D6227;" d="M184.247,134.851l37.576,37.948c0,0,3.401,9.044,0,20.881c-3.402,11.839,5.069,26.529,18.9,40.499
		c13.832,13.97,131.962,133.285,150.16,151.666c18.196,18.379,29.484,35.008,18.573,51.64
		c-10.911,16.633-30.034,12.895-37.437,7.287c-7.402-5.608-5.532-13.474-5.233-20.756c0.298-7.282-3.558-14.135-9.648-21.611
		c-6.092-7.478-215.061-225.03-215.061-225.03S149.456,155.771,184.247,134.851z"/>
	<path style="fill:#915A26;" d="M150.116,163.959c-6.192,8.012-8.038,13.415-8.038,13.415s208.969,217.553,215.061,225.03
		c6.091,7.477,9.946,14.329,9.648,21.611c-0.299,7.282-2.169,15.147,5.233,20.756c7.402,5.607,26.525,9.346,37.437-7.287
		c5.489-8.367,5.359-16.729,1.561-25.316c0,0-1.368,22.805-18.226,25.316c-16.858,2.512-11.187-18.716-14.806-27.395
		C371.408,394.305,150.116,163.959,150.116,163.959z"/>
	<path style="fill:#E2E5E7;" d="M485.327,89.966l-5.031-5.081c-37.076-37.451-98.983-35.632-138.275,4.055l-87.749,88.629
		l139.291,140.688l87.75-88.629C520.604,189.942,522.406,127.413,485.327,89.966z"/>
	<path style="fill:#C6CBCB;" d="M481.312,229.628c39.291-39.686,41.094-102.215,4.015-139.662l-2.516-2.54L323.914,247.911
		l69.648,70.346L481.312,229.628z"/>
	<polygon style="fill:#C6CBCB;" points="266.724,164.991 254.271,177.568 393.562,318.257 406.016,305.679 	"/>
	<path style="fill:#C6CBCB;" d="M348.768,248.655c-6.55,6.615-16.54,7.248-22.323,1.406l-4.655-4.701
		c-5.778-5.842-5.157-15.932,1.393-22.547l55.33-55.891c6.555-6.614,16.545-7.243,22.328-1.406l4.655,4.701
		c5.783,5.842,5.156,15.933-1.393,22.553L348.768,248.655z"/>
	<polygon style="fill:#9D6227;" points="175.581,424.016 149.558,397.735 305.866,239.859 331.886,266.145 	"/>
	<path style="fill:#9D6227;" d="M170.689,452.199c-2.23,2.249-5.59,2.487-7.518,0.54l-42.053-42.474
		c-1.928-1.947-1.691-5.341,0.539-7.59l12.448-12.573c2.223-2.248,5.591-2.497,7.519-0.55l42.053,42.476
		c1.928,1.946,1.683,5.35-0.54,7.593L170.689,452.199z"/>
	<path style="fill:#D1D5D5;" d="M348.768,248.655l55.335-55.885c6.549-6.62,7.176-16.711,1.393-22.553l-2.328-2.35l-79.051,79.843
		l2.328,2.351C332.228,255.903,342.218,255.271,348.768,248.655z"/>
	<polygon style="fill:#915A26;" points="175.572,424.011 165.847,414.188 322.155,256.312 331.881,266.135 	"/>
	<path style="fill:#915A26;" d="M183.678,432.028l-11.007-11.118l-20.507,20.712l11.008,11.117c1.928,1.947,5.287,1.709,7.518-0.54
		l12.448-12.578C185.36,437.378,185.605,433.975,183.678,432.028z"/>
	<path style="fill:#C6CBCB;" d="M192.106,129.302l-66.621-67.29c0,0-107.34,108.416-117.619,118.799
		c-10.28,10.382-10.694,17.44,0,40.703c10.693,23.263,46.463,56.483,65.792,68.531c19.331,12.047,29.196,13.712,40.714,2.078
		c11.519-11.634,35.32-35.675,35.32-35.675s-19.276-3.689-19.276-45.482C130.416,169.172,192.106,129.302,192.106,129.302z"/>
	<path style="fill:#D1D5D5;" d="M120.747,285.683c-2.341,2.366-4.521,4.566-6.375,6.44c-11.518,11.634-21.383,9.969-40.714-2.078
		c-19.329-12.048-55.099-45.269-65.792-68.531c-10.694-23.263-10.28-30.321,0-40.703c0.974-0.983,2.813-2.843,5.349-5.403
		c0,0,2.877,36.813,34.131,70.118C78.599,278.83,120.747,285.683,120.747,285.683z"/>
	<path style="fill:#E2E5E7;" d="M192.106,129.302l-66.621-67.29c0,0-23.783,24.021-50.034,50.535l66.627,64.827
		C159.958,150.086,192.106,129.302,192.106,129.302z"/>
	<path style="fill:#E2E5E7;" d="M481.312,229.628c39.291-39.686,41.094-102.215,4.015-139.662l-5.031-5.081
		c-37.076-37.451-98.983-35.632-138.275,4.055c0,0,73.643-57.365,134.858,4.469C538.103,155.235,481.312,229.628,481.312,229.628z"
		/>
	<path style="fill:#C6CBCB;" d="M348.879,275.636c-1.774,1.787-5.153,1.262-7.571-1.182l-43.673-44.11
		c-2.415-2.438-2.94-5.856-1.166-7.647l7.214-7.282c1.765-1.791,5.152-1.261,7.567,1.178l43.672,44.11
		c2.419,2.443,2.939,5.856,1.166,7.647L348.879,275.636z"/>
	<polygon style="fill:#915A26;" points="302.122,296.191 278.708,319.9 282.666,323.998 306.152,300.264 	"/>
</g>
<g>
</g>
<g>
</g>
<g>
</g>
<g>
</g>
<g>
</g>
<g>
</g>
<g>
</g>
<g>
</g>
<g>
</g>
<g>
</g>
<g>
</g>
<g>
</g>
<g>
</g>
<g>
</g>
<g>
</g>
</svg>
