<?xml version="1.0" encoding="iso-8859-1"?>
<!-- Generator: Adobe Illustrator 19.0.0, SVG Export Plug-In . SVG Version: 6.00 Build 0)  -->
<svg version="1.1" id="Capa_1" xmlns="http://www.w3.org/2000/svg" xmlns:xlink="http://www.w3.org/1999/xlink" x="0px" y="0px"
	 viewBox="0 0 384 384" style="enable-background:new 0 0 384 384;" xml:space="preserve">
<circle style="fill:#45B39C;" cx="192" cy="192" r="192"/>
<path style="opacity:0.1;enable-background:new    ;" d="M281.48,104.509c-1.04-1.2-2.56-1.92-4.24-1.92H106.76
	c-3.16,0-5.72,2.559-5.72,5.72v98.52c0,1.56,0.64,2.96,1.64,4l0.04,0.04l3.56,3.56c-2.96,0.12-5.68,1.24-6.12,2.601l-18.04,53.92
	c-0.08,0.199-0.08,0.4-0.08,0.6H82v6.801c0,0.52,0.24,1.039,0.68,1.44l0.28,0.28l103.798,103.798
	c1.747,0.047,3.484,0.133,5.242,0.133c101.178,0,184.017-78.279,191.404-177.568L281.52,104.509H281.48z"/>
<path style="fill:#E1E6E9;" d="M302,271.869l-2.053-0.042l-16.119-48.147c-0.482-1.441-3.436-2.598-6.602-2.598H106.777
	c-3.166,0-6.121,1.157-6.604,2.598l-16.047,47.931L82,271.568v6.765h0.01c0.033,1.75,2.424,3.086,5.842,3.086h208.301
	c3.416,0,5.806-1.336,5.84-3.086H302V271.869z"/>
<path style="fill:#64798A;" d="M277.226,102.581H106.777c-3.166,0-5.734,2.567-5.734,5.734v98.516c0,3.166,2.568,5.734,5.734,5.734
	h170.449c3.166,0,5.732-2.567,5.732-5.734v-98.516C282.958,105.148,280.392,102.581,277.226,102.581z"/>
<path style="fill:#EBF0F3;" d="M277.226,214.415H106.777c-3.166,0-6.121,1.157-6.604,2.598l-18.058,53.938
	c-0.699,2.088,1.866,3.8,5.735,3.8h208.302c3.87,0,6.433-1.712,5.734-3.8l-18.058-53.938
	C283.346,215.573,280.392,214.415,277.226,214.415z"/>
<g>
	<path style="fill:#E1E6E9;" d="M273.61,219.237H110.392c-0.123,0-0.236,0.046-0.253,0.102l-7.727,26.11
		c-0.02,0.067,0.073,0.122,0.208,0.122h178.762c0.135,0,0.228-0.054,0.208-0.122l-7.727-26.11
		C273.846,219.282,273.733,219.237,273.61,219.237z"/>
	<path style="fill:#E1E6E9;" d="M223.321,248.885h-62.64c-2.211,0-4.108,0.91-4.239,2.039l-1.738,15.07
		c-0.144,1.252,1.644,2.274,3.995,2.274h66.605c2.351,0,4.139-1.022,3.995-2.274l-1.739-15.07
		C227.43,249.795,225.532,248.885,223.321,248.885z"/>
</g>
<rect x="111.596" y="113.12" style="fill:#27A2DB;" width="160.8" height="88.88"/>
<rect x="111.596" y="198.48" style="fill:#2D93BA;" width="160.8" height="3.52"/>
<path style="fill:#3A556A;" d="M264.455,209.432H119.546c-0.258,0-0.469,0.17-0.469,0.38v7.372c0,0.21,0.211,0.38,0.469,0.38
	h144.908c0.258,0,0.468-0.17,0.468-0.38v-7.372C264.923,209.602,264.712,209.432,264.455,209.432z"/>
<circle style="fill:#2F4859;" cx="192" cy="107.756" r="2.368"/>
<circle style="fill:#3A556A;" cx="192" cy="107.756" r="1.088"/>
<g>
</g>
<g>
</g>
<g>
</g>
<g>
</g>
<g>
</g>
<g>
</g>
<g>
</g>
<g>
</g>
<g>
</g>
<g>
</g>
<g>
</g>
<g>
</g>
<g>
</g>
<g>
</g>
<g>
</g>
</svg>
