<svg height="512pt" viewBox="0 0 512 512" width="512pt" xmlns="http://www.w3.org/2000/svg"><path d="m200.898438 90.898438-9.578126 7.402343c-4.582031-4.679687-7.800781-9.742187-9.082031-15.320312-1.597656-6.878907-.078125-13.78125 4.523438-20.519531 2.058593 3.558593 5.699219 6.097656 9.976562 6.660156-2.71875 3.957031-3.636719 7.617187-2.816406 11.160156.839844 3.597656 3.339844 7.160156 6.976563 10.617188zm0 0" fill="#6770e6"/><path d="m286.140625 144.238281-11 4.78125c-2.460937-5.660156-20.300781-14.199219-34.640625-21.058593-18.78125-8.980469-38.019531-18.199219-49.179688-29.660157l9.578126-7.402343c10.082031 9.640624 28.863281 18.621093 44.78125 26.242187 20.242187 9.679687 36.21875 17.339844 40.460937 27.097656zm0 0" fill="#6770e6"/><path d="m318.601562 138.140625-8.320312 8.660156c-1.402344-1.359375-3.421875-3.359375-5.921875-5.839843-34.640625-34.402344-61.417969-57.179688-80.078125-68.140626-6.5-3.820312-12.019531-6.199218-16.542969-7.121093-1.816406-.398438-3.457031-.539063-4.957031-.460938-2.839844.160157-4.101562 1.320313-4.882812 2.300781-.417969.539063-.820313 1.0625-1.160157 1.582032-4.277343-.5625-7.917969-3.101563-9.976562-6.660156.539062-.800782 1.117187-1.582032 1.738281-2.359376 3.261719-4.140624 7.960938-6.5 13.578125-6.839843 3.0625-.183594 6.441406.238281 10.042969 1.238281 6.359375 1.71875 13.5 5.140625 21.117187 9.800781 24.5 15 54.042969 42.800781 79.582031 68.140625 2.441407 2.4375 4.398438 4.378906 5.78125 5.699219zm0 0" fill="#6770e6"/><path d="m347.457031 461.300781h-305.984375c-12.1875 0-22.066406-9.878906-22.066406-22.066406v-239.90625h328.050781zm0 0" fill="#5861c7"/><path d="m347.457031 461.300781h142.480469c12.183594 0 22.0625-9.878906 22.0625-22.066406v-63.601563c0-3.09375-.648438-6.152343-1.90625-8.976562l-49.988281-112.226562c-3.546875-7.957032-11.445313-13.085938-20.15625-13.085938h-92.488281v219.957031zm0 0" fill="#d476e2"/><path d="m463.386719 261.804688h-82.421875c-6.210938 0-11.25 5.035156-11.25 11.246093v80.089844c0 6.214844 5.039062 11.25 11.25 11.25h128.113281zm0 0" fill="#69ebfc"/><path d="m499.1875 426.851562h12.8125v-39.03125h-12.8125c-10.78125 0-19.515625 8.738282-19.515625 19.515626 0 10.777343 8.734375 19.515624 19.515625 19.515624zm0 0" fill="#69ebfc"/><path d="m32.222656 426.851562h-12.8125v-39.03125h12.8125c10.78125 0 19.515625 8.738282 19.515625 19.515626 0 10.777343-8.738281 19.515624-19.515625 19.515624zm0 0" fill="#69ebfc"/><path d="m167.109375 461.300781c0 28-22.699219 50.699219-50.703125 50.699219-28 0-50.699219-22.699219-50.699219-50.699219s22.699219-50.699219 50.699219-50.699219c28.003906 0 50.703125 22.699219 50.703125 50.699219zm0 0" fill="#339"/><path d="m142.542969 461.300781c0 14.433594-11.703125 26.132813-26.136719 26.132813s-26.132812-11.699219-26.132812-26.132813c0-14.433593 11.699218-26.136719 26.132812-26.136719s26.136719 11.703126 26.136719 26.136719zm0 0" fill="#6770e6"/><path d="m471.117188 461.300781c0 28-22.699219 50.699219-50.703126 50.699219-28 0-50.699218-22.699219-50.699218-50.699219s22.699218-50.699219 50.699218-50.699219c28.003907 0 50.703126 22.699219 50.703126 50.699219zm0 0" fill="#339"/><path d="m116.40625 500c-25.96875 0-47.363281-19.53125-50.332031-44.699219-.230469 1.96875-.367188 3.96875-.367188 6 0 28 22.699219 50.699219 50.699219 50.699219s50.703125-22.699219 50.703125-50.699219c0-2.03125-.136719-4.03125-.367187-6-2.96875 25.167969-24.363282 44.699219-50.335938 44.699219zm0 0" fill="#29297a"/><path d="m420.414062 500c-25.96875 0-47.363281-19.53125-50.332031-44.699219-.230469 1.96875-.367187 3.96875-.367187 6 0 28 22.699218 50.699219 50.699218 50.699219s50.703126-22.699219 50.703126-50.699219c0-2.03125-.136719-4.03125-.367188-6-2.96875 25.167969-24.363281 44.699219-50.335938 44.699219zm0 0" fill="#29297a"/><path d="m446.550781 461.300781c0 14.433594-11.703125 26.132813-26.136719 26.132813-14.429687 0-26.132812-11.699219-26.132812-26.132813 0-14.433593 11.703125-26.136719 26.132812-26.136719 14.433594 0 26.136719 11.703126 26.136719 26.136719zm0 0" fill="#6770e6"/><path d="m351.226562 134.960938h-335.585937c-8.636719 0-15.640625 7.003906-15.640625 15.644531v33.082031c0 8.636719 7.003906 15.640625 15.640625 15.640625h335.585937c8.636719 0 15.640626-7.003906 15.640626-15.640625v-33.082031c0-8.640625-7.003907-15.644531-15.640626-15.644531zm0 0" fill="#6770e6"/><path d="m351.226562 134.960938h-335.585937c-8.636719 0-15.640625 7.003906-15.640625 15.644531v15.832031c0-8.640625 7.003906-15.644531 15.640625-15.644531h335.585937c8.636719 0 15.640626 7.003906 15.640626 15.644531v-15.832031c0-8.640625-7.003907-15.644531-15.640626-15.644531zm0 0" fill="#8f95e6"/><path d="m242.59375 266.421875h-118.316406c-8.5 0-15.394532-6.894531-15.394532-15.394531s6.894532-15.390625 15.394532-15.390625h118.316406c8.5 0 15.390625 6.890625 15.390625 15.390625 0 8.503906-6.890625 15.394531-15.390625 15.394531zm0 0" fill="#339"/><path d="m228.820312 41.941406-48.101562-37.179687c-4-3.082031-8.917969-4.761719-13.980469-4.761719h-147.058593c-10.878907 0-19.679688 8.800781-19.679688 19.679688v71.921874c0 10.859376 8.800781 19.679688 19.679688 19.679688h147.058593c5.0625 0 9.980469-1.679688 13.980469-4.78125l10.601562-8.199219c-4.582031-4.679687-7.800781-9.742187-9.082031-15.320312-1.597656-6.878907-.078125-13.78125 4.523438-20.519531-1.183594-2-1.839844-4.339844-1.839844-6.820313 0-7.539063 6.097656-13.640625 13.636719-13.640625 7.140625 0 13 5.5 13.5625 12.5.039062.378906.058594.761719.058594 1.140625 0 3.980469-1.71875 7.578125-4.441407 10.058594-2.4375 2.222656-5.636719 3.5625-9.179687 3.5625-.617188 0-1.21875-.042969-1.820313-.140625-2.71875 3.957031-3.636719 7.617187-2.816406 11.160156.839844 3.597656 3.339844 7.160156 6.976563 10.617188l23.382812-18.078126 4.539062-3.5c1.859376-1.441406 3.320313-3.140624 4.417969-5.019531 4.160157-7.222656 2.683594-16.859375-4.417969-22.359375zm0 0" fill="#ff8354"/><g fill="#ffefe4"><path d="m26.910156 32.945312h21.542969c2.238281 0 4.058594 1.816407 4.058594 4.058594 0 2.238282-1.816407 4.058594-4.058594 4.058594h-16.160156v11.027344h14.132812c2.238281 0 4.058594 1.816406 4.058594 4.058594 0 2.238281-1.816406 4.058593-4.058594 4.058593h-14.132812v13.847657c0 2.363281-1.914063 4.277343-4.277344 4.277343s-4.277344-1.917969-4.277344-4.277343v-37.933594c-.003906-1.753906 1.417969-3.175782 3.171875-3.175782zm0 0"/><path d="m59.105469 36.121094c0-1.753906 1.421875-3.175782 3.175781-3.175782h13.367188c2.28125 0 4.355468.355469 6.210937 1.078126 1.859375.71875 3.453125 1.707031 4.785156 2.976562s2.351563 2.78125 3.074219 4.535156c.71875 1.753906 1.078125 3.667969 1.078125 5.734375 0 1.523438-.25 2.945313-.761719 4.277344-.507812 1.328125-1.203125 2.539063-2.089844 3.613281-.890624 1.078125-1.925781 2.03125-3.105468 2.855469-1.1875.820313-2.4375 1.464844-3.742188 1.929687l-.066406.441407 7.871094 11.277343c1.875 2.683594.066406 6.378907-3.199219 6.546876-1.445313.074218-2.828125-.605469-3.648437-1.800782l-10.40625-15.128906h-3.992188v12.769531c0 2.363281-1.914062 4.277344-4.277344 4.277344-2.363281 0-4.277344-1.917969-4.277344-4.277344v-37.929687zm16.484375 17.300781c1.9375 0 3.535156-.597656 4.78125-1.777344 1.246094-1.179687 1.871094-2.679687 1.871094-4.503906 0-.796875-.140626-1.582031-.414063-2.339844-.273437-.765625-.683594-1.441406-1.234375-2.03125-.546875-.589843-1.234375-1.0625-2.058594-1.425781-.828125-.363281-1.765625-.535156-2.824218-.535156h-8.046876v12.613281zm0 0"/><path d="m106.960938 41.058594v10.519531h14.132812c2.242188 0 4.058594 1.816406 4.058594 4.058594 0 2.238281-1.816406 4.058593-4.058594 4.058593h-14.132812v10.523438h16.160156c2.238281 0 4.058594 1.816406 4.058594 4.058594 0 2.238281-1.816407 4.058594-4.058594 4.058594h-21.542969c-1.753906 0-3.175781-1.425782-3.175781-3.175782v-39.039062c0-1.753906 1.421875-3.175782 3.175781-3.175782h21.542969c2.238281 0 4.058594 1.816407 4.058594 4.058594 0 2.238282-1.816407 4.058594-4.058594 4.058594h-16.160156zm0 0"/><path d="m143.597656 41.058594v10.519531h14.128906c2.242188 0 4.058594 1.816406 4.058594 4.058594 0 2.238281-1.816406 4.058593-4.058594 4.058593h-14.128906v10.523438h16.15625c2.238282 0 4.058594 1.816406 4.058594 4.058594 0 2.238281-1.816406 4.058594-4.058594 4.058594h-21.539062c-1.753906 0-3.175782-1.425782-3.175782-3.175782v-39.039062c0-1.753906 1.421876-3.175782 3.175782-3.175782h21.542968c2.238282 0 4.054688 1.816407 4.054688 4.058594 0 2.238282-1.816406 4.058594-4.054688 4.058594h-16.160156zm0 0"/></g><path d="m19.679688 10h147.058593c5.0625 0 9.980469 1.679688 13.980469 4.761719l48.101562 37.179687c3 2.324219 4.984376 5.390625 5.976563 8.699219 1.964844-6.566406-.019531-14.089844-5.976563-18.699219l-48.101562-37.179687c-4-3.082031-8.917969-4.761719-13.980469-4.761719h-147.058593c-10.878907 0-19.679688 8.800781-19.679688 19.679688v10c0-10.878907 8.800781-19.679688 19.679688-19.679688zm0 0" fill="#ffac8c"/></svg>