<svg height="512pt" viewBox="0 0 512 512.00012" width="512pt" xmlns="http://www.w3.org/2000/svg"><path d="m33.671875 0c-18.601563 0-33.671875 15.070312-33.671875 33.671875v59.003906h67.339844v-59.003906c0-18.601563-15.078125-33.671875-33.667969-33.671875zm0 0" fill="#edd4c2"/><path d="m409.851562 0h-376.183593c18.597656 0 33.667969 15.074219 33.667969 33.671875v478.328125h376.1875v-478.328125c0-18.597656-15.085938-33.671875-33.671876-33.671875zm0 0" fill="#ffefe4"/><path d="m67.335938 492h376.1875v20h-376.1875zm0 0" fill="#edd4c2"/><path d="m409.851562 0h-376.183593c13.726562 0 25.527343 8.21875 30.769531 20h345.414062c18.585938 0 33.671876 15.074219 33.671876 33.671875v-20c0-18.597656-15.085938-33.671875-33.671876-33.671875zm0 0" fill="#fff7f2"/><path d="m250.308594 78.714844h-110.957032c-6.914062 0-12.523437-5.605469-12.523437-12.523438 0-6.914062 5.609375-12.519531 12.523437-12.519531h110.957032c6.914062 0 12.519531 5.605469 12.519531 12.519531 0 6.917969-5.605469 12.523438-12.519531 12.523438zm0 0" fill="#6770e6"/><g fill="#edd4c2"><path d="m214.832031 127.109375h-78.804687c-5.078125 0-9.199219-4.117187-9.199219-9.195313 0-5.082031 4.121094-9.199218 9.199219-9.199218h78.800781c5.082031 0 9.199219 4.117187 9.199219 9.199218.003906 5.078126-4.117188 9.195313-9.195313 9.195313zm0 0"/><path d="m254.832031 175.3125h-118.804687c-5.078125 0-9.199219-4.117188-9.199219-9.195312 0-5.082032 4.121094-9.199219 9.199219-9.199219h118.800781c5.082031 0 9.199219 4.117187 9.199219 9.199219.003906 5.078124-4.117188 9.195312-9.195313 9.195312zm0 0"/><path d="m317.355469 417.261719h-181.328125c-5.078125 0-9.199219-4.121094-9.199219-9.199219 0-5.082031 4.121094-9.199219 9.199219-9.199219h181.324218c5.082032 0 9.199219 4.117188 9.199219 9.199219 0 5.078125-4.117187 9.199219-9.195312 9.199219zm0 0"/><path d="m214.832031 465.460938h-78.804687c-5.078125 0-9.199219-4.117188-9.199219-9.195313 0-5.082031 4.121094-9.199219 9.199219-9.199219h78.800781c5.082031 0 9.199219 4.117188 9.199219 9.199219.003906 5.078125-4.117188 9.195313-9.195313 9.195313zm0 0"/></g><path d="m386.03125 224.511719h-259.203125v-9.199219c0-5.078125 4.121094-9.195312 9.199219-9.195312h240.800781c5.082031 0 9.199219 4.117187 9.199219 9.195312v9.199219zm0 0" fill="#6770e6"/><path d="m126.828125 224.511719v138.613281c0 5.082031 4.121094 9.199219 9.199219 9.199219h240.800781c5.082031 0 9.199219-4.117188 9.199219-9.199219v-138.613281zm0 0" fill="#fff7f2"/><path d="m251.550781 341.878906c-6.117187-.898437-11.5625-3.261718-16.339843-7.101562-2.785157-2.238282-5.101563-5.042969-6.953126-8.417969-2.246093-4.09375-.492187-9.242187 3.832032-11.007813 3.4375-1.40625 7.464844-.210937 9.382812 2.964844.621094 1.023438 1.328125 2 2.128906 2.933594 2.199219 2.570312 4.847657 4.347656 7.949219 5.320312v-23.253906l-1.09375-.496094c-3.015625-1.136718-5.855469-2.480468-8.507812-4.039062-2.648438-1.542969-4.980469-3.34375-6.976563-5.382812-2.007812-2.039063-3.597656-4.34375-4.777344-6.917969-1.1875-2.570313-1.78125-5.445313-1.78125-8.632813 0-2.933594.535157-5.710937 1.59375-8.324218 1.066407-2.605469 2.589844-4.9375 4.597657-6.976563 1.996093-2.035156 4.417969-3.738281 7.28125-5.078125 2.851562-1.347656 6.074219-2.222656 9.664062-2.632812v-5.078126c0-3.011718 2.4375-5.449218 5.449219-5.449218 3.007812 0 5.445312 2.441406 5.445312 5.449218v5.324219c3.269532.484375 6.109376 1.347657 8.507813 2.570313 2.414063 1.222656 4.476563 2.652344 6.25 4.222656.683594.605469 1.34375 1.328125 1.96875 2.105469 3.089844 3.871093 1.519531 9.660156-3.003906 11.675781-3.101563 1.386719-6.667969.519531-8.953125-1.992188-1.195313-1.320312-2.769532-2.617187-4.769532-3.527343v21.910156c3.519532 1.476563 6.691407 2.984375 9.554688 4.535156 2.851562 1.550781 5.300781 3.304688 7.34375 5.265625 2.042969 1.953125 3.589844 4.179688 4.644531 6.664063 1.070313 2.496093 1.59375 5.371093 1.59375 8.632812 0 3.671875-.628906 6.941407-1.890625 9.792969-1.269531 2.859375-2.957031 5.304688-5.085937 7.34375-2.128907 2.042969-4.585938 3.679688-7.402344 4.902344-2.820313 1.222656-5.742187 2.082031-8.757813 2.566406v5.324219c0 3.011719-2.441406 5.449219-5.449218 5.449219-3.011719 0-5.449219-2.441407-5.449219-5.449219v-5.195313zm-8.070312-64.027344c0 1.960938.632812 3.65625 1.890625 5.082032 1.273437 1.429687 3.328125 2.878906 6.179687 4.347656v-17.871094c-2.445312.652344-4.394531 1.710938-5.867187 3.179688-1.476563 1.46875-2.203125 3.222656-2.203125 5.261718zm26.441406 39.421876c0-2.121094-.570313-3.878907-1.722656-5.261719-1.140625-1.390625-3.054688-2.777344-5.753907-4.167969v18.726562c2.210938-.726562 4.003907-1.894531 5.394532-3.484374 1.382812-1.59375 2.082031-3.53125 2.082031-5.8125zm0 0" fill="#6770e6"/><path d="m512 78c0 43.078125-34.921875 78-78 78s-78-34.921875-78-78 34.921875-78 78-78 78 34.921875 78 78zm0 0" fill="#d476e2"/><path d="m433.863281 7.960938c41.792969-.074219 75.964844 32.742187 78.03125 74.039062.070313-1.371094.109375-2.746094.105469-4.136719-.074219-43.078125-35.058594-77.9374998-78.136719-77.863281s-77.9375 35.058594-77.863281 78.136719c.003906 1.285156.039062 2.558593.105469 3.824219 2.078125-41.160157 36.066406-73.925782 77.757812-74zm0 0" fill="#ea82fa"/><path d="m424.835938 114.175781c-3.085938 0-6.195313-1.003906-8.800782-3.0625l-17.5-13.839843c-6.148437-4.863282-7.191406-13.792969-2.328125-19.941407 4.859375-6.148437 13.789063-7.195312 19.941407-2.328125l6.527343 5.160156 26.972657-33.109374c4.957031-6.078126 13.898437-6.992188 19.976562-2.039063s6.988281 13.898437 2.035156 19.972656l-35.8125 43.957031c-2.800781 3.4375-6.890625 5.230469-11.011718 5.230469zm0 0" fill="#fff7f2"/></svg>