<svg id="Layer_1" height="512" viewBox="0 0 150 150" width="512" xmlns="http://www.w3.org/2000/svg" data-name="Layer 1"><circle cx="75" cy="75" fill="#029bc5" r="64"/><path d="m109.49 115.11c-.48-9.1-1.53-19.93-3.8-24.24-3.1-5.89-12.93-8.5-17.92-9.47-.72-.14-1.33-.25-1.82-.32h-.22-.17-.14l-.63-.08-1.2-.09h-.6l-3.37-.23-4.62 1.92-4.62-2.06-3.38.23h-.62l-1.18.08-.67.09h-.17-.18-.17l-1.12.19-.36.06c-4.89.93-15.06 3.53-18.23 9.54-2.3 4.45-3.3 15.27-3.79 24.38z" fill="#e1e6e9"/><path d="m68.39 71.48h13.22v11.12h-13.22z" fill="#f7be56"/><g fill="#fcd462"><path d="m61.51 56.39c1.05-.17 2.18 1.45 2.54 3.62s-.22 4.07-1.27 4.24-2.19-1.45-2.54-3.62.21-4.07 1.27-4.24z"/><path d="m89.08 55.85c-1-.17-2.19 1.45-2.54 3.62s.22 4.07 1.27 4.24 2.19-1.45 2.54-3.62-.21-4.09-1.27-4.24z"/><path d="m63.31 48.54a24.5 24.5 0 0 0 -1.84 9.46c0 10.4 6.06 18.84 13.53 18.84s13.53-8.47 13.53-18.84a24.68 24.68 0 0 0 -1.83-9.43z"/></g><path d="m60.47 52.55c.32 2.66.78 5.15.88 6.91a.86.86 0 0 0 .86.82.86.86 0 0 0 .85-.78c.24-2.52.28-8 .95-11a3.58 3.58 0 0 0 -3.54 4.05z" fill="#1e3b47"/><path d="m86.43 50.93-19.92-2.39c4.75 5.76 12.17 5.46 18.77 3 1.21 1.46 1.72 5.05 1.91 7.94a.86.86 0 0 0 1.72 0 36.35 36.35 0 0 1 .62-4.38 3.58 3.58 0 0 0 -3.1-4.17z" fill="#1e3b47"/><path d="m71.68 115.11h6.65l-1.77-24.33 3.71-5.18-5.27-3-5.27 3 3.71 5.18z" fill="#3a556a"/><path d="m81.61 77.29-6.61 5.31 5.59 6.16 4.2-7.86z" fill="#ebf0f3"/><path d="m68.39 77.29 6.61 5.31-6.21 6.03-3.58-7.73z" fill="#ebf0f3"/><path d="m90.34 53.44h-30.68c.26-7.77 5-16 12.19-17.45l.63-.11a15.88 15.88 0 0 1 2.52-.2 17.08 17.08 0 0 1 2.52.18l.63.1c7.48 1.41 11.93 9.67 12.19 17.48z" fill="#fe7058"/><path d="m91.22 53h-32.44a1 1 0 1 0 0 2h32.44a1 1 0 1 0 0-2z" fill="#ea6453"/><rect fill="#fe7058" height="16.28" rx=".65" width="5.04" x="72.48" y="34.89"/><path d="m75 42.52a4.6 4.6 0 1 0 4.6 4.6 4.6 4.6 0 0 0 -4.6-4.6z" fill="#ea6453"/><path d="m75 43.7a3.42 3.42 0 1 0 3.42 3.42 3.42 3.42 0 0 0 -3.42-3.42z" fill="#ebf0f3"/><path d="m77.52 35.86v6.78l.63-6.64z" fill="#ea6453"/><path d="m71.85 36 .63 6.65v-6.77z" fill="#ea6453"/></svg>