<svg height="512pt" viewBox="0 0 512.00144 512" width="512pt" xmlns="http://www.w3.org/2000/svg"><path d="m437.726562 235.671875c-8.371093 0-15.871093-5.875-17.613281-14.394531-15.914062-77.765625-85.175781-134.207032-164.695312-134.207032-64.855469 0-124.609375 37.941407-152.21875 96.667969-4.230469 8.996094-14.957031 12.855469-23.949219 8.628907-8.996094-4.230469-12.859375-14.953126-8.628906-23.949219 33.519531-71.289063 106.054687-117.347657 184.796875-117.347657 96.542969 0 180.636719 68.546876 199.960937 162.992188 1.996094 9.738281-4.289062 19.25-14.023437 21.242188-1.21875.246093-2.433594.367187-3.628907.367187zm0 0" fill="#ff8354"/><path d="m86.773438 193.558594c-3.667969 0-7.277344-1.121094-10.324219-3.253906-3.910157-2.738282-6.574219-6.917969-7.402344-11.621094l-13.097656-74.28125c-1.726563-9.789063 4.808593-19.125 14.601562-20.851563 9.789063-1.722656 19.125 4.808594 20.851563 14.601563l9.972656 56.554687 56.554688-9.972656c9.789062-1.722656 19.125 4.808594 20.851562 14.601563 1.726562 9.789062-4.808594 19.125-14.601562 20.851562l-74.28125 13.097656c-1.039063.183594-2.085938.273438-3.125.273438zm0 0" fill="#ff8354"/><g fill="#ffac8c"><path d="m69.613281 180.925781c.203125.734375.441407 1.453125.734375 2.15625.019532-.039062.03125-.074219.046875-.109375-.300781-.664062-.5625-1.347656-.78125-2.046875zm0 0"/><path d="m455.382812 214.0625c-19.328124-94.445312-103.421874-162.992188-199.960937-162.992188-62.257813 0-120.617187 28.8125-158.898437 76.105469l2.027343 11.511719c38.296875-45.816406 95.707031-73.617188 156.871094-73.617188 95.214844 0 178.28125 66.699219 199.082031 159.140626 1.222656-3.121094 1.601563-6.617188.878906-10.148438zm0 0"/><path d="m68.886719 177.789062.160156.894532c.007813.054687.023437.105468.035156.15625zm0 0"/><path d="m73.199219 97.546875c8.109375-1.367187 15.910156 2.480469 19.6875 9.023437l-1.484375-8.417968c-1.726563-9.792969-11.066406-16.324219-20.851563-14.601563-9.792969 1.726563-16.328125 11.0625-14.601562 20.851563l1.761719 9.988281c.414062-8.210937 6.683593-15.355469 15.488281-16.84375zm0 0"/></g><path d="m256 460.105469c-96.535156 0-180.632812-68.546875-199.957031-162.992188-1.996094-9.738281 4.285156-19.25 14.023437-21.242187 9.738282-1.992188 19.25 4.285156 21.246094 14.027344 15.914062 77.765624 85.175781 134.207031 164.691406 134.207031 64.859375 0 124.609375-37.945313 152.222656-96.667969 4.226563-9 14.953126-12.859375 23.945313-8.628906 8.996094 4.226562 12.863281 14.949218 8.632813 23.945312-33.523438 71.289063-106.0625 117.351563-184.804688 117.351563zm0 0" fill="#ff8354"/><path d="m412.871094 372.488281c-38.296875 45.816407-95.707032 73.617188-156.871094 73.617188-95.210938 0-178.277344-66.699219-199.082031-159.140625-1.222657 3.125-1.601563 6.621094-.878907 10.148437 19.328126 94.445313 103.421876 162.992188 199.960938 162.992188 62.257812 0 120.617188-28.8125 158.898438-76.105469zm0 0" fill="#e0734a"/><path d="m441.804688 330.222656c-.207032-.722656-.4375-1.4375-.730469-2.128906-.015625.035156-.03125.070312-.042969.105469.292969.652343.554688 1.324219.773438 2.023437zm0 0" fill="#e0734a"/><path d="m437.726562 427.90625c-8.570312 0-16.167968-6.144531-17.707031-14.878906l-9.972656-56.550782-56.554687 9.96875c-9.785157 1.730469-19.125-4.808593-20.851563-14.597656-1.726563-9.789062 4.8125-19.125 14.601563-20.851562l74.28125-13.097656c9.789062-1.726563 19.125 4.808593 20.851562 14.597656l13.097656 74.28125c1.726563 9.792968-4.808594 19.128906-14.597656 20.851562-1.058594.1875-2.113281.277344-3.148438.277344zm0 0" fill="#ff8354"/><path d="m455.472656 406.773438-.859375-4.878907c-2.289062 5.914063-7.886719 10.5625-15.121093 11.730469-1.15625.1875-2.304688.277344-3.4375.277344-7.554688 0-14.410157-4-17.664063-10.132813l1.632813 9.253907c1.539062 8.734374 9.132812 14.878906 17.703124 14.878906 1.039063 0 2.089844-.089844 3.148438-.277344 9.789062-1.722656 16.324219-11.058594 14.597656-20.851562zm0 0" fill="#e0734a"/><path d="m491.757812 253.375h-184.476562c-11.828125 0-21.132812-10.09375-20.175781-21.878906l18.375-226.210938c.238281-2.984375 2.734375-5.285156 5.730469-5.285156h176.617187c2.996094 0 5.488281 2.300781 5.730469 5.285156l18.375 226.210938c.957031 11.785156-8.351563 21.878906-20.175782 21.878906zm0 0" fill="#d476e2"/><path d="m309.640625 9.511719h179.757813c1.910156 0 3.621093.90625 4.691406 2.316406l-.53125-6.542969c-.242188-2.984375-2.734375-5.285156-5.730469-5.285156h-176.617187c-2.996094 0-5.488282 2.300781-5.730469 5.285156l-.53125 6.542969c1.070312-1.410156 2.777343-2.316406 4.691406-2.316406zm0 0" fill="#ea82fa"/><path d="m511.609375 227.484375c-1.796875 9.257813-9.921875 16.382813-19.851563 16.382813h-184.480468c-9.929688 0-18.054688-7.125-19.851563-16.382813l-.324219 4.011719c-.957031 11.785156 8.351563 21.878906 20.175782 21.878906h184.476562c11.828125 0 21.132813-10.09375 20.175782-21.878906zm0 0" fill="#b665c2"/><path d="m352.519531 37.707031c0 6.25-5.066406 11.3125-11.316406 11.3125s-11.3125-5.0625-11.3125-11.3125 5.0625-11.3125 11.3125-11.3125 11.316406 5.0625 11.316406 11.3125zm0 0" fill="#ffefe4"/><path d="m469.148438 37.707031c0 6.25-5.0625 11.3125-11.3125 11.3125s-11.3125-5.0625-11.3125-11.3125 5.0625-11.3125 11.3125-11.3125 11.3125 5.0625 11.3125 11.3125zm0 0" fill="#ffefe4"/><path d="m457.554688 31.53125c-3.789063 0-6.859376 3.074219-6.859376 6.863281v50.058594c0 28.25-22.558593 51.695313-50.808593 51.96875-28.527344.273437-51.824219-22.847656-51.824219-51.3125v-50.714844c0-3.789062-3.070312-6.859375-6.859375-6.859375s-6.859375 3.070313-6.859375 6.859375v49.882813c0 35.808594 28.589844 65.515625 64.394531 65.863281 36.152344.351563 65.675781-28.957031 65.675781-65.03125v-50.714844c0-3.789062-3.074218-6.863281-6.859374-6.863281zm0 0" fill="#ffefe4"/><path d="m204.722656 512h-184.480468c-11.824219 0-21.128907-10.09375-20.1718755-21.878906l18.3749995-226.210938c.242188-2.984375 2.734376-5.285156 5.730469-5.285156h176.617188c2.996093 0 5.488281 2.300781 5.730469 5.285156l18.375 226.210938c.957031 11.785156-8.347657 21.878906-20.175782 21.878906zm0 0" fill="#69ebfc"/><path d="m22.605469 268.132812h179.757812c1.914063 0 3.621094.90625 4.695313 2.316407l-.53125-6.539063c-.242188-2.984375-2.738282-5.285156-5.734375-5.285156h-176.617188c-2.996093 0-5.488281 2.300781-5.730469 5.285156l-.535156 6.539063c1.074219-1.410157 2.785156-2.316407 4.695313-2.316407zm0 0" fill="#a1f1fc"/><path d="m224.574219 486.109375c-1.792969 9.257813-9.921875 16.382813-19.851563 16.382813h-184.480468c-9.925782 0-18.054688-7.125-19.847657-16.382813l-.3281248 4.011719c-.9531252 11.785156 8.3515628 21.878906 20.1757818 21.878906h184.480468c11.828125 0 21.132813-10.09375 20.175782-21.878906zm0 0" fill="#5fd4e3"/><path d="m65.480469 296.332031c0 6.246094-5.0625 11.3125-11.3125 11.3125s-11.3125-5.066406-11.3125-11.3125c0-6.25 5.0625-11.316406 11.3125-11.316406s11.3125 5.066406 11.3125 11.316406zm0 0" fill="#ffefe4"/><path d="m182.113281 296.332031c0 6.246094-5.066406 11.3125-11.3125 11.3125-6.25 0-11.316406-5.066406-11.316406-11.3125 0-6.25 5.066406-11.316406 11.316406-11.316406 6.246094 0 11.3125 5.066406 11.3125 11.316406zm0 0" fill="#ffefe4"/><path d="m170.519531 290.15625c-3.789062 0-6.859375 3.074219-6.859375 6.859375v50.0625c0 28.25-22.558594 51.691406-50.808594 51.964844-28.527343.277343-51.820312-22.847657-51.820312-51.308594v-50.714844c0-3.789062-3.074219-6.859375-6.863281-6.859375-3.785157 0-6.859375 3.070313-6.859375 6.859375v49.882813c0 35.804687 28.589844 65.515625 64.394531 65.863281 36.15625.347656 65.679687-28.957031 65.679687-65.03125v-50.714844c-.003906-3.789062-3.074218-6.863281-6.863281-6.863281zm0 0" fill="#ffefe4"/></svg>