<svg height="512pt" viewBox="-47 0 511 512" width="512pt" xmlns="http://www.w3.org/2000/svg"><path d="m282.035156 512h-239.964844c-22.957031 0-41.570312-18.613281-41.570312-41.570312v-428.859376c0-22.957031 18.613281-41.570312 41.570312-41.570312h239.964844c22.957032 0 41.570313 18.613281 41.570313 41.570312v428.855469c.003906 22.960938-18.609375 41.574219-41.570313 41.574219zm0 0" fill="#6770e6"/><path d="m282.035156 0h-239.964844c-22.957031 0-41.570312 18.613281-41.570312 41.570312v14c0-22.957031 18.613281-41.570312 41.570312-41.570312h239.964844c22.957032 0 41.570313 18.613281 41.570313 41.570312v-14c.003906-22.957031-18.609375-41.570312-41.570313-41.570312zm0 0" fill="#8f95e6"/><path d="m42.070312 512h239.964844c22.957032 0 41.570313-18.613281 41.570313-41.570312v-14c0 22.957031-18.613281 41.570312-41.570313 41.570312h-239.964844c-22.957031 0-41.570312-18.613281-41.570312-41.570312v14c0 22.957031 18.613281 41.570312 41.570312 41.570312zm0 0" fill="#5861c7"/><path d="m42.070312 492c-11.890624 0-21.570312-9.679688-21.570312-21.570312v-402.859376c0-11.890624 9.679688-21.570312 21.570312-21.570312h239.964844c11.894532 0 21.570313 9.679688 21.570313 21.570312v402.859376c0 11.890624-9.675781 21.570312-21.570313 21.570312zm0 0" fill="#a1f1fc"/><path d="m203.328125 31.828125h-112.546875c-4.972656 0-9-4.03125-9-9s4.027344-9 9-9h112.546875c4.96875 0 9 4.03125 9 9s-4.03125 9-9 9zm0 0" fill="#5861c7"/><path d="m242.328125 22.828125c0 4.96875-4.03125 9-9 9s-9-4.03125-9-9 4.03125-9 9-9 9 4.03125 9 9zm0 0" fill="#5861c7"/><path d="m339.804688 165h58.25v58.25h20v-78.25h-78.25zm0 0" fill="#5861c7"/><path d="m106.050781 223.25v-58.25h58.25v-20h-78.25v78.25zm0 0" fill="#5861c7"/><path d="m164.300781 373h-58.25v-58.25h-20v78.25h78.25zm0 0" fill="#5861c7"/><path d="m398.054688 314.75v58.25h-58.25v20h78.25v-78.25zm0 0" fill="#5861c7"/><path d="m359.804688 355.410156h-215.503907c-12.589843 0-22.796875-10.207031-22.796875-22.796875v-127.226562c0-12.589844 10.207032-22.796875 22.796875-22.796875h215.507813c12.589844 0 22.796875 10.207031 22.796875 22.796875v127.226562c-.003907 12.589844-10.210938 22.796875-22.800781 22.796875zm0 0" fill="#ffefe4"/><path d="m359.804688 182.589844h-215.503907c-12.589843 0-22.796875 10.207031-22.796875 22.796875v14c0-12.589844 10.207032-22.796875 22.796875-22.796875h215.507813c12.589844 0 22.796875 10.207031 22.796875 22.796875v-14c-.003907-12.589844-10.210938-22.796875-22.800781-22.796875zm0 0" fill="#fff7f2"/><path d="m144.300781 355.410156h215.507813c12.589844 0 22.796875-10.207031 22.796875-22.796875v-14c0 12.589844-10.207031 22.796875-22.796875 22.796875h-215.507813c-12.589843 0-22.796875-10.207031-22.796875-22.796875v14c0 12.589844 10.203125 22.796875 22.796875 22.796875zm0 0" fill="#edd4c2"/><g fill="#6770e6"><path d="m143.976562 213.515625h9.726563v116.816406h-9.726563zm0 0"/><path d="m165.878906 213.515625h17.003906v93.273437h-17.003906zm0 0"/><path d="m192.609375 213.515625h16.9375v93.273437h-16.9375zm0 0"/><path d="m231.511719 213.515625h9.722656v93.273437h-9.722656zm0 0"/><path d="m216.015625 213.515625h9.726563v93.273437h-9.726563zm0 0"/><path d="m252.050781 213.515625h18.359375v93.273437h-18.359375zm0 0"/><path d="m280.136719 213.515625h9.726562v93.273437h-9.726562zm0 0"/><path d="m299.589844 213.515625h21.550781v93.273437h-21.550781zm0 0"/><path d="m328.769531 213.515625h9.722657v93.273437h-9.722657zm0 0"/><path d="m348.21875 213.515625h9.726562v116.816406h-9.726562zm0 0"/><path d="m182.882812 325.46875c0 2.683594-2.179687 4.859375-4.863281 4.859375h-7.277343c-2.683594 0-4.859376-2.175781-4.859376-4.859375 0-2.6875 2.175782-4.863281 4.859376-4.863281h7.277343c2.683594 0 4.863281 2.179687 4.863281 4.863281zm0 0"/><path d="m209.578125 325.46875c0 2.683594-2.179687 4.859375-4.863281 4.859375h-7.273438c-2.6875 0-4.863281-2.175781-4.863281-4.859375 0-2.6875 2.179687-4.863281 4.863281-4.863281h7.273438c2.683594 0 4.863281 2.179687 4.863281 4.863281zm0 0"/><path d="m270.410156 325.46875c0 2.6875-2.175781 4.863281-4.859375 4.863281h-44.671875c-2.683594 0-4.859375-2.179687-4.859375-4.863281s2.175781-4.859375 4.859375-4.859375h44.671875c2.683594-.003906 4.859375 2.175781 4.859375 4.859375zm0 0"/><path d="m289.863281 325.46875c0 2.6875-2.175781 4.863281-4.859375 4.863281-2.6875 0-4.863281-2.179687-4.863281-4.863281s2.175781-4.859375 4.863281-4.859375c2.683594-.003906 4.859375 2.175781 4.859375 4.859375zm0 0"/><path d="m338.492188 325.46875c0 2.6875-2.179688 4.863281-4.863282 4.863281s-4.859375-2.179687-4.859375-4.863281 2.175781-4.859375 4.859375-4.859375c2.6875-.003906 4.863282 2.175781 4.863282 4.859375zm0 0"/><path d="m321.140625 325.46875c0 2.6875-2.179687 4.863281-4.863281 4.863281h-11.824219c-2.683594 0-4.859375-2.179687-4.859375-4.863281s2.175781-4.859375 4.859375-4.859375h11.824219c2.683594-.003906 4.863281 2.175781 4.863281 4.859375zm0 0"/></g></svg>