<svg height="512pt" viewBox="0 0 512.00039 512" width="512pt" xmlns="http://www.w3.org/2000/svg"><path d="m336.726562 429.316406h-161.453124c-9.207032 0-16.671876-7.464844-16.671876-16.671875v-138.890625h194.800782v138.890625c-.003906 9.207031-7.46875 16.671875-16.675782 16.671875zm0 0" fill="#5861c7"/><path d="m355.636719 235.535156h-199.273438c-5.128906 0-9.285156 4.160156-9.285156 9.289063v19.644531c0 5.128906 4.15625 9.285156 9.285156 9.285156h199.273438c5.128906 0 9.289062-4.15625 9.289062-9.285156v-19.644531c0-5.128907-4.160156-9.289063-9.289062-9.289063zm0 0" fill="#6770e6"/><path d="m355.636719 235.535156h-199.273438c-5.128906 0-9.285156 4.160156-9.285156 9.289063v9.398437c0-5.128906 4.15625-9.285156 9.285156-9.285156h199.273438c5.128906 0 9.289062 4.15625 9.289062 9.285156v-9.398437c0-5.128907-4.160156-9.289063-9.289062-9.289063zm0 0" fill="#8f95e6"/><path d="m291.128906 313.597656h-70.257812c-5.046875 0-9.140625-4.09375-9.140625-9.140625 0-5.050781 4.09375-9.140625 9.140625-9.140625h70.257812c5.046875 0 9.140625 4.089844 9.140625 9.140625 0 5.046875-4.09375 9.140625-9.140625 9.140625zm0 0" fill="#339"/><path d="m384.738281 359.105469c-19.566406 22.175781-49.570312 65.421875-61.3125 65.421875-5.355469 0-21.902343-3.03125-38.308593-6.328125 27.359374-7.632813 55.027343-20.035157 59.808593-24.816407 7.121094-7.117187-6.230469-16.019531-31.148437-16.019531-24.917969 0-40.046875 6.816407-70.304688 6.816407-30.257812 0-29.515625-12.929688-57.921875-12.929688s-57.542969 25.855469-57.542969 25.855469h-51.46875v72.265625h64.417969s56.851563 19.917968 78.050781 19.917968h102.074219c28.78125 0 97.570313-118.445312 106.703125-130.183593 9.132813-11.742188-23.480468-22.175781-43.046875 0zm0 0" fill="#ffefe4"/><path d="m426.121094 349.6875c-13.816406 20.234375-77.605469 127.859375-105.039063 127.859375-10.4375 0-80.878906 0-102.074219 0-21.199218 0-78.050781-19.917969-78.050781-19.917969h-64.417969v11.742188h64.417969s56.851563 19.917968 78.050781 19.917968h102.074219c28.78125 0 97.570313-118.445312 106.703125-130.183593 2.757813-3.550781 1.6875-6.972657-1.664062-9.417969zm0 0" fill="#edd4c2"/><path d="m44.242188 383.617188h32.296874v105.671874h-32.296874zm0 0" fill="#69ebfc"/><path d="m44.242188 477.546875h32.296874v11.742187h-32.296874zm0 0" fill="#5fd4e3"/><path d="m44.242188 512h-44.242188v-151.09375h44.242188zm0 0" fill="#6770e6"/><path d="m0 500.257812h44.242188v11.742188h-44.242188zm0 0" fill="#5861c7"/><path d="m324.921875 81.976562 62.546875 14.082032 47.773438-48.136719-87.648438-38.554687c-1.382812-.609376-2.707031-1.328126-4.023438-2.058594-23.277343-12.910156-64.550781-8.410156-82.078124 11.074218l-42.832032 47.621094c-2.675781 2.972656-4.152344 6.828125-4.152344 10.824219v41.53125h-.082031v3.074219c0 9.511718 4.382813 18.488281 11.882813 24.335937l16 12.464844c1.785156 1.390625 3.953125 1.976563 6.058594 1.792969 2.128906-.167969 4.195312-1.117188 5.730468-2.816406l2.359375-2.613282c.570313-.632812 1.078125-1.304687 1.554688-1.984375l7.214843 5.621094c3.570313 2.78125 8.679688 2.332031 11.710938-1.023437l2.355469-2.613282c2.421875-2.691406 3.992187-5.867187 4.742187-9.191406l9.976563 7.605469c3.1875 2.429687 7.703125 2.035156 10.421875-.910157l2.074218-2.253906c6.132813-6.648437 6.210938-16.871094.175782-23.613281l-7.046875-7.875.046875-14.546875zm0 0" fill="#ffefe4"/><path d="m354.429688 132.265625c0 39.402344-31.945313 71.347656-71.347657 71.347656-39.40625 0-71.351562-31.945312-71.351562-71.347656 0-39.40625 31.945312-71.351563 71.351562-71.351563 39.402344 0 71.347657 31.945313 71.347657 71.351563zm0 0" fill="#69ebfc"/><path d="m332.476562 132.265625c0 27.277344-22.117187 49.394531-49.394531 49.394531-27.28125 0-49.398437-22.117187-49.398437-49.394531 0-27.28125 22.117187-49.398437 49.398437-49.398437 27.277344 0 49.394531 22.117187 49.394531 49.398437zm0 0" fill="#5fd4e3"/><path d="m279.464844 164.976562c-4.671875-.683593-8.824219-2.492187-12.46875-5.421874-2.128906-1.707032-3.894532-3.847657-5.308594-6.425782-1.71875-3.125-.378906-7.054687 2.921875-8.402344 2.625-1.074218 5.699219-.160156 7.164063 2.265626.472656.78125 1.011718 1.527343 1.625 2.234374 1.679687 1.964844 3.699218 3.320313 6.066406 4.066407v-17.75l-.832032-.378907c-2.304687-.867187-4.472656-1.894531-6.496093-3.082031-2.019531-1.179687-3.796875-2.554687-5.324219-4.109375-1.53125-1.554687-2.746094-3.316406-3.644531-5.277344-.90625-1.964843-1.359375-4.15625-1.359375-6.589843 0-2.238281.40625-4.359375 1.214844-6.355469.816406-1.988281 1.980468-3.765625 3.511718-5.320312 1.523438-1.558594 3.375-2.855469 5.558594-3.878907 2.175781-1.03125 4.632812-1.695312 7.375-2.011719v-3.878906c0-2.292968 1.863281-4.15625 4.15625-4.15625 2.296875 0 4.160156 1.863282 4.160156 4.15625v4.066406c2.492188.371094 4.660156 1.027344 6.492188 1.964844 1.84375.933594 3.414062 2.023438 4.769531 3.222656.523437.460938 1.027344 1.011719 1.5 1.605469 2.363281 2.953125 1.164063 7.371094-2.289063 8.914063-2.367187 1.054687-5.089843.390625-6.835937-1.527344-.914063-1.003906-2.117187-1.996094-3.640625-2.691406v16.726562c2.683594 1.125 5.105469 2.277344 7.292969 3.460938 2.175781 1.183594 4.042969 2.519531 5.605469 4.015625 1.558593 1.492187 2.738281 3.195312 3.542968 5.089843.816406 1.902344 1.21875 4.101563 1.21875 6.589844 0 2.800782-.480468 5.296875-1.441406 7.472656-.972656 2.183594-2.257812 4.050782-3.882812 5.609376-1.625 1.558593-3.503907 2.804687-5.652344 3.738281-2.148438.9375-4.378906 1.589843-6.683594 1.960937v4.066406c0 2.292969-1.859375 4.15625-4.15625 4.15625s-4.160156-1.863281-4.160156-4.15625zm-6.15625-48.871093c0 1.496093.480468 2.789062 1.441406 3.878906.96875 1.089844 2.539062 2.199219 4.714844 3.320313v-13.644532c-1.867188.496094-3.355469 1.304688-4.476563 2.425782-1.128906 1.125-1.679687 2.464843-1.679687 4.019531zm20.179687 30.089843c0-1.621093-.4375-2.960937-1.316406-4.015624-.871094-1.0625-2.332031-2.121094-4.390625-3.183594v14.296875c1.6875-.558594 3.058594-1.445313 4.121094-2.664063 1.050781-1.214844 1.585937-2.691406 1.585937-4.433594zm0 0" fill="#a1f1fc"/><path d="m264.09375 70.617188h102.1875l68.964844-22.695313h17.214844v96.269531h-53.585938c-17.375 0-34.246094-5.847656-47.894531-16.605468l-13.539063-10.667969c-6.402344-5.042969-14.316406-7.789063-22.46875-7.789063h-50.878906c-10.636719 0-19.257812-8.621094-19.257812-19.253906 0-10.636719 8.621093-19.257812 19.257812-19.257812zm0 0" fill="#ffefe4"/><path d="m214.425781 121.433594c0 .472656.058594.9375.082031 1.410156v-4.484375h-.082031zm0 0" fill="#fff7f2"/><path d="m435.246094 47.921875-5.707032-2.507813-81.945312-36.046874c-1.382812-.609376-2.707031-1.328126-4.023438-2.058594-23.277343-12.910156-64.550781-8.410156-82.078124 11.074218l-42.832032 47.621094c-2.671875 2.972656-4.152344 6.828125-4.152344 10.824219v14c0-4 1.480469-7.851563 4.152344-10.824219l42.832032-47.621094c17.527343-19.484374 58.800781-23.984374 82.078124-11.074218 1.316407.730468 2.640626 1.453125 4.023438 2.058594l77.980469 34.300781 9.671875 3.984375h17.214844v-13.730469zm0 0" fill="#fff7f2"/><path d="m467.632812 149.046875h-32.390624v-105.976563h32.390624zm0 0" fill="#69ebfc"/><path d="m435.246094 43.070312h32.386718v11.773438h-32.386718zm0 0" fill="#a1f1fc"/><path d="m467.632812 20.292969h44.367188v151.527343h-44.367188zm0 0" fill="#6770e6"/><path d="m467.632812 20.292969h44.367188v11.773437h-44.367188zm0 0" fill="#8f95e6"/></svg>