<svg id="Layer_1" height="512" viewBox="0 0 150 150" width="512" xmlns="http://www.w3.org/2000/svg" data-name="Layer 1"><circle cx="75" cy="75" fill="#3a556a" r="64"/><path d="m100.1 49.64v50.72c-4.29 4.31-6.7 6.72-11 11h-28.19c-4.31-4.29-6.72-6.7-11-11v-50.72c4.29-4.31 6.7-6.71 11-11h28.18c4.31 4.29 6.72 6.69 11.01 11z" fill="#ebf0f3"/><path d="m89.09 38.63-4.97 12.01-22.21 44.76-12.01 4.96 11.01 11.01 4.96-12.01 22.22-44.76 12.01-4.96z" fill="#fff"/><path d="m60.91 38.63 4.97 12.01 22.21 44.76 12.01 4.96-11.01 11.01-4.96-12.01-22.22-44.76-12.01-4.96z" fill="#e1e6e9"/><path d="m84.12 50.64h-18.24l-4 4v40.76l4 4h18.25c1.36-1.35 2.6-2.6 4-4v-40.8z" fill="#e1e6e9"/><path d="m92 98.35c-3.87-3.87-3.87-3.87-3.87 7.07 0-10.94 0-10.94-3.87-7.07 3.87-3.87 3.87-3.87-7.07-3.87 10.94 0 10.94 0 7.07-3.87 3.87 3.87 3.87 3.87 3.87-7.07 0 10.94 0 10.94 3.87 7.07-3.87 3.87-3.87 3.87 7.08 3.87-10.99 0-10.99 0-7.08 3.87z" fill="#fff"/></svg>