<svg height="512pt" viewBox="0 0 512 512.00473" width="512pt" xmlns="http://www.w3.org/2000/svg"><path d="m342.28125 163.105469-8.71875-6.921875-23.921875-19.019532-80.816406-64.28125c-12.5 6.722657-23.183594 13.582032-31.34375 20.261719 5.980469 5.660157 9.703125 13.679688 9.703125 22.558594 0 4.621094-1 9-2.820313 12.941406-3.28125 7.179688-9.199219 12.878907-16.519531 15.859375-3.621094 1.480469-7.582031 2.300782-11.742188 2.300782-17.179687 0-31.097656-13.921876-31.097656-31.101563 0-17.160156 13.898438-31.078125 31.078125-31.097656 0 0 0-.019531.019531 0 1.660157-1.679688 3.441407-3.359375 5.378907-5.039063 7.84375-6.820312 17.980469-13.761718 29.820312-20.582031l-6.117187-4.878906c-17.019532-13.539063-41.140625-13.539063-58.179688 0l-137.101562 109c-6.261719 4.980469-9.89843775 12.539062-9.89843775 20.539062v302.140625c0 14.480469 11.73828175 26.21875 26.21874975 26.21875h299.738282c14.480468 0 26.222656-11.738281 26.222656-26.21875v-302.140625c0-8-3.640625-15.558593-9.902344-20.539062zm0 0" fill="#ff8354"/><path d="m325.960938 498.003906h-299.738282c-14.480468 0-26.21874975-11.738281-26.21874975-26.21875v14c0 14.480469 11.73828175 26.21875 26.21874975 26.21875h299.738282c14.480468 0 26.222656-11.738281 26.222656-26.21875v-14c0 14.480469-11.742188 26.21875-26.222656 26.21875zm0 0" fill="#e0734a"/><path d="m59.203125 281.691406c0-7.019531 1.351563-13.640625 4.058594-19.859375 2.707031-6.214843 6.417969-11.683593 11.132812-16.398437 4.710938-4.710938 10.277344-8.425782 16.699219-11.132813 6.417969-2.707031 13.4375-4.058593 21.0625-4.058593 7.621094 0 14.691406 1.351562 21.210938 4.058593 6.515624 2.710938 12.132812 6.425781 16.847656 11.132813 4.714844 4.714844 8.425781 10.183594 11.132812 16.398437 2.707032 6.21875 4.0625 12.839844 4.0625 19.859375 0 7.023438-1.355468 13.6875-4.0625 20.007813-2.707031 6.320312-6.421875 11.789062-11.132812 16.398437-4.714844 4.617188-10.332032 8.273438-16.847656 10.984375-6.519532 2.707031-13.589844 4.0625-21.210938 4.0625-7.625 0-14.644531-1.355469-21.0625-4.0625-6.421875-2.710937-11.988281-6.367187-16.699219-10.984375-4.714843-4.609375-8.425781-10.078125-11.132812-16.398437-2.707031-6.320313-4.058594-12.988281-4.058594-20.007813zm32.191406 0c0 6.621094 2.003907 11.933594 6.019531 15.945313 4.011719 4.015625 8.921876 6.019531 14.742188 6.019531 5.816406 0 10.726562-2.003906 14.742188-6.019531 4.011718-4.011719 6.019531-9.328125 6.019531-15.945313 0-6.621094-2.007813-11.933594-6.019531-15.945312-4.015626-4.011719-8.929688-6.019532-14.742188-6.019532-5.820312 0-10.730469 2.007813-14.742188 6.019532-4.015624 4.011718-6.019531 9.324218-6.019531 15.945312zm13.976563 136.148438 117.664062-175.699219c4.398438-6.574219 13.296875-8.328125 19.863282-3.925781 6.558593 4.402344 8.3125 13.285156 3.917968 19.851562l-117.664062 175.699219c-4.398438 6.574219-13.296875 8.328125-19.863282 3.921875-6.5625-4.398438-8.316406-13.28125-3.917968-19.847656zm81.402344-23.621094c0-7.019531 1.351562-13.636719 4.0625-19.859375 2.707031-6.214844 6.417968-11.679687 11.128906-16.398437 4.714844-4.710938 10.28125-8.425782 16.703125-11.128907 6.417969-2.710937 13.433593-4.0625 21.058593-4.0625s14.695313 1.351563 21.214844 4.0625c6.515625 2.707031 12.132813 6.421875 16.847656 11.128907 4.710938 4.71875 8.425782 10.183593 11.132813 16.398437 2.707031 6.222656 4.058594 12.839844 4.058594 19.859375 0 7.023438-1.351563 13.691406-4.058594 20.011719-2.710937 6.316406-6.421875 11.785156-11.132813 16.394531-4.714843 4.621094-10.335937 8.277344-16.847656 10.984375-6.523437 2.710937-13.59375 4.0625-21.214844 4.0625-7.625 0-14.640624-1.351563-21.058593-4.0625-6.421875-2.707031-11.988281-6.363281-16.703125-10.984375-4.710938-4.609375-8.421875-10.078125-11.128906-16.394531-2.707032-6.320313-4.0625-12.988281-4.0625-20.011719zm32.195312 0c0 6.621094 2.003906 11.9375 6.019531 15.945312 4.011719 4.015626 8.925781 6.019532 14.742188 6.019532 5.816406 0 10.726562-2.003906 14.742187-6.019532 4.011719-4.007812 6.019532-9.328124 6.019532-15.945312 0-6.621094-2.007813-11.929688-6.019532-15.945312-4.015625-4.011719-8.929687-6.019532-14.742187-6.019532-5.820313 0-10.730469 2.007813-14.742188 6.019532-4.019531 4.015624-6.019531 9.324218-6.019531 15.945312zm0 0" fill="#ffefe4"/><path d="m510.941406 50.605469c-4-20.601563-18.339844-35.722657-41.480468-43.679688-64.378907-22.179687-189.636719 12.617188-258.160157 52.058594l17.523438 13.898437c25.699219-13.816406 59.097656-27.039062 93.878906-36.757812 36.679687-10.242188 70.277344-15.460938 97.679687-15.460938 16.640626 0 31 1.921876 42.339844 5.839844 16.179688 5.5625 25.320313 14.742188 27.898438 28.0625 9.160156 47.117188-82.296875 68.699219-110.558594 74.179688-22.441406 4.359375-46.660156 7.199218-70.421875 8.417968-22.316406 1.140626-44.238281.820313-63.878906-1.039062-18.238281-1.742188-31.679688-4.460938-41.398438-7.480469-3.082031-.980469-5.800781-1.960937-8.160156-2.960937-9.820313-4.140625-13.761719-8.398438-14.300781-11.117188-.621094-3.28125 2.5-10.101562 13.160156-19.382812.78125-.679688 1.578125-1.359375 2.417969-2.039063-5.578125-5.300781-13.097657-8.539062-21.378907-8.539062-.019531-.019531-.019531 0-.019531 0-9.941406 9.980469-14.960937 19.699219-14.960937 29 0 1.660156.160156 3.300781.480468 4.917969 2.28125 11.78125 12.5 20.101562 26.242188 25.980468 16.160156 6.902344 37.179688 10.441406 55.957031 12.222656 12.660157 1.199219 26.203125 1.777344 40.179688 1.777344 16.160156 0 32.941406-.800781 49.582031-2.320312 17.199219-1.578125 34.28125-3.957032 50.460938-7.117188 89.4375-17.382812 135.699218-53.261718 126.917968-98.460937zm0 0" fill="#6770e6"/><path d="m176.101562 84.605469c-.019531-.019531-.019531 0-.019531 0-9.941406 9.980469-14.960937 19.699219-14.960937 29 0 1.660156.160156 3.300781.480468 4.917969.128907.671874.292969 1.332031.476563 1.980468 1.882813-7.109375 6.566406-14.429687 14.003906-21.898437 0 0 0-.019531.019531 0 1.660157-1.679688 3.441407-3.359375 5.378907-5.039063 2.324219-2.023437 4.875-4.054687 7.589843-6.09375-3.953124-1.820312-8.332031-2.867187-12.96875-2.867187zm0 0" fill="#8f95e6"/><path d="m510.941406 50.605469c-4-20.601563-18.339844-35.722657-41.480468-43.679688-64.378907-22.179687-189.636719 12.617188-258.160157 52.058594l10.441407 8.28125c70.175781-36.972656 186.476562-67.441406 247.71875-46.339844 23.140624 7.957031 37.480468 23.078125 41.480468 43.679688.234375 1.207031.410156 2.40625.566406 3.601562.765626-5.6875.609376-11.558593-.566406-17.601562zm0 0" fill="#8f95e6"/><path d="m228.824219 72.882812c-12.5 6.722657-23.183594 13.582032-31.34375 20.261719-5.578125-5.300781-13.097657-8.539062-21.378907-8.539062 1.660157-1.679688 3.441407-3.359375 5.378907-5.039063 7.84375-6.820312 17.980469-13.761718 29.820312-20.582031zm0 0" fill="#ff8354"/><path d="m503.089844 512.003906h-174.027344c-4.921875 0-8.914062-3.988281-8.914062-8.910156s3.992187-8.914062 8.914062-8.914062h174.027344c4.921875 0 8.914062 3.992187 8.914062 8.914062s-3.992187 8.910156-8.914062 8.910156zm0 0" fill="#6770e6"/><path d="m503.089844 223.832031h-174.027344c-4.921875 0-8.914062-3.988281-8.914062-8.910156s3.992187-8.914063 8.914062-8.914063h174.027344c4.921875 0 8.914062 3.992188 8.914062 8.914063s-3.992187 8.910156-8.914062 8.910156zm0 0" fill="#6770e6"/><path d="m329.0625 216.007812h174.027344c3.070312 0 5.773437 1.550782 7.375 3.910157.96875-1.425781 1.539062-3.144531 1.539062-5 0-4.921875-3.992187-8.910157-8.914062-8.910157h-174.027344c-4.921875 0-8.914062 3.988282-8.914062 8.910157 0 1.855469.570312 3.574219 1.539062 5 1.601562-2.359375 4.308594-3.910157 7.375-3.910157zm0 0" fill="#8f95e6"/><path d="m503.089844 502.003906h-174.027344c-3.066406 0-5.773438-1.550781-7.375-3.910156-.96875 1.425781-1.539062 3.144531-1.539062 5 0 4.921875 3.992187 8.910156 8.914062 8.910156h174.027344c4.921875 0 8.914062-3.988281 8.914062-8.910156 0-1.855469-.570312-3.574219-1.539062-5-1.601563 2.359375-4.304688 3.910156-7.375 3.910156zm0 0" fill="#5861c7"/><path d="m500.863281 271.949219v-47.96875h-169.574219v47.96875c0 35.324219 21.617188 65.585937 52.332032 78.324219 3.523437 1.464843 5.808594 4.914062 5.808594 8.730468s-2.285157 7.269532-5.808594 8.730469c-30.714844 12.742187-52.332032 43-52.332032 78.328125v47.96875h169.574219v-47.96875c0-35.328125-21.613281-65.589844-52.332031-78.328125-3.523438-1.460937-5.808594-4.914063-5.808594-8.730469 0-3.8125 2.285156-7.265625 5.808594-8.730468 30.71875-12.738282 52.332031-43 52.332031-78.324219zm0 0" fill="#a1f1fc"/><path d="m359.324219 291.460938c-1.453125 0-2.453125 1.460937-1.941407 2.820312 6.015626 15.851562 18.332032 28.890625 34.667969 35.664062 10.382813 4.308594 17.523438 13.679688 19.070313 24.589844.332031 2.355469 2.234375 4.296875 4.605468 4.460938 2.667969.179687 4.929688-1.753906 5.289063-4.363282 1.515625-10.949218 8.671875-20.367187 19.085937-24.683593 16.335938-6.777344 28.652344-19.816407 34.664063-35.667969.515625-1.359375-.484375-2.820312-1.9375-2.820312zm0 0" fill="#ff8354"/><path d="m407.703125 412.851562-57.8125 56.90625c-3.789063 3.734376-1.148437 10.1875 4.171875 10.1875h124.023438c5.324218 0 7.964843-6.453124 4.171874-10.1875l-57.8125-56.90625c-4.640624-4.570312-12.097656-4.570312-16.742187 0zm0 0" fill="#ff8354"/><g fill="#ffac8c"><path d="m342.28125 163.105469-8.71875-6.921875c-5.355469.492187-10.722656.878906-16.082031 1.214844l16.082031 12.785156 8.71875 6.921875c6.261719 4.980469 9.902344 12.539062 9.902344 20.539062v-14c0-8-3.640625-15.558593-9.902344-20.539062zm0 0"/><path d="m205.183594 68.105469 6.117187 4.878906 17.523438 13.898437 63.949219 50.863282c5.578124-.097656 11.207031-.292969 16.867187-.582032l-80.816406-64.28125-17.523438-13.898437-6.117187-4.878906c-17.019532-13.539063-41.140625-13.539063-58.179688 0l-137.101562 109c-6.261719 4.980469-9.89843775 12.539062-9.89843775 20.539062v14c0-8 3.63671875-15.558593 9.89843775-20.539062l137.101562-109c17.039063-13.539063 41.160156-13.539063 58.179688 0zm0 0"/></g></svg>