<svg height="512pt" viewBox="-12 0 512 512.00081" width="512pt" xmlns="http://www.w3.org/2000/svg"><path d="m434.210938 434.460938h-356.421876c-21.546874 0-39.019531-17.46875-39.019531-39.015626v-356.425781c0-21.550781 17.46875-39.019531 39.019531-39.019531h356.425782c21.546875 0 39.019531 17.46875 39.019531 39.019531v356.425781c-.003906 21.546876-17.472656 39.015626-39.023437 39.015626zm0 0" fill="#d476e2"/><path d="m434.210938 0h-356.421876c-21.550781 0-39.019531 17.46875-39.019531 39.019531v14c0-21.550781 17.46875-39.019531 39.019531-39.019531h356.425782c21.546875 0 39.019531 17.46875 39.019531 39.019531v-14c-.003906-21.550781-17.472656-39.019531-39.023437-39.019531zm0 0" fill="#ea82fa"/><path d="m94.324219 264.460938c-14.113281 0-25.554688-11.441407-25.554688-25.554688v-183.355469c0-14.109375 11.441407-25.550781 25.554688-25.550781h323.355469c14.113281 0 25.554687 11.441406 25.554687 25.550781v183.359375c0 14.113282-11.441406 25.550782-25.554687 25.550782zm0 0" fill="#fff7f2"/><path d="m44.242188 383.617188h32.296874v105.671874h-32.296874zm0 0" fill="#69ebfc"/><path d="m443.546875 405.40625c-26.117187.621094-82.148437 15.433594-111.539063 18.382812-13.417968 1.34375-26.554687-10.335937-37.839843-11.671874 17.925781-5.050782 59.296875-3.300782 72.78125-10.269532 20.074219-10.378906-19.183594-22.066406-34.03125-24.816406-14.84375-2.753906-57.441407-2.820312-79.515625-3-22.078125-.183594-41.386719-13.4375-64.578125-11.828125-23.195313 1.613281-45.648438 15.542969-62.722657 31.734375-16.324218 2.414062-33.125 2.953125-49.566406 3.253906v72.929688c18.441406-.351563 44.367188 3.386718 67.375 3.027344 21.644532 1.359374 54.574219 4.085937 75.21875 2.738281 20.648438-1.351563 83.40625 9.910156 90.40625 10.253906 19.300782.949219 147.3125-40.734375 171.039063-51.289063 23.71875-10.558593-10.90625-30.0625-37.027344-29.445312zm0 0" fill="#ffefe4"/><path d="m480.574219 424.851562c-23.722657 10.554688-151.738281 52.234376-171.039063 51.289063-7-.339844-69.757812-11.601563-90.40625-10.253906-20.644531 1.347656-53.574218-1.378907-75.21875-2.738281-23.007812.359374-48.933594-3.378907-67.375-3.027344v10c18.441406-.351563 44.367188 3.386718 67.375 3.027344 21.644532 1.359374 54.574219 4.085937 75.21875 2.738281 20.648438-1.351563 83.40625 9.910156 90.40625 10.253906 19.300782.949219 147.3125-40.734375 171.039063-51.289063 8.71875-3.882812 9.535156-8.96875 5.808593-13.824218-1.285156 1.355468-3.167968 2.648437-5.808593 3.824218zm0 0" fill="#edd4c2"/><path d="m44.242188 477.546875h32.296874v11.742187h-32.296874zm0 0" fill="#5fd4e3"/><path d="m44.242188 512h-44.242188v-151.09375h44.242188zm0 0" fill="#6770e6"/><path d="m0 500.261719h44.242188v11.738281h-44.242188zm0 0" fill="#5861c7"/><path d="m371.867188 115.761719-49.753907-49.582031c-1.246093-1.242188-2.933593-1.941407-4.691406-1.941407h-24.171875c0 20.652344-16.738281 37.394531-37.390625 37.394531s-37.390625-16.742187-37.390625-37.394531h-24.160156c-1.765625 0-3.457032.703125-4.707032 1.953125l-49.480468 49.570313c-1.066406 1.0625-1.066406 2.789062 0 3.855469l25.953125 25.953124c1.066406 1.066407 2.792969 1.066407 3.859375 0l21.621094-21.617187v103.542969c0 1.507812 1.21875 2.726562 2.726562 2.726562h123.160156c1.503906 0 2.726563-1.21875 2.726563-2.726562v-103.816406l21.890625 21.890624c1.066406 1.066407 2.792968 1.066407 3.859375 0l25.953125-25.953124c1.0625-1.066407 1.0625-2.792969-.003906-3.855469zm0 0" fill="#ff8354"/><path d="m293.25 64.238281c0 20.652344-16.738281 37.390625-37.390625 37.390625s-37.390625-16.738281-37.390625-37.390625h8.035156c0 16.210938 13.144532 29.351563 29.355469 29.351563s29.351563-13.140625 29.351563-29.351563zm0 0" fill="#6770e6"/><path d="m285.210938 64.238281c0 16.210938-13.140626 29.351563-29.351563 29.351563s-29.355469-13.140625-29.355469-29.351563zm0 0" fill="#e0734a"/><g fill="#6770e6"><path d="m320.167969 227.492188v-5.308594h-128.617188v5.308594c0 1.507812 1.222657 2.730468 2.726563 2.730468h123.164062c1.503906 0 2.726563-1.222656 2.726563-2.730468zm0 0"/><path d="m371.878906 115.773438-3.753906-3.757813-29.796875 29.796875 3.753906 3.757812c1.066407 1.066407 2.792969 1.066407 3.859375 0l25.941406-25.941406c1.0625-1.066406 1.0625-2.789062-.003906-3.855468zm0 0"/><path d="m140.121094 115.773438 3.753906-3.757813 29.800781 29.796875-3.757812 3.757812c-1.066407 1.066407-2.792969 1.066407-3.855469 0l-25.941406-25.941406c-1.066406-1.066406-1.066406-2.789062 0-3.855468zm0 0"/></g><path d="m355.640625 311.351562h-199.277344c-6.257812 0-11.332031-5.074218-11.332031-11.332031 0-6.257812 5.074219-11.332031 11.332031-11.332031h199.277344c6.257813 0 11.332031 5.074219 11.332031 11.332031 0 6.257813-5.074218 11.332031-11.332031 11.332031zm0 0" fill="#b665c2"/><path d="m395.640625 358.242188h-279.277344c-6.257812 0-11.332031-5.074219-11.332031-11.332032 0-6.257812 5.074219-11.332031 11.332031-11.332031h279.277344c6.257813 0 11.332031 5.074219 11.332031 11.332031 0 6.257813-5.074218 11.332032-11.332031 11.332032zm0 0" fill="#b665c2"/></svg>