<svg height="512pt" viewBox="0 0 512 512" width="512pt" xmlns="http://www.w3.org/2000/svg"><path d="m53.960938 214.667969 92.601562 254.417969.113281-.175782c.421875 1.460938.882813 2.914063 1.410157 4.359375 11.136718 30.605469 45.03125 46.355469 75.621093 35.082031 29.347657-10.816406 45.238281-43.292968 35.699219-73.078124-7.78125-24.308594-29.648438-39.828126-53.414062-40.902344-1.617188-.070313-3.242188-.078125-4.875-.007813-11.089844-.890625-21.25-7.769531-25.898438-18.527343l-79.019531-217.101563c-.441407-1.214844-1.789063-1.84375-3.007813-1.398437l-15.050781 5.476562c-20.996094 7.640625-31.820313 30.859375-24.179687 51.855469zm140.042968 212.773437c14.199219-5.167968 29.902344 2.15625 35.070313 16.355469 5.171875 14.203125-2.152344 29.90625-16.355469 35.074219-14.199219 5.171875-29.90625-2.152344-35.074219-16.355469-5.167969-14.199219 2.15625-29.902344 16.359375-35.074219zm0 0" fill="#5861c7"/><path d="m78.128906 176.671875 21.230469-7.910156c.144531-.050781.289063-.085938.433594-.109375l-3.605469-9.914063c-.445312-1.21875-1.792969-1.847656-3.007812-1.402343l-15.050782 5.476562c-18.714844 6.8125-29.335937 25.992188-26.019531 44.949219 2.417969-13.796875 11.917969-25.957031 26.019531-31.089844zm0 0" fill="#8f95e6"/><path d="m225.714844 494.492188c15.222656-5.039063 27.1875-14.785157 34.558594-26.769532-4.707032 18.125-17.910157 33.753906-36.566407 40.632813-30.585937 11.269531-64.480469-4.480469-75.617187-35.082031-.46875-1.28125-.878906-2.566407-1.257813-3.859376 15.796875 23.882813 48.777344 35.050782 78.882813 25.078126zm0 0" fill="#4c53ab"/><path d="m453.855469 142c0-32.113281 26.03125-58.144531 58.144531-58.144531v-83.855469h-512v83.855469c32.113281 0 58.144531 26.03125 58.144531 58.144531s-26.03125 58.144531-58.144531 58.144531v83.855469h512v-83.855469c-32.113281 0-58.144531-26.03125-58.144531-58.144531zm0 0" fill="#69ebfc"/><path d="m0 270h512v14h-512zm0 0" fill="#5fd4e3"/><path d="m0 0h512v14h-512zm0 0" fill="#a1f1fc"/><path d="m136.613281 15.191406c8.390625 0 15.191407-6.800781 15.191407-15.191406h-30.382813c0 8.390625 6.800781 15.191406 15.191406 15.191406zm0 0" fill="#69ebfc"/><g fill="#5fd4e3"><path d="m151.804688 47.335938c0 8.386718-6.800782 15.191406-15.191407 15.191406s-15.191406-6.804688-15.191406-15.191406c0-8.390626 6.800781-15.195313 15.191406-15.195313s15.191407 6.804687 15.191407 15.195313zm0 0"/><path d="m151.804688 94.664062c0 8.390626-6.800782 15.195313-15.191407 15.195313s-15.191406-6.804687-15.191406-15.195313c0-8.386718 6.800781-15.191406 15.191406-15.191406s15.191407 6.804688 15.191407 15.191406zm0 0"/><path d="m151.804688 142c0 8.390625-6.800782 15.191406-15.191407 15.191406s-15.191406-6.800781-15.191406-15.191406 6.800781-15.191406 15.191406-15.191406 15.191407 6.800781 15.191407 15.191406zm0 0"/><path d="m151.804688 189.335938c0 8.386718-6.800782 15.191406-15.191407 15.191406s-15.191406-6.804688-15.191406-15.191406c0-8.390626 6.800781-15.195313 15.191406-15.195313s15.191407 6.804687 15.191407 15.195313zm0 0"/><path d="m151.804688 236.664062c0 8.390626-6.800782 15.195313-15.191407 15.195313s-15.191406-6.804687-15.191406-15.195313c0-8.386718 6.800781-15.191406 15.191406-15.191406s15.191407 6.804688 15.191407 15.191406zm0 0"/></g><path d="m211.933594 93.566406c0-6.039062 1.164062-11.738281 3.496094-17.09375 2.332031-5.347656 5.523437-10.058594 9.585937-14.113281 4.054687-4.054687 8.847656-7.25 14.371094-9.585937 5.523437-2.328126 11.566406-3.496094 18.132812-3.496094 6.558594 0 12.644531 1.164062 18.257813 3.496094 5.609375 2.332031 10.445312 5.53125 14.503906 9.585937 4.054688 4.058594 7.25 8.765625 9.582031 14.113281 2.332031 5.355469 3.5 11.054688 3.5 17.09375 0 6.046875-1.167969 11.785156-3.5 17.226563-2.328125 5.4375-5.527343 10.144531-9.582031 14.113281-4.0625 3.972656-8.894531 7.121094-14.503906 9.453125-5.613282 2.332031-11.699219 3.5-18.257813 3.5-6.566406 0-12.609375-1.167969-18.132812-3.5-5.527344-2.328125-10.320313-5.480469-14.371094-9.453125-4.0625-3.96875-7.253906-8.675781-9.585937-14.113281-2.332032-5.441407-3.496094-11.179688-3.496094-17.226563zm27.710937 0c0 5.699219 1.726563 10.277344 5.183594 13.726563 3.453125 3.457031 7.679687 5.179687 12.691406 5.179687 5.003907 0 9.234375-1.722656 12.6875-5.179687 3.453125-3.449219 5.179688-8.027344 5.179688-13.726563 0-5.695312-1.726563-10.269531-5.179688-13.722656-3.453125-3.457031-7.683593-5.183594-12.6875-5.183594-5.011719 0-9.238281 1.726563-12.691406 5.183594-3.457031 3.453125-5.183594 8.027344-5.183594 13.722656zm12.03125 117.199219 101.285157-151.242187c3.785156-5.65625 11.445312-7.167969 17.097656-3.375 5.648437 3.789062 7.15625 11.4375 3.375 17.085937l-101.285156 151.242187c-3.789063 5.65625-11.445313 7.167969-17.101563 3.375-5.644531-3.789062-7.15625-11.4375-3.371094-17.085937zm70.070313-20.332031c0-6.042969 1.164062-11.742188 3.5-17.09375 2.328125-5.351563 5.523437-10.058594 9.582031-14.117188 4.054687-4.054687 8.847656-7.25 14.375-9.582031 5.523437-2.332031 11.566406-3.5 18.128906-3.5 6.558594 0 12.644531 1.167969 18.261719 3.5 5.605469 2.328125 10.441406 5.527344 14.5 9.582031 4.054688 4.0625 7.253906 8.765625 9.585938 14.117188 2.328124 5.351562 3.496093 11.050781 3.496093 17.09375 0 6.042968-1.164062 11.785156-3.496093 17.222656-2.332032 5.441406-5.53125 10.144531-9.585938 14.113281-4.058594 3.972657-8.894531 7.125-14.5 9.453125-5.617188 2.332032-11.703125 3.496094-18.261719 3.496094-6.5625 0-12.605469-1.164062-18.128906-3.496094-5.527344-2.328125-10.320313-5.480468-14.375-9.453125-4.058594-3.96875-7.25-8.675781-9.582031-14.113281-2.335938-5.4375-3.5-11.179688-3.5-17.222656zm27.714844 0c0 5.695312 1.722656 10.273437 5.179687 13.722656 3.453125 3.457031 7.679687 5.183594 12.6875 5.183594s9.238281-1.722656 12.695313-5.183594c3.449218-3.449219 5.179687-8.027344 5.179687-13.722656 0-5.699219-1.730469-10.273438-5.179687-13.726563-3.457032-3.453125-7.6875-5.179687-12.695313-5.179687s-9.234375 1.726562-12.6875 5.179687c-3.457031 3.453125-5.179687 8.027344-5.179687 13.726563zm0 0" fill="#d476e2"/><path d="m46.644531 508.355469c30.585938 11.269531 64.480469-4.480469 75.621094-35.085938.523437-1.445312.988281-2.898437 1.40625-4.359375l.113281.175782 92.601563-254.417969c7.640625-20.996094-3.183594-44.214844-24.183594-51.855469l-15.050781-5.476562c-1.214844-.445313-2.5625.183593-3.007813 1.398437l-79.015625 217.105469c-4.648437 10.753906-14.808594 17.636718-25.898437 18.527344-1.632813-.074219-3.261719-.0625-4.875.003906-23.765625 1.074218-45.636719 16.597656-53.414063 40.90625-9.539062 29.785156 6.355469 62.261718 35.703125 73.078125zm-5.371093-64.558594c5.167968-14.199219 20.871093-21.523437 35.074218-16.355469 14.199219 5.171875 21.523438 20.871094 16.355469 35.074219-5.171875 14.203125-20.875 21.523437-35.074219 16.355469-14.203125-5.167969-21.527344-20.871094-16.355468-35.074219zm0 0" fill="#6770e6"/><path d="m44.65625 493.929688c-15.21875-5.042969-27.1875-14.789063-34.554688-26.773438 4.707032 18.125 17.910157 33.753906 36.5625 40.632812 30.589844 11.269532 64.484376-4.480468 75.625-35.082031.464844-1.277343.875-2.566406 1.253907-3.859375-15.800781 23.882813-48.777344 35.050782-78.886719 25.082032zm0 0" fill="#5861c7"/><path d="m148.195312 351.632812c0 7.226563-5.859374 13.082032-13.082031 13.082032-7.226562 0-13.082031-5.855469-13.082031-13.082032 0-7.222656 5.855469-13.082031 13.082031-13.082031 7.222657 0 13.082031 5.859375 13.082031 13.082031zm0 0" fill="#8f95e6"/></svg>