<svg id="Layer_1" height="512" viewBox="0 0 150 150" width="512" xmlns="http://www.w3.org/2000/svg" data-name="Layer 1"><circle cx="75" cy="75" fill="#89c5cd" r="64"/><path d="m87.26 61.49-1.85-.76a24 24 0 0 1 2.59-5.11 9 9 0 0 1 4.88-3.62 13.48 13.48 0 0 1 2.86-.29 12.56 12.56 0 0 0 2.17-.17 5.85 5.85 0 0 0 4.24-3.75l1.9.63a7.81 7.81 0 0 1 -5.75 5.08 14.41 14.41 0 0 1 -2.51.21 10.9 10.9 0 0 0 -2.41.23 6.94 6.94 0 0 0 -3.77 2.83 22.94 22.94 0 0 0 -2.35 4.72z" fill="#ebf0f3"/><path d="m96 61.64-9.52-9.52a1.58 1.58 0 0 0 -2.22 0l-3.81 3.81a29.88 29.88 0 1 0 11.77 11.74l3.78-3.81a1.58 1.58 0 0 0 0-2.22z" fill="#3a556a"/><path d="m96 61.64-2.4-2.4a1.54 1.54 0 0 1 -.45 1.06l-3.81 3.81a29.88 29.88 0 0 1 -47.26 35.55c-.24-.24-.48-.49-.71-.74a29.44 29.44 0 0 0 3.56 4.3 29.88 29.88 0 0 0 47.29-35.55l3.78-3.81a1.58 1.58 0 0 0 0-2.22z" fill="#2f4859"/><path d="m113.83 47.81c-3.33.66-4.31 1.28-.93 3.73-4.11-.71-3.86.4-1.94 3.18-2.78-1.92-3.89-2.17-3.18 1.94-2.45-3.38-3.08-2.4-3.73.93-.66-3.33-1.29-4.31-3.73-.93.71-4.11-.4-3.86-3.19-1.94 1.93-2.78 2.17-3.89-1.94-3.18 3.38-2.45 2.41-3.07-.92-3.73 3.33-.66 4.3-1.29.92-3.73 4.11.71 3.87-.4 1.94-3.19 2.79 1.93 3.9 2.17 3.19-1.94 2.44 3.38 3.07 2.41 3.73-.92.65 3.33 1.28 4.3 3.73.92-.71 4.11.4 3.87 3.18 1.94-1.92 2.79-2.17 3.9 1.94 3.19-3.38 2.44-2.4 3.07.93 3.73z" fill="#e56353"/><path d="m109.36 47.81c-1.81.36-2.34.7-.5 2-2.24-.38-2.1.22-1.06 1.73-1.51-1-2.11-1.18-1.73 1.06-1.33-1.84-1.67-1.31-2 .5-.36-1.81-.7-2.34-2-.5.39-2.24-.22-2.1-1.73-1.06 1-1.51 1.18-2.11-1.05-1.73 1.84-1.32 1.3-1.66-.5-2 1.8-.36 2.34-.7.5-2 2.23.39 2.1-.21 1.05-1.73 1.51 1.05 2.12 1.18 1.73-1 1.33 1.84 1.67 1.31 2-.5.35 1.81.69 2.34 2 .5-.38 2.23.22 2.1 1.73 1-1 1.52-1.18 2.12 1.06 1.73-1.86 1.3-1.31 1.64.5 2z" fill="#d15241"/><path d="m106.2 47.81c-.73.14-1 .28-.2.82-.91-.16-.85.09-.43.7-.61-.42-.86-.48-.7.43-.54-.75-.68-.53-.82.2-.15-.73-.29-1-.82-.2.15-.91-.09-.85-.71-.43.43-.61.48-.86-.42-.7.74-.54.53-.68-.21-.82.74-.15 1-.28.21-.82.9.15.85-.09.42-.7.62.42.86.47.71-.43.53.74.67.53.82-.21.14.74.28 1 .82.21-.16.9.09.85.7.43-.42.61-.48.85.43.7-.75.54-.53.67.2.82z" fill="#f7be56"/></svg>