<svg height="512pt" viewBox="0 0 512.00338 512" width="512pt" xmlns="http://www.w3.org/2000/svg"><path d="m301.367188 512.003906h-271.566407c-17.410156 0-31.109375-14.859375-29.699219-32.210937l27.046876-332.996094c.359374-4.394531 4.027343-7.78125 8.4375-7.78125h259.992187c4.410156 0 8.082031 3.386719 8.4375 7.78125l27.046875 332.996094c1.410156 17.351562-12.289062 32.210937-29.695312 32.210937zm0 0" fill="#6770e6"/><path d="m33.277344 153.015625h264.613281c2.8125 0 5.332031 1.332031 6.910156 3.410156l-.78125-9.628906c-.359375-4.394531-4.03125-7.78125-8.441406-7.78125h-259.992187c-4.410157 0-8.082032 3.386719-8.4375 7.78125l-.78125 9.628906c1.578124-2.078125 4.09375-3.410156 6.910156-3.410156zm0 0" fill="#8f95e6"/><g fill="#69ebfc"><path d="m96.390625 199.46875c0 9.199219-7.457031 16.65625-16.652344 16.65625-9.199219 0-16.65625-7.457031-16.65625-16.65625 0-9.195312 7.457031-16.652344 16.65625-16.652344 9.195313 0 16.652344 7.457032 16.652344 16.652344zm0 0"/><path d="m268.082031 199.46875c0 9.199219-7.457031 16.65625-16.65625 16.65625-9.195312 0-16.652343-7.457031-16.652343-16.65625 0-9.195312 7.457031-16.652344 16.652343-16.652344 9.199219 0 16.65625 7.457032 16.65625 16.652344zm0 0"/><path d="m251.011719 208.558594c-5.574219 0-10.097657-4.523438-10.097657-10.097656v-101.757813c0-41.589844-33.207031-76.097656-74.792968-76.5-41.992188-.40625-76.285156 33.636719-76.285156 75.535156v102.71875c0 5.578125-4.519532 10.097657-10.097657 10.097657s-10.097656-4.519532-10.097656-10.097657v-101.5c0-52.707031 42.089844-96.441406 94.792969-96.9492185 53.21875-.5156245 96.679687 42.6249995 96.679687 95.7304685v102.71875c0 5.578125-4.523437 10.101563-10.101562 10.101563zm0 0"/></g><path d="m164.429688.0078125c-52.703126.5117185-94.789063 44.2460935-94.789063 96.9531255v10c0-52.707032 42.085937-96.441407 94.789063-96.953126 53.222656-.515624 96.683593 42.628907 96.683593 95.734376v-10c0-53.105469-43.460937-96.25-96.683593-95.7343755zm0 0" fill="#a1f1fc"/><path d="m330.585938 473.886719c-2.640626 13.628906-14.605469 24.117187-29.21875 24.117187h-271.566407c-14.613281 0-26.578125-10.488281-29.222656-24.117187l-.4804688 5.90625c-1.4062502 17.351562 12.2968748 32.210937 29.7031248 32.210937h271.566407c17.40625 0 31.105468-14.859375 29.695312-32.210937zm0 0" fill="#5861c7"/><path d="m480.554688 512.003906h-264.882813c-18.925781 0-33.5625-16.601562-31.195313-35.378906l24.59375-194.996094c.710938-5.617187 5.488282-9.832031 11.152344-9.832031h255.78125c5.664063 0 10.441406 4.214844 11.148438 9.832031l24.59375 194.996094c2.371094 18.777344-12.265625 35.378906-31.191406 35.378906zm0 0" fill="#d476e2"/><path d="m216.84375 285.796875h262.539062c3.511719 0 6.675782 1.554687 8.804688 4.011719l-1.03125-8.179688c-.707031-5.617187-5.488281-9.832031-11.152344-9.832031h-255.78125c-5.664062 0-10.441406 4.214844-11.152344 9.832031l-1.03125 8.179688c2.128907-2.457032 5.292969-4.011719 8.804688-4.011719zm0 0" fill="#ea82fa"/><path d="m511.308594 473.117188c-2.992188 14.054687-15.46875 24.886718-30.75 24.886718h-264.886719c-15.285156 0-27.761719-10.832031-30.75-24.886718l-.441406 3.511718c-2.371094 18.773438 12.265625 35.375 31.191406 35.375h264.886719c18.925781 0 33.5625-16.601562 31.191406-35.375zm0 0" fill="#b665c2"/><path d="m450.613281 311.808594c0 9.199218-7.457031 16.65625-16.65625 16.65625-9.195312 0-16.652343-7.457032-16.652343-16.65625 0-9.195313 7.457031-16.652344 16.652343-16.652344 9.199219 0 16.65625 7.457031 16.65625 16.652344zm0 0" fill="#69ebfc"/><path d="m278.921875 311.808594c0 9.199218-7.453125 16.65625-16.652344 16.65625s-16.652343-7.457032-16.652343-16.65625c0-9.195313 7.453124-16.652344 16.652343-16.652344s16.652344 7.457031 16.652344 16.652344zm0 0" fill="#69ebfc"/><path d="m262.683594 302.722656c5.578125 0 10.097656 4.523438 10.097656 10.101563v19.757812c0 41.585938 33.207031 76.09375 74.792969 76.496094 41.992187.40625 76.285156-33.632813 76.285156-75.535156v-20.71875c0-5.578125 4.523437-10.101563 10.097656-10.101563 5.578125 0 10.097657 4.523438 10.097657 10.101563v19.5c0 52.707031-42.085938 96.441406-94.792969 96.949219-53.21875.515624-96.679688-42.628907-96.679688-95.730469v-20.71875c0-5.578125 4.523438-10.101563 10.101563-10.101563zm0 0" fill="#69ebfc"/></svg>