<svg height="512.001pt" viewBox="0 0 512.001 512.001" width="512.001pt" xmlns="http://www.w3.org/2000/svg"><path d="m467.296875 338.886719h-422.59375c-24.6875 0-44.703125-20.011719-44.703125-44.699219v-249.484375c0-24.6875 20.015625-44.703125 44.703125-44.703125h422.59375c24.6875 0 44.703125 20.015625 44.703125 44.703125v249.484375c0 24.6875-20.015625 44.699219-44.703125 44.699219zm0 0" fill="#ffefe4"/><path d="m467.296875 0h-422.59375c-24.6875 0-44.703125 20.015625-44.703125 44.703125v14c0-24.6875 20.015625-44.703125 44.703125-44.703125h422.59375c24.6875 0 44.703125 20.015625 44.703125 44.703125v-14c0-24.6875-20.015625-44.703125-44.703125-44.703125zm0 0" fill="#fff7f2"/><g fill="#6770e6"><path d="m44.074219 60.640625h19.070312v229.070313h-19.070312zm0 0"/><path d="m87.019531 60.640625h33.339844v182.90625h-33.339844zm0 0"/><path d="m139.433594 60.640625h33.214844v182.90625h-33.214844zm0 0"/><path d="m215.71875 60.640625h19.070312v182.90625h-19.070312zm0 0"/><path d="m185.335938 60.640625h19.070312v182.90625h-19.070312zm0 0"/><path d="m256 60.640625h36.003906v182.90625h-36.003906zm0 0"/><path d="m311.074219 60.640625h19.070312v182.90625h-19.070312zm0 0"/><path d="m349.21875 60.640625h42.257812v182.90625h-42.257812zm0 0"/><path d="m406.433594 60.640625h19.070312v182.90625h-19.070312zm0 0"/><path d="m444.574219 60.640625h19.070312v229.070313h-19.070312zm0 0"/><path d="m120.363281 280.175781c0 5.265625-4.269531 9.535157-9.539062 9.535157h-14.265625c-5.265625 0-9.535156-4.269532-9.535156-9.535157s4.269531-9.535156 9.535156-9.535156h14.265625c5.269531 0 9.539062 4.269531 9.539062 9.535156zm0 0"/><path d="m172.710938 280.175781c0 5.265625-4.269532 9.535157-9.535157 9.535157h-14.269531c-5.265625 0-9.535156-4.269532-9.535156-9.535157s4.269531-9.535156 9.535156-9.535156h14.269531c5.265625 0 9.535157 4.269531 9.535157 9.535156zm0 0"/><path d="m292.003906 280.179688c0 5.265624-4.273437 9.535156-9.539062 9.535156h-87.59375c-5.265625 0-9.535156-4.269532-9.535156-9.535156 0-5.269532 4.269531-9.539063 9.535156-9.539063h87.59375c5.265625 0 9.539062 4.269531 9.539062 9.539063zm0 0"/><path d="m330.148438 280.175781c0 5.265625-4.269532 9.535157-9.535157 9.535157s-9.539062-4.269532-9.539062-9.535157 4.273437-9.535156 9.539062-9.535156 9.535157 4.269531 9.535157 9.535156zm0 0"/><path d="m425.503906 280.175781c0 5.265625-4.269531 9.535157-9.535156 9.535157s-9.535156-4.269532-9.535156-9.535157 4.269531-9.535156 9.535156-9.535156 9.535156 4.269531 9.535156 9.535156zm0 0"/><path d="m391.472656 280.179688c0 5.265624-4.269531 9.535156-9.535156 9.535156h-23.183594c-5.269531 0-9.539062-4.269532-9.539062-9.535156 0-5.269532 4.269531-9.539063 9.539062-9.539063h23.183594c5.269531 0 9.535156 4.269531 9.535156 9.539063zm0 0"/></g><path d="m502.34375 502.34375c-12.878906 12.875-33.753906 12.875-46.628906 0l-136.425782-136.429688 46.625-46.625 136.429688 136.425782c12.875 12.875 12.875 33.75 0 46.628906zm0 0" fill="#ff8354"/><path d="m410.285156 265.140625c0 80.160156-64.984375 145.144531-145.144531 145.144531s-145.140625-64.984375-145.140625-145.144531 64.980469-145.140625 145.140625-145.140625 145.144531 64.980469 145.144531 145.140625zm0 0" fill="#ff8354"/><path d="m367.773438 265.140625c0 56.683594-45.949219 102.632813-102.632813 102.632813-56.679687 0-102.628906-45.949219-102.628906-102.632813 0-56.679687 45.949219-102.628906 102.628906-102.628906 56.683594 0 102.632813 45.949219 102.632813 102.628906zm0 0" fill="#a1f1fc"/><path d="m318.199219 322.691406c0-12.160156-23.738281-22.015625-53.019531-22.015625s-53.019532 9.855469-53.019532 22.015625c0 12.15625 23.738282 22.015625 53.019532 22.015625s53.019531-9.859375 53.019531-22.015625zm0 0" fill="#5fd4e3"/><path d="m344.449219 192.523438c3.082031 60.992187-59.058594 115.550781-75.390625 128.792968-2.257813 1.832032-5.488282 1.832032-7.738282-.011718-15.898437-13.019532-75.523437-65.753907-75.523437-124.382813 0-43.835937 35.53125-79.375 79.367187-79.378906 42.34375-.007813 77.148438 32.691406 79.285157 74.980469zm0 0" fill="#d476e2"/><path d="m265.164062 131.207031c41.550782-.003906 75.84375 31.488281 79.128907 72.628907.285156-3.742188.347656-7.515626.15625-11.3125-2.136719-42.289063-36.941407-74.988282-79.285157-74.984376-43.832031.007813-79.363281 35.546876-79.363281 79.382813 0 2.328125.101563 4.644531.285157 6.953125 3.410156-40.691406 37.507812-72.660156 79.078124-72.667969zm0 0" fill="#ea82fa"/><path d="m313.949219 196.992188c0 26.933593-21.835938 48.769531-48.769531 48.769531-26.933594 0-48.769532-21.835938-48.769532-48.769531 0-26.933594 21.835938-48.769532 48.769532-48.769532 26.933593 0 48.769531 21.835938 48.769531 48.769532zm0 0" fill="#b665c2"/><path d="m371.347656 417.972656 84.367188 84.371094c12.878906 12.875 33.753906 12.875 46.628906 0s12.875-33.75 0-46.628906l-84.371094-84.367188zm0 0" fill="#6770e6"/><path d="m508.980469 465.320312c-1.589844 3.476563-3.777344 6.746094-6.636719 9.609376-6.417969 6.417968-14.828125 9.632812-23.238281 9.65625v.003906h-41.144531l17.753906 17.753906c12.878906 12.875 33.753906 12.875 46.628906 0 10.015625-10.015625 12.203125-24.855469 6.636719-37.023438zm0 0" fill="#5861c7"/></svg>