<svg id="Layer_1" height="512" viewBox="0 0 150 150" width="512" xmlns="http://www.w3.org/2000/svg" data-name="Layer 1"><circle cx="75" cy="75" fill="#45b39c" r="64"/><rect fill="#3a556a" height="64.87" rx="2.5" width="68.88" x="40.56" y="42.56"/><g fill="#ebf0f3"><rect height="49.02" rx="1.38" width="62.88" x="43.56" y="55.41"/><path d="m100.57 46.85a1.82 1.82 0 1 0 1.82 1.82 1.82 1.82 0 0 0 -1.82-1.82z"/><path d="m94.63 46.85a1.82 1.82 0 1 0 1.82 1.82 1.83 1.83 0 0 0 -1.82-1.82z"/><path d="m88.7 46.85a1.82 1.82 0 1 0 1.82 1.82 1.82 1.82 0 0 0 -1.82-1.82z"/></g><path d="m92.81 90.89-17.06-25.11a.91.91 0 0 0 -1.5 0l-17.06 25.11a.91.91 0 0 0 .75 1.42h34.12a.91.91 0 0 0 .75-1.42z" fill="#e56353"/><path d="m73.77 73.29h2.46v10.54h-2.46z" fill="#3a556a"/><path d="m73.77 85.8h2.46v2.46h-2.46z" fill="#3a556a"/></svg>