<svg height="512pt" viewBox="0 0 512 512" width="512pt" xmlns="http://www.w3.org/2000/svg"><path d="m437.726562 235.671875c-8.375 0-15.871093-5.875-17.617187-14.394531-15.914063-77.765625-85.175781-134.210938-164.691406-134.210938-64.859375 0-124.609375 37.945313-152.222657 96.667969-4.230468 8.996094-14.957031 12.859375-23.949218 8.632813-8.992188-4.230469-12.859375-14.953126-8.628906-23.949219 33.519531-71.289063 106.058593-117.351563 184.800781-117.351563 96.539062 0 180.632812 68.550782 199.960937 162.992188 1.992188 9.742187-4.289062 19.25-14.027344 21.246094-1.214843.246093-2.429687.367187-3.625.367187zm0 0" fill="#ff8354"/><path d="m86.773438 193.558594c-3.667969 0-7.28125-1.121094-10.324219-3.253906-3.914063-2.738282-6.574219-6.917969-7.402344-11.621094l-13.097656-74.28125c-1.726563-9.789063 4.808593-19.125 14.597656-20.851563 9.792969-1.726562 19.128906 4.808594 20.851563 14.597657l9.972656 56.558593 56.558594-9.972656c9.789062-1.722656 19.125 4.808594 20.851562 14.601563 1.726562 9.789062-4.8125 19.125-14.601562 20.851562l-74.28125 13.097656c-1.039063.183594-2.085938.273438-3.125.273438zm0 0" fill="#ff8354"/><g fill="#ffac8c"><path d="m69.609375 180.925781c.207031.730469.441406 1.453125.738281 2.152344.015625-.035156.03125-.070313.042969-.109375-.296875-.660156-.5625-1.34375-.78125-2.042969zm0 0"/><path d="m455.378906 214.058594c-19.324218-94.441406-103.421875-162.992188-199.957031-162.992188-62.261719 0-120.621094 28.816406-158.902344 76.109375l2.03125 11.511719c38.296875-45.816406 95.707031-73.621094 156.871094-73.621094 95.214844 0 178.277344 66.703125 199.082031 159.144532 1.222656-3.121094 1.597656-6.617188.875-10.152344zm0 0"/><path d="m68.886719 177.789062.15625.894532c.011719.054687.027343.105468.035156.15625zm0 0"/><path d="m73.195312 97.546875c8.113282-1.367187 15.914063 2.480469 19.6875 9.023437l-1.484374-8.421874c-1.722657-9.789063-11.0625-16.324219-20.851563-14.597657-9.789063 1.726563-16.328125 11.0625-14.597656 20.851563l1.757812 9.984375c.417969-8.207031 6.683594-15.351563 15.488281-16.839844zm0 0"/></g><path d="m256 460.105469c-96.539062 0-180.632812-68.546875-199.960938-162.992188-1.992187-9.738281 4.289063-19.25 14.027344-21.242187 9.734375-1.992188 19.25 4.285156 21.242188 14.023437 15.914062 77.765625 85.175781 134.210938 164.695312 134.210938 64.859375 0 124.609375-37.945313 152.21875-96.667969 4.230469-9 14.957032-12.859375 23.949219-8.632812 8.996094 4.230468 12.859375 14.953124 8.628906 23.949218-33.519531 71.289063-106.058593 117.351563-184.800781 117.351563zm0 0" fill="#ff8354"/><path d="m412.871094 372.484375c-38.300782 45.820313-95.710938 73.621094-156.871094 73.621094-95.214844 0-178.28125-66.699219-199.085938-159.140625-1.21875 3.125-1.597656 6.621094-.875 10.148437 19.328126 94.445313 103.421876 162.992188 199.957032 162.992188 62.261718 0 120.621094-28.8125 158.902344-76.105469zm0 0" fill="#e0734a"/><path d="m441.800781 330.21875c-.203125-.722656-.4375-1.433594-.730469-2.125-.011718.035156-.027343.070312-.042968.105469.292968.652343.558594 1.324219.773437 2.019531zm0 0" fill="#e0734a"/><path d="m437.722656 427.902344c-8.570312 0-16.164062-6.140625-17.703125-14.875l-9.972656-56.554688-56.554687 9.972656c-9.789063 1.730469-19.125-4.808593-20.851563-14.597656-1.726563-9.792968 4.808594-19.128906 14.597656-20.855468l74.285157-13.097657c9.789062-1.722656 19.125 4.8125 20.851562 14.601563l13.097656 74.28125c1.726563 9.789062-4.8125 19.125-14.601562 20.851562-1.058594.183594-2.109375.273438-3.148438.273438zm0 0" fill="#ff8354"/><path d="m455.472656 406.773438-.859375-4.878907c-2.292969 5.914063-7.886719 10.5625-15.121093 11.730469-1.15625.1875-2.304688.277344-3.441407.277344-7.554687 0-14.410156-4.003906-17.664062-10.132813l1.632812 9.253907c1.539063 8.734374 9.132813 14.875 17.707031 14.875 1.039063 0 2.089844-.089844 3.148438-.273438 9.785156-1.726562 16.324219-11.0625 14.597656-20.851562zm0 0" fill="#e0734a"/><path d="m491.757812 253.375h-184.480468c-11.824219 0-21.132813-10.09375-20.171875-21.878906l18.371093-226.210938c.242188-2.984375 2.738282-5.285156 5.734376-5.285156h176.613281c2.996093 0 5.492187 2.300781 5.734375 5.285156l18.375 226.210938c.957031 11.785156-8.351563 21.878906-20.175782 21.878906zm0 0" fill="#d476e2"/><path d="m309.636719 9.511719h179.757812c1.914063 0 3.625.902343 4.695313 2.3125l-.53125-6.539063c-.242188-2.984375-2.738282-5.285156-5.734375-5.285156h-176.613281c-2.996094 0-5.492188 2.300781-5.734376 5.285156l-.53125 6.539063c1.070313-1.410157 2.78125-2.3125 4.691407-2.3125zm0 0" fill="#ea82fa"/><path d="m511.605469 227.484375c-1.792969 9.257813-9.921875 16.382813-19.847657 16.382813h-184.480468c-9.929688 0-18.058594-7.125-19.851563-16.382813l-.324219 4.011719c-.960937 11.785156 8.347657 21.878906 20.171876 21.878906h184.480468c11.824219 0 21.132813-10.09375 20.175782-21.878906zm0 0" fill="#b665c2"/><path d="m352.515625 37.707031c0 6.246094-5.066406 11.3125-11.3125 11.3125-6.25 0-11.316406-5.066406-11.316406-11.3125 0-6.25 5.066406-11.316406 11.316406-11.316406 6.246094 0 11.3125 5.066406 11.3125 11.316406zm0 0" fill="#ffefe4"/><path d="m469.148438 37.707031c0 6.246094-5.066407 11.3125-11.3125 11.3125-6.25 0-11.316407-5.066406-11.316407-11.3125 0-6.25 5.066407-11.316406 11.316407-11.316406 6.246093 0 11.3125 5.066406 11.3125 11.316406zm0 0" fill="#ffefe4"/><path d="m457.550781 31.53125c-3.785156 0-6.859375 3.074219-6.859375 6.859375v50.0625c0 28.25-22.558594 51.691406-50.808594 51.96875-28.523437.273437-51.820312-22.851563-51.820312-51.3125v-50.714844c0-3.789062-3.074219-6.859375-6.859375-6.859375-3.789063 0-6.859375 3.070313-6.859375 6.859375v49.882813c0 35.808594 28.589844 65.515625 64.390625 65.863281 36.15625.347656 65.679687-28.957031 65.679687-65.03125v-50.714844c-.003906-3.789062-3.074218-6.863281-6.863281-6.863281zm0 0" fill="#ffefe4"/><path d="m263.828125 380.085938c0 72.855468-59.058594 131.914062-131.914063 131.914062-72.855468 0-131.914062-59.058594-131.914062-131.914062 0-72.855469 59.058594-131.914063 131.914062-131.914063 72.855469 0 131.914063 59.058594 131.914063 131.914063zm0 0" fill="#69ebfc"/><path d="m131.914062 267.269531c69.640626 0 126.632813 53.972657 131.53125 122.367188.226563-3.160157.382813-6.335938.382813-9.550781 0-72.855469-59.058594-131.914063-131.914063-131.914063-72.855468 0-131.914062 59.058594-131.914062 131.914063 0 3.214843.15625 6.390624.382812 9.550781 4.898438-68.394531 61.894532-122.367188 131.53125-122.367188zm0 0" fill="#a1f1fc"/><path d="m131.914062 492.902344c-69.640624 0-126.632812-53.972656-131.53125-122.367188-.226562 3.160156-.382812 6.335938-.382812 9.550782 0 72.855468 59.058594 131.914062 131.914062 131.914062 72.855469 0 131.914063-59.058594 131.914063-131.914062 0-3.214844-.15625-6.390626-.382813-9.550782-4.898437 68.394532-61.890624 122.367188-131.53125 122.367188zm0 0" fill="#5fd4e3"/><path d="m223.238281 380.085938c0 50.4375-40.886719 91.324218-91.324219 91.324218s-91.324218-40.886718-91.324218-91.324218 40.886718-91.324219 91.324218-91.324219 91.324219 40.886719 91.324219 91.324219zm0 0" fill="#5fd4e3"/><path d="m125.230469 440.5625c-8.632813-1.265625-16.316407-4.601562-23.054688-10.019531-3.933593-3.15625-7.203125-7.117188-9.816406-11.878907-3.171875-5.777343-.695313-13.042968 5.40625-15.535156 4.851563-1.984375 10.539063-.300781 13.246094 4.1875.871093 1.445313 1.871093 2.824219 3.003906 4.136719 3.101563 3.628906 6.839844 6.136719 11.214844 7.511719v-32.820313l-1.539063-.695312c-4.261718-1.609375-8.269531-3.503907-12.007812-5.703125-3.742188-2.179688-7.027344-4.71875-9.84375-7.59375-2.835938-2.875-5.082032-6.128906-6.742188-9.761719-1.675781-3.628906-2.519531-7.6875-2.519531-12.183594 0-4.140625.757813-8.058593 2.25-11.746093 1.511719-3.679688 3.65625-6.96875 6.488281-9.84375 2.820313-2.878907 6.238282-5.273438 10.28125-7.171876 4.023438-1.902343 8.570313-3.136718 13.632813-3.714843v-7.167969c0-4.246094 3.445312-7.6875 7.691406-7.6875 4.242187 0 7.6875 3.441406 7.6875 7.6875v7.511719c4.609375.6875 8.617187 1.902343 12.007813 3.628906 3.402343 1.730469 6.3125 3.742187 8.820312 5.960937.960938.855469 1.894531 1.875 2.773438 2.972657 4.363281 5.464843 2.148437 13.628906-4.238282 16.480469-4.375 1.949218-9.410156.730468-12.632812-2.820313-1.691406-1.859375-3.910156-3.6875-6.730469-4.976563v30.925782c4.960937 2.078125 9.441406 4.210937 13.480469 6.398437 4.023437 2.1875 7.480468 4.660157 10.363281 7.425781 2.886719 2.757813 5.066406 5.902344 6.558594 9.410157 1.507812 3.523437 2.246093 7.578125 2.246093 12.183593 0 5.183594-.886718 9.792969-2.664062 13.816407-1.796875 4.035156-4.179688 7.488281-7.179688 10.367187-3.003906 2.882813-6.472656 5.1875-10.449218 6.917969-3.972656 1.726563-8.097656 2.933594-12.359375 3.621094v7.511719c0 4.246093-3.441407 7.6875-7.6875 7.6875-4.246094 0-7.6875-3.441407-7.6875-7.6875zm-11.382813-90.351562c0 2.765624.886719 5.15625 2.664063 7.167968 1.792969 2.019532 4.695312 4.066406 8.71875 6.140625v-25.222656c-3.453125.921875-6.203125 2.414063-8.28125 4.484375-2.082031 2.078125-3.101563 4.554688-3.101563 7.429688zm37.308594 55.632812c0-2.996094-.800781-5.476562-2.429688-7.429688-1.609374-1.960937-4.3125-3.917968-8.117187-5.878906v26.429688c3.121094-1.03125 5.652344-2.671875 7.613281-4.921875 1.945313-2.246094 2.933594-4.980469 2.933594-8.199219zm0 0" fill="#a1f1fc"/></svg>