<svg id="Layer_1" height="512" viewBox="0 0 150 150" width="512" xmlns="http://www.w3.org/2000/svg" data-name="Layer 1"><circle cx="75" cy="75" fill="#fcd462" r="64"/><path d="m94.84 103.9a7.48 7.48 0 0 1 -7.47-7.47v-36.28a6.16 6.16 0 0 0 -12.32 0v.34h-1.31v-.34a7.47 7.47 0 0 1 14.93 0v36.28a6.17 6.17 0 0 0 12.34 0v-1.7h1.3v1.7a7.48 7.48 0 0 1 -7.47 7.47z" fill="#3a556a"/><path d="m59.95 47.5h3.04v14.67h-3.04z" fill="#64798a"/><path d="m40.4 60.51h41.99v31.7h-41.99z" fill="#64798a"/><g fill="#3a556a"><rect height="4.85" rx="1.09" width="45.46" x="38.66" y="58.75"/><rect height="4.85" rx="1.09" width="45.46" x="38.66" y="90.63"/><rect height="4.45" rx="1.43" width="25.95" x="48.45" y="46.1"/></g><path d="m74.39 47.53v1.59a1.43 1.43 0 0 1 -1.39 1.43h-23.12a1.43 1.43 0 0 1 -1.43-1.43v-.12a1.44 1.44 0 0 0 1 .43h23.1a1.44 1.44 0 0 0 1.45-1.43v-1.47a1.43 1.43 0 0 1 .39 1z" fill="#2f4859"/><path d="m97.23 69.33a.53.53 0 0 1 -.29-.1 2.91 2.91 0 0 1 -.57-3.15 8.59 8.59 0 0 1 .75-1.52 10.88 10.88 0 0 0 .56-1.07 2.49 2.49 0 0 0 0-2.31.43.43 0 0 1 .09-.61.43.43 0 0 1 .6.09 3.2 3.2 0 0 1 .1 3.18 12.64 12.64 0 0 1 -.6 1.16 8.81 8.81 0 0 0 -.68 1.38 2 2 0 0 0 .32 2.19.45.45 0 0 1 0 .62.44.44 0 0 1 -.28.14z" fill="#3a556a"/><path d="m106.72 69.33a.48.48 0 0 1 -.28-.1 2.89 2.89 0 0 1 -.58-3.15 9.34 9.34 0 0 1 .75-1.52 10.88 10.88 0 0 0 .56-1.07 2.46 2.46 0 0 0 0-2.31.44.44 0 1 1 .7-.52 3.2 3.2 0 0 1 .09 3.18 12.55 12.55 0 0 1 -.6 1.15 8.08 8.08 0 0 0 -.69 1.38 2 2 0 0 0 .32 2.19.45.45 0 0 1 0 .62.44.44 0 0 1 -.27.15z" fill="#3a556a"/><path d="m92.78 66.75h8.88v29.79h-8.88z" fill="#d15241"/><path d="m93.94 66.75h6.56v29.79h-6.56z" fill="#e56353"/><path d="m101.66 66.75h8.88v29.79h-8.88z" fill="#d15241"/><path d="m102.82 66.75h6.56v29.79h-6.56z" fill="#e56353"/><path d="m110.32 72.92h-17.47a1 1 0 0 0 0 2h17.47a1 1 0 1 0 0-2z" fill="#e1e6e9"/><path d="m110.32 75h-17.47a1 1 0 0 0 0 2h17.47a1 1 0 0 0 0-2z" fill="#d5d6db"/><path d="m110.32 77h-17.47a1 1 0 1 0 0 2h17.47a1 1 0 1 0 0-2z" fill="#e1e6e9"/><path d="m110.32 84.66h-17.47a1 1 0 0 0 0 2h17.47a1 1 0 0 0 0-2z" fill="#e1e6e9"/><path d="m110.32 86.71h-17.47a1 1 0 0 0 0 2h17.47a1 1 0 0 0 0-2z" fill="#d5d6db"/><path d="m110.32 88.75h-17.47a1 1 0 1 0 0 2h17.47a1 1 0 1 0 0-2z" fill="#e1e6e9"/></svg>