<svg height="512pt" viewBox="0 0 512.00039 512" width="512pt" xmlns="http://www.w3.org/2000/svg"><path d="m25.371094 512h399.253906c14.011719 0 25.371094-11.359375 25.371094-25.371094v-433.835937c0-14.011719-11.359375-25.371094-25.371094-25.371094h-399.253906c-14.011719 0-25.371094 11.359375-25.371094 25.371094v433.835937c0 14.011719 11.359375 25.371094 25.371094 25.371094zm0 0" fill="#ffefe4"/><path d="m424.628906 27.421875h-399.257812c-14.011719 0-25.371094 11.359375-25.371094 25.371094v10.625c0-14.015625 11.359375-25.375 25.371094-25.375h399.257812c14.011719 0 25.371094 11.359375 25.371094 25.375v-10.625c0-14.011719-11.359375-25.371094-25.371094-25.371094zm0 0" fill="#fff7f2"/><path d="m424.628906 490.757812h-399.257812c-14.011719 0-25.371094-11.363281-25.371094-25.375v21.242188c0 14.015625 11.359375 25.375 25.371094 25.375h399.257812c14.011719 0 25.371094-11.359375 25.371094-25.371094v-21.246094c0 14.011719-11.359375 25.375-25.371094 25.375zm0 0" fill="#edd4c2"/><g fill="#6770e6"><path d="m83.121094 356.699219c-2.28125 0-4.578125-.742188-6.503906-2.265625l-12.941407-10.230469c-4.546875-3.597656-5.316406-10.199219-1.722656-14.746094s10.195313-5.316406 14.742187-1.722656l4.828126 3.816406 19.945312-24.480469c3.660156-4.492187 10.273438-5.171874 14.765625-1.507812 4.496094 3.664062 5.171875 10.277344 1.507813 14.769531l-26.480469 32.5c-2.070313 2.542969-5.089844 3.867188-8.140625 3.867188zm0 0"/><path d="m359.8125 340.449219h-200.703125c-5.800781 0-10.496094-4.699219-10.496094-10.496094s4.699219-10.496094 10.496094-10.496094h200.703125c5.796875 0 10.496094 4.699219 10.496094 10.496094s-4.699219 10.496094-10.496094 10.496094zm0 0"/><path d="m83.121094 441.300781c-2.28125 0-4.578125-.742187-6.503906-2.265625l-12.941407-10.230468c-4.546875-3.59375-5.320312-10.195313-1.722656-14.742188 3.59375-4.546875 10.195313-5.316406 14.742187-1.722656l4.828126 3.8125 19.945312-24.476563c3.660156-4.496093 10.273438-5.167969 14.765625-1.507812 4.496094 3.664062 5.171875 10.273437 1.507813 14.769531l-26.480469 32.5c-2.070313 2.539062-5.089844 3.863281-8.140625 3.863281zm0 0"/><path d="m359.8125 425.050781h-200.703125c-5.800781 0-10.496094-4.699219-10.496094-10.496093 0-5.796876 4.699219-10.496094 10.496094-10.496094h200.703125c5.796875 0 10.496094 4.699218 10.496094 10.496094 0 5.796874-4.699219 10.496093-10.496094 10.496093zm0 0"/></g><path d="m66.855469 52.898438c0 6.335937-5.136719 11.476562-11.476563 11.476562-6.335937 0-11.476562-5.140625-11.476562-11.476562 0-6.339844 5.140625-11.476563 11.476562-11.476563 6.339844 0 11.476563 5.136719 11.476563 11.476563zm0 0" fill="#edd4c2"/><path d="m55.378906 56.085938c-3.800781 0-6.882812-3.082032-6.882812-6.882813v-42.320313c0-3.800781 3.082031-6.882812 6.882812-6.882812 3.800782 0 6.882813 3.082031 6.882813 6.882812v42.320313c0 3.800781-3.078125 6.882813-6.882813 6.882813zm0 0" fill="#6770e6"/><path d="m55.378906 0c-3.800781 0-6.882812 3.082031-6.882812 6.882812v10.621094c0-3.800781 3.082031-6.882812 6.882812-6.882812 3.800782 0 6.882813 3.082031 6.882813 6.882812v-10.621094c0-3.800781-3.078125-6.882812-6.882813-6.882812zm0 0" fill="#8f95e6"/><path d="m151.664062 52.898438c0 6.335937-5.136718 11.476562-11.472656 11.476562-6.339844 0-11.476562-5.140625-11.476562-11.476562 0-6.339844 5.136718-11.476563 11.476562-11.476563 6.335938 0 11.472656 5.136719 11.472656 11.476563zm0 0" fill="#edd4c2"/><path d="m140.191406 56.085938c-3.800781 0-6.882812-3.082032-6.882812-6.882813v-42.320313c0-3.800781 3.082031-6.882812 6.882812-6.882812 3.796875 0 6.878906 3.082031 6.878906 6.882812v42.320313c0 3.800781-3.078124 6.882813-6.878906 6.882813zm0 0" fill="#6770e6"/><path d="m140.191406 0c-3.800781 0-6.882812 3.082031-6.882812 6.882812v10.621094c0-3.800781 3.078125-6.882812 6.882812-6.882812 3.796875 0 6.878906 3.082031 6.878906 6.882812v-10.621094c0-3.800781-3.082031-6.882812-6.878906-6.882812zm0 0" fill="#8f95e6"/><path d="m321.285156 52.898438c0 6.335937-5.136718 11.476562-11.476562 11.476562-6.335938 0-11.472656-5.140625-11.472656-11.476562 0-6.339844 5.136718-11.476563 11.472656-11.476563 6.339844 0 11.476562 5.136719 11.476562 11.476563zm0 0" fill="#edd4c2"/><path d="m309.808594 56.085938c-3.796875 0-6.878906-3.082032-6.878906-6.882813v-42.320313c0-3.800781 3.082031-6.882812 6.878906-6.882812 3.800781 0 6.882812 3.082031 6.882812 6.882812v42.320313c0 3.800781-3.082031 6.882813-6.882812 6.882813zm0 0" fill="#6770e6"/><path d="m309.808594 0c-3.796875 0-6.878906 3.082031-6.878906 6.882812v10.621094c0-3.800781 3.078124-6.882812 6.878906-6.882812 3.800781 0 6.882812 3.082031 6.882812 6.882812v-10.621094c0-3.800781-3.082031-6.882812-6.882812-6.882812zm0 0" fill="#8f95e6"/><path d="m236.476562 52.898438c0 6.335937-5.136718 11.476562-11.476562 11.476562s-11.476562-5.140625-11.476562-11.476562c0-6.339844 5.136718-11.476563 11.476562-11.476563s11.476562 5.136719 11.476562 11.476563zm0 0" fill="#edd4c2"/><path d="m225 56.085938c-3.800781 0-6.882812-3.082032-6.882812-6.882813v-42.320313c0-3.800781 3.082031-6.882812 6.882812-6.882812s6.882812 3.082031 6.882812 6.882812v42.320313c0 3.800781-3.082031 6.882813-6.882812 6.882813zm0 0" fill="#6770e6"/><path d="m225 0c-3.800781 0-6.882812 3.082031-6.882812 6.882812v10.621094c0-3.800781 3.082031-6.882812 6.882812-6.882812s6.882812 3.082031 6.882812 6.882812v-10.621094c0-3.800781-3.082031-6.882812-6.882812-6.882812zm0 0" fill="#8f95e6"/><path d="m406.097656 52.898438c0 6.335937-5.140625 11.476562-11.476562 11.476562-6.339844 0-11.476563-5.140625-11.476563-11.476562 0-6.339844 5.136719-11.476563 11.476563-11.476563 6.335937 0 11.476562 5.136719 11.476562 11.476563zm0 0" fill="#edd4c2"/><path d="m394.621094 56.085938c-3.800782 0-6.882813-3.082032-6.882813-6.882813v-42.320313c0-3.800781 3.082031-6.882812 6.882813-6.882812 3.800781 0 6.882812 3.082031 6.882812 6.882812v42.320313c0 3.800781-3.082031 6.882813-6.882812 6.882813zm0 0" fill="#6770e6"/><path d="m394.617188 0c-3.800782 0-6.882813 3.082031-6.882813 6.882812v10.621094c0-3.800781 3.082031-6.882812 6.882813-6.882812 3.800781 0 6.882812 3.082031 6.882812 6.882812v-10.621094c.003906-3.800781-3.078125-6.882812-6.882812-6.882812zm0 0" fill="#8f95e6"/><path d="m512 454.984375h-45.273438v-314.058594h45.273438zm0 0" fill="#ff8354"/><path d="m512 466.652344h-45.273438v-11.664063h45.273438zm0 0" fill="#ffefe4"/><path d="m466.726562 466.648438h45.273438v22.714843c0 12.503907-10.132812 22.636719-22.636719 22.636719-12.5 0-22.636719-10.132812-22.636719-22.636719zm0 0" fill="#6770e6"/><path d="m489.363281 492c-12.5 0-22.636719-10.132812-22.636719-22.636719v20c0 12.503907 10.136719 22.636719 22.636719 22.636719 12.503907 0 22.636719-10.132812 22.636719-22.636719v-20c0 12.503907-10.132812 22.636719-22.636719 22.636719zm0 0" fill="#5861c7"/><path d="m466.726562 140.90625 20.964844-58.492188c.5625-1.570312 2.78125-1.570312 3.34375 0l20.964844 58.492188zm0 0" fill="#edd4c2"/><path d="m478.042969 109.328125h22.636719l-9.644532-26.914063c-.5625-1.570312-2.785156-1.570312-3.347656 0zm0 0" fill="#5861c7"/><path d="m478.042969 109.328125h22.636719l-9.644532-26.914063c-.5625-1.570312-2.785156-1.570312-3.347656 0zm0 0" fill="#5861c7"/><path d="m486.882812 92.414062c.835938-1.570312 4.125-1.570312 4.957032 0l8.558594 16.121094-9.363282-26.121094c-.5625-1.570312-2.78125-1.570312-3.34375 0l-9.359375 26.113282zm0 0" fill="#8f95e6"/><path d="m279.476562 265.867188h-108.953124c-8.402344 0-14.921876-7.34375-13.921876-15.6875l12.109376-101.105469c.273437-2.292969 2.222656-4.023438 4.53125-4.023438h103.515624c2.308594 0 4.257813 1.730469 4.53125 4.023438l12.105469 101.105469c1 8.34375-5.515625 15.6875-13.917969 15.6875zm0 0" fill="#6770e6"/><path d="m256.878906 172.238281c-3.316406 0-6-2.683593-6-6v-31.875c0-14.269531-11.609375-25.878906-25.878906-25.878906s-25.878906 11.609375-25.878906 25.878906v31.875c0 3.316407-2.683594 6-6 6-3.3125 0-6-2.683593-6-6v-31.875c0-20.886719 16.992187-37.878906 37.878906-37.878906s37.875 16.992187 37.875 37.878906v31.875c0 3.316407-2.683594 6-5.996094 6zm0 0" fill="#69ebfc"/></svg>