<?xml version="1.0" encoding="iso-8859-1"?>
<!-- Generator: Adobe Illustrator 19.0.0, SVG Export Plug-In . SVG Version: 6.00 Build 0)  -->
<svg version="1.1" id="Layer_1" xmlns="http://www.w3.org/2000/svg" xmlns:xlink="http://www.w3.org/1999/xlink" x="0px" y="0px"
	 viewBox="0 0 512.001 512.001" style="enable-background:new 0 0 512.001 512.001;" xml:space="preserve">
<g>
	<polygon style="fill:#253744;" points="167.069,149.523 113.467,149.523 131.332,127.685 167.069,127.685 202.805,127.685 
		218.129,149.523 	"/>
	<polygon style="fill:#253744;" points="344.932,149.523 398.534,149.523 380.668,127.685 344.932,127.685 309.197,127.685 
		293.871,149.523 	"/>
	<polygon style="fill:#2D404E;" points="256.533,169.135 256.01,169.135 27.534,169.135 27.534,291.745 256.01,291.745 
		256.533,291.745 484.468,291.745 484.468,169.135 	"/>
	<polygon style="fill:#253744;" points="258.926,169.135 256.005,169.135 190.486,169.135 190.486,288.953 256.005,288.953 
		258.926,288.953 321.543,288.953 321.543,169.135 	"/>
	<rect x="114.258" y="56.385" style="fill:#2D404E;" width="105.619" height="52.071"/>
	<polygon style="fill:#2D404E;" points="202.805,37.158 167.069,37.158 131.332,37.158 114.26,57.01 167.069,57.01 219.877,57.01 	
		"/>
	<polygon style="fill:#2D404E;" points="202.805,129.021 167.069,129.021 131.332,129.021 114.26,107.831 167.069,107.831 
		219.877,107.831 	"/>
	<polygon style="fill:#EB8923;" points="167.069,5.001 119.818,5.001 131.332,37.164 167.069,37.164 202.805,37.164 214.319,5.001 	
		"/>
	<polygon style="fill:#2D404E;" points="184.175,457.04 155.385,288.953 27.533,288.953 35.142,313.087 0,457.04 	"/>
	<path style="fill:#EB8923;" d="M0,457.04v43.609c0,3.508,2.843,6.35,6.351,6.35h171.474c3.508,0,6.351-2.842,6.351-6.35V457.04H0z"
		/>
	<path style="fill:#EB8923;" d="M82.823,191.575H27.506v24.769h55.317c4.779,0,8.653-3.98,8.653-8.892v-6.985
		C91.476,195.555,87.602,191.575,82.823,191.575z"/>
	<path style="fill:#D27228;" d="M82.823,191.575H27.506v3.577l55.141-0.58c7.115,0,8.83,5.895,8.83,5.895
		C91.476,195.555,87.602,191.575,82.823,191.575z"/>
	<path style="fill:#EB8923;" d="M82.823,229.044H27.506v24.768h55.317c4.779,0,8.653-3.98,8.653-8.891v-6.986
		C91.476,233.025,87.602,229.044,82.823,229.044z"/>
	<path style="fill:#D27228;" d="M82.823,229.044H27.506v3.577l55.141-0.581c7.115,0,8.83,5.895,8.83,5.895
		C91.476,233.025,87.602,229.044,82.823,229.044z"/>
	<rect x="292.123" y="56.385" style="fill:#2D404E;" width="105.619" height="52.071"/>
	<polygon style="fill:#2D404E;" points="309.197,37.158 344.932,37.158 380.668,37.158 397.741,57.01 344.932,57.01 292.123,57.01 	
		"/>
	<polygon style="fill:#2D404E;" points="309.197,129.021 344.932,129.021 380.668,129.021 397.741,107.831 344.932,107.831 
		292.123,107.831 	"/>
	<polygon style="fill:#EB8923;" points="344.932,5.001 392.183,5.001 380.668,37.164 344.932,37.164 309.197,37.164 297.682,5.001 	
		"/>
	<path style="fill:#2D404E;" d="M467.966,157.281C452.301,153.47,256,121.717,256,121.717S59.699,153.471,44.034,157.281
		c-15.665,3.81-16.512,11.854-16.512,11.854H256h228.478C484.478,169.135,483.631,161.092,467.966,157.281z"/>
	<polygon style="fill:#2D404E;" points="476.859,313.087 484.468,288.953 356.616,288.953 327.826,457.04 512,457.04 	"/>
	<path style="fill:#EB8923;" d="M512,457.04v43.609c0,3.508-2.843,6.35-6.351,6.35H334.175c-3.508,0-6.351-2.842-6.351-6.35V457.04
		H512z"/>
	<path style="fill:#EB8923;" d="M429.178,191.575h55.317v24.769h-55.317c-4.779,0-8.653-3.98-8.653-8.892v-6.985
		C420.525,195.555,424.399,191.575,429.178,191.575z"/>
	<path style="fill:#D27228;" d="M256,169.135h-40.651v104.671h81.303V169.135H256z M292.123,264.945h-72.246V179.51H256h36.123
		V264.945L292.123,264.945z"/>
	<path style="fill:#D27228;" d="M429.178,191.575h55.317v3.577l-55.141-0.58c-7.115,0-8.83,5.895-8.83,5.895
		C420.525,195.555,424.399,191.575,429.178,191.575z"/>
	<path style="fill:#EB8923;" d="M429.178,229.044h55.317v24.768h-55.317c-4.779,0-8.653-3.98-8.653-8.891v-6.986
		C420.525,233.025,424.399,229.044,429.178,229.044z"/>
	<path style="fill:#D27228;" d="M429.178,229.044h55.317v3.577l-55.141-0.581c-7.115,0-8.83,5.895-8.83,5.895
		C420.525,233.025,424.399,229.044,429.178,229.044z"/>
	<polygon style="fill:#EB8923;" points="296.652,169.135 296.652,273.806 215.349,273.806 215.349,169.135 190.459,169.135 
		190.459,288.953 215.349,288.953 296.652,288.953 321.542,288.953 321.542,169.135 	"/>
	<path style="fill:#253744;" d="M134.839,141.551l7.42-13.865h-10.927L117.65,144.41c5.622-0.938,11.375-1.894,17.187-2.857
		L134.839,141.551z"/>
	<path style="fill:#253744;" d="M377.162,141.551l0.002,0.001c5.812,0.964,11.564,1.92,17.187,2.857l-13.682-16.724h-10.927
		L377.162,141.551z"/>
	<rect x="27.534" y="169.135" style="fill:#253744;" width="31.958" height="22.438"/>
	<rect x="27.534" y="216.342" style="fill:#253744;" width="31.958" height="12.702"/>
	<rect x="452.509" y="216.342" style="fill:#253744;" width="31.959" height="12.702"/>
	<rect x="452.509" y="169.135" style="fill:#253744;" width="31.959" height="22.438"/>
	<rect x="27.534" y="253.813" style="fill:#253744;" width="31.958" height="35.141"/>
	<rect x="452.509" y="253.813" style="fill:#253744;" width="31.959" height="35.141"/>
	<polygon style="fill:#253744;" points="130.828,57.01 114.26,57.01 114.258,57.01 114.258,107.831 114.26,107.831 130.828,107.831 
			"/>
	<polygon style="fill:#253744;" points="143.953,37.164 131.332,37.164 131.331,37.159 114.26,57.01 130.828,57.01 	"/>
	<polygon style="fill:#253744;" points="130.828,107.831 114.26,107.831 131.332,127.685 142.259,127.685 	"/>
	<polygon style="fill:#D27228;" points="143.952,37.158 135.689,5.001 119.818,5.001 131.331,37.159 131.332,37.158 	"/>
	<polygon style="fill:#EB8923;" points="143.953,37.164 143.952,37.158 131.332,37.158 131.331,37.159 131.332,37.164 	"/>
	<polygon style="fill:#EB8923;" points="167.069,37.158 143.952,37.158 143.953,37.164 167.069,37.164 202.805,37.164 
		202.806,37.159 202.805,37.158 	"/>
	<path style="fill:#253744;" d="M68.569,308.771c-18.479,2.426-33.427,4.316-33.427,4.316L0,457.04h42.339L68.569,308.771z"/>
	<path style="fill:#253744;" d="M59.492,288.953H27.534h-0.001l7.609,24.135c0,0,14.948-1.891,33.427-4.316l0.438-2.482
		L59.492,288.953z"/>
	<path style="fill:#D27228;" d="M0,457.04v43.609c0,3.508,2.843,6.35,6.351,6.35h35.988V457.04L0,457.04L0,457.04z"/>
	<rect x="27.505" y="195.152" style="fill:#EB8923;" width="0.028" height="21.191"/>
	<polygon style="opacity:0.1;fill:#253744;enable-background:new    ;" points="59.492,194.814 27.534,195.152 27.534,216.342 
		59.492,216.342 	"/>
	<rect x="27.505" y="191.575" style="fill:#D27228;" width="0.028" height="3.577"/>
	<polygon style="opacity:0.1;fill:#253744;enable-background:new    ;" points="59.492,194.814 59.492,191.575 27.534,191.575 
		27.534,195.152 	"/>
	<rect x="27.505" y="232.622" style="fill:#EB8923;" width="0.028" height="21.19"/>
	<polygon style="opacity:0.1;fill:#253744;enable-background:new    ;" points="59.492,232.285 27.534,232.622 27.534,253.813 
		59.492,253.813 	"/>
	<rect x="27.505" y="229.044" style="fill:#D27228;" width="0.028" height="3.577"/>
	<polygon style="opacity:0.1;fill:#253744;enable-background:new    ;" points="59.492,232.285 59.492,229.044 27.534,229.044 
		27.534,232.622 	"/>
	<polygon style="fill:#253744;" points="381.173,107.831 397.741,107.831 397.743,107.831 397.743,57.01 397.741,57.01 
		381.173,57.01 	"/>
	<polygon style="fill:#253744;" points="368.048,37.164 381.173,57.01 397.741,57.01 380.669,37.159 380.668,37.164 	"/>
	<polygon style="fill:#253744;" points="369.742,127.685 380.668,127.685 397.741,107.831 381.173,107.831 	"/>
	<polygon style="fill:#D27228;" points="380.668,37.158 380.669,37.159 392.183,5.001 376.312,5.001 368.049,37.158 	"/>
	<polygon style="fill:#EB8923;" points="344.932,37.164 368.048,37.164 368.049,37.158 344.932,37.158 309.197,37.158 
		309.195,37.159 309.197,37.164 	"/>
	<polygon style="fill:#EB8923;" points="368.049,37.158 368.048,37.164 380.668,37.164 380.669,37.159 380.668,37.158 	"/>
	<path style="fill:#253744;" d="M117.651,144.41c-36.654,6.116-67.76,10.446-73.616,11.872
		c-15.665,3.811-16.512,12.854-16.512,12.854h0.011h31.958l54.149-19.824l21.196-7.76
		C129.026,142.516,123.273,143.471,117.651,144.41z"/>
	<path style="fill:#253744;" d="M467.966,156.281c-5.855-1.426-36.962-5.756-73.616-11.872c-5.622-0.938-11.375-1.894-17.187-2.857
		l21.196,7.76l54.149,19.824h31.959h0.01C484.478,169.135,483.631,160.092,467.966,156.281z"/>
	<path style="fill:#253744;" d="M469.662,457.04h42.339l-35.142-143.953c0,0-14.948-1.891-33.427-4.316L469.662,457.04z"/>
	<path style="fill:#253744;" d="M452.509,288.953l-9.516,17.336l0.438,2.482c18.479,2.426,33.427,4.316,33.427,4.316l7.609-24.135
		h-31.958V288.953z"/>
	<path style="fill:#D27228;" d="M469.662,457.04V507h35.988c3.508,0,6.351-2.842,6.351-6.35v-43.61H469.662z"/>
	<rect x="484.468" y="195.152" style="fill:#EB8923;" width="0.027" height="21.191"/>
	<polygon style="opacity:0.1;fill:#253744;enable-background:new    ;" points="452.509,194.814 452.509,216.342 484.468,216.342 
		484.468,195.152 	"/>
	<rect x="484.468" y="191.575" style="fill:#D27228;" width="0.027" height="3.577"/>
	<polygon style="opacity:0.1;fill:#253744;enable-background:new    ;" points="452.509,194.814 484.468,195.152 484.468,191.575 
		452.509,191.575 	"/>
	<rect x="484.468" y="232.622" style="fill:#EB8923;" width="0.027" height="21.19"/>
	<polygon style="opacity:0.1;fill:#253744;enable-background:new    ;" points="452.509,232.285 452.509,253.813 484.468,253.813 
		484.468,232.622 	"/>
	<rect x="484.468" y="229.044" style="fill:#D27228;" width="0.027" height="3.577"/>
	<polygon style="opacity:0.1;fill:#253744;enable-background:new    ;" points="452.509,232.285 484.468,232.622 484.468,229.044 
		452.509,229.044 	"/>
	<polygon style="fill:#253744;" points="155.385,288.953 27.533,288.953 29.292,294.537 156.341,294.537 	"/>
	<polygon style="fill:#253744;" points="356.616,288.953 484.468,288.953 482.708,294.537 355.66,294.537 	"/>
	<path style="fill:#253744;" d="M30.243,164.266c-2.483,2.654-2.72,4.87-2.72,4.87h228.478h228.478c0,0-0.236-2.216-2.72-4.87
		H30.243z"/>
	<polygon style="fill:#EB8923;" points="283.792,123.408 272.785,104.144 256,104.144 239.216,104.144 228.208,123.408 
		197.232,149.523 197.232,169.135 255.145,169.135 256,169.135 314.76,169.135 314.76,149.523 314.769,149.523 	"/>
	<rect x="174.438" y="169.135" style="fill:#253744;" width="16.048" height="119.817"/>
	<rect x="321.543" y="169.135" style="fill:#253744;" width="16.048" height="119.817"/>
	<polygon style="fill:#253744;" points="217.006,128.053 182.462,149.523 182.462,169.135 201.576,169.135 201.576,149.506 
		227.541,126.336 	"/>
	<polygon style="fill:#253744;" points="294.995,128.053 329.538,149.523 329.538,169.135 310.425,169.135 310.425,149.506 
		284.459,126.336 	"/>
	<polygon style="fill:#D27228;" points="230.907,123.143 241.447,104.144 239.216,104.144 228.208,123.408 197.232,149.523 
		197.232,169.135 203.122,169.135 203.122,149.506 	"/>
	<polygon style="fill:#EB8923;" points="281.094,123.143 270.554,104.144 256,104.144 241.447,104.144 230.907,123.143 
		203.122,149.506 203.122,169.135 255.145,169.135 256,169.135 308.878,169.135 308.878,149.506 	"/>
	<polygon style="fill:#D27228;" points="283.792,123.408 272.785,104.144 270.554,104.144 281.094,123.143 308.878,149.506 
		308.878,169.135 314.76,169.135 314.76,149.523 314.769,149.523 	"/>
	<path style="fill:#253744;" d="M256,113.015c-1.636,0-2.963,1.285-2.963,2.869v33.621h5.928v-33.621
		C258.965,114.3,257.638,113.015,256,113.015z"/>
</g>
<g>
</g>
<g>
</g>
<g>
</g>
<g>
</g>
<g>
</g>
<g>
</g>
<g>
</g>
<g>
</g>
<g>
</g>
<g>
</g>
<g>
</g>
<g>
</g>
<g>
</g>
<g>
</g>
<g>
</g>
</svg>
