<svg height="512pt" viewBox="0 0 512 512" width="512pt" xmlns="http://www.w3.org/2000/svg"><path d="m264.933594 80.074219c0-10.925781 8.855468-19.78125 19.78125-19.78125h30.011718c-18.789062-5.71875-38.621093-8.8125-59.019531-8.8125-78.742187 0-151.277343 46.0625-184.800781 117.351562-4.226562 8.996094-.363281 19.71875 8.632812 23.949219 8.992188 4.226562 19.71875.363281 23.945313-8.632812 27.613281-58.722657 87.367187-96.667969 152.222656-96.667969 3.09375 0 6.164063.117187 9.222657.285156v-7.691406zm0 0" fill="#ff8354"/><path d="m284.714844 60.292969h31.136718c-19.210937-5.996094-39.527343-9.222657-60.429687-9.222657-62.261719 0-120.621094 28.8125-158.902344 76.105469l2.03125 11.515625c38.296875-45.820312 95.707031-73.625 156.871094-73.625 5.28125 0 10.519531.238282 15.71875.644532 3.542969-3.351563 8.3125-5.417969 13.574219-5.417969zm0 0" fill="#ffac8c"/><path d="m492.214844 234h-207.5c-10.925782 0-19.78125-8.859375-19.78125-19.785156v-134.140625c0-10.925781 8.855468-19.78125 19.78125-19.78125h207.5c10.925781 0 19.785156 8.855469 19.785156 19.78125v134.140625c0 10.925781-8.859375 19.785156-19.785156 19.785156zm0 0" fill="#6770e6"/><path d="m87.0625 193.96875c-3.667969 0-7.277344-1.121094-10.324219-3.253906-3.914062-2.738282-6.574219-6.917969-7.402343-11.617188l-13.097657-74.285156c-1.726562-9.789062 4.808594-19.125 14.601563-20.851562 9.789062-1.722657 19.125 4.8125 20.851562 14.601562l9.96875 56.554688 56.558594-9.972657c9.789062-1.71875 19.125 4.8125 20.851562 14.601563 1.726563 9.789062-4.808593 19.125-14.601562 20.851562l-74.28125 13.097656c-1.039062.183594-2.082031.273438-3.125.273438zm0 0" fill="#ff8354"/><path d="m70.636719 183.492188c.015625-.035157.03125-.070313.046875-.109376-.300782-.664062-.566406-1.34375-.785156-2.042968.207031.730468.445312 1.453125.738281 2.152344zm0 0" fill="#ffac8c"/><path d="m69.179688 178.199219.15625.898437c.011718.050782.027343.101563.035156.15625zm0 0" fill="#ffac8c"/><path d="m73.484375 97.960938c8.113281-1.367188 15.914063 2.480468 19.691406 9.019531l-1.484375-8.421875c-1.726562-9.789063-11.066406-16.324219-20.851562-14.597656-9.792969 1.726562-16.328125 11.0625-14.601563 20.851562l1.757813 9.984375c.417968-8.207031 6.6875-15.347656 15.488281-16.835937zm0 0" fill="#ffac8c"/><path d="m432.460938 319.21875c-8.996094-4.226562-19.722657-.367188-23.949219 8.632812-27.613281 58.722657-87.363281 96.667969-152.222657 96.667969-3.089843 0-6.160156-.117187-9.222656-.285156v36.070313c3.0625.136718 6.136719.214843 9.222656.214843 78.742188 0 151.28125-46.0625 184.800782-117.351562 4.230468-8.996094.367187-19.71875-8.628906-23.949219zm0 0" fill="#ff8354"/><path d="m256.289062 446.519531c-3.085937 0-6.160156-.078125-9.222656-.21875v14.003907c3.0625.136718 6.136719.214843 9.222656.214843 62.257813 0 120.617188-28.816406 158.902344-76.109375l-2.03125-11.511718c-38.296875 45.816406-95.707031 73.621093-156.871094 73.621093zm0 0" fill="#e0734a"/><path d="m438.015625 428.316406c-8.570313 0-16.167969-6.144531-17.707031-14.875l-9.972656-56.554687-56.554688 9.972656c-9.789062 1.730469-19.125-4.8125-20.851562-14.601563-1.726563-9.789062 4.808593-19.125 14.601562-20.851562l74.28125-13.097656c9.789062-1.722656 19.125 4.808594 20.851562 14.597656l13.097657 74.285156c1.726562 9.789063-4.808594 19.125-14.601563 20.851563-1.054687.183593-2.109375.273437-3.144531.273437zm0 0" fill="#ff8354"/><path d="m455.761719 407.1875-.859375-4.882812c-2.289063 5.914062-7.886719 10.566406-15.121094 11.734374-1.15625.183594-2.304688.273438-3.4375.273438-7.554688 0-14.410156-4-17.664062-10.128906l1.628906 9.253906c1.542968 8.730469 9.136718 14.875 17.707031 14.875 1.039063 0 2.089844-.089844 3.148437-.277344 9.789063-1.722656 16.324219-11.058594 14.597657-20.847656zm0 0" fill="#e0734a"/><path d="m492.214844 234h-207.5c-10.925782 0-19.78125-8.859375-19.78125-19.785156v-134.140625c0-10.925781 8.855468-19.78125 19.78125-19.78125h207.5c10.925781 0 19.785156 8.855469 19.785156 19.78125v134.140625c0 10.925781-8.859375 19.785156-19.785156 19.785156zm0 0" fill="#6770e6"/><path d="m492.214844 60.292969h-207.5c-10.925782 0-19.78125 8.855469-19.78125 19.78125v9.054687c0-10.925781 8.855468-19.78125 19.78125-19.78125h207.5c10.925781 0 19.785156 8.855469 19.785156 19.78125v-9.054687c0-10.925781-8.859375-19.78125-19.785156-19.78125zm0 0" fill="#8f95e6"/><g fill="#d476e2"><path d="m469.414062 210.871094h-161.898437c-13.414063 0-24.292969-10.875-24.292969-24.292969v-51.8125c0-4.421875 3.585938-8.003906 8.007813-8.003906h194.472656c4.421875 0 8.007813 3.582031 8.007813 8.003906v51.8125c-.003907 13.417969-10.878907 24.292969-24.296876 24.292969zm0 0"/><path d="m324.753906 98.257812c-10.070312 0-18.234375-8.164062-18.234375-18.238281v-20.136719c0-3.5 2.835938-6.339843 6.339844-6.339843h23.792969c3.5 0 6.339844 2.839843 6.339844 6.339843v20.136719c-.003907 10.070313-8.167969 18.238281-18.238282 18.238281zm0 0"/><path d="m452.179688 98.257812c-10.074219 0-18.238282-8.164062-18.238282-18.238281v-20.136719c0-3.5 2.839844-6.339843 6.339844-6.339843h23.792969c3.503906 0 6.339843 2.839843 6.339843 6.339843v20.136719c0 10.070313-8.164062 18.238281-18.234374 18.238281zm0 0"/><path d="m460.566406 53.546875h-16.78125c0-20.273437-16.492187-36.765625-36.761718-36.765625h-37.117188c-20.269531 0-36.761719 16.492188-36.761719 36.765625h-16.78125c0-29.527344 24.019531-53.546875 53.542969-53.546875h37.117188c29.523437 0 53.542968 24.019531 53.542968 53.546875zm0 0"/></g><path d="m369.90625 9.054688h37.117188c26.4375 0 48.445312 19.261718 52.765624 44.492187h.78125c-.003906-29.527344-24.023437-53.546875-53.546874-53.546875h-37.117188c-29.523438 0-53.542969 24.019531-53.542969 53.546875h.78125c4.316407-25.226563 26.324219-44.492187 52.761719-44.492187zm0 0" fill="#ea82fa"/><path d="m467.910156 167.558594h-158.886718c-14.25 0-25.800782-11.550782-25.800782-25.796875v-6.597657c0-4.640624 3.765625-8.402343 8.40625-8.402343h193.675782c4.640624 0 8.40625 3.761719 8.40625 8.402343v6.597657c-.003907 14.246093-11.554688 25.796875-25.800782 25.796875zm0 0" fill="#ea82fa"/><path d="m403.679688 177.710938h-30.425782c-2.652344 0-4.804687-2.152344-4.804687-4.804688v-11.613281c0-2.652344 2.152343-4.804688 4.804687-4.804688h30.425782c2.652343 0 4.804687 2.152344 4.804687 4.804688v11.613281c0 2.652344-2.152344 4.804688-4.804687 4.804688zm0 0" fill="#6770e6"/><path d="m227.285156 512h-207.5c-10.925781 0-19.785156-8.859375-19.785156-19.785156v-134.140625c0-10.925781 8.859375-19.78125 19.785156-19.78125h207.5c10.925782 0 19.78125 8.855469 19.78125 19.78125v134.140625c0 10.925781-8.855468 19.785156-19.78125 19.785156zm0 0" fill="#6770e6"/><path d="m227.285156 338.292969h-207.5c-10.925781 0-19.785156 8.855469-19.785156 19.78125v9.054687c0-10.925781 8.859375-19.78125 19.785156-19.78125h207.5c10.925782 0 19.78125 8.855469 19.78125 19.78125v-9.054687c0-10.925781-8.855468-19.78125-19.78125-19.78125zm0 0" fill="#8f95e6"/><path d="m204.484375 488.871094h-161.898437c-13.417969 0-24.292969-10.875-24.292969-24.292969v-51.8125c0-4.421875 3.582031-8.003906 8.003906-8.003906h194.476563c4.421874 0 8.003906 3.582031 8.003906 8.003906v51.8125c0 13.417969-10.878906 24.292969-24.292969 24.292969zm0 0" fill="#5fd4e3"/><path d="m59.820312 376.257812c-10.070312 0-18.234374-8.164062-18.234374-18.238281v-20.132812c0-3.503907 2.839843-6.339844 6.339843-6.339844h23.792969c3.503906 0 6.339844 2.835937 6.339844 6.339844v20.132812c0 10.070313-8.164063 18.238281-18.238282 18.238281zm0 0" fill="#69ebfc"/><path d="m187.246094 376.257812c-10.070313 0-18.234375-8.164062-18.234375-18.238281v-20.132812c0-3.503907 2.835937-6.339844 6.339843-6.339844h23.792969c3.5 0 6.339844 2.835937 6.339844 6.339844v20.132812c-.003906 10.070313-8.167969 18.238281-18.238281 18.238281zm0 0" fill="#69ebfc"/><path d="m195.636719 331.546875h-16.78125c0-20.273437-16.492188-36.765625-36.761719-36.765625h-37.117188c-20.269531 0-36.761718 16.492188-36.761718 36.765625h-16.78125c0-29.527344 24.019531-53.546875 53.542968-53.546875h37.117188c29.523438 0 53.542969 24.019531 53.542969 53.546875zm0 0" fill="#69ebfc"/><path d="m104.976562 287.054688h37.117188c26.4375 0 48.445312 19.261718 52.765625 44.492187h.78125c-.003906-29.527344-24.023437-53.546875-53.546875-53.546875h-37.117188c-29.523437 0-53.542968 24.019531-53.542968 53.546875h.78125c4.316406-25.226563 26.324218-44.492187 52.761718-44.492187zm0 0" fill="#a1f1fc"/><path d="m202.976562 445.558594h-158.886718c-14.246094 0-25.796875-11.550782-25.796875-25.796875v-6.597657c0-4.640624 3.761719-8.402343 8.40625-8.402343h193.671875c4.644531 0 8.40625 3.761719 8.40625 8.402343v6.597657c0 14.246093-11.550782 25.796875-25.800782 25.796875zm0 0" fill="#69ebfc"/><path d="m138.746094 455.710938h-30.425782c-2.652343 0-4.804687-2.152344-4.804687-4.804688v-11.613281c0-2.652344 2.152344-4.804688 4.804687-4.804688h30.425782c2.652344 0 4.804687 2.152344 4.804687 4.804688v11.613281c0 2.652344-2.152343 4.804688-4.804687 4.804688zm0 0" fill="#6770e6"/></svg>