<svg height="512pt" viewBox="-37 0 512 512" width="512pt" xmlns="http://www.w3.org/2000/svg"><path d="m437.679688 218.839844c0 120.863281-97.976563 218.839844-218.839844 218.839844-120.863282 0-218.839844-97.976563-218.839844-218.839844 0-120.863282 97.976562-218.839844 218.839844-218.839844 120.863281 0 218.839844 97.976562 218.839844 218.839844zm0 0" fill="#ff8354"/><path d="m218.839844 14c118.519531 0 215.019531 94.21875 218.714844 211.839844.074218-2.324219.125-4.65625.125-7 0-120.863282-97.976563-218.839844-218.839844-218.839844-120.863282 0-218.839844 97.976562-218.839844 218.839844 0 2.34375.0507812 4.675781.125 7 3.695312-117.621094 100.195312-211.839844 218.714844-211.839844zm0 0" fill="#ffac8c"/><path d="m218.839844 423.679688c-118.519532 0-215.019532-94.21875-218.714844-211.839844-.0742188 2.324218-.125 4.65625-.125 7 0 120.863281 97.976562 218.839844 218.839844 218.839844 120.863281 0 218.839844-97.976563 218.839844-218.839844 0-2.34375-.050782-4.675782-.125-7-3.695313 117.621094-100.195313 211.839844-218.714844 211.839844zm0 0" fill="#e0734a"/><path d="m418.519531 346.414062c-7.5 0-13.582031 6.082032-13.582031 13.582032v-12.632813c0-7.5-6.082031-13.582031-13.582031-13.582031s-13.582031 6.082031-13.582031 13.582031v-9.152343c0-7.503907-6.082032-13.582032-13.582032-13.582032s-13.582031 6.082032-13.582031 13.582032v-83.871094c0-7.5-6.082031-13.582032-13.582031-13.582032s-13.582032 6.082032-13.582032 13.582032v105.070312c-1.011718-8.175781-7.992187-14.636718-16.59375-14.636718-1.308593 0-2.484374.800781-2.957031 2.023437l-12.335937 31.878906c-1.835938 4.746094-2.777344 9.792969-2.777344 14.882813v35.175781c0 10.417969 3.941406 20.453125 11.035156 28.082031l29.613282 31.855469v23.328125h84.65625v-36.148438h.609374l12.933594-25.804687c2.945313-5.867187 4.476563-12.347656 4.476563-18.914063v-71.136718c-.003907-7.5-6.085938-13.582032-13.585938-13.582032zm0 0" fill="#ffefe4"/><path d="m414.078125 511.441406v-15.570312h-84.933594l.28125.300781v15.269531zm0 0" fill="#ffe4d1"/><g fill="#69ebfc"><path d="m257.574219 333.261719c-3.238281 0-6.441407-.878907-9.25-2.542969-5.519531-3.265625-8.953125-9.265625-8.953125-15.660156 0-.511719.03125-1.011719.078125-1.511719.25-3.175781 1.332031-6.148437 3.042969-8.679687h-54.667969l-1.117188 1.667968c.96875 1.828125 1.621094 3.820313 1.921875 5.871094.058594.390625.105469.789062.140625 1.191406.03125.34375.054688.71875.066407 1.101563l.003906.355469c0 2.75-.613282 5.414062-1.824219 7.917968-.550781 1.132813-1.214844 2.210938-1.976563 3.195313-.535156.691406-1.023437 1.253906-1.53125 1.761719-1.242187 1.242187-2.652343 2.292968-4.191406 3.128906-1.046875.570312-2.144531 1.035156-3.269531 1.382812-1.746094.539063-3.566406.816406-5.410156.816406-3.242188 0-6.4375-.878906-9.25-2.542968-5.519531-3.265625-8.953125-9.265625-8.953125-15.660156 0-.511719.027344-1.011719.078125-1.511719.378906-4.835938 2.726562-9.238281 6.300781-12.304688-1.886719-1.097656-3.425781-2.445312-4.601562-4.039062-2.738282-3.707031-3.394532-8.515625-1.84375-13.550781 1.628906-5.300782 4.996093-10.023438 10.035156-14.089844-2.800782-1.957032-5.023438-4.730469-6.257813-8.007813l-31.675781-83.859375c-.59375-1.570312-1.746094-2.851562-3.25-3.601562l-2.320312-1.160156c-.820313.195312-1.65625.296874-2.503907.296874h-17.234375c-4.65625 0-8.75-2.980468-10.1875-7.410156-.15625-.476562-.277344-.980468-.363281-1.5l-.035156-.21875c-.082031-.546875-.125-1.058594-.125-1.582031 0-1.785156.449219-3.550781 1.292969-5.109375.164062-.300781.34375-.59375.535156-.875 2-2.964844 5.320312-4.730469 8.882812-4.730469h17.234375c3.566407 0 6.882813 1.765625 8.882813 4.722657.191406.28125.371094.578124.535156.878906.152344.285156.292969.570312.414062.863281l2.328126 1.164063c5.125 2.558593 9.089843 6.917968 11.167968 12.265624l.082032.199219 5.316406 14.074219h154.164062c1.765625 0 3.355469.4375 4.746094 1.257812.421875.253907.769531.5 1.097656.765626l.125.085937.460938.4375c.144531.140625.28125.289063.417968.4375l.421876.492187c.097656.121094.210937.285157.324218.453126.058594.082031.125.175781.1875.273437.214844.34375.394532.667969.550782 1.003906l.0625.125.078124.203125c.074219.164063.179688.441406.269532.722656l.101562.335938c.074219.277344.128906.5.171875.730469l.066407.398437c.035156.246094.0625.496094.074218.75.011719.109375.019532.289063.019532.464844.003906.199219-.003907.449219-.023438.703125l-.015625.277344c-.050781.460937-.113281.824219-.199219 1.1875l-14.851562 62.378906c-1.851563 7.792969-8.746094 13.238281-16.757813 13.238281h-80.441406c-9.34375 1.695313-24.488281 7.109375-27.820313 14.917969 1.410157.386719 4.210938.863281 9.476563.863281h101.8125c4.519531 0 8.199219 3.675782 8.199219 8.191406 0 4.519532-3.679688 8.199219-8.199219 8.199219h-4.488281l-1.339844 1.992188c.875 1.738281 1.472656 3.617187 1.753906 5.546875.058594.398437.109375.792968.140625 1.191406.023438.234375.039063.484375.050781.746094l.019532.050781v.660156c0 2.75-.613282 5.410157-1.824219 7.914063-.550781 1.140625-1.21875 2.214844-1.980469 3.199218-.519531.675782-1.019531 1.25-1.527344 1.757813-1.242187 1.242187-2.652343 2.296875-4.191406 3.132813-1.046875.566406-2.144531 1.03125-3.273437 1.378906-1.742188.550781-3.558594.828125-5.40625.828125zm19.039062-76.953125c.394531 0 .722657-.257813.8125-.640625l4.558594-19.140625h-24.804687l-2.378907 19.785156h21.8125zm-38.320312 0 2.382812-19.785156h-29.792969l2.785157 19.785156zm-66.8125-.542969c.121093.316406.449219.542969.785156.542969h24.851563l-2.78125-19.785156h-30.125zm114.40625-35.632813 4.230469-17.769531h-28.824219l-2.140625 17.769531zm-43.238281 0 2.140624-17.769531h-38.710937l2.5 17.769531zm-50.621094 0-2.5-17.769531h-38.21875l6.710937 17.769531zm0 0"/><path d="m222.992188 156.542969 38.929687-49.558594c2.972656-3.785156.273437-9.335937-4.539063-9.335937h-23.371093v-23.203126c0-8.589843-6.964844-15.558593-15.554688-15.558593-4.296875.003906-8.183593 1.742187-11 4.558593-2.816406 2.816407-4.554687 6.703126-4.554687 10.996094v23.203125h-23.371094c-4.8125 0-7.511719 5.550781-4.539062 9.335938l38.929687 49.558593c2.304687 2.941407 6.761719 2.941407 9.070313.003907zm0 0"/></g></svg>