<svg id="Layer_1" height="512" viewBox="0 0 150 150" width="512" xmlns="http://www.w3.org/2000/svg" data-name="Layer 1"><circle cx="75" cy="75" fill="#709584" r="64"/><path d="m59.11 50.02h-7.34l-1.04 24.71h9.42z" fill="#3a556a"/><path d="m75.38 50.02h-7.35l-1.04 24.71h9.43z" fill="#3a556a"/><path d="m42.63 71.48h64.74v32.72h-64.74z" fill="#e1e6e9"/><g fill="#3a556a"><path d="m47.11 77.17h3.62v3.62h-3.62z"/><path d="m53.63 77.17h3.62v3.62h-3.62z"/><path d="m60.15 77.17h3.62v3.62h-3.62z"/><path d="m66.67 77.17h3.62v3.62h-3.62z"/><path d="m73.19 77.17h3.62v3.62h-3.62z"/><path d="m79.71 77.17h3.62v3.62h-3.62z"/><path d="m86.23 77.17h3.62v3.62h-3.62z"/><path d="m92.75 77.17h3.62v3.62h-3.62z"/><path d="m99.28 77.17h3.62v3.62h-3.62z"/></g><path d="m39.52 70.38h70.95v3.09h-70.95z" fill="#d5d6db"/><path d="m69.86 44.24a4 4 0 0 0 -1.52-.69 9.51 9.51 0 0 0 -4.56-.09 8.66 8.66 0 0 1 -2.73.47c-1-.09-1.84-.65-2.81-.74a3 3 0 0 0 -2.65 1.18 5.72 5.72 0 0 0 -.59 2.63 1.79 1.79 0 0 0 .12.69.58.58 0 0 0 .54.37c.34 0 .52-.44.52-.78a2.83 2.83 0 0 1 .05-1 1.21 1.21 0 0 1 1.41-.54c.53.12 1 .44 1.52.6a12.79 12.79 0 0 0 3.16.11 14.09 14.09 0 0 1 3.35.85 5.75 5.75 0 0 0 3.4.23 2.13 2.13 0 0 0 1.59-1.86 2 2 0 0 0 -.8-1.43z" fill="#ebf0f3"/><path d="m83.29 45.62a3 3 0 0 0 -1.14-.53 7.19 7.19 0 0 0 -3.45-.09 6.35 6.35 0 0 1 -2 .35c-.73-.07-1.39-.49-2.12-.56a2.28 2.28 0 0 0 -2 .89 4.28 4.28 0 0 0 -.46 2 1.29 1.29 0 0 0 .08.52.47.47 0 0 0 .41.28c.26 0 .39-.33.39-.59a2.13 2.13 0 0 1 0-.76.91.91 0 0 1 1.06-.41c.4.09.76.33 1.15.45a9.94 9.94 0 0 0 2.38.09 10.22 10.22 0 0 1 2.53.64 4.25 4.25 0 0 0 2.56.17 1.59 1.59 0 0 0 1.2-1.4 1.44 1.44 0 0 0 -.59-1.05z" fill="#ebf0f3"/><path d="m60 104.18h-8.5v-7.7a4.25 4.25 0 1 1 8.5 0z" fill="#3a556a"/><path d="m79.1 104.18h-8.51v-7.7a4.26 4.26 0 1 1 8.51 0z" fill="#3a556a"/><path d="m98.19 104.18h-8.51v-7.7a4.26 4.26 0 1 1 8.51 0z" fill="#3a556a"/><path d="m39.52 103.74h70.95v3.09h-70.95z" fill="#d5d6db"/></svg>