<svg id="Layer_1" height="512" viewBox="0 0 150 150" width="512" xmlns="http://www.w3.org/2000/svg" data-name="Layer 1"><circle cx="75" cy="75" fill="#d5d6db" r="64"/><rect fill="#27a2db" height="33.02" rx="1.68" width="62.72" x="24.17" y="50.76"/><path d="m91.29 72.37h-4.39v10.94l-26.36.47h-26.12-6.59v2.16 3.68h4.39v1.93h41.5v2.7h16.24v-3.84h1.33z" fill="#3a556a"/><path d="m125.83 88.2v1.18a1 1 0 0 1 -.59.87l-2 .8-1.25.49h-31v-27h10.01a2.74 2.74 0 0 1 2.34 1.3v.08l5.62 9.8.2.35 12.1 1a2.25 2.25 0 0 1 1.29.77 4.82 4.82 0 0 1 1 1.63 10.09 10.09 0 0 1 .45 2.07v.36c.41 4.59 0 5.32 0 5.32h.85a.93.93 0 0 1 .98.98z" fill="#e56353"/><path d="m104.25 74.06-3.25-5.92a.58.58 0 0 0 -.5-.3h-6.4a.58.58 0 0 0 -.58.57v5.92a.57.57 0 0 0 .58.57h9.65a.57.57 0 0 0 .5-.84z" fill="#3a556a"/><path d="m64.58 89.03h9.14v3.02h-9.14z" fill="#64798a"/><path d="m103.35 65.83-.53.11a.29.29 0 0 0 -.19.43l5.74 9.63.84.1c-.48-.93-3.5-6.35-5.86-10.27z" fill="#3a556a"/><path d="m122.6 77.88a2.25 2.25 0 0 0 -1.29-.77l-12.1-1-.84-.1a1.29 1.29 0 0 0 1 .77l13.19 1.16z" fill="#e56353"/><path d="m123.2 91.05-1.25.49h-16.95a9.19 9.19 0 0 1 18.22-.49z" fill="#d15241"/><path d="m120.85 92.51a6.73 6.73 0 1 1 -6.72-6.73 6.73 6.73 0 0 1 6.72 6.73z" fill="#3a556a"/><path d="m117.2 92.51a3.08 3.08 0 1 1 -3.07-3.08 3.07 3.07 0 0 1 3.07 3.08z" fill="#e1e6e9"/><path d="m62.42 92.51a6.73 6.73 0 1 1 -6.73-6.73 6.74 6.74 0 0 1 6.73 6.73z" fill="#2f4859"/><path d="m58.76 92.51a3.08 3.08 0 1 1 -3.07-3.08 3.06 3.06 0 0 1 3.07 3.08z" fill="#e1e6e9"/><path d="m47.09 92.51a6.73 6.73 0 1 1 -6.73-6.73 6.73 6.73 0 0 1 6.73 6.73z" fill="#2f4859"/><path d="m43.44 92.51a3.08 3.08 0 1 1 -3.08-3.08 3.07 3.07 0 0 1 3.08 3.08z" fill="#e1e6e9"/><path d="m101.61 66.16h-9.48v21.28h13l.06-.2a4.88 4.88 0 0 1 2.5-2.86h.2v-8.38zm3.32 21.08h-12.6v-20.93h9.14l6.17 9.69v8.13a5.09 5.09 0 0 0 -2.71 3.11z" fill="#d15241"/></svg>