<?xml version="1.0" encoding="iso-8859-1"?>
<!-- Generator: Adobe Illustrator 19.0.0, SVG Export Plug-In . SVG Version: 6.00 Build 0)  -->
<svg version="1.1" id="Layer_1" xmlns="http://www.w3.org/2000/svg" xmlns:xlink="http://www.w3.org/1999/xlink" x="0px" y="0px"
	 viewBox="0 0 512 512" style="enable-background:new 0 0 512 512;" xml:space="preserve">
<g>
	<path style="fill:#C6CBCB;" d="M511.94,355.686c0.007-25.555-466.161-242.119-466.161-242.119s-45.708-0.013-45.721,36.632
		C0.051,178.699,0,352.367,0,352.367c-0.008,33.258,21.012,45.934,38.438,45.936c17.426,0.007,424.285,0.127,446.064,0.131
		C506.281,398.44,511.934,381.237,511.94,355.686z"/>
	<path style="fill:#E2E5E7;" d="M478.132,113.693c18.71,0.006,33.872,15.179,33.868,33.889l-0.061,209.724
		c-0.005,18.71-15.179,33.875-33.888,33.867L45.7,391.048c-18.711-0.006-33.875-15.18-33.868-33.891l0.062-209.722
		c0.004-18.71,15.176-33.874,33.886-33.87L478.132,113.693z"/>
	
		<rect x="125.697" y="58.785" transform="matrix(2.865354e-004 -1 1 2.865354e-004 -5.7521 498.9788)" style="fill:#2D404E;" width="241.975" height="387.162"/>
	<path style="fill:#586A73;" d="M34.457,212.952c2.676,0,4.842,2.351,4.84,5.247l-0.021,68.213
		c-0.001,2.897-2.168,5.245-4.841,5.243l0,0c-2.675,0-4.84-2.35-4.84-5.247l0.021-68.21
		C29.62,215.301,31.784,212.956,34.457,212.952L34.457,212.952z"/>
	<path style="fill:#2D404E;" d="M38.291,214.997c0.631,0.887,1.006,1.997,1.006,3.203l-0.021,68.213
		c-0.001,2.897-2.168,5.245-4.841,5.243l0,0c-2.675,0-4.84-2.35-4.84-5.247c0,0,2.22,1.991,4.84,1.188
		c2.624-0.809,2.825-8.874,2.828-12.503C37.266,271.46,38.291,214.997,38.291,214.997z"/>
	<g>
		<path style="fill:#C6CBCB;" d="M475.789,232.173c-11.264-0.004-20.402,9.129-20.405,20.393
			c-0.002,11.264,9.128,20.401,20.395,20.403c11.266,0.004,20.401-9.129,20.402-20.39
			C496.185,241.312,487.055,232.176,475.789,232.173z"/>
		<path style="fill:#D1D5D5;" d="M475.789,235.146c-9.623-0.001-17.427,7.797-17.427,17.419
			c-0.005,9.624,7.794,17.428,17.416,17.432c9.622,0,17.425-7.799,17.428-17.422C493.211,242.954,485.411,235.15,475.789,235.146z"
			/>
		<path style="fill:#E2E5E7;" d="M475.787,239.131c-7.423-0.002-13.443,6.013-13.444,13.437
			c-0.002,7.423,6.011,13.443,13.436,13.443c7.428,0.005,13.446-6.013,13.448-13.437
			C489.228,245.153,483.214,239.131,475.787,239.131z"/>
	</g>
	<path style="fill:#D1D5D5;" d="M8.446,208.874L8.46,167.96c0,0-2.35-2.122-5.701-0.002l-0.014,40.915
		C2.745,208.873,5.596,211.447,8.446,208.874z"/>
	<path style="fill:#E2E5E7;" d="M2.758,167.958l-0.014,40.915c0,0,2.125,1.918,4.539,0.787l0.006-42.36
		C6.282,166.924,4.688,166.739,2.758,167.958z"/>
	<ellipse style="fill:#E2E5E7;" cx="5.56" cy="331.175" rx="2.85" ry="9.511"/>
	<g>
		
			<rect x="125.697" y="58.785" transform="matrix(2.865354e-004 -1 1 2.865354e-004 -5.7521 498.9788)" style="fill:#48B19B;" width="241.975" height="387.162"/>
		<rect x="53.07" y="326.447" style="fill:#915A26;" width="387.162" height="46.961"/>
		<g>
			<path style="fill:#3B8D7B;" d="M129.363,334.958H81.874c0,0,7.598-2.85,12.979-3.168c0,0-1.265-45.271,2.218-63.315
				c3.481-18.046,9.183-40.841,18.995-52.555c0,0-3.8-0.635-16.464,5.064c-12.664,5.698-22.162,11.714-22.162,11.714
				s-1.899-16.463,13.298-23.744c15.196-7.28,23.111-2.532,23.111-2.532s-12.03-10.447-34.823-6.648c0,0,17.475-24.062,43.877-4.433
				c0,0,18.172-17.731,40.966,4.748c0,0-10.129-6.333-26.275,3.799c0,0,26.908,1.267,30.708,29.443c0,0-15.194-20.58-33.558-19.945
				c0,0,20.576,15.831,5.065,40.525c0,0-4.193-27.86-16.977-35.459c0,0-12.15,17.093-14.999,47.171
				c-2.85,30.077,2.216,64.584,2.216,64.584S123.032,332.426,129.363,334.958z"/>
			<path style="fill:#3B8D7B;" d="M217.371,334.958h47.488c0,0-7.598-2.85-12.98-3.168c0,0,1.266-45.271-2.216-63.315
				c-3.481-18.046-9.182-40.841-18.995-52.555c0,0,3.798-0.635,16.463,5.064c12.664,5.698,22.162,11.714,22.162,11.714
				s1.899-16.463-13.297-23.744c-15.196-7.28-23.111-2.532-23.111-2.532s12.029-10.447,34.824-6.648c0,0-17.477-24.062-43.879-4.433
				c0,0-18.172-17.731-40.966,4.748c0,0,10.13-6.333,26.275,3.799c0,0-26.908,1.267-30.708,29.443c0,0,15.195-20.58,33.558-19.945
				c0,0-20.575,15.831-5.063,40.525c0,0,4.191-27.86,16.975-35.459c0,0,12.15,17.093,15.001,47.171
				c2.849,30.077-2.218,64.584-2.218,64.584S223.703,332.426,217.371,334.958z"/>
			<g>
				<g>
					<g>
						<path style="fill:#3B8D7B;" d="M118.368,300.652c-2.924-1.91-28.521-18.896-26.904-26.823
							c0.386-1.894,2.061-3.117,4.979-3.638l0.352,1.969c-2.031,0.362-3.165,1.059-3.371,2.068
							c-1.014,4.973,15.434,17.82,26.039,24.75L118.368,300.652z"/>
					</g>
					<g>
						<path style="fill:#3B8D7B;" d="M135.514,288.973c-0.163-0.093-16.447-9.328-28.637-14.25l0.748-1.855
							c12.315,4.973,28.713,14.273,28.877,14.367L135.514,288.973z"/>
					</g>
				</g>
				<g>
					<g>
						<path style="fill:#3B8D7B;" d="M228.368,300.652l-1.094-1.674c10.604-6.931,27.051-19.779,26.037-24.751
							c-0.206-1.009-1.34-1.705-3.37-2.067l0.352-1.969c2.917,0.521,4.593,1.744,4.979,3.637
							C256.887,281.757,231.291,298.742,228.368,300.652z"/>
					</g>
					<g>
						<path style="fill:#3B8D7B;" d="M211.218,288.973l-0.988-1.738c0.164-0.094,16.562-9.395,28.88-14.367l0.748,1.855
							C227.663,279.646,211.381,288.879,211.218,288.973z"/>
					</g>
				</g>
				<g>
					<path style="fill:#3B8D7B;" d="M120.03,302.676c-0.796,0.579-1.908,0.404-2.489-0.39l0,0c-0.581-0.796-0.402-1.91,0.39-2.489
						l18.615-13.564c0.793-0.578,1.908-0.403,2.487,0.39l0,0c0.581,0.797,0.403,1.911-0.39,2.487L120.03,302.676z"/>
				</g>
				<g>
					<path style="fill:#3B8D7B;" d="M225.913,302.676c0.796,0.579,1.909,0.404,2.489-0.39l0,0c0.581-0.796,0.403-1.91-0.389-2.489
						l-18.615-13.564c-0.793-0.578-1.909-0.403-2.488,0.39l0,0c-0.581,0.797-0.403,1.911,0.391,2.487L225.913,302.676z"/>
				</g>
				<g>
					<path style="fill:#3B8D7B;" d="M174.248,299.49c-20.875,0-35.666-9.816-35.887-9.967l0.562-0.826
						c0.326,0.222,33.086,21.936,69.882-0.017l0.512,0.859C196.81,296.999,184.757,299.49,174.248,299.49z"/>
				</g>
				<g>
					<path style="fill:#3B8D7B;" d="M173.852,322.081c-42.395,0-52.575-20.153-52.673-20.356l0.9-0.435
						c0.096,0.198,10.067,19.791,51.772,19.791c34.581,0,51.994-19.701,52.165-19.9l0.758,0.654
						C226.599,302.038,208.885,322.081,173.852,322.081z"/>
				</g>
				<g>
					<path style="fill:#3B8D7B;" d="M135.683,314.359c-9.22-7.876-10.354-15.488-10.398-15.809l0.99-0.136
						c0.011,0.075,1.149,7.575,10.059,15.185L135.683,314.359z"/>
				</g>
				<g>
					<path style="fill:#3B8D7B;" d="M146.058,318.443c-0.659-0.522-16.104-12.959-13.707-26.864l0.986,0.17
						c-2.298,13.326,13.186,25.787,13.342,25.911L146.058,318.443z"/>
				</g>
				<g>
					<path style="fill:#3B8D7B;" d="M155.355,320.578c-15.675-10.679-18.704-31.193-18.732-31.399l0.99-0.139
						c0.028,0.202,3.003,20.287,18.305,30.712L155.355,320.578z"/>
				</g>
				<g>
					<path style="fill:#3B8D7B;" d="M163.876,321.605c-14.449-11.003-18.851-28.547-18.894-28.723l0.972-0.236
						c0.043,0.173,4.367,17.381,18.527,28.164L163.876,321.605z"/>
				</g>
				<g>
					<path style="fill:#3B8D7B;" d="M175.842,322.034c-15.924-7.606-21.442-25.475-21.496-25.654l0.957-0.287
						c0.053,0.175,5.454,17.628,20.971,25.039L175.842,322.034z"/>
				</g>
				<g>
					<path style="fill:#3B8D7B;" d="M186.091,321.178c-18.793-7.13-22.366-22.434-22.4-22.588l0.977-0.216
						c0.033,0.149,3.513,14.938,21.779,21.868L186.091,321.178z"/>
				</g>
				<g>
					<path style="fill:#3B8D7B;" d="M198.125,318.542c-19.657-4.012-26.038-19.171-26.1-19.323l0.926-0.377
						c0.061,0.147,6.261,14.82,25.373,18.72L198.125,318.542z"/>
				</g>
				<g>
					<path style="fill:#3B8D7B;" d="M208.965,314.298c-19.46,0-28.853-15.14-28.945-15.293l0.855-0.518
						c0.09,0.147,9.21,14.811,28.09,14.811c0.032,0,0.063,0,0.096,0l0.002,1C209.031,314.298,208.997,314.298,208.965,314.298z"/>
				</g>
				<g>
					<path style="fill:#3B8D7B;" d="M216.31,308.482c-5.296,0-17.248-1.175-28.972-10.46l0.621-0.783
						c15.267,12.091,30.882,10.137,31.038,10.118l0.135,0.99C219.092,308.353,218.068,308.482,216.31,308.482z"/>
				</g>
				<g>
					<path style="fill:#3B8D7B;" d="M219.724,303.617c-6.327,0-16.919-1.11-25.214-7.539l0.613-0.791
						c12.273,9.515,29.768,7.058,29.942,7.032l0.146,0.988C225.151,303.318,223.014,303.617,219.724,303.617z"/>
				</g>
				<g>
					<path style="fill:#3B8D7B;" d="M219.539,299.001c-2.082,0-8.823-0.466-17.638-5.81l0.518-0.855
						c10.152,6.154,17.63,5.646,17.703,5.648l0.079,0.996C220.152,298.986,219.925,299.001,219.539,299.001z"/>
				</g>
				<g>
					<path style="fill:#3B8D7B;" d="M220.602,307.283l-0.881-0.475c1.959-3.635,1.229-7.261,1.221-7.297l0.979-0.208
						C221.954,299.465,222.741,303.313,220.602,307.283z"/>
				</g>
				<g>
					<path style="fill:#3B8D7B;" d="M212.955,312.253l-0.861-0.508c4.725-8.005,2.494-16.773,2.472-16.861l0.967-0.254
						C215.631,295.003,217.889,303.892,212.955,312.253z"/>
				</g>
				<g>
					<path style="fill:#3B8D7B;" d="M203.426,316.689l-0.844-0.537c6.834-10.717,5.99-25.579,5.98-25.728l0.998-0.062
						C209.571,290.514,210.432,305.702,203.426,316.689z"/>
				</g>
				<g>
					<path style="fill:#3B8D7B;" d="M191.979,320.116l-0.703-0.711c8.779-8.687,8.037-25.406,8.029-25.574l0.998-0.051
						C200.339,294.484,201.074,311.118,191.979,320.116z"/>
				</g>
				<g>
					<path style="fill:#3B8D7B;" d="M181.479,321.596l-0.631-0.777c11.546-9.37,11.181-24.251,11.176-24.4l1-0.033
						C193.029,296.539,193.406,311.915,181.479,321.596z"/>
				</g>
				<g>
					<path style="fill:#3B8D7B;" d="M169.281,321.939l-0.455-0.891c14.639-7.465,16.021-22.854,16.034-23.008l0.996,0.078
						C185.844,298.279,184.43,314.212,169.281,321.939z"/>
				</g>
				<g>
					<path style="fill:#3B8D7B;" d="M160.162,321.215l-0.506-0.863c15.161-8.883,18.143-21.416,18.171-21.541l0.977,0.219
						C178.774,299.159,175.718,312.099,160.162,321.215z"/>
				</g>
				<g>
					<path style="fill:#3B8D7B;" d="M150.68,319.603l-0.377-0.926c13.48-5.495,19.085-19.793,19.141-19.937l0.934,0.357
						C170.321,299.246,164.571,313.941,150.68,319.603z"/>
				</g>
				<g>
					<path style="fill:#3B8D7B;" d="M140.907,316.663l-0.107-0.994c12.443-1.334,20.377-17.827,20.455-17.994l0.904,0.428
						C161.828,298.802,153.91,315.27,140.907,316.663z"/>
				</g>
				<g>
					<path style="fill:#3B8D7B;" d="M129.393,310.35l-0.072-0.998c20.126-1.477,23.027-13.704,23.055-13.827l0.977,0.213
						C153.324,295.87,150.255,308.819,129.393,310.35z"/>
				</g>
				<g>
					<path style="fill:#3B8D7B;" d="M131.4,301.896c-2.42,0-5.07-0.396-7.938-1.365l0.32-0.947
						c14.841,5.02,23.614-5.974,23.701-6.085l0.789,0.613C148.198,294.207,142.063,301.896,131.4,301.896z"/>
				</g>
				<g>
					<path style="fill:#3B8D7B;" d="M134.076,295.672c-1.072,0-2.185-0.127-3.312-0.433l0.262-0.965
						c6.281,1.698,12.311-2.704,12.371-2.748l0.597,0.803C143.775,292.491,139.427,295.672,134.076,295.672z"/>
				</g>
			</g>
		</g>
		<g>
			<path style="fill:#3B8D7B;" d="M394.332,330.797h-39.018c0,0,6.243-1.929,10.665-2.145c0,0-1.039-30.653,1.82-42.872
				c2.861-12.219,7.545-27.653,15.607-35.586c0,0-3.121-0.43-13.526,3.43c-10.405,3.858-18.209,7.932-18.209,7.932
				s-1.561-11.146,10.925-16.077s18.989-1.715,18.989-1.715s-9.884-7.074-28.612-4.502c0,0,14.359-16.293,36.052-3.001
				c0,0,14.931-12.007,33.658,3.215c0,0-8.323-4.288-21.589,2.572c0,0,22.109,0.857,25.23,19.937c0,0-12.484-13.936-27.571-13.506
				c0,0,16.905,10.72,4.16,27.44c0,0-3.443-18.864-13.946-24.01c0,0-9.983,11.574-12.325,31.94
				c-2.341,20.365,1.821,43.73,1.821,43.73S389.13,329.081,394.332,330.797z"/>
			<circle style="fill:#3B8D7B;" cx="387.976" cy="254.762" r="4.568"/>
			<circle style="fill:#3B8D7B;" cx="388.968" cy="321.721" r="4.568"/>
			<circle style="fill:#3B8D7B;" cx="384.365" cy="259.359" r="3.433"/>
			<circle style="fill:#3B8D7B;" cx="380.932" cy="251.331" r="3.433"/>
		</g>
		<g>
			<path style="fill:#3B8D7B;" d="M365.713,282.454c0,0-27.133,6.714-82.796,0l41.398-25.956L365.713,282.454z"/>
			<g>
				<rect x="299.763" y="326.066" style="fill:#3B8D7B;" width="3.273" height="14.186"/>
				<rect x="345.595" y="326.066" style="fill:#3B8D7B;" width="3.273" height="14.186"/>
			</g>
			<path style="fill:#3B8D7B;" d="M332.924,327.839c0,0.979-0.794,1.773-1.773,1.773h-14.868c-0.979,0-1.772-0.794-1.772-1.773l0,0
				c0-0.979,0.794-1.772,1.772-1.772h14.868C332.13,326.066,332.924,326.859,332.924,327.839L332.924,327.839z"/>
			<path style="fill:#3B8D7B;" d="M334.698,332.34c0,0.979-0.946,1.772-2.114,1.772h-17.732c-1.168,0-2.114-0.793-2.114-1.772l0,0
				c0-0.979,0.946-1.773,2.114-1.773h17.732C333.751,330.568,334.698,331.361,334.698,332.34L334.698,332.34z"/>
			<path style="fill:#3B8D7B;" d="M337.153,337.25c0,1.205-1.158,2.183-2.587,2.183h-21.697c-1.429,0-2.587-0.978-2.587-2.183l0,0
				c0-1.205,1.158-2.183,2.587-2.183h21.697C335.995,335.068,337.153,336.046,337.153,337.25L337.153,337.25z"/>
			<path style="fill:#3B8D7B;" d="M294.107,286.232v33.282c0,3.014,2.442,5.456,5.456,5.456h14.659v-25.912
				c0-0.604,0.488-1.092,1.091-1.092h18.006c0.603,0,1.091,0.488,1.091,1.092v25.912h14.659c3.014,0,5.456-2.442,5.456-5.456
				v-33.282H294.107z"/>
		</g>
	</g>
	<polygon style="opacity:0.19;fill:#E2E5E7;enable-background:new    ;" points="53.07,373.298 391.834,373.397 77.501,131.33 
		53.14,131.322 	"/>
	<g style="opacity:0.82;">
		<path style="fill:#E2E5E7;" d="M286.232,221.542c-6.631,0-7.367-4.917-9.209-8.32c-1.841-3.402-1.843-7.563-9.945-7.563
			s-20.392,0-20.392,0s-12.29,0-20.393,0c-8.104,0-8.105,4.161-9.945,7.563c-1.842,3.403-2.578,8.32-9.208,8.32
			c-6.631,0-21.365-2.271-21.365,12.48c0,14.75,0,39.711,0,47.274s2.21,17.775,13.259,17.775c11.052,0,47.652,0,47.652,0
			s36.6,0,47.65,0s13.26-10.212,13.26-17.775s0-32.524,0-47.274C307.596,219.271,292.864,221.542,286.232,221.542z M246.684,286.969
			c-16.082,0-29.119-13.037-29.119-29.121c0-16.081,13.037-29.119,29.119-29.119c16.084,0,29.121,13.038,29.121,29.119
			C275.805,273.931,262.768,286.969,246.684,286.969z"/>
		<circle style="fill:#E2E5E7;" cx="246.684" cy="257.848" r="20.009"/>
	</g>
	<g style="opacity:0.82;">
		<g>
			<path style="fill:#E2E5E7;" d="M122.508,162.154c-7.18,0-13,5.82-13,13v30.504h11.908v-23.613
				c0-5.558,4.506-10.063,10.063-10.063h30.745v-9.827L122.508,162.154C122.508,162.155,122.508,162.154,122.508,162.154z"/>
			<path style="fill:#E2E5E7;" d="M370.864,162.154c7.18,0,13,5.82,13,13v30.504h-11.908v-23.613
				c0-5.558-4.506-10.063-10.063-10.063h-30.745v-9.827L370.864,162.154L370.864,162.154L370.864,162.154z"/>
		</g>
		<g>
			<path style="fill:#E2E5E7;" d="M122.508,339.38c-7.18,0-13-5.82-13-13v-30.504h11.908v23.613c0,5.558,4.506,10.063,10.063,10.063
				h30.745v9.827h-39.716C122.508,339.379,122.508,339.38,122.508,339.38z"/>
			<path style="fill:#E2E5E7;" d="M370.864,339.38c7.18,0,13-5.82,13-13v-30.504h-11.908v23.613c0,5.558-4.506,10.063-10.063,10.063
				h-30.745v9.827h39.716L370.864,339.38L370.864,339.38z"/>
		</g>
	</g>
</g>
<g>
</g>
<g>
</g>
<g>
</g>
<g>
</g>
<g>
</g>
<g>
</g>
<g>
</g>
<g>
</g>
<g>
</g>
<g>
</g>
<g>
</g>
<g>
</g>
<g>
</g>
<g>
</g>
<g>
</g>
</svg>
