<svg height="512pt" viewBox="0 0 512 512" width="512pt" xmlns="http://www.w3.org/2000/svg"><path d="m9.746094 128h492v384h-492zm0 0" fill="#ffefe4"/><path d="m9.746094 498h492v14h-492zm0 0" fill="#edd4c2"/><path d="m36.570312 200c-20.195312 0-36.570312-16.375-36.570312-36.570312v-35.429688h73.140625v35.429688c0 20.195312-16.371094 36.570312-36.570313 36.570312zm0 0" fill="#e0734a"/><path d="m109.714844 200c-20.199219 0-36.574219-16.375-36.574219-36.570312v-35.429688h73.144531v35.429688c0 20.195312-16.375 36.570312-36.570312 36.570312zm0 0" fill="#edd4c2"/><path d="m182.859375 200c-20.199219 0-36.574219-16.375-36.574219-36.570312v-35.429688h73.144532v35.429688c0 20.195312-16.375 36.570312-36.570313 36.570312zm0 0" fill="#e0734a"/><path d="m256 200c-20.199219 0-36.570312-16.375-36.570312-36.570312v-35.429688h73.140624v35.429688c0 20.195312-16.371093 36.570312-36.570312 36.570312zm0 0" fill="#edd4c2"/><path d="m329.144531 200c-20.199219 0-36.574219-16.375-36.574219-36.570312v-35.429688h73.144532v35.429688c0 20.195312-16.375 36.570312-36.570313 36.570312zm0 0" fill="#e0734a"/><path d="m402.285156 200c-20.195312 0-36.570312-16.375-36.570312-36.570312v-35.429688h73.140625v35.429688c.003906 20.195312-16.371094 36.570312-36.570313 36.570312zm0 0" fill="#edd4c2"/><path d="m475.429688 200c-20.199219 0-36.574219-16.375-36.574219-36.570312v-35.429688h73.140625v35.429688c.003906 20.195312-16.371094 36.570312-36.566406 36.570312zm0 0" fill="#e0734a"/><path d="m141.140625 0h-51.542969c-4.734375 0-9.140625 2.410156-11.695312 6.394531l-77.902344 121.605469h73.140625zm0 0" fill="#ff8354"/><path d="m194.285156 0h-53.144531l-68 128h73.144531zm0 0" fill="#ffefe4"/><path d="m235.429688 0h-41.144532l-48 128h73.144532zm0 0" fill="#ff8354"/><path d="m370.859375 0h51.546875c4.730469 0 9.140625 2.410156 11.691406 6.394531l77.902344 121.605469h-73.140625zm0 0" fill="#ff8354"/><path d="m317.714844 0h53.144531l68 128h-73.144531zm0 0" fill="#ffefe4"/><path d="m276.285156 0h41.429688l48 128h-73.144532zm0 0" fill="#ff8354"/><path d="m276.285156 0h-40.855468l-15.429688 124.34375v3.65625h72v-3.65625zm0 0" fill="#ffefe4"/><path d="m129.140625 393.648438c-1.820313 0-3.652344-.617188-5.15625-1.882813-3.375-2.851563-3.800781-7.898437-.953125-11.277344l126.601562-150c1.519532-1.796875 3.757813-2.839843 6.113282-2.839843 2.359375 0 4.597656 1.042968 6.117187 2.839843l126.601563 150c2.851562 3.378907 2.425781 8.425781-.953125 11.277344-3.378907 2.847656-8.425781 2.421875-11.273438-.957031l-120.492187-142.753906-120.488282 142.753906c-1.582031 1.875-3.84375 2.839844-6.117187 2.839844zm0 0" fill="#5861c7"/><path d="m448.578125 470.15625h-385.15625c-11.691406 0-21.167969-9.476562-21.167969-21.167969v-116.832031c0-11.691406 9.476563-21.167969 21.167969-21.167969h385.15625c11.695313 0 21.167969 9.476563 21.167969 21.167969v116.832031c0 11.695313-9.476563 21.167969-21.167969 21.167969zm0 0" fill="#d476e2"/><path d="m70.890625 450.160156c-4.769531 0-8.636719-3.867187-8.636719-8.636718v-101.898438c0-4.769531 3.867188-8.640625 8.636719-8.640625h370.21875c4.769531 0 8.636719 3.867187 8.636719 8.636719v101.898437c0 4.769531-3.867188 8.636719-8.636719 8.636719h-370.21875zm0 0" fill="#b665c2"/><path d="m255.746094 261.542969c-12.449219 0-22.636719-10.183594-22.636719-22.636719 0-12.449219 10.1875-22.636719 22.636719-22.636719 12.453125 0 22.640625 10.183594 22.640625 22.636719s-10.1875 22.636719-22.640625 22.636719zm0 0" fill="#b665c2"/><path d="m438.96875 14-4.871094-7.605469c-2.554687-3.984375-6.960937-6.394531-11.695312-6.394531h-51.546875l7.4375 14zm0 0" fill="#ffac8c"/><path d="m378.292969 14-7.433594-14h-53.144531l5.25 14zm0 0" fill="#fff7f2"/><path d="m322.964844 14-5.25-14h-41.429688l1.78125 14zm0 0" fill="#ffac8c"/><path d="m278.054688 14-1.769532-14h-40.855468l-1.738282 14zm0 0" fill="#fff7f2"/><path d="m233.679688 14 1.75-14h-41.144532l-5.25 14zm0 0" fill="#ffac8c"/><path d="m189.035156 14 5.25-14h-53.140625l-7.4375 14zm0 0" fill="#fff7f2"/><path d="m77.902344 6.394531-4.871094 7.605469h60.675781l7.4375-14h-51.546875c-4.734375 0-9.140625 2.410156-11.695312 6.394531zm0 0" fill="#ffac8c"/><g fill="#ffefe4"><path d="m134.496094 409.003906c2.710937 2.570313 2.46875 6.910156-.4375 9.257813-2.066406 1.664062-4.304688 3.058593-6.710938 4.179687-4.492187 2.089844-9.511718 3.132813-15.0625 3.132813-4.996094 0-9.628906-.902344-13.898437-2.710938-4.273438-1.808593-7.976563-4.277343-11.089844-7.394531-3.121094-3.117188-5.582031-6.816406-7.394531-11.089844-1.808594-4.269531-2.710938-8.875-2.710938-13.804687 0-4.925781.898438-9.53125 2.710938-13.800781 1.816406-4.273438 4.273437-7.972657 7.394531-11.089844 3.113281-3.117188 6.816406-5.585938 11.089844-7.394532 4.269531-1.808593 8.902343-2.714843 13.898437-2.714843 5.359375 0 10.089844.9375 14.171875 2.808593 2 .914063 3.890625 2.03125 5.671875 3.347657 3.023438 2.238281 3.285156 6.675781.585938 9.292969l-.089844.089843c-2.214844 2.140625-5.601562 2.207031-8.070312.371094-.941407-.695313-1.929688-1.320313-2.964844-1.871094-2.589844-1.371093-5.65625-2.058593-9.214844-2.058593-3.121094 0-6.054688.546874-8.796875 1.636718-2.75 1.09375-5.132813 2.636719-7.15625 4.632813-2.027344 1.996093-3.632813 4.414062-4.820313 7.25-1.191406 2.839843-1.777343 6.007812-1.777343 9.5 0 3.496093.585937 6.660156 1.777343 9.496093 1.1875 2.839844 2.792969 5.257813 4.820313 7.253907 2.023437 1.996093 4.40625 3.542969 7.15625 4.632812 2.742187 1.089844 5.675781 1.636719 8.796875 1.636719 3.738281 0 7.066406-.761719 9.96875-2.292969 1.445312-.757812 2.804688-1.679687 4.085938-2.757812 2.316406-1.949219 5.773437-1.710938 7.96875.371093zm0 0"/><path d="m154.175781 357.070312h.652344c3.308594 0 5.988281 2.683594 5.988281 5.992188v49.035156h22.367188c3.304687 0 5.988281 2.679688 5.988281 5.988282 0 3.308593-2.683594 5.988281-5.988281 5.988281h-28.503906c-3.585938 0-6.496094-2.90625-6.496094-6.496094v-54.515625c0-3.308594 2.679687-5.992188 5.992187-5.992188zm0 0"/><path d="m229.648438 425.570312c-4.988282 0-9.617188-.898437-13.890626-2.710937-4.28125-1.808594-7.976562-4.292969-11.097656-7.4375-3.113281-3.152344-5.566406-6.863281-7.34375-11.140625-1.78125-4.269531-2.664062-8.839844-2.664062-13.707031 0-4.867188.882812-9.4375 2.664062-13.710938 1.777344-4.273437 4.226563-7.988281 7.34375-11.136719 3.121094-3.148437 6.816406-5.628906 11.097656-7.4375 4.269532-1.808593 8.898438-2.71875 13.890626-2.71875 4.996093 0 9.625.90625 13.898437 2.71875 4.269531 1.808594 7.972656 4.289063 11.085937 7.4375 3.125 3.152344 5.570313 6.863282 7.351563 11.136719 1.773437 4.273438 2.664063 8.84375 2.664063 13.710938 0 4.867187-.890626 9.4375-2.664063 13.707031-1.78125 4.277344-4.226563 7.988281-7.351563 11.140625-3.113281 3.148437-6.816406 5.628906-11.085937 7.4375-4.273437 1.8125-8.902344 2.710937-13.898437 2.710937zm0-11.976562c3.121093 0 6.039062-.558594 8.75-1.683594 2.71875-1.125 5.085937-2.679687 7.113281-4.679687 2.027343-1.996094 3.617187-4.414063 4.777343-7.25 1.148438-2.839844 1.726563-5.972657 1.726563-9.40625 0-3.429688-.578125-6.5625-1.726563-9.40625-1.160156-2.835938-2.75-5.253907-4.777343-7.253907-2.027344-1.996093-4.394531-3.554687-7.113281-4.679687-2.710938-1.121094-5.628907-1.683594-8.75-1.683594-3.113282 0-6.03125.5625-8.75 1.683594-2.710938 1.125-5.082032 2.683594-7.105469 4.679687-2.035157 2-3.628907 4.417969-4.777344 7.253907-1.15625 2.839843-1.726563 5.972656-1.726563 9.40625 0 3.429687.570313 6.5625 1.726563 9.40625 1.148437 2.835937 2.742187 5.253906 4.777344 7.25 2.023437 2 4.394531 3.554687 7.105469 4.679687 2.71875 1.125 5.636718 1.683594 8.75 1.683594zm0 0"/><path d="m292.550781 425.570312c-2.871093 0-5.609375-.40625-8.238281-1.210937-2.621094-.8125-5.019531-2.027344-7.203125-3.652344-2.1875-1.621093-4.082031-3.601562-5.707031-5.941406-.351563-.507813-.6875-1.035156-1.007813-1.582031-1.945312-3.3125-.324219-7.59375 3.25-9 2.882813-1.136719 6.226563-.066406 7.765625 2.621094.734375 1.285156 1.609375 2.4375 2.628906 3.46875 2.175782 2.214843 5.050782 3.320312 8.605469 3.320312 1.308594 0 2.574219-.167969 3.792969-.515625 1.214844-.34375 2.304688-.84375 3.273438-1.496094.96875-.652343 1.726562-1.480469 2.292968-2.476562.5625-1 .835938-2.152344.835938-3.464844 0-1.246094-.214844-2.371094-.652344-3.367187-.433594-1-1.167969-1.933594-2.195312-2.808594-1.027344-.875-2.375-1.71875-4.027344-2.527344-1.652344-.8125-3.695313-1.652344-6.128906-2.527344l-4.113282-1.496094c-1.8125-.621093-3.640625-1.464843-5.476562-2.523437-1.84375-1.0625-3.511719-2.34375-5.003906-3.839844-1.5-1.496093-2.734376-3.257812-3.703126-5.289062-.96875-2.027344-1.445312-4.316407-1.445312-6.878907 0-2.617187.511719-5.066406 1.539062-7.34375 1.035157-2.277343 2.496094-4.273437 4.402344-5.992187 1.902344-1.710937 4.179688-3.054687 6.832032-4.023437 2.648437-.96875 5.597656-1.449219 8.839843-1.449219 3.375 0 6.28125.453125 8.75 1.359375 2.46875.902344 4.554688 2.054687 6.269531 3.460937.613282.5 1.472657 1.359375 2.378907 2.421875 2.703125 3.179688 1.492187 8.089844-2.355469 9.707032-2.429688 1.019531-5.246094.398437-7-1.566407-2.625-2.941406-5.683594-3.777343-7.851562-3.777343-2.75 0-5.027344.640624-6.832032 1.921874-1.8125 1.277344-2.71875 2.945313-2.71875 5.003907 0 2 .875 3.695312 2.621094 5.101562 1.75 1.402344 4.523438 2.757813 8.332031 4.070313l4.210938 1.40625c2.679687.929687 5.132812 2.007812 7.351562 3.222656 2.207031 1.21875 4.109375 2.671875 5.703125 4.355469 1.589844 1.683593 2.808594 3.601562 3.648438 5.757812.84375 2.152344 1.261718 4.628907 1.261718 7.433594 0 3.496094-.699218 6.503906-2.101562 9.03125-1.402344 2.53125-3.195312 4.601563-5.382812 6.222656-2.1875 1.628907-4.644532 2.839844-7.386719 3.652344-2.75.804687-5.433594 1.210937-8.054688 1.210937zm0 0"/><path d="m337.25 369.046875v15.539063h20.867188c3.308593 0 5.988281 2.679687 5.988281 5.984374v.003907c0 3.308593-2.679688 5.988281-5.988281 5.988281h-20.867188v15.535156h23.859375c3.304687 0 5.988281 2.679688 5.988281 5.988282v.003906c0 3.304687-2.683594 5.984375-5.988281 5.984375h-29.996094c-3.589843 0-6.496093-2.90625-6.496093-6.496094v-54.007813c0-3.589843 2.90625-6.496093 6.496093-6.496093h29.996094c3.304687 0 5.988281 2.679687 5.988281 5.988281s-2.683594 5.988281-5.988281 5.988281h-23.859375zm0 0"/><path d="m377.226562 363.570312c0-3.589843 2.90625-6.496093 6.496094-6.496093h16.144532c5.308593 0 10.074218.8125 14.316406 2.433593 4.242187 1.621094 7.867187 3.914063 10.859375 6.878907 2.992187 2.964843 5.285156 6.503906 6.878906 10.621093 1.59375 4.117188 2.382813 8.640626 2.382813 13.570313 0 4.992187-.789063 9.546875-2.382813 13.660156-1.59375 4.117188-3.882813 7.644531-6.878906 10.574219-2.992188 2.933594-6.617188 5.210938-10.859375 6.832031-4.242188 1.625-9.007813 2.433594-14.316406 2.433594h-16.144532c-3.589844 0-6.496094-2.90625-6.496094-6.492187zm22.085938 48.527344c3.675781 0 6.921875-.515625 9.730469-1.542968 2.804687-1.03125 5.140625-2.480469 7.015625-4.351563 1.875-1.875 3.273437-4.132813 4.210937-6.789063.9375-2.648437 1.410157-5.597656 1.410157-8.839843 0-3.246094-.472657-6.191407-1.410157-8.847657-.933593-2.648437-2.335937-4.910156-4.210937-6.78125-1.875-1.875-4.210938-3.324218-7.015625-4.351562-2.808594-1.03125-6.054688-1.546875-9.730469-1.546875h-9.453125v43.050781zm0 0"/></g></svg>