<svg height="512pt" viewBox="0 0 512.026 512" width="512pt" xmlns="http://www.w3.org/2000/svg"><path d="m497.792969 395.160156h-483.535157c-7.859374 0-14.2304682-6.371094-14.2304682-14.230468v-366.683594c0-7.859375 6.3710942-14.2343752 14.2304682-14.2343752h483.535157c7.859375 0 14.230469 6.3750002 14.230469 14.2343752v366.683594c.003906 7.859374-6.371094 14.230468-14.230469 14.230468zm0 0" fill="#6770e6"/><path d="m497.792969.0117188h-483.535157c-7.859374 0-14.2304682 6.3750002-14.2304682 14.2343752v14c0-7.859375 6.3710942-14.234375 14.2304682-14.234375h483.535157c7.859375 0 14.234375 6.375 14.234375 14.234375v-14c0-7.859375-6.375-14.2343752-14.234375-14.2343752zm0 0" fill="#8f95e6"/><path d="m30.027344 350.929688v-301.726563c0-10.597656 8.589844-19.191406 19.191406-19.191406h413.617188c10.597656 0 19.191406 8.59375 19.191406 19.191406v301.726563c0 7.859374-6.375 14.230468-14.234375 14.230468h-423.535157c-7.859374 0-14.230468-6.371094-14.230468-14.230468zm0 0" fill="#69ebfc"/><path d="m196.300781 395.160156h121.898438v76.871094h-121.898438zm0 0" fill="#5861c7"/><path d="m375.835938 512.011719h-236.601563c-11.039063 0-19.992187-8.949219-19.992187-19.988281 0-11.039063 8.953124-19.992188 19.992187-19.992188h236.601563c11.039062 0 19.988281 8.953125 19.988281 19.992188 0 11.039062-8.949219 19.988281-19.988281 19.988281zm0 0" fill="#6770e6"/><path d="m375.835938 498.011719h-236.601563c-8.574219 0-15.867187-5.40625-18.707031-12.988281-.816406 2.179687-1.285156 4.535156-1.285156 7 0 11.039062 8.949218 19.988281 19.988281 19.988281h236.605469c11.039062 0 19.988281-8.949219 19.988281-19.988281 0-2.464844-.46875-4.820313-1.285157-7-2.835937 7.582031-10.128906 12.988281-18.703124 12.988281zm0 0" fill="#5861c7"/><path d="m49.066406 30.011719h71.359375l-20 70.878906h-100.425781l22.597656-53.339844c4.503906-10.632812 14.929688-17.539062 26.46875-17.539062zm0 0" fill="#ff8354"/><path d="m120.425781 30.011719h90.398438l-10 70.878906h-100.398438zm0 0" fill="#fff7f2"/><path d="m210.824219 30.011719h90.402343l10 70.878906h-110.402343zm0 0" fill="#ff8354"/><path d="m301.226562 30.011719h90.398438l20 70.878906h-100.398438zm0 0" fill="#fff7f2"/><path d="m391.625 30.011719h71.34375c11.550781 0 21.980469 6.914062 26.480469 17.550781l22.550781 53.328125h-100.375zm0 0" fill="#ff8354"/><path d="m50.238281 164.589844h-.050781c-27.71875 0-50.1875-22.46875-50.1875-50.1875v-13.511719h100.425781v13.511719c0 27.71875-22.46875 50.1875-50.1875 50.1875zm0 0" fill="#e0734a"/><path d="m150.664062 164.589844h-.050781c-27.71875 0-50.1875-22.472656-50.1875-50.1875v-13.511719h100.425781v13.511719c0 27.71875-22.46875 50.1875-50.1875 50.1875zm0 0" fill="#ffefe4"/><path d="m361.464844 164.589844h-.054688c-27.714844 0-50.183594-22.472656-50.183594-50.1875v-13.511719h100.425782v13.511719c0 27.71875-22.46875 50.1875-50.1875 50.1875zm0 0" fill="#ffefe4"/><path d="m461.839844 164.589844c-27.71875 0-50.1875-22.472656-50.1875-50.1875v-13.511719h100.375v13.511719c0 27.71875-22.472656 50.1875-50.1875 50.1875zm0 0" fill="#e0734a"/><path d="m261.039062 164.589844h-10c-27.71875 0-50.183593-22.472656-50.183593-50.1875v-13.511719h110.371093v13.511719c0 27.71875-22.46875 50.1875-50.1875 50.1875zm0 0" fill="#e0734a"/><path d="m295.320312 346.675781c-2.945312 0-5.855468-.796875-8.410156-2.308593-5.023437-2.972657-8.140625-8.429688-8.140625-14.246094 0-.460938.023438-.917969.066407-1.371094.207031-2.59375 1.019531-5.035156 2.308593-7.171875h-47.226562l-.699219 1.039063c.808594 1.597656 1.359375 3.320312 1.621094 5.09375.050781.359374.097656.71875.125 1.085937.039062.398437.0625.847656.066406 1.304687 0 2.519532-.558594 4.945313-1.660156 7.21875-.5 1.03125-1.105469 2.007813-1.800782 2.90625-.429687.558594-.886718 1.097657-1.382812 1.597657-1.136719 1.136719-2.421875 2.09375-3.820312 2.851562-.945313.515625-1.945313.9375-2.972657 1.257813-1.585937.492187-3.242187.742187-4.917969.742187-2.949218 0-5.859374-.796875-8.414062-2.308593-5.019531-2.96875-8.140625-8.429688-8.140625-14.246094 0-.460938.027344-.917969.066406-1.367188.332031-4.183594 2.277344-8.007812 5.261719-10.773437-1.476562-.9375-2.703125-2.058594-3.664062-3.367188-2.511719-3.394531-3.117188-7.792969-1.703126-12.386719 1.421876-4.617187 4.289063-8.730468 8.558594-12.300781-2.320312-1.753906-4.15625-4.144531-5.207031-6.933593l-28-74.128907c-.480469-1.28125-1.421875-2.324219-2.644531-2.933593l-1.902344-.953126c-.707031.160157-1.425781.238282-2.15625.238282h-15.238281c-4.320313 0-8.113281-2.761719-9.445313-6.871094-.144531-.441406-.257812-.910156-.335937-1.382812l-.042969-.28125c-.066406-.433594-.105469-.910157-.105469-1.398438 0-1.652344.414063-3.292969 1.199219-4.738281.148438-.273438.316406-.546875.496094-.8125 1.855468-2.746094 4.933594-4.382813 8.238281-4.382813h15.234375c3.304688 0 6.382812 1.636719 8.234375 4.378906.183594.269532.347656.542969.5.824219.113281.203125.214844.417969.3125.636719l1.902344.953125c4.632812 2.316406 8.21875 6.257813 10.097656 11.09375l.09375.21875 4.570313 12.097656h135.949218c1.644532 0 3.128906.40625 4.429688 1.175781.390625.234376.710937.460938 1.007812.699219l.078125.054688.390625.34375.167969.179687c.035156.023438.191406.1875.34375.359375l.300781.34375c.164063.203125.273438.359375.375.515625.066406.089844.152344.210938.230469.339844.144531.226562.320313.542969.46875.867188l.125.292968c.074219.164063.167969.414063.25.664063l.09375.320312c.074219.265625.125.476563.167969.695313.023437.117187.042968.257812.066406.40625.03125.203125.050781.417968.066406.632812l.019532.417969c0 .234375-.007813.472656-.023438.710937l-.019531.289063c-.042969.394531-.097657.734375-.179688 1.074219l-13.125 55.144531c-1.691406 7.097656-7.96875 12.058594-15.269531 12.058594h-71.0625c-8.488281 1.546875-20.789062 6.265625-23.96875 12.410156 1.328125.292969 3.6875.613281 7.714844.613281h89.996094c4.25 0 7.707031 3.457032 7.707031 7.707032s-3.457031 7.707031-7.707031 7.707031h-3.71875l-.898438 1.335937c.734375 1.511719 1.234375 3.136719 1.476562 4.800782.050782.355468.097657.714843.125 1.082031.027344.289062.046876.605469.058594.929687l.003906.394532c0 2.5-.558593 4.917968-1.660156 7.199218-.5 1.035156-1.105468 2.011719-1.796875 2.910156-.476562.613282-.933593 1.136719-1.390625 1.597657-1.132812 1.128906-2.414062 2.089843-3.816406 2.847656-.945312.515625-1.945312.9375-2.972656 1.257813-1.589844.496093-3.246094.746093-4.925782.746093zm16.828126-68.949219c.140624 0 .242187-.082031.273437-.214843l3.890625-16.347657h-20.925781l-1.996094 16.5625zm-34.28125 0 1.992187-16.5625h-25.273437l2.328124 16.5625zm-58.214844-.179687c.039062.097656.15625.179687.257812.179687h21.4375l-2.332031-16.5625h-25.550781zm100.328125-31.796875 3.519531-14.78125h-24.476562l-1.78125 14.78125zm-38.265625 0 1.777344-14.78125h-33.15625l2.078124 14.78125zm-44.867188 0-2.078125-14.78125h-32.710937l5.582031 14.78125zm0 0" fill="#6770e6"/><path d="m392.453125 211.875c0 22.394531-18.15625 40.546875-40.550781 40.546875-22.390625 0-40.546875-18.152344-40.546875-40.546875s18.15625-40.546875 40.546875-40.546875c22.394531 0 40.550781 18.152344 40.550781 40.546875zm0 0" fill="#d476e2"/><path d="m369.054688 204.597656h-9.875v-9.875c0-4.019531-3.257813-7.277344-7.277344-7.277344-4.019532 0-7.277344 3.257813-7.277344 7.277344v9.875h-9.871094c-4.023437 0-7.28125 3.257813-7.28125 7.277344s3.257813 7.277344 7.28125 7.277344h9.871094v9.875c0 4.019531 3.257812 7.277344 7.277344 7.277344 4.019531 0 7.277344-3.257813 7.277344-7.277344v-9.875h9.875c4.019531 0 7.277343-3.257813 7.277343-7.277344s-3.257812-7.277344-7.277343-7.277344zm0 0" fill="#fff7f2"/></svg>