<svg height="512pt" viewBox="0 0 512 512" width="512pt" xmlns="http://www.w3.org/2000/svg"><path d="m451.707031 0h-308.230469c-33.296874 0-60.292968 26.992188-60.292968 60.292969v176.851562c0 33.296875 26.996094 60.292969 60.292968 60.292969h180.671876v63.5625c0 10.03125 12.125 15.050781 19.21875 7.960938l71.523437-71.527344h36.816406c33.300781 0 60.292969-26.992188 60.292969-60.292969v-176.847656c0-33.300781-26.992188-60.292969-60.292969-60.292969zm0 0" fill="#69ebfc"/><path d="m451.707031 0h-308.230469c-33.296874 0-60.292968 26.992188-60.292968 60.292969v14c0-33.300781 26.996094-60.292969 60.292968-60.292969h308.230469c33.300781 0 60.292969 26.992188 60.292969 60.292969v-14c0-33.300781-26.992188-60.292969-60.292969-60.292969zm0 0" fill="#a1f1fc"/><path d="m116.128906 420.578125 133.425782 49.417969v-207.550782l-133.425782 49.417969zm0 0" fill="#6770e6"/><path d="m90.1875 512c14.328125 0 25.941406-11.617188 25.941406-25.945312v-65.476563h-51.886718v65.476563c0 14.328124 11.613281 25.945312 25.945312 25.945312zm0 0" fill="#b665c2"/><path d="m90.1875 498c-14.328125 0-25.945312-11.617188-25.945312-25.945312v14c0 14.328124 11.617187 25.945312 25.945312 25.945312s25.941406-11.617188 25.941406-25.945312v-14c0 14.328124-11.613281 25.945312-25.941406 25.945312zm0 0" fill="#a059ab"/><path d="m54.359375 420.578125h61.769531v-108.714844h-61.769531c-30.023437 0-54.359375 24.335938-54.359375 54.359375 0 30.019532 24.335938 54.355469 54.359375 54.355469zm0 0" fill="#d476e2"/><path d="m116.128906 311.863281v16l133.425782-49.417969v-16zm0 0" fill="#8f95e6"/><path d="m54.359375 311.863281c-30.023437 0-54.359375 24.335938-54.359375 54.359375 0 2.71875.207031 5.386719.589844 8 3.871094-26.230468 26.464844-46.359375 53.769531-46.359375h61.769531v-16zm0 0" fill="#ea82fa"/><path d="m259.015625 396.292969h-9.460937v-60.140625h9.460937c16.609375 0 30.070313 13.460937 30.070313 30.070312 0 16.605469-13.460938 30.070313-30.070313 30.070313zm0 0" fill="#d476e2"/><path d="m196.972656 108.722656c0-6.042968 1.164063-11.742187 3.496094-17.09375 2.328125-5.351562 5.523438-10.058594 9.582031-14.117187 4.058594-4.054688 8.847657-7.25 14.375-9.582031 5.523438-2.332032 11.566407-3.496094 18.128907-3.496094s12.648437 1.164062 18.257812 3.496094c5.613281 2.332031 10.449219 5.527343 14.503906 9.582031 4.058594 4.058593 7.253906 8.765625 9.585938 14.117187 2.328125 5.351563 3.496094 11.050782 3.496094 17.09375 0 6.046875-1.164063 11.785156-3.496094 17.222656-2.332032 5.4375-5.527344 10.148438-9.585938 14.113282-4.058594 3.976562-8.890625 7.125-14.503906 9.457031-5.609375 2.328125-11.695312 3.496094-18.257812 3.496094s-12.605469-1.164063-18.128907-3.496094c-5.527343-2.332031-10.320312-5.480469-14.375-9.457031-4.058593-3.96875-7.25-8.675782-9.582031-14.113282s-3.496094-11.175781-3.496094-17.222656zm27.710938 0c0 5.699219 1.722656 10.273438 5.183594 13.726563 3.449218 3.453125 7.679687 5.179687 12.6875 5.179687 5.007812 0 9.238281-1.726562 12.691406-5.179687s5.179687-8.027344 5.179687-13.726563c0-5.699218-1.726562-10.273437-5.179687-13.726562s-7.683594-5.183594-12.691406-5.183594c-5.011719 0-9.238282 1.730469-12.6875 5.183594-3.460938 3.457031-5.183594 8.027344-5.183594 13.726562zm12.03125 117.199219 101.28125-151.242187c3.789062-5.65625 11.449218-7.167969 17.101562-3.378907 5.644532 3.789063 7.15625 11.4375 3.371094 17.085938l-101.28125 151.242187c-3.789062 5.65625-11.449219 7.167969-17.101562 3.378906-5.644532-3.789062-7.15625-11.4375-3.371094-17.085937zm70.070312-20.335937c0-6.042969 1.164063-11.738282 3.5-17.09375 2.328125-5.351563 5.523438-10.054688 9.582032-14.113282 4.054687-4.058594 8.847656-7.253906 14.371093-9.585937 5.527344-2.328125 11.566407-3.496094 18.132813-3.496094 6.558594 0 12.644531 1.164063 18.257812 3.496094 5.609375 2.332031 10.445313 5.527343 14.503906 9.585937 4.054688 4.058594 7.25 8.761719 9.582032 14.113282 2.332031 5.355468 3.5 11.050781 3.5 17.09375 0 6.046874-1.167969 11.785156-3.5 17.222656-2.328125 5.441406-5.527344 10.148437-9.582032 14.117187-4.0625 3.972657-8.894531 7.121094-14.503906 9.453125-5.613281 2.328125-11.699218 3.496094-18.257812 3.496094-6.566406 0-12.605469-1.164062-18.132813-3.496094-5.527343-2.332031-10.316406-5.480468-14.371093-9.453125-4.058594-3.972656-7.25-8.679687-9.582032-14.117187-2.335937-5.4375-3.5-11.175782-3.5-17.222656zm27.710938 0c0 5.699218 1.726562 10.277343 5.183594 13.726562 3.449218 3.457031 7.679687 5.179688 12.6875 5.179688 5.007812 0 9.238281-1.722657 12.691406-5.179688 3.453125-3.453125 5.179687-8.027344 5.179687-13.726562 0-5.699219-1.726562-10.269532-5.179687-13.726563-3.453125-3.453125-7.683594-5.179687-12.691406-5.179687-5.007813 0-9.238282 1.726562-12.6875 5.179687-3.457032 3.457031-5.183594 8.027344-5.183594 13.726563zm0 0" fill="#ffefe4"/></svg>