<?xml version="1.0" encoding="iso-8859-1"?>
<!-- Generator: Adobe Illustrator 19.0.0, SVG Export Plug-In . SVG Version: 6.00 Build 0)  -->
<svg version="1.1" id="Layer_1" xmlns="http://www.w3.org/2000/svg" xmlns:xlink="http://www.w3.org/1999/xlink" x="0px" y="0px"
	 viewBox="0 0 512 512" style="enable-background:new 0 0 512 512;" xml:space="preserve">
<g>
	<polygon style="fill:#D1D5D5;" points="474.846,112.068 373.04,76.399 265.29,108.353 163.484,76.399 68.367,94.977 0,427.889 
		127.815,380.329 251.914,427.889 387.159,380.329 512,427.889 	"/>
	<polygon style="fill:#48B19B;" points="127.87,369.129 14.071,411.471 77.227,103.923 162.883,87.195 265.203,119.309 
		372.772,87.41 465.203,119.794 499.573,411.939 387.303,369.17 252.069,416.725 	"/>
	<g>
		<path style="fill:#2D404E;" d="M313.467,323.79c-5.59-32.422-33.539-24.596-51.427-7.826
			c-23.478,23.477-76.021,17.887-77.14,30.184c-1.117,12.299,44.719,31.305,57.016,35.775c8.944,3.354,24.596,13.416,33.54,12.299
			C294.461,390.867,316.821,340.561,313.467,323.79z"/>
	</g>
	<g>
		<path style="fill:#253744;" d="M272.537,375.264c-3.491-1.1-9.396-3.996-12.836-5.684c-3.954-1.939-7.688-3.771-11.24-5.104
			l-0.175-0.064c-8.785-3.195-18.312-7.383-26.484-11.484c17.575-3.48,38.52-9.066,53.165-23.539
			c6.599-6.121,13.729-9.324,17.399-9.324c0.172,0,0.304,0.008,0.401,0.018c0.392,0.506,1.553,2.324,2.337,6.875l0.059,0.326
			c0.254,2.941-1.873,13.688-8.24,26.906C281.132,366.213,275.453,372.879,272.537,375.264z"/>
	</g>
	<g>
		<path style="fill:#2D404E;" d="M452.63,148.259c-13.301-12.091-54.687-36.76-82.221-26.6
			c-27.534,10.158-58.038,29.019-73.757,66.501c-4.836,13.301-14.509,25.392-19.346,39.901
			c-7.255,24.182,3.628,25.391,27.811,30.227c16.928,3.629,33.855,9.674,50.782,15.719c16.928,7.256,24.183,27.811,41.11,19.346
			c30.229-12.09,48.365-70.128,55.62-97.938C456.257,182.115,463.512,159.141,452.63,148.259z"/>
	</g>
	<g>
		<path style="fill:#253744;" d="M389.862,274.502c-1.414-1.129-3.269-2.814-4.642-4.064c-5.355-4.875-12.021-10.939-21.381-14.953
			l-0.573-0.246l-0.587-0.209c-17.258-6.164-35.103-12.538-53.339-16.446l-2.845-0.568c-3.442-0.684-7.386-1.467-10.435-2.215
			c0.131-0.501,0.283-1.049,0.46-1.647c1.969-5.779,5.229-11.615,8.68-17.787c3.634-6.504,7.39-13.225,10.205-20.808
			c10.876-25.628,31.156-43.618,61.98-54.992c2.07-0.764,4.601-1.15,7.521-1.15c17.96,0,42.824,14.102,53.032,22.763
			c0.214,0.907,0.564,3.363-0.113,8.323c-0.77,5.627-2.447,11.686-3.928,17.03c-0.248,0.894-0.77,2.797-0.77,2.797
			C418.897,244.884,401.018,269.691,389.862,274.502z"/>
	</g>
	<path style="fill:#2D404E;" d="M125.656,313.521c33.855,16.928,74.966,19.348,111.239,2.42
		c51.992-24.184-15.719-43.529-32.646-64.084c-22.973-27.811-30.228-56.829-70.129-68.92c-30.698-8.771-56.935-0.35-76.879,18.314
		l-21.686,105.6c9.719-0.383,20.69-3.633,28.436-5.42C86.964,297.805,103.891,301.432,125.656,313.521z"/>
	<path style="fill:#253744;" d="M184.433,295.246c-14.985,0-30.123-3.557-43.8-10.289c-21.488-11.832-40.22-17.113-60.686-17.113
		c-1.153,0-2.312,0.018-3.476,0.051l10.037-48.875c7.365-4.917,15.188-7.318,23.774-7.318c4.66,0,9.617,0.73,14.732,2.17
		c17.698,5.437,24.227,15.274,36.053,33.096c5.388,8.119,10.959,16.514,18.32,25.426c6.729,8.17,15.828,14.646,25.139,20.686
		C198.002,294.521,191.29,295.246,184.433,295.246z"/>
	<polygon style="fill:#C6CBCB;" points="162.883,87.195 264.797,119.182 265.25,108.34 163.484,76.399 163.47,76.402 162.189,87.33 
			"/>
	<polygon style="fill:#D1D5D5;" points="252.069,416.725 129.095,369.598 127.836,380.338 251.912,427.887 252.381,416.615 	"/>
	<polygon style="fill:#C6CBCB;" points="474.846,112.068 373.061,76.407 373.584,87.694 465.203,119.794 499.573,411.939 
		387.303,369.17 386.653,369.398 387.16,380.329 512,427.889 	"/>
	<path style="fill:#49A893;" d="M241.917,381.924c-12.297-4.471-58.133-23.477-57.016-35.775
		c1.035-11.389,46.17-7.439,71.484-25.438l8.412-201.529L162.883,87.195l-0.694,0.135l-11.984,102.225
		c26.378,14.261,34.56,38.715,54.044,62.303c16.928,20.555,84.639,39.901,32.646,64.084c-32.939,15.371-69.866,14.787-101.729,1.875
		l-6.071,51.781l122.974,47.127l0.312-0.109l1.223-29.273C249.254,385.223,245.148,383.137,241.917,381.924z"/>
	<path style="fill:#49A893;" d="M452.63,148.259c10.882,10.882,3.627,33.855,0,47.156c-7.255,27.81-25.392,85.848-55.62,97.938
		c-5.393,2.697-9.802,2.441-13.856,0.615l3.499,75.43l0.65-0.229l112.27,42.77l-34.37-292.145l-91.618-32.101l1.513,32.598
		C402.435,114.194,440.065,136.837,452.63,148.259z"/>
	<g style="opacity:0.5;">
		<path style="fill:#253744;" d="M184.901,346.148c-1.117,12.299,44.719,31.305,57.016,35.775c3.231,1.213,7.338,3.299,11.688,5.418
			l0.847-20.295c-2.054-0.963-4.051-1.842-5.99-2.57l-0.175-0.064c-8.785-3.195-18.312-7.383-26.484-11.484
			c10.701-2.119,22.649-5.023,33.666-10.234l0.918-21.982C231.071,338.709,185.936,334.76,184.901,346.148z"/>
	</g>
	<g>
		<path style="fill:#253744;" d="M221.801,352.928c8.172,4.102,17.699,8.289,26.484,11.484l0.175,0.064
			c1.939,0.729,3.937,1.607,5.99,2.57l1.017-24.354C244.451,347.904,232.502,350.809,221.801,352.928z"/>
	</g>
	<g style="opacity:0.5;">
		<path style="fill:#253744;" d="M397.01,293.354c30.229-12.09,48.365-70.128,55.62-97.938c3.627-13.301,10.882-36.274,0-47.156
			c-12.565-11.422-50.195-34.065-77.533-27.968l0.964,20.777c0.442-0.167,0.879-0.338,1.325-0.503c2.07-0.764,4.601-1.15,7.521-1.15
			c17.96,0,42.824,14.102,53.032,22.763c0.214,0.907,0.564,3.363-0.113,8.323c-0.77,5.627-2.447,11.686-3.928,17.03
			c-0.248,0.894-0.77,2.797-0.77,2.797c-14.232,54.558-32.111,79.363-43.268,84.173c-1.414-1.129-3.269-2.814-4.642-4.064
			c-1.045-0.951-2.142-1.949-3.296-2.965l1.229,26.496C387.209,295.795,391.618,296.051,397.01,293.354z"/>
	</g>
	<g>
		<path style="fill:#253744;" d="M385.22,270.438c1.373,1.25,3.228,2.936,4.642,4.064c11.156-4.811,29.035-29.616,43.268-84.173
			c0,0,0.521-1.903,0.77-2.797c1.48-5.345,3.158-11.403,3.928-17.03c0.678-4.96,0.327-7.416,0.113-8.323
			c-10.208-8.661-35.072-22.763-53.032-22.763c-2.921,0-5.451,0.387-7.521,1.15c-0.446,0.165-0.883,0.336-1.325,0.503l5.863,126.404
			C383.079,268.488,384.175,269.486,385.22,270.438z"/>
	</g>
	<polygon style="fill:#2D404E;" points="35.555,306.852 35.555,306.852 54.615,214.038 	"/>
	<path style="opacity:0.5;fill:#253744;enable-background:new    ;" d="M161.069,246.966c5.388,8.119,10.959,16.514,18.32,25.426
		c6.729,8.17,15.828,14.646,25.139,20.686c-6.525,1.443-13.238,2.168-20.095,2.168c-14.985,0-30.123-3.557-43.8-10.289
		c-0.51-0.281-1.012-0.539-1.519-0.812l-3.948,33.672c31.862,12.912,68.789,13.496,101.729-1.875
		c51.992-24.184-15.719-43.529-32.646-64.084c-19.484-23.588-27.666-48.042-54.044-62.303l-4.323,36.878
		C150.936,231.703,155.393,238.413,161.069,246.966z"/>
	<path style="fill:#253744;" d="M184.433,295.246c6.856,0,13.569-0.725,20.095-2.168c-9.311-6.039-18.41-12.516-25.139-20.686
		c-7.361-8.912-12.933-17.307-18.32-25.426c-5.676-8.554-10.133-15.263-15.188-20.534l-6.767,57.712
		c0.507,0.273,1.009,0.531,1.519,0.812C154.31,291.689,169.448,295.246,184.433,295.246z"/>
	<g>
		<g>
			<path style="fill:#D1D5D5;" d="M72.817,156.956l-1.216-2.595c0,0-1.595,0.742-3.171,1.534c-0.789,0.394-1.573,0.799-2.161,1.112
				c-0.594,0.322-0.989,0.537-0.989,0.537l1.414,2.493c0,0,0.369-0.201,0.922-0.501c0.565-0.302,1.328-0.696,2.099-1.08
				C71.251,157.684,72.817,156.956,72.817,156.956z"/>
			<path style="fill:#D1D5D5;" d="M82.27,152.906l-1.045-2.668c0,0-0.408,0.161-1.021,0.404c-0.609,0.248-1.424,0.578-2.238,0.908
				c-0.809,0.344-1.618,0.687-2.225,0.945c-0.604,0.265-1.006,0.442-1.006,0.442l1.157,2.621c0,0,0.396-0.174,0.987-0.435
				c0.596-0.253,1.391-0.591,2.186-0.929c0.801-0.324,1.602-0.648,2.201-0.892C81.868,153.065,82.27,152.906,82.27,152.906z"/>
			<path style="fill:#D1D5D5;" d="M91.961,149.452l-0.88-2.728c0,0-0.422,0.123-1.044,0.34c-0.625,0.211-1.457,0.492-2.289,0.773
				c-1.662,0.57-3.31,1.181-3.31,1.181l0.991,2.689c0-0.001,1.62-0.602,3.254-1.161c0.818-0.277,1.637-0.554,2.25-0.761
				C91.546,149.573,91.961,149.452,91.961,149.452z"/>
			<path style="fill:#D1D5D5;" d="M101.846,146.604l-0.704-2.777c0,0-1.7,0.447-3.399,0.895c-1.688,0.488-3.377,0.976-3.377,0.976
				l0.824,2.745c0,0,1.658-0.479,3.317-0.959C100.176,147.044,101.846,146.604,101.846,146.604z"/>
			<path style="fill:#D1D5D5;" d="M111.889,144.427l-0.51-2.819c0,0-0.434,0.075-1.084,0.188c-0.646,0.132-1.509,0.308-2.37,0.482
				c-1.728,0.335-3.438,0.747-3.438,0.747l0.642,2.792c0.001,0.001,1.679-0.404,3.373-0.733c0.846-0.171,1.69-0.343,2.324-0.472
				C111.463,144.5,111.889,144.427,111.889,144.427z"/>
			<path style="fill:#D1D5D5;" d="M122.054,142.983l-0.294-2.851c0,0-0.438,0.047-1.095,0.117c-0.655,0.077-1.534,0.146-2.403,0.282
				c-1.744,0.246-3.486,0.493-3.486,0.493l0.441,2.831c0,0,1.707-0.242,3.414-0.482c0.852-0.135,1.711-0.2,2.353-0.276
				C121.625,143.029,122.054,142.983,122.054,142.983z"/>
			<path style="fill:#D1D5D5;" d="M132.285,142.35l-0.051-2.866c0,0-1.762,0.056-3.524,0.111c-0.881,0.026-1.758,0.113-2.417,0.152
				c-0.659,0.045-1.1,0.077-1.1,0.077l0.218,2.856c0,0,0.429-0.03,1.072-0.075c0.645-0.037,1.503-0.123,2.362-0.148
				C130.565,142.404,132.285,142.35,132.285,142.35z"/>
		</g>
		<g>
			<path style="fill:#D1D5D5;" d="M142.521,142.634l0.221-2.857c0,0-1.763-0.097-3.525-0.192c-0.882-0.056-1.764-0.092-2.425-0.086
				c-0.662-0.006-1.104-0.011-1.104-0.011l-0.035,2.865c0,0,0.43,0.004,1.075,0.01c0.645-0.007,1.503,0.03,2.361,0.084
				C140.805,142.539,142.521,142.634,142.521,142.634z"/>
			<path style="fill:#D1D5D5;" d="M152.657,143.957l0.519-2.817c0,0-0.108-0.022-0.298-0.062c-0.189-0.04-0.46-0.095-0.789-0.139
				c-0.654-0.099-1.529-0.23-2.402-0.361c-0.875-0.125-1.747-0.276-2.405-0.348c-0.659-0.065-1.1-0.11-1.1-0.11l-0.315,2.848
				c0,0,0.427,0.044,1.067,0.107c0.641,0.069,1.486,0.216,2.336,0.338c0.849,0.127,1.697,0.255,2.334,0.35
				c0.319,0.043,0.582,0.097,0.766,0.136C152.551,143.938,152.657,143.957,152.657,143.957z"/>
			<path style="fill:#D1D5D5;" d="M162.574,146.374l0.835-2.741c0,0-0.422-0.136-1.053-0.339c-0.643-0.167-1.498-0.391-2.354-0.615
				c-0.856-0.223-1.712-0.446-2.354-0.614c-0.645-0.156-1.08-0.232-1.08-0.232l-0.621,2.797c0,0,0.423,0.073,1.048,0.226
				c0.622,0.163,1.45,0.38,2.28,0.596c0.829,0.217,1.658,0.434,2.28,0.596C162.167,146.242,162.574,146.374,162.574,146.374z"/>
			<path style="fill:#D1D5D5;" d="M172.133,149.923l1.157-2.621c0,0-0.402-0.186-1.005-0.464c-0.618-0.243-1.441-0.566-2.266-0.89
				c-0.825-0.321-1.65-0.643-2.27-0.884c-0.308-0.124-0.567-0.219-0.753-0.273c-0.185-0.06-0.29-0.094-0.29-0.094l-0.94,2.707
				c0,0,0.102,0.033,0.28,0.091c0.18,0.052,0.432,0.144,0.729,0.264c0.599,0.234,1.396,0.545,2.194,0.856
				c0.797,0.312,1.594,0.625,2.192,0.858C171.745,149.745,172.133,149.923,172.133,149.923z"/>
			<path style="fill:#D1D5D5;" d="M181.09,154.673l1.55-2.41c0,0-0.369-0.249-0.924-0.623c-0.584-0.326-1.363-0.762-2.142-1.197
				c-0.78-0.434-1.56-0.868-2.145-1.193c-0.289-0.17-0.539-0.288-0.717-0.366c-0.176-0.081-0.275-0.128-0.275-0.128l-1.262,2.573
				c0,0,0.098,0.044,0.268,0.123c0.172,0.075,0.414,0.189,0.688,0.353c0.556,0.31,1.298,0.724,2.039,1.138
				c0.742,0.413,1.484,0.827,2.041,1.136C180.739,154.435,181.09,154.673,181.09,154.673z"/>
			<path style="fill:#D1D5D5;" d="M189.088,160.867l1.938-2.111c0,0-0.322-0.307-0.805-0.768c-0.504-0.438-1.204-0.989-1.893-1.556
				c-0.691-0.562-1.383-1.124-1.9-1.546c-0.254-0.218-0.483-0.377-0.646-0.483c-0.162-0.11-0.254-0.172-0.254-0.172l-1.688,2.315
				c0,0,0.088,0.06,0.241,0.164c0.156,0.101,0.374,0.252,0.616,0.461c0.495,0.402,1.154,0.939,1.813,1.477
				c0.656,0.54,1.325,1.065,1.808,1.482C188.781,160.573,189.088,160.867,189.088,160.867z"/>
			<path style="fill:#D1D5D5;" d="M196.024,168.281l2.225-1.807c0,0-0.275-0.348-0.688-0.869c-0.404-0.527-1.029-1.162-1.615-1.829
				c-0.595-0.658-1.189-1.317-1.637-1.812c-0.436-0.503-0.768-0.802-0.768-0.802l-2.044,2.008c0,0,0.317,0.285,0.737,0.77
				c0.428,0.476,1,1.108,1.572,1.742c0.562,0.642,1.164,1.249,1.554,1.759C195.758,167.945,196.024,168.281,196.024,168.281z"/>
		</g>
		<g>
			<path style="fill:#D1D5D5;" d="M201.976,176.576l2.414-1.544c0,0-0.909-1.512-1.954-2.942c-0.507-0.725-1.014-1.449-1.395-1.992
				c-0.379-0.545-0.643-0.899-0.643-0.899l-2.297,1.712c0,0,0.256,0.344,0.622,0.873c0.368,0.526,0.86,1.229,1.353,1.933
				C201.089,175.099,201.976,176.576,201.976,176.576z"/>
			<path style="fill:#D1D5D5;" d="M207.125,185.449l2.531-1.345c0,0-0.794-1.567-1.688-3.087c-0.872-1.529-1.744-3.06-1.744-3.06
				l-2.461,1.469c0,0,0.854,1.497,1.707,2.994C206.345,183.906,207.125,185.449,207.125,185.449z"/>
			<path style="fill:#D1D5D5;" d="M211.697,194.68l2.599-1.21c0,0-0.724-1.595-1.506-3.166c-0.77-1.576-1.54-3.152-1.54-3.152
				l-2.558,1.291c0,0,0.759,1.554,1.519,3.108C210.981,193.1,211.697,194.68,211.697,194.68z"/>
			<path style="fill:#D1D5D5;" d="M215.917,204.121l2.63-1.139c0,0-0.7-1.601-1.4-3.201c-0.709-1.598-1.418-3.196-1.418-3.196
				l-2.611,1.179c0,0,0.703,1.587,1.407,3.174C215.22,202.53,215.917,204.121,215.917,204.121z"/>
			
				<rect x="218.553" y="206.456" transform="matrix(-0.9195 0.3931 -0.3931 -0.9195 504.7908 316.5052)" style="fill:#D1D5D5;" width="2.867" height="6.971"/>
			<path style="fill:#D1D5D5;" d="M224.163,223.201l2.613-1.176c0,0-0.703-1.588-1.406-3.176c-0.696-1.593-1.391-3.186-1.391-3.186
				l-2.631,1.137c0,0,0.699,1.602,1.398,3.202C223.454,221.602,224.163,223.201,224.163,223.201z"/>
			<path style="fill:#D1D5D5;" d="M228.635,232.638l2.559-1.291c0,0-0.202-0.382-0.48-0.968c-0.283-0.584-0.661-1.363-1.039-2.142
				c-0.376-0.779-0.752-1.559-1.033-2.144c-0.271-0.591-0.451-0.985-0.451-0.985l-2.6,1.207c0,0,0.725,1.595,1.504,3.168
				c0.383,0.79,0.766,1.579,1.053,2.172C228.429,232.249,228.636,232.637,228.635,232.638z"/>
		</g>
		<g>
			<path style="fill:#D1D5D5;" d="M233.682,241.832l2.456-1.478c0,0-0.239-0.357-0.55-0.925c-0.319-0.562-0.744-1.312-1.17-2.062
				c-0.422-0.752-0.86-1.493-1.162-2.065c-0.3-0.575-0.499-0.958-0.499-0.958l-2.53,1.345c0,0,0.203,0.39,0.508,0.975
				c0.309,0.584,0.757,1.344,1.188,2.112c0.436,0.766,0.87,1.533,1.196,2.107C233.438,241.465,233.682,241.832,233.682,241.832z"/>
			<path style="fill:#D1D5D5;" d="M239.585,250.565l2.276-1.74c0,0-0.275-0.326-0.656-0.844c-0.369-0.526-0.862-1.229-1.355-1.931
				c-0.491-0.703-0.984-1.405-1.354-1.932c-0.343-0.546-0.57-0.911-0.57-0.911l-2.406,1.557c0,0,0.234,0.374,0.587,0.936
				c0.381,0.544,0.89,1.27,1.397,1.995c0.51,0.725,1.018,1.449,1.4,1.993C239.298,250.224,239.584,250.565,239.585,250.565z"/>
			<path style="fill:#D1D5D5;" d="M246.611,258.486l1.99-2.061c0,0-0.311-0.29-0.776-0.727c-0.475-0.428-1.02-1.09-1.604-1.71
				c-0.576-0.629-1.151-1.259-1.584-1.73c-0.22-0.232-0.395-0.435-0.507-0.585c-0.116-0.146-0.183-0.229-0.183-0.229l-2.197,1.84
				c0,0,0.069,0.087,0.19,0.238c0.116,0.156,0.299,0.366,0.527,0.609c0.451,0.493,1.052,1.15,1.653,1.808
				c0.61,0.647,1.18,1.334,1.677,1.786C246.286,258.182,246.611,258.486,246.611,258.486z"/>
			<path style="fill:#D1D5D5;" d="M254.898,265.148l1.579-2.391c0,0-0.355-0.232-0.889-0.58c-0.266-0.174-0.576-0.377-0.908-0.596
				c-0.312-0.248-0.645-0.512-0.979-0.773c-1.332-1.055-2.666-2.105-2.666-2.105l-1.87,2.172c0,0,1.403,1.107,2.807,2.217
				c0.352,0.277,0.702,0.553,1.031,0.812c0.351,0.232,0.677,0.447,0.958,0.633C254.523,264.904,254.898,265.148,254.898,265.148z"/>
			<path style="fill:#D1D5D5;" d="M264.315,270.111l1.084-2.652c0,0-0.394-0.16-0.982-0.4c-0.586-0.248-1.391-0.529-2.125-0.959
				c-1.502-0.787-3.004-1.578-3.004-1.578l-1.422,2.488c0,0,1.585,0.834,3.171,1.668c0.778,0.447,1.624,0.748,2.242,1.01
				C263.901,269.941,264.315,270.111,264.315,270.111z"/>
			<path style="fill:#D1D5D5;" d="M274.481,273.199l0.592-2.803c0,0-0.417-0.086-1.044-0.211c-0.313-0.064-0.679-0.139-1.069-0.217
				c-0.392-0.08-0.791-0.229-1.201-0.344c-1.627-0.49-3.255-0.98-3.255-0.98l-0.917,2.715c0,0,1.711,0.516,3.423,1.031
				c0.429,0.121,0.852,0.275,1.261,0.359c0.41,0.084,0.792,0.16,1.119,0.229C274.044,273.111,274.481,273.199,274.481,273.199z"/>
			<path style="fill:#D1D5D5;" d="M284.903,274.747l0.273-2.852c0,0-0.428-0.037-1.07-0.092c-0.643-0.053-1.494-0.189-2.349-0.297
				c-1.707-0.229-3.415-0.457-3.415-0.457l-0.44,2.832c0,0,1.748,0.234,3.495,0.469c0.876,0.109,1.746,0.248,2.406,0.305
				C284.463,274.711,284.903,274.747,284.903,274.747z"/>
		</g>
		<g>
			<path style="fill:#D1D5D5;" d="M295.429,275.215l-0.036-2.865c0,0-1.713,0.064-3.43-0.029c-0.857-0.029-1.715-0.059-2.358-0.08
				c-0.644-0.012-1.072-0.059-1.072-0.059l-0.182,2.859c0,0,0.438,0.049,1.103,0.061c0.664,0.023,1.549,0.053,2.434,0.082
				C293.655,275.279,295.429,275.215,295.429,275.215z"/>
			<path style="fill:#D1D5D5;" d="M305.977,274.367l-0.446-2.83c0,0-0.422,0.061-1.056,0.15c-0.635,0.076-1.472,0.242-2.325,0.299
				c-1.704,0.137-3.407,0.273-3.407,0.273l0.157,2.859c0,0,1.772-0.141,3.545-0.281c0.887-0.061,1.766-0.232,2.429-0.312
				C305.536,274.432,305.977,274.367,305.977,274.367z"/>
			<path style="fill:#D1D5D5;" d="M316.295,271.773l-0.971-2.697c0,0-0.398,0.143-0.996,0.357c-0.59,0.236-1.415,0.441-2.23,0.674
				c-0.82,0.217-1.625,0.488-2.254,0.602c-0.625,0.131-1.041,0.217-1.041,0.217l0.605,2.801c0,0,0.438-0.09,1.094-0.229
				c0.659-0.119,1.513-0.404,2.378-0.633c0.861-0.248,1.73-0.465,2.357-0.715C315.873,271.924,316.295,271.773,316.295,271.773z"/>
			<path style="fill:#D1D5D5;" d="M325.89,267.029l-1.579-2.393c0,0-0.356,0.225-0.892,0.559c-0.532,0.34-1.24,0.793-1.998,1.164
				c-0.75,0.385-1.478,0.812-2.06,1.064c-0.579,0.254-0.966,0.424-0.966,0.424l1.165,2.617c0,0,0.412-0.182,1.029-0.453
				c0.619-0.268,1.4-0.725,2.202-1.135c0.808-0.4,1.57-0.885,2.142-1.25C325.508,267.268,325.89,267.029,325.89,267.029z"/>
			<path style="fill:#D1D5D5;" d="M333.987,259.969l-2.156-1.885c0,0-0.28,0.311-0.701,0.779c-0.403,0.486-1.027,1.049-1.624,1.641
				c-0.583,0.605-1.247,1.123-1.723,1.535c-0.48,0.408-0.801,0.68-0.801,0.68l1.78,2.246c0,0,0.345-0.293,0.863-0.73
				c0.513-0.443,1.225-1.004,1.855-1.654c0.644-0.637,1.314-1.246,1.75-1.77C333.684,260.307,333.987,259.969,333.987,259.969z"/>
			<path style="fill:#D1D5D5;" d="M339.928,251.026l-2.572-1.263c0,0-0.164,0.39-0.476,0.938c-0.309,0.55-0.679,1.308-1.137,2.014
				c-0.433,0.722-0.879,1.434-1.253,1.941c-0.359,0.518-0.6,0.863-0.6,0.863l2.314,1.689c0,0,0.258-0.372,0.646-0.928
				c0.402-0.547,0.883-1.312,1.347-2.088c0.492-0.759,0.891-1.57,1.221-2.161C339.75,251.443,339.928,251.026,339.928,251.026z"/>
			<path style="fill:#D1D5D5;" d="M343.424,240.893l-2.806-0.581c0,0-0.333,1.646-0.825,3.259c-0.486,1.613-1.102,3.184-1.102,3.184
				l2.668,1.047c0,0,0.658-1.679,1.178-3.407C343.065,242.668,343.424,240.893,343.424,240.893z"/>
		</g>
	</g>
	<polygon style="opacity:0.5;fill:#253744;enable-background:new    ;" points="387.16,380.329 251.912,427.887 127.836,380.338 
		0,427.889 20.401,427.889 127.836,387.342 252.381,435.602 387.456,387.342 494.669,427.887 512,427.889 	"/>
	<path style="fill:#DF584C;" d="M342.217,191.19c-9.286,0-16.818,7.528-16.818,16.818c0,9.291,16.818,32.129,16.818,32.129
		s16.818-22.839,16.818-32.129C359.036,198.716,351.503,191.19,342.217,191.19z M342.217,218.447
		c-5.764,0-10.439-4.672-10.439-10.439s4.676-10.439,10.439-10.439s10.439,4.672,10.439,10.439
		C352.657,213.775,347.981,218.447,342.217,218.447z"/>
</g>
<g>
</g>
<g>
</g>
<g>
</g>
<g>
</g>
<g>
</g>
<g>
</g>
<g>
</g>
<g>
</g>
<g>
</g>
<g>
</g>
<g>
</g>
<g>
</g>
<g>
</g>
<g>
</g>
<g>
</g>
</svg>
