<svg height="512.002pt" viewBox="0 0 512.002 512.002" width="512.002pt" xmlns="http://www.w3.org/2000/svg"><path d="m364.105469 63.601562h-43.015625v-42.09375c0-11.878906 9.628906-21.507812 21.507812-21.507812s21.507813 9.628906 21.507813 21.507812zm0 0" fill="#b665c2"/><path d="m383.628906 448.398438h-255.257812c-35.769532 0-64.769532-29-64.769532-64.769532v-255.257812c0-35.769532 29-64.769532 64.769532-64.769532h255.257812c35.769532 0 64.765625 29 64.765625 64.769532v255.257812c.003907 35.769532-28.996093 64.769532-64.765625 64.769532zm0 0" fill="#d476e2"/><path d="m383.628906 63.601562h-255.257812c-35.769532 0-64.769532 29-64.769532 64.769532v14c0-35.769532 29-64.769532 64.769532-64.769532h255.257812c35.769532 0 64.765625 29 64.765625 64.769532v-14c.003907-35.769532-28.996093-64.769532-64.765625-64.769532zm0 0" fill="#ea82fa"/><path d="m128.371094 448.398438h255.257812c35.769532 0 64.765625-29 64.765625-64.769532v-14c0 35.769532-28.996093 64.769532-64.765625 64.769532h-255.257812c-35.769532 0-64.769532-29-64.769532-64.769532v14c0 35.769532 29 64.769532 64.769532 64.769532zm0 0" fill="#b665c2"/><path d="m356.523438 406.277344h-201.046876c-27.480468 0-49.753906-22.273438-49.753906-49.753906v-201.046876c0-27.480468 22.273438-49.753906 49.753906-49.753906h201.046876c27.480468 0 49.753906 22.273438 49.753906 49.753906v201.046876c0 27.480468-22.273438 49.753906-49.753906 49.753906zm0 0" fill="#b665c2"/><path d="m352.15625 384.230469h-192.3125c-17.714844 0-32.074219-14.359375-32.074219-32.074219v-192.3125c0-17.714844 14.359375-32.074219 32.074219-32.074219h192.3125c17.714844 0 32.074219 14.359375 32.074219 32.074219v192.3125c0 17.714844-14.359375 32.074219-32.074219 32.074219zm0 0" fill="#69ebfc"/><path d="m189.640625 63.601562h-43.015625v-42.09375c0-11.878906 9.632812-21.507812 21.507812-21.507812 11.878907 0 21.507813 9.628906 21.507813 21.507812zm0 0" fill="#b665c2"/><path d="m168.132812 0c-11.875 0-21.503906 9.628906-21.503906 21.507812v14c-.003906-11.878906 9.628906-21.507812 21.503906-21.507812 11.878907 0 21.507813 9.628906 21.507813 21.507812v-14c0-11.878906-9.628906-21.507812-21.507813-21.507812zm0 0" fill="#d476e2"/><path d="m277.507812 63.601562h-43.015624v-42.09375c0-11.878906 9.628906-21.507812 21.507812-21.507812s21.507812 9.628906 21.507812 21.507812zm0 0" fill="#b665c2"/><path d="m256 0c-11.878906 0-21.507812 9.628906-21.507812 21.507812v14c0-11.878906 9.628906-21.507812 21.507812-21.507812s21.507812 9.628906 21.507812 21.507812v-14c0-11.878906-9.628906-21.507812-21.507812-21.507812zm0 0" fill="#d476e2"/><path d="m342.597656 0c-11.878906 0-21.503906 9.628906-21.503906 21.507812v14c-.003906-11.878906 9.625-21.507812 21.503906-21.507812s21.507813 9.628906 21.507813 21.507812v-14c0-11.878906-9.628907-21.507812-21.507813-21.507812zm0 0" fill="#d476e2"/><g fill="#b665c2"><path d="m321.089844 448.398438h43.015625v42.09375c0 11.878906-9.628907 21.511718-21.507813 21.511718s-21.507812-9.632812-21.507812-21.511718zm0 0"/><path d="m233.859375 448.398438h43.011719v42.09375c0 11.878906-9.628906 21.511718-21.503906 21.511718-11.878907 0-21.507813-9.632812-21.507813-21.511718zm0 0"/><path d="m146.625 448.398438h43.015625v42.09375c0 11.878906-9.628906 21.511718-21.507813 21.511718-11.878906 0-21.507812-9.632812-21.507812-21.511718zm0 0"/><path d="m63.601562 321.722656v43.015625h-42.09375c-11.878906 0-21.507812-9.628906-21.507812-21.507812 0-11.875 9.628906-21.507813 21.507812-21.507813zm0 0"/><path d="m63.601562 234.492188v43.015624h-42.09375c-11.878906 0-21.507812-9.628906-21.507812-21.507812s9.628906-21.507812 21.507812-21.507812zm0 0"/><path d="m63.601562 147.261719v43.015625h-42.09375c-11.878906 0-21.507812-9.632813-21.507812-21.507813 0-11.878906 9.628906-21.507812 21.507812-21.507812zm0 0"/><path d="m448.398438 321.722656v43.015625h42.09375c11.878906 0 21.511718-9.628906 21.511718-21.507812 0-11.878907-9.632812-21.507813-21.511718-21.507813zm0 0"/><path d="m448.398438 234.492188v43.015624h42.09375c11.878906 0 21.511718-9.628906 21.511718-21.507812s-9.632812-21.507812-21.511718-21.507812zm0 0"/><path d="m448.398438 147.261719v43.015625h42.09375c11.878906 0 21.511718-9.632813 21.511718-21.507813 0-11.878906-9.632812-21.507812-21.511718-21.507812zm0 0"/></g><path d="m246.746094 338.40625c-11.601563-1.699219-21.921875-6.183594-30.980469-13.460938-5.28125-4.246093-9.671875-9.566406-13.1875-15.964843-4.261719-7.761719-.933594-17.527344 7.265625-20.875 6.515625-2.660157 14.160156-.398438 17.796875 5.628906 1.167969 1.941406 2.511719 3.792969 4.035156 5.554687 4.167969 4.878907 9.191407 8.25 15.070313 10.09375v-44.097656l-2.070313-.933594c-5.726562-2.164062-11.109375-4.710937-16.136719-7.664062-5.023437-2.929688-9.441406-6.34375-13.226562-10.207031-3.804688-3.863281-6.828125-8.238281-9.054688-13.113281-2.253906-4.878907-3.382812-10.332032-3.382812-16.371094 0-5.566406 1.015625-10.828125 3.019531-15.785156 2.03125-4.945313 4.914063-9.359376 8.722657-13.226563 3.785156-3.863281 8.378906-7.085937 13.8125-9.628906 5.40625-2.558594 11.511718-4.214844 18.316406-4.992188v-9.632812c0-5.707031 4.628906-10.332031 10.332031-10.332031 5.707031 0 10.332031 4.625 10.332031 10.332031v10.09375c6.199219.921875 11.582032 2.558593 16.136719 4.878906 4.574219 2.320313 8.484375 5.027344 11.851563 8.007813 1.296874 1.148437 2.546874 2.515624 3.726562 3.992187 5.863281 7.339844 2.886719 18.3125-5.691406 22.140625-5.878906 2.625-12.644532.980469-16.976563-3.785156-2.269531-2.5-5.253906-4.957032-9.046875-6.6875v41.550781c6.671875 2.792969 12.6875 5.65625 18.117188 8.597656 5.410156 2.9375 10.050781 6.261719 13.925781 9.980469 3.875 3.707031 6.804687 7.933594 8.8125 12.640625 2.027344 4.730469 3.019531 10.183594 3.019531 16.371094 0 6.960937-1.195312 13.160156-3.582031 18.566406-2.414063 5.417969-5.609375 10.058594-9.644531 13.925781-4.035156 3.875-8.699219 6.972656-14.039063 9.292969-5.339843 2.320313-10.882812 3.945313-16.605469 4.867187v10.097657c0 5.703125-4.625 10.332031-10.332031 10.332031s-10.332031-4.628906-10.332031-10.332031v-9.855469zm-15.296875-121.402344c0 3.714844 1.191406 6.925782 3.582031 9.628906 2.410156 2.71875 6.308594 5.464844 11.714844 8.25v-33.890624c-4.640625 1.238281-8.335938 3.242187-11.128906 6.027343-2.792969 2.792969-4.167969 6.117188-4.167969 9.984375zm50.136719 74.75c0-4.023437-1.082032-7.359375-3.269532-9.980468-2.164062-2.636719-5.789062-5.261719-10.90625-7.898438v35.511719c4.191406-1.386719 7.59375-3.59375 10.230469-6.613281 2.613281-3.019532 3.945313-6.695313 3.945313-11.019532zm0 0" fill="#6770e6"/><path d="m169.277344 158.523438c0 5.9375-4.816406 10.753906-10.753906 10.753906-5.941407 0-10.753907-4.816406-10.753907-10.753906 0-5.941407 4.8125-10.753907 10.753907-10.753907 5.9375 0 10.753906 4.8125 10.753906 10.753907zm0 0" fill="#5fd4e3"/><path d="m364.230469 158.523438c0 5.9375-4.8125 10.753906-10.753907 10.753906-5.9375 0-10.753906-4.816406-10.753906-10.753906 0-5.941407 4.816406-10.753907 10.753906-10.753907 5.941407 0 10.753907 4.8125 10.753907 10.753907zm0 0" fill="#5fd4e3"/><path d="m169.277344 353.476562c0 5.941407-4.816406 10.753907-10.753906 10.753907-5.941407 0-10.753907-4.8125-10.753907-10.753907 0-5.9375 4.8125-10.753906 10.753907-10.753906 5.9375 0 10.753906 4.816406 10.753906 10.753906zm0 0" fill="#5fd4e3"/><path d="m364.230469 353.476562c0 5.941407-4.8125 10.753907-10.753907 10.753907-5.9375 0-10.753906-4.8125-10.753906-10.753907 0-5.9375 4.816406-10.753906 10.753906-10.753906 5.941407 0 10.753907 4.816406 10.753907 10.753906zm0 0" fill="#5fd4e3"/><path d="m342.597656 512c11.878906 0 21.507813-9.628906 21.507813-21.507812v-14c0 11.878906-9.628907 21.507812-21.507813 21.507812s-21.507812-9.628906-21.507812-21.507812v14c0 11.878906 9.628906 21.507812 21.507812 21.507812zm0 0" fill="#9e58a8"/><path d="m254.730469 512c11.878906 0 21.507812-9.628906 21.507812-21.507812v-14c0 11.878906-9.628906 21.507812-21.507812 21.507812-11.875 0-21.507813-9.628906-21.507813-21.507812v14c0 11.878906 9.632813 21.507812 21.507813 21.507812zm0 0" fill="#9e58a8"/><path d="m168.132812 512c11.878907 0 21.507813-9.628906 21.507813-21.507812v-14c0 11.878906-9.628906 21.507812-21.507813 21.507812-11.875 0-21.507812-9.628906-21.507812-21.507812v14c0 11.878906 9.632812 21.507812 21.507812 21.507812zm0 0" fill="#9e58a8"/></svg>