<svg id="Layer_1" height="512" viewBox="0 0 150 150" width="512" xmlns="http://www.w3.org/2000/svg" data-name="Layer 1"><path d="m139 75a64 64 0 1 1 -64-64 64 64 0 0 1 64 64" fill="#d5d6db"/><path d="m49.68 46.94-3 3a1.59 1.59 0 0 0 0 2.26l58.83 58.84a1.6 1.6 0 0 0 2.27 0l3-3a1.6 1.6 0 0 0 0-2.27l-58.84-58.83a1.59 1.59 0 0 0 -2.26 0" fill="#985b3f"/><path d="m97.54 40c-13.11-3.83-28.69-.36-40.94 9.93l-1.11-1.13a.61.61 0 0 0 -.85 0l-6.13 6.13a.59.59 0 0 0 0 .85l1.16 1.22c-9.88 12.14-13.17 27.42-9.4 40.29a.79.79 0 0 0 1.55-.09c1.61-10.77 7-22.24 15.75-32.31l1.22 1.22a.59.59 0 0 0 .85 0l6.13-6.13a.59.59 0 0 0 0-.85l-1.25-1.25c10.21-9.09 21.93-14.66 32.92-16.3a.8.8 0 0 0 .1-1.58z" fill="#3a556a"/><path d="m56.6 49.91 7.92 7.92-7.49-8.27z" fill="#2f4859"/><g fill="#8b533a"><path d="m96.08 97.56a18 18 0 0 0 4.55 3.88zm-8.5-7.25 8.5 7.25a16.92 16.92 0 0 1 -1.24-1.65 36.68 36.68 0 0 0 6.88 5.53l6 5.32a31 31 0 0 0 -15.72-15l2.19 2.42a30.11 30.11 0 0 1 -6.62-3.87m-2.35-2a29.7 29.7 0 0 0 2.35 2z"/><path d="m72 74.79a119 119 0 0 0 10.28 8.59l-1.42-.1a22.12 22.12 0 0 0 6.4 5.18 19.72 19.72 0 0 1 -4.13-4.46l.18.06 5 3.24a1.9 1.9 0 0 0 -.31-1.73l1.31 1a75.58 75.58 0 0 0 -11.37-8.67 8.21 8.21 0 0 0 1.52 2.21z"/><path d="m63 64.58.48.85-.3-.1a22 22 0 0 0 3.82 3.54 2.61 2.61 0 0 0 -.44-1.17 17.07 17.07 0 0 0 2.53 2.3l-.61-.72a48.71 48.71 0 0 0 4 3.28l-.78-.73a29.78 29.78 0 0 0 5.15 3.71 45.16 45.16 0 0 0 -6.35-6.54c.41.51.81 1 1.21 1.55l-2.4-2.55a2.4 2.4 0 0 0 .69 1.19 25.76 25.76 0 0 0 -4.32-3.19 2.18 2.18 0 0 0 .22 1.06l-3-2.48"/></g></svg>