<svg id="Layer_1" height="512" viewBox="0 0 150 150" width="512" xmlns="http://www.w3.org/2000/svg" data-name="Layer 1"><circle cx="75" cy="75" fill="#fe7058" r="64"/><path d="m97.47 66.18h-20.8s3 25.55-9 45h38.79c-11.99-19.45-8.99-45-8.99-45z" fill="#d5d6db"/><path d="m97.16 71.54h-20.16v3.72h20.15c-.03-1.37-.02-2.62.01-3.72z" fill="#3a556a"/><path d="m70.3 60.1h-23.61s3.39 29-10.21 51.05h44c-13.58-22.04-10.18-51.05-10.18-51.05z" fill="#ebf0f3"/><path d="m70 66.18h-23q0 1.89 0 4.23h22.9c.01-1.56.02-2.97.1-4.23z" fill="#3a556a"/><path d="m98.71 42.86a6.11 6.11 0 0 0 -7.12-2.09c-1.29.44-2.79 1.24-3.78.49a5.79 5.79 0 0 1 -.92-1.2c-1.2-1.55-3.6-1.39-5.62-.74s-4.07 1.68-6.06 1.51c-1.6-.14-3.08-1-4.71-.64-2 .51-3.43 2.84-5.4 3.71a8.39 8.39 0 0 1 -3.31.49c-2.28.06-4.93.47-6.43 2.52a7.64 7.64 0 0 0 -1 5.35c.17 1.56 1.05 5 .91 6.62l1-1.92a3.31 3.31 0 0 0 .1-.94 12.31 12.31 0 0 1 -.08-1.61c.2-1.9 2.14-3.21 3.85-4a9.62 9.62 0 0 1 5.04-1.41c1.26.14 2.41.79 3.71.7 1.8-.13 3.56-1.68 5.32-1.52 2.22.19 3.21 2.95 5.33 3.49 2 .49 4.23-1.09 6.28-.85s3.19 2 4.93 2.7c2.41 1 5.69-.15 7.47-2.6a7.36 7.36 0 0 0 .49-8.06z" fill="#3a556a"/><path d="m99.21 43.83a7.64 7.64 0 0 1 -1.47 4.72c-1.74 2.45-5.06 3.62-7.47 2.6-1.74-.74-3-2.48-4.92-2.7s-4.35 1.35-6.29.85-3.06-3.3-5.33-3.49c-1.75-.16-3.52 1.39-5.32 1.52-1.3.1-2.44-.57-3.71-.7a9.73 9.73 0 0 0 -5.06 1.37c-1.7.84-3.65 2.14-3.85 4a10.92 10.92 0 0 0 .08 1.62 3 3 0 0 1 -.1.94l-.77 1.49a13.07 13.07 0 0 1 .25 2.83l1-1.91a2.81 2.81 0 0 0 .11-.94 11.06 11.06 0 0 1 -.08-1.63c.19-1.89 2.14-3.21 3.85-4a9.64 9.64 0 0 1 5.04-1.4c1.27.14 2.42.81 3.72.71 1.8-.13 3.57-1.68 5.32-1.53 2.21.2 3.21 3 5.33 3.49 2 .5 4.24-1.08 6.29-.84s3.18 2 4.92 2.7c2.4 1 5.69-.16 7.47-2.6a7.59 7.59 0 0 0 .99-7.1z" fill="#2f4859"/><path d="m112.59 61.46a4.16 4.16 0 0 1 -4.69 1.63c-1.1-.47-1.89-1.56-3.11-1.7s-2.71.85-4 .53-2-2.07-3.34-2.2c-1.11-.09-2.22.88-3.35 1a13.21 13.21 0 0 1 -2.34-.43 6.13 6.13 0 0 0 -3.18.83c-1.08.53-2.31 1.36-2.43 2.55a8.6 8.6 0 0 0 0 1v.22h-1a11.9 11.9 0 0 0 -.09-1.34c0-.42-.11-.84-.16-1.25a4.71 4.71 0 0 1 .66-3.37c.94-1.29 2.6-1.55 4-1.58a5.17 5.17 0 0 0 2.19-.35c1.24-.54 2.12-2 3.4-2.33 1-.26 1.95.32 3 .4 1.26.11 2.54-.54 3.81-.95s2.79-.5 3.54.47a3.4 3.4 0 0 0 .58.75c.63.48 1.57 0 2.38-.3a3.83 3.83 0 0 1 4.48 1.32l.08.12a4.68 4.68 0 0 1 -.43 4.98z" fill="#2f4859"/><path d="m112.11 60.11a4.18 4.18 0 0 1 -4.7 1.64c-1.1-.47-1.89-1.57-3.1-1.7s-2.72.84-4 .53-2-2.07-3.35-2.2c-1.11-.09-2.22.88-3.35 1a13.4 13.4 0 0 1 -2.34-.44 6.1 6.1 0 0 0 -3.18.84c-1.07.52-2.3 1.35-2.42 2.55a6.84 6.84 0 0 0 .05 1l.18 1.57h-.72l-.09-1.34c0-.42-.11-.84-.16-1.25a4.71 4.71 0 0 1 .66-3.37c.94-1.29 2.6-1.55 4-1.58a5.17 5.17 0 0 0 2.16-.36c1.24-.54 2.12-2 3.4-2.33 1-.26 1.95.32 3 .4 1.26.11 2.54-.54 3.81-.95s2.79-.5 3.54.47a3.4 3.4 0 0 0 .58.75c.63.48 1.57 0 2.38-.3a3.83 3.83 0 0 1 4.48 1.32l.08.12a4.88 4.88 0 0 1 -.91 3.63z" fill="#3a556a"/></svg>