<svg height="512pt" viewBox="0 0 512 512" width="512pt" xmlns="http://www.w3.org/2000/svg"><path d="m347.457031 461.300781h-305.984375c-12.1875 0-22.066406-9.878906-22.066406-22.066406v-239.90625h328.050781zm0 0" fill="#5861c7"/><path d="m347.457031 461.300781h142.480469c12.183594 0 22.0625-9.878906 22.0625-22.066406v-63.601563c0-3.09375-.648438-6.152343-1.90625-8.976562l-49.988281-112.226562c-3.546875-7.957032-11.445313-13.085938-20.15625-13.085938h-92.488281v219.957031zm0 0" fill="#d476e2"/><g fill="#69ebfc"><path d="m463.386719 261.804688h-82.421875c-6.210938 0-11.25 5.035156-11.25 11.246093v80.089844c0 6.214844 5.039062 11.25 11.25 11.25h128.113281zm0 0"/><path d="m499.1875 426.851562h12.8125v-39.03125h-12.8125c-10.78125 0-19.515625 8.738282-19.515625 19.515626 0 10.777343 8.734375 19.515624 19.515625 19.515624zm0 0"/><path d="m32.222656 426.851562h-12.8125v-39.03125h12.8125c10.78125 0 19.515625 8.738282 19.515625 19.515626 0 10.777343-8.738281 19.515624-19.515625 19.515624zm0 0"/></g><path d="m167.109375 461.300781c0 28-22.699219 50.699219-50.703125 50.699219-28 0-50.699219-22.699219-50.699219-50.699219s22.699219-50.699219 50.699219-50.699219c28.003906 0 50.703125 22.699219 50.703125 50.699219zm0 0" fill="#339"/><path d="m142.542969 461.300781c0 14.433594-11.703125 26.132813-26.136719 26.132813s-26.132812-11.699219-26.132812-26.132813c0-14.433593 11.699218-26.136719 26.132812-26.136719s26.136719 11.703126 26.136719 26.136719zm0 0" fill="#6770e6"/><path d="m471.117188 461.300781c0 28-22.699219 50.699219-50.703126 50.699219-28 0-50.699218-22.699219-50.699218-50.699219s22.699218-50.699219 50.699218-50.699219c28.003907 0 50.703126 22.699219 50.703126 50.699219zm0 0" fill="#339"/><path d="m116.40625 500c-25.96875 0-47.363281-19.53125-50.332031-44.699219-.230469 1.96875-.367188 3.96875-.367188 6 0 28 22.699219 50.699219 50.699219 50.699219s50.703125-22.699219 50.703125-50.699219c0-2.03125-.136719-4.03125-.367187-6-2.96875 25.167969-24.363282 44.699219-50.335938 44.699219zm0 0" fill="#29297a"/><path d="m420.414062 500c-25.96875 0-47.363281-19.53125-50.332031-44.699219-.230469 1.96875-.367187 3.96875-.367187 6 0 28 22.699218 50.699219 50.699218 50.699219s50.703126-22.699219 50.703126-50.699219c0-2.03125-.136719-4.03125-.367188-6-2.96875 25.167969-24.363281 44.699219-50.335938 44.699219zm0 0" fill="#29297a"/><path d="m446.550781 461.300781c0 14.433594-11.703125 26.132813-26.136719 26.132813-14.429687 0-26.132812-11.699219-26.132812-26.132813 0-14.433593 11.703125-26.136719 26.132812-26.136719 14.433594 0 26.136719 11.703126 26.136719 26.136719zm0 0" fill="#6770e6"/><path d="m351.226562 134.960938h-335.585937c-8.636719 0-15.640625 7.003906-15.640625 15.644531v33.082031c0 8.636719 7.003906 15.640625 15.640625 15.640625h335.585937c8.636719 0 15.640626-7.003906 15.640626-15.640625v-33.082031c0-8.640625-7.003907-15.644531-15.640626-15.644531zm0 0" fill="#6770e6"/><path d="m351.226562 134.960938h-335.585937c-8.636719 0-15.640625 7.003906-15.640625 15.644531v15.832031c0-8.640625 7.003906-15.644531 15.640625-15.644531h335.585937c8.636719 0 15.640626 7.003906 15.640626 15.644531v-15.832031c0-8.640625-7.003907-15.644531-15.640626-15.644531zm0 0" fill="#8f95e6"/><path d="m242.59375 266.421875h-118.316406c-8.5 0-15.394532-6.894531-15.394532-15.394531s6.894532-15.390625 15.394532-15.390625h118.316406c8.5 0 15.390625 6.890625 15.390625 15.390625 0 8.503906-6.890625 15.394531-15.390625 15.394531zm0 0" fill="#339"/><path d="m187.160156 118.808594 47.359375-60.292969c3.617188-4.605469.335938-11.359375-5.523437-11.359375h-28.433594v-28.230469c0-10.453125-8.472656-18.925781-18.925781-18.925781-5.226563.00390625-9.953125 2.117188-13.378907 5.542969-3.429687 3.425781-5.542968 8.15625-5.546874 13.382812v28.230469h-28.433594c-5.855469 0-9.140625 6.75-5.519532 11.359375l47.359376 60.292969c2.8125 3.578125 8.234374 3.578125 11.042968 0zm0 0" fill="#d476e2"/><path d="m200.5625 61.15625h28.433594c1.082031 0 2.070312.234375 2.949218.636719l2.574219-3.277344c3.617188-4.605469.335938-11.359375-5.523437-11.359375h-28.433594zm0 0" fill="#ea82fa"/><path d="m131.332031 61.792969c.878907-.402344 1.867188-.636719 2.949219-.636719h28.433594v-28.230469c0-5.226562 2.117187-9.957031 5.542968-13.382812 3.425782-3.425781 8.15625-5.539063 13.378907-5.542969 10.453125 0 18.925781 8.472656 18.925781 18.925781v-14c0-10.453125-8.472656-18.925781-18.925781-18.925781-5.226563.00390625-9.953125 2.117188-13.378907 5.542969-3.429687 3.425781-5.542968 8.15625-5.546874 13.382812v28.230469h-28.433594c-5.855469 0-9.140625 6.75-5.519532 11.359375zm0 0" fill="#ea82fa"/></svg>