<svg height="512pt" viewBox="0 0 512 512.00473" width="512pt" xmlns="http://www.w3.org/2000/svg"><path d="m342.28125 163.105469-8.71875-6.921875-23.921875-19.019532-80.816406-64.28125c-12.5 6.722657-23.183594 13.582032-31.34375 20.261719 5.980469 5.660157 9.703125 13.679688 9.703125 22.558594 0 4.621094-1 9-2.820313 12.941406-3.28125 7.179688-9.199219 12.878907-16.519531 15.859375-3.621094 1.480469-7.582031 2.300782-11.742188 2.300782-17.179687 0-31.097656-13.921876-31.097656-31.101563 0-17.160156 13.898438-31.078125 31.078125-31.097656 0 0 0-.019531.019531 0 1.660157-1.679688 3.441407-3.359375 5.378907-5.039063 7.84375-6.820312 17.980469-13.761718 29.820312-20.582031l-6.117187-4.878906c-17.019532-13.539063-41.140625-13.539063-58.179688 0l-137.101562 109c-6.261719 4.980469-9.89843775 12.539062-9.89843775 20.539062v302.140625c0 14.480469 11.73828175 26.21875 26.21874975 26.21875h299.738282c14.480468 0 26.222656-11.738281 26.222656-26.21875v-302.140625c0-8-3.640625-15.558593-9.902344-20.539062zm0 0" fill="#ff8354"/><path d="m308.324219 331.550781c0 73.03125-59.203125 132.234375-132.230469 132.234375-73.03125 0-132.234375-59.203125-132.234375-132.234375 0-73.027343 59.203125-132.230469 132.234375-132.230469 73.027344 0 132.230469 59.203126 132.230469 132.230469zm0 0" fill="#e0734a"/><path d="m167.808594 405.34375c-10.390625-1.523438-19.632813-5.535156-27.746094-12.054688-4.726562-3.800781-8.664062-8.5625-11.808594-14.292968-3.816406-6.953125-.835937-15.695313 6.503906-18.695313 5.835938-2.382812 12.679688-.359375 15.9375 5.039063 1.050782 1.738281 2.253907 3.394531 3.613282 4.976562 3.730468 4.367188 8.230468 7.382813 13.496094 9.039063v-39.484375l-1.855469-.839844c-5.125-1.9375-9.945313-4.214844-14.445313-6.859375-4.5-2.625-8.453125-5.679687-11.84375-9.140625-3.410156-3.457031-6.113281-7.371094-8.113281-11.742188-2.015625-4.367187-3.023437-9.253906-3.023437-14.660156 0-4.980468.90625-9.695312 2.703124-14.132812 1.816407-4.425782 4.398438-8.382813 7.808594-11.84375 3.390625-3.460938 7.503906-6.34375 12.367188-8.625 4.84375-2.289063 10.308594-3.773438 16.402344-4.46875v-8.628906c0-5.109376 4.144531-9.25 9.253906-9.25s9.25 4.140624 9.25 9.25v9.042968c5.550781.824219 10.375 2.289063 14.449218 4.367188 4.09375 2.078125 7.59375 4.503906 10.613282 7.171875 1.160156 1.027343 2.277344 2.253906 3.335937 3.574219 5.253907 6.574218 2.585938 16.398437-5.097656 19.828124-5.261719 2.347657-11.324219.875-15.199219-3.390624-2.035156-2.242188-4.707031-4.4375-8.101562-5.988282v37.207032c5.972656 2.503906 11.363281 5.066406 16.222656 7.699218 4.84375 2.632813 9 5.609375 12.472656 8.9375 3.46875 3.320313 6.09375 7.101563 7.886719 11.320313 1.816406 4.238281 2.707031 9.121093 2.707031 14.65625 0 6.234375-1.070312 11.785156-3.210937 16.628906-2.15625 4.851563-5.023438 9.007813-8.632813 12.46875-3.613281 3.46875-7.789062 6.242187-12.570312 8.324219-4.785156 2.078125-9.746094 3.53125-14.871094 4.355468v9.042969c0 5.109375-4.140625 9.25-9.253906 9.25-5.109375 0-9.25-4.140625-9.25-9.25zm-13.699219-108.714844c0 3.332032 1.070313 6.207032 3.207031 8.628906 2.15625 2.429688 5.648438 4.894532 10.492188 7.382813v-30.347656c-4.15625 1.113281-7.464844 2.90625-9.96875 5.398437-2.5 2.5-3.730469 5.476563-3.730469 8.9375zm44.894531 66.941406c0-3.605468-.96875-6.589843-2.925781-8.941406-1.941406-2.359375-5.1875-4.710937-9.769531-7.070312v31.800781c3.753906-1.242187 6.800781-3.21875 9.160156-5.921875 2.34375-2.707031 3.535156-5.996094 3.535156-9.867188zm0 0" fill="#ffefe4"/><path d="m325.960938 498.003906h-299.738282c-14.480468 0-26.21874975-11.738281-26.21874975-26.21875v14c0 14.480469 11.73828175 26.21875 26.21874975 26.21875h299.738282c14.480468 0 26.222656-11.738281 26.222656-26.21875v-14c0 14.480469-11.742188 26.21875-26.222656 26.21875zm0 0" fill="#e0734a"/><path d="m510.941406 50.605469c-4-20.601563-18.339844-35.722657-41.480468-43.679688-64.378907-22.179687-189.636719 12.617188-258.160157 52.058594l17.523438 13.898437c25.699219-13.816406 59.097656-27.039062 93.878906-36.757812 36.679687-10.242188 70.277344-15.460938 97.679687-15.460938 16.640626 0 31 1.921876 42.339844 5.839844 16.179688 5.5625 25.320313 14.742188 27.898438 28.0625 9.160156 47.117188-82.296875 68.699219-110.558594 74.179688-22.441406 4.359375-46.660156 7.199218-70.421875 8.417968-22.316406 1.140626-44.238281.820313-63.878906-1.039062-18.238281-1.742188-31.679688-4.460938-41.398438-7.480469-3.082031-.980469-5.800781-1.960937-8.160156-2.960937-9.820313-4.140625-13.761719-8.398438-14.300781-11.117188-.621094-3.28125 2.5-10.101562 13.160156-19.382812.78125-.679688 1.578125-1.359375 2.417969-2.039063-5.578125-5.300781-13.097657-8.539062-21.378907-8.539062-.019531-.019531-.019531 0-.019531 0-9.941406 9.980469-14.960937 19.699219-14.960937 29 0 1.660156.160156 3.300781.480468 4.917969 2.28125 11.78125 12.5 20.101562 26.242188 25.980468 16.160156 6.902344 37.179688 10.441406 55.957031 12.222656 12.660157 1.199219 26.203125 1.777344 40.179688 1.777344 16.160156 0 32.941406-.800781 49.582031-2.320312 17.199219-1.578125 34.28125-3.957032 50.460938-7.117188 89.4375-17.382812 135.699218-53.261718 126.917968-98.460937zm0 0" fill="#6770e6"/><path d="m176.101562 84.605469c-.019531-.019531-.019531 0-.019531 0-9.941406 9.980469-14.960937 19.699219-14.960937 29 0 1.660156.160156 3.300781.480468 4.917969.128907.671874.292969 1.332031.476563 1.980468 1.882813-7.109375 6.566406-14.429687 14.003906-21.898437 0 0 0-.019531.019531 0 1.660157-1.679688 3.441407-3.359375 5.378907-5.039063 2.324219-2.023437 4.875-4.054687 7.589843-6.09375-3.953124-1.820312-8.332031-2.867187-12.96875-2.867187zm0 0" fill="#8f95e6"/><path d="m510.941406 50.605469c-4-20.601563-18.339844-35.722657-41.480468-43.679688-64.378907-22.179687-189.636719 12.617188-258.160157 52.058594l10.441407 8.28125c70.175781-36.972656 186.476562-67.441406 247.71875-46.339844 23.140624 7.957031 37.480468 23.078125 41.480468 43.679688.234375 1.207031.410156 2.40625.566406 3.601562.765626-5.6875.609376-11.558593-.566406-17.601562zm0 0" fill="#8f95e6"/><path d="m228.824219 72.882812c-12.5 6.722657-23.183594 13.582032-31.34375 20.261719-5.578125-5.300781-13.097657-8.539062-21.378907-8.539062 1.660157-1.679688 3.441407-3.359375 5.378907-5.039063 7.84375-6.820312 17.980469-13.761718 29.820312-20.582031zm0 0" fill="#ff8354"/><path d="m342.28125 163.105469-8.71875-6.921875c-5.355469.492187-10.722656.878906-16.082031 1.214844l16.082031 12.785156 8.71875 6.921875c6.261719 4.980469 9.902344 12.539062 9.902344 20.539062v-14c0-8-3.640625-15.558593-9.902344-20.539062zm0 0" fill="#ffac8c"/><path d="m205.183594 68.105469 6.117187 4.878906 17.523438 13.898437 63.949219 50.863282c5.578124-.097656 11.207031-.292969 16.867187-.582032l-80.816406-64.28125-17.523438-13.898437-6.117187-4.878906c-17.019532-13.539063-41.140625-13.539063-58.179688 0l-137.101562 109c-6.261719 4.980469-9.89843775 12.539062-9.89843775 20.539062v14c0-8 3.63671875-15.558593 9.89843775-20.539062l137.101562-109c17.039063-13.539063 41.160156-13.539063 58.179688 0zm0 0" fill="#ffac8c"/><path d="m489.207031 512.003906h-215.507812c-12.589844 0-22.796875-10.207031-22.796875-22.796875v-127.226562c0-12.589844 10.207031-22.796875 22.796875-22.796875h215.507812c12.589844 0 22.796875 10.207031 22.796875 22.796875v127.226562c0 12.589844-10.207031 22.796875-22.796875 22.796875zm0 0" fill="#ffefe4"/><path d="m489.207031 339.183594h-215.507812c-12.589844 0-22.796875 10.207031-22.796875 22.796875v14c0-12.589844 10.207031-22.796875 22.796875-22.796875h215.507812c12.589844 0 22.796875 10.207031 22.796875 22.796875v-14c0-12.589844-10.207031-22.796875-22.796875-22.796875zm0 0" fill="#fff7f2"/><path d="m273.699219 512.003906h215.507812c12.589844 0 22.796875-10.207031 22.796875-22.796875v-14c0 12.589844-10.207031 22.796875-22.796875 22.796875h-215.507812c-12.589844 0-22.796875-10.207031-22.796875-22.796875v14c0 12.589844 10.207031 22.796875 22.796875 22.796875zm0 0" fill="#edd4c2"/><g fill="#6770e6"><path d="m273.378906 370.109375h9.726563v116.816406h-9.726563zm0 0"/><path d="m295.277344 370.109375h17.003906v93.273437h-17.003906zm0 0"/><path d="m322.007812 370.109375h16.9375v93.273437h-16.9375zm0 0"/><path d="m360.910156 370.109375h9.726563v93.273437h-9.726563zm0 0"/><path d="m345.414062 370.109375h9.726563v93.273437h-9.726563zm0 0"/><path d="m381.453125 370.109375h18.359375v93.273437h-18.359375zm0 0"/><path d="m409.539062 370.109375h9.726563v93.273437h-9.726563zm0 0"/><path d="m428.992188 370.109375h21.546874v93.273437h-21.546874zm0 0"/><path d="m458.167969 370.109375h9.722656v93.273437h-9.722656zm0 0"/><path d="m477.617188 370.109375h9.726562v116.816406h-9.726562zm0 0"/><path d="m312.28125 482.0625c0 2.6875-2.175781 4.863281-4.859375 4.863281h-7.277344c-2.6875 0-4.863281-2.179687-4.863281-4.863281 0-2.6875 2.179688-4.863281 4.863281-4.863281h7.277344c2.683594 0 4.859375 2.175781 4.859375 4.863281zm0 0"/><path d="m338.976562 482.0625c0 2.6875-2.179687 4.863281-4.863281 4.863281h-7.273437c-2.6875 0-4.863282-2.179687-4.863282-4.863281 0-2.6875 2.179688-4.863281 4.863282-4.863281h7.273437c2.6875 0 4.863281 2.175781 4.863281 4.863281zm0 0"/><path d="m399.808594 482.066406c0 2.683594-2.175782 4.859375-4.859375 4.859375h-44.671875c-2.683594 0-4.859375-2.175781-4.859375-4.859375 0-2.6875 2.175781-4.863281 4.859375-4.863281h44.671875c2.683593-.003906 4.859375 2.175781 4.859375 4.863281zm0 0"/><path d="m419.265625 482.0625c0 2.6875-2.179687 4.863281-4.863281 4.863281-2.6875 0-4.863282-2.179687-4.863282-4.863281 0-2.6875 2.179688-4.863281 4.863282-4.863281s4.863281 2.179687 4.863281 4.863281zm0 0"/><path d="m467.890625 482.0625c0 2.6875-2.175781 4.863281-4.859375 4.863281-2.6875 0-4.863281-2.179687-4.863281-4.863281 0-2.6875 2.179687-4.863281 4.863281-4.863281s4.859375 2.179687 4.859375 4.863281zm0 0"/><path d="m450.539062 482.066406c0 2.683594-2.179687 4.859375-4.863281 4.859375h-11.824219c-2.683593 0-4.859374-2.175781-4.859374-4.859375 0-2.6875 2.175781-4.863281 4.859374-4.863281h11.824219c2.6875-.003906 4.863281 2.175781 4.863281 4.863281zm0 0"/></g></svg>