<svg height="512pt" viewBox="0 0 512 512" width="512pt" xmlns="http://www.w3.org/2000/svg"><path d="m9.746094 128h492v384h-492zm0 0" fill="#ffefe4"/><path d="m9.746094 498h492v14h-492zm0 0" fill="#edd4c2"/><path d="m36.570312 200c-20.195312 0-36.570312-16.375-36.570312-36.570312v-35.429688h73.140625v35.429688c0 20.195312-16.371094 36.570312-36.570313 36.570312zm0 0" fill="#e0734a"/><path d="m109.714844 200c-20.199219 0-36.574219-16.375-36.574219-36.570312v-35.429688h73.144531v35.429688c0 20.195312-16.375 36.570312-36.570312 36.570312zm0 0" fill="#edd4c2"/><path d="m182.859375 200c-20.199219 0-36.574219-16.375-36.574219-36.570312v-35.429688h73.144532v35.429688c0 20.195312-16.375 36.570312-36.570313 36.570312zm0 0" fill="#e0734a"/><path d="m256 200c-20.199219 0-36.570312-16.375-36.570312-36.570312v-35.429688h73.140624v35.429688c0 20.195312-16.371093 36.570312-36.570312 36.570312zm0 0" fill="#edd4c2"/><path d="m329.144531 200c-20.199219 0-36.574219-16.375-36.574219-36.570312v-35.429688h73.144532v35.429688c0 20.195312-16.375 36.570312-36.570313 36.570312zm0 0" fill="#e0734a"/><path d="m402.285156 200c-20.195312 0-36.570312-16.375-36.570312-36.570312v-35.429688h73.140625v35.429688c.003906 20.195312-16.371094 36.570312-36.570313 36.570312zm0 0" fill="#edd4c2"/><path d="m475.429688 200c-20.199219 0-36.574219-16.375-36.574219-36.570312v-35.429688h73.140625v35.429688c.003906 20.195312-16.371094 36.570312-36.566406 36.570312zm0 0" fill="#e0734a"/><path d="m141.140625 0h-51.542969c-4.734375 0-9.140625 2.410156-11.695312 6.394531l-77.902344 121.605469h73.140625zm0 0" fill="#ff8354"/><path d="m194.285156 0h-53.144531l-68 128h73.144531zm0 0" fill="#ffefe4"/><path d="m235.429688 0h-41.144532l-48 128h73.144532zm0 0" fill="#ff8354"/><path d="m370.859375 0h51.546875c4.730469 0 9.140625 2.410156 11.691406 6.394531l77.902344 121.605469h-73.140625zm0 0" fill="#ff8354"/><path d="m317.714844 0h53.144531l68 128h-73.144531zm0 0" fill="#ffefe4"/><path d="m276.285156 0h41.429688l48 128h-73.144532zm0 0" fill="#ff8354"/><path d="m276.285156 0h-40.855468l-15.429688 124.34375v3.65625h72v-3.65625zm0 0" fill="#ffefe4"/><path d="m129.140625 393.648438c-1.820313 0-3.652344-.617188-5.15625-1.882813-3.375-2.851563-3.800781-7.898437-.953125-11.277344l126.601562-150c1.519532-1.796875 3.757813-2.839843 6.113282-2.839843 2.359375 0 4.597656 1.042968 6.117187 2.839843l126.601563 150c2.851562 3.378907 2.425781 8.425781-.953125 11.277344-3.375 2.847656-8.425781 2.421875-11.273438-.957031l-120.492187-142.753906-120.488282 142.753906c-1.582031 1.875-3.84375 2.839844-6.117187 2.839844zm0 0" fill="#5861c7"/><path d="m448.578125 470.15625h-385.15625c-11.691406 0-21.167969-9.476562-21.167969-21.167969v-116.832031c0-11.691406 9.476563-21.167969 21.167969-21.167969h385.15625c11.695313 0 21.167969 9.476563 21.167969 21.167969v116.832031c0 11.695313-9.476563 21.167969-21.167969 21.167969zm0 0" fill="#d476e2"/><path d="m70.890625 450.160156c-4.769531 0-8.636719-3.867187-8.636719-8.636718v-101.898438c0-4.769531 3.867188-8.640625 8.636719-8.640625h370.21875c4.769531 0 8.636719 3.867187 8.636719 8.636719v101.898437c0 4.769531-3.867188 8.636719-8.636719 8.636719h-370.21875zm0 0" fill="#b665c2"/><path d="m255.746094 261.542969c-12.449219 0-22.636719-10.183594-22.636719-22.636719 0-12.449219 10.1875-22.636719 22.636719-22.636719 12.453125 0 22.640625 10.183594 22.640625 22.636719s-10.1875 22.636719-22.640625 22.636719zm0 0" fill="#b665c2"/><path d="m438.96875 14-4.871094-7.605469c-2.554687-3.984375-6.960937-6.394531-11.695312-6.394531h-51.546875l7.4375 14zm0 0" fill="#ffac8c"/><path d="m378.292969 14-7.433594-14h-53.144531l5.25 14zm0 0" fill="#fff7f2"/><path d="m322.964844 14-5.25-14h-41.429688l1.78125 14zm0 0" fill="#ffac8c"/><path d="m278.054688 14-1.769532-14h-40.855468l-1.738282 14zm0 0" fill="#fff7f2"/><path d="m233.679688 14 1.75-14h-41.144532l-5.25 14zm0 0" fill="#ffac8c"/><path d="m189.035156 14 5.25-14h-53.140625l-7.4375 14zm0 0" fill="#fff7f2"/><path d="m77.902344 6.394531-4.871094 7.605469h60.675781l7.4375-14h-51.546875c-4.734375 0-9.140625 2.410156-11.695312 6.394531zm0 0" fill="#ffac8c"/><g fill="#ffefe4"><path d="m160.617188 428.871094c-5.460938 0-10.53125-.988282-15.207032-2.96875-4.675781-1.980469-8.722656-4.695313-12.132812-8.140625-3.417969-3.449219-6.09375-7.507813-8.042969-12.1875-1.945313-4.675781-2.917969-9.675781-2.917969-15.003907 0-5.324218.972656-10.324218 2.917969-15 1.949219-4.675781 4.625-8.738281 8.042969-12.1875 3.414062-3.445312 7.457031-6.160156 12.132812-8.140624 4.675782-1.976563 9.742188-2.96875 15.207032-2.96875 5.460937 0 10.53125.992187 15.207031 2.96875 4.675781 1.980468 8.71875 4.695312 12.132812 8.140624 3.414063 3.449219 6.09375 7.511719 8.039063 12.1875 1.949218 4.675782 2.917968 9.675782 2.917968 15 0 5.328126-.96875 10.328126-2.917968 15.003907-1.945313 4.675781-4.625 8.738281-8.039063 12.1875-3.414062 3.445312-7.457031 6.160156-12.132812 8.140625-4.675781 1.980468-9.746094 2.96875-15.207031 2.96875zm0-13.105469c3.414062 0 6.605468-.617187 9.574218-1.84375 2.96875-1.230469 5.566406-2.9375 7.78125-5.121094 2.21875-2.183593 3.960938-4.832031 5.222656-7.9375 1.261719-3.105469 1.894532-6.539062 1.894532-10.292969 0-3.753906-.632813-7.183593-1.894532-10.289062-1.261718-3.105469-3.003906-5.75-5.222656-7.9375-2.214844-2.183594-4.8125-3.890625-7.78125-5.121094-2.96875-1.226562-6.160156-1.84375-9.574218-1.84375-3.414063 0-6.605469.617188-9.574219 1.84375-2.972657 1.230469-5.566407 2.9375-7.78125 5.121094-2.222657 2.1875-3.960938 4.832031-5.222657 7.9375-1.265624 3.105469-1.894531 6.535156-1.894531 10.289062 0 3.753907.628907 7.1875 1.894531 10.292969 1.261719 3.105469 3 5.753907 5.222657 7.9375 2.214843 2.183594 4.808593 3.890625 7.78125 5.121094 2.96875 1.226563 6.160156 1.84375 9.574219 1.84375zm0 0"/><path d="m206.914062 420.679688v-57.484376c0-5.125 4.15625-9.285156 9.285157-9.285156h16.523437c3.480469 0 6.742188.566406 9.78125 1.691406 3.035156 1.125 5.683594 2.714844 7.9375 4.761719 2.25 2.046875 4.027344 4.492188 5.324219 7.324219 1.292969 2.832031 1.945313 5.957031 1.945313 9.367188 0 3.484374-.648438 6.640624-1.945313 9.472656-1.296875 2.835937-3.074219 5.273437-5.324219 7.324218-2.253906 2.046876-4.902344 3.632813-7.9375 4.761719-3.039062 1.125-6.296875 1.6875-9.78125 1.6875h-11.980468v20.378907c0 3.621093-2.933594 6.554687-6.554688 6.554687h-.714844c-3.621094-.003906-6.558594-2.9375-6.558594-6.554687zm26.011719-33.484376c3.617188 0 6.351563-1.023437 8.195313-3.074218 1.839844-2.046875 2.761718-4.402344 2.761718-7.066406 0-1.292969-.222656-2.558594-.664062-3.789063-.445312-1.230469-1.125-2.304687-2.046875-3.226563-.921875-.921874-2.066406-1.65625-3.433594-2.199218-1.363281-.546875-2.964843-.820313-4.808593-.820313h-12.1875v20.171875h12.183593zm0 0"/><path d="m279.53125 367.019531v17h22.835938c3.617187 0 6.554687 2.933594 6.554687 6.554688 0 3.621093-2.9375 6.554687-6.554687 6.554687h-22.835938v17h26.113281c3.621094 0 6.554688 2.933594 6.554688 6.554688 0 3.617187-2.933594 6.550781-6.554688 6.550781h-30.65625c-5.125 0-9.28125-4.15625-9.28125-9.28125v-54.753906c0-5.128907 4.15625-9.285157 9.28125-9.285157h30.65625c3.621094 0 6.554688 2.933594 6.554688 6.554688s-2.933594 6.554688-6.554688 6.554688h-26.113281zm0 0"/><path d="m331.988281 353.910156h1.535157c3.261718 0 6.28125 1.710938 7.960937 4.511719l26.789063 44.644531v-42.601562c0-3.617188 2.933593-6.554688 6.550781-6.554688h.617187c3.621094 0 6.554688 2.9375 6.554688 6.554688v57.484375c0 5.125-4.15625 9.285156-9.285156 9.285156-3.261719 0-6.28125-1.710937-7.960938-4.511719l-28.429688-47.40625v45.363282c0 3.621093-2.933593 6.554687-6.550781 6.554687h-.511719c-3.621093 0-6.554687-2.933594-6.554687-6.554687v-57.484376c.003906-5.128906 4.160156-9.285156 9.285156-9.285156zm0 0"/></g></svg>