<svg height="512pt" viewBox="0 0 512.00159 512" width="512pt" xmlns="http://www.w3.org/2000/svg"><path d="m301.367188 512h-271.566407c-17.410156 0-31.109375-14.855469-29.699219-32.207031l27.046876-332.996094c.359374-4.394531 4.027343-7.78125 8.4375-7.78125h259.992187c4.410156 0 8.082031 3.386719 8.4375 7.78125l27.046875 332.996094c1.410156 17.351562-12.289062 32.207031-29.695312 32.207031zm0 0" fill="#6770e6"/><path d="m33.277344 153.015625h264.613281c2.8125 0 5.332031 1.332031 6.910156 3.410156l-.78125-9.628906c-.359375-4.394531-4.03125-7.78125-8.441406-7.78125h-259.992187c-4.410157 0-8.082032 3.386719-8.4375 7.78125l-.78125 9.628906c1.578124-2.078125 4.09375-3.410156 6.910156-3.410156zm0 0" fill="#8f95e6"/><path d="m330.585938 473.886719c-2.640626 13.628906-14.605469 24.113281-29.21875 24.113281h-271.566407c-14.613281 0-26.578125-10.484375-29.222656-24.113281l-.4804688 5.90625c-1.4062502 17.351562 12.2968748 32.207031 29.7031248 32.207031h271.566407c17.40625 0 31.105468-14.855469 29.695312-32.207031zm0 0" fill="#5861c7"/><g fill="#69ebfc"><path d="m96.390625 199.46875c0 9.199219-7.457031 16.65625-16.652344 16.65625-9.199219 0-16.65625-7.457031-16.65625-16.65625 0-9.195312 7.457031-16.652344 16.65625-16.652344 9.195313 0 16.652344 7.457032 16.652344 16.652344zm0 0"/><path d="m268.082031 199.46875c0 9.199219-7.457031 16.65625-16.65625 16.65625-9.195312 0-16.652343-7.457031-16.652343-16.65625 0-9.195312 7.457031-16.652344 16.652343-16.652344 9.199219 0 16.65625 7.457032 16.65625 16.652344zm0 0"/><path d="m251.011719 208.558594c-5.574219 0-10.097657-4.523438-10.097657-10.097656v-101.757813c0-41.589844-33.207031-76.097656-74.792968-76.5-41.992188-.40625-76.285156 33.632813-76.285156 75.535156v102.71875c0 5.578125-4.519532 10.097657-10.097657 10.097657s-10.097656-4.519532-10.097656-10.097657v-101.5c0-52.707031 42.089844-96.441406 94.792969-96.95312475 53.21875-.51562525 96.679687 42.62890575 96.679687 95.73437475v102.71875c0 5.578125-4.523437 10.101563-10.101562 10.101563zm0 0"/></g><path d="m164.429688.00390625c-52.703126.51171875-94.789063 44.24609375-94.789063 96.95703175v10c0-52.710938 42.085937-96.445313 94.789063-96.953126 53.222656-.515624 96.683593 42.628907 96.683593 95.730469v-10c0-53.101562-43.460937-96.25-96.683593-95.73437475zm0 0" fill="#a1f1fc"/><path d="m512 462.820312v-102.320312c-27.160156 0-49.179688-22.019531-49.179688-49.179688h-235.003906c0 27.164063-22.019531 49.179688-49.183594 49.179688v102.320312c27.164063 0 49.183594 22.019532 49.183594 49.179688h235.003906c0-27.164062 22.019532-49.179688 49.179688-49.179688zm0 0" fill="#339"/><path d="m462.820312 311.320312h-235.003906c0 27.164063-22.019531 49.179688-49.183594 49.179688v14c27.164063 0 59.183594-22.019531 59.183594-49.179688h217.003906c0 27.164063 30.019532 49.179688 57.179688 49.179688v-14c-27.160156 0-49.179688-22.019531-49.179688-49.179688zm0 0" fill="#5861c7"/><path d="m462.820312 512h-235.003906c0-27.164062-22.019531-49.179688-49.183594-49.179688v-14c27.164063 0 59.183594 22.019532 59.183594 49.179688h217.003906c0-27.164062 30.019532-49.179688 57.179688-49.179688v14c-27.160156 0-49.179688 22.015626-49.179688 49.179688zm0 0" fill="#29297a"/><path d="m273.910156 377.289062c0-4.289062.824219-8.332031 2.480469-12.128906 1.652344-3.796875 3.917969-7.140625 6.800781-10.019531 2.875-2.875 6.277344-5.144531 10.199219-6.800781 3.921875-1.652344 8.207031-2.476563 12.867187-2.476563 4.65625 0 8.972657.824219 12.957032 2.476563 3.984375 1.65625 7.414062 3.925781 10.292968 6.800781 2.878907 2.878906 5.148438 6.222656 6.800782 10.019531 1.65625 3.800782 2.484375 7.839844 2.484375 12.128906 0 4.289063-.828125 8.363282-2.484375 12.222657-1.652344 3.863281-3.921875 7.203125-6.800782 10.019531-2.878906 2.816406-6.308593 5.050781-10.292968 6.707031-3.980469 1.652344-8.300782 2.480469-12.957032 2.480469-4.660156 0-8.945312-.828125-12.867187-2.480469-3.921875-1.65625-7.324219-3.890625-10.199219-6.707031-2.882812-2.820312-5.148437-6.160156-6.800781-10.019531-1.65625-3.859375-2.480469-7.933594-2.480469-12.222657zm19.664063 0c0 4.042969 1.226562 7.292969 3.679687 9.742188 2.449219 2.453125 5.449219 3.675781 9.003906 3.675781 3.554688 0 6.554688-1.222656 9.007813-3.675781 2.449219-2.449219 3.675781-5.699219 3.675781-9.742188 0-4.042968-1.226562-7.289062-3.675781-9.742187-2.453125-2.449219-5.453125-3.675781-9.007813-3.675781-3.554687 0-6.554687 1.222656-9.003906 3.675781-2.453125 2.453125-3.679687 5.699219-3.679687 9.742187zm8.539062 83.171876 71.878907-107.332032c2.6875-4.015625 8.125-5.089844 12.136718-2.398437 4.007813 2.6875 5.078125 8.117187 2.394532 12.125l-71.882813 107.332031c-2.6875 4.015625-8.121094 5.089844-12.132813 2.398438-4.007812-2.6875-5.082031-8.113282-2.394531-12.125zm49.726563-14.429688c0-4.289062.828125-8.332031 2.484375-12.128906 1.652343-3.796875 3.917969-7.136719 6.800781-10.015625 2.875-2.878907 6.277344-5.148438 10.199219-6.800781 3.921875-1.65625 8.210937-2.484376 12.867187-2.484376s8.972656.828126 12.957032 2.484376c3.980468 1.652343 7.414062 3.921874 10.292968 6.800781 2.878906 2.878906 5.144532 6.21875 6.800782 10.015625 1.652343 3.800781 2.480468 7.839844 2.480468 12.128906s-.828125 8.363281-2.480468 12.222656c-1.65625 3.863282-3.921876 7.203125-6.800782 10.015625-2.878906 2.820313-6.3125 5.058594-10.292968 6.710938-3.984376 1.65625-8.300782 2.480469-12.957032 2.480469s-8.945312-.824219-12.867187-2.480469c-3.921875-1.652344-7.324219-3.890625-10.199219-6.710938-2.882812-2.816406-5.148438-6.152343-6.800781-10.015625-1.65625-3.859375-2.484375-7.933594-2.484375-12.222656zm19.667968 0c0 4.042969 1.222657 7.292969 3.679688 9.742188 2.449219 2.453124 5.449219 3.679687 9.003906 3.679687 3.550782 0 6.554688-1.226563 9.007813-3.679687 2.449219-2.449219 3.675781-5.699219 3.675781-9.742188s-1.226562-7.289062-3.675781-9.742188c-2.453125-2.449218-5.453125-3.675781-9.007813-3.675781-3.554687 0-6.554687 1.226563-9.003906 3.675781-2.457031 2.453126-3.679688 5.699219-3.679688 9.742188zm0 0" fill="#ffefe4"/></svg>