<svg height="512pt" viewBox="0 0 512 512" width="512pt" xmlns="http://www.w3.org/2000/svg"><path d="m112.859375 0h286.125v197.613281h-286.125zm0 0" fill="#b665c2"/><path d="m112.859375 0h286.125v14h-286.125zm0 0" fill="#d476e2"/><path d="m512 19.800781v492.199219h-512v-492.199219l92.441406-16.222656 20.417969-3.578125v37.039062c0 79.054688 64.085937 143.140626 143.140625 143.140626s143.140625-64.085938 143.140625-143.140626v-36.839843zm0 0" fill="#d476e2"/><path d="m0 498h512v14h-512zm0 0" fill="#b665c2"/><path d="m112.859375 14v-14l-20.417969 3.578125-92.441406 16.222656v14l92.441406-16.222656zm0 0" fill="#ea82fa"/><path d="m399.140625.199219v14l112.859375 19.601562v-14zm0 0" fill="#ea82fa"/><g fill="#69ebfc"><path d="m280.84375 333.675781c0 13.238281-10.730469 23.96875-23.96875 23.96875s-23.972656-10.730469-23.972656-23.96875 10.734375-23.972656 23.972656-23.972656 23.96875 10.734375 23.96875 23.972656zm0 0"/><path d="m280.84375 439.476562c0 13.238282-10.730469 23.96875-23.96875 23.96875s-23.972656-10.730468-23.972656-23.96875c0-13.238281 10.734375-23.96875 23.972656-23.96875s23.96875 10.730469 23.96875 23.96875zm0 0"/><path d="m92.441406 3.578125-74.140625 13.011719c.347657 42.375 8.425781 101.59375 44.488281 145.984375 80.867188 99.554687 193.210938 17.605469 193.210938 17.605469-79.054688 0-143.140625-64.085938-143.140625-143.140626v-37.039062zm0 0"/></g><path d="m18.699219 30.519531 73.742187-12.941406 20.417969-3.578125v-14l-20.417969 3.578125-74.140625 13.011719c.039063 4.464844.164063 9.125.398438 13.929687zm0 0" fill="#a1f1fc"/><path d="m419.558594 3.578125 74.140625 13.011719c-.347657 42.375-8.425781 101.59375-44.488281 145.984375-80.867188 99.554687-193.210938 17.605469-193.210938 17.605469 79.054688 0 143.140625-64.085938 143.140625-143.140626v-37.039062zm0 0" fill="#69ebfc"/><path d="m493.699219 16.621094-94.558594-16.421875v14l94.160156 16.351562c.230469-4.800781.359375-9.460937.398438-13.929687zm0 0" fill="#a1f1fc"/><path d="m340.34375 201.128906c-20.871094-15.847656-68.199219-22.113281-84.34375-12.125-16.148438-9.988281-63.472656-3.722656-84.34375 12.125-14.441406 10.96875-17.683594 26.195313-8.890625 41.78125 6.367187 11.292969 16.558594 17.378906 28.933594 17.378906 1.035156 0 2.089843-.042968 3.15625-.128906 11.601562-.9375 24.210937-7.097656 35.367187-15.296875-9.171875 20.140625-21.90625 42.292969-37.875 56.105469-4.179687 3.613281-4.636718 9.929688-1.027344 14.105469 1.980469 2.289062 4.769532 3.457031 7.570313 3.457031 2.316406 0 4.644531-.800781 6.539063-2.433594 24.484374-21.175781 41.664062-57.539062 51.449218-83.066406 9.785156 25.53125 26.964844 61.890625 51.449219 83.066406 1.890625 1.632813 4.21875 2.433594 6.539063 2.433594 2.800781 0 5.589843-1.171875 7.566406-3.457031 3.613281-4.175781 3.15625-10.492188-1.023438-14.105469-15.453125-13.363281-27.894531-34.597656-37.007812-54.238281 10.484375 7.253906 22.042968 12.566406 32.746094 13.429687 1.066406.085938 2.121093.128906 3.15625.128906 12.375 0 22.566406-6.089843 28.933593-17.378906 8.789063-15.585937 5.546875-30.8125-8.894531-41.78125zm-144.511719 38.742188c-7.480469 1.421875-12.164062-.609375-15.648437-6.785156-3.789063-6.71875-2.335938-10.375 1.015625-13.796876 10.191406-10.40625 36.519531-15.09375 52.441406-15.09375 2.957031 0 5.550781.164063 7.621094.480469-5.800781 10.40625-27.496094 31.789063-45.429688 35.195313zm135.984375-6.785156c-3.484375 6.175781-8.164062 8.203124-15.648437 6.78125-17.933594-3.40625-39.628907-24.789063-45.429688-35.195313 13.21875-2.019531 47.980469 2.277344 60.0625 14.613281 3.351563 3.421875 4.804688 7.078125 1.015625 13.800782zm0 0" fill="#5fd4e3"/><path d="m280.84375 201.613281c0 13.238281-10.730469 23.972657-23.96875 23.972657s-23.972656-10.734376-23.972656-23.972657 10.734375-23.96875 23.972656-23.96875 23.96875 10.730469 23.96875 23.96875zm0 0" fill="#69ebfc"/></svg>