<svg id="Layer_1" height="512" viewBox="0 0 150 150" width="512" xmlns="http://www.w3.org/2000/svg" data-name="Layer 1"><circle cx="75" cy="75" fill="#fcd462" r="64"/><path d="m112.65 113.17a5.77 5.77 0 0 0 -3.41-2.85c-1.42-.53-2.94-.74-4.4-1.16a16 16 0 0 1 -4.93-2.42c-.26-.88-.56-1.76-.79-2.62-1.15-4.35-.41-8.93 0-13.4s.45-9.26-1.87-13.1c-3.33-5.49-11.5-7.27-16.8-3.67l2.62 3.52c2.61-2.34 7.12-1 9.08 1.92s2 6.69 1.55 10.16a45.25 45.25 0 0 1 -5.54 16.56 16.06 16.06 0 0 1 -5.74 3c-1.46.42-3 .63-4.4 1.16a5.77 5.77 0 0 0 -3.41 2.85 4 4 0 0 0 .45 3.94c1.45 1.94 4.26 2.12 6.69 2.13h5.08 13.58 5.08c2.43 0 5.24-.19 6.69-2.13a4 4 0 0 0 .47-3.89z" fill="#3a556a"/><path d="m66.45 46.41-28.61 21.92a8.92 8.92 0 0 0 -1.66 12.5l13.15 17.17a8.93 8.93 0 0 0 12.51 1.66l28.61-21.91z" fill="#2d93ba"/><path d="m90.45 77.74-28.61 21.92a8.93 8.93 0 0 1 -12.51-1.66l-4.33-5.62a9.56 9.56 0 0 0 8.84-1.54l29.38-22.5z" fill="#1c75a1"/><path d="m54.35 30.74v46a3.71 3.71 0 1 0 7.42 0v-46z" fill="#3a556a"/><path d="m58.06 75.08a1.7 1.7 0 1 0 1.69 1.69 1.69 1.69 0 0 0 -1.69-1.69z" fill="#d5d6db"/><g fill="#3a556a"><path d="m114.34 94.67a5.82 5.82 0 0 0 -5.87-.61c-4 1.88-6.55 6.58-7.21 8.55a.32.32 0 0 0 .2.4.32.32 0 0 0 .39-.18c.5-1.15 2.28-3.85 5.08-4.37a7.14 7.14 0 0 1 3.13.36 7 7 0 0 0 3.77.35 2.6 2.6 0 0 0 1.32-.83c1.06-1.27.29-2.82-.81-3.67z"/><path d="m110.66 105.46a2 2 0 0 0 -1.74-.91 3.14 3.14 0 0 0 -1.88.72 7 7 0 0 0 -1.33 1.44l.09.2a4.43 4.43 0 0 1 .85-.88 1.67 1.67 0 0 1 1.25-.32 2.37 2.37 0 0 1 .92.5 2.81 2.81 0 0 0 .91.54.9.9 0 0 0 1-.26 1 1 0 0 0 -.07-1.03z"/><path d="m77.66 97.46a4.38 4.38 0 0 1 4.27-.07 6.94 6.94 0 0 1 2.94 3.25 16.11 16.11 0 0 1 1.13 4.11l-.38.31a9.33 9.33 0 0 0 -.79-2.55 3.59 3.59 0 0 0 -2.1-1.86 5.17 5.17 0 0 0 -2.28.07 6.06 6.06 0 0 1 -2.28.14 2 2 0 0 1 -1.62-1.44 2.1 2.1 0 0 1 1.11-1.96z"/><path d="m84.43 93.71a1.22 1.22 0 0 1 1.21 0 1.93 1.93 0 0 1 .84.92 4.74 4.74 0 0 1 .33 1.17l-.1.09a3.1 3.1 0 0 0 -.23-.73 1 1 0 0 0 -.6-.52 1.43 1.43 0 0 0 -.65 0 1.77 1.77 0 0 1 -.65.05.5.5 0 0 1 -.15-1z"/></g></svg>