<svg height="512pt" viewBox="-32 0 512 512" width="512pt" xmlns="http://www.w3.org/2000/svg"><path d="m406.804688 512h-366.21875c-22.414063 0-40.585938-18.171875-40.585938-40.585938v-430.828124c0-22.414063 18.171875-40.585938 40.585938-40.585938h366.21875c22.414062 0 40.585937 18.171875 40.585937 40.585938v430.828124c0 22.414063-18.167969 40.585938-40.585937 40.585938zm0 0" fill="#6770e6"/><path d="m406.808594 0h-366.222656c-22.414063 0-40.585938 18.171875-40.585938 40.585938v14c0-22.414063 18.171875-40.585938 40.585938-40.585938h366.21875c22.414062 0 40.585937 18.171875 40.585937 40.585938v-14c0-22.414063-18.167969-40.585938-40.582031-40.585938zm0 0" fill="#8f95e6"/><path d="m40.585938 512h366.21875c22.414062 0 40.585937-18.171875 40.585937-40.585938v-14c0 22.414063-18.171875 40.585938-40.585937 40.585938h-366.21875c-22.414063 0-40.585938-18.171875-40.585938-40.585938v14c0 22.414063 18.171875 40.585938 40.585938 40.585938zm0 0" fill="#5861c7"/><path d="m375.601562 140.859375h-303.8125c-15.238281 0-27.589843-12.351563-27.589843-27.589844v-43.628906c0-15.238281 12.351562-27.589844 27.589843-27.589844h303.8125c15.238282 0 27.589844 12.351563 27.589844 27.589844v43.628906c0 15.238281-12.351562 27.589844-27.589844 27.589844zm0 0" fill="#69ebfc"/><path d="m119.300781 200.335938c0 20.738281-16.8125 37.550781-37.550781 37.550781s-37.550781-16.8125-37.550781-37.550781c0-20.738282 16.8125-37.550782 37.550781-37.550782s37.550781 16.8125 37.550781 37.550782zm0 0" fill="#ff8354"/><g fill="#ea82fa"><path d="m199.328125 215.085938h-45.53125c-8.0625 0-14.601563-6.539063-14.601563-14.605469v-.289063c0-8.066406 6.539063-14.601562 14.601563-14.601562h45.53125c8.0625 0 14.601563 6.535156 14.601563 14.601562v.289063c0 8.066406-6.539063 14.605469-14.601563 14.605469zm0 0"/><path d="m293.957031 215.085938h-45.527343c-8.0625 0-14.601563-6.539063-14.601563-14.605469v-.289063c0-8.066406 6.539063-14.601562 14.601563-14.601562h45.53125c8.0625 0 14.601562 6.535156 14.601562 14.601562v.289063c-.003906 8.066406-6.539062 14.605469-14.605469 14.605469zm0 0"/><path d="m388.589844 215.085938h-45.53125c-8.0625 0-14.601563-6.539063-14.601563-14.605469v-.289063c0-8.066406 6.539063-14.601562 14.601563-14.601562h45.53125c8.0625 0 14.601562 6.535156 14.601562 14.601562v.289063c0 8.066406-6.539062 14.605469-14.601562 14.605469zm0 0"/><path d="m107.675781 316.230469h-51.851562c-6.421875 0-11.625-5.203125-11.625-11.621094v-27.292969c0-6.417968 5.203125-11.621094 11.625-11.621094h51.851562c6.421875 0 11.625 5.203126 11.625 11.621094v27.292969c0 6.417969-5.203125 11.621094-11.625 11.621094zm0 0"/><path d="m202.488281 316.230469h-51.851562c-6.417969 0-11.621094-5.203125-11.621094-11.621094v-27.292969c0-6.417968 5.203125-11.621094 11.621094-11.621094h51.851562c6.421875 0 11.625 5.203126 11.625 11.621094v27.292969c0 6.417969-5.203125 11.621094-11.625 11.621094zm0 0"/><path d="m297.121094 316.230469h-51.851563c-6.421875 0-11.625-5.203125-11.625-11.621094v-27.292969c0-6.417968 5.203125-11.621094 11.625-11.621094h51.851563c6.417968 0 11.621094 5.203126 11.621094 11.621094v27.292969c0 6.417969-5.203126 11.621094-11.621094 11.621094zm0 0"/><path d="m391.75 316.230469h-51.851562c-6.421876 0-11.625-5.203125-11.625-11.621094v-27.292969c0-6.417968 5.203124-11.621094 11.625-11.621094h51.851562c6.421875 0 11.625 5.203126 11.625 11.621094v27.292969c0 6.417969-5.203125 11.621094-11.625 11.621094zm0 0"/><path d="m107.675781 392.464844h-51.851562c-6.421875 0-11.625-5.203125-11.625-11.625v-27.289063c0-6.421875 5.203125-11.625 11.625-11.625h51.851562c6.421875 0 11.625 5.203125 11.625 11.625v27.289063c0 6.421875-5.203125 11.625-11.625 11.625zm0 0"/><path d="m202.488281 392.464844h-51.851562c-6.417969 0-11.621094-5.203125-11.621094-11.625v-27.289063c0-6.421875 5.203125-11.625 11.621094-11.625h51.851562c6.421875 0 11.625 5.203125 11.625 11.625v27.289063c0 6.421875-5.203125 11.625-11.625 11.625zm0 0"/><path d="m297.121094 392.464844h-51.851563c-6.421875 0-11.625-5.203125-11.625-11.625v-27.289063c0-6.421875 5.203125-11.625 11.625-11.625h51.851563c6.417968 0 11.621094 5.203125 11.621094 11.625v27.289063c0 6.421875-5.203126 11.625-11.621094 11.625zm0 0"/><path d="m107.675781 468.695312h-51.851562c-6.421875 0-11.625-5.203124-11.625-11.625v-27.289062c0-6.417969 5.203125-11.625 11.625-11.625h51.851562c6.421875 0 11.625 5.207031 11.625 11.625v27.289062c0 6.421876-5.203125 11.625-11.625 11.625zm0 0"/><path d="m202.488281 468.695312h-51.851562c-6.417969 0-11.621094-5.203124-11.621094-11.625v-27.289062c0-6.417969 5.203125-11.625 11.621094-11.625h51.851562c6.421875 0 11.625 5.207031 11.625 11.625v27.289062c0 6.421876-5.203125 11.625-11.625 11.625zm0 0"/><path d="m297.121094 468.695312h-51.851563c-6.421875 0-11.625-5.203124-11.625-11.625v-27.289062c0-6.417969 5.203125-11.625 11.625-11.625h51.851563c6.417968 0 11.621094 5.207031 11.621094 11.625v27.289062c0 6.421876-5.203126 11.625-11.621094 11.625zm0 0"/><path d="m391.75 468.695312h-51.851562c-6.421876 0-11.625-5.203124-11.625-11.625v-103.519531c0-6.421875 5.203124-11.625 11.625-11.625h51.851562c6.421875 0 11.625 5.203125 11.625 11.625v103.519531c0 6.421876-5.203125 11.625-11.625 11.625zm0 0"/></g></svg>