<?xml version="1.0" encoding="iso-8859-1"?>
<!-- Generator: Adobe Illustrator 19.0.0, SVG Export Plug-In . SVG Version: 6.00 Build 0)  -->
<svg version="1.1" id="Layer_1" xmlns="http://www.w3.org/2000/svg" xmlns:xlink="http://www.w3.org/1999/xlink" x="0px" y="0px"
	 viewBox="0 0 512 512" style="enable-background:new 0 0 512 512;" xml:space="preserve">
<g>
	<g>
		<path style="fill:#2D404E;" d="M154.688,254.291H98.135v28.479h56.553c1.034,0,1.869-0.834,1.869-1.867v-24.744
			C156.557,255.127,155.722,254.291,154.688,254.291z"/>
	</g>
	<g>
		<path style="fill:#253744;" d="M92.287,254.291c-1.033,0-1.869,0.836-1.869,1.867v24.744c0,1.033,0.836,1.867,1.869,1.867h7.004
			V254.29h-7.004V254.291z"/>
	</g>
	<g>
		<path style="fill:#B9483E;" d="M353.266,192.354h-68.475c3.736,29.879,10.584,68.473,10.584,68.473h57.891h57.893
			c0,0,6.848-38.594,10.582-68.473H353.266z"/>
	</g>
	<g>
		<path style="fill:#2D404E;" d="M325.873,265.186c0,1.033-0.836,1.867-1.867,1.867h-16.807c-1.029,0-1.867-0.834-1.867-1.867
			v-6.227c0-1.031,0.838-1.867,1.867-1.867h16.807c1.031,0,1.867,0.836,1.867,1.867V265.186z"/>
	</g>
	<g>
		<path style="fill:#2D404E;" d="M395.594,265.186c0,1.033-0.836,1.867-1.867,1.867h-16.809c-1.029,0-1.867-0.834-1.867-1.867
			v-6.227c0-1.031,0.838-1.867,1.867-1.867h16.809c1.031,0,1.867,0.836,1.867,1.867V265.186z"/>
	</g>
	<g>
		<path style="fill:#2D404E;" d="M417.691,261.826H156.557v17.676H62.006v223.162c0,5.156,3.18,8.336,8.338,8.336h347.348
			c5.156,0,8.336-3.18,8.336-8.336v-232.5C426.027,265.008,422.848,261.826,417.691,261.826z"/>
	</g>
	<g>
		<polygon style="fill:#DF584C;" points="156.557,260.826 156.557,279.502 77.812,279.502 77.812,316.852 410.221,316.852 
			410.221,260.826 		"/>
	</g>
	<g>
		<path style="fill:#253744;" d="M417.691,260.826c5.156,0,9.336,4.182,9.336,9.338v232.5c0,5.156-4.18,9.336-9.336,9.336h-7.471
			V260.826H417.691z"/>
	</g>
	<g>
		<path style="fill:#253744;" d="M61.006,502.664c0,5.156,4.18,9.336,9.338,9.336h7.469V316.852H61.006V502.664z"/>
	</g>
	<g>
		<rect x="61.006" y="279.502" style="fill:#B9483E;" width="17.807" height="37.35"/>
	</g>
	<g>
		<path style="fill:#DF584C;" d="M450.994,153.75c0,27.85-22.572,50.422-50.42,50.422h-95.865c-27.848,0-50.42-22.572-50.42-50.422
			V50.42c0-27.848,22.572-50.42,50.42-50.42h95.865c27.848,0,50.42,22.572,50.42,50.42L450.994,153.75L450.994,153.75z"/>
	</g>
	<g>
		<path style="fill:#D1D5D5;" d="M434.426,166.057c0,10.312-8.361,18.676-18.674,18.676H289.533
			c-10.312,0-18.674-8.363-18.674-18.676V38.115c0-10.312,8.361-18.676,18.674-18.676h126.219c10.312,0,18.674,8.363,18.674,18.676
			V166.057z"/>
	</g>
	<g>
		<path style="fill:#E2E5E7;" d="M301.623,214.275c0,0,42.025,8.242,103.285,0l-3.021,24.455c0,0-54.115,13.188-96.418,0.551
			L301.623,214.275z"/>
	</g>
	<g>
		<path style="fill:#B9483E;" d="M61.006,499.861v2.803c0,5.156,4.18,9.336,9.338,9.336h7.469v-12.139H61.006z"/>
	</g>
	<g>
		<rect x="77.812" y="499.861" style="fill:#DF584C;" width="332.408" height="12.139"/>
	</g>
	<g>
		<path style="fill:#B9483E;" d="M410.221,499.861V512h7.471c5.156,0,9.336-4.18,9.336-9.336v-2.803H410.221z"/>
	</g>
	<g>
		<path style="fill:#B9483E;" d="M427.027,270.09c0-5.165-4.18-9.354-9.336-9.354h-8.471v56.115h17.807V270.09z"/>
	</g>
	<g>
		<ellipse style="fill:#253744;" cx="244.017" cy="414.426" rx="89.456" ry="81.52"/>
	</g>
	<g>
		<g>
			<circle style="fill:#E2E5E7;" cx="244.017" cy="414.426" r="81.521"/>
		</g>
		<g>
			<circle style="fill:#C6CBCB;" cx="244.017" cy="414.426" r="68.628"/>
		</g>
		<g>
			<circle style="fill:#2D404E;" cx="244.018" cy="414.426" r="62.598"/>
		</g>
		<g>
			<circle style="fill:#253744;" cx="244.021" cy="414.426" r="38.315"/>
		</g>
		<g>
			<circle style="fill:#2D404E;" cx="244.021" cy="414.426" r="31.708"/>
		</g>
		<g style="opacity:0.21;">
			<path style="fill:#E2E5E7;" d="M244.021,424.947c-18.922,0-31.416-4.875-38.27-8.658c0.971,20.297,17.738,36.453,38.271,36.453
				c20.477,0,37.203-16.066,38.26-36.283C275.232,420.217,262.66,424.947,244.021,424.947z"/>
		</g>
		<g>
			<circle style="fill:#253744;" cx="244.021" cy="414.426" r="30.468"/>
		</g>
		<g style="opacity:0.07;">
			<path style="fill:#E2E5E7;" d="M244.021,424.947c-18.922,0-31.416-4.875-38.27-8.658c0.971,20.297,17.738,36.453,38.271,36.453
				c20.477,0,37.203-16.066,38.26-36.283C275.232,420.217,262.66,424.947,244.021,424.947z"/>
		</g>
		<g style="opacity:0.14;">
			
				<ellipse transform="matrix(-0.9561 0.2931 -0.2931 -0.9561 618.2158 713.7092)" style="fill:#E2E5E7;" cx="255.638" cy="403.171" rx="7.591" ry="8.261"/>
		</g>
		<g style="opacity:0.07;">
			<circle style="fill:#E2E5E7;" cx="247.812" cy="407.762" r="3.925"/>
		</g>
		<g>
			<path style="fill:#253744;" d="M205.705,376.111c25.984-20.973,63.021-14.777,79.545,2.572
				c11.367,11.936,17.809,27,21.305,38.115c0.031-0.789,0.061-1.578,0.061-2.373c0-34.572-28.025-62.598-62.598-62.598
				c-34.57,0-62.598,28.025-62.598,62.598c0,3.771,0.354,7.459,0.992,11.047C183.752,409.938,188.984,389.604,205.705,376.111z"/>
		</g>
	</g>
	<g style="opacity:0.11;">
		<rect x="278.021" y="260.826" style="fill:#253744;" width="8.055" height="56.025"/>
	</g>
	<g style="opacity:0.11;">
		<rect x="201.957" y="260.826" style="fill:#253744;" width="8.057" height="56.025"/>
	</g>
	<g>
		<path style="fill:#253744;" d="M201.957,316.852c0,0,1.24,10.195,10.355,10.195s55.566,0,63.416,0s10.348-10.195,10.348-10.195
			H201.957z"/>
	</g>
	<g>
		<rect x="61.006" y="316.852" style="fill:#253744;" width="366.021" height="5.098"/>
	</g>
	<g>
		<g>
			<path style="fill:#DF584C;" d="M282.301,314.363c0,5.158-4.18,9.338-9.338,9.338h-57.891c-5.158,0-9.338-4.18-9.338-9.338
				v-59.758c0-5.158,4.18-9.338,9.338-9.338h57.891c5.158,0,9.338,4.18,9.338,9.338V314.363z"/>
		</g>
		<g>
			<rect x="216.287" y="255.02" style="fill:#B9483E;" width="55.461" height="58.93"/>
		</g>
		<g>
			<rect x="219.119" y="258.027" style="fill:#2D404E;" width="49.797" height="52.912"/>
		</g>
		<g>
			<path style="fill:#253744;" d="M257.705,284.482c0,7.562-6.127,13.689-13.688,13.689c-7.562,0-13.688-6.127-13.688-13.689
				c0-7.561,6.125-13.688,13.688-13.688C251.578,270.795,257.705,276.922,257.705,284.482z"/>
		</g>
		<polygon style="opacity:0.07;fill:#E2E5E7;enable-background:new    ;" points="219.119,310.939 268.916,310.939 268.916,258.027 
					"/>
	</g>
	<g>
		<path style="fill:#E2E5E7;" d="M428.492,24.49c-3.338-3.125-7.811-5.051-12.74-5.051H289.533c-4.932,0-9.402,1.926-12.742,5.049
			l75.852,75.85L428.492,24.49z"/>
	</g>
	<g>
		<path style="fill:#E2E5E7;" d="M275.09,177.891c3.426,4.176,8.621,6.842,14.443,6.842h126.219c5.82,0,11.018-2.666,14.441-6.844
			l-77.551-77.551L275.09,177.891z"/>
	</g>
	<g>
		<circle style="fill:#C6CBCB;" cx="352.642" cy="102.086" r="29.409"/>
	</g>
	<g>
		<path style="fill:#C6CBCB;" d="M352.643,138.74c-20.211,0-36.654-16.443-36.654-36.654s16.443-36.654,36.654-36.654
			c20.209,0,36.652,16.443,36.652,36.654S372.852,138.74,352.643,138.74z M352.643,67.91c-18.844,0-34.176,15.33-34.176,34.176
			c0,18.844,15.332,34.176,34.176,34.176s34.174-15.332,34.174-34.176C386.816,83.24,371.486,67.91,352.643,67.91z"/>
	</g>
	<g>
		<circle style="fill:#C1C6C6;" cx="352.642" cy="102.086" r="16.728"/>
	</g>
	<g style="opacity:0.05;">
		<path style="fill:#253744;" d="M415.752,19.439H289.533c-10.312,0-18.674,8.363-18.674,18.676v127.941
			c0,10.312,8.361,18.676,18.674,18.676h126.219c10.312,0,18.674-8.363,18.674-18.676V38.115
			C434.426,27.803,426.064,19.439,415.752,19.439z M424.615,158.383c0,9.074-7.357,16.436-16.436,16.436H297.104
			c-9.076,0-16.434-7.361-16.434-16.436V45.789c0-9.076,7.357-16.436,16.434-16.436H408.18c9.078,0,16.436,7.359,16.436,16.436
			v112.594H424.615z"/>
	</g>
	<g>
		<path style="fill:#E2E5E7;" d="M186.055,131.871c11.488,11.488,38.904,10.664,38.904,10.664s-27.416-0.822-38.904,10.666
			s-10.666,38.904-10.666,38.904s1.705-26.531-10.666-38.904c-12.371-12.371-38.904-10.666-38.904-10.666
			s26.092,2.148,38.904-10.664c12.814-12.814,10.666-38.904,10.666-38.904S174.566,120.383,186.055,131.871z"/>
	</g>
	<g>
		<path style="fill:#E2E5E7;" d="M212.195,97.902c3.637,5.014,12.014,5.068,12.014,5.068s-8.395-0.752-11.787,3.922
			s-2.848,16.238-2.848,16.238s0.238-11.156-3.678-16.553c-3.916-5.393-12.014-5.064-12.014-5.064s8,1.285,11.787-3.924
			c3.781-5.209,2.848-16.238,2.848-16.238S208.557,92.895,212.195,97.902z"/>
	</g>
	<g>
		<path style="fill:#E2E5E7;" d="M214.164,181.352c-0.896,4.475,3.562,10.754,3.562,10.754s-4.074-6.535-8.547-7.434
			c-4.473-0.896-10.75,3.562-10.75,3.562s6.465-3.73,7.432-8.547c0.965-4.816-3.564-10.752-3.564-10.752s3.561,6.432,8.549,7.434
			c4.988,0.998,10.752-3.564,10.752-3.564S215.062,176.881,214.164,181.352z"/>
	</g>
</g>
<g>
</g>
<g>
</g>
<g>
</g>
<g>
</g>
<g>
</g>
<g>
</g>
<g>
</g>
<g>
</g>
<g>
</g>
<g>
</g>
<g>
</g>
<g>
</g>
<g>
</g>
<g>
</g>
<g>
</g>
</svg>
