<svg id="Layer_1" height="512" viewBox="0 0 150 150" width="512" xmlns="http://www.w3.org/2000/svg" data-name="Layer 1"><circle cx="75" cy="75" fill="#21b3a9" r="64"/><path d="m120.11 81.78-1.96-5.05-8.21-5.58-3.06-6.01-6.86-5.07-12.36-10.35h-19.93l-12.28 10.37-11.31.31-3.1 7.95-7.67 6.09-3.92 7.34z" fill="#3a556a"/><path d="m63.62 57.27-8.41 4.63-2.78-9.22 4.24 1.18z" fill="#ebf0f3"/><path d="m60.4 57.15-5.19 4.75-.41-7.05 1.87-.99z" fill="#d5d6db"/><path d="m61.58 52.77-4.54-1.86-2.62-.06 1.91 1.8 4.53 1.87 2.62.06z" fill="#e1e6e9"/><path d="m63.48 54.58.14 2.69-3.22-.12z" fill="#e1e6e9"/><path d="m60.86 54.52-.46 2.63 3.08-2.57z" fill="#ebf0f3"/><path d="m60.4 57.15-5.6-2.3 3.79-1.26z" fill="#ebf0f3"/><path d="m58.57 53.57 1.83 3.58.46-2.63z" fill="#d5d6db"/><path d="m56.33 52.65-1.53 2.2 3.82-1.25z" fill="#d5d6db"/><path d="m56.33 52.65-3.9.03 1.99-1.83z" fill="#ebf0f3"/><path d="m52.43 52.68 3.9-.03-1.53 2.2z" fill="#e1e6e9"/><path d="m121.27 82.72h-92.54v7h8.34v6.05h21.85v-6.05h32.16v6.05h21.85v-6.05h8.34z" fill="#f7be56"/><path d="m25.05 79.73h99.9v4.11h-99.9z" fill="#fcd462"/><path d="m102 86a8.71 8.71 0 1 0 8.71 8.71 8.7 8.7 0 0 0 -8.71-8.71zm6 10c0 .15-.07.3-.11.45v.11a4.56 4.56 0 0 1 -.18.52c-.06.15-.14.3-.21.44l-.09.15c-.06.11-.12.22-.19.33l-.09.13a3.79 3.79 0 0 1 -.3.4l-2.83-2.74a2.25 2.25 0 0 0 .19-.45h3.92c0 .19 0 .38-.08.56zm-2.5 3.73-.19.13-.31.14-.21.12-.29.14-.27.11-.37.14-.23.07-.29.07h-.24c-.12 0-.25 0-.37.06h-.14v-3.83a2.34 2.34 0 0 0 .46-.19l2.77 2.77c-.08.1-.21.19-.34.28zm-4.63 1h-.22l-.31-.08-.21-.06-.42-.15-.2-.09a3.18 3.18 0 0 1 -.32-.16l-.19-.19-.27-.17-.17-.11c-.14-.09-.26-.19-.39-.29l2.78-2.77a2.25 2.25 0 0 0 .45.19v3.92h-.13c-.16-.01-.27-.02-.42-.05zm-3.87-2.55-.1-.15a3.21 3.21 0 0 1 -.19-.31l-.09-.17a2.64 2.64 0 0 1 -.18-.38l-.05-.09-.18-.49v-.17l-.21-.37v-.18c0-.16-.06-.34-.08-.51h3.92a2.25 2.25 0 0 0 .19.45l-2.77 2.78zm-1-4.81c0-.13.06-.25.1-.38v-.16l.18-.49v-.07c.06-.14.12-.28.19-.41l.09-.16a3.45 3.45 0 0 1 .2-.32l.08-.14c.1-.13.19-.26.3-.39l2.86 2.77a2.34 2.34 0 0 0 -.19.46h-3.9c0-.19 0-.37.08-.54zm2.63-3.79.35-.21.13-.07.47-.23a4.65 4.65 0 0 1 .52-.2h.11l.45-.11h.11l.56-.08v3.92a2.25 2.25 0 0 0 -.45.19l-2.74-2.79c.13-.11.27-.21.4-.3zm4.65-.85.44.11h.12a5.17 5.17 0 0 1 .51.18c.16.06.3.14.45.21l.14.08a2.66 2.66 0 0 1 .33.21l.13.08a3.79 3.79 0 0 1 .4.3l-2.77 2.77a2.34 2.34 0 0 0 -.46-.19v-3.86l.56.08zm3.82 2.64.21.34.07.14a4.09 4.09 0 0 1 .23.47 4.65 4.65 0 0 1 .2.52v.1c0 .15.08.31.11.46v.1c0 .19.06.38.08.57h-3.92a2.34 2.34 0 0 0 -.19-.46l2.77-2.77a3.79 3.79 0 0 1 .3.4zm-4.07 3.34a1.06 1.06 0 1 1 -1.03-1.06 1.05 1.05 0 0 1 1.06 1.06z" fill="#3a556a"/><path d="m48 86a8.71 8.71 0 1 0 8.71 8.71 8.71 8.71 0 0 0 -8.71-8.71zm6 10c0 .15-.07.3-.12.45v.11c-.06.18-.12.35-.19.52-.07.15-.14.3-.22.44l-.08.15c-.06.11-.13.22-.2.33l-.09.13c-.09.14-.19.27-.29.4l-2.81-2.74a2.23 2.23 0 0 0 .18-.45h3.93a5 5 0 0 1 -.09.56zm-2.5 3.73-.19.13-.31.14-.21.12-.29.14-.27.11-.36.14-.23.07-.3.07h-.23l-.38.06h-.13v-3.83a2.25 2.25 0 0 0 .45-.19l2.77 2.77zm-4.63 1h-.23l-.31-.08-.21-.06-.41-.15-.2-.09-.33-.16-.18-.19-.28-.17-.17-.11-.38-.29 2.77-2.77a2.53 2.53 0 0 0 .45.19v3.92h-.12c-.16-.01-.27-.02-.42-.05zm-3.87-2.55-.1-.15-.18-.31-.09-.17c-.07-.12-.13-.25-.19-.38v-.09a4.84 4.84 0 0 1 -.18-.49l-.05-.17c0-.12-.07-.24-.1-.37v-.18a4.18 4.18 0 0 1 -.07-.51h3.93a2.23 2.23 0 0 0 .18.45l-2.77 2.78zm-1-4.81c0-.13.06-.25.1-.38l.05-.16a4.09 4.09 0 0 1 .18-.49v-.07c.06-.14.13-.28.2-.41l.08-.16c.07-.11.13-.22.2-.32l.09-.14.29-.39 2.81 2.77a2.32 2.32 0 0 0 -.18.46h-3.92a4.34 4.34 0 0 1 .09-.54zm2.63-3.79.36-.21.12-.07.48-.23a4.81 4.81 0 0 1 .53-.2h.1l.45-.11h.11l.56-.08v3.92a2.53 2.53 0 0 0 -.45.19l-2.75-2.79a3.79 3.79 0 0 1 .4-.3zm4.65-.85.44.11h.12a4.4 4.4 0 0 1 .51.18c.15.06.3.14.44.21l.15.08c.11.07.22.13.33.21l.13.08a3.68 3.68 0 0 1 .39.3l-2.77 2.77a2.25 2.25 0 0 0 -.45-.19v-3.86l.55.08zm3.82 2.64a3.13 3.13 0 0 1 .21.34l.08.14c.08.15.16.31.23.47.07.17.13.34.19.52v.1c0 .15.08.31.12.46v.1a5.62 5.62 0 0 1 .09.57h-3.86a2.32 2.32 0 0 0 -.18-.46l2.77-2.77.3.4zm-4.06 3.34a1.07 1.07 0 1 1 -1.04-1.06 1.06 1.06 0 0 1 1.06 1.06z" fill="#3a556a"/><g fill="#2f4859"><path d="m87.66 49.72-11.94 15 31.16.42z"/><path d="m109.94 71.15-12.49 4.57 20.7 1.01z"/><path d="m55.45 60.09 8.27 5.05-7.46.61-9.33-1.35-5.89 3.95 3.1-7.95z"/><path d="m65.48 55.99-4.14-3.36 4.14-6.04 5.83 1.12 3.47 4.03-3.92 3.69-2.13 2.69z"/></g><path d="m83.63 63.44-6.39-.86-1.24-1.58.48-3.55 1.57-1.2 6.39.86 1.2 1.58-.48 3.55z" fill="#ebf0f3"/><path d="m85.2 62.24-1.43-.83-5.25-3.56-.43-1.59-1.57 1.2 1.43.83 5.25 3.56.43 1.59z" fill="#fff"/><path d="m85.68 58.7-1.6.42-6.01 2.03-.83 1.43-1.2-1.57 1.6-.42 6.01-2.04.83-1.43z" fill="#e1e6e9"/><path d="m83.77 61.41.31-2.29-.43-.57-5.14-.7-.56.44-.31 2.29c.14.2.28.38.43.57l5.14.7z" fill="#e1e6e9"/><path d="m76.69 62.31c1.49-1.14 1.49-1.14-2.23-1.65 3.72.51 3.72.51 2.58-1 1.14 1.5 1.14 1.5 1.65-2.23-.51 3.73-.51 3.73 1 2.59-1.5 1.14-1.5 1.14 2.23 1.64-3.73-.5-3.73-.5-2.59 1-1.14-1.49-1.14-1.49-1.64 2.23.49-3.72.49-3.72-1-2.58z" fill="#fff"/><path d="m63.44 66.64c2.29-1.75 2.29-1.75-3.41-2.52 5.7.77 5.7.77 4-1.52 1.74 2.29 1.74 2.29 2.51-3.41-.77 5.7-.77 5.7 1.52 4-2.29 1.74-2.29 1.74 3.41 2.51-5.7-.77-5.7-.77-4 1.52-1.75-2.29-1.75-2.29-2.52 3.42.78-5.75.78-5.75-1.51-4z" fill="#fff"/><path d="m94.71 77.44c2.29-1.74 2.29-1.74-3.41-2.51 5.7.77 5.7.77 4-1.52 1.7 2.29 1.7 2.29 2.47-3.41-.77 5.7-.77 5.7 1.52 4-2.29 1.7-2.29 1.7 3.41 2.47-5.7-.77-5.7-.77-4 1.52-1.7-2.29-1.7-2.29-2.47 3.41.77-5.7.77-5.7-1.52-3.96z" fill="#fff"/><path d="m59.66 69-.1-4.09 1.37-1.43 3.58-.06 1.42 1.38.07 4.11-1.37 1.42-3.58.06z" fill="#ebf0f3"/><path d="m61.09 70.39.6-1.54 2.73-3.37 1.51-.66-1.42-1.38-.6 1.54-2.73 3.38-1.52.66z" fill="#fff"/><path d="m64.67 70.33-.66-1.52-2.92-3.28-1.53-.6 1.37-1.43.66 1.52 2.92 3.28 1.53.61z" fill="#e1e6e9"/><path d="m61.69 68.85h2.32l.5-.52-.09-2.82-.51-.5h-2.32l-.5.51.09 2.83z" fill="#e1e6e9"/><path d="m60.59 65.17c.5.48.5.48.48-.91 0 1.39 0 1.39.51.89-.49.5-.49.5.9.48-1.39 0-1.39 0-.89.5-.5-.48-.5-.48-.47.91 0-1.39 0-1.39-.51-.89.48-.5.48-.5-.91-.48 1.39-.02 1.39-.02.89-.5z" fill="#fff"/></svg>