<svg height="512pt" viewBox="-94 0 512 512" width="512pt" xmlns="http://www.w3.org/2000/svg"><path d="m281.535156 512h-239.964844c-22.957031 0-41.570312-18.613281-41.570312-41.570312v-428.859376c0-22.957031 18.613281-41.570312 41.570312-41.570312h239.964844c22.957032 0 41.570313 18.613281 41.570313 41.570312v428.855469c.003906 22.960938-18.609375 41.574219-41.570313 41.574219zm0 0" fill="#6770e6"/><path d="m281.535156 0h-239.964844c-22.957031 0-41.570312 18.613281-41.570312 41.570312v14c0-22.957031 18.613281-41.570312 41.570312-41.570312h239.964844c22.957032 0 41.570313 18.613281 41.570313 41.570312v-14c.003906-22.957031-18.609375-41.570312-41.570313-41.570312zm0 0" fill="#8f95e6"/><path d="m41.570312 512h239.964844c22.957032 0 41.570313-18.613281 41.570313-41.570312v-14c0 22.957031-18.613281 41.570312-41.570313 41.570312h-239.964844c-22.957031 0-41.570312-18.613281-41.570312-41.570312v14c0 22.957031 18.613281 41.570312 41.570312 41.570312zm0 0" fill="#5861c7"/><path d="m41.570312 492c-11.890624 0-21.570312-9.679688-21.570312-21.570312v-402.859376c0-11.890624 9.679688-21.570312 21.570312-21.570312h239.964844c11.894532 0 21.570313 9.679688 21.570313 21.570312v402.859376c0 11.890624-9.675781 21.570312-21.570313 21.570312zm0 0" fill="#a1f1fc"/><path d="m202.828125 31.828125h-112.546875c-4.972656 0-9-4.03125-9-9s4.027344-9 9-9h112.546875c4.96875 0 9 4.03125 9 9s-4.03125 9-9 9zm0 0" fill="#5861c7"/><path d="m241.828125 22.828125c0 4.96875-4.03125 9-9 9s-9-4.03125-9-9 4.03125-9 9-9 9 4.03125 9 9zm0 0" fill="#5861c7"/><path d="m121.664062 303.863281h32.332032c4.851562 0 8.972656-3.546875 9.691406-8.34375l6.714844-44.691406c.449218-2.960937 2.992187-5.152344 5.988281-5.152344h10.257813c9.417968 0 49.535156.003907 61.554687-53.480469 6.726563-29.933593-10.425781-49.105468-40.363281-49.105468h-57.1875c-5.417969 0-10.027344 3.945312-10.867188 9.296875l-22.894531 145.898437c-.453125 2.929688 1.808594 5.578125 4.773437 5.578125zm0 0" fill="#5fd4e3"/><path d="m82.242188 281.46875h36.886718l10.351563-65.140625c.46875-2.941406 3-5.105469 5.976562-5.105469h28.316407c22.648437 0 56.457031-8.859375 66.960937-57.769531s-29.214844-58.757813-59.085937-58.757813h-55.179688c-7.746094 0-14.355469 5.601563-15.632812 13.242188l-27.265626 163.292969c-.894531 5.359375 3.238282 10.238281 8.671876 10.238281zm0 0" fill="#d476e2"/><path d="m230.734375 153.453125c.375-1.75.667969-3.4375.917969-5.085937-6.488282-3.433594-14.535156-5.277344-23.808594-5.277344h-57.1875c-5.417969 0-10.03125 3.945312-10.871094 9.296875l-9.773437 62.296875c.980469-2.0625 3.0625-3.460938 5.445312-3.460938h28.316407c22.648437 0 56.457031-8.863281 66.960937-57.769531zm0 0" fill="#6770e6"/><path d="m221.964844 456.429688h-120.820313c-32.394531 0-58.65625-26.261719-58.65625-58.65625 0-32.394532 26.261719-58.652344 58.65625-58.652344h120.820313c32.394531 0 58.65625 26.257812 58.65625 58.652344 0 32.390624-26.261719 58.65625-58.65625 58.65625zm0 0" fill="#d476e2"/><g fill="#ffefe4"><path d="m98.472656 428.515625c-4.328125-.636719-8.175781-2.308594-11.558594-5.023437-1.96875-1.585938-3.609374-3.566407-4.917968-5.953126-1.589844-2.898437-.347656-6.539062 2.710937-7.789062 2.429688-.992188 5.28125-.148438 6.640625 2.101562.433594.722657.9375 1.414063 1.503906 2.070313 1.554688 1.820313 3.429688 3.074219 5.621094 3.765625v-16.449219l-.773437-.347656c-2.136719-.804687-4.144531-1.757813-6.015625-2.859375-1.875-1.089844-3.523438-2.367188-4.9375-3.808594-1.417969-1.441406-2.542969-3.070312-3.378906-4.890625-.839844-1.820312-1.257813-3.855469-1.257813-6.105469 0-2.078124.375-4.039062 1.125-5.886718.753906-1.847656 1.832031-3.492188 3.253906-4.9375 1.410157-1.441406 3.125-2.640625 5.152344-3.59375 2.015625-.953125 4.296875-1.570313 6.832031-1.859375v-3.59375c0-2.128907 1.726563-3.855469 3.855469-3.855469s3.855469 1.726562 3.855469 3.855469v3.765625c2.308594.34375 4.320312.953125 6.015625 1.820312 1.707031.863282 3.164062 1.875 4.421875 2.988282.484375.425781.949218.9375 1.390625 1.488281 2.1875 2.738281 1.078125 6.832031-2.125 8.261719-2.191407.976562-4.714844.363281-6.332031-1.414063-.847657-.929687-1.957032-1.847656-3.371094-2.492187v15.5c2.488281 1.039062 4.730468 2.109374 6.757812 3.203124 2.015625 1.097657 3.746094 2.335938 5.191406 3.726563 1.445313 1.382813 2.539063 2.957031 3.289063 4.714844.753906 1.765625 1.125 3.800781 1.125 6.105469 0 2.597656-.445313 4.910156-1.335937 6.925781-.902344 2.023437-2.09375 3.753906-3.597657 5.195312-1.503906 1.445313-3.246093 2.601563-5.238281 3.46875-1.992188.863281-4.058594 1.472657-6.195312 1.816407v3.765624c0 2.125-1.726563 3.851563-3.855469 3.851563-2.125 0-3.851563-1.726563-3.851563-3.851563zm-5.707031-45.292969c0 1.386719.445313 2.585938 1.335937 3.59375.902344 1.011719 2.355469 2.039063 4.371094 3.078125v-12.640625c-1.734375.460938-3.109375 1.207032-4.152344 2.246094-1.042968 1.042969-1.554687 2.28125-1.554687 3.722656zm18.703125 27.886719c0-1.5-.40625-2.742187-1.21875-3.722656-.804688-.984375-2.160156-1.960938-4.066406-2.945313v13.246094c1.5625-.515625 2.832031-1.339844 3.8125-2.46875.976562-1.125 1.472656-2.496094 1.472656-4.109375zm0 0"/><path d="m233.574219 406.003906h-82.675781c-4.546876 0-8.234376-3.6875-8.234376-8.230468 0-4.546876 3.6875-8.234376 8.234376-8.234376h82.675781c4.546875 0 8.230469 3.6875 8.230469 8.234376 0 4.546874-3.683594 8.230468-8.230469 8.230468zm0 0"/></g></svg>