<svg id="Layer_1" height="512" viewBox="0 0 150 150" width="512" xmlns="http://www.w3.org/2000/svg" data-name="Layer 1"><circle cx="75" cy="75" fill="#e05b49" r="64"/><path d="m106.4 69.7-5.44-1a1.46 1.46 0 0 0 -1.72 1.44v9.76a1.46 1.46 0 0 0 1.76 1.42l5.44-1a1.45 1.45 0 0 0 1.19-1.43v-7.76a1.45 1.45 0 0 0 -1.23-1.43z" fill="#2f4859"/><path d="m53.35 67.4h-7.9a3 3 0 0 0 -3 3v8.85a3 3 0 0 0 3 3h7.9.16c35.8 1.33 44.41 24 44.41 24v-62.87s-8.64 22.76-44.57 24.02z" fill="#e1e6e9"/><g fill="#3a556a"><path d="m59.56 67c-2 .22-4 .38-6.21.45h-7.9a3 3 0 0 0 -3 3v8.85a3 3 0 0 0 3 3h7.9.16c2.11.08 4.12.24 6.05.46z"/><path d="m99.24 40.72a2.28 2.28 0 0 0 -2.24 2.28v64a2.28 2.28 0 1 0 4.55 0v-64a2.28 2.28 0 0 0 -2.31-2.28z"/><path d="m56.09 79.2h-7.34l2.56 24.38a1.2 1.2 0 0 0 1.19 1.08h4.93a1.2 1.2 0 0 0 1.19-1.33z"/></g></svg>