<svg id="Layer_1" height="512" viewBox="0 0 150 150" width="512" xmlns="http://www.w3.org/2000/svg" xmlns:xlink="http://www.w3.org/1999/xlink" data-name="Layer 1"><clipPath id="clip-path"><path d="m46.82 37.4h-2.38l.53 10.73h2.31z"/></clipPath><path d="m139 75a64 64 0 1 1 -64-64 64 64 0 0 1 64 64" fill="#029bc5"/><path d="m42.92 113.71h21.56a2.75 2.75 0 0 0 .52-.71l1.48-2.67 13.56 3h24.88a8.3 8.3 0 0 0 2.75-2.38s3.13-8-.71-12.27c-6.44-7.12-15.22-3.13-23.23-7.32-2.94-1.54-5.52-3-7.29-5.16a21.6 21.6 0 0 1 -4.67-13.76l1.88-37.32h-32.07s5.1 45.91 1.28 58a37.36 37.36 0 0 0 -1.7 13.08 29.86 29.86 0 0 0 1 6.11 2.86 2.86 0 0 0 .8 1.34" fill="#fcd462"/><path d="m89.28 111.09a27.35 27.35 0 0 1 -7.42-.93l-16-3.9h-24.7a30.56 30.56 0 0 0 1 6.13 2.84 2.84 0 0 0 2.74 2.1h17.64a2.85 2.85 0 0 0 2.46-1.49l1.48-2.67 14.75 3.28c2.75.68 3.68 1.23 6.51 1.22 5.82 0 11.86-.3 12.49-.28 2.25.08 4.59 0 6 0a1.31 1.31 0 0 0 1.26-1.2c.06-.76.16-1.75.25-2.51z" fill="#2f4859"/><g clip-path="url(#clip-path)"><path d="m44.44 37.4h2.85v10.73h-2.85z" fill="#f8db86"/></g><path d="m47.49 49.88h-2.34l.7 13.99h2.63z" fill="#f8db86"/></svg>