<svg height="512pt" viewBox="0 0 512 512" width="512pt" xmlns="http://www.w3.org/2000/svg"><path d="m347.457031 461.300781h-305.984375c-12.1875 0-22.066406-9.878906-22.066406-22.066406v-239.90625h328.050781zm0 0" fill="#5861c7"/><path d="m347.457031 461.300781h142.480469c12.183594 0 22.0625-9.878906 22.0625-22.066406v-63.601563c0-3.09375-.648438-6.152343-1.90625-8.976562l-49.988281-112.226562c-3.546875-7.957032-11.445313-13.085938-20.15625-13.085938h-92.488281v219.957031zm0 0" fill="#d476e2"/><g fill="#69ebfc"><path d="m463.386719 261.804688h-82.421875c-6.210938 0-11.25 5.035156-11.25 11.246093v80.089844c0 6.214844 5.039062 11.25 11.25 11.25h128.113281zm0 0"/><path d="m499.1875 426.851562h12.8125v-39.03125h-12.8125c-10.78125 0-19.515625 8.738282-19.515625 19.515626 0 10.777343 8.734375 19.515624 19.515625 19.515624zm0 0"/><path d="m32.222656 426.851562h-12.8125v-39.03125h12.8125c10.78125 0 19.515625 8.738282 19.515625 19.515626 0 10.777343-8.738281 19.515624-19.515625 19.515624zm0 0"/></g><path d="m167.109375 461.300781c0 28-22.699219 50.699219-50.703125 50.699219-28 0-50.699219-22.699219-50.699219-50.699219s22.699219-50.699219 50.699219-50.699219c28.003906 0 50.703125 22.699219 50.703125 50.699219zm0 0" fill="#339"/><path d="m142.542969 461.300781c0 14.433594-11.703125 26.132813-26.136719 26.132813s-26.132812-11.699219-26.132812-26.132813c0-14.433593 11.699218-26.136719 26.132812-26.136719s26.136719 11.703126 26.136719 26.136719zm0 0" fill="#6770e6"/><path d="m471.117188 461.300781c0 28-22.699219 50.699219-50.703126 50.699219-28 0-50.699218-22.699219-50.699218-50.699219s22.699218-50.699219 50.699218-50.699219c28.003907 0 50.703126 22.699219 50.703126 50.699219zm0 0" fill="#339"/><path d="m116.40625 500c-25.96875 0-47.363281-19.53125-50.332031-44.699219-.230469 1.96875-.367188 3.96875-.367188 6 0 28 22.699219 50.699219 50.699219 50.699219s50.703125-22.699219 50.703125-50.699219c0-2.03125-.136719-4.03125-.367187-6-2.96875 25.167969-24.363282 44.699219-50.335938 44.699219zm0 0" fill="#29297a"/><path d="m420.414062 500c-25.96875 0-47.363281-19.53125-50.332031-44.699219-.230469 1.96875-.367187 3.96875-.367187 6 0 28 22.699218 50.699219 50.699218 50.699219s50.703126-22.699219 50.703126-50.699219c0-2.03125-.136719-4.03125-.367188-6-2.96875 25.167969-24.363281 44.699219-50.335938 44.699219zm0 0" fill="#29297a"/><path d="m446.550781 461.300781c0 14.433594-11.703125 26.132813-26.136719 26.132813-14.429687 0-26.132812-11.699219-26.132812-26.132813 0-14.433593 11.703125-26.136719 26.132812-26.136719 14.433594 0 26.136719 11.703126 26.136719 26.136719zm0 0" fill="#6770e6"/><path d="m351.226562 134.960938h-335.585937c-8.636719 0-15.640625 7.003906-15.640625 15.644531v33.082031c0 8.636719 7.003906 15.640625 15.640625 15.640625h335.585937c8.636719 0 15.640626-7.003906 15.640626-15.640625v-33.082031c0-8.640625-7.003907-15.644531-15.640626-15.644531zm0 0" fill="#6770e6"/><path d="m351.226562 134.960938h-335.585937c-8.636719 0-15.640625 7.003906-15.640625 15.644531v15.832031c0-8.640625 7.003906-15.644531 15.640625-15.644531h335.585937c8.636719 0 15.640626 7.003906 15.640626 15.644531v-15.832031c0-8.640625-7.003907-15.644531-15.640626-15.644531zm0 0" fill="#8f95e6"/><path d="m242.59375 266.421875h-118.316406c-8.5 0-15.394532-6.894531-15.394532-15.394531s6.894532-15.390625 15.394532-15.390625h118.316406c8.5 0 15.390625 6.890625 15.390625 15.390625 0 8.503906-6.890625 15.394531-15.390625 15.394531zm0 0" fill="#339"/><path d="m227.230469 113.617188c0 62.746093-50.867188 113.613281-113.613281 113.613281-62.75 0-113.617188-50.867188-113.617188-113.613281 0-62.75 50.867188-113.617188 113.617188-113.617188 62.746093 0 113.613281 50.867188 113.613281 113.617188zm0 0" fill="#a1f1fc"/><path d="m227.230469 113.617188c0-.960938-.011719-1.917969-.035157-2.875-1.5-60.464844-50.238281-109.207032-110.707031-110.7070318-.953125-.0234374-1.914062-.0351562-2.871093-.0351562-.960938 0-1.917969.0117188-2.875.0351562-60.464844 1.5039058-109.203126 50.2421878-110.7070318 110.7070318-.0234374.957031-.0351562 1.914062-.0351562 2.875 0 .957031.0117188 1.917968.0351562 2.871093.7226558 29.09375 12.3867188 55.46875 31.0234378 75.175781.011718.015626.027344.027344.039062.039063 1.953125 2.066406 3.984375 4.0625 6.089844 5.976563.027344.023437.058594.050781.089844.078124.648437.589844 1.296875 1.167969 1.960937 1.738282.035157.03125.066407.0625.101563.089844 19.246094 16.640624 44.128906 26.929687 71.402344 27.609374.957031.023438 1.914062.035157 2.875.035157.960937 0 1.917968-.011719 2.875-.035157 27.273437-.675781 52.160156-10.96875 71.40625-27.609374.035156-.03125.066406-.058594.101562-.089844.660156-.570313 1.3125-1.148438 1.960938-1.738282.03125-.027343.0625-.050781.089843-.078124 2.105469-1.914063 4.136719-3.910157 6.089844-5.976563l.039063-.039063c18.636718-19.707031 30.300781-46.082031 31.023437-75.175781.015625-.953125.027344-1.914062.027344-2.871093zm-47.699219-78.054688c-6.480469 5.492188-13.542969 10.101562-21.039062 13.777344-4.613282-14.011719-10.6875-25.753906-17.769532-34.265625 14.199219 3.882812 27.402344 10.824219 38.808594 20.488281zm-60.1875-23.011719c7.925781 2.984375 15.859375 11.976563 22.421875 25.675781 2.304687 4.8125 4.351563 10.03125 6.144531 15.570313-9.109375 3.238281-18.707031 5.171875-28.566406 5.714844zm0 58.433594c11.046875-.546875 21.679688-2.675781 31.675781-6.160156 3.222657 13.207031 5.109375 27.808593 5.484375 43.0625h-37.160156zm37.164062 48.359375c-.378906 15.253906-2.261718 29.859375-5.484374 43.0625-9.996094-3.484375-20.628907-5.609375-31.679688-6.160156v-36.902344zm-85.78125 0h37.160157v36.902344c-11.046875.550781-21.679688 2.679687-31.675781 6.160156-3.226563-13.203125-5.109376-27.804688-5.484376-43.0625zm0-11.457031c.375-15.253907 2.257813-29.855469 5.484376-43.0625 9.996093 3.484375 20.628906 5.609375 31.675781 6.160156v36.902344zm37.160157-95.335938v46.957031c-9.859375-.542968-19.457031-2.472656-28.566407-5.710937 1.792969-5.539063 3.84375-10.757813 6.148438-15.574219 6.5625-13.695312 14.492188-22.6875 22.417969-25.671875zm-21.375 2.523438c-7.082031 8.511719-13.160157 20.253906-17.773438 34.265625-7.496093-3.675782-14.554687-8.285156-21.035156-13.777344 11.40625-9.664062 24.605469-16.605469 38.808594-20.488281zm-47.171875 28.40625c7.855468 6.796875 16.652344 12.53125 26.171875 16.984375-3.628907 14.273437-5.839844 30.351562-6.246094 47.421875h-47.644531c1.324218-24.164063 11.027344-46.757813 27.71875-64.40625zm19.925781 75.863281c.40625 17.070312 2.621094 33.144531 6.246094 47.421875-9.511719 4.449219-18.304688 10.179687-26.15625 16.96875-16.6875-17.644531-26.410157-40.226563-27.734375-64.390625zm-11.558594 72.320312c6.480469-5.488281 13.542969-10.101562 21.035157-13.773437 4.613281 14.007813 10.6875 25.757813 17.769531 34.265625-14.203125-3.882812-27.398438-10.832031-38.804688-20.492188zm37.761719-2.65625c-2.308594-4.816406-4.355469-10.035156-6.148438-15.574218 9.109376-3.234375 18.707032-5.167969 28.566407-5.710938v46.957032c-7.925781-2.984376-15.855469-11.972657-22.417969-25.671876zm33.875 25.671876v-46.957032c9.859375.542969 19.460938 2.472656 28.566406 5.710938-1.789062 5.539062-3.839844 10.757812-6.144531 15.574218-6.5625 13.699219-14.496094 22.6875-22.421875 25.671876zm39.144531-36.789063c7.492188 3.671875 14.554688 8.28125 21.035157 13.773437-11.40625 9.664063-24.601563 16.613282-38.800782 20.492188 7.082032-8.507812 13.152344-20.257812 17.765625-34.265625zm29.386719 5.84375c-7.851562-6.785156-16.644531-12.519531-26.152344-16.96875 3.625-14.277344 5.839844-30.351563 6.246094-47.421875h47.644531c-1.328125 24.164062-11.050781 46.746094-27.738281 64.390625zm-19.90625-75.847656c-.40625-17.070313-2.621094-33.148438-6.246094-47.421875 9.515625-4.453125 18.3125-10.1875 26.167969-16.984375 16.6875 17.648437 26.394531 40.242187 27.722656 64.40625zm0 0" fill="#5fd4e3"/><path d="m.105469 118.390625c2.464843-59.582031 50.804687-107.320313 110.636719-108.804687.953124-.027344 1.910156-.039063 2.875-.039063.960937 0 1.917968.011719 2.871093.039063 59.832031 1.484374 108.171875 49.222656 110.636719 108.804687.027344-.632813.054688-1.265625.070312-1.902344.023438-.953125.035157-1.910156.035157-2.871093 0-.960938-.011719-1.917969-.035157-2.875-1.5-60.464844-50.238281-109.207032-110.707031-110.7070318-.953125-.0234374-1.914062-.0351562-2.871093-.0351562-.960938 0-1.917969.0117188-2.875.0351562-60.464844 1.5039058-109.203126 50.2421878-110.7070318 110.7070318-.0234374.957031-.0351562 1.914062-.0351562 2.875 0 .957031.0117188 1.917968.0351562 2.871093.015625.636719.0429688 1.269531.0703128 1.902344zm0 0" fill="#a1f1fc"/><path d="m227.125 108.84375c-2.464844 59.582031-50.808594 107.316406-110.636719 108.804688-.953125.023437-1.914062.035156-2.875.035156-.960937 0-1.917969-.011719-2.875-.035156-59.828125-1.488282-108.167969-49.222657-110.632812-108.804688-.027344.628906-.0546878 1.265625-.0703128 1.898438-.0234374.957031-.0351562 1.914062-.0351562 2.875 0 .957031.0117188 1.917968.0351562 2.871093 1.4999998 60.46875 50.2421878 109.207031 110.7070318 110.707031.953124.023438 1.910156.035157 2.875.035157.960937 0 1.917968-.011719 2.871093-.035157 60.46875-1.5 109.207031-50.238281 110.707031-110.707031.023438-.953125.035157-1.910156.035157-2.871093 0-.960938-.011719-1.917969-.035157-2.875-.015624-.632813-.042968-1.265626-.070312-1.898438zm0 0" fill="#53bac7"/></svg>