<?xml version="1.0" encoding="iso-8859-1"?>
<!-- Generator: Adobe Illustrator 19.0.0, SVG Export Plug-In . SVG Version: 6.00 Build 0)  -->
<svg version="1.1" id="Layer_1" xmlns="http://www.w3.org/2000/svg" xmlns:xlink="http://www.w3.org/1999/xlink" x="0px" y="0px"
	 viewBox="0 0 511.266 511.266" style="enable-background:new 0 0 511.266 511.266;" xml:space="preserve">
<g>
	<path style="fill:#253744;" d="M424.845,439.062c0,3.076-3.111,5.566-6.949,5.564l-324.85-0.197
		c-3.836-0.004-6.943-2.498-6.943-5.574l0.008-9.852c0-3.076,3.111-5.568,6.949-5.564l324.85,0.197
		c3.836,0.002,6.943,2.498,6.943,5.572L424.845,439.062z"/>
	<rect x="104.161" y="147.292" style="fill:#2D404E;" width="302.945" height="66.17"/>
	<path style="opacity:0.09;fill:#E2E5E7;enable-background:new    ;" d="M407.121,155.552l0.006-8.168L104.182,147.2l-0.021,34.949
		c29.561-9.699,85.756-23.803,166.709-25.746C346.463,154.589,386.931,154.97,407.121,155.552z"/>
	<g>
		<path style="fill:#2D404E;" d="M401.382,212.573c-0.002,3.486,2.668,6.316,5.965,6.318l0,0c3.295,0.002,5.969-2.824,5.971-6.312
			l0.039-63.146c0.002-3.486-2.668-6.314-5.965-6.316l0,0c-3.295-0.002-5.969,2.822-5.971,6.311L401.382,212.573z"/>
		<path style="fill:#586A73;" d="M401.382,212.573l0.039-63.146c0.002-3.488,2.676-6.312,5.971-6.311l0,0
			c0,0-4.25,1.473-4.254,6.447c-0.002,4.977-0.037,63.01-0.037,63.01H401.382z"/>
		<path style="fill:#253744;" d="M413.318,212.579l0.039-63.146c0.002-3.486-2.668-6.314-5.965-6.316c0,0,4.682,2.508,4.68,6.453
			c-0.002,3.947-0.039,63.01-0.039,63.01h1.285V212.579z"/>
	</g>
	<g>
		<path style="fill:#2D404E;" d="M109.843,212.396c-0.002,3.486-2.676,6.312-5.971,6.311l0,0c-3.297-0.002-5.967-2.83-5.965-6.318
			l0.039-63.146c0.002-3.486,2.676-6.312,5.971-6.311l0,0c3.297,0.002,5.967,2.83,5.965,6.318L109.843,212.396z"/>
		<path style="fill:#586A73;" d="M109.843,212.396l0.039-63.146c0.002-3.488-2.668-6.316-5.965-6.318l0,0
			c0,0,4.25,1.479,4.246,6.453c-0.002,4.977-0.037,63.01-0.037,63.01L109.843,212.396z"/>
		<path style="fill:#253744;" d="M97.908,212.388l0.039-63.146c0.002-3.486,2.676-6.312,5.971-6.311c0,0-4.684,2.502-4.686,6.449
			c-0.002,3.945-0.039,63.01-0.039,63.01L97.908,212.388z"/>
	</g>
	<g>
		<path style="fill:#2D404E;" d="M255.494,408.773L4.562,402.484L4.55,422.763c6.406,8.275,45.145,5.631,45.145,5.631l205.787,0.125
			l205.787,0.125c0,0,38.734,2.691,45.152-5.576l0.012-20.279L255.494,408.773z"/>
	</g>
	<path style="fill:#253744;" d="M4.562,402.484L4.55,422.763c2.174,2.809,8.08,4.357,14.926,5.182v-25.088L4.562,402.484z"/>
	<path style="fill:#253744;" d="M4.55,404.198c1.66,2.812,12.625,6.709,19.32,6.709s66.373,0.781,66.373,0.781l2.041-2.594
		L4.55,404.198z"/>
	<path style="fill:#253744;" d="M506.41,404.198c-1.66,2.812-12.627,6.709-19.322,6.709s-66.371,0.781-66.371,0.781l-2.041-2.594
		L506.41,404.198z"/>
	<path style="fill:#253744;" d="M506.398,402.484l0.012,20.279c-2.176,2.809-8.08,4.357-14.928,5.182v-25.088L506.398,402.484z"/>
	<path style="fill:#E2E5E7;" d="M510.98,400.39l0.092-151.018c0,0-0.203,4.303-7.66,5.51c-14.25,2.305-46.486,1.928-46.486,1.928
		l-201.34-0.123l-201.34-0.121c0,0-32.234,0.336-46.48-1.984c-7.459-1.217-7.654-5.52-7.654-5.52L0.02,400.08
		c0,0-1.607,5.869,24.572,7.486s230.9,3.342,230.9,3.342s204.725-1.475,230.906-3.061S510.98,400.39,510.98,400.39z"/>
	<path style="fill:#C6CBCB;" d="M506.089,244.032L5.722,243.727c-3.74,1.865-5.611,5.334-5.611,5.334s0.195,4.303,7.654,5.52
		c14.246,2.32,46.48,1.984,46.48,1.984l201.34,0.121l201.34,0.123c0,0,32.236,0.377,46.486-1.928c7.457-1.207,7.66-5.51,7.66-5.51
		S509.027,245.636,506.089,244.032z"/>
	<path style="fill:#2D404E;" d="M487.582,217.073c-4.271-4.273-12.283-6.145-25.105-6.953c-12.824-0.809-39.004-1.625-39.004-1.625
		l-167.855-0.102l-167.857-0.104c0,0-26.182,0.785-39.004,1.578c-12.824,0.793-20.84,2.654-25.117,6.922
		C19.365,221.055,4.749,235.9,4.749,235.9l-0.006,11.385c0,0,0.354,4.268,12.107,5.164c11.754,0.898,43.811,1.807,43.811,1.807
		l194.928,0.119l194.928,0.119c0,0,32.059-0.871,43.814-1.754c11.754-0.883,12.113-5.15,12.113-5.15l0.006-11.385
		C506.449,236.206,491.855,221.343,487.582,217.073z"/>
	<path style="fill:#253744;" d="M506.449,236.206l-0.006,11.385c0,0-0.395,5.538-12.148,6.421
		c-11.756,0.883-43.779,0.483-43.779,0.483l-194.928-0.119L60.66,254.257c0,0-32.275,0.242-44.029-0.656
		c-11.754-0.896-11.889-6.314-11.889-6.314l0.006-11.385c0,0-0.893,4.623,16.605,5.834c17.498,1.213,234.238,0.143,234.238,0.143
		l222.182,0.135C477.773,242.013,501.457,243.318,506.449,236.206z"/>
	<path style="fill:#2D404E;" d="M400.619,302.134l-290.121-0.176c-10.033-0.008-18.17,8.252-18.176,18.443l-0.055,89.561
		l326.453,0.199l0.055-89.561C418.781,310.409,410.652,302.14,400.619,302.134z"/>
	<path style="fill:#253744;" d="M418.775,320.601c0.006-10.191-8.123-18.461-18.156-18.467l-290.121-0.176
		c-10.033-0.008-18.17,8.252-18.176,18.443l-0.037,61.057l326.453,0.199L418.775,320.601z"/>
	<path style="fill:#253744;" d="M401.295,407.072l-8.402-26.43l-137.379-0.082l-137.379-0.084l-8.438,26.42
		c0,0-5.863,8.674,4.205,8.68s141.59,0.086,141.59,0.086s131.52,0.08,141.588,0.086S401.295,407.072,401.295,407.072z"/>
	<path style="fill:#E2E5E7;" d="M397.345,405.48l-8.176-23.842l-133.658-0.08l-133.658-0.082l-8.207,23.832
		c0,0-5.705,7.822,4.092,7.828c9.795,0.006,137.754,0.084,137.754,0.084s127.957,0.078,137.754,0.084
		C403.041,413.31,397.345,405.48,397.345,405.48z"/>
	<g>
		<g>
			<path style="fill:#DF584C;" d="M255.572,292.907h-0.008c-3.121-0.002-6.055-1.217-8.26-3.424
				c-2.207-2.205-3.42-5.139-3.418-8.256c0.004-6.432,5.246-11.666,11.686-11.666c3.129,0.002,6.062,1.219,8.268,3.424
				c2.205,2.207,3.42,5.139,3.418,8.258C267.254,287.675,262.011,292.907,255.572,292.907z M255.578,271.562
				c-5.344,0-9.688,4.338-9.691,9.668c-0.002,2.582,1.004,5.012,2.832,6.84s4.26,2.836,6.848,2.838l0.006,1v-1
				c5.336,0,9.682-4.336,9.686-9.666c0.002-2.584-1.004-5.014-2.832-6.842S258.166,271.564,255.578,271.562z"/>
		</g>
		<g>
			<path style="fill:#DF584C;" d="M255.572,286.861c-0.002,0-0.002,0-0.004,0c-1.504-0.002-2.918-0.588-3.98-1.65
				s-1.648-2.477-1.646-3.979c0-1.791,0.867-3.49,2.318-4.547l1.178,1.617c-0.938,0.682-1.496,1.777-1.496,2.932
				c-0.002,0.967,0.375,1.877,1.061,2.562s1.598,1.062,2.568,1.064h0.002c2,0,3.629-1.625,3.631-3.623
				c0.002-1.154-0.557-2.25-1.492-2.932l1.178-1.617c1.451,1.059,2.316,2.758,2.314,4.551
				C261.201,284.339,258.675,286.861,255.572,286.861z"/>
		</g>
		<g>
			<rect x="254.574" y="273.762" style="fill:#DF584C;" width="2" height="7.473"/>
		</g>
	</g>
	<polygon style="opacity:0.25;fill:#E2E5E7;enable-background:new    ;" points="203.566,254.345 203.566,254.343 60.66,254.257 	
		"/>
	<path style="opacity:0.19;fill:#E2E5E7;enable-background:new    ;" d="M21.353,241.736c12.498,0.865,126.643,0.568,190.854,0.326
		c6.973-6.297,15.803-8.9,25.145-13.135c15.676-7.105,38.832-11.359,47.738-13.846c4.035-1.125,11.436-3.928,18.324-6.658
		l-47.797-0.029L87.76,208.29c0,0-26.182,0.785-39.004,1.578c-12.824,0.793-20.84,2.654-25.117,6.922
		c-4.275,4.266-18.891,19.111-18.891,19.111v0.236C4.845,237.093,6.222,240.689,21.353,241.736z"/>
	<path style="fill:#253744;" d="M4.748,236.138v-0.236C4.748,235.902,4.734,235.988,4.748,236.138z"/>
	<path style="opacity:0.07;fill:#E2E5E7;enable-background:new    ;" d="M212.207,242.062
		c-64.211,0.242-178.355,0.539-190.854-0.326c-15.131-1.047-16.508-4.643-16.605-5.598l-0.006,11.148c0,0,0.135,5.418,11.889,6.314
		c11.754,0.898,44.029,0.656,44.029,0.656l142.906,0.086C205.914,248.989,208.845,245.099,212.207,242.062z"/>
	<path style="fill:#D1D5D5;" d="M7.765,254.581c-7.459-1.217-7.654-5.52-7.654-5.52L0.019,400.079c0,0-1.561,5.756,23.852,7.436
		V256.021C17.795,255.722,11.988,255.269,7.765,254.581z"/>
	<path style="fill:#D1D5D5;" d="M503.502,254.581c7.457-1.217,7.654-5.52,7.654-5.52l0.092,151.018c0,0,1.561,5.756-23.854,7.436
		V256.303C493.472,256.004,499.279,255.269,503.502,254.581z"/>
	<rect x="96.736" y="381.46" style="opacity:0.19;fill:#253744;enable-background:new    ;" width="318.375" height="5.443"/>
	<path style="fill:#1C2E39;" d="M418.775,320.601c0.006-10.191-8.123-18.461-18.156-18.467l-290.121-0.176
		c-10.033-0.008-18.17,8.252-18.176,18.443l-0.037,61.057l9.107,0.199c0,0,0-34.588,2.477-57.922
		c2.412-7.598,8.814-13.998,12.666-13.998c14.334,0,143.668,0,143.668,0s127.08,0,135.998,0c4.418,0,10.432,5.613,12,14.33
		c3.781,21.012,1.496,57.393,1.496,57.393l9.041,0.197L418.775,320.601z"/>
	<path style="fill:#586A73;" d="M418.721,409.294l0.333-88.717c0.006-10.191-8.402-18.438-18.436-18.443
		c0,0,14.506,7.029,14.5,18.77c-0.008,11.74-0.008,81.58-0.008,81.58L418.721,409.294z"/>
	<path style="fill:#586A73;" d="M92.285,409.095l-0.694-88.843c0.006-10.191,8.874-18.302,18.907-18.294
		c0,0-13.715,3.727-13.725,19.201c-0.008,15.477-0.049,81.381-0.049,81.381L92.285,409.095z"/>
	<path style="opacity:0.09;fill:#E2E5E7;enable-background:new    ;" d="M342.355,302.099l-231.857-0.141
		c-10.033-0.008-18.17,8.252-18.176,18.443l-0.037,61.057l156.672,0.096C280.146,341.208,318.56,315.472,342.355,302.099z"/>
	<path style="fill:#E2E5E7;" d="M377.963,74.792c0.002-4.422-3.584-8.008-8.01-8.01L140.74,66.641c-4.426-0.002-8.016,3.58-8.02,8
		l-0.08,133.676l245.24,0.15L377.963,74.792z"/>
</g>
<g>
</g>
<g>
</g>
<g>
</g>
<g>
</g>
<g>
</g>
<g>
</g>
<g>
</g>
<g>
</g>
<g>
</g>
<g>
</g>
<g>
</g>
<g>
</g>
<g>
</g>
<g>
</g>
<g>
</g>
</svg>
