<svg id="Layer_1" height="512" viewBox="0 0 150 150" width="512" xmlns="http://www.w3.org/2000/svg" data-name="Layer 1"><circle cx="75" cy="75" fill="#2f4859" r="64"/><path d="m45.89 41.7v66.6c0 1.78 13 3.22 29.11 3.22s29.11-1.44 29.11-3.22v-66.6z" fill="#d5d6db"/><g fill="#ebf0f3"><ellipse cx="75" cy="41.7" rx="29.11" ry="3.23"/><ellipse cx="75" cy="41.7" rx="29.11" ry="3.23"/><path d="m75 38.48v-1a198 198 0 0 0 -20.69 1 46.18 46.18 0 0 0 -6.39 1 9.57 9.57 0 0 0 -1.92.69 2.87 2.87 0 0 0 -.7.53 1.46 1.46 0 0 0 -.41 1 1.49 1.49 0 0 0 .41 1 3.7 3.7 0 0 0 1.44.85 22.7 22.7 0 0 0 4.21 1 170.42 170.42 0 0 0 24 1.4 198 198 0 0 0 20.69-1 49.43 49.43 0 0 0 6.39-1 9 9 0 0 0 1.92-.7 2.83 2.83 0 0 0 .7-.52 1.49 1.49 0 0 0 .41-1 1.46 1.46 0 0 0 -.41-1 3.76 3.76 0 0 0 -1.45-.86 24.08 24.08 0 0 0 -4.2-1 170.7 170.7 0 0 0 -24-1.39v2a199 199 0 0 1 20.47.93 46.85 46.85 0 0 1 6.1 1 7.38 7.38 0 0 1 1.47.52l.15.09.2-.21-.25.13v.08l.2-.21-.25.13.53-.27h-.59a.6.6 0 0 0 .06.27l.53-.27h-.1l-.38-.34a.52.52 0 0 0 -.11.34h.49l-.38-.34a2.21 2.21 0 0 1 -.74.36 22.1 22.1 0 0 1 -3.87.87 170.71 170.71 0 0 1 -23.53 1.37 195.84 195.84 0 0 1 -20.47-.93 45.19 45.19 0 0 1 -6.1-1 6.78 6.78 0 0 1 -1.43-.53l-.15-.09-.2.21.25-.13v-.08l-.2.21.25-.13-.53.27h.59a.63.63 0 0 0 -.06-.27l-.53.27h.1l.38.35a.57.57 0 0 0 .11-.35h-.61l.38.35a2.46 2.46 0 0 1 .74-.36 22.28 22.28 0 0 1 3.87-.86 169.14 169.14 0 0 1 23.61-1.38z"/><path d="m75 65.06a199.72 199.72 0 0 1 -20.72-1c-8.89-1-9.63-2.22-9.63-3.51a1.24 1.24 0 0 1 2.4-.44c1.63 1 11.94 2.43 28 2.43s26.32-1.39 28-2.43a1.24 1.24 0 0 1 2.4.44c0 1.29-.74 2.53-9.63 3.51a199.72 199.72 0 0 1 -20.82 1z"/><path d="m75 88.28a199.72 199.72 0 0 1 -20.72-1c-8.89-1-9.63-2.22-9.63-3.51a1.24 1.24 0 0 1 2.4-.44c1.63 1 11.94 2.43 28 2.43s26.32-1.39 28-2.43a1.24 1.24 0 0 1 2.4.44c0 1.29-.74 2.52-9.63 3.51a199.72 199.72 0 0 1 -20.82 1z"/><path d="m75 111.5a199.72 199.72 0 0 1 -20.72-1c-8.89-1-9.63-2.22-9.63-3.51a1.24 1.24 0 0 1 2.4-.45c1.63 1 11.94 2.43 28 2.43s26.32-1.38 28-2.43a1.24 1.24 0 0 1 2.4.45c0 1.29-.74 2.52-9.63 3.51a199.72 199.72 0 0 1 -20.82 1z"/></g><path d="m75 39.4c-15 0-27.19 1-27.19 2.3s12.19 2.3 27.19 2.3 27.19-1 27.19-2.31-12.19-2.29-27.19-2.29z" fill="#e1e6e9"/><circle cx="75" cy="75.62" fill="#e56353" r="8.19"/><path d="m75 70.59s-3.38 4.83-3.38 6.69a3.38 3.38 0 0 0 6.76 0c0-1.86-3.38-6.69-3.38-6.69z" fill="#ebf0f3"/></svg>