<svg height="512pt" viewBox="0 0 512.026 512" width="512pt" xmlns="http://www.w3.org/2000/svg"><path d="m497.792969 395.160156h-483.535157c-7.859374 0-14.2304682-6.371094-14.2304682-14.230468v-366.683594c0-7.859375 6.3710942-14.2343752 14.2304682-14.2343752h483.535157c7.859375 0 14.230469 6.3750002 14.230469 14.2343752v366.683594c.003906 7.859374-6.371094 14.230468-14.230469 14.230468zm0 0" fill="#6770e6"/><path d="m497.792969.0117188h-483.535157c-7.859374 0-14.2304682 6.3750002-14.2304682 14.2343752v14c0-7.859375 6.3710942-14.234375 14.2304682-14.234375h483.535157c7.859375 0 14.234375 6.375 14.234375 14.234375v-14c0-7.859375-6.375-14.2343752-14.234375-14.2343752zm0 0" fill="#8f95e6"/><path d="m30.027344 350.929688v-301.726563c0-10.597656 8.589844-19.191406 19.191406-19.191406h413.617188c10.597656 0 19.191406 8.59375 19.191406 19.191406v301.726563c0 7.859374-6.375 14.230468-14.234375 14.230468h-423.535157c-7.859374 0-14.230468-6.371094-14.230468-14.230468zm0 0" fill="#69ebfc"/><path d="m196.300781 395.160156h121.898438v76.871094h-121.898438zm0 0" fill="#5861c7"/><path d="m375.835938 512.011719h-236.601563c-11.039063 0-19.992187-8.949219-19.992187-19.988281 0-11.039063 8.953124-19.992188 19.992187-19.992188h236.601563c11.039062 0 19.988281 8.953125 19.988281 19.992188 0 11.039062-8.949219 19.988281-19.988281 19.988281zm0 0" fill="#6770e6"/><path d="m375.835938 498.011719h-236.601563c-8.574219 0-15.867187-5.40625-18.707031-12.988281-.816406 2.179687-1.285156 4.535156-1.285156 7 0 11.039062 8.949218 19.988281 19.988281 19.988281h236.605469c11.039062 0 19.988281-8.949219 19.988281-19.988281 0-2.464844-.46875-4.820313-1.285157-7-2.835937 7.582031-10.128906 12.988281-18.703124 12.988281zm0 0" fill="#5861c7"/><path d="m49.066406 30.011719h71.359375l-20 70.878906h-100.425781l22.597656-53.339844c4.503906-10.632812 14.929688-17.539062 26.46875-17.539062zm0 0" fill="#ff8354"/><path d="m120.425781 30.011719h90.398438l-10 70.878906h-100.398438zm0 0" fill="#fff7f2"/><path d="m210.824219 30.011719h90.402343l10 70.878906h-110.402343zm0 0" fill="#ff8354"/><path d="m301.226562 30.011719h90.398438l20 70.878906h-100.398438zm0 0" fill="#fff7f2"/><path d="m391.625 30.011719h71.34375c11.550781 0 21.980469 6.914062 26.480469 17.550781l22.550781 53.328125h-100.375zm0 0" fill="#ff8354"/><path d="m50.238281 164.589844h-.050781c-27.71875 0-50.1875-22.46875-50.1875-50.1875v-13.511719h100.425781v13.511719c0 27.71875-22.46875 50.1875-50.1875 50.1875zm0 0" fill="#e0734a"/><path d="m150.664062 164.589844h-.050781c-27.71875 0-50.1875-22.472656-50.1875-50.1875v-13.511719h100.425781v13.511719c0 27.71875-22.46875 50.1875-50.1875 50.1875zm0 0" fill="#ffefe4"/><path d="m361.464844 164.589844h-.054688c-27.714844 0-50.183594-22.472656-50.183594-50.1875v-13.511719h100.425782v13.511719c0 27.71875-22.46875 50.1875-50.1875 50.1875zm0 0" fill="#ffefe4"/><path d="m461.839844 164.589844c-27.71875 0-50.1875-22.472656-50.1875-50.1875v-13.511719h100.375v13.511719c0 27.71875-22.472656 50.1875-50.1875 50.1875zm0 0" fill="#e0734a"/><path d="m261.039062 164.589844h-10c-27.71875 0-50.183593-22.472656-50.183593-50.1875v-13.511719h110.371093v13.511719c0 27.71875-22.46875 50.1875-50.1875 50.1875zm0 0" fill="#e0734a"/><path d="m347.675781 340.921875h-183.351562c-12.140625 0-21.984375-9.84375-21.984375-21.988281v-105.546875c0-12.140625 9.84375-21.984375 21.984375-21.984375h183.347656c12.140625 0 21.984375 9.84375 21.984375 21.984375v105.546875c.003906 12.144531-9.839844 21.988281-21.980469 21.988281zm0 0" fill="#6770e6"/><path d="m182.136719 217.015625c-.621094 0-1.144531.523437-1.144531 1.148437v22.226563c0 .621094.523437 1.144531 1.144531 1.144531h10.746093c.621094 0 1.144532-.523437 1.144532-1.144531v-22.226563c0-.625-.523438-1.148437-1.144532-1.148437zm0 0" fill="#69ebfc"/><path d="m167.675781 223.109375h8.976563v12.328125h-8.976563zm0 0" fill="#69ebfc"/><path d="m198.367188 223.109375h8.980468v12.328125h-8.980468zm0 0" fill="#69ebfc"/><path d="m198.367188 239.777344v.613281c0 3.023437-2.460938 5.480469-5.484376 5.480469h-10.746093c-3.023438 0-5.484375-2.457032-5.484375-5.480469v-.613281h-8.976563v3.332031c0 4.800781 3.890625 8.691406 8.691407 8.691406h22.289062c4.800781 0 8.691406-3.890625 8.691406-8.691406v-3.332031zm0 0" fill="#69ebfc"/><path d="m198.652344 206.75h-22.289063c-4.800781 0-8.691406 3.890625-8.691406 8.691406v3.332032h8.980469v-.613282c0-3.023437 2.460937-5.484375 5.480468-5.484375h10.746094c3.023438 0 5.484375 2.460938 5.484375 5.484375v.613282h8.980469v-3.332032c.003906-4.800781-3.890625-8.691406-8.691406-8.691406zm0 0" fill="#69ebfc"/><g fill="#8f95e6"><path d="m200.394531 277.679688h-25.769531c-3.824219 0-6.949219-3.125-6.949219-6.949219s3.125-6.953125 6.949219-6.953125h25.769531c3.824219 0 6.953125 3.128906 6.953125 6.953125s-3.132812 6.949219-6.953125 6.949219zm0 0"/><path d="m223.863281 314.566406h-49.238281c-3.824219 0-6.953125-3.128906-6.953125-6.953125s3.128906-6.949219 6.953125-6.949219h49.238281c3.824219 0 6.953125 3.125 6.953125 6.949219s-3.128906 6.953125-6.953125 6.953125zm0 0"/><path d="m246.054688 277.679688h-25.769532c-3.824218 0-6.949218-3.125-6.949218-6.949219s3.125-6.953125 6.949218-6.953125h25.769532c3.824218 0 6.953124 3.128906 6.953124 6.953125s-3.128906 6.949219-6.953124 6.949219zm0 0"/><path d="m291.714844 277.679688h-25.769532c-3.824218 0-6.953124-3.125-6.953124-6.949219s3.128906-6.953125 6.953124-6.953125h25.769532c3.824218 0 6.949218 3.128906 6.949218 6.953125s-3.125 6.949219-6.949218 6.949219zm0 0"/><path d="m337.375 277.679688h-25.765625c-3.824219 0-6.953125-3.125-6.953125-6.949219s3.128906-6.953125 6.953125-6.953125h25.765625c3.824219 0 6.953125 3.128906 6.953125 6.953125-.003906 3.824219-3.128906 6.949219-6.953125 6.949219zm0 0"/></g><path d="m322.585938 307.613281c0 9.917969-8.039063 17.957031-17.957032 17.957031-9.914062 0-17.953125-8.039062-17.953125-17.957031 0-9.914062 8.039063-17.953125 17.953125-17.953125 9.917969 0 17.957032 8.039063 17.957032 17.953125zm0 0" fill="#ff8354"/><path d="m344.324219 307.613281c0 9.917969-8.039063 17.957031-17.953125 17.957031-9.917969 0-17.957032-8.039062-17.957032-17.957031 0-9.914062 8.039063-17.953125 17.957032-17.953125 9.914062 0 17.953125 8.039063 17.953125 17.953125zm0 0" fill="#69ebfc"/><path d="m308.414062 307.613281c0 5.828125 2.785157 10.988281 7.085938 14.269531 4.300781-3.28125 7.085938-8.441406 7.085938-14.269531 0-5.824219-2.785157-10.984375-7.085938-14.265625-4.296875 3.28125-7.085938 8.441406-7.085938 14.265625zm0 0" fill="#d476e2"/></svg>