<svg height="512pt" viewBox="0 0 512 512" width="512pt" xmlns="http://www.w3.org/2000/svg"><path d="m271.097656 295.070312h-174.859375c-5.511719 0-9.984375-4.46875-9.984375-9.984374v-196.957032c0-5.511718 4.46875-9.984375 9.984375-9.984375h174.863281v216.925781zm0 0" fill="#ff8354"/><path d="m271.097656 295.070312h132.328125c5.511719 0 9.984375-4.46875 9.984375-9.984374v-196.957032c0-5.511718-4.46875-9.984375-9.984375-9.984375h-132.328125zm0 0" fill="#e0734a"/><path d="m96.238281 78.144531c-5.511719 0-9.980469 4.46875-9.980469 9.984375v18c0-5.511718 4.46875-9.984375 9.980469-9.984375h174.863281v-18zm0 0" fill="#ffac8c"/><path d="m403.425781 78.144531h-132.328125v18h132.328125c5.511719 0 9.984375 4.46875 9.984375 9.984375v-18c0-5.515625-4.46875-9.984375-9.984375-9.984375zm0 0" fill="#ff8354"/><path d="m168.507812 95.089844v183.035156h-65.304687v-183.035156zm0 0" fill="#e0734a"/><path d="m149.75 185.515625h-28.9375c-3.277344 0-5.933594-2.65625-5.933594-5.929687 0-3.277344 2.65625-5.933594 5.933594-5.933594h28.9375c3.277344 0 5.933594 2.65625 5.933594 5.933594 0 3.273437-2.65625 5.929687-5.933594 5.929687zm0 0" fill="#ffac8c"/><path d="m254.152344 95.089844v183.035156h-67.003906v-183.035156zm0 0" fill="#e0734a"/><path d="m234.273438 185.515625h-28.9375c-3.277344 0-5.933594-2.65625-5.933594-5.929687 0-3.277344 2.65625-5.933594 5.933594-5.933594h28.9375c3.273437 0 5.929687 2.65625 5.929687 5.933594 0 3.273437-2.65625 5.929687-5.929687 5.929687zm0 0" fill="#ffac8c"/><path d="m136.292969 284.460938h-.878907c-3.03125 0-5.492187-2.457032-5.492187-5.492188v-189.285156c0-3.03125 2.457031-5.492188 5.492187-5.492188h.878907c3.03125 0 5.492187 2.457032 5.492187 5.492188v189.285156c0 3.035156-2.457031 5.492188-5.492187 5.492188zm0 0" fill="#ffac8c"/><path d="m136.292969 84.195312h-.878907c-3.03125 0-5.492187 2.457032-5.492187 5.492188v6.457031h11.863281v-6.457031c0-3.035156-2.457031-5.492188-5.492187-5.492188zm0 0" fill="#ffcdba"/><path d="m220.648438 284.460938c-3.273438 0-5.929688-2.65625-5.929688-5.929688v-188.40625c0-3.277344 2.65625-5.933594 5.929688-5.933594 3.277343 0 5.933593 2.65625 5.933593 5.933594v188.40625c0 3.273438-2.65625 5.929688-5.933593 5.929688zm0 0" fill="#ffac8c"/><path d="m221.089844 84.195312h-.878906c-3.03125 0-5.492188 2.457032-5.492188 5.492188v6.457031h11.863281v-6.457031c0-3.035156-2.457031-5.492188-5.492187-5.492188zm0 0" fill="#ffcdba"/><path d="m275.101562 123.445312h-8.003906c-3.945312 0-7.144531-3.203124-7.144531-7.148437s3.199219-7.144531 7.144531-7.144531h8.003906c3.945313 0 7.144532 3.199218 7.144532 7.144531s-3.199219 7.148437-7.144532 7.148437zm0 0" fill="#ffac8c"/><path d="m275.101562 264.0625h-8.003906c-3.945312 0-7.144531-3.199219-7.144531-7.144531 0-3.945313 3.199219-7.144531 7.144531-7.144531h8.003906c3.945313 0 7.144532 3.199218 7.144532 7.144531 0 3.945312-3.199219 7.144531-7.144532 7.144531zm0 0" fill="#ffac8c"/><path d="m90.257812 109.152344h-4.003906v14.292968h4.003906c3.945313 0 7.144532-3.199218 7.144532-7.148437-.003906-3.945313-3.199219-7.144531-7.144532-7.144531zm0 0" fill="#ffac8c"/><path d="m90.257812 249.773438h-4.003906v14.289062h4.003906c3.945313 0 7.144532-3.199219 7.144532-7.148438-.003906-3.941406-3.199219-7.140624-7.144532-7.140624zm0 0" fill="#ffac8c"/><path d="m184.84375 512h-174.859375c-5.515625 0-9.984375-4.46875-9.984375-9.984375v-196.960937c0-5.511719 4.46875-9.984376 9.984375-9.984376h174.863281v216.929688zm0 0" fill="#6770e6"/><path d="m184.84375 512h132.328125c5.511719 0 9.984375-4.46875 9.984375-9.984375v-196.960937c0-5.511719-4.46875-9.984376-9.984375-9.984376h-132.328125zm0 0" fill="#5861c7"/><path d="m82.253906 312.019531v183.03125h-65.304687v-183.03125zm0 0" fill="#5861c7"/><path d="m63.496094 402.445312h-28.9375c-3.277344 0-5.933594-2.65625-5.933594-5.933593 0-3.277344 2.65625-5.933594 5.933594-5.933594h28.9375c3.277344 0 5.933594 2.65625 5.933594 5.933594 0 3.277343-2.65625 5.933593-5.933594 5.933593zm0 0" fill="#8f95e6"/><path d="m167.894531 312.019531v183.03125h-67v-183.03125zm0 0" fill="#5861c7"/><g fill="#8f95e6"><path d="m148.019531 402.445312h-28.941406c-3.273437 0-5.929687-2.65625-5.929687-5.933593 0-3.277344 2.65625-5.933594 5.929687-5.933594h28.941406c3.273438 0 5.929688 2.65625 5.929688 5.933594 0 3.277343-2.65625 5.933593-5.929688 5.933593zm0 0"/><path d="m50.039062 501.390625h-.878906c-3.03125 0-5.492187-2.457031-5.492187-5.492187v-189.285157c0-3.035156 2.457031-5.492187 5.492187-5.492187h.878906c3.03125 0 5.492188 2.457031 5.492188 5.492187v189.285157c0 3.035156-2.457031 5.492187-5.492188 5.492187zm0 0"/><path d="m134.394531 501.390625c-3.273437 0-5.929687-2.65625-5.929687-5.933594v-188.40625c0-3.273437 2.65625-5.929687 5.929687-5.929687 3.277344 0 5.933594 2.65625 5.933594 5.929687v188.40625c0 3.277344-2.65625 5.933594-5.933594 5.933594zm0 0"/><path d="m188.847656 340.371094h-8.003906c-3.945312 0-7.144531-3.199219-7.144531-7.144532 0-3.945312 3.199219-7.148437 7.144531-7.148437h8.003906c3.945313 0 7.144532 3.203125 7.144532 7.148437 0 3.945313-3.199219 7.144532-7.144532 7.144532zm0 0"/><path d="m188.847656 480.992188h-8.003906c-3.945312 0-7.144531-3.199219-7.144531-7.144532 0-3.949218 3.199219-7.148437 7.144531-7.148437h8.003906c3.945313 0 7.144532 3.199219 7.144532 7.148437 0 3.945313-3.199219 7.144532-7.144532 7.144532zm0 0"/><path d="m4.003906 326.082031h-4.003906v14.289063h4.003906c3.945313 0 7.144532-3.195313 7.144532-7.144532-.003907-3.945312-3.199219-7.144531-7.144532-7.144531zm0 0"/><path d="m4.003906 466.699219h-4.003906v14.289062h4.003906c3.945313 0 7.144532-3.195312 7.144532-7.144531-.003907-3.945312-3.199219-7.144531-7.144532-7.144531zm0 0"/></g><path d="m369.6875 512h-174.859375c-5.515625 0-9.984375-4.46875-9.984375-9.984375v-196.960937c0-5.511719 4.46875-9.984376 9.984375-9.984376h174.859375zm0 0" fill="#d476e2"/><path d="m184.84375 484.015625v18c0 5.511719 4.46875 9.984375 9.984375 9.984375h174.863281v-18h-174.863281c-5.515625 0-9.984375-4.46875-9.984375-9.984375zm0 0" fill="#b665c2"/><path d="m369.6875 512h132.328125c5.511719 0 9.984375-4.46875 9.984375-9.984375v-196.960937c0-5.511719-4.46875-9.984376-9.984375-9.984376h-132.328125zm0 0" fill="#b665c2"/><path d="m502.015625 494h-132.328125v18h132.328125c5.511719 0 9.984375-4.46875 9.984375-9.984375v-18c0 5.515625-4.46875 9.984375-9.984375 9.984375zm0 0" fill="#a65db3"/><path d="m267.097656 312.019531v183.03125h-65.304687v-183.03125zm0 0" fill="#b665c2"/><path d="m248.339844 402.445312h-28.9375c-3.277344 0-5.933594-2.65625-5.933594-5.933593 0-3.277344 2.65625-5.933594 5.933594-5.933594h28.9375c3.277344 0 5.933594 2.65625 5.933594 5.933594 0 3.277343-2.65625 5.933593-5.933594 5.933593zm0 0" fill="#ea82fa"/><path d="m352.742188 312.019531v183.03125h-67.003907v-183.03125zm0 0" fill="#b665c2"/><path d="m332.863281 402.445312h-28.9375c-3.277343 0-5.933593-2.65625-5.933593-5.933593 0-3.277344 2.65625-5.933594 5.933593-5.933594h28.9375c3.273438 0 5.929688 2.65625 5.929688 5.933594 0 3.277343-2.65625 5.933593-5.929688 5.933593zm0 0" fill="#ea82fa"/><path d="m234.882812 501.390625h-.878906c-3.03125 0-5.492187-2.457031-5.492187-5.492187v-189.285157c0-3.035156 2.457031-5.492187 5.492187-5.492187h.878906c3.03125 0 5.492188 2.457031 5.492188 5.492187v189.285157c0 3.035156-2.457031 5.492187-5.492188 5.492187zm0 0" fill="#ea82fa"/><path d="m228.515625 494v1.898438c0 3.03125 2.457031 5.492187 5.492187 5.492187h.878907c3.03125 0 5.492187-2.457031 5.492187-5.492187v-1.898438zm0 0" fill="#d476e2"/><path d="m319.238281 501.390625c-3.273437 0-5.929687-2.65625-5.929687-5.933594v-188.40625c0-3.273437 2.65625-5.929687 5.929687-5.929687 3.277344 0 5.933594 2.65625 5.933594 5.929687v188.40625c0 3.277344-2.65625 5.933594-5.933594 5.933594zm0 0" fill="#ea82fa"/><path d="m313.308594 494v1.898438c0 3.03125 2.457031 5.492187 5.492187 5.492187h.878907c3.03125 0 5.492187-2.457031 5.492187-5.492187v-1.898438zm0 0" fill="#d476e2"/><path d="m373.691406 340.371094h-8.003906c-3.945312 0-7.144531-3.199219-7.144531-7.144532 0-3.945312 3.199219-7.148437 7.144531-7.148437h8.003906c3.945313 0 7.144532 3.203125 7.144532 7.148437 0 3.945313-3.199219 7.144532-7.144532 7.144532zm0 0" fill="#ea82fa"/><path d="m373.691406 480.992188h-8.003906c-3.945312 0-7.144531-3.199219-7.144531-7.144532 0-3.949218 3.199219-7.148437 7.144531-7.148437h8.003906c3.945313 0 7.144532 3.199219 7.144532 7.148437 0 3.945313-3.199219 7.144532-7.144532 7.144532zm0 0" fill="#ea82fa"/><path d="m188.847656 326.082031h-4.003906v14.289063h4.003906c3.945313 0 7.144532-3.195313 7.144532-7.144532 0-3.945312-3.199219-7.144531-7.144532-7.144531zm0 0" fill="#ea82fa"/><path d="m188.847656 466.699219h-4.003906v14.289062h4.003906c3.945313 0 7.144532-3.195312 7.144532-7.144531 0-3.945312-3.199219-7.144531-7.144532-7.144531zm0 0" fill="#ea82fa"/><path d="m0 484.015625v18c0 5.515625 4.46875 9.984375 9.984375 9.984375h174.863281v-18h-174.863281c-5.515625 0-9.984375-4.46875-9.984375-9.984375zm0 0" fill="#5861c7"/><path d="m43.667969 494v1.898438c0 3.03125 2.457031 5.492187 5.492187 5.492187h.878906c3.03125 0 5.492188-2.457031 5.492188-5.492187v-1.898438zm0 0" fill="#6770e6"/><path d="m128.464844 494v1.898438c0 3.03125 2.457031 5.492187 5.492187 5.492187h.878907c3.03125 0 5.492187-2.457031 5.492187-5.492187v-1.898438zm0 0" fill="#6770e6"/><path d="m464.554688 210.984375-44.976563 31.144531-44.976563-31.144531c-29.714843-20.578125-47.445312-54.421875-47.445312-90.570313v-80.414062l92.421875-40 92.421875 40v80.414062c0 36.144532-17.730469 69.992188-47.445312 90.570313zm0 0" fill="#69ebfc"/><path d="m419.578125 0-92.421875 40v14l92.421875-40 92.421875 40v-14zm0 0" fill="#a1f1fc"/><path d="m385.984375 194.542969c-24.308594-16.839844-38.828125-44.550781-38.828125-74.128907v-67.277343l72.421875-31.34375 72.421875 31.34375v67.277343c0 29.578126-14.519531 57.289063-38.835938 74.125l-33.585937 23.261719zm0 0" fill="#5fd4e3"/><path d="m407.445312 164.925781c-3.484374 0-6.992187-1.132812-9.9375-3.457031l-23.164062-18.316406c-6.949219-5.496094-8.128906-15.582032-2.636719-22.527344 5.496094-6.949219 15.582031-8.128906 22.527344-2.636719l10.769531 8.515625 37.425782-45.929687c5.59375-6.867188 15.695312-7.898438 22.5625-2.300781 6.867187 5.59375 7.898437 15.695312 2.304687 22.5625l-47.410156 58.183593c-3.164063 3.886719-7.78125 5.90625-12.441407 5.90625zm0 0" fill="#ffefe4"/></svg>