<svg height="512pt" viewBox="0 0 512.304 512" width="512pt" xmlns="http://www.w3.org/2000/svg"><path d="m511.421875 145.832031c-.042969-.878906-.082031-1.78125-.160156-2.699219-.460938-5.519531-5.320313-9.601562-10.800781-9.121093-5.5.460937-9.601563 5.300781-9.121094 10.800781.339844 3.960938.101562 7.078125-.480469 9.519531-.097656.460938-.21875.878907-.359375 1.28125-.960938 3.019531-2.5 4.878907-4.019531 6.039063-.019531.019531-.019531.019531-.039063.039062 0-.078125.019532-.179687.019532-.257812 1.160156-18.882813-4.402344-33.421875-14.980469-38.960938-4.699219-2.480468-14.441407-5.140625-26.820313 4.78125-8.339844 6.699219-12.699218 14.859375-12.699218 23.136719 0 .5625.019531 1.101563.058593 1.660156 0 .140625.019531.300781.039063.441407.019531.441406.082031.878906.140625 1.320312.019531.058594.019531.121094.039062.199219.082031.519531.160157 1.039062.28125 1.558593.019531.0625.019531.121094.039063.203126.140625.539062.28125 1.097656.441406 1.636718.460938 1.582032 1.101562 3.160156 1.921875 4.722656 4.796875 9.238282 14.878906 16.398438 26.199219 19.917969-4.800782 10.582031-12.839844 19.722657-24.382813 23.839844-5.21875 1.839844-7.9375 7.5625-6.078125 12.761719 1.460938 4.101562 5.300782 6.660156 9.417969 6.660156 1.101563 0 2.242187-.179688 3.34375-.582031 20.238281-7.179688 32.316406-23.71875 38.339844-40.617188 2.078125-.261719 4.117187-.660156 6.078125-1.222656 14.21875-4.105469 22.675781-15.867187 23.527344-32.078125.003906-.082031.011718-.160156.015624-.238281.074219-1.546875.101563-3.117188.039063-4.742188zm-44.84375 12.761719c-.039063 1.316406-.136719 2.679688-.277344 4.039062-6.199219-2.101562-11.601562-5.820312-13.621093-9.699218-.699219-1.382813-2.359376-4.582032 4.5-10.082032.019531-.019531.058593-.058593.101562-.078124 2.699219-2.140626 6.699219-.839844 7.757812 2.457031.980469 2.980469 1.742188 7.382812 1.539063 13.363281zm0 0" fill="#ff8354"/><path d="m486.441406 161.691406c0-.078125.019532-.179687.019532-.257812.019531.078125.019531.136718.019531.21875-.019531.019531-.019531.019531-.039063.039062zm0 0" fill="#ffac8c"/><path d="m486.460938 161.433594c-1.839844-11.941406-7.199219-20.902344-14.980469-24.960938-4.699219-2.480468-14.441407-5.140625-26.820313 4.78125-5.980468 4.796875-9.898437 10.339844-11.660156 16.15625-.160156-.539062-.300781-1.097656-.441406-1.636718-.019532-.082032-.019532-.140626-.039063-.203126-.121093-.519531-.199219-1.039062-.28125-1.558593-.019531-.078125-.019531-.140625-.039062-.199219-.058594-.441406-.121094-.878906-.140625-1.320312-.019532-.140626-.039063-.300782-.039063-.441407-.039062-.558593-.058593-1.097656-.058593-1.660156 0-8.277344 4.359374-16.4375 12.699218-23.136719 12.378906-9.921875 22.121094-7.261718 26.820313-4.78125 10.578125 5.539063 16.140625 20.078125 14.980469 38.960938zm0 0" fill="#ffac8c"/><path d="m511.4375 145.664062c.175781 3.320313.042969 6.480469-.347656 9.46875-1.332032-4.519531-5.722656-7.609374-10.574219-7.109374-4.214844.425781-8.15625 2.890624-9.496094 6.472656.539063-2.449219.726563-5.570313.324219-9.527344-.566406-5.492188 3.453125-10.398438 8.945312-10.945312 5.472657-.566407 10.394532 3.433593 10.945313 8.945312.09375.917969.148437 1.816406.203125 2.695312zm0 0" fill="#ffac8c"/><path d="m354.226562 61.984375c-4.417968 0-8-3.582031-8-8v-35.832031c0-4.417969 3.582032-8 8-8 4.417969 0 8 3.582031 8 8v35.832031c0 4.417969-3.582031 8-8 8zm0 0" fill="#69ebfc"/><path d="m313.765625 41.984375c-4.417969 0-8-3.582031-8-8v-25.832031c0-4.417969 3.582031-8 8-8s8 3.582031 8 8v25.832031c0 4.417969-3.582031 8-8 8zm0 0" fill="#69ebfc"/><path d="m130.132812 214.371094s-37.117187-63.679688-80.003906-63.679688c-42.890625 0 4.359375 71.121094 11.277344 112.886719zm0 0" fill="#e0734a"/><path d="m118.550781 443.488281h85.921875v68.664063h-85.921875zm0 0" fill="#e0734a"/><path d="m333.765625 443.488281h85.925781v68.664063h-85.925781zm0 0" fill="#e0734a"/><path d="m333.765625 498.152344h85.925781v14h-85.925781zm0 0" fill="#c46541"/><path d="m118.550781 498.152344h85.921875v14h-85.921875zm0 0" fill="#c46541"/><path d="m387.996094 477.820312h-225.074219c-68.652344 0-124.304687-55.65625-124.304687-124.304687 0-115.976563 94.015624-209.992187 209.992187-209.992187h84c99.242187 0 179.695313 80.449218 179.695313 179.691406v30.300781c0 68.648437-55.65625 124.304687-124.308594 124.304687zm0 0" fill="#ff8354"/><path d="m332.609375 143.523438h-84c-115.976563 0-209.992187 94.015624-209.992187 209.992187 0 2.089844.054687 4.167969.15625 6.234375 4.085937-112.378906 96.460937-202.226562 209.835937-202.226562h84c99.242187 0 179.695313 80.449218 179.695313 179.691406v-14c0-99.242188-80.453126-179.691406-179.695313-179.691406zm0 0" fill="#ffac8c"/><path d="m81.238281 310.671875c-5.953125 0-10.78125-4.828125-10.78125-10.78125v-21.695313c0-5.957031 4.828125-10.78125 10.78125-10.78125s10.78125 4.824219 10.78125 10.78125v21.695313c0 5.953125-4.828125 10.78125-10.78125 10.78125zm0 0" fill="#5861c7"/><path d="m372.175781 183.523438h-116.609375c-5.523437 0-10-4.480469-10-10 0-5.523438 4.476563-10 10-10h116.609375c5.523438 0 10 4.476562 10 10 0 5.519531-4.476562 10-10 10zm0 0" fill="#e0734a"/><path d="m138.550781 354.980469c0 38.261719-31.015625 69.277343-69.273437 69.277343-38.261719 0-69.277344-31.015624-69.277344-69.277343 0-38.257813 31.015625-69.273438 69.277344-69.273438 38.257812 0 69.273437 31.015625 69.273437 69.273438zm0 0" fill="#ffac8c"/><g fill="#ff8354"><path d="m37.3125 387.925781c-4.667969 0-8.453125-3.785156-8.453125-8.453125v-48.984375c0-4.667969 3.78125-8.453125 8.453125-8.453125 4.667969 0 8.453125 3.785156 8.453125 8.453125v48.984375c0 4.667969-3.785156 8.453125-8.453125 8.453125zm0 0"/><path d="m81.238281 387.925781c-4.667969 0-8.453125-3.785156-8.453125-8.453125v-48.984375c0-4.667969 3.78125-8.453125 8.453125-8.453125 4.667969 0 8.453125 3.785156 8.453125 8.453125v48.984375c0 4.667969-3.785156 8.453125-8.453125 8.453125zm0 0"/><path d="m158.550781 443.488281h85.921875v68.664063h-85.921875zm0 0"/></g><path d="m158.550781 498.152344h85.921875v14h-85.921875zm0 0" fill="#e0734a"/><path d="m373.765625 443.488281h85.925781v68.664063h-85.925781zm0 0" fill="#ff8354"/><path d="m373.765625 498.152344h85.925781v14h-85.925781zm0 0" fill="#e0734a"/><path d="m233.195312 210.15625s-40.296874-69.132812-86.855468-69.132812c-46.5625 0 4.734375 77.210937 12.242187 122.554687zm0 0" fill="#ff8354"/><path d="m146.339844 155.023438c35.6875 0 86.855468 55.136718 86.855468 55.136718s-40.296874-69.136718-86.855468-69.136718c-17.242188 0-21.058594 10.59375-18.65625 26.230468 1.761718-7.621094 7.285156-12.230468 18.65625-12.230468zm0 0" fill="#ffac8c"/><path d="m169.328125 310.671875c-5.953125 0-10.777344-4.828125-10.777344-10.78125v-21.695313c0-5.957031 4.824219-10.78125 10.777344-10.78125 5.957031 0 10.78125 4.824219 10.78125 10.78125v21.695313c0 5.953125-4.824219 10.78125-10.78125 10.78125zm0 0" fill="#5861c7"/><path d="m372.210938 118.8125c0 32.277344-26.167969 58.445312-58.445313 58.445312s-58.445313-26.167968-58.445313-58.445312 26.167969-58.445312 58.445313-58.445312 58.445313 26.167968 58.445313 58.445312zm0 0" fill="#69ebfc"/><path d="m313.765625 68.828125c30.855469 0 56.105469 23.914063 58.273437 54.214844.101563-1.398438.171876-2.804688.171876-4.230469 0-32.277344-26.167969-58.441406-58.445313-58.441406s-58.445313 26.164062-58.445313 58.441406c0 1.425781.070313 2.832031.171876 4.230469 2.167968-30.300781 27.417968-54.214844 58.273437-54.214844zm0 0" fill="#a1f1fc"/><path d="m354.226562 118.8125c0 22.347656-18.113281 40.460938-40.460937 40.460938s-40.460937-18.113282-40.460937-40.460938 18.113281-40.460938 40.460937-40.460938 40.460937 18.113282 40.460937 40.460938zm0 0" fill="#5fd4e3"/><path d="m310.804688 145.605469c-3.828126-.558594-7.230469-2.039063-10.214844-4.441407-1.742188-1.398437-3.191406-3.152343-4.351563-5.261718-1.402343-2.558594-.304687-5.78125 2.398438-6.882813 2.148437-.878906 4.667969-.132812 5.867187 1.855469.386719.640625.832032 1.25 1.332032 1.832031 1.371093 1.605469 3.03125 2.71875 4.96875 3.328125v-14.542968l-.683594-.304688c-1.890625-.714844-3.664063-1.554688-5.320313-2.527344-1.65625-.964844-3.113281-2.09375-4.363281-3.367187-1.253906-1.273438-2.25-2.714844-2.984375-4.324219-.742187-1.605469-1.113281-3.40625-1.113281-5.398438 0-1.835937.332031-3.566406.996094-5.203124.667968-1.628907 1.617187-3.085938 2.875-4.359376 1.246093-1.277343 2.761718-2.335937 4.554687-3.179687 1.78125-.84375 3.792969-1.386719 6.039063-1.644531v-3.171875c0-1.882813 1.523437-3.40625 3.40625-3.40625 1.882812 0 3.40625 1.527343 3.40625 3.40625v3.328125c2.042968.304687 3.816406.84375 5.320312 1.609375 1.507812.765625 2.796875 1.65625 3.90625 2.640625.429688.378906.839844.832031 1.230469 1.316406 1.933593 2.417969.953125 6.039062-1.878907 7.300781-1.9375.863281-4.167968.320313-5.597656-1.25-.746094-.824219-1.734375-1.632812-2.980468-2.203125v13.699219c2.199218.921875 4.179687 1.863281 5.972656 2.835937 1.785156.96875 3.3125 2.066407 4.59375 3.289063 1.277344 1.222656 2.242187 2.617187 2.90625 4.167969.667968 1.5625.996094 3.359375.996094 5.398437 0 2.296875-.394532 4.339844-1.183594 6.125-.792969 1.785157-1.851563 3.316407-3.179688 4.589844-1.332031 1.277344-2.867187 2.300781-4.628906 3.066406-1.757812.765625-3.585938 1.296875-5.476562 1.601563v3.328125c0 1.882812-1.523438 3.40625-3.40625 3.40625-1.882813 0-3.40625-1.527344-3.40625-3.40625zm-5.042969-40.03125c0 1.226562.390625 2.285156 1.179687 3.179687.792969.894532 2.082032 1.800782 3.863282 2.71875v-11.175781c-1.527344.410156-2.75 1.070313-3.667969 1.988281-.925781.917969-1.375 2.015625-1.375 3.289063zm16.527343 24.648437c0-1.324218-.355468-2.425781-1.078124-3.289062-.714844-.871094-1.910157-1.734375-3.59375-2.605469v11.710937c1.378906-.457031 2.503906-1.1875 3.371093-2.179687.863281-1 1.300781-2.210937 1.300781-3.636719zm0 0" fill="#a1f1fc"/><path d="m273.304688 61.984375c-4.417969 0-8-3.582031-8-8v-27.832031c0-4.417969 3.582031-8 8-8 4.417968 0 8 3.582031 8 8v27.832031c0 4.417969-3.582032 8-8 8zm0 0" fill="#69ebfc"/><path d="m273.304688 18.152344c-4.417969 0-8 3.582031-8 8v10c0-4.417969 3.582031-8 8-8 4.417968 0 8 3.582031 8 8v-10c0-4.417969-3.582032-8-8-8zm0 0" fill="#a1f1fc"/><path d="m313.765625.152344c-4.417969 0-8 3.582031-8 8v10c0-4.417969 3.582031-8 8-8s8 3.582031 8 8v-10c0-4.417969-3.582031-8-8-8zm0 0" fill="#a1f1fc"/><path d="m354.226562 10.152344c-4.417968 0-8 3.582031-8 8v10c0-4.417969 3.582032-8 8-8 4.417969 0 8 3.582031 8 8v-10c0-4.417969-3.582031-8-8-8zm0 0" fill="#a1f1fc"/></svg>