<svg height="512pt" viewBox="0 0 512 512.00093" width="512pt" xmlns="http://www.w3.org/2000/svg"><path d="m119.8125 429h272.378906c14.851563 0 26.894532-12.042969 26.894532-26.894531v-375.210938c0-14.851562-12.042969-26.894531-26.894532-26.894531h-272.378906c-14.855469 0-26.898438 12.042969-26.898438 26.894531v375.210938c0 14.851562 12.042969 26.894531 26.898438 26.894531zm0 0" fill="#6770e6"/><path d="m392.191406 0h-272.378906c-14.855469 0-26.898438 12.042969-26.898438 26.894531v14c0-14.851562 12.042969-26.894531 26.898438-26.894531h272.378906c14.851563 0 26.894532 12.042969 26.894532 26.894531v-14c0-14.851562-12.042969-26.894531-26.894532-26.894531zm0 0" fill="#8f95e6"/><path d="m135.191406 105.207031h241.621094c7.886719 0 14.28125-6.398437 14.28125-14.285156v-50.726563c0-7.890624-6.394531-14.285156-14.28125-14.285156h-241.621094c-7.890625 0-14.285156 6.394532-14.285156 14.285156v50.726563c0 7.886719 6.394531 14.285156 14.285156 14.285156zm0 0" fill="#5861c7"/><path d="m209.011719 64.089844c0 8.109375-6.574219 14.683594-14.683594 14.683594s-14.683594-6.574219-14.683594-14.683594 6.574219-14.683594 14.683594-14.683594 14.683594 6.574219 14.683594 14.683594zm0 0" fill="#ff8354"/><path d="m352.917969 72.898438h-108.664063c-4.867187 0-8.8125-3.941407-8.8125-8.808594 0-4.867188 3.945313-8.808594 8.8125-8.808594h108.664063c4.863281 0 8.808593 3.941406 8.808593 8.808594 0 4.867187-3.945312 8.808594-8.808593 8.808594zm0 0" fill="#6770e6"/><path d="m135.191406 25.910156h15.082032v79.292969h-15.082032c-7.886718 0-14.285156-6.394531-14.285156-14.28125v-50.726563c0-7.890624 6.394531-14.285156 14.285156-14.285156zm0 0" fill="#d476e2"/><path d="m135.191406 204.5h241.621094c7.886719 0 14.28125-6.394531 14.28125-14.285156v-50.726563c0-7.886719-6.394531-14.28125-14.28125-14.28125h-241.621094c-7.890625 0-14.285156 6.394531-14.285156 14.28125v50.726563c0 7.890625 6.394531 14.285156 14.285156 14.285156zm0 0" fill="#5861c7"/><path d="m209.011719 163.382812c0 8.109376-6.574219 14.683594-14.683594 14.683594s-14.683594-6.574218-14.683594-14.683594c0-8.109374 6.574219-14.683593 14.683594-14.683593s14.683594 6.574219 14.683594 14.683593zm0 0" fill="#ff8354"/><path d="m352.917969 172.195312h-108.664063c-4.867187 0-8.8125-3.945312-8.8125-8.8125 0-4.863281 3.945313-8.808593 8.8125-8.808593h108.664063c4.863281 0 8.808593 3.945312 8.808593 8.808593 0 4.867188-3.945312 8.8125-8.808593 8.8125zm0 0" fill="#6770e6"/><path d="m135.191406 125.207031h15.082032v79.292969h-15.082032c-7.886718 0-14.285156-6.394531-14.285156-14.285156v-50.726563c0-7.886719 6.394531-14.28125 14.285156-14.28125zm0 0" fill="#d476e2"/><path d="m135.191406 303.792969h241.621094c7.886719 0 14.28125-6.394531 14.28125-14.28125v-50.726563c0-7.890625-6.394531-14.285156-14.28125-14.285156h-241.621094c-7.890625 0-14.285156 6.394531-14.285156 14.285156v50.726563c0 7.886719 6.394531 14.28125 14.285156 14.28125zm0 0" fill="#5861c7"/><path d="m209.011719 262.679688c0 8.109374-6.574219 14.683593-14.683594 14.683593s-14.683594-6.574219-14.683594-14.683593c0-8.109376 6.574219-14.6875 14.683594-14.6875s14.683594 6.578124 14.683594 14.6875zm0 0" fill="#ff8354"/><path d="m352.917969 271.488281h-108.664063c-4.867187 0-8.8125-3.941406-8.8125-8.808593 0-4.867188 3.945313-8.808594 8.8125-8.808594h108.664063c4.863281 0 8.808593 3.941406 8.808593 8.808594 0 4.863281-3.945312 8.808593-8.808593 8.808593zm0 0" fill="#6770e6"/><path d="m135.191406 224.5h15.082032v79.292969h-15.082032c-7.886718 0-14.285156-6.394531-14.285156-14.28125v-50.726563c0-7.890625 6.394531-14.285156 14.285156-14.285156zm0 0" fill="#d476e2"/><path d="m135.191406 403.089844h241.621094c7.886719 0 14.28125-6.394532 14.28125-14.285156v-50.722657c0-7.890625-6.394531-14.285156-14.28125-14.285156h-241.621094c-7.890625 0-14.285156 6.394531-14.285156 14.285156v50.722657c0 7.890624 6.394531 14.285156 14.285156 14.285156zm0 0" fill="#5861c7"/><path d="m209.011719 361.972656c0 8.109375-6.574219 14.683594-14.683594 14.683594s-14.683594-6.574219-14.683594-14.683594 6.574219-14.683594 14.683594-14.683594 14.683594 6.574219 14.683594 14.683594zm0 0" fill="#ff8354"/><path d="m352.917969 370.785156h-108.664063c-4.867187 0-8.8125-3.945312-8.8125-8.8125 0-4.863281 3.945313-8.808594 8.8125-8.808594h108.664063c4.863281 0 8.808593 3.945313 8.808593 8.808594 0 4.867188-3.945312 8.8125-8.808593 8.8125zm0 0" fill="#6770e6"/><path d="m135.191406 323.792969h15.082032v79.296875h-15.082032c-7.886718 0-14.285156-6.398438-14.285156-14.285156v-50.726563c0-7.886719 6.394531-14.285156 14.285156-14.285156zm0 0" fill="#d476e2"/><path d="m44.242188 383.617188h32.296874v105.671874h-32.296874zm0 0" fill="#69ebfc"/><path d="m443.550781 405.40625c-26.121093.621094-82.152343 15.433594-111.542969 18.382812-13.417968 1.34375-26.554687-10.335937-37.839843-11.671874 17.925781-5.050782 59.296875-3.300782 72.78125-10.269532 20.074219-10.378906-19.183594-22.066406-34.03125-24.816406-14.84375-2.753906-57.441407-2.820312-79.515625-3-22.078125-.183594-41.386719-13.4375-64.578125-11.828125-23.191407 1.613281-45.648438 15.542969-62.722657 31.734375-16.324218 2.414062-33.125 2.953125-49.566406 3.253906v72.929688c18.441406-.351563 44.367188 3.386718 67.375 3.027344 21.644532 1.359374 54.574219 4.085937 75.222656 2.738281 20.644532-1.351563 83.402344 9.910156 90.402344 10.253906 19.300782.949219 147.3125-40.734375 171.039063-51.289063 23.71875-10.558593-10.90625-30.0625-37.023438-29.445312zm0 0" fill="#ffefe4"/><path d="m480.574219 424.851562c-23.722657 10.554688-151.738281 52.234376-171.039063 51.289063-7-.339844-69.757812-11.601563-90.402344-10.253906-20.648437 1.347656-53.578124-1.378907-75.222656-2.738281-23.007812.359374-48.933594-3.378907-67.375-3.027344v10c18.441406-.351563 44.367188 3.386718 67.375 3.027344 21.644532 1.359374 54.574219 4.085937 75.222656 2.738281 20.644532-1.351563 83.402344 9.910156 90.402344 10.253906 19.300782.949219 147.3125-40.734375 171.039063-51.289063 8.71875-3.882812 9.535156-8.96875 5.808593-13.824218-1.285156 1.355468-3.167968 2.648437-5.808593 3.824218zm0 0" fill="#edd4c2"/><path d="m44.242188 477.546875h32.296874v11.742187h-32.296874zm0 0" fill="#5fd4e3"/><path d="m44.242188 512h-44.242188v-151.09375h44.242188zm0 0" fill="#6770e6"/><path d="m0 500.261719h44.242188v11.738281h-44.242188zm0 0" fill="#5861c7"/><path d="m512 78c0 43.078125-34.921875 78-78 78s-78-34.921875-78-78 34.921875-78 78-78 78 34.921875 78 78zm0 0" fill="#d476e2"/><path d="m433.863281 7.960938c41.796875-.074219 75.96875 32.742187 78.035157 74.039062.070312-1.371094.105468-2.746094.101562-4.136719-.074219-43.078125-35.058594-77.9374998-78.136719-77.863281s-77.9375 35.058594-77.863281 78.136719c.003906 1.285156.039062 2.558593.105469 3.824219 2.078125-41.160157 36.066406-73.925782 77.757812-74zm0 0" fill="#ea82fa"/><path d="m480.652344 67.476562h-8.28125c-.949219-3.460937-2.351563-6.734374-4.148438-9.75l5.738282-5.738281c1.21875-1.21875 1.21875-3.191406 0-4.410156l-10.003907-10.003906c-1.21875-1.21875-3.191406-1.21875-4.410156 0l-5.878906 5.878906c-3.042969-1.730469-6.328125-3.078125-9.804688-3.964844v-8.136719c0-1.722656-1.394531-3.121093-3.117187-3.121093h-14.148438c-1.722656 0-3.117187 1.398437-3.117187 3.121093v8.332032c-3.453125.945312-6.714844 2.34375-9.71875 4.128906l-5.773438-5.773438c-1.21875-1.21875-3.191406-1.21875-4.410156 0l-10.003906 10.003907c-1.21875 1.21875-1.21875 3.191406 0 4.410156l5.898437 5.898437c-1.734375 3.035157-3.089844 6.316407-3.976562 9.785157h-8.144532c-1.722656 0-3.117187 1.398437-3.117187 3.121093v14.144532c0 1.722656 1.394531 3.121094 3.117187 3.121094h8.308594c.945313 3.457031 2.339844 6.730468 4.125 9.742187l-5.746094 5.746094c-1.214843 1.21875-1.214843 3.191406 0 4.410156l10.003907 10.003906c1.21875 1.21875 3.195312 1.21875 4.410156 0l5.859375-5.855469c3.046875 1.742188 6.339844 3.105469 9.828125 3.996094v8.082032c0 1.722656 1.394531 3.121093 3.117187 3.121093h14.148438c1.71875 0 3.117188-1.398437 3.117188-3.121093v-8.253907c3.472656-.945312 6.753906-2.351562 9.777343-4.144531l5.710938 5.710938c1.21875 1.21875 3.191406 1.21875 4.410156 0l10.003906-10.003907c1.21875-1.21875 1.21875-3.191406 0-4.410156l-5.839843-5.839844c1.742187-3.054687 3.097656-6.355469 3.988281-9.84375h8.078125c1.71875 0 3.117187-1.398437 3.117187-3.121093v-14.144532c0-1.722656-1.398437-3.121094-3.117187-3.121094zm-46.628906 32.179688c-11.941407 0-21.621094-9.683594-21.621094-21.625s9.679687-21.625 21.621094-21.625c11.945312 0 21.625 9.683594 21.625 21.625 0 11.945312-9.679688 21.625-21.625 21.625zm0 0" fill="#fff7f2"/></svg>