<svg height="512pt" viewBox="0 0 512 512" width="512pt" xmlns="http://www.w3.org/2000/svg"><path d="m497.769531 395.148438h-483.539062c-7.859375 0-14.230469-6.371094-14.230469-14.234376v-366.683593c0-7.859375 6.371094-14.230469 14.230469-14.230469h483.535156c7.859375 0 14.230469 6.371094 14.230469 14.230469v366.683593c.003906 7.863282-6.367188 14.234376-14.226563 14.234376zm0 0" fill="#6770e6"/><path d="m497.769531 0h-483.539062c-7.859375 0-14.230469 6.371094-14.230469 14.230469v14c0-7.859375 6.371094-14.230469 14.230469-14.230469h483.539062c7.859375 0 14.230469 6.371094 14.230469 14.230469v-14c0-7.859375-6.371094-14.230469-14.230469-14.230469zm0 0" fill="#8f95e6"/><path d="m30 350.914062v-301.722656c0-10.597656 8.59375-19.191406 19.191406-19.191406h413.617188c10.597656 0 19.191406 8.59375 19.191406 19.191406v301.722656c0 7.863282-6.371094 14.234376-14.230469 14.234376h-423.539062c-7.859375 0-14.230469-6.371094-14.230469-14.234376zm0 0" fill="#69ebfc"/><path d="m196.277344 395.148438h121.894531v76.871093h-121.894531zm0 0" fill="#5861c7"/><path d="m375.808594 512h-236.601563c-11.039062 0-19.988281-8.949219-19.988281-19.988281 0-11.042969 8.949219-19.992188 19.988281-19.992188h236.601563c11.042968 0 19.992187 8.949219 19.992187 19.992188 0 11.039062-8.949219 19.988281-19.992187 19.988281zm0 0" fill="#6770e6"/><path d="m375.808594 498h-236.601563c-8.574219 0-15.863281-5.40625-18.703125-12.988281-.820312 2.179687-1.289062 4.53125-1.289062 7 0 11.039062 8.949218 19.988281 19.992187 19.988281h236.601563c11.039062 0 19.988281-8.949219 19.988281-19.988281 0-2.46875-.46875-4.820313-1.285156-7-2.835938 7.582031-10.128907 12.988281-18.703125 12.988281zm0 0" fill="#5861c7"/><path d="m423.214844 319.761719h-334.480469c-9.949219 0-18.015625-8.066407-18.015625-18.015625v-122.199219c0-9.949219 8.066406-18.015625 18.015625-18.015625h334.480469c9.949218 0 18.015625 8.066406 18.015625 18.015625v122.199219c0 9.949218-8.066407 18.015625-18.015625 18.015625zm0 0" fill="#d476e2"/><path d="m103.121094 319.761719h-14.386719c-9.949219 0-18.015625-8.066407-18.015625-18.015625v-122.199219c0-9.949219 8.066406-18.015625 18.015625-18.015625h14.386719zm0 0" fill="#b665c2"/><path d="m148.691406 279.464844c-5.464844-.804688-10.328125-2.914063-14.59375-6.34375-2.488281-2-4.558594-4.503906-6.210937-7.519532-2.007813-3.65625-.441407-8.253906 3.421875-9.832031 3.070312-1.253906 6.667968-.191406 8.382812 2.652344.550782.914063 1.183594 1.785156 1.902344 2.617187 1.960938 2.296876 4.328125 3.882813 7.097656 4.753907v-20.769531l-.976562-.441407c-2.695313-1.019531-5.230469-2.21875-7.597656-3.609375-2.367188-1.378906-4.449219-2.988281-6.230469-4.808594-1.792969-1.816406-3.214844-3.878906-4.265625-6.175781-1.0625-2.296875-1.59375-4.867187-1.59375-7.710937 0-2.625.480468-5.101563 1.421875-7.4375.957031-2.328125 2.316406-4.410156 4.109375-6.230469 1.785156-1.820313 3.949218-3.335937 6.503906-4.539063 2.550781-1.203124 5.425781-1.980468 8.632812-2.351562v-4.535156c0-2.691406 2.175782-4.867188 4.863282-4.867188s4.867187 2.175782 4.867187 4.867188v4.753906c2.917969.4375 5.457031 1.203125 7.601563 2.296875 2.152344 1.09375 3.996094 2.371094 5.582031 3.777344.609375.539062 1.199219 1.183593 1.757813 1.878906 2.761718 3.457031 1.359374 8.625-2.683594 10.429687-2.769532 1.234376-5.957032.460938-7.996094-1.785156-1.070312-1.175781-2.476562-2.332031-4.261719-3.148437v19.570312c3.140625 1.316407 5.976563 2.664063 8.535157 4.050781 2.546874 1.386719 4.734374 2.949219 6.558593 4.703126 1.828125 1.746093 3.207031 3.734374 4.152344 5.953124.953125 2.226563 1.421875 4.796876 1.421875 7.710938 0 3.28125-.5625 6.199219-1.691406 8.746094-1.132813 2.554687-2.640625 4.742187-4.539063 6.5625-1.902343 1.824218-4.097656 3.285156-6.613281 4.375-2.515625 1.09375-5.125 1.859375-7.820312 2.292968v4.757813c0 2.6875-2.179688 4.863281-4.867188 4.863281s-4.867188-2.175781-4.867188-4.863281v-4.644531zm-7.207031-57.1875c0 1.75.5625 3.261718 1.691406 4.535156 1.132813 1.28125 2.96875 2.574219 5.519531 3.886719v-15.964844c-2.1875.582031-3.929687 1.527344-5.246093 2.839844-1.316407 1.316406-1.964844 2.882812-1.964844 4.703125zm23.617187 35.210937c0-1.894531-.507812-3.464843-1.539062-4.703125-1.019531-1.242187-2.726562-2.476562-5.136719-3.71875v16.726563c1.972657-.652344 3.574219-1.691407 4.816407-3.113281 1.234374-1.421876 1.859374-3.152344 1.859374-5.191407zm0 0" fill="#ffefe4"/><path d="m341.792969 218h-138.144531c-4.070313 0-7.371094-3.300781-7.371094-7.375 0-4.070312 3.300781-7.371094 7.371094-7.371094h138.144531c4.070312 0 7.371093 3.300782 7.371093 7.371094.003907 4.074219-3.296874 7.375-7.371093 7.375zm0 0" fill="#ffefe4"/><path d="m398.542969 247.277344h-194.894531c-4.070313 0-7.371094-3.304688-7.371094-7.375 0-4.074219 3.300781-7.375 7.371094-7.375h194.894531c4.074219 0 7.375 3.300781 7.375 7.375.003906 4.070312-3.300781 7.375-7.375 7.375zm0 0" fill="#ffefe4"/><path d="m398.542969 278.042969h-194.894531c-4.070313 0-7.371094-3.304688-7.371094-7.375 0-4.070313 3.300781-7.375 7.371094-7.375h194.894531c4.074219 0 7.375 3.304687 7.375 7.375.003906 4.070312-3.300781 7.375-7.375 7.375zm0 0" fill="#ffefe4"/><g fill="#d476e2"><path d="m83.449219 87.714844v14.210937h19.601562c2.742188 0 4.964844 2.21875 4.964844 4.960938v1.027343c0 2.742188-2.222656 4.964844-4.964844 4.964844h-19.601562v14.210938h22.34375c2.742187 0 4.964843 2.222656 4.964843 4.964844v1.027343c0 2.742188-2.222656 4.964844-4.964843 4.964844h-30.214844c-2.035156 0-3.6875-1.652344-3.6875-3.691406v-53.910157c0-2.039062 1.652344-3.6875 3.6875-3.6875h30.210937c2.742188 0 4.964844 2.21875 4.964844 4.960938v1.027344c0 2.742187-2.222656 4.964844-4.964844 4.964844h-22.339843zm0 0"/><path d="m124.964844 106.546875h19.089844c2.742187 0 4.964843 2.222656 4.964843 4.964844 0 2.742187-2.222656 4.960937-4.964843 4.960937h-19.089844c-2.742188 0-4.964844-2.21875-4.964844-4.960937 0-2.742188 2.222656-4.964844 4.964844-4.964844zm0 0"/><path d="m209.351562 124.210938c2.441407 2.316406 2.371094 6.300781-.242187 8.425781-1.921875 1.566406-4.003906 2.871093-6.25 3.914062-4.105469 1.910157-8.703125 2.867188-13.78125 2.867188-4.566406 0-8.800781-.828125-12.710937-2.484375-3.910157-1.65625-7.292969-3.90625-10.144532-6.761719-2.851562-2.851563-5.109375-6.234375-6.761718-10.144531-1.65625-3.90625-2.484376-8.117188-2.484376-12.625 0-4.507813.828126-8.714844 2.484376-12.625 1.652343-3.910156 3.910156-7.292969 6.761718-10.144532 2.851563-2.851562 6.234375-5.109374 10.144532-6.761718 3.910156-1.65625 8.144531-2.484375 12.710937-2.484375 4.90625 0 9.230469.855469 12.96875 2.566406 1.804687.828125 3.511719 1.835937 5.128906 3.023437 2.796875 2.058594 3.03125 6.179688.535157 8.597657-1.972657 1.910156-5.050782 2.148437-7.238282.492187-.910156-.691406-1.871094-1.304687-2.878906-1.839844-2.371094-1.253906-5.179688-1.882812-8.433594-1.882812-2.851562 0-5.535156.503906-8.046875 1.5-2.511719 1-4.691406 2.410156-6.546875 4.238281-1.855468 1.824219-3.324218 4.035157-4.410156 6.632813-1.082031 2.597656-1.625 5.492187-1.625 8.6875 0 3.199218.542969 6.09375 1.625 8.691406 1.085938 2.597656 2.554688 4.804688 4.410156 6.632812 1.855469 1.828126 4.035156 3.238282 6.546875 4.238282s5.195313 1.496094 8.046875 1.496094c3.425782 0 6.464844-.699219 9.117188-2.097657 1.25-.65625 2.433594-1.445312 3.550781-2.363281 2.21875-1.824219 5.425781-1.773438 7.511719.207031zm0 0"/><path d="m227.773438 76.757812h1.625c2.742187 0 4.964843 2.21875 4.964843 4.960938v19.519531h25.769531v-19.519531c0-2.742188 2.222657-4.960938 4.964844-4.960938h1.625c2.742188 0 4.964844 2.21875 4.964844 4.960938v51.363281c0 2.742188-2.222656 4.964844-4.964844 4.964844h-1.625c-2.742187 0-4.964844-2.222656-4.964844-4.964844v-20.882812h-25.769531v20.886719c0 2.738281-2.222656 4.960937-4.964843 4.960937h-1.625c-2.742188 0-4.964844-2.222656-4.964844-4.960937v-51.363282c0-2.742187 2.222656-4.964844 4.964844-4.964844zm0 0"/><path d="m295.570312 87.714844v14.210937h19.601563c2.742187 0 4.964844 2.21875 4.964844 4.960938v1.027343c0 2.742188-2.222657 4.964844-4.964844 4.964844h-19.601563v14.210938h22.34375c2.742188 0 4.964844 2.222656 4.964844 4.964844v1.027343c0 2.742188-2.222656 4.964844-4.964844 4.964844h-30.210937c-2.039063 0-3.6875-1.652344-3.6875-3.691406v-53.910157c0-2.039062 1.648437-3.6875 3.6875-3.6875h30.210937c2.742188 0 4.964844 2.21875 4.964844 4.960938v1.027344c0 2.742187-2.222656 4.964844-4.964844 4.964844h-22.34375zm0 0"/><path d="m381.152344 124.210938c2.445312 2.316406 2.371094 6.300781-.242188 8.425781-1.917968 1.566406-4.003906 2.871093-6.246094 3.914062-4.109374 1.910157-8.703124 2.867188-13.78125 2.867188-4.570312 0-8.808593-.828125-12.710937-2.484375-3.910156-1.652344-7.292969-3.90625-10.144531-6.761719-2.855469-2.851563-5.109375-6.234375-6.761719-10.144531-1.660156-3.90625-2.484375-8.117188-2.484375-12.625 0-4.507813.824219-8.714844 2.484375-12.625 1.652344-3.910156 3.90625-7.292969 6.761719-10.144532 2.851562-2.851562 6.234375-5.109374 10.144531-6.761718 3.90625-1.65625 8.140625-2.484375 12.710937-2.484375 4.90625 0 9.230469.855469 12.96875 2.566406 1.804688.828125 3.511719 1.835937 5.125 3.023437 2.800782 2.058594 3.035157 6.179688.539063 8.597657-1.972656 1.910156-5.050781 2.148437-7.238281.488281-.910156-.6875-1.871094-1.300781-2.878906-1.835938-2.367188-1.253906-5.179688-1.882812-8.433594-1.882812-2.855469 0-5.53125.503906-8.042969 1.5-2.515625 1-4.695313 2.410156-6.550781 4.238281-1.855469 1.824219-3.324219 4.035157-4.40625 6.632813-1.085938 2.597656-1.628906 5.492187-1.628906 8.6875 0 3.199218.542968 6.09375 1.628906 8.691406 1.082031 2.597656 2.554687 4.804688 4.40625 6.632812 1.855468 1.828126 4.035156 3.238282 6.550781 4.238282 2.511719 1 5.1875 1.496094 8.042969 1.496094 3.425781 0 6.464844-.699219 9.121094-2.097657 1.25-.65625 2.429687-1.445312 3.546874-2.363281 2.21875-1.824219 5.425782-1.773438 7.511719.203125zm0 0"/><path d="m399.578125 76.757812h1.628906c2.742188 0 4.964844 2.21875 4.964844 4.960938v21.316406h.683594l20.9375-24.539062c.945312-1.105469 2.324219-1.742188 3.777343-1.742188l1.996094.117188c3.9375.230468 5.886719 4.886718 3.292969 7.855468l-15.796875 18.050782 19.3125 27.824218c2.183594 3.140626-.066406 7.445313-3.894531 7.445313-3.171875 0-6.140625-1.550781-7.957031-4.152344l-15.335938-21.957031-7.015625 8.132812v13.007813c0 2.742187-2.222656 4.964844-4.964844 4.964844h-1.628906c-2.742187 0-4.964844-2.222657-4.964844-4.964844v-51.355469c0-2.742187 2.222657-4.964844 4.964844-4.964844zm0 0"/></g></svg>