<?xml version="1.0" encoding="iso-8859-1"?>
<!-- Generator: Adobe Illustrator 19.0.0, SVG Export Plug-In . SVG Version: 6.00 Build 0)  -->
<svg version="1.1" id="Layer_1" xmlns="http://www.w3.org/2000/svg" xmlns:xlink="http://www.w3.org/1999/xlink" x="0px" y="0px"
	 viewBox="0 0 511.001 511.001" style="enable-background:new 0 0 511.001 511.001;" xml:space="preserve">
<g>
	<path style="fill:#253744;" d="M138.788,466.979c0,0-1.924,21.476-16.129,35.432l24.955,8.59c0,0,15.742-11.809,17.66-44.021
		L138.788,466.979L138.788,466.979z"/>
	<path style="fill:#253744;" d="M372.212,466.979c0,0,1.924,21.476,16.129,35.432l-24.955,8.59c0,0-15.742-11.809-17.66-44.021
		L372.212,466.979L372.212,466.979z"/>
	<path style="fill:#586A73;" d="M143.212,509.486l4.402,1.515c0,0,15.742-11.809,17.66-44.021h-3.709c0,0-0.768,16.124-5.121,24.315
		C148.868,505.554,143.212,509.486,143.212,509.486z"/>
	<path style="fill:#586A73;" d="M367.788,509.486l-4.402,1.515c0,0-15.742-11.809-17.66-44.021h3.709c0,0,0.768,16.124,5.121,24.315
		C362.132,505.554,367.788,509.486,367.788,509.486z"/>
	<g>
		<path style="fill:#253744;" d="M444.394,238.393c4.605,22.268,3.07,110.569,0,155.104c-3.072,44.535-15.916,38.393-24.572,38.393
			s-15.357,0.288-15.357,0.288l-5.375-213.749C399.089,218.429,439.786,216.125,444.394,238.393z"/>
		<path style="fill:#2D404E;" d="M431.563,431.095c5.771-2.637,11.012-11.242,12.83-37.598c3.07-44.535,4.605-132.837,0-155.104
			c-1.74-8.413-8.633-13.317-16.533-16.166L431.563,431.095z"/>
		<path style="fill:#F2B643;" d="M431.097,223.543l-2.078,64.016l-1.158-65.332C428.96,222.622,430.044,223.06,431.097,223.543z"/>
		<path style="fill:#D89932;" d="M427.022,319.451c0,0,5.807,0.816,5.855,6.095c0.049,5.279-3.887,7.822-3.887,7.822
			s8.158-0.096,8.062-8.014C436.958,317.436,427.022,319.451,427.022,319.451z"/>
		<path style="opacity:0.7;fill:#253744;enable-background:new    ;" d="M416.888,292.916h11.096v23.035c0,0,7.279-0.582,9.07,5.747
			c1.791,6.328-4.719,15.012,0.527,11.67c0,0-0.773,9.823-11.512,7.31C415.958,338.312,416.888,292.916,416.888,292.916z"/>
		<g>
			<path style="fill:#F2B643;" d="M424.657,290.63c0-1.697,1.377-3.071,3.07-3.071h3.498c1.697,0,3.07,1.374,3.07,3.071v10.375
				c0,1.698-1.373,3.071-3.07,3.071h-3.498c-1.693,0-3.07-1.373-3.07-3.071V290.63z"/>
			<path style="fill:#F2B643;" d="M420.446,326.548c0.348,4.253-1.746,11.062,9.424,11.062c11.166,0,8.373-11.487,8.373-11.487
				l-1.744-26.074h-14.658C421.841,300.048,420.097,322.295,420.446,326.548z M424.239,326.731c0-3.527,2.346-6.386,5.234-6.386
				c2.895,0,5.24,2.858,5.24,6.386c0,3.524-2.346,6.377-5.24,6.377C426.585,333.108,424.239,330.255,424.239,326.731z"/>
		</g>
	</g>
	<g>
		<path style="fill:#253744;" d="M66.606,238.393c-4.605,22.268-3.07,110.569,0,155.104c3.072,44.535,15.916,38.393,24.572,38.393
			s15.355,0.288,15.355,0.288l5.375-213.749C111.909,218.429,71.214,216.125,66.606,238.393z"/>
		<path style="fill:#2D404E;" d="M79.437,431.095c-5.771-2.637-11.012-11.242-12.83-37.598c-3.07-44.535-4.605-132.837,0-155.104
			c1.74-8.413,8.633-13.317,16.533-16.166L79.437,431.095z"/>
		<path style="fill:#F2B643;" d="M79.903,223.543l2.078,64.016l1.158-65.332C82.038,222.622,80.956,223.06,79.903,223.543z"/>
		<path style="fill:#D89932;" d="M84.718,320.187c0,0-5.807,0.815-5.855,6.095c-0.047,5.278,3.887,7.822,3.887,7.822
			s-8.158-0.096-8.061-8.015C74.784,318.171,84.718,320.187,84.718,320.187z"/>
		<path style="opacity:0.7;fill:#253744;enable-background:new    ;" d="M94.853,293.651H83.757v23.035c0,0-7.279-0.581-9.068,5.747
			c-1.791,6.329,4.717,15.012-0.529,11.671c0,0,0.773,9.823,11.512,7.31C95.782,339.046,94.853,293.651,94.853,293.651z"/>
		<g>
			<path style="fill:#F2B643;" d="M86.343,290.63c0-1.697-1.377-3.071-3.07-3.071h-3.498c-1.697,0-3.072,1.374-3.072,3.071v10.375
				c0,1.698,1.375,3.071,3.072,3.071h3.498c1.693,0,3.07-1.373,3.07-3.071V290.63z"/>
			<path style="fill:#F2B643;" d="M89.159,300.048H74.501l-1.744,26.074c0,0-2.793,11.487,8.373,11.487
				c11.17,0,9.076-6.809,9.424-11.062S89.159,300.048,89.159,300.048z M81.526,333.108c-2.895,0-5.24-2.853-5.24-6.377
				c0-3.527,2.346-6.386,5.24-6.386c2.889,0,5.234,2.858,5.234,6.386C86.761,330.255,84.415,333.108,81.526,333.108z"/>
		</g>
	</g>
	<g>
		<path style="fill:#253744;" d="M277.575,4.71c0,0,17.039,9.095,15.508,51.131l-20.328,1.248c0,0,9.07-54.932-12.43-48.792
			C260.325,8.297,261.04-0.41,277.575,4.71z"/>
		<path style="fill:#2D404E;" d="M217.819,55.106l20.998,1.488c0,0,4.82-57.004,38.758-51.884
			C277.575,4.71,228.55-22.788,217.819,55.106z"/>
	</g>
	<path style="fill:#2D404E;" d="M411.118,418.836c-3.072-41.977-9.219-251.853-11.264-276.424s-10.24-89.073-27.643-97.262
		c0,0-87.531,9.218-116.713,9.218c-29.18,0-116.711-9.218-116.711-9.218c-17.402,8.188-25.598,72.69-27.643,97.262
		c-2.047,24.571-8.191,234.447-11.264,276.424c-3.07,41.977,20.477,49.143,38.906,49.143c18.428,0,116.711,0,116.711,0
		s98.285,0,116.713,0S414.188,460.813,411.118,418.836z"/>
	<path style="fill:#253744;" d="M399.854,142.412c-0.447-5.348-1.182-12.592-2.24-20.731H255.499H113.386
		c-1.059,8.14-1.793,15.384-2.24,20.731c-0.477,5.734-1.18,21.568-2.014,42.999h146.367h146.369
		C401.034,163.981,400.331,148.147,399.854,142.412z"/>
	<path style="fill:#586A73;" d="M369.153,146.084c-0.354-3.585-0.93-8.44-1.768-13.896H255.499H143.614
		c-0.838,5.456-1.414,10.312-1.768,13.896c-0.375,3.845-0.926,14.453-1.584,28.82h115.236h115.238
		C370.079,160.537,369.528,149.929,369.153,146.084z"/>
	<circle style="fill:#253744;" cx="184.346" cy="386.587" r="39.532"/>
	<circle style="fill:#586A73;" cx="184.346" cy="386.587" r="32.249"/>
	<g>
		<path style="fill:#2D404E;" d="M184.345,408.111c-11.867,0-21.523-9.655-21.523-21.523c0-11.869,9.656-21.523,21.523-21.523
			c11.869,0,21.523,9.654,21.523,21.523C205.868,398.455,196.214,408.111,184.345,408.111z M184.345,368.135
			c-10.174,0-18.451,8.278-18.451,18.452s8.277,18.452,18.451,18.452s18.453-8.278,18.453-18.452S194.519,368.135,184.345,368.135z"
			/>
		<path style="opacity:0.2;fill:#C6CBCB;enable-background:new    ;" d="M171.298,373.539c-7.193,7.193-7.193,18.902,0,26.095
			l26.096-26.095C190.2,366.344,178.491,366.344,171.298,373.539z"/>
	</g>
	<path style="fill:#586A73;" d="M255.499,205.97h-34.771l34.771,66.367l34.77-66.367H255.499z M255.499,234.037
		c-4.201,0-7.609-3.406-7.609-7.609c0-4.201,3.408-7.609,7.609-7.609c4.203,0,7.609,3.408,7.609,7.609
		C263.108,230.631,259.702,234.037,255.499,234.037z"/>
	<path style="fill:#2D404E;" d="M398.405,128.096c0.037,0.315,0.072,0.624,0.109,0.937
		C398.478,128.72,398.442,128.414,398.405,128.096z"/>
	<path style="fill:#2D404E;" d="M398.034,125.001c0.002,0.032,0.006,0.062,0.012,0.096
		C398.04,125.064,398.036,125.033,398.034,125.001z"/>
	<path style="fill:#2D404E;" d="M112.954,125.097c0.006-0.033,0.008-0.063,0.012-0.096
		C112.962,125.033,112.96,125.064,112.954,125.097z"/>
	<path style="fill:#2D404E;" d="M112.12,132.311c0.047-0.436,0.096-0.87,0.145-1.314
		C112.216,131.441,112.167,131.875,112.12,132.311z"/>
	<path style="fill:#2D404E;" d="M112.485,129.032c0.037-0.312,0.072-0.621,0.109-0.937
		C112.558,128.414,112.522,128.72,112.485,129.032z"/>
	<path style="fill:#2D404E;" d="M111.819,135.193c0.045-0.465,0.096-0.944,0.148-1.425
		C111.915,134.251,111.868,134.725,111.819,135.193z"/>
	<path style="fill:#2D404E;" d="M399.95,143.657c0.016,0.186,0.027,0.404,0.039,0.605
		C399.978,144.062,399.962,143.843,399.95,143.657z"/>
	<path style="fill:#2D404E;" d="M398.735,130.996c0.049,0.444,0.096,0.879,0.145,1.314
		C398.831,131.875,398.784,131.441,398.735,130.996z"/>
	<path style="fill:#2D404E;" d="M399.548,138.963c0.039,0.417,0.078,0.84,0.115,1.242
		C399.626,139.806,399.587,139.38,399.548,138.963z"/>
	<path style="fill:#2D404E;" d="M399.3,136.381c0.049,0.488,0.096,0.98,0.145,1.451C399.396,137.361,399.349,136.872,399.3,136.381z
		"/>
	<path style="fill:#2D404E;" d="M399.032,133.768c0.051,0.48,0.104,0.96,0.148,1.425
		C399.132,134.725,399.083,134.251,399.032,133.768z"/>
	<path style="fill:#2D404E;" d="M110.778,147.961c0.021-0.393,0.045-0.786,0.066-1.151
		C110.823,147.175,110.8,147.569,110.778,147.961z"/>
	<path style="fill:#2D404E;" d="M110.552,152.262c0.02-0.461,0.045-0.917,0.068-1.355
		C110.597,151.345,110.571,151.801,110.552,152.262z"/>
	<path style="fill:#2D404E;" d="M110.437,154.536c0.021-0.378,0.039-0.756,0.059-1.125
		C110.476,153.78,110.458,154.154,110.437,154.536z"/>
	<path style="fill:#2D404E;" d="M110.313,157.127c0.016-0.3,0.031-0.6,0.043-0.894C110.345,156.527,110.329,156.824,110.313,157.127
		z"/>
	<path style="fill:#2D404E;" d="M110.048,163.042c0.008-0.216,0.02-0.429,0.027-0.645
		C110.067,162.613,110.056,162.826,110.048,163.042z"/>
	<path style="fill:#2D404E;" d="M110.188,159.899c0.01-0.213,0.018-0.426,0.029-0.636
		C110.206,159.476,110.198,159.686,110.188,159.899z"/>
	<path style="fill:#2D404E;" d="M110.89,146.102c0.018-0.336,0.043-0.678,0.061-0.99
		C110.933,145.421,110.907,145.766,110.89,146.102z"/>
	<path style="fill:#2D404E;" d="M111.556,137.832c0.049-0.471,0.096-0.963,0.145-1.451
		C111.651,136.872,111.604,137.361,111.556,137.832z"/>
	<path style="fill:#2D404E;" d="M110.665,150.04c0.023-0.436,0.045-0.87,0.068-1.281C110.71,149.17,110.688,149.605,110.665,150.04z
		"/>
	<path style="fill:#2D404E;" d="M111.011,144.263c0.012-0.201,0.023-0.42,0.039-0.605
		C111.038,143.843,111.022,144.062,111.011,144.263z"/>
	<path style="fill:#2D404E;" d="M400.05,145.111c0.018,0.312,0.041,0.654,0.061,0.99
		C400.091,145.766,400.067,145.421,400.05,145.111z"/>
	<path style="fill:#2D404E;" d="M111.337,140.205c0.037-0.402,0.074-0.825,0.113-1.242
		C111.411,139.38,111.374,139.806,111.337,140.205z"/>
	<path style="fill:#2D404E;" d="M400.644,156.234c0.012,0.306,0.029,0.615,0.041,0.93
		C400.673,156.849,400.655,156.539,400.644,156.234z"/>
	<path style="fill:#2D404E;" d="M400.38,150.906c0.023,0.438,0.047,0.895,0.068,1.355
		C400.427,151.801,400.403,151.345,400.38,150.906z"/>
	<path style="fill:#2D404E;" d="M400.919,162.35c0.012,0.23,0.025,0.459,0.033,0.692C400.944,162.809,400.931,162.58,400.919,162.35
		z"/>
	<path style="opacity:0.7;fill:#253744;enable-background:new    ;" d="M138.218,104.347c-12.006-6.143-10.262-16.677-10.145-23.359
		c0.146-8.317,3.543-32.462,10.715-35.837c-13.615,6.407-22.594,47.273-26.402,76.53h23.004
		C136.292,115.523,137.237,109.749,138.218,104.347z"/>
	<path style="fill:#2D404E;" d="M400.505,153.411c0.02,0.369,0.037,0.747,0.059,1.125
		C400.542,154.154,400.524,153.78,400.505,153.411z"/>
	<path style="fill:#2D404E;" d="M382.927,80.987c0.168,9.451,3.623,26.617-33.234,28.152c-36.855,1.536-74.232-3.581-94.193-3.581
		s-57.336,5.117-94.191,3.581c-10.795-0.449-18.113-2.246-23.09-4.793c-0.98,5.402-1.926,11.176-2.828,17.334H255.5h142.115
		c-3.809-29.257-11.787-70.123-25.402-76.53C379.384,48.526,382.778,72.67,382.927,80.987z"/>
	<path style="fill:#2D404E;" d="M400.265,148.759c0.025,0.411,0.047,0.846,0.07,1.281
		C400.312,149.605,400.29,149.17,400.265,148.759z"/>
	<path style="fill:#2D404E;" d="M400.155,146.81c0.02,0.365,0.045,0.759,0.064,1.151C400.2,147.569,400.175,147.175,400.155,146.81z
		"/>
	<path style="fill:#2D404E;" d="M400.772,159.029c0.016,0.351,0.033,0.701,0.049,1.062
		C400.806,159.731,400.788,159.38,400.772,159.029z"/>
	<path style="opacity:0.7;fill:#253744;enable-background:new    ;" d="M127.917,205.97c0.311-7.127,0.67-13.975,1.08-20.559
		h-20.865c-2.734,70.396-5.895,201.244-8.25,233.425c-1.951,26.688,6.859,39.295,18.273,44.943
		C108.403,420.828,122.86,323.102,127.917,205.97z"/>
	<path style="fill:#253744;" d="M401.868,185.411c-0.328-8.416-0.637-15.95-0.916-22.369
		C401.231,169.455,401.538,177.001,401.868,185.411L401.868,185.411z"/>
	<path style="fill:#253744;" d="M110.95,145.111c0.021-0.303,0.039-0.572,0.061-0.849
		C110.989,144.542,110.972,144.809,110.95,145.111z"/>
	<path style="fill:#253744;" d="M111.146,142.412c0.057-0.702,0.123-1.442,0.191-2.207
		C111.269,140.97,111.202,141.71,111.146,142.412z"/>
	<path style="fill:#253744;" d="M111.05,143.657c0.033-0.456,0.064-0.873,0.096-1.245
		C111.114,142.784,111.083,143.201,111.05,143.657z"/>
	<path style="fill:#253744;" d="M111.45,138.963c0.037-0.372,0.07-0.744,0.105-1.131
		C111.521,138.219,111.487,138.591,111.45,138.963z"/>
	<path style="fill:#253744;" d="M110.495,153.411c0.018-0.394,0.035-0.771,0.057-1.149
		C110.53,152.637,110.513,153.018,110.495,153.411z"/>
	<path style="fill:#253744;" d="M110.356,156.234c0.027-0.582,0.055-1.143,0.08-1.697
		C110.411,155.088,110.384,155.654,110.356,156.234z"/>
	<path style="fill:#253744;" d="M110.075,162.398c0.039-0.853,0.076-1.687,0.113-2.499
		C110.151,160.711,110.114,161.545,110.075,162.398z"/>
	<path style="fill:#253744;" d="M110.218,159.263c0.031-0.731,0.066-1.439,0.096-2.136
		C110.284,157.82,110.249,158.534,110.218,159.263z"/>
	<path style="fill:#253744;" d="M110.845,146.81c0.016-0.249,0.031-0.474,0.045-0.708
		C110.876,146.336,110.86,146.561,110.845,146.81z"/>
	<path style="fill:#253744;" d="M109.132,185.411L109.132,185.411c0.33-8.41,0.637-15.956,0.916-22.369
		C109.769,169.461,109.46,176.995,109.132,185.411z"/>
	<path style="fill:#253744;" d="M110.733,148.759c0.016-0.276,0.031-0.534,0.045-0.798
		C110.765,148.225,110.749,148.483,110.733,148.759z"/>
	<path style="fill:#253744;" d="M110.62,150.906c0.016-0.297,0.029-0.582,0.045-0.866
		C110.649,150.324,110.636,150.61,110.62,150.906z"/>
	<path style="fill:#253744;" d="M400.821,160.091c0.031,0.737,0.064,1.487,0.098,2.259
		C400.89,161.581,400.853,160.825,400.821,160.091z"/>
	<path style="fill:#253744;" d="M399.663,140.205c0.068,0.765,0.135,1.505,0.191,2.207
		C399.798,141.71,399.731,140.97,399.663,140.205z"/>
	<path style="fill:#253744;" d="M400.448,152.262c0.021,0.379,0.039,0.756,0.057,1.149
		C400.487,153.018,400.47,152.637,400.448,152.262z"/>
	<path style="fill:#253744;" d="M400.335,150.04c0.014,0.284,0.029,0.569,0.045,0.866
		C400.364,150.61,400.349,150.324,400.335,150.04z"/>
	<path style="fill:#253744;" d="M399.181,135.193c0.041,0.405,0.08,0.795,0.119,1.188
		C399.261,135.987,399.222,135.598,399.181,135.193z"/>
	<path style="fill:#253744;" d="M398.515,129.032c0.074,0.662,0.148,1.319,0.221,1.964
		C398.663,130.352,398.589,129.694,398.515,129.032z"/>
	<path style="fill:#253744;" d="M398.88,132.311c0.051,0.491,0.102,0.978,0.152,1.457
		C398.981,133.288,398.931,132.802,398.88,132.311z"/>
	<path style="fill:#253744;" d="M399.444,137.832c0.035,0.387,0.068,0.759,0.104,1.131
		C399.513,138.591,399.479,138.219,399.444,137.832z"/>
	<path style="fill:#253744;" d="M399.989,144.263c0.021,0.276,0.039,0.546,0.061,0.849
		C400.028,144.809,400.011,144.542,399.989,144.263z"/>
	<path style="fill:#253744;" d="M400.22,147.961c0.016,0.264,0.031,0.521,0.045,0.798
		C400.251,148.483,400.235,148.225,400.22,147.961z"/>
	<path style="fill:#253744;" d="M399.854,142.412c0.029,0.372,0.062,0.789,0.096,1.245
		C399.917,143.201,399.884,142.784,399.854,142.412z"/>
	<path style="fill:#253744;" d="M400.11,146.102c0.014,0.234,0.029,0.459,0.045,0.708
		C400.14,146.561,400.124,146.336,400.11,146.102z"/>
	<path style="fill:#253744;" d="M112.265,130.996c0.07-0.645,0.146-1.302,0.221-1.964
		C112.411,129.694,112.335,130.352,112.265,130.996z"/>
	<path style="fill:#253744;" d="M400.563,154.536c0.025,0.555,0.053,1.115,0.08,1.697
		C400.616,155.654,400.589,155.088,400.563,154.536z"/>
	<path style="fill:#253744;" d="M112.595,128.096c0.115-0.98,0.232-1.979,0.359-2.999
		C112.827,126.116,112.708,127.115,112.595,128.096z"/>
	<path style="fill:#253744;" d="M113.386,121.681c-0.146,1.128-0.285,2.231-0.42,3.32
		C113.101,123.912,113.241,122.805,113.386,121.681L113.386,121.681z"/>
	<path style="fill:#253744;" d="M111.7,136.381c0.039-0.394,0.078-0.783,0.119-1.188C111.778,135.598,111.739,135.987,111.7,136.381
		z"/>
	<path style="fill:#253744;" d="M111.968,133.768c0.051-0.479,0.102-0.966,0.152-1.457
		C112.069,132.802,112.019,133.288,111.968,133.768z"/>
	<path style="fill:#253744;" d="M400.685,157.163c0.031,0.606,0.061,1.229,0.088,1.866
		C400.745,158.393,400.716,157.77,400.685,157.163z"/>
	<path style="fill:#253744;" d="M398.046,125.097c0.127,1.02,0.242,2.019,0.359,2.999
		C398.292,127.115,398.173,126.116,398.046,125.097z"/>
	<path style="fill:#253744;" d="M397.614,121.681L397.614,121.681c0.145,1.124,0.285,2.231,0.42,3.32
		C397.899,123.912,397.761,122.809,397.614,121.681z"/>
	<path style="fill:#253744;" d="M135.39,121.681h-23.004c-2.574,18.524-3.796,49.368-4.254,63.73h20.865
		C130.542,160.534,132.78,139.488,135.39,121.681z"/>
	<path style="opacity:0.7;fill:#253744;enable-background:new    ;" d="M372.78,104.347c12.006-6.143,10.262-16.677,10.145-23.359
		c-0.146-8.317-3.543-32.462-10.715-35.837c13.615,6.407,22.594,47.273,26.402,76.53h-23.004
		C374.706,115.523,373.761,109.749,372.78,104.347z"/>
	<path style="opacity:0.7;fill:#253744;enable-background:new    ;" d="M383.081,205.97c-0.311-7.127-0.67-13.975-1.08-20.559
		h20.865c2.734,70.396,5.895,201.244,8.25,233.425c1.951,26.688-6.859,39.295-18.273,44.943
		C402.595,420.828,388.138,323.102,383.081,205.97z"/>
	<path style="fill:#253744;" d="M375.608,121.681h23.004c2.574,18.524,3.796,49.368,4.254,63.73h-20.865
		C380.456,160.534,378.218,139.488,375.608,121.681z"/>
	<path style="fill:#D89932;" d="M271.046,129.407c0,0-5.807,0.815-5.855,6.095c-0.047,5.278,3.889,7.822,3.889,7.822
		s-8.16-0.096-8.062-8.015C261.112,127.392,271.046,129.407,271.046,129.407z"/>
	<path style="fill:#D89932;" d="M245.946,129.407c0,0-5.807,0.815-5.854,6.095c-0.049,5.278,3.887,7.822,3.887,7.822
		s-8.158-0.096-8.062-8.015C236.013,127.392,245.946,129.407,245.946,129.407z"/>
	<path style="opacity:0.5;fill:#253744;enable-background:new    ;" d="M281.733,104.914l-11.646-2.043v23.035
		c0,0-7.281-0.582-9.07,5.747c-1.791,6.329,4.717,15.012-0.529,11.671c0,0,7.922,11.28,17.531,5.873
		C286.786,144.263,281.733,104.914,281.733,104.914z"/>
	<path style="fill:#D89932;" d="M339.642,218.192c0,0-5.807,0.816-5.855,6.096c-0.047,5.278,3.889,7.822,3.889,7.822
		s-8.158-0.097-8.062-8.015C329.708,216.176,339.642,218.192,339.642,218.192z"/>
	<path style="opacity:0.7;fill:#253744;enable-background:new    ;" d="M349.776,191.656h-11.094v23.035c0,0-7.279-0.582-9.07,5.747
		s4.717,15.012-0.527,11.671c0,0,7.92,11.28,17.531,5.872C355.382,233.048,349.776,191.656,349.776,191.656z"/>
	<path style="opacity:0.5;fill:#253744;enable-background:new    ;" d="M257.161,104.914l-11.646-2.043v23.035
		c0,0-7.279-0.582-9.07,5.747s4.719,15.012-0.527,11.671c0,0,7.922,11.28,17.531,5.873
		C262.216,144.263,257.161,104.914,257.161,104.914z"/>
	<g>
		<path style="fill:#F2B643;" d="M263.108,99.725c0-1.697,1.377-3.071,3.072-3.071h3.498c1.697,0,3.07,1.374,3.07,3.071V110.1
			c0,1.697-1.373,3.071-3.07,3.071h-3.498c-1.695,0-3.072-1.374-3.072-3.071V99.725z"/>
		<path style="fill:#F2B643;" d="M258.897,135.643c0.35,4.253-1.744,11.062,9.426,11.062c11.166,0,8.373-11.487,8.373-11.487
			l-1.746-26.074h-14.658C260.292,109.143,258.55,131.39,258.897,135.643z M262.692,135.825c0-3.527,2.346-6.386,5.234-6.386
			c2.895,0,5.24,2.858,5.24,6.386c0,3.524-2.346,6.377-5.24,6.377C265.038,142.202,262.692,139.35,262.692,135.825z"/>
	</g>
	<path style="fill:#F2B643;" d="M382.927,80.987c-0.148-8.317-3.543-32.462-10.715-35.837c0,0-87.531,9.218-116.713,9.218
		c-29.18,0-116.711-9.218-116.711-9.218c-7.172,3.375-10.568,27.52-10.715,35.837c-0.168,9.451-3.623,26.617,33.234,28.152
		c36.855,1.536,74.23-3.581,94.191-3.581s57.338,5.117,94.193,3.581C386.55,107.605,383.095,90.439,382.927,80.987z"/>
	<path style="fill:#D89932;" d="M372.212,45.151c0,0-87.531,6.218-116.713,6.218c-29.18,0-116.711-6.218-116.711-6.218
		c-7.172,3.375-10.568,27.52-10.715,35.837c-0.023,1.317-0.107,2.79-0.141,4.347C153.547,76.553,193.703,68.7,255.496,68.7
		c61.877,0,102.012,7.87,127.57,16.671c-0.031-1.569-0.117-3.054-0.141-4.383C382.778,72.67,379.384,48.526,372.212,45.151z"/>
	<g>
		<path style="fill:#F2B643;" d="M247.89,99.725c0-1.697-1.375-3.071-3.07-3.071h-3.498c-1.697,0-3.07,1.374-3.07,3.071V110.1
			c0,1.697,1.373,3.071,3.07,3.071h3.498c1.695,0,3.07-1.374,3.07-3.071V99.725z"/>
		<path style="fill:#F2B643;" d="M250.706,109.143H236.05l-1.746,26.074c0,0-2.793,11.487,8.373,11.487
			c11.17,0,9.076-6.809,9.426-11.062C252.45,131.39,250.706,109.143,250.706,109.143z M243.073,142.202
			c-2.895,0-5.24-2.853-5.24-6.377c0-3.527,2.346-6.386,5.24-6.386c2.889,0,5.234,2.858,5.234,6.386
			C248.308,139.35,245.962,142.202,243.073,142.202z"/>
	</g>
	<g>
		<path style="fill:#F2B643;" d="M331.829,188.483c0-1.697,1.377-3.071,3.07-3.071h3.498c1.697,0,3.07,1.374,3.07,3.071v10.375
			c0,1.698-1.373,3.072-3.07,3.072h-3.498c-1.693,0-3.07-1.374-3.07-3.072V188.483z"/>
		<path style="fill:#F2B643;" d="M327.618,224.401c0.348,4.253-1.746,11.062,9.424,11.062c11.166,0,8.373-11.488,8.373-11.488
			l-1.744-26.073h-14.658C329.013,197.902,327.269,220.148,327.618,224.401z M331.411,224.584c0-3.527,2.346-6.386,5.234-6.386
			c2.895,0,5.24,2.858,5.24,6.386c0,3.523-2.346,6.376-5.24,6.376C333.757,230.96,331.411,228.108,331.411,224.584z"/>
	</g>
	<path style="opacity:0.7;fill:#253744;enable-background:new    ;" d="M255.499,185.411H109.132c0,0,76.24,12.49,146.367,12.49
		c70.129,0,146.369-12.49,146.369-12.49H255.499z"/>
	<polygon style="fill:#253744;" points="220.728,205.97 216.907,219.745 255.499,272.337 	"/>
</g>
<g>
</g>
<g>
</g>
<g>
</g>
<g>
</g>
<g>
</g>
<g>
</g>
<g>
</g>
<g>
</g>
<g>
</g>
<g>
</g>
<g>
</g>
<g>
</g>
<g>
</g>
<g>
</g>
<g>
</g>
</svg>
