<svg id="Layer_1" height="512" viewBox="0 0 150 150" width="512" xmlns="http://www.w3.org/2000/svg" data-name="Layer 1"><circle cx="75" cy="75" fill="#21b3a9" r="64"/><path d="m88.39 65.74h-49.07a12.4 12.4 0 1 0 0 24.79h49.07a12.4 12.4 0 0 0 0-24.79z" fill="#3a556a"/><path d="m39.32 86.14a8 8 0 1 1 0-16h49.07a8 8 0 0 1 0 16z" fill="#2f4859"/><path d="m87.92 72.09a6 6 0 1 0 6 6 6.05 6.05 0 0 0 -6-6z" fill="#e1e6e9"/><path d="m87.92 75a3.14 3.14 0 1 0 3.14 3.14 3.14 3.14 0 0 0 -3.14-3.14z" fill="#3a556a"/><path d="m63.43 72.09a6 6 0 1 0 6.05 6 6 6 0 0 0 -6.05-6z" fill="#e1e6e9"/><path d="m63.43 75a3.14 3.14 0 1 0 3.14 3.14 3.13 3.13 0 0 0 -3.14-3.14z" fill="#3a556a"/><path d="m39.81 72.09a6 6 0 1 0 6 6 6 6 0 0 0 -6-6z" fill="#e1e6e9"/><path d="m39.81 75a3.14 3.14 0 1 0 3.19 3.14 3.13 3.13 0 0 0 -3.19-3.14z" fill="#3a556a"/><path d="m26.92 93.96h96.15v10.21h-96.15z" fill="#fcd462"/><path d="m26.92 92.14h96.15v2.79h-96.15z" fill="#f7be56"/><path d="m86.08 56.18-2.38 6.35a2.41 2.41 0 0 1 -.81 1.07 2.11 2.11 0 0 1 -.6.34 2.29 2.29 0 0 1 -1.16.18l-4.62-.4-5.17-.46a2.55 2.55 0 0 1 -2-2.07l-1.52-9a2.44 2.44 0 0 1 .35-1.74 2.37 2.37 0 0 1 1.19-1l9-3.41a2.46 2.46 0 0 1 1.39-.08 2.52 2.52 0 0 1 1.48 1.04l4.6 6.95a2.49 2.49 0 0 1 .4 1.1 2.36 2.36 0 0 1 -.15 1.13z" fill="#3a556a"/><g fill="#2f4859"><path d="m79.69 45.9-4.56 6.47a1.25 1.25 0 0 1 -1.5.42l-5.55-2.39a2.37 2.37 0 0 1 1.19-1l9-3.41a2.46 2.46 0 0 1 1.42-.09z"/><path d="m86.08 56.18-2.38 6.35a2.41 2.41 0 0 1 -.81 1.07l-1.68-8 5-.61a2.36 2.36 0 0 1 -.13 1.19z"/><path d="m72.65 59.46a1.33 1.33 0 0 0 -1.78.67l-1 2.31a2.45 2.45 0 0 0 1.44.81l5.17.46 4.62.4a2.29 2.29 0 0 0 1.16-.18z"/><path d="m80.39 53.38a1.23 1.23 0 0 0 -1.92-.56l-3.26 2.54a1.24 1.24 0 0 0 .14 2l2.16 1.25a1.24 1.24 0 0 0 1.61-.32l2.09-2.72z"/></g><path d="m105.4 53.57a1.08 1.08 0 0 0 -.4-.84 1 1 0 0 0 -.71-.27l-6.44.08a1.26 1.26 0 0 0 -.65.22 1 1 0 0 0 -.39.53l-2.81 8.14a1 1 0 0 0 0 .57 1.1 1.1 0 0 0 .48.73l5.12 3.27a1.09 1.09 0 0 0 .58.17 1.19 1.19 0 0 0 .32 0 1.12 1.12 0 0 0 .46-.26l3.09-3.47 1.08-1.21a.91.91 0 0 0 .21-.35 1.1 1.1 0 0 0 .08-.4z" fill="#3a556a"/><path d="m105 52.73-5.25 3.83-2.55-3.8a1.26 1.26 0 0 1 .65-.22l6.44-.08a1 1 0 0 1 .71.27z" fill="#2f4859"/><path d="m105.35 60.87a.91.91 0 0 1 -.21.35l-1.08 1.21-3.06 3.47a1.12 1.12 0 0 1 -.46.26l1.88-6.16z" fill="#2f4859"/><path d="m100.18 66.21a1.09 1.09 0 0 1 -.58-.21l-5.13-3.31a1.1 1.1 0 0 1 -.47-.69l2.17-2.24z" fill="#2f4859"/><path d="m102.41 59.98.59-3.06-4.79 1.76 1.53 3.12z" fill="#2f4859"/><path d="m109.65 86.11a.43.43 0 0 0 -.24-.35.78.78 0 0 0 -.41-.11h-3.79a.79.79 0 0 0 -.38.09.45.45 0 0 0 -.23.22l-1.6 3.39v.23a.46.46 0 0 0 .29.31l3 1.36a1 1 0 0 0 .34.07h.19a.81.81 0 0 0 .27-.11l1.82-1.43.63-.5.13-.14v-.16z" fill="#3a556a"/><path d="m109.41 85.76-3.08 1.58-1.5-1.56a.79.79 0 0 1 .38-.09h3.79a.78.78 0 0 1 .41.07z" fill="#2f4859"/><path d="m109.62 89.12-.13.14-.63.5-1.86 1.43a.81.81 0 0 1 -.27.11l1.12-2.55z" fill="#2f4859"/><path d="m106.58 91.32a1 1 0 0 1 -.34-.07l-3-1.36a.46.46 0 0 1 -.29-.31l1.28-.92z" fill="#2f4859"/><path d="m107.89 88.75.35-1.26-2.82.73.9 1.28z" fill="#2f4859"/><path d="m114.59 69.45a.77.77 0 0 0 -.45-.65 1.46 1.46 0 0 0 -.79-.21l-7.16.06a1.82 1.82 0 0 0 -.72.17.9.9 0 0 0 -.44.42l-3.1 6.34a.56.56 0 0 0 0 .45.89.89 0 0 0 .53.57l5.72 2.59a1.65 1.65 0 0 0 .63.13 2.33 2.33 0 0 0 .37 0 1.46 1.46 0 0 0 .5-.2l3.45-2.7 1.2-1a.83.83 0 0 0 .23-.27.59.59 0 0 0 .09-.31z" fill="#3a556a"/><path d="m114.14 68.8-5.84 3-2.83-3a1.82 1.82 0 0 1 .72-.17l7.16-.06a1.46 1.46 0 0 1 .79.23z" fill="#2f4859"/><path d="m114.53 75.15a.83.83 0 0 1 -.23.27l-1.2 1-3.45 2.7a1.46 1.46 0 0 1 -.5.2l2.12-4.83z" fill="#2f4859"/><path d="m108.77 79.32a1.65 1.65 0 0 1 -.63-.13l-5.72-2.59a.89.89 0 0 1 -.53-.57l2.42-1.75z" fill="#2f4859"/><path d="m111.26 74.46.66-2.39-5.34 1.37 1.7 2.43z" fill="#2f4859"/></svg>