<svg id="Layer_1" height="512" viewBox="0 0 150 150" width="512" xmlns="http://www.w3.org/2000/svg" data-name="Layer 1"><path d="m139 75a64 64 0 1 1 -64-64 64 64 0 0 1 64 64" fill="#fe7058"/><path d="m66 57.78-1.63-.94a.73.73 0 0 0 -1 .26l-18.28 31.81a.71.71 0 0 0 .26 1l1.64.94a.7.7 0 0 0 1-.26l18.3-31.81a.71.71 0 0 0 -.26-1" fill="#fcd462"/><path d="m74.45 77.37c.13-6-3.14-12.26-8.93-16.3l.35-.6a.26.26 0 0 0 -.1-.36l-3.31-1.9a.27.27 0 0 0 -.37.09l-.36.63c-6.31-2.81-13.19-2.46-18.24.62a.35.35 0 0 0 .22.65 28.67 28.67 0 0 1 15.57 3l-.38.66a.27.27 0 0 0 .09.37l3.32 1.9a.26.26 0 0 0 .36-.1l.39-.68a28.79 28.79 0 0 1 10.72 12.16.35.35 0 0 0 .67-.14" fill="#3a556a"/><path d="m65.52 61.08-2.46 4.27 2.66-4.13z" fill="#2f4859"/><path d="m77.25 96.76-6.73 5.4-3.17 9.4h36.81l2.52-73.12-29.58 3.98 3.32 16.06-5.97-.26 5.68 20.39-2.46 6.87z" fill="#3a556a"/><g fill="#2f4859"><path d="m80.42 58.48 1.38 18.33-1.67 1.8-5.68-20.39z"/><path d="m77.67 85.48 14.91 13.27-5.32 3.31-10.01-5.3z"/><path d="m77.1 42.42 3.32 16.06 9.56 1.64 3.05-6.42-4.44-6.76z"/><path d="m74.99 82.57-6.78 1.07 1.55 5.3h3.68l2.04-2.77z"/><path d="m71.67 64.18-.69-3.71 1.47-1.87.48 6.62z"/><path d="m72.89 78.61-5.09-3.74-.45 2.92z"/></g><path d="m49.4 84.82c.12-.13.23-.27.35-.41l.15-.29a6.85 6.85 0 0 1 -.5.7" fill="#f7be56"/><path d="m49.9 84.12a10.24 10.24 0 0 0 1.28-2.64 21.41 21.41 0 0 1 -1.28 2.64" fill="#f7be56"/><path d="m50.82 83c-.33.48-.69.95-1.07 1.4a24.37 24.37 0 0 1 -2.36 3.44c.16-.53.33-1.06.49-1.58l-1 1.56.87-1.82a7.1 7.1 0 0 0 -.75 1.25 1.17 1.17 0 0 0 -.82 1.6l1.2-1a2 2 0 0 0 -.15 1.68 29.12 29.12 0 0 0 2.55-4c-.26.31-.53.62-.79.94z" fill="#f9c95c"/><path d="m52.57 79.74c-.57 1.09-1.16 2.18-1.75 3.26a16.6 16.6 0 0 0 1.75-3.27" fill="#f9c95c"/><path d="m54.19 76.55a5.74 5.74 0 0 1 -.32.53 3.25 3.25 0 0 0 .32-.53" fill="#f7be56"/><path d="m57.63 69.59q-3.06 4.62-6.1 9.26l.75-.8c-.26.54-.52 1.07-.79 1.61a2.55 2.55 0 0 0 1.92-1.91 1 1 0 0 1 -.29.79 9.64 9.64 0 0 0 2.43-3.63l-1.75 2.28.78-2.07a3.39 3.39 0 0 1 -.39 1.43 39.5 39.5 0 0 0 3.44-7" fill="#f9c95c"/><path d="m59.59 65.29c-.62 1-1.25 2-1.88 3.07l-.08.2c.53-.68 1.07-1.35 1.61-2a7.73 7.73 0 0 0 .35-1.25" fill="#f9c95c"/><path d="m60.25 68c-.11.24-.21.47-.32.7a6.29 6.29 0 0 0 .32-.7m-.49-2.08-.52.66a9 9 0 0 1 -.7 1.47 2.47 2.47 0 0 0 1.08-.79 18.51 18.51 0 0 1 -1 2.79l-2.1 5a69.74 69.74 0 0 0 3.4-6.39c-.07.13-.14.26-.22.38a23.86 23.86 0 0 0 .52-2.65l-.56.33a3 3 0 0 1 .09-.84" fill="#f9c95c"/></svg>