<svg height="512pt" viewBox="0 0 512 512" width="512pt" xmlns="http://www.w3.org/2000/svg"><path d="m292.734375 140.800781c0-19.851562-15.769531-35.980469-35.457031-36.648437 5.859375-6.503906 9.457031-15.085938 9.457031-24.53125 0-20.277344-16.4375-36.714844-36.710937-36.714844-1.246094 0-2.476563.066406-3.691407.1875.363281-2.078125.59375-4.203125.59375-6.382812 0-20.273438-16.4375-36.710938-36.710937-36.710938-20.273438 0-36.710938 16.4375-36.710938 36.710938 0 2.183593.222656 4.308593.589844 6.386718-1.214844-.125-2.445312-.1875-3.691406-.1875-20.273438 0-36.710938 16.4375-36.710938 36.710938 0 9.445312 3.597656 18.027344 9.457032 24.535156-19.6875.664062-35.457032 16.796875-35.457032 36.648438 0 18.230468 13.304688 33.316406 30.730469 36.179687-3 5.320313-4.730469 11.449219-4.730469 17.992187 0 20.273438 16.4375 36.710938 36.710938 36.710938 1.96875 0 3.886718-.199219 5.773437-.496094-1.710937 4.238282-2.671875 8.855469-2.671875 13.703125 0 20.277344 16.433594 36.714844 36.710938 36.714844 20.273437 0 36.710937-16.4375 36.710937-36.714844 0-4.847656-.964843-9.464843-2.671875-13.703125 1.882813.296875 3.800782.496094 5.769532.496094 20.273437 0 36.710937-16.433594 36.710937-36.710938 0-6.542968-1.726563-12.671874-4.726563-17.992187 17.421876-2.863281 30.726563-17.949219 30.726563-36.183594zm0 0" fill="#d476e2"/><path d="m243.445312 135.203125c-2.910156-2.90625-7.621093-2.910156-10.53125 0l-35.257812 35.253906v-120.28125c0-4.113281-3.332031-7.445312-7.445312-7.445312-4.109376 0-7.445313 3.332031-7.445313 7.445312v55.398438l-23.984375-23.988281c-2.910156-2.910157-7.625-2.910157-10.535156 0-2.902344 2.90625-2.902344 7.621093 0 10.527343l34.523437 34.519531v129.367188c0 4.113281 3.332031 7.445312 7.445313 7.445312 4.109375 0 7.445312-3.332031 7.445312-7.445312v-64.480469l45.789063-45.785156c2.902343-2.910156 2.902343-7.621094-.003907-10.53125zm0 0" fill="#b665c2"/><path d="m150.402344 56.910156c1.246094 0 2.476562.066406 3.691406.1875-.367188-2.078125-.59375-4.203125-.59375-6.386718.003906-20.273438 16.4375-36.710938 36.714844-36.710938 20.273437 0 36.710937 16.4375 36.710937 36.710938 0 2.183593-.226562 4.308593-.589843 6.386718 1.210937-.125 2.441406-.1875 3.6875-.1875 17.886718 0 32.769531 12.796875 36.03125 29.730469.441406-2.269531.679687-4.617187.679687-7.019531 0-20.273438-16.433594-36.710938-36.710937-36.710938-1.246094 0-2.476563.066406-3.6875.1875.363281-2.078125.589843-4.203125.589843-6.386718 0-20.273438-16.4375-36.710938-36.710937-36.710938-20.273438 0-36.710938 16.4375-36.710938 36.710938 0 2.183593.222656 4.308593.589844 6.386718-1.214844-.125-2.445312-.1875-3.691406-.1875-20.273438 0-36.710938 16.4375-36.710938 36.710938 0 2.40625.238282 4.75.683594 7.019531 3.261719-16.933594 18.140625-29.730469 36.027344-29.730469zm0 0" fill="#ea82fa"/><path d="m351.945312 281.605469h160.054688v-201.578125c0-44.199219-35.828125-80.027344-80.027344-80.027344-44.199218 0-80.027344 35.828125-80.027344 80.027344zm0 0" fill="#edd4c2"/><path d="m431.972656 0c-44.199218 0-80.027344 35.828125-80.027344 80.027344v14c0-44.199219 35.828126-80.027344 80.027344-80.027344 44.199219 0 80.027344 35.828125 80.027344 80.027344v-14c0-44.199219-35.828125-80.027344-80.027344-80.027344zm0 0" fill="#ffefe4"/><path d="m372.699219 354.132812v-117.054687c0-46.867187-40.558594-47.167969-40.558594-93.519531l-3.546875-97.503906h-52.628906l-3.542969 97.503906c0 46.351562-40.5625 46.652344-40.5625 93.519531v117.054687zm0 0" fill="#6770e6"/><path d="m333.910156 67.742188h-63.261718c-2.300782 0-4.164063-1.863282-4.164063-4.164063v-30.148437c0-4.945313 4.007813-8.957032 8.957031-8.957032h53.675782c4.945312 0 8.953124 4.011719 8.953124 8.957032v30.152343c.003907 2.296875-1.859374 4.160157-4.160156 4.160157zm0 0" fill="#d476e2"/><path d="m329.117188 24.472656h-53.675782c-4.949218 0-8.957031 4.011719-8.957031 8.957032v11.824218c0-4.949218 4.007813-8.957031 8.957031-8.957031h53.675782c4.945312 0 8.953124 4.007813 8.953124 8.957031v-11.824218c0-4.949219-4.007812-8.957032-8.953124-8.957032zm0 0" fill="#ea82fa"/><path d="m282.476562 58.933594c-2.386718 0-4.328124-1.9375-4.328124-4.328125v-16.992188c0-2.390625 1.941406-4.328125 4.328124-4.328125 2.390626 0 4.328126 1.9375 4.328126 4.328125v16.992188c0 2.390625-1.9375 4.328125-4.328126 4.328125zm0 0" fill="#b665c2"/><path d="m302.277344 58.933594c-2.390625 0-4.328125-1.9375-4.328125-4.328125v-16.992188c0-2.390625 1.9375-4.328125 4.328125-4.328125s4.328125 1.9375 4.328125 4.328125v16.992188c0 2.390625-1.933594 4.328125-4.328125 4.328125zm0 0" fill="#b665c2"/><path d="m322.078125 58.933594c-2.386719 0-4.324219-1.9375-4.324219-4.328125v-16.992188c0-2.390625 1.9375-4.328125 4.324219-4.328125 2.390625 0 4.328125 1.9375 4.328125 4.328125v16.992188c0 2.390625-1.9375 4.328125-4.328125 4.328125zm0 0" fill="#b665c2"/><path d="m88.824219 177.191406c-.894531 0-1.808594-.164062-2.699219-.507812-3.828125-1.492188-5.726562-5.804688-4.238281-9.632813.140625-.363281 9.367187-24.816406 1.375-41.410156-3.136719-6.507813-8.535157-10.894531-16.5-13.402344-3.921875-1.234375-6.101563-5.417969-4.867188-9.339843 1.234375-3.917969 5.410157-6.101563 9.335938-4.863282 11.960937 3.765625 20.53125 10.898438 25.472656 21.203125 10.789063 22.5-.457031 51.964844-.9375 53.207031-1.144531 2.941407-3.960937 4.746094-6.941406 4.746094zm0 0" fill="#5861c7"/><path d="m71.230469 104.035156c11.960937 3.765625 20.53125 10.898438 25.472656 21.203125 3.011719 6.285157 4.308594 13.109375 4.597656 19.714844.335938-8.359375-.660156-17.5-4.597656-25.714844-4.941406-10.304687-13.511719-17.4375-25.472656-21.203125-3.925781-1.238281-8.101563.941406-9.335938 4.863282-.566406 1.804687-.386719 3.648437.324219 5.246093 1.507812-3.425781 5.355469-5.261719 9.011719-4.109375zm0 0" fill="#6770e6"/><path d="m137.441406 132.757812c-28.46875 0-28.414062 10.308594-44.035156 10.308594s-15.570312-10.308594-44.035156-10.308594c-28.46875 0-49.371094 16.628907-49.371094 55.328126 0 38.695312 21.480469 94.34375 63.375 94.34375 19.785156 0 20.488281-5.820313 30.027344-5.820313 9.542968 0 10.246094 5.820313 30.03125 5.820313 41.894531 0 63.375-55.648438 63.375-94.34375 0-38.699219-20.90625-55.328126-49.367188-55.328126zm0 0" fill="#ff8354"/><path d="m49.371094 146.757812c28.464844 0 28.414062 10.308594 44.03125 10.308594 15.621094 0 15.570312-10.308594 44.035156-10.308594 26.714844 0 46.769531 14.648438 49.132812 48.445313.15625-2.421875.238282-4.804687.238282-7.121094 0-38.695312-20.90625-55.324219-49.371094-55.324219s-28.414062 10.308594-44.035156 10.308594-15.566406-10.308594-44.03125-10.308594c-28.46875 0-49.371094 16.628907-49.371094 55.328126 0 2.3125.0820312 4.695312.234375 7.117187 2.367187-33.792969 22.417969-48.445313 49.136719-48.445313zm0 0" fill="#ffac8c"/><path d="m447.417969 512h-382.835938c-35.667969 0-64.582031-28.914062-64.582031-64.582031v-215.417969h512v215.417969c0 35.667969-28.914062 64.582031-64.582031 64.582031zm0 0" fill="#ffefe4"/><path d="m447.417969 492h-382.835938c-35.667969 0-64.582031-28.914062-64.582031-64.582031v20c0 35.667969 28.914062 64.582031 64.582031 64.582031h382.835938c35.667969 0 64.582031-28.914062 64.582031-64.582031v-20c0 35.667969-28.914062 64.582031-64.582031 64.582031zm0 0" fill="#edd4c2"/><g fill="#d476e2"><path d="m358.496094 280.59375c0 9.195312-7.453125 16.652344-16.652344 16.652344s-16.652344-7.457032-16.652344-16.652344c0-9.199219 7.453125-16.65625 16.652344-16.65625s16.652344 7.457031 16.652344 16.65625zm0 0"/><path d="m186.808594 280.59375c0 9.195312-7.453125 16.652344-16.652344 16.652344s-16.652344-7.457032-16.652344-16.652344c0-9.199219 7.453125-16.65625 16.652344-16.65625s16.652344 7.457031 16.652344 16.65625zm0 0"/><path d="m170.570312 271.507812c5.578126 0 10.097657 4.519532 10.097657 10.097657v41.757812c0 41.585938 33.207031 76.09375 74.792969 76.496094 41.992187.410156 76.285156-33.632813 76.285156-75.535156v-42.71875c0-5.578125 4.523437-10.097657 10.097656-10.097657 5.578125 0 10.097656 4.519532 10.097656 10.097657v41.5c0 52.707031-42.085937 96.441406-94.792968 96.949219-53.21875.515624-96.679688-42.625-96.679688-95.730469v-42.71875c0-5.578125 4.523438-10.097657 10.101562-10.097657zm0 0"/></g><path d="m474.460938 119.125h-84.980469c-6.964844 0-12.613281-5.648438-12.613281-12.613281 0-6.964844 5.648437-12.613281 12.613281-12.613281h84.980469c6.96875 0 12.613281 5.648437 12.613281 12.613281.003906 6.964843-5.644531 12.613281-12.613281 12.613281zm0 0" fill="#edc09f"/><path d="m474.460938 194.972656h-84.980469c-6.964844 0-12.613281-5.648437-12.613281-12.613281 0-6.96875 5.648437-12.617187 12.613281-12.617187h84.980469c6.96875 0 12.613281 5.648437 12.613281 12.617187.003906 6.964844-5.644531 12.613281-12.613281 12.613281zm0 0" fill="#edc09f"/></svg>