<svg height="512pt" viewBox="-1 0 512 512.024" width="512pt" xmlns="http://www.w3.org/2000/svg"><path d="m38.359375 302.300781v173.722657h143.152344v-245.476563zm0 0" fill="#6770e6"/><path d="m181.511719 230.546875v245.476563h143.152343v-317.226563zm0 0" fill="#d476e2"/><path d="m324.664062 476.023438h143.152344v-388.980469l-143.152344 71.753906zm0 0" fill="#69ebfc"/><path d="m507.96875 80.363281c.050781-.269531.105469-.539062.144531-.808593.050781-.335938.082031-.671876.113281-1.007813.027344-.289063.058594-.578125.070313-.867187.011719-.320313.007813-.640626.007813-.960938 0-.300781.003906-.601562-.011719-.902344-.015625-.308594-.054688-.621094-.085938-.933594-.03125-.304687-.058593-.609374-.101562-.914062-.046875-.304688-.109375-.605469-.171875-.90625-.0625-.304688-.121094-.613281-.199219-.917969-.074219-.289062-.164063-.574219-.253906-.859375-.09375-.316406-.1875-.628906-.300781-.933594-.097657-.269531-.207032-.535156-.316407-.800781-.136719-.320312-.269531-.640625-.417969-.949219-.050781-.105468-.085937-.207031-.136718-.308593-.082032-.160157-.175782-.304688-.261719-.457031-.15625-.296876-.320313-.59375-.496094-.878907-.160156-.265625-.328125-.523437-.5-.777343-.171875-.25-.34375-.496094-.523437-.742188-.199219-.265625-.402344-.523438-.613282-.777344-.183593-.214844-.367187-.429687-.558593-.640625-.226563-.246093-.457031-.488281-.691407-.722656-.203124-.203125-.410156-.398437-.625-.589844-.242187-.214843-.484374-.425781-.734374-.632812-.234376-.1875-.472657-.371094-.714844-.550781-.25-.183594-.5-.363282-.757813-.53125-.257812-.171876-.523437-.335938-.792969-.5-.261718-.15625-.527343-.304688-.800781-.449219-.269531-.144531-.542969-.28125-.820312-.414063-.300781-.140625-.601563-.269531-.902344-.394531-.261719-.105469-.523437-.210937-.792969-.304687-.34375-.125-.695312-.234376-1.046875-.339844-.152343-.042969-.296875-.105469-.449219-.144532l-93.867187-25.152343c-10.140625-2.71875-20.566406 3.300781-23.28125 13.445312-2.71875 10.140625 3.296875 20.566407 13.441406 23.285157l45.550781 12.203124-425.5625 213.308594c-9.386718 4.707032-13.179687 16.128906-8.476562 25.515625 3.335938 6.652344 10.042969 10.496094 17.011719 10.496094 2.867187 0 5.769531-.648437 8.503906-2.019531l432.449219-216.753906-14.199219 52.988281c-2.71875 10.136719 3.300781 20.5625 13.441406 23.28125 1.648438.441406 3.304688.652343 4.933594.652343 8.394531 0 16.078125-5.601562 18.351563-14.09375l25.152343-93.871093c.027344-.101563.039063-.207031.066407-.308594.085937-.351563.15625-.703125.226562-1.058594zm0 0" fill="#ff8354"/><path d="m491.304688 512.023438h-472.28125c-10.5 0-19.0117192-8.511719-19.0117192-19.011719v-474c0-10.5 8.5117192-19.011719 19.0117192-19.011719s19.011718 8.511719 19.011718 19.011719v454.988281h453.273438c10.5 0 19.011718 8.511719 19.011718 19.011719s-8.515624 19.011719-19.015624 19.011719zm0 0" fill="#ff8354"/><path d="m491.304688 498.023438h-472.28125c-10.5 0-19.0117192-8.511719-19.0117192-19.011719v14c0 10.5 8.5117192 19.011719 19.0117192 19.011719h472.285156c10.5 0 19.011718-8.511719 19.011718-19.011719 0-2.472657-.488281-4.832031-1.347656-7-2.789062 7.03125-9.640625 12.011719-17.667968 12.011719zm0 0" fill="#e0734a"/><path d="m19.023438 14c10.5 0 19.011718 8.511719 19.011718 19.011719v-14c0-10.5-8.511718-19.011719-19.011718-19.011719s-19.0117192 8.511719-19.0117192 19.011719v14c0-10.5 8.5117192-19.011719 19.0117192-19.011719zm0 0" fill="#ffac8c"/><path d="m278.191406.0234375h-173.941406c-18.789062 0-34.023438 15.2343745-34.023438 34.0234375v99.800781c0 18.789063 15.234376 34.023438 34.023438 34.023438h25.804688v35.871094c0 5.660156 6.84375 8.492187 10.84375 4.492187l40.363281-40.363281h96.925781c18.789062 0 34.023438-15.234375 34.023438-34.023438v-99.800781c.003906-18.789063-15.230469-34.0234375-34.019532-34.0234375zm0 0" fill="#69ebfc"/><path d="m104.25.0234375h173.9375c18.792969 0 34.023438 15.2343745 34.023438 34.0234375v14.226563c0-18.792969-15.230469-34.027344-34.023438-34.027344h-173.9375c-18.792969 0-34.023438 15.234375-34.023438 34.027344v-14.226563c0-18.789063 15.234376-34.0234375 34.023438-34.0234375zm0 0" fill="#a1f1fc"/><path d="m186.246094 130.757812c-6.238282-.914062-11.785156-3.324218-16.65625-7.238281-2.839844-2.28125-5.203125-5.140625-7.089844-8.582031-2.292969-4.171875-.5-9.421875 3.90625-11.222656 3.503906-1.433594 7.613281-.21875 9.566406 3.023437.628906 1.042969 1.355469 2.039063 2.167969 2.988281 2.242187 2.621094 4.945313 4.433594 8.105469 5.425782v-23.703125l-1.113282-.503907c-3.078124-1.160156-5.972656-2.53125-8.675781-4.117187-2.699219-1.574219-5.074219-3.410156-7.109375-5.488281-2.046875-2.078125-3.667968-4.429688-4.871094-7.050782-1.210937-2.621093-1.816406-5.554687-1.816406-8.800781 0-2.992187.546875-5.816406 1.625-8.484375 1.089844-2.65625 2.640625-5.035156 4.6875-7.109375 2.035156-2.078125 4.503906-3.808593 7.425782-5.179687 2.90625-1.371094 6.191406-2.265625 9.847656-2.683594v-5.175781c0-3.070313 2.484375-5.554688 5.554687-5.554688 3.066407 0 5.554688 2.484375 5.554688 5.554688v5.425781c3.332031.496094 6.226562 1.371094 8.671875 2.621094 2.460937 1.246094 4.5625 2.703125 6.371094 4.304687.699218.617188 1.371093 1.351563 2.003906 2.148438 3.152344 3.945312 1.554687 9.84375-3.058594 11.902343-3.160156 1.40625-6.796875.523438-9.125-2.039062-1.21875-1.34375-2.828125-2.664062-4.863281-3.59375v22.339844c3.585937 1.5 6.820312 3.039062 9.738281 4.621094 2.910156 1.578124 5.402344 3.367187 7.488281 5.367187 2.082031 1.992187 3.65625 4.261719 4.734375 6.792969 1.089844 2.546875 1.625 5.476562 1.625 8.800781 0 3.746094-.644531 7.074219-1.925781 9.984375-1.296875 2.914062-3.015625 5.40625-5.183594 7.484375-2.167969 2.085937-4.679687 3.75-7.546875 4.996094-2.871094 1.246093-5.851562 2.121093-8.929687 2.617187v5.425782c0 3.066406-2.484375 5.554687-5.554688 5.554687-3.066406 0-5.550781-2.488281-5.550781-5.554687v-5.296876zm-8.222656-65.269531c0 1.996094.640624 3.722657 1.925781 5.175781 1.296875 1.460938 3.390625 2.941407 6.300781 4.4375v-18.222656c-2.496094.667969-4.484375 1.746094-5.984375 3.242188-1.503906 1.503906-2.242187 3.289062-2.242187 5.367187zm26.949218 40.1875c0-2.160156-.582031-3.957031-1.753906-5.367187-1.164062-1.417969-3.113281-2.828125-5.863281-4.246094v19.09375c2.253906-.746094 4.082031-1.933594 5.5-3.554688 1.40625-1.625 2.117187-3.597656 2.117187-5.925781zm0 0" fill="#6770e6"/></svg>