<svg id="Layer_1" height="512" viewBox="0 0 150 150" width="512" xmlns="http://www.w3.org/2000/svg" data-name="Layer 1"><path d="m139 75a64 64 0 1 1 -64-64 64 64 0 0 1 64 64" fill="#029bc5"/><path d="m91.9 50.9-2.47-2.47a1.15 1.15 0 0 0 -1.64 0l-50.35 50.34a1.16 1.16 0 0 0 0 1.64l2.48 2.47a1.15 1.15 0 0 0 1.64 0l50.34-50.34a1.16 1.16 0 0 0 0-1.64" fill="#fcd462"/><g fill="#3a556a"><rect height="20.23" rx="1.46" transform="matrix(.707 -.707 .707 .707 -15.93 76.9)" width="12.65" x="78.54" y="47.56"/><path d="m84.75 53.53-5.09 6.67c25.16 15.79 30.69 33.43 31.86 41.63a.62.62 0 0 0 1.23 0c3.44-26.92-28-48.3-28-48.3z"/><path d="m62.32 82.26-4.26-4.26a.58.58 0 0 0 -.84 0l-19.63 19.63a2.07 2.07 0 0 0 0 2.93l2.18 2.18a2.09 2.09 0 0 0 2.93 0l19.62-19.63a.61.61 0 0 0 0-.85z"/></g><path d="m73.7 69.85c-1.54 1.06-2.79 3.24-4.23 4.42 1.63-.9 2.92-3.08 4.23-4.42" fill="#f9c95c"/><path d="m79.09 62.56a7.24 7.24 0 0 1 -3.37 1.61l.45-.7a13.8 13.8 0 0 1 -6.17 4.73c1.24-1.54 2.48-3.09 3.73-4.63a94.81 94.81 0 0 0 -6.93 8.05l.83-.68a15.47 15.47 0 0 1 -3.42 4.49l1.23-2-3.83 2.7c-.35.25-.75.61-.65 1l.11-.47.68-.63a3.35 3.35 0 0 0 -1 2.83 7.07 7.07 0 0 0 3.45-2.15 2 2 0 0 0 -.27 1l.58-.42a7.12 7.12 0 0 0 -.85 2.08 69.43 69.43 0 0 1 5.77-5.2 21.2 21.2 0 0 1 -2.1 1 13.11 13.11 0 0 0 1.92-4.44l2-1.65-1.77 3.15a24.2 24.2 0 0 1 6.66-5.68 5.26 5.26 0 0 0 1.25-.89 1.48 1.48 0 0 0 .41-1.4h-.4l1.69-1.79" fill="#f9c95c"/><path d="m77.16 61.92-1 1.55a13.14 13.14 0 0 0 1-1.55" fill="#f9c95c"/></svg>