<?xml version="1.0" encoding="iso-8859-1"?>
<!-- Generator: Adobe Illustrator 19.0.0, SVG Export Plug-In . SVG Version: 6.00 Build 0)  -->
<svg version="1.1" id="Layer_1" xmlns="http://www.w3.org/2000/svg" xmlns:xlink="http://www.w3.org/1999/xlink" x="0px" y="0px"
	 viewBox="0 0 512 512" style="enable-background:new 0 0 512 512;" xml:space="preserve">
<g>
	<path style="fill:#2D404E;" d="M407.108,354.171c0,0-24.732,2.576-37.598-21.643s-14.445-114.394-14.445-114.394
		s-4.639-51.529-4.639-60.805s-5.668-13.912-18.551-13.912c-12.881,0-15.457,5.152-15.457,13.912c0,8.761,0,20.611,0,20.611H256
		h-60.418c0,0,0-11.851,0-20.611s-2.576-13.912-15.459-13.912s-18.551,4.637-18.551,13.912s-4.637,60.805-4.637,60.805
		s-1.58,90.176-14.445,114.395s-37.6,21.643-37.6,21.643l-6.184,22.157h157.293H413.29L407.108,354.171z"/>
	<path style="fill:#F2B643;" d="M342.569,439.134c0,4.695,3.807,8.502,8.502,8.502h53.719c4.695,0,8.502-3.807,8.502-8.502v-6.184
		c0-4.695-3.807-8.502-8.502-8.502h-53.719c-4.695,0-8.502,3.807-8.502,8.502V439.134z"/>
	<path style="fill:#F2B643;" d="M169.432,439.134c0,4.695-3.807,8.502-8.504,8.502h-53.719c-4.695,0-8.502-3.807-8.502-8.502v-6.184
		c0-4.695,3.807-8.502,8.502-8.502h53.719c4.697,0,8.504,3.807,8.504,8.502V439.134z"/>
	<path style="fill:#D89932;" d="M160.928,424.448h-53.719c-4.695,0-8.502,3.807-8.502,8.502v6.184h70.725v-6.184
		C169.432,428.255,165.625,424.448,160.928,424.448z"/>
	<path style="fill:#D89932;" d="M351.04,424.448h53.719c4.695,0,8.502,3.807,8.502,8.502v6.184h-70.723v-6.184
		C342.538,428.255,346.344,424.448,351.04,424.448z"/>
	<path style="fill:#2D404E;" d="M507.592,155.055c-7.215-30.918-20.613-48.953-20.613-48.953S392.424,65.91,256,64.364
		C119.576,65.91,25.02,106.101,25.02,106.101s-13.398,18.035-20.611,48.953c-7.215,30.917-2.576,52.56-2.576,52.56
		s36.07-7.214,70.078-24.734c34.01-17.52,53.076-34.009,53.076-34.009c5.152-22.157,17.004-19.582,26.795-19.582
		c9.789,0,104.219,0,104.219,0s94.428,0,104.219,0c9.789,0,21.641-2.575,26.795,19.582c0,0,19.064,16.489,53.074,34.009
		c34.01,17.521,70.08,24.734,70.08,24.734S514.805,185.972,507.592,155.055z"/>
	<path style="fill:#D89932;" d="M12.45,238.692c0,0,28.545,7.569,73.891-14.588c45.346-22.158,56.15-46.894,56.15-46.894
		L12.45,238.692z"/>
	<path style="fill:#F2B643;" d="M141.807,172.256c2.055,4.223,0.059,9.427-4.459,11.626L22.395,239.815
		c-4.518,2.197-9.844,0.556-11.898-3.666l-9.279-19.07c-2.055-4.224-0.059-9.429,4.459-11.626L120.63,149.52
		c4.518-2.199,9.844-0.558,11.898,3.666L141.807,172.256z"/>
	<path style="fill:#2D404E;" d="M1.833,207.614c0,0,36.07-7.214,70.078-24.734c34.01-17.52,53.076-34.009,53.076-34.009
		s-11.852-42.254-65.957-35.555S1.833,168.819,1.833,168.819S-2.291,195.246,1.833,207.614z"/>
	<path style="fill:#253744;" d="M387.014,123.105c-18.551-8.244-64.412-6.698-64.412-6.698H256h-66.602
		c0,0-45.861-1.546-64.412,6.698s-6.957,31.259-6.957,31.259c4.576-3.435,6.957-5.493,6.957-5.493
		c5.152-22.157,17.004-19.582,26.795-19.582c9.789,0,104.219,0,104.219,0s94.428,0,104.219,0c9.789,0,21.641-2.575,26.795,19.582
		c0,0,2.379,2.059,6.957,5.493C393.971,154.364,405.563,131.35,387.014,123.105z"/>
	<path style="fill:#D89932;" d="M499.551,238.692c0,0-28.545,7.569-73.891-14.588c-45.346-22.158-56.15-46.894-56.15-46.894
		L499.551,238.692z"/>
	<path style="fill:#F2B643;" d="M370.192,172.256c-2.055,4.223-0.057,9.427,4.459,11.626l114.955,55.934
		c4.516,2.197,9.844,0.556,11.898-3.666l9.279-19.07c2.055-4.224,0.057-9.429-4.459-11.626l-114.953-55.933
		c-4.518-2.199-9.846-0.558-11.9,3.666L370.192,172.256z"/>
	<path style="fill:#2D404E;" d="M510.168,207.614c0,0-36.07-7.214-70.08-24.734s-53.074-34.009-53.074-34.009
		s11.85-42.254,65.957-35.555c54.105,6.699,57.197,55.503,57.197,55.503S514.29,195.246,510.168,207.614z"/>
	<polygon style="fill:#253744;" points="256,177.94 195.583,177.94 195.583,187.731 256,187.731 316.418,187.731 316.418,177.94 	
		"/>
	<ellipse style="fill:#D89932;" cx="255.999" cy="252.678" rx="86.794" ry="67.85"/>
	<ellipse style="fill:#F2B643;" cx="255.999" cy="245.227" rx="86.794" ry="67.85"/>
	<g>
		<path style="fill:#2D404E;" d="M341.249,282.287c0,0,0-9.018,0-12.109s1.604-4.819-3.885-4.819s-16.824-1.879-20.688-3.167
			c-3.865-1.289-3.092-3.607-1.547-6.699c1.547-3.092,9.791,0,9.791,0s12.738,2.318,16.547,3.092
			c3.807,0.772,4.547,3.092,4.547,7.729s-0.264,8.025-0.264,8.025L341.249,282.287z"/>
		<path style="fill:#253744;" d="M341.249,282.287c0,0,0.484-8.631,0.484-11.723s0.707-5.797-4.369-5.206
			c0,0,2.051,0.954,2.051,5.85s0,11.079,0,11.079L341.249,282.287L341.249,282.287z"/>
	</g>
	<g>
		<ellipse style="fill:#2D404E;" cx="273.842" cy="195.396" rx="14.492" ry="12.561"/>
		<path style="fill:#586A73;" d="M259.35,195.396c0-6.937,6.488-12.56,14.492-12.56s14.492,5.623,14.492,12.56
			c0,0-1.537-7.584-14.492-7.584C260.885,187.812,259.35,195.396,259.35,195.396z"/>
	</g>
	<g>
		<ellipse style="fill:#2D404E;" cx="273.842" cy="292.35" rx="14.492" ry="12.561"/>
		<path style="fill:#586A73;" d="M259.35,292.35c0-6.937,6.488-12.56,14.492-12.56s14.492,5.623,14.492,12.56
			c0,0-1.537-7.584-14.492-7.584C260.885,284.766,259.35,292.35,259.35,292.35z"/>
	</g>
	<g>
		<ellipse style="fill:#2D404E;" cx="240.284" cy="195.396" rx="14.492" ry="12.561"/>
		<path style="fill:#586A73;" d="M225.791,195.396c0-6.937,6.488-12.56,14.492-12.56s14.492,5.623,14.492,12.56
			c0,0-1.535-7.584-14.492-7.584S225.791,195.396,225.791,195.396z"/>
	</g>
	<g>
		<ellipse style="fill:#2D404E;" cx="240.284" cy="292.35" rx="14.492" ry="12.561"/>
		<path style="fill:#586A73;" d="M225.791,292.35c0-6.937,6.488-12.56,14.492-12.56s14.492,5.623,14.492,12.56
			c0,0-1.535-7.584-14.492-7.584S225.791,292.35,225.791,292.35z"/>
	</g>
	<g>
		<ellipse style="fill:#2D404E;" cx="303.869" cy="207.956" rx="14.493" ry="12.561"/>
		<path style="fill:#586A73;" d="M289.375,207.956c0-6.937,6.488-12.561,14.492-12.561c8.006,0,14.494,5.624,14.494,12.561
			c0,0-1.537-7.584-14.494-7.584C290.913,200.372,289.375,207.956,289.375,207.956z"/>
	</g>
	<g>
		<ellipse style="fill:#2D404E;" cx="303.869" cy="279.79" rx="14.493" ry="12.56"/>
		<path style="fill:#586A73;" d="M289.375,279.79c0-6.938,6.488-12.561,14.492-12.561c8.006,0,14.494,5.623,14.494,12.561
			c0,0-1.537-7.585-14.494-7.585C290.913,272.205,289.375,279.79,289.375,279.79z"/>
	</g>
	<g>
		<ellipse style="fill:#2D404E;" cx="210.075" cy="206.41" rx="14.492" ry="12.561"/>
		<path style="fill:#586A73;" d="M195.583,206.41c0-6.937,6.488-12.56,14.492-12.56s14.492,5.623,14.492,12.56
			c0,0-1.535-7.584-14.492-7.584S195.583,206.41,195.583,206.41z"/>
	</g>
	<g>
		<ellipse style="fill:#2D404E;" cx="210.075" cy="277.919" rx="14.492" ry="12.56"/>
		<path style="fill:#586A73;" d="M195.583,277.919c0-6.938,6.488-12.561,14.492-12.561s14.492,5.623,14.492,12.561
			c0,0-1.535-7.585-14.492-7.585S195.583,277.919,195.583,277.919z"/>
	</g>
	<g>
		<ellipse style="fill:#2D404E;" cx="191.846" cy="228.699" rx="14.492" ry="12.561"/>
		<path style="fill:#586A73;" d="M177.354,228.699c0-6.937,6.488-12.56,14.492-12.56s14.492,5.623,14.492,12.56
			c0,0-1.535-7.584-14.492-7.584S177.354,228.699,177.354,228.699z"/>
	</g>
	<g>
		<ellipse style="fill:#2D404E;" cx="191.846" cy="256.459" rx="14.492" ry="12.561"/>
		<path style="fill:#586A73;" d="M177.354,256.459c0-6.937,6.488-12.561,14.492-12.561s14.492,5.624,14.492,12.561
			c0,0-1.535-7.585-14.492-7.585S177.354,256.459,177.354,256.459z"/>
	</g>
	<path style="fill:#2D404E;" d="M416.481,376.389H256.016h-0.031H95.52c-4.504,0-8.154,4.407-8.154,9.843V426.2
		c0,5.436,3.65,9.842,8.154,9.842h160.465h0.031h160.465c4.502,0,8.154-4.406,8.154-9.842v-39.969
		C424.635,380.796,420.983,376.389,416.481,376.389z"/>
	<path style="fill:#253744;" d="M95.52,376.389c-4.504,0-8.154,4.407-8.154,9.843V426.2c0,5.436,3.65,9.842,8.154,9.842h33.174
		v-59.653L95.52,376.389L95.52,376.389z"/>
	<path style="fill:#253744;" d="M416.481,376.389c4.502,0,8.154,4.407,8.154,9.843V426.2c0,5.436-3.652,9.842-8.154,9.842h-15.939
		v-59.653L416.481,376.389L416.481,376.389z"/>
	<path style="fill:#253744;" d="M134.069,376.328H98.708l6.184-22.157c0,0,24.734,2.576,37.6-21.643s14.445-114.395,14.445-114.395
		s4.637-51.529,4.637-60.805s5.668-13.912,18.551-13.912c0,0-8.244,4.007-8.244,16.688s-5.668,86.873-7.213,105.171
		c-1.547,18.299-4.754,53.339-12.168,75.496C145.084,362.931,134.069,376.328,134.069,376.328z"/>
	<path style="fill:#253744;" d="M377.93,376.328h35.361l-6.184-22.157c0,0-24.732,2.576-37.598-21.643
		s-14.444-114.394-14.444-114.394s-4.639-51.529-4.639-60.805s-5.668-13.912-18.551-13.912c0,0,8.244,4.007,8.244,16.688
		s5.668,86.873,7.215,105.171c1.545,18.299,4.754,53.339,12.168,75.496C366.916,362.931,377.93,376.328,377.93,376.328z"/>
	<polygon style="opacity:0.35;fill:#2D404E;enable-background:new    ;" points="411.28,369.114 411.28,369.114 413.291,376.328 	
		"/>
	<path style="opacity:0.35;fill:#2D404E;enable-background:new    ;" d="M100.721,369.114l-2.014,7.214L100.721,369.114z"/>
	<path style="fill:#253744;" d="M256,369.114H139.112c-2.961,4.681-5.043,7.214-5.043,7.214h121.932h121.93
		c0,0-2.082-2.533-5.043-7.214H256z"/>
	<path style="opacity:0.25;fill:#2D404E;enable-background:new    ;" d="M100.721,369.114l-2.014,7.214h35.361
		c0,0,2.082-2.533,5.043-7.214H100.721z"/>
	<path style="opacity:0.25;fill:#2D404E;enable-background:new    ;" d="M411.28,369.114h-38.393
		c2.961,4.681,5.043,7.214,5.043,7.214h35.361L411.28,369.114z"/>
	<path style="fill:#2D404E;" d="M45.891,116.011c2.184-7.312,4.438-13.932,6.568-19.709c-17.705,5.665-27.439,9.8-27.439,9.8
		s-13.398,18.035-20.611,48.953c-0.537,2.302-1.002,4.546-1.414,6.74C5.803,149.627,15.198,125.062,45.891,116.011z"/>
	<path style="fill:#D89932;" d="M142.491,177.211L142.491,177.211L142.491,177.211z"/>
	<polygon style="fill:#D89932;" points="12.45,238.692 12.459,238.694 12.454,238.689 	"/>
	<path style="fill:#F2B643;" d="M142.491,177.211c-0.002,0.005-0.883,2.015-3.184,5.396
		C141.014,181.185,142.133,179.257,142.491,177.211z"/>
	<path style="fill:#F2B643;" d="M124.889,148.549c0.064,0.207,0.098,0.322,0.098,0.322c0.025-0.11,0.055-0.211,0.08-0.319
		C125.006,148.55,124.948,148.549,124.889,148.549z"/>
	<path style="fill:#D89932;" d="M46.754,222.473c-3.549-7.548-6.705-16.021-8.834-25.146c-17.105,5.991-30.875,9.163-34.895,10.035
		c-2.555,2.595-3.4,6.447-1.809,9.717l9.279,19.07c0.486,0.998,1.16,1.848,1.957,2.54c0.002,0.002,0.004,0.003,0.006,0.005
		c2.547,2.208,6.398,2.779,9.816,1.172c0.039-0.019,0.08-0.032,0.119-0.051l26.537-12.913
		C48.194,225.464,47.467,223.987,46.754,222.473z"/>
	<path style="fill:#915A26;" d="M2.995,161.795c-0.988,4.277-1.162,7.024-1.162,7.024s-4.123,26.427,0,38.795
		C1.833,207.614-2.132,189.068,2.995,161.795z"/>
	<path style="fill:#253744;" d="M36.538,190.437c-1.607-9.601-1.986-19.807-0.459-30.331c2.369-16.307,5.982-31.267,9.812-44.095
		c-30.693,9.051-40.088,33.616-42.896,45.784c-5.127,27.273-1.162,45.819-1.162,45.819s0.416-0.083,1.193-0.252
		c0.746-0.757,1.629-1.412,2.65-1.909L36.538,190.437z"/>
	<path style="fill:#253744;" d="M36.538,190.437c0.391,2.335,0.855,4.632,1.383,6.891c10.564-3.699,22.396-8.474,33.99-14.447
		c34.01-17.52,53.076-34.009,53.076-34.009s-0.033-0.115-0.098-0.322c-1.418-0.011-2.877,0.299-4.26,0.972L36.538,190.437z"/>
	<path style="fill:#253744;" d="M36.538,190.437L5.677,205.454c-1.021,0.497-1.904,1.152-2.65,1.909
		c4.02-0.872,17.789-4.044,34.895-10.035C37.393,195.068,36.928,192.771,36.538,190.437z"/>
	<path style="fill:#2D404E;" d="M466.108,116.011c-2.184-7.312-4.436-13.932-6.568-19.709c17.705,5.665,27.439,9.8,27.439,9.8
		s13.398,18.035,20.613,48.953c0.537,2.302,1.002,4.546,1.414,6.74C506.198,149.627,496.801,125.062,466.108,116.011z"/>
	<path style="fill:#D89932;" d="M465.245,222.473c3.551-7.548,6.705-16.021,8.834-25.146c17.105,5.991,30.875,9.163,34.895,10.035
		c2.555,2.595,3.4,6.447,1.811,9.717l-9.279,19.07c-0.486,0.998-1.16,1.848-1.959,2.54c0,0.002-0.002,0.003-0.004,0.005
		c-2.547,2.208-6.398,2.779-9.816,1.172c-0.041-0.019-0.08-0.032-0.119-0.051l-26.539-12.913
		C463.805,225.464,464.534,223.987,465.245,222.473z"/>
	<path style="fill:#253744;" d="M475.463,190.437c1.607-9.601,1.986-19.807,0.457-30.331c-2.367-16.307-5.982-31.267-9.812-44.095
		c30.693,9.051,40.09,33.616,42.898,45.784c5.127,27.273,1.162,45.819,1.162,45.819s-0.416-0.083-1.195-0.252
		c-0.744-0.757-1.629-1.412-2.648-1.909L475.463,190.437z"/>
	<path style="fill:#253744;" d="M475.463,190.437c-0.393,2.335-0.857,4.632-1.385,6.891c-10.562-3.699-22.395-8.474-33.99-14.447
		c-34.01-17.52-53.074-34.009-53.074-34.009s0.031-0.115,0.098-0.322c1.418-0.011,2.877,0.299,4.26,0.972L475.463,190.437z"/>
	<path style="fill:#253744;" d="M475.463,190.437l30.861,15.017c1.02,0.497,1.904,1.152,2.648,1.909
		c-4.02-0.872-17.789-4.044-34.895-10.035C474.606,195.068,475.071,192.771,475.463,190.437z"/>
	<ellipse style="fill:#9D6227;" cx="256" cy="245.227" rx="35.193" ry="23.793"/>
</g>
<g>
</g>
<g>
</g>
<g>
</g>
<g>
</g>
<g>
</g>
<g>
</g>
<g>
</g>
<g>
</g>
<g>
</g>
<g>
</g>
<g>
</g>
<g>
</g>
<g>
</g>
<g>
</g>
<g>
</g>
</svg>
