<svg height="512pt" viewBox="-49 0 512 512" width="512pt" xmlns="http://www.w3.org/2000/svg"><path d="m389.058594 235.671875c-8.371094 0-15.871094-5.875-17.613282-14.394531-15.914062-77.765625-85.175781-134.210938-164.691406-134.210938-64.859375 0-124.613281 37.945313-152.222656 96.667969-4.230469 8.996094-14.957031 12.859375-23.949219 8.632813-8.996093-4.230469-12.859375-14.953126-8.628906-23.949219 33.519531-71.289063 106.058594-117.351563 184.800781-117.351563 96.539063 0 180.632813 68.550782 199.957032 162.992188 1.996093 9.742187-4.285157 19.25-14.023438 21.246094-1.21875.246093-2.429688.367187-3.628906.367187zm0 0" fill="#ff8354"/><path d="m38.105469 193.558594c-3.667969 0-7.277344-1.121094-10.324219-3.253906-3.910156-2.738282-6.574219-6.917969-7.402344-11.621094l-13.097656-74.28125c-1.726562-9.789063 4.8125-19.125 14.601562-20.851563 9.789063-1.726562 19.125 4.808594 20.851563 14.597657l9.972656 56.558593 56.554688-9.972656c9.789062-1.722656 19.125 4.808594 20.851562 14.601563 1.726563 9.789062-4.808593 19.125-14.597656 20.851562l-74.285156 13.097656c-1.039063.183594-2.085938.273438-3.125.273438zm0 0" fill="#ff8354"/><g fill="#ffac8c"><path d="m20.945312 180.925781c.203126.730469.441407 1.453125.738282 2.152344.015625-.035156.027344-.070313.042968-.109375-.300781-.660156-.5625-1.34375-.78125-2.042969zm0 0"/><path d="m406.714844 214.058594c-19.328125-94.441406-103.421875-162.992188-199.960938-162.992188-62.257812 0-120.617187 28.816406-158.898437 76.109375l2.027343 11.511719c38.300782-45.816406 95.710938-73.621094 156.871094-73.621094 95.214844 0 178.28125 66.703125 199.085938 159.144532 1.21875-3.121094 1.597656-6.617188.875-10.152344zm0 0"/><path d="m20.21875 177.789062.160156.894532c.007813.054687.023438.105468.035156.15625zm0 0"/><path d="m24.53125 97.546875c8.109375-1.367187 15.910156 2.480469 19.6875 9.023437l-1.484375-8.421874c-1.726563-9.789063-11.0625-16.324219-20.851563-14.597657-9.789062 1.726563-16.328124 11.0625-14.601562 20.851563l1.761719 9.984375c.414062-8.207031 6.683593-15.351563 15.488281-16.839844zm0 0"/></g><path d="m207.335938 460.105469c-96.539063 0-180.636719-68.546875-199.960938-162.992188-1.996094-9.738281 4.285156-19.25 14.023438-21.242187 9.738281-1.992188 19.25 4.285156 21.246093 14.023437 15.914063 77.765625 85.175781 134.210938 164.691407 134.210938 64.859374 0 124.609374-37.945313 152.222656-96.667969 4.226562-9 14.953125-12.859375 23.949218-8.632812 8.996094 4.230468 12.859376 14.953124 8.628907 23.949218-33.523438 71.289063-106.0625 117.351563-184.800781 117.351563zm0 0" fill="#ff8354"/><path d="m364.203125 372.484375c-38.296875 45.820313-95.707031 73.621094-156.867187 73.621094-95.214844 0-178.28125-66.699219-199.085938-159.140625-1.222656 3.125-1.601562 6.621094-.878906 10.148437 19.328125 94.445313 103.421875 162.992188 199.960937 162.992188 62.257813 0 120.617188-28.8125 158.898438-76.105469zm0 0" fill="#e0734a"/><path d="m393.136719 330.21875c-.203125-.722656-.4375-1.433594-.730469-2.125-.015625.035156-.03125.070312-.042969.105469.292969.652343.554688 1.324219.773438 2.019531zm0 0" fill="#e0734a"/><path d="m389.058594 427.902344c-8.570313 0-16.167969-6.140625-17.707032-14.875l-9.972656-56.554688-56.554687 9.972656c-9.785157 1.730469-19.125-4.808593-20.851563-14.597656-1.726562-9.792968 4.8125-19.128906 14.601563-20.855468l74.28125-13.097657c9.789062-1.722656 19.125 4.8125 20.851562 14.601563l13.097657 74.28125c1.726562 9.789062-4.808594 19.125-14.597657 20.851562-1.058593.183594-2.109375.273438-3.148437.273438zm0 0" fill="#ff8354"/><path d="m406.804688 406.773438-.859376-4.878907c-2.289062 5.914063-7.886718 10.5625-15.121093 11.730469-1.152344.1875-2.304688.277344-3.4375.277344-7.554688 0-14.410157-4.003906-17.664063-10.132813l1.632813 9.253907c1.539062 8.734374 9.132812 14.875 17.703125 14.875 1.039062 0 2.089844-.089844 3.148437-.273438 9.789063-1.726562 16.324219-11.0625 14.597657-20.851562zm0 0" fill="#e0734a"/><path d="m145.074219 512h-123.652344c-11.832031 0-21.421875-9.589844-21.421875-21.421875v-220.984375c0-11.832031 9.589844-21.421875 21.421875-21.421875h123.652344c11.832031 0 21.421875 9.589844 21.421875 21.421875v220.984375c0 11.832031-9.59375 21.421875-21.421875 21.421875zm0 0" fill="#6770e6"/><path d="m145.074219 248.171875h-123.652344c-11.828125 0-21.421875 9.589844-21.421875 21.421875v7.214844c0-11.832032 9.589844-21.421875 21.421875-21.421875h123.652344c11.828125 0 21.421875 9.589843 21.421875 21.421875v-7.214844c0-11.832031-9.59375-21.421875-21.421875-21.421875zm0 0" fill="#8f95e6"/><path d="m21.421875 512h123.652344c11.828125 0 21.421875-9.589844 21.421875-21.421875v-7.214844c0 11.832031-9.589844 21.421875-21.421875 21.421875h-123.652344c-11.828125 0-21.421875-9.589844-21.421875-21.421875v7.214844c.00390625 11.832031 9.59375 21.421875 21.421875 21.421875zm0 0" fill="#5861c7"/><path d="m21.421875 501.695312c-6.128906 0-11.117187-4.988281-11.117187-11.117187v-207.589844c0-6.128906 4.988281-11.113281 11.117187-11.113281h123.652344c6.128906 0 11.117187 4.984375 11.117187 11.113281v207.589844c0 6.128906-4.988281 11.117187-11.117187 11.117187zm0 0" fill="#a1f1fc"/><path d="m104.515625 264.570312h-57.992187c-2.5625 0-4.640626-2.074218-4.640626-4.636718s2.078126-4.636719 4.640626-4.636719h57.992187c2.5625 0 4.636719 2.074219 4.636719 4.636719s-2.074219 4.636718-4.636719 4.636718zm0 0" fill="#5861c7"/><path d="m124.613281 259.933594c0 2.5625-2.078125 4.636718-4.640625 4.636718-2.558594 0-4.636718-2.074218-4.636718-4.636718s2.078124-4.636719 4.636718-4.636719c2.5625 0 4.640625 2.074219 4.640625 4.636719zm0 0" fill="#5861c7"/><path d="m393.246094 263.828125h-123.652344c-11.832031 0-21.421875-9.589844-21.421875-21.421875v-220.984375c0-11.832031 9.59375-21.421875 21.421875-21.421875h123.648438c11.832031 0 21.421874 9.589844 21.421874 21.421875v220.984375c0 11.832031-9.589843 21.421875-21.417968 21.421875zm0 0" fill="#6770e6"/><path d="m393.246094 0h-123.652344c-11.828125 0-21.421875 9.589844-21.421875 21.421875v7.214844c0-11.832031 9.589844-21.421875 21.421875-21.421875h123.648438c11.832031 0 21.421874 9.589844 21.421874 21.421875v-7.214844c0-11.832031-9.589843-21.421875-21.417968-21.421875zm0 0" fill="#8f95e6"/><path d="m269.59375 263.828125h123.648438c11.832031 0 21.421874-9.589844 21.421874-21.421875v-7.214844c0 11.832032-9.589843 21.421875-21.421874 21.421875h-123.648438c-11.828125 0-21.421875-9.589843-21.421875-21.421875v7.214844c0 11.832031 9.59375 21.421875 21.421875 21.421875zm0 0" fill="#5861c7"/><path d="m269.59375 253.523438c-6.128906 0-11.117188-4.988282-11.117188-11.117188v-207.585938c0-6.128906 4.988282-11.117187 11.117188-11.117187h123.648438c6.132812 0 11.117187 4.988281 11.117187 11.117187v207.585938c0 6.132812-4.984375 11.117188-11.117187 11.117188zm0 0" fill="#a1f1fc"/><path d="m352.6875 16.398438h-57.992188c-2.5625 0-4.640624-2.074219-4.640624-4.636719s2.078124-4.636719 4.640624-4.636719h57.992188c2.5625 0 4.636719 2.074219 4.636719 4.636719s-2.078125 4.636719-4.636719 4.636719zm0 0" fill="#5861c7"/><path d="m372.785156 11.765625c0 2.558594-2.078125 4.636719-4.640625 4.636719-2.558593 0-4.636719-2.078125-4.636719-4.636719 0-2.5625 2.078126-4.640625 4.636719-4.640625 2.5625 0 4.640625 2.078125 4.640625 4.640625zm0 0" fill="#5861c7"/><path d="m138.636719 385.796875c0 30.59375-24.796875 55.390625-55.390625 55.390625-30.589844 0-55.386719-24.796875-55.386719-55.390625 0-30.589844 24.796875-55.390625 55.386719-55.390625 30.59375 0 55.390625 24.800781 55.390625 55.390625zm0 0" fill="#6770e6"/><path d="m121.59375 385.796875c0 21.179687-17.167969 38.347656-38.347656 38.347656-21.175782 0-38.34375-17.167969-38.34375-38.347656 0-21.175781 17.167968-38.34375 38.34375-38.34375 21.179687 0 38.347656 17.167969 38.347656 38.34375zm0 0" fill="#5861c7"/><path d="m80.441406 411.191406c-3.625-.53125-6.851562-1.929687-9.679687-4.207031-1.652344-1.328125-3.027344-2.988281-4.125-4.988281-1.332031-2.425782-.289063-5.476563 2.269531-6.523438 2.039062-.832031 4.429688-.125 5.5625 1.757813.367188.609375.789062 1.183593 1.261719 1.738281 1.300781 1.523438 2.871093 2.578125 4.710937 3.152344v-13.777344l-.648437-.292969c-1.789063-.675781-3.472657-1.472656-5.042969-2.394531-1.570312-.917969-2.949219-1.980469-4.132812-3.191406-1.191407-1.207032-2.136719-2.574219-2.832032-4.097656-.703125-1.523438-1.054687-3.226563-1.054687-5.113282 0-1.742187.316406-3.386718.945312-4.933594.632813-1.546874 1.535157-2.925781 2.722657-4.132812 1.183593-1.210938 2.621093-2.214844 4.316406-3.011719 1.691406-.800781 3.597656-1.316406 5.726562-1.558593v-3.011719c0-1.785157 1.445313-3.226563 3.226563-3.226563 1.785156 0 3.226562 1.445313 3.226562 3.226563v3.15625c1.9375.285156 3.621094.796875 5.042969 1.523437 1.429688.726563 2.652344 1.570313 3.703125 2.503906.40625.355469.796875.785157 1.167969 1.246094 1.832031 2.292969.902344 5.722656-1.777344 6.917969-1.839844.820313-3.953125.308594-5.304688-1.183594-.710937-.78125-1.640624-1.546875-2.828124-2.089843v12.984374c2.085937.875 3.964843 1.769532 5.664062 2.6875 1.691406.917969 3.140625 1.957032 4.351562 3.117188 1.210938 1.160156 2.125 2.480469 2.753907 3.953125.632812 1.476563.945312 3.179687.945312 5.113281 0 2.175782-.375 4.113282-1.121093 5.804688-.753907 1.691406-1.753907 3.140625-3.015626 4.351562-1.257812 1.210938-2.714843 2.179688-4.382812 2.902344-1.667969.726562-3.402344 1.230469-5.191406 1.519531v3.15625c0 1.78125-1.445313 3.226563-3.226563 3.226563-1.785156 0-3.230469-1.445313-3.230469-3.226563v-3.078125zm-4.78125-37.9375c0 1.160156.375 2.164063 1.121094 3.007813.753906.847656 1.972656 1.707031 3.664062 2.578125v-10.589844c-1.453124.386719-2.605468 1.015625-3.480468 1.882812-.875.875-1.304688 1.910157-1.304688 3.121094zm15.667969 23.359375c0-1.257812-.339844-2.300781-1.023437-3.121093-.675782-.824219-1.808594-1.644532-3.40625-2.46875v11.097656c1.308593-.433594 2.371093-1.125 3.195312-2.066406.820312-.941407 1.234375-2.089844 1.234375-3.441407zm0 0" fill="#8f95e6"/><path d="m150.058594 344.597656c0 14.140625-11.464844 25.609375-25.609375 25.609375s-25.609375-11.46875-25.609375-25.609375c0-14.144531 11.464844-25.613281 25.609375-25.613281s25.609375 11.46875 25.609375 25.613281zm0 0" fill="#d476e2"/><path d="m135.242188 339.921875h-21.585938c-2.558594 0-4.632812 2.074219-4.632812 4.632813 0 2.5625 2.074218 4.636718 4.632812 4.636718h21.585938c2.5625 0 4.636718-2.074218 4.636718-4.636718s-2.074218-4.632813-4.636718-4.632813zm0 0" fill="#fff7f2"/><path d="m386.578125 137.625c0 30.59375-24.796875 55.390625-55.386719 55.390625-30.59375 0-55.390625-24.796875-55.390625-55.390625 0-30.589844 24.796875-55.390625 55.390625-55.390625 30.589844 0 55.386719 24.800781 55.386719 55.390625zm0 0" fill="#6770e6"/><path d="m369.535156 137.625c0 21.179688-17.167968 38.347656-38.34375 38.347656-21.179687 0-38.347656-17.167968-38.347656-38.347656 0-21.175781 17.167969-38.34375 38.347656-38.34375 21.175782 0 38.34375 17.167969 38.34375 38.34375zm0 0" fill="#5861c7"/><path d="m328.382812 163.019531c-3.625-.53125-6.851562-1.929687-9.679687-4.207031-1.652344-1.328125-3.023437-2.988281-4.125-4.988281-1.332031-2.425781-.289063-5.476563 2.273437-6.523438 2.035157-.832031 4.425782-.125 5.558594 1.757813.367188.605468.789063 1.183594 1.261719 1.738281 1.300781 1.523437 2.871094 2.578125 4.710937 3.152344v-13.777344l-.648437-.292969c-1.789063-.675781-3.472656-1.472656-5.042969-2.394531-1.570312-.917969-2.949218-1.980469-4.132812-3.191406-1.191406-1.207031-2.132813-2.574219-2.832032-4.097657-.703124-1.523437-1.054687-3.226562-1.054687-5.117187 0-1.738281.316406-3.382813.945313-4.929687.632812-1.546876 1.535156-2.925782 2.726562-4.132813 1.179688-1.210937 2.617188-2.214844 4.3125-3.011719 1.691406-.800781 3.601562-1.316406 5.726562-1.558594v-3.011718c0-1.785156 1.445313-3.226563 3.226563-3.226563 1.785156 0 3.230469 1.445313 3.230469 3.226563v3.15625c1.933594.285156 3.617187.796875 5.039062 1.523437 1.429688.726563 2.652344 1.570313 3.707032 2.503907.402343.355468.792968.785156 1.164062 1.246093 1.832031 2.292969.902344 5.722657-1.777344 6.917969-1.839844.820312-3.953125.308594-5.304687-1.183594-.710938-.78125-1.640625-1.546875-2.824219-2.089844v12.984376c2.082031.875 3.960938 1.769531 5.660156 2.6875 1.691406.917968 3.140625 1.957031 4.351563 3.117187 1.210937 1.160156 2.125 2.480469 2.753906 3.949219.632813 1.480468.945313 3.183594.945313 5.117187 0 2.175781-.375 4.113281-1.121094 5.800781-.753906 1.695313-1.753906 3.144532-3.011719 4.355469-1.261719 1.210938-2.71875 2.179688-4.386719 2.902344-1.667968.726563-3.402344 1.230469-5.191406 1.519531v3.15625c0 1.78125-1.445312 3.226563-3.226562 3.226563-1.785157 0-3.230469-1.445313-3.230469-3.226563v-3.078125zm-4.78125-37.941406c0 1.164063.375 2.167969 1.121094 3.011719.753906.847656 1.972656 1.707031 3.660156 2.578125v-10.589844c-1.449218.386719-2.605468 1.015625-3.476562 1.882813-.875.875-1.304688 1.910156-1.304688 3.117187zm15.667969 23.363281c0-1.257812-.335937-2.300781-1.023437-3.121094-.675782-.824218-1.808594-1.644531-3.40625-2.46875v11.097657c1.308594-.433594 2.371094-1.125 3.195312-2.066407.820313-.941406 1.234375-2.089843 1.234375-3.441406zm0 0" fill="#8f95e6"/><path d="m398.003906 96.425781c0 14.140625-11.46875 25.609375-25.613281 25.609375s-25.609375-11.46875-25.609375-25.609375c0-14.144531 11.464844-25.613281 25.609375-25.613281s25.613281 11.46875 25.613281 25.613281zm0 0" fill="#d476e2"/><path d="m383.226562 91.824219h-6.238281v-6.234375c0-2.539063-2.054687-4.597656-4.59375-4.597656-2.539062 0-4.597656 2.058593-4.597656 4.597656v6.234375h-6.234375c-2.539062 0-4.597656 2.058593-4.597656 4.597656s2.058594 4.597656 4.597656 4.597656h6.234375v6.234375c0 2.539063 2.058594 4.597656 4.597656 4.597656 2.539063 0 4.59375-2.058593 4.59375-4.597656v-6.234375h6.238281c2.539063 0 4.59375-2.058593 4.59375-4.59375 0-2.542969-2.054687-4.601562-4.59375-4.601562zm0 0" fill="#fff7f2"/></svg>