<svg height="512pt" viewBox="0 0 512 512" width="512pt" xmlns="http://www.w3.org/2000/svg"><path d="m483.246094 512h-454.492188c-15.878906 0-28.753906-12.875-28.753906-28.753906v-454.492188c0-15.878906 12.875-28.753906 28.753906-28.753906h454.488282c15.882812 0 28.757812 12.875 28.757812 28.753906v454.488282c0 15.882812-12.875 28.757812-28.753906 28.757812zm0 0" fill="#f7ddca"/><path d="m483.246094 498h-454.492188c-15.878906 0-28.753906-12.875-28.753906-28.753906v14c0 15.878906 12.875 28.753906 28.753906 28.753906h454.488282c15.882812 0 28.753906-12.875 28.753906-28.753906v-14c.003906 15.878906-12.871094 28.753906-28.75 28.753906zm0 0" fill="#dbc4b4"/><path d="m483.246094 0h-454.492188c-15.878906 0-28.753906 12.875-28.753906 28.753906v14c0-15.878906 12.875-28.753906 28.753906-28.753906h454.488282c15.882812 0 28.757812 12.875 28.757812 28.753906v-14c0-15.878906-12.875-28.753906-28.753906-28.753906zm0 0" fill="#ffefe4"/><path d="m296.523438 80.585938h-19.714844l-18.207032-11.875-15.089843 11.875-15.085938-11.875-12.949219 11.875v-80.585938h81.046876zm0 0" fill="#ff8354"/><path d="m215.476562 0h81.046876v14h-81.046876zm0 0" fill="#ffac8c"/><path d="m26.203125 414.339844h142.222656v51.847656h-142.222656zm0 0" fill="#fff7f2"/><path d="m152.996094 429.769531v20.984375h-111.359375v-20.984375zm0 0" fill="#edd4c2"/><path d="m283.46875 130.777344-16.785156 32.71875h25.566406l-47.257812 72.769531 14.695312-55.070313h-29.386719l15.734375-50.417968h-64.679687v95.550781c0 37.105469 27.078125 67.871094 62.546875 73.652344v57.046875h-32.816406v24.191406h89.828124v-24.191406h-32.816406v-57.046875c35.46875-5.78125 62.546875-36.546875 62.546875-73.652344v-95.550781zm0 0" fill="#ff8354"/></svg>