<svg height="512pt" viewBox="0 0 512 512" width="512pt" xmlns="http://www.w3.org/2000/svg"><path d="m497.769531 395.148438h-483.539062c-7.859375 0-14.230469-6.371094-14.230469-14.234376v-366.683593c0-7.859375 6.371094-14.230469 14.230469-14.230469h483.535156c7.859375 0 14.230469 6.371094 14.230469 14.230469v366.683593c.003906 7.863282-6.367188 14.234376-14.226563 14.234376zm0 0" fill="#6770e6"/><path d="m497.769531 0h-483.539062c-7.859375 0-14.230469 6.371094-14.230469 14.230469v14c0-7.859375 6.371094-14.230469 14.230469-14.230469h483.539062c7.859375 0 14.230469 6.371094 14.230469 14.230469v-14c0-7.859375-6.371094-14.230469-14.230469-14.230469zm0 0" fill="#8f95e6"/><path d="m30 350.914062v-301.722656c0-10.597656 8.59375-19.191406 19.191406-19.191406h413.617188c10.597656 0 19.191406 8.59375 19.191406 19.191406v301.722656c0 7.863282-6.371094 14.234376-14.230469 14.234376h-423.539062c-7.859375 0-14.230469-6.371094-14.230469-14.234376zm0 0" fill="#69ebfc"/><path d="m196.277344 395.148438h121.894531v76.871093h-121.894531zm0 0" fill="#5861c7"/><path d="m375.808594 512h-236.601563c-11.039062 0-19.988281-8.949219-19.988281-19.988281 0-11.042969 8.949219-19.992188 19.988281-19.992188h236.601563c11.042968 0 19.992187 8.949219 19.992187 19.992188 0 11.039062-8.949219 19.988281-19.992187 19.988281zm0 0" fill="#6770e6"/><path d="m375.808594 498h-236.601563c-8.574219 0-15.863281-5.40625-18.703125-12.988281-.820312 2.179687-1.289062 4.53125-1.289062 7 0 11.039062 8.949218 19.988281 19.992187 19.988281h236.601563c11.039062 0 19.988281-8.949219 19.988281-19.988281 0-2.46875-.46875-4.820313-1.285156-7-2.835938 7.582031-10.128907 12.988281-18.703125 12.988281zm0 0" fill="#5861c7"/><path d="m302.335938 327.863281h-.707032v-10.363281c0-17.519531-14.199218-31.71875-31.71875-31.71875h-173.664062c-17.515625 0-31.714844 14.199219-31.714844 31.71875v10.363281h-.707031c-4.886719 0-8.851563 3.960938-8.851563 8.851563 0 4.886718 3.964844 8.847656 8.851563 8.847656h238.511719c4.886718 0 8.851562-3.960938 8.851562-8.847656 0-4.890625-3.964844-8.851563-8.851562-8.851563zm0 0" fill="#b665c2"/><path d="m263.425781 268.078125h-160.691406c-3.722656 0-6.742187 3.019531-6.742187 6.742187v10.960938h174.171874v-10.960938c0-3.722656-3.015624-6.742187-6.738281-6.742187zm0 0" fill="#d476e2"/><path d="m342.21875 139.746094-17.214844 17.21875-66.117187-66.117188 17.214843-17.21875zm0 0" fill="#b665c2"/><path d="m273.929688 208.035156-17.21875 17.21875-66.117188-66.117187 17.21875-17.21875zm0 0" fill="#b665c2"/><g fill="#d476e2"><path d="m328.929688 169.078125-42.890626 42.890625c-2.257812 2.257812-5.921874 2.257812-8.183593 0l-73.976563-73.976562c-2.257812-2.261719-2.257812-5.925782 0-8.183594l42.890625-42.890625c2.261719-2.261719 5.925781-2.261719 8.183594 0l73.976563 73.976562c2.261718 2.257813 2.261718 5.921875 0 8.183594zm0 0"/><path d="m264.195312 247.988281c4.210938-4.210937 4.210938-11.039062 0-15.25l-81.089843-81.085937c-4.210938-4.210938-11.039063-4.210938-15.25 0-4.210938 4.210937-4.210938 11.039062 0 15.25l81.089843 81.085937c4.210938 4.214844 11.039063 4.214844 15.25 0zm0 0"/><path d="m364.953125 147.230469c4.210937-4.210938 4.210937-11.039063 0-15.25l-81.089844-81.089844c-4.210937-4.210937-11.039062-4.210937-15.25 0-4.210937 4.214844-4.210937 11.042969 0 15.25l81.089844 81.089844c4.207031 4.214843 11.035156 4.214843 15.25 0zm0 0"/></g><path d="m457.21875 342.054688c-8.914062 8.917968-23.460938 8.621093-32.007812-.652344l-128.828126-139.777344 20.40625-20.40625 139.777344 128.828125c9.277344 8.546875 9.570313 23.089844.652344 32.007813zm0 0" fill="#b665c2"/></svg>