<svg height="512pt" viewBox="0 0 512 512" width="512pt" xmlns="http://www.w3.org/2000/svg"><path d="m477.695312 117.160156h-227.390624c-7.898438 0-14.304688-6.402344-14.304688-14.304687v-88.550781c0-7.902344 6.402344-14.304688 14.304688-14.304688h227.390624c7.902344 0 14.304688 6.402344 14.304688 14.304688v88.550781c0 7.898437-6.402344 14.304687-14.304688 14.304687zm0 0" fill="#d476e2"/><path d="m477.695312 0h-227.390624c-7.902344 0-14.304688 6.402344-14.304688 14.304688v14c0-7.902344 6.402344-14.304688 14.304688-14.304688h227.390624c7.898438 0 14.304688 6.402344 14.304688 14.304688v-14c0-7.902344-6.402344-14.304688-14.304688-14.304688zm0 0" fill="#ea82fa"/><path d="m256 86.390625v-55.621094c0-5.949219 4.820312-10.769531 10.769531-10.769531h194.460938c5.949219 0 10.769531 4.820312 10.769531 10.769531v55.621094c0 5.949219-4.820312 10.769531-10.769531 10.769531h-194.460938c-5.949219 0-10.769531-4.820312-10.769531-10.769531zm0 0" fill="#69ebfc"/><path d="m336.703125 117.160156h54.59375v34.59375h-54.59375zm0 0" fill="#b665c2"/><path d="m472.390625 151.753906h-432.78125c-10.828125 0-19.609375 8.777344-19.609375 19.609375v106.042969h472v-106.042969c0-10.832031-8.78125-19.609375-19.609375-19.609375zm0 0" fill="#d476e2"/><path d="m472.390625 151.75h-432.78125c-10.828125 0-19.609375 8.78125-19.609375 19.609375v14c0-10.828125 8.78125-19.609375 19.609375-19.609375h432.78125c10.828125 0 19.609375 8.78125 19.609375 19.609375v-14c0-10.828125-8.78125-19.609375-19.609375-19.609375zm0 0" fill="#ea82fa"/><path d="m20 277.40625h472v130.589844h-472zm0 0" fill="#b665c2"/><path d="m502.671875 407.992188h-493.34375c-5.148437 0-9.328125 4.179687-9.328125 9.332031v85.347656c0 5.148437 4.179688 9.328125 9.328125 9.328125h493.34375c5.148437 0 9.328125-4.179688 9.328125-9.328125v-85.347656c0-5.152344-4.179688-9.332031-9.328125-9.332031zm0 0" fill="#6770e6"/><path d="m502.671875 498h-493.34375c-5.148437 0-9.328125-4.179688-9.328125-9.328125v14c0 5.148437 4.179688 9.328125 9.328125 9.328125h493.34375c5.148437 0 9.328125-4.179688 9.328125-9.328125v-14c0 5.148437-4.179688 9.328125-9.328125 9.328125zm0 0" fill="#5861c7"/><path d="m20 487.371094v-54.746094c0-2.558594 2.070312-4.632812 4.628906-4.632812h462.742188c2.554687 0 4.628906 2.074218 4.628906 4.632812v54.746094c0 2.554687-2.070312 4.628906-4.628906 4.628906h-462.742188c-2.558594 0-4.628906-2.070312-4.628906-4.628906zm0 0" fill="#5861c7"/><path d="m212.734375 230.5h-138.664063c-8.792968 0-15.921874-7.128906-15.921874-15.921875s7.128906-15.921875 15.921874-15.921875h138.664063c8.792969 0 15.921875 7.128906 15.921875 15.921875s-7.128906 15.921875-15.921875 15.921875zm0 0" fill="#b665c2"/><path d="m191.859375 57.074219-16.152344 19.011719-16.152343-19.011719-16.152344 19.011719-16.152344-19.011719-16.148438 19.011719-16.152343-19.011719-16.152344 19.011719v138.492187h129.210937v-138.492187zm0 0" fill="#ffefe4"/><path d="m191.859375 57.074219-16.152344 19.011719-16.152343-19.011719-16.152344 19.011719-16.152344-19.011719-16.148438 19.011719-16.152343-19.011719-16.152344 19.011719v14l16.152344-19.011719 16.152343 19.011719 16.148438-19.011719 16.152344 19.011719 16.152344-19.011719 16.152343 19.011719 16.152344-19.011719 16.148437 19.011719v-14zm0 0" fill="#fff7f2"/><path d="m461.230469 248.625h-194.460938c-5.949219 0-10.769531-4.820312-10.769531-10.769531v-46.554688c0-5.949219 4.820312-10.769531 10.769531-10.769531h194.460938c5.949219 0 10.769531 4.820312 10.769531 10.769531v46.554688c0 5.949219-4.820312 10.769531-10.769531 10.769531zm0 0" fill="#69ebfc"/><path d="m268.628906 459.996094c0 6.976562-5.65625 12.628906-12.628906 12.628906s-12.628906-5.652344-12.628906-12.628906c0-6.972656 5.65625-12.625 12.628906-12.625s12.628906 5.652344 12.628906 12.625zm0 0" fill="#6770e6"/><g fill="#69ebfc"><path d="m201.339844 311.785156v-16.5c0-2.425781 1.964844-4.394531 4.390625-4.394531h18.402343c2.425782 0 4.394532 1.96875 4.394532 4.394531v16.5c0 2.425782-1.96875 4.394532-4.394532 4.394532h-18.402343c-2.425781 0-4.390625-1.96875-4.390625-4.394532zm0 0"/><path d="m242.40625 311.785156v-16.5c0-2.425781 1.964844-4.394531 4.390625-4.394531h18.40625c2.425781 0 4.394531 1.96875 4.394531 4.394531v16.5c0 2.425782-1.96875 4.394532-4.394531 4.394532h-18.40625c-2.425781 0-4.390625-1.96875-4.390625-4.394532zm0 0"/><path d="m283.472656 311.785156v-16.5c0-2.425781 1.96875-4.394531 4.394532-4.394531h18.402343c2.425781 0 4.390625 1.96875 4.390625 4.394531v16.5c0 2.425782-1.964844 4.394532-4.390625 4.394532h-18.402343c-2.425782 0-4.394532-1.96875-4.394532-4.394532zm0 0"/><path d="m201.339844 350.949219v-16.5c0-2.425781 1.964844-4.394531 4.390625-4.394531h18.402343c2.425782 0 4.394532 1.96875 4.394532 4.394531v16.5c0 2.425781-1.96875 4.394531-4.394532 4.394531h-18.402343c-2.425781 0-4.390625-1.96875-4.390625-4.394531zm0 0"/><path d="m242.40625 350.949219v-16.5c0-2.425781 1.964844-4.394531 4.390625-4.394531h18.40625c2.425781 0 4.394531 1.96875 4.394531 4.394531v16.5c0 2.425781-1.96875 4.394531-4.394531 4.394531h-18.40625c-2.425781 0-4.390625-1.96875-4.390625-4.394531zm0 0"/><path d="m283.472656 350.949219v-16.5c0-2.425781 1.96875-4.394531 4.394532-4.394531h18.402343c2.425781 0 4.390625 1.96875 4.390625 4.394531v16.5c0 2.425781-1.964844 4.394531-4.390625 4.394531h-18.402343c-2.425782 0-4.394532-1.96875-4.394532-4.394531zm0 0"/><path d="m201.339844 390.117188v-16.503907c0-2.425781 1.964844-4.390625 4.390625-4.390625h18.402343c2.425782 0 4.394532 1.964844 4.394532 4.390625v16.503907c0 2.425781-1.96875 4.390624-4.394532 4.390624h-18.402343c-2.425781 0-4.390625-1.96875-4.390625-4.390624zm0 0"/><path d="m242.40625 390.117188v-16.503907c0-2.425781 1.964844-4.390625 4.390625-4.390625h18.40625c2.425781 0 4.394531 1.964844 4.394531 4.390625v16.503907c0 2.425781-1.96875 4.390624-4.394531 4.390624h-18.40625c-2.425781 0-4.390625-1.96875-4.390625-4.390624zm0 0"/><path d="m283.472656 390.117188v-16.503907c0-2.425781 1.96875-4.390625 4.394532-4.390625h18.402343c2.425781 0 4.390625 1.964844 4.390625 4.390625v16.503907c0 2.425781-1.964844 4.390624-4.390625 4.390624h-18.402343c-2.425782 0-4.394532-1.96875-4.394532-4.390624zm0 0"/></g><path d="m81.148438 302.394531c0 6.351563-5.148438 11.5-11.5 11.5-6.351563 0-11.503907-5.148437-11.503907-11.5 0-6.351562 5.152344-11.503906 11.503907-11.503906 6.351562 0 11.5 5.152344 11.5 11.503906zm0 0" fill="#ea82fa"/><path d="m163.796875 308.933594h-64.324219c-3.609375 0-6.539062-2.929688-6.539062-6.539063s2.929687-6.539062 6.539062-6.539062h64.324219c3.609375 0 6.539063 2.929687 6.539063 6.539062 0 3.613281-2.929688 6.539063-6.539063 6.539063zm0 0" fill="#ea82fa"/><path d="m81.148438 342.699219c0 6.351562-5.148438 11.503906-11.5 11.503906-6.351563 0-11.503907-5.152344-11.503907-11.503906 0-6.351563 5.152344-11.5 11.503907-11.5 6.351562 0 11.5 5.148437 11.5 11.5zm0 0" fill="#ea82fa"/><path d="m163.796875 349.238281h-64.324219c-3.609375 0-6.539062-2.929687-6.539062-6.539062s2.929687-6.539063 6.539062-6.539063h64.324219c3.609375 0 6.539063 2.929688 6.539063 6.539063s-2.929688 6.539062-6.539063 6.539062zm0 0" fill="#ea82fa"/><path d="m81.148438 381.964844c0 6.355468-5.148438 11.503906-11.5 11.503906-6.351563 0-11.503907-5.148438-11.503907-11.503906 0-6.351563 5.152344-11.5 11.503907-11.5 6.351562 0 11.5 5.148437 11.5 11.5zm0 0" fill="#ea82fa"/><path d="m163.796875 388.503906h-64.324219c-3.609375 0-6.539062-2.929687-6.539062-6.539062s2.929687-6.535156 6.539062-6.535156h64.324219c3.609375 0 6.539063 2.925781 6.539063 6.535156s-2.929688 6.539062-6.539063 6.539062zm0 0" fill="#ea82fa"/><path d="m344.738281 290.894531h123.980469c1.8125 0 3.28125 1.46875 3.28125 3.28125v11.519531h-130.542969v-11.519531c0-1.8125 1.46875-3.28125 3.28125-3.28125zm0 0" fill="#ffefe4"/><path d="m341.457031 305.695312h130.542969v14.800782h-130.542969zm0 0" fill="#edd4c2"/><path d="m341.457031 320.496094h130.542969v14.800781h-130.542969zm0 0" fill="#ffefe4"/><path d="m341.457031 335.296875h130.542969v14.804687h-130.542969zm0 0" fill="#edd4c2"/><path d="m341.457031 350.101562h130.542969v14.800782h-130.542969zm0 0" fill="#ffefe4"/><path d="m341.457031 364.902344h130.542969v14.800781h-130.542969zm0 0" fill="#edd4c2"/><path d="m341.457031 379.703125h130.542969v11.523437c0 1.8125-1.46875 3.28125-3.28125 3.28125h-123.980469c-1.8125 0-3.28125-1.46875-3.28125-3.28125zm0 0" fill="#ffefe4"/><path d="m326.589844 222.472656h-39.769532c-4.359374 0-7.894531-3.53125-7.894531-7.894531 0-4.359375 3.535157-7.890625 7.894531-7.890625h39.769532c4.359375 0 7.894531 3.53125 7.894531 7.890625s-3.535156 7.894531-7.894531 7.894531zm0 0" fill="#6770e6"/><path d="m422.148438 222.472656h-59.769532c-4.359375 0-7.894531-3.53125-7.894531-7.894531 0-4.359375 3.535156-7.890625 7.894531-7.890625h59.769532c4.363281 0 7.894531 3.53125 7.894531 7.890625s-3.53125 7.894531-7.894531 7.894531zm0 0" fill="#6770e6"/><path d="m326.589844 66.476562h-39.769532c-4.359374 0-7.894531-3.535156-7.894531-7.894531s3.535157-7.894531 7.894531-7.894531h39.769532c4.359375 0 7.894531 3.535156 7.894531 7.894531s-3.535156 7.894531-7.894531 7.894531zm0 0" fill="#6770e6"/><path d="m422.148438 66.476562h-59.769532c-4.359375 0-7.894531-3.535156-7.894531-7.894531s3.535156-7.894531 7.894531-7.894531h59.769532c4.363281 0 7.894531 3.535156 7.894531 7.894531s-3.53125 7.894531-7.894531 7.894531zm0 0" fill="#6770e6"/><path d="m138.996094 189.042969c-5.523438-.808594-10.4375-2.941407-14.75-6.410157-2.511719-2.019531-4.605469-4.550781-6.277344-7.597656-2.027344-3.695312-.445312-8.34375 3.460938-9.9375 3.101562-1.269531 6.742187-.191406 8.46875 2.679688.558593.921875 1.199218 1.800781 1.921874 2.644531 1.984376 2.320313 4.375 3.925781 7.175782 4.804687v-20.992187l-.984375-.445313c-2.726563-1.03125-5.289063-2.242187-7.683594-3.648437-2.390625-1.394531-4.492187-3.019531-6.292969-4.859375-1.8125-1.839844-3.25-3.921875-4.3125-6.246094-1.074218-2.320312-1.609375-4.917968-1.609375-7.792968 0-2.648438.480469-5.152344 1.4375-7.515626.964844-2.351562 2.335938-4.457031 4.152344-6.292968 1.800781-1.839844 3.988281-3.375 6.574219-4.585938 2.574218-1.21875 5.484375-2.007812 8.722656-2.378906v-4.585938c0-2.714843 2.203125-4.917968 4.917969-4.917968 2.714843 0 4.917969 2.203125 4.917969 4.917968v4.808594c2.949218.4375 5.515624 1.214844 7.679687 2.320313 2.179687 1.105469 4.039063 2.394531 5.640625 3.8125.617188.546875 1.214844 1.199219 1.777344 1.902343 2.789062 3.492188 1.371094 8.71875-2.710938 10.539063-2.796875 1.25-6.019531.464844-8.082031-1.800781-1.082031-1.191406-2.503906-2.359375-4.304687-3.183594v19.78125c3.175781 1.328125 6.039062 2.691406 8.621093 4.089844 2.574219 1.402344 4.785157 2.984375 6.632813 4.753906 1.84375 1.765625 3.238281 3.777344 4.191406 6.019531.964844 2.25 1.4375 4.847657 1.4375 7.792969 0 3.3125-.566406 6.261719-1.703125 8.839844-1.148437 2.578125-2.671875 4.789062-4.59375 6.628906-1.917969 1.847656-4.140625 3.320312-6.683594 4.425781-2.539062 1.101563-5.179687 1.875-7.902343 2.316407v4.804687c0 2.71875-2.203126 4.917969-4.921876 4.917969-2.714843 0-4.917968-2.199219-4.917968-4.917969zm-7.28125-57.796875c0 1.769531.566406 3.296875 1.707031 4.585937 1.144531 1.292969 3.003906 2.601563 5.574219 3.925781v-16.132812c-2.207032.589844-3.96875 1.542969-5.296875 2.867188-1.332031 1.332031-1.984375 2.914062-1.984375 4.753906zm23.867187 35.589844c0-1.914063-.515625-3.503907-1.554687-4.753907-1.03125-1.257812-2.757813-2.503906-5.191406-3.761719v16.90625c1.992187-.660156 3.613281-1.707031 4.867187-3.148437 1.246094-1.4375 1.878906-3.183594 1.878906-5.242187zm0 0" fill="#6770e6"/></svg>