<svg id="Layer_1" height="512" viewBox="0 0 150 150" width="512" xmlns="http://www.w3.org/2000/svg" data-name="Layer 1"><circle cx="75" cy="75" fill="#d5d6db" r="64"/><path d="m120.38 82.15.39-5.67-4.49-1c0-.15 0-.29 0-.44 0-1.22-.06-2.42-.16-3.61l4.52-1.73-1.16-5.56-4.6.21c-.35-1.32-.77-2.6-1.24-3.86l3.89-2.88-2.62-5-4.38 1.39a40.25 40.25 0 0 0 -2.23-3.38l3-3.83-3.9-4.19-3.85 2.59c-1-.93-2-1.82-3-2.65l1.83-4.5-4.85-3-3 3.51c-1.19-.63-2.41-1.21-3.67-1.73l.55-4.8-5.51-1.5-1.9 4.18a40.41 40.41 0 0 0 -4-.7l-.76-4.77h-5.73l-.72 4.52c-1.37.07-2.73.21-4.06.41l-2-4.34-5.47 1.53.51 4.52q-1.95.66-3.81 1.5l-3.09-3.62-4.87 2.97 1.7 4.18q-1.7 1.17-3.27 2.49l-3.93-2.64-3.87 4.15 2.75 3.55c-.88 1-1.72 2.15-2.5 3.29l-4.46-1.47-2.62 5 3.59 2.73a39.16 39.16 0 0 0 -1.52 3.86l-4.67-.22-1.2 5.54 4.14 1.58a40.3 40.3 0 0 0 -.42 4.14l-4.53 1 .39 5.67 4.42.43c.17 1.4.41 2.77.71 4.11l-4.06 2.23 1.9 5.35 4.32-.79a39.55 39.55 0 0 0 1.81 3.77l-3.3 3.23 3.27 4.64 4-1.94c.87 1.1 1.79 2.14 2.75 3.14l-2.31 4 4.41 3.59 3.29-2.93c1.12.81 2.29 1.57 3.5 2.28l-1.15 4.48 5.21 2.27 2.37-3.71a41.07 41.07 0 0 0 4 1.25l.1 4.63 5.64.77 1.29-4.25c1.08.09 2.17.14 3.28.14h.87l1.36 4.48 5.64-.78.1-4.45c1.36-.27 2.7-.6 4-1l2.53 4 5.21-2.27-1.11-4.34c1.23-.63 2.42-1.31 3.58-2l3.53 3.15 4.41-3.59-2.26-3.91c1-.92 2-1.9 2.88-2.92l4.28 2.09 3.27-4.64-3.25-3.18c.72-1.15 1.38-2.35 2-3.57l4.7.86 1.91-5.35-4-2.2c.38-1.3.69-2.62.94-4zm-20.23-27.57a32.25 32.25 0 0 1 7.08 17.08h-20.76a12.09 12.09 0 0 0 -1-2.41zm-4.73-4.73-14.67 14.67a12.45 12.45 0 0 0 -2.41-1v-20.75a32.25 32.25 0 0 1 17.08 7.08zm-26.04 25.15a5.62 5.62 0 1 1 5.62 5.62 5.62 5.62 0 0 1 -5.62-5.62zm2.28-32.23v20.76a12.45 12.45 0 0 0 -2.41 1l-14.67-14.68a32.25 32.25 0 0 1 17.08-7.08zm-21.81 11.81 14.67 14.67a12.09 12.09 0 0 0 -1 2.41h-20.75a32.25 32.25 0 0 1 7.08-17.08zm-7.08 23.76h20.76a12.45 12.45 0 0 0 1 2.41l-14.68 14.67a32.25 32.25 0 0 1 -7.08-17.08zm11.81 21.81 14.67-14.67a11.82 11.82 0 0 0 2.41 1v20.76a32.27 32.27 0 0 1 -17.08-7.09zm23.76 7.07v-20.76a11.82 11.82 0 0 0 2.41-1l14.66 14.67a32.28 32.28 0 0 1 -17.07 7.09zm21.81-11.8-14.67-14.67a12.45 12.45 0 0 0 1-2.41h20.76a32.25 32.25 0 0 1 -7.09 17.08z" fill="#3a556a"/></svg>